<?xml version="1.0" encoding="utf-8"?>
<!-- Generated by IcoMoon.io -->
<!DOCTYPE svg PUBLIC "-//W3C//DTD SVG 1.1//EN" "http://www.w3.org/Graphics/SVG/1.1/DTD/svg11.dtd">
<svg version="1.1" xmlns="http://www.w3.org/2000/svg" xmlns:xlink="http://www.w3.org/1999/xlink" width="32" height="32" viewBox="0 0 32 32">
<path d="M25.888 27.648c0.32 0 0.544-0.224 0.544-0.544s-0.224-0.544-0.544-0.544h-19.904c-0.32 0-0.544 0.224-0.544 0.544s0.224 0.544 0.544 0.544h19.904zM10.944 16.032c-0.288 0-0.544 0.256-0.544 0.544v6.656c0 0.288 0.256 0.544 0.544 0.544 0.32 0 0.576-0.256 0.576-0.544v-6.656c0-0.288-0.256-0.544-0.576-0.544zM27.552 28.768h-23.232c-0.32 0-0.544 0.256-0.544 0.544 0 0.32 0.224 0.544 0.544 0.544h23.232c0.288 0 0.544-0.224 0.544-0.544 0-0.288-0.256-0.544-0.544-0.544zM30.432 18.496l-5.504-1.344c-0.064 0-0.096 0-0.128 0v-1.664c0-0.064-0.032-0.128-0.064-0.192l0.384 0.16c0.064 0.032 0.16 0.032 0.224 0.032 0.224 0 0.416-0.128 0.512-0.352 0.096-0.288-0.032-0.608-0.32-0.704l-3.52-1.472v-4.672c0-3.488-2.144-5.824-5.536-6.048 0 0 0-0.032 0-0.032v-1.664c0-0.288-0.224-0.544-0.544-0.544s-0.544 0.256-0.544 0.544v1.664c0 0 0 0.032 0 0.032-3.392 0.224-5.536 2.56-5.536 6.048v4.672l-3.52 1.472c-0.288 0.096-0.416 0.416-0.32 0.704 0.128 0.288 0.448 0.416 0.736 0.32l0.384-0.16c-0.032 0.064-0.064 0.128-0.064 0.192v1.696l-5.632 1.312c-0.256 0.064-0.448 0.288-0.448 0.544v8.064c0 0.32 0.256 0.544 0.576 0.544h2.208c0.288 0 0.544-0.224 0.544-0.544s-0.256-0.544-0.544-0.544h-1.664v-7.072l4.96-1.184v6.592c0 0.288 0.256 0.544 0.576 0.544h16.576c0.32 0 0.576-0.256 0.576-0.544v-6.624l4.96 1.216v7.072h-1.664c-0.288 0-0.544 0.224-0.544 0.544s0.256 0.544 0.544 0.544h2.208c0.32 0 0.576-0.224 0.576-0.544v-8.064c0-0.256-0.192-0.48-0.448-0.544zM15.936 3.328c2.272 0 4.704 1.152 4.96 4.416h-9.92c0.256-3.264 2.688-4.416 4.96-4.416zM10.944 8.832h9.984v3.68l-4.768-1.952c-0.16-0.064-0.288-0.064-0.448 0l-4.768 1.952v-3.68zM23.68 15.488v8.832h-15.488v-8.832c0-0.224-0.128-0.416-0.32-0.512l8.064-3.328 8.064 3.328c-0.192 0.096-0.32 0.288-0.32 0.512zM14.272 16.032c-0.288 0-0.544 0.256-0.544 0.544v6.656c0 0.288 0.256 0.544 0.544 0.544 0.32 0 0.544-0.256 0.544-0.544v-6.656c0-0.288-0.224-0.544-0.544-0.544zM17.6 23.776c0.288 0 0.544-0.256 0.544-0.544v-6.656c0-0.288-0.256-0.544-0.544-0.544s-0.544 0.256-0.544 0.544v6.656c0 0.288 0.224 0.544 0.544 0.544zM20.928 23.776c0.288 0 0.544-0.256 0.544-0.544v-6.656c0-0.288-0.256-0.544-0.544-0.544-0.32 0-0.576 0.256-0.576 0.544v6.656c0 0.288 0.256 0.544 0.576 0.544z"></path>
</svg>
