<?xml version="1.0" encoding="utf-8"?>
<!-- Generated by IcoMoon.io -->
<!DOCTYPE svg PUBLIC "-//W3C//DTD SVG 1.1//EN" "http://www.w3.org/Graphics/SVG/1.1/DTD/svg11.dtd">
<svg version="1.1" xmlns="http://www.w3.org/2000/svg" xmlns:xlink="http://www.w3.org/1999/xlink" width="32" height="32" viewBox="0 0 32 32">
<path d="M22.852 32h-13.761c-1.73 0-3.178-1.231-3.514-2.863h-0.656c-1.078 0-1.955-0.877-1.955-1.955v-6.208c0-1.078 0.877-1.955 1.955-1.955h0.583v-6.298c-0.735-0.278-1.258-0.989-1.258-1.82v-5.437c0-1.073 0.873-1.945 1.945-1.945h1.565v-0.625c0-0.87 0.708-1.577 1.578-1.577h2.795c0.87 0 1.577 0.708 1.577 1.577v0.625h4.289v-1.94c0-0.87 0.708-1.577 1.577-1.577h2.795c0.87 0 1.578 0.708 1.578 1.577v1.94h1.808c1.073 0 1.945 0.873 1.945 1.945v5.437c0 0.831-0.524 1.542-1.258 1.82v6.298h0.639c1.078 0 1.955 0.877 1.955 1.955v6.208c0 1.078-0.877 1.955-1.955 1.955h-0.713c-0.336 1.632-1.784 2.863-3.514 2.863zM6.338 28.836c0.205 1.336 1.361 2.362 2.753 2.362h13.761c1.536 0 2.785-1.25 2.785-2.785v-15.567h-7.892v0.829c0 0.931-0.757 1.688-1.688 1.688h-0.171c-0.931 0-1.688-0.757-1.688-1.688v-0.829h-7.892v6.39c0.029 0.055 0.045 0.118 0.045 0.184v9.317c0 0.034-0.004 0.068-0.013 0.1zM26.451 28.335h0.628c0.636 0 1.153-0.517 1.153-1.153v-6.208c0-0.636-0.518-1.153-1.153-1.153h-0.628v8.515zM4.921 19.82c-0.636 0-1.153 0.517-1.153 1.153v6.208c0 0.636 0.518 1.153 1.153 1.153h0.583v-8.515zM15 12.642v1.032c0 0.488 0.398 0.886 0.886 0.886h0.171c0.488 0 0.886-0.398 0.886-0.886v-1.032h-0.571v0.543c0 0.222-0.18 0.401-0.401 0.401s-0.401-0.18-0.401-0.401v-0.543h-0.57zM17.746 12.043h8.007c0.63 0 1.143-0.513 1.143-1.143v-5.437c0-0.63-0.513-1.143-1.143-1.143h-19.562c-0.63 0-1.143 0.513-1.143 1.143v5.437c0 0.63 0.513 1.143 1.143 1.143h8.007v-0.829c0-0.931 0.757-1.688 1.688-1.688h0.171c0.931 0 1.688 0.757 1.688 1.688v0.829h0zM15.972 11.84h0.972v-0.625c0-0.488-0.398-0.886-0.886-0.886h-0.171c-0.488 0-0.886 0.398-0.886 0.886v0.625h0.971zM18.797 3.518h4.346v-1.94c0-0.428-0.348-0.775-0.775-0.775h-2.795c-0.427 0-0.775 0.348-0.775 0.775v1.94zM8.558 3.518h4.346v-0.625c0-0.427-0.348-0.775-0.775-0.775h-2.795c-0.428 0-0.775 0.348-0.775 0.775v0.625zM20.251 30.567h-8.558c-1.15 0-2.085-0.935-2.085-2.085v-8.029c0-1.292 1.051-2.344 2.344-2.344h8.040c1.292 0 2.344 1.051 2.344 2.344v8.029c0 1.15-0.935 2.085-2.085 2.085zM10.41 23.306v5.176c0 0.707 0.576 1.283 1.283 1.283h8.558c0.707 0 1.283-0.575 1.283-1.283v-5.176h-11.124zM10.41 22.504h11.124v-2.051c0-0.85-0.692-1.542-1.542-1.542h-8.040c-0.85 0-1.542 0.692-1.542 1.542v2.051z"></path>
</svg>
