<?xml version="1.0" encoding="utf-8"?>
<!-- Generated by IcoMoon.io -->
<!DOCTYPE svg PUBLIC "-//W3C//DTD SVG 1.1//EN" "http://www.w3.org/Graphics/SVG/1.1/DTD/svg11.dtd">
<svg version="1.1" xmlns="http://www.w3.org/2000/svg" xmlns:xlink="http://www.w3.org/1999/xlink" width="32" height="32" viewBox="0 0 32 32">
<path d="M16.442 32c-0.065 0-0.129-0-0.194-0.002-3.312-0.048-6.454-1.363-8.845-3.702s-3.775-5.451-3.894-8.761c-0.050-1.378 0.117-2.744 0.496-4.060 0.052-0.181 0.218-0.305 0.406-0.305h8.080l-2.192-6.038c-0.387-1.066-1.366-1.832-2.495-1.951l-5.199-0.547c-0.232-0.024-0.4-0.232-0.376-0.464s0.234-0.4 0.464-0.376l5.199 0.547c1.447 0.152 2.704 1.135 3.2 2.503l2.297 6.326h6.88l1.137-10.832-2.113-0.213c-0.005-0-0.011-0.001-0.016-0.002l-4.931-0.496c-0.197-0.020-0.353-0.173-0.377-0.369s0.092-0.383 0.278-0.449l7.836-2.785c0.058-0.021 0.12-0.029 0.183-0.022s0.124 0.027 0.178 0.059l7.124 4.29c0.169 0.102 0.245 0.308 0.183 0.495s-0.246 0.308-0.443 0.287l-7.061-0.71-1.128 10.747h7.353c0.188 0 0.354 0.125 0.406 0.306 0.334 1.162 0.504 2.368 0.504 3.584 0 3.492-1.37 6.766-3.858 9.217-2.44 2.406-5.659 3.724-9.081 3.724zM4.733 16.014c-0.295 1.136-0.423 2.308-0.381 3.491 0.232 6.438 5.462 11.555 11.908 11.649 3.265 0.045 6.346-1.188 8.671-3.479s3.606-5.351 3.606-8.616c0-1.030-0.13-2.053-0.387-3.044h-15.046c-0.006 0-0.012 0-0.019 0zM24.687 3.819l2.834 0.285-4.1-2.469 1.237 2.125c0.011 0.019 0.021 0.039 0.029 0.060zM20.19 3.367l3.465 0.349-1.5-2.575zM16.303 2.976l2.853 0.287 1.673-1.896zM12.104 29.082c-0.554 0-1.077-0.338-1.283-0.887-0.129-0.342-0.117-0.714 0.034-1.048s0.422-0.588 0.765-0.717v0c0.706-0.266 1.498 0.092 1.764 0.799s-0.092 1.498-0.799 1.764c-0.158 0.060-0.321 0.088-0.481 0.088zM11.918 27.221c-0.131 0.049-0.235 0.147-0.293 0.274s-0.063 0.27-0.013 0.401c0.102 0.271 0.405 0.408 0.676 0.306s0.408-0.405 0.306-0.676c-0.102-0.271-0.405-0.408-0.676-0.306v0zM9.171 26.674c-0.192 0-0.384-0.041-0.564-0.123-0.333-0.151-0.588-0.422-0.717-0.765-0.266-0.706 0.092-1.498 0.799-1.764h0c0.342-0.129 0.714-0.117 1.047 0.034s0.588 0.422 0.717 0.765c0.129 0.342 0.117 0.714-0.034 1.048s-0.422 0.588-0.765 0.717c-0.157 0.059-0.32 0.089-0.483 0.089zM8.986 24.812c-0.271 0.102-0.408 0.405-0.306 0.676 0.049 0.131 0.147 0.235 0.274 0.293s0.271 0.062 0.402 0.013c0.131-0.049 0.235-0.147 0.293-0.275s0.063-0.27 0.013-0.401c-0.049-0.131-0.147-0.235-0.274-0.293s-0.27-0.062-0.401-0.013v0zM13.166 25.546c-0.665 0-1.291-0.406-1.539-1.063-0.319-0.847 0.111-1.796 0.958-2.115v0c0.41-0.155 0.856-0.14 1.256 0.041s0.705 0.507 0.859 0.917c0.319 0.847-0.111 1.796-0.958 2.115-0.19 0.071-0.386 0.105-0.577 0.105zM12.883 23.158c-0.412 0.155-0.62 0.616-0.465 1.027 0.075 0.199 0.223 0.357 0.417 0.445s0.411 0.095 0.61 0.020c0.412-0.155 0.62-0.616 0.465-1.027-0.075-0.199-0.223-0.357-0.417-0.445s-0.411-0.095-0.61-0.020v0z"></path>
</svg>
