<?xml version="1.0" encoding="utf-8"?>
<!-- Generated by IcoMoon.io -->
<!DOCTYPE svg PUBLIC "-//W3C//DTD SVG 1.1//EN" "http://www.w3.org/Graphics/SVG/1.1/DTD/svg11.dtd">
<svg version="1.1" xmlns="http://www.w3.org/2000/svg" xmlns:xlink="http://www.w3.org/1999/xlink" width="32" height="32" viewBox="0 0 32 32">
<path d="M25.701 26.534c1.241 0 2.25 1.009 2.25 2.25s-1.009 2.25-2.25 2.25c-1.24 0-2.25-1.009-2.25-2.25s1.010-2.25 2.25-2.25zM25.701 30.034c0.689 0 1.25-0.561 1.25-1.25s-0.561-1.25-1.25-1.25c-0.689 0-1.25 0.561-1.25 1.25s0.561 1.25 1.25 1.25zM8.706 12.485c0-1.241 1.009-2.25 2.25-2.25s2.25 1.010 2.25 2.25c0 1.241-1.009 2.25-2.25 2.25s-2.25-1.009-2.25-2.25zM12.206 12.485c0-0.689-0.56-1.25-1.25-1.25s-1.25 0.561-1.25 1.25c0 0.689 0.56 1.25 1.25 1.25s1.25-0.561 1.25-1.25zM10.877 7.828c0 1.241-1.010 2.25-2.25 2.25s-2.25-1.010-2.25-2.25 1.009-2.25 2.25-2.25c1.24 0 2.25 1.010 2.25 2.25zM7.377 7.828c0 0.689 0.561 1.25 1.25 1.25s1.25-0.561 1.25-1.25-0.56-1.25-1.25-1.25-1.25 0.561-1.25 1.25zM8.549 3.171c0 1.24-1.009 2.25-2.25 2.25s-2.25-1.010-2.25-2.25 1.009-2.25 2.25-2.25c1.24 0 2.25 1.010 2.25 2.25zM6.298 4.421c0.689 0 1.25-0.561 1.25-1.25s-0.561-1.25-1.25-1.25c-0.689 0-1.25 0.561-1.25 1.25s0.561 1.25 1.25 1.25zM15.612 5.421c-1.24 0-2.25-1.010-2.25-2.25s1.009-2.25 2.25-2.25c1.24 0 2.25 1.010 2.25 2.25s-1.010 2.25-2.25 2.25zM15.612 1.921c-0.69 0-1.25 0.561-1.25 1.25s0.56 1.25 1.25 1.25 1.25-0.561 1.25-1.25c0-0.689-0.561-1.25-1.25-1.25zM11.034 7.828c0-1.24 1.010-2.25 2.25-2.25s2.25 1.010 2.25 2.25-1.010 2.25-2.25 2.25c-1.241 0-2.25-1.010-2.25-2.25zM13.284 6.578c-0.69 0-1.25 0.561-1.25 1.25s0.56 1.25 1.25 1.25 1.25-0.561 1.25-1.25-0.56-1.25-1.25-1.25zM10.956 5.421c-1.241 0-2.25-1.010-2.25-2.25s1.010-2.25 2.25-2.25c1.241 0 2.25 1.010 2.25 2.25s-1.009 2.25-2.25 2.25zM10.956 1.921c-0.69 0-1.25 0.561-1.25 1.25s0.56 1.25 1.25 1.25 1.25-0.561 1.25-1.25c0-0.689-0.56-1.25-1.25-1.25zM27.788 1.506c0.036 0.129 0.018 0.267-0.049 0.383l-17.24 29.861c-0.066 0.115-0.176 0.199-0.304 0.233-0.043 0.012-0.086 0.017-0.13 0.017-0.087 0-0.174-0.023-0.251-0.067l-2.016-1.165c-0.239-0.138-0.321-0.444-0.183-0.683l5.612-9.719c0-0.001 0-0.002 0.001-0.002s0.001-0.001 0.001-0.001l11.612-20.113c0.137-0.236 0.437-0.32 0.678-0.186l2.032 1.139c0.117 0.065 0.203 0.174 0.238 0.303zM9.882 30.817l5.113-8.855-1.151-0.664-5.112 8.855zM15.494 21.096l11.126-19.269-1.16-0.65-11.117 19.255z"></path>
</svg>
