<?xml version="1.0" encoding="utf-8"?>
<!-- Generated by IcoMoon.io -->
<!DOCTYPE svg PUBLIC "-//W3C//DTD SVG 1.1//EN" "http://www.w3.org/Graphics/SVG/1.1/DTD/svg11.dtd">
<svg version="1.1" xmlns="http://www.w3.org/2000/svg" xmlns:xlink="http://www.w3.org/1999/xlink" width="32" height="32" viewBox="0 0 32 32">
<path d="M16 32c-0.226 0-0.409-0.183-0.409-0.409v-3.28c-3.104-0.102-5.92-1.357-8.034-3.35l-2.352 2.352c-0.16 0.16-0.419 0.16-0.579 0s-0.16-0.419 0-0.579l2.354-2.354c-1.959-2.107-3.191-4.898-3.291-7.971h-3.28c-0.226 0-0.409-0.183-0.409-0.409s0.183-0.409 0.409-0.409h3.28c0.101-3.073 1.332-5.864 3.291-7.971l-2.354-2.354c-0.16-0.16-0.16-0.419 0-0.579s0.419-0.16 0.579 0l2.352 2.352c2.114-1.993 4.93-3.248 8.034-3.35v-3.28c0-0.226 0.183-0.409 0.409-0.409s0.409 0.183 0.409 0.409v3.28c3.095 0.102 5.905 1.35 8.017 3.334l2.337-2.337c0.16-0.16 0.419-0.16 0.579 0s0.16 0.419 0 0.579l-2.338 2.338c1.968 2.109 3.206 4.907 3.307 7.988h3.28c0.226 0 0.409 0.183 0.409 0.409s-0.183 0.409-0.409 0.409h-3.28c-0.101 3.081-1.339 5.879-3.307 7.988l2.338 2.338c0.16 0.16 0.16 0.419 0 0.579s-0.419 0.16-0.579 0l-2.337-2.337c-2.112 1.984-4.922 3.233-8.017 3.334v3.28c0 0.226-0.183 0.409-0.409 0.409zM16 4.501c-6.341 0-11.499 5.159-11.499 11.499s5.159 11.499 11.499 11.499c6.341 0 11.499-5.159 11.499-11.499s-5.158-11.499-11.499-11.499zM16 25.944c-2.719 0-5.186-1.097-6.983-2.871-0.017-0.012-0.033-0.026-0.048-0.041s-0.029-0.031-0.042-0.048c-1.774-1.797-2.871-4.264-2.871-6.983s1.097-5.186 2.871-6.983c0.012-0.017 0.026-0.033 0.042-0.048s0.031-0.029 0.048-0.042c1.797-1.774 4.264-2.871 6.983-2.871s5.187 1.097 6.984 2.871c0.017 0.012 0.033 0.026 0.048 0.041s0.029 0.031 0.041 0.048c1.775 1.797 2.872 4.265 2.872 6.984s-1.097 5.187-2.872 6.984c-0.012 0.017-0.026 0.033-0.041 0.048s-0.031 0.029-0.048 0.041c-1.797 1.775-4.264 2.872-6.984 2.872zM16.409 19.743v5.374c2.209-0.098 4.215-0.984 5.745-2.384l-3.798-3.798c-0.545 0.439-1.215 0.729-1.947 0.808zM9.846 22.733c1.53 1.4 3.536 2.286 5.745 2.384v-5.374c-0.732-0.079-1.402-0.37-1.947-0.808zM18.935 18.356l3.798 3.798c1.4-1.53 2.286-3.536 2.384-5.745h-5.374c-0.079 0.732-0.369 1.401-0.808 1.947zM6.883 16.409c0.098 2.209 0.984 4.215 2.384 5.745l3.798-3.798c-0.439-0.545-0.729-1.215-0.808-1.947h-5.374zM16 13.054c-1.625 0-2.946 1.322-2.946 2.946s1.322 2.946 2.946 2.946 2.946-1.322 2.946-2.946-1.322-2.946-2.946-2.946zM19.743 15.591h5.374c-0.098-2.209-0.984-4.215-2.384-5.745l-3.798 3.798c0.439 0.545 0.729 1.215 0.808 1.947zM6.883 15.591h5.374c0.079-0.732 0.37-1.402 0.808-1.947l-3.798-3.798c-1.4 1.53-2.286 3.536-2.384 5.745zM9.846 9.267l3.798 3.798c0.545-0.439 1.215-0.729 1.947-0.808v-5.374c-2.209 0.098-4.215 0.984-5.745 2.384zM16.409 12.257c0.732 0.079 1.402 0.37 1.947 0.808l3.798-3.798c-1.53-1.4-3.536-2.286-5.745-2.384v5.374z"></path>
</svg>
