<?xml version="1.0" encoding="utf-8"?>
<!-- Generated by IcoMoon.io -->
<!DOCTYPE svg PUBLIC "-//W3C//DTD SVG 1.1//EN" "http://www.w3.org/Graphics/SVG/1.1/DTD/svg11.dtd">
<svg version="1.1" xmlns="http://www.w3.org/2000/svg" xmlns:xlink="http://www.w3.org/1999/xlink" width="32" height="32" viewBox="0 0 32 32">
<path d="M22.34 12.979l0.599 1.995c1.241 4.138 0.934 8.579-0.866 12.505-0.052 0.114-0.146 0.204-0.261 0.252-0.678 0.282-1.339 0.423-1.98 0.423-0.649 0-1.277-0.145-1.879-0.434-0.105-0.050-0.189-0.136-0.237-0.241-1.8-3.927-2.103-8.367-0.854-12.502l0.579-1.916c0.329-1.089 0.493-2.22 0.488-3.362-0.005-0.929-0.141-1.853-0.403-2.745-0.065-0.17-0.102-0.39-0.102-0.638 0-1.362 1.108-2.47 2.47-2.47s2.47 1.108 2.47 2.47c0 0.231-0.032 0.461-0.096 0.682-0.255 0.904-0.385 1.842-0.385 2.785 0 0.038-0.005 0.075-0.012 0.11 0.010 1.046 0.168 2.083 0.469 3.085zM19.893 4.841c-0.813 0-1.475 0.662-1.476 1.475 0 0.128 0.016 0.234 0.050 0.324 0.3 1.014 0.449 2.031 0.455 3.053 0.003 0.62-0.040 1.237-0.128 1.847h2.209c-0.085-0.581-0.128-1.168-0.128-1.757 0-0.040 0.005-0.079 0.013-0.115 0.010-0.995 0.152-1.984 0.422-2.942 0.038-0.134 0.058-0.271 0.058-0.41 0-0.813-0.662-1.475-1.475-1.475zM21.249 26.883c1.626-3.662 1.888-7.781 0.736-11.623l-0.598-1.995c-0.073-0.241-0.133-0.486-0.191-0.73h-2.591c-0.063 0.273-0.132 0.545-0.213 0.813l-0.579 1.916c-1.161 3.844-0.901 7.966 0.729 11.631 0.844 0.357 1.733 0.353 2.706-0.012zM31.251 14.974c1.241 4.138 0.933 8.578-0.867 12.505-0.052 0.114-0.146 0.204-0.261 0.252-0.677 0.282-1.339 0.423-1.98 0.423-0.649 0-1.276-0.145-1.879-0.434-0.105-0.050-0.188-0.136-0.237-0.241-1.8-3.926-2.103-8.366-0.855-12.502l0.579-1.916c0.33-1.091 0.494-2.222 0.488-3.362-0.005-0.93-0.14-1.853-0.403-2.745-0.065-0.17-0.102-0.39-0.102-0.638 0-1.362 1.108-2.47 2.47-2.47s2.471 1.108 2.471 2.47c0 0.229-0.032 0.459-0.096 0.682-0.254 0.905-0.384 1.843-0.384 2.785 0 0.039-0.004 0.077-0.013 0.114 0.011 1.044 0.168 2.081 0.469 3.082zM28.206 4.841c-0.813 0-1.476 0.662-1.476 1.476 0 0.128 0.016 0.234 0.050 0.324 0.3 1.014 0.45 2.030 0.455 3.053 0.003 0.619-0.040 1.236-0.128 1.847h2.209c-0.086-0.581-0.128-1.168-0.128-1.757 0-0.041 0.005-0.081 0.014-0.118 0.010-0.993 0.152-1.981 0.421-2.938 0.039-0.136 0.059-0.274 0.059-0.41 0-0.813-0.662-1.475-1.476-1.475zM29.561 26.883c1.626-3.662 1.888-7.781 0.737-11.623l-0.599-1.994c-0.073-0.241-0.133-0.486-0.191-0.73h-2.591c-0.063 0.273-0.132 0.544-0.213 0.813l-0.579 1.916c-1.161 3.844-0.9 7.967 0.73 11.631 0.844 0.357 1.733 0.352 2.705-0.012zM7.462 12.661c4.115 0 7.462 3.348 7.462 7.462s-3.348 7.462-7.462 7.462-7.462-3.348-7.462-7.462c0-4.115 3.348-7.462 7.462-7.462zM7.462 26.59c3.566 0 6.467-2.901 6.467-6.467s-2.901-6.467-6.467-6.467c-3.566 0-6.467 2.901-6.467 6.467s2.901 6.467 6.467 6.467zM6.9 16.446c0.194 0.72-0.235 1.466-0.957 1.661-0.117 0.031-0.235 0.046-0.351 0.046-0.599 0-1.148-0.4-1.31-1.005-0.194-0.722 0.236-1.467 0.958-1.66s1.466 0.236 1.66 0.958zM5.685 17.145c0.192-0.052 0.306-0.25 0.254-0.442-0.043-0.161-0.189-0.267-0.348-0.267-0.031 0-0.062 0.004-0.093 0.012v0c-0.192 0.052-0.305 0.249-0.254 0.441s0.249 0.305 0.442 0.255zM8.088 20.337c-0.117 0.031-0.235 0.047-0.35 0.047-0.598 0-1.148-0.4-1.309-1.005-0.094-0.349-0.046-0.714 0.135-1.028s0.473-0.538 0.823-0.632c0.349-0.094 0.715-0.046 1.028 0.135s0.538 0.474 0.631 0.823c0.193 0.722-0.237 1.466-0.958 1.66zM7.389 19.121c0.051 0.192 0.249 0.306 0.442 0.256 0.192-0.052 0.306-0.25 0.255-0.442-0.025-0.092-0.085-0.17-0.168-0.218-0.056-0.032-0.117-0.049-0.18-0.049-0.032 0-0.063 0.004-0.094 0.012h-0c-0.093 0.025-0.17 0.085-0.218 0.168s-0.061 0.18-0.036 0.273zM7.917 17.166c-0.314-0.181-0.538-0.473-0.632-0.822s-0.045-0.715 0.136-1.029c0.181-0.313 0.474-0.538 0.823-0.631v0c0.722-0.194 1.467 0.237 1.66 0.958 0.094 0.349 0.046 0.714-0.135 1.028s-0.473 0.538-0.823 0.632c-0.116 0.031-0.235 0.047-0.353 0.047-0.235 0-0.467-0.062-0.676-0.182zM8.283 15.812c-0.048 0.084-0.061 0.181-0.037 0.273s0.085 0.17 0.168 0.218c0.084 0.048 0.181 0.062 0.273 0.036s0.171-0.085 0.219-0.168c0.048-0.084 0.061-0.181 0.036-0.273-0.051-0.192-0.249-0.306-0.441-0.255-0.093 0.025-0.17 0.085-0.218 0.168zM7.449 24.965c0.987-0.027 3.403-0.386 4.484-3.117 0.1-0.256 0.39-0.381 0.645-0.28s0.381 0.39 0.28 0.645c-0.9 2.277-2.912 3.678-5.381 3.746h-0.014c-0.268 0-0.489-0.214-0.497-0.484-0.007-0.275 0.209-0.503 0.484-0.511z"></path>
</svg>
