<?xml version="1.0" encoding="utf-8"?>
<!-- Generated by IcoMoon.io -->
<!DOCTYPE svg PUBLIC "-//W3C//DTD SVG 1.1//EN" "http://www.w3.org/Graphics/SVG/1.1/DTD/svg11.dtd">
<svg version="1.1" xmlns="http://www.w3.org/2000/svg" xmlns:xlink="http://www.w3.org/1999/xlink" width="32" height="32" viewBox="0 0 32 32">
<path d="M32 12.145c0 4.871-2.384 10.32-2.761 11.152v4.86c0 0.276-0.223 0.5-0.5 0.5h-8.282c-0.276 0-0.5-0.224-0.5-0.5v-4.802c-0.704-0.95-4.515-6.349-2.062-8.802 1.194-1.193 2.211-1.093 2.712-0.926 0.727 0.241 1.269 0.898 1.383 1.673 0.099 0.674-0.162 1.299-0.695 1.673-0.248 0.173-0.386 0.371-0.357 0.515 0.018 0.087 0.096 0.16 0.2 0.184 0.185 0.042 0.395-0.068 0.577-0.308 0.166-0.219 0.48-0.262 0.701-0.096 0.219 0.167 0.262 0.481 0.095 0.701-0.424 0.559-1.024 0.813-1.601 0.676-0.488-0.114-0.863-0.494-0.954-0.968-0.050-0.261-0.077-0.934 0.766-1.524 0.302-0.211 0.304-0.534 0.279-0.709-0.048-0.332-0.286-0.729-0.708-0.869-0.491-0.162-1.089 0.081-1.691 0.684-1.614 1.613 0.848 5.732 2.104 7.428h7.708c0.539-1.238 2.585-6.22 2.585-10.542 0-6.536-1.692-7.749-5.025-7.782l-0.672-0.008c-4.089-0.045-5.328-0.059-6.632 1.984-0.857 1.346-1.46 3.182-0.873 4.252 0.383 0.698 1.278 1.053 2.66 1.053h5.522c0.024 0 0.049 0.001 0.073 0.005 0.375 0.053 1.447 0.073 1.861-0.47 0.392-0.515 0.117-1.454-0.184-2.15-0.11-0.253 0.007-0.547 0.261-0.657 0.252-0.11 0.547 0.007 0.657 0.261 0.592 1.373 0.612 2.434 0.059 3.156-0.799 1.042-2.471 0.89-2.758 0.855h-5.489c-1.775 0-2.965-0.528-3.537-1.571-0.837-1.526-0.035-3.793 0.907-5.271 1.602-2.513 3.323-2.495 7.486-2.446l0.67 0.007c5.556 0.055 6.016 4.185 6.016 8.782zM28.239 23.687h-7.282v1.495c0.018-0.002 0.034-0.011 0.052-0.011h7.23v-1.485zM20.957 27.657h7.282v-1.484h-7.23c-0.018 0-0.034-0.009-0.052-0.011v1.495zM6.687 3.356c4.161-0.050 5.884-0.067 7.486 2.446 0.941 1.478 1.744 3.745 0.907 5.271-0.571 1.042-1.762 1.571-3.537 1.571h-5.489c-0.287 0.034-1.959 0.187-2.758-0.855-0.554-0.722-0.534-1.784 0.058-3.156 0.109-0.253 0.402-0.37 0.657-0.261 0.253 0.109 0.37 0.403 0.261 0.657-0.3 0.696-0.577 1.635-0.184 2.15 0.413 0.542 1.484 0.523 1.862 0.47 0.023-0.003 0.048-0.005 0.071-0.005h5.522c1.382 0 2.277-0.354 2.66-1.052 0.586-1.070-0.016-2.907-0.874-4.252-1.303-2.045-2.537-2.029-6.631-1.984l-0.672 0.008c-4.249 0.042-5.026 2.654-5.026 7.782 0 4.326 2.046 9.306 2.585 10.543h7.709c1.255-1.697 3.714-5.817 2.104-7.428-0.604-0.604-1.206-0.847-1.691-0.684-0.422 0.14-0.659 0.537-0.708 0.868-0.025 0.175-0.024 0.498 0.278 0.709 0.842 0.59 0.816 1.263 0.765 1.524-0.091 0.474-0.466 0.854-0.954 0.968-0.579 0.136-1.176-0.117-1.601-0.676-0.166-0.22-0.124-0.534 0.096-0.701s0.534-0.125 0.7 0.095c0.181 0.239 0.392 0.35 0.577 0.308 0.104-0.024 0.182-0.097 0.2-0.184 0.027-0.144-0.109-0.342-0.357-0.515-0.534-0.373-0.794-0.998-0.695-1.672 0.114-0.776 0.656-1.433 1.383-1.673 0.502-0.166 1.52-0.266 2.713 0.926 2.452 2.453-1.358 7.852-2.062 8.802v4.802c0 0.276-0.223 0.5-0.5 0.5h-8.282c-0.276 0-0.5-0.224-0.5-0.5v-4.86c-0.377-0.831-2.761-6.28-2.761-11.152 0-4.596 0.46-8.727 6.016-8.782zM3.761 27.657h7.282v-1.495c-0.018 0.002-0.034 0.011-0.052 0.011h-7.23v1.484zM11.043 23.687h-7.282v1.485h7.23c0.018 0 0.034 0.008 0.052 0.011v-1.495z"></path>
</svg>
