<?xml version="1.0" encoding="utf-8"?>
<!-- Generated by IcoMoon.io -->
<!DOCTYPE svg PUBLIC "-//W3C//DTD SVG 1.1//EN" "http://www.w3.org/Graphics/SVG/1.1/DTD/svg11.dtd">
<svg version="1.1" xmlns="http://www.w3.org/2000/svg" xmlns:xlink="http://www.w3.org/1999/xlink" width="32" height="32" viewBox="0 0 32 32">
<path d="M27.616 6.496h-0.576v-1.664c0-1.504-1.12-3.072-2.496-3.488-6.048-1.792-11.2-1.792-17.248 0-1.408 0.416-2.496 1.952-2.496 3.488v1.664h-0.544c-0.928 0-1.664 0.768-1.664 1.664v5.024c0 0.928 0.736 1.664 1.664 1.664h0.544v10.112c0 1.184 0.672 2.144 1.664 2.496v0.736c0 0.928 0.768 1.664 1.664 1.664h1.696c0.896 0 1.664-0.736 1.664-1.664v-0.544h8.896v0.544c0 0.928 0.736 1.664 1.664 1.664h1.664c0.928 0 1.664-0.736 1.664-1.664v-0.768c0.992-0.416 1.664-1.376 1.664-2.464v-10.112h0.576c0.896 0 1.664-0.736 1.664-1.664v-5.024c0-0.896-0.736-1.664-1.664-1.664zM7.616 2.4c5.824-1.728 10.784-1.728 16.608 0 0.864 0.288 1.6 1.28 1.696 2.24-0.512-0.448-1.216-0.8-1.952-0.896-1.056-0.16-2.144-0.256-3.328-0.352-0.16-0.032-0.288 0.032-0.416 0.096-0.128 0.128-0.256 0.256-0.384 0.384-0.256 0.288-0.384 0.416-0.64 0.416h-6.656c-0.224 0-0.288-0.064-0.512-0.288-0.16-0.16-0.352-0.352-0.608-0.544-0.096-0.032-0.224-0.064-0.352-0.064-1.152 0.096-2.208 0.224-3.168 0.352-0.768 0.096-1.44 0.448-1.984 0.896 0.096-0.96 0.832-1.952 1.696-2.24zM25.952 24.96c0 0.736-0.512 1.344-1.248 1.536-0.256 0.032-0.448 0.256-0.448 0.512v1.184c0 0.32-0.224 0.576-0.544 0.576h-1.664c-0.32 0-0.544-0.256-0.544-0.576v-1.12c0-0.288-0.256-0.544-0.576-0.544h-10.016c-0.288 0-0.544 0.256-0.544 0.544v1.12c0 0.32-0.256 0.576-0.544 0.576h-1.696c-0.288 0-0.544-0.256-0.544-0.576v-1.152c0-0.256-0.192-0.48-0.448-0.544-0.736-0.128-1.216-0.736-1.216-1.536v-8.384c0.512 0.448 1.184 0.8 1.952 0.896 2.688 0.384 5.344 0.576 8 0.576s5.312-0.192 8-0.576c0.8-0.128 1.504-0.448 2.080-0.96v8.448zM28.16 13.184c0 0.288-0.256 0.544-0.544 0.544h-0.576v-3.872c0-0.32-0.224-0.576-0.544-0.576s-0.544 0.256-0.544 0.576v4.416c0 0.832-0.896 1.888-2.24 2.112-5.28 0.736-10.4 0.736-15.68 0-1.312-0.192-2.112-1.248-2.112-2.112v-4.416c0-0.32-0.256-0.576-0.544-0.576-0.32 0-0.576 0.256-0.576 0.576v3.872h-0.544c-0.32 0-0.576-0.256-0.576-0.544v-5.024c0-0.288 0.256-0.544 0.576-0.544h1.12c0.288 0 0.544-0.256 0.544-0.544v-0.096c0-0.864 0.832-1.92 2.144-2.144 0.896-0.128 1.856-0.224 2.912-0.32 0.096 0.064 0.16 0.16 0.256 0.224 0.256 0.288 0.576 0.672 1.312 0.672h6.656c0.768 0 1.152-0.448 1.472-0.768 0.032-0.032 0.064-0.096 0.096-0.128 1.088 0.096 2.080 0.192 3.040 0.32 1.312 0.192 2.144 1.28 2.144 2.144v0.096c0 0.288 0.224 0.544 0.544 0.544h1.12c0.288 0 0.544 0.256 0.544 0.544v5.024zM23.104 20l-2.624 0.864c-0.928 0.32-1.44 1.088-1.408 2.208 0 0.736 0.704 1.216 1.664 1.216h2.56c0.96 0 1.536-0.544 1.536-1.44v-1.088c0-0.48 0-1.184-0.416-1.568-0.32-0.32-0.832-0.384-1.312-0.192zM23.712 22.848c0 0.224 0 0.352-0.416 0.352h-2.56c-0.352 0-0.544-0.128-0.576-0.16 0-0.608 0.192-0.96 0.672-1.12l2.656-0.864c0.096-0.032 0.128-0.064 0.16-0.064 0.064 0.16 0.064 0.576 0.064 0.768v1.088zM11.168 20.864l-2.496-0.864c-0.544-0.192-0.992-0.16-1.312 0.16-0.384 0.384-0.352 0.992-0.32 1.472 0 0.096 0 0.16 0 0.224v0.992c0 0.352 0 1.44 1.312 1.44h2.56c0.992 0 1.664-0.48 1.696-1.216 0-1.12-0.512-1.888-1.44-2.208zM10.912 23.2h-2.56c-0.096 0-0.16-0.032-0.16-0.032s-0.032 0-0.032 0c0-0.032-0.032-0.096-0.032-0.32v-0.992c0-0.064 0-0.16 0-0.256 0-0.16 0-0.448 0.032-0.576 0.032 0 0.064 0 0.128 0.032l2.528 0.864c0.32 0.128 0.672 0.352 0.672 1.12-0.032 0.032-0.192 0.16-0.576 0.16z"></path>
</svg>
