<?xml version="1.0" encoding="utf-8"?>
<!-- Generated by IcoMoon.io -->
<!DOCTYPE svg PUBLIC "-//W3C//DTD SVG 1.1//EN" "http://www.w3.org/Graphics/SVG/1.1/DTD/svg11.dtd">
<svg version="1.1" xmlns="http://www.w3.org/2000/svg" xmlns:xlink="http://www.w3.org/1999/xlink" width="32" height="32" viewBox="0 0 32 32">
<path d="M23.639 30.524h-15.536c-1.072 0-1.945-0.873-1.945-1.945v-7.358c0-1.072 0.872-1.945 1.945-1.945h7.491v-9.439h-1.794c-0.218 0.351-0.606 0.585-1.049 0.585-0.68 0-1.233-0.553-1.233-1.233 0-0.026 0.001-0.053 0.002-0.079l-10.976 3.711c-0.217 0.073-0.451-0.043-0.523-0.259s0.043-0.45 0.259-0.523l31.174-10.54c0.216-0.073 0.45 0.043 0.523 0.259s-0.043 0.45-0.259 0.523l-11.501 3.889c0.165 0.21 0.263 0.474 0.263 0.761 0 0.68-0.553 1.233-1.233 1.233-0.143 0-0.28-0.024-0.407-0.069v1.33c0 0.228-0.185 0.413-0.413 0.413h-2.009v9.439h7.219c1.072 0 1.945 0.873 1.945 1.945v7.358c0 1.073-0.873 1.945-1.945 1.945zM8.103 20.102c-0.617 0-1.119 0.502-1.119 1.119v7.358c0 0.617 0.502 1.119 1.119 1.119h15.536c0.617 0 1.119-0.502 1.119-1.119v-7.358c0-0.617-0.502-1.119-1.119-1.119h-15.536zM12.752 8.781c-0.224 0-0.407 0.183-0.407 0.407s0.183 0.407 0.407 0.407c0.225 0 0.407-0.183 0.407-0.407s-0.183-0.407-0.407-0.407zM13.985 9.011h4.031v-2.097l-4.031 1.363v0.734zM19.249 6.523c-0.224 0-0.407 0.183-0.407 0.407s0.183 0.407 0.407 0.407c0.225 0 0.407-0.183 0.407-0.407s-0.183-0.407-0.407-0.407zM17.209 29.182h-2.677c-0.665 0-1.206-0.541-1.206-1.206v-6.871c0-0.228 0.185-0.413 0.413-0.413h4.263c0.228 0 0.413 0.185 0.413 0.413v6.871c0 0.665-0.541 1.206-1.206 1.206zM14.152 25.313v2.663c0 0.21 0.17 0.38 0.38 0.38h2.677c0.21 0 0.38-0.17 0.38-0.38v-2.663h-3.437zM14.152 24.487h3.437v-2.969h-3.437v2.969zM23.262 25.313h-3.201c-0.52 0-0.944-0.424-0.944-0.944v-2.733c0-0.52 0.423-0.944 0.944-0.944h3.201c0.52 0 0.944 0.423 0.944 0.944v2.733c0 0.521-0.423 0.944-0.944 0.944zM20.061 21.518c-0.065 0-0.118 0.053-0.118 0.118v2.733c0 0.065 0.053 0.118 0.118 0.118h3.201c0.065 0 0.118-0.053 0.118-0.118v-2.733c0-0.065-0.053-0.118-0.118-0.118h-3.201zM11.852 25.313h-3.201c-0.52 0-0.944-0.424-0.944-0.944v-2.733c0-0.52 0.423-0.944 0.944-0.944h3.201c0.52 0 0.944 0.423 0.944 0.944v2.733c0 0.521-0.423 0.944-0.944 0.944zM8.652 21.518c-0.065 0-0.118 0.053-0.118 0.118v2.733c0 0.065 0.053 0.118 0.118 0.118h3.201c0.065 0 0.118-0.053 0.118-0.118v-2.733c0-0.065-0.053-0.118-0.118-0.118h-3.201z"></path>
</svg>
