<?xml version="1.0" encoding="utf-8"?>
<!-- Generated by IcoMoon.io -->
<!DOCTYPE svg PUBLIC "-//W3C//DTD SVG 1.1//EN" "http://www.w3.org/Graphics/SVG/1.1/DTD/svg11.dtd">
<svg version="1.1" xmlns="http://www.w3.org/2000/svg" xmlns:xlink="http://www.w3.org/1999/xlink" width="32" height="32" viewBox="0 0 32 32">
<path d="M27.712 15.968c-0.576 0-1.152 0.16-1.696 0.448v-2.144c0-0.896-0.736-1.664-1.664-1.664h-1.504l-0.352-2.048c-0.16-1.12-0.064-3.008 0.256-4.096 0.096-0.288 0.224-0.768 0.32-0.928 0.128-0.256 0-0.608-0.256-0.736-0.288-0.128-0.608-0.032-0.736 0.256-0.16 0.288-0.352 0.96-0.384 1.088-0.384 1.248-0.512 3.296-0.288 4.576l0.32 1.888h-6.848l2.88-3.008c0.896-0.96 1.952-2.752 2.368-3.968 0.096-0.256 0.288-0.928 0.288-1.28 0-0.32-0.256-0.64-0.544-0.64v0c-0.32 0-0.576 0.352-0.576 0.672 0 0.096-0.096 0.608-0.192 0.96-0.384 1.056-1.376 2.688-2.144 3.488l-3.328 3.488c-0.064 0.096-0.128 0.192-0.128 0.288h-5.856c-0.448 0-0.864 0.192-1.152 0.512-0.256 0.352-0.384 0.8-0.288 1.248l0.416 2.496c-0.576-0.48-1.344-0.896-2.304-0.896-0.288 0-0.544 0.224-0.544 0.544s0.256 0.544 0.544 0.544c1.344 0 2.304 1.408 2.336 1.44 0.064 0.096 0.16 0.16 0.288 0.224l1.664 9.6c0.128 0.864 0.96 1.536 1.824 1.536h11.136c0.896 0 1.76-0.672 1.92-1.536l1.12-6.272c0.8-0.128 1.408-0.8 1.408-1.632v-2.624c0.416-0.352 0.992-0.736 1.696-0.736 0.288 0 0.544-0.224 0.544-0.544s-0.256-0.544-0.544-0.544zM22.368 28.128c-0.032 0.32-0.448 0.64-0.8 0.64h-11.136c-0.32 0-0.672-0.32-0.736-0.64l-2.4-13.952c-0.032-0.128 0-0.256 0.064-0.32 0.064-0.096 0.16-0.128 0.288-0.128h7.808c0.32 0 0.544 0.256 0.544 0.544v6.144c0 0.896 0.768 1.664 1.664 1.664h5.792l-1.088 6.048zM24.928 20.416c0 0.288-0.256 0.544-0.576 0.544h-6.656c-0.32 0-0.576-0.256-0.576-0.544v-6.144c0-0.192-0.032-0.384-0.096-0.544h7.328c0.32 0 0.576 0.256 0.576 0.544v6.144zM20.352 3.712l2.24 0.704 0.16 0.032c0.16 0 0.608 0 1.216-1.248l0.288-0.576c0.192-0.416 0.224-0.864 0.064-1.28-0.192-0.384-0.512-0.672-0.96-0.832l-1.472-0.448c-0.16-0.032-0.32-0.064-0.48-0.064-0.736 0-1.344 0.544-1.44 1.312l-0.096 0.64c-0.224 1.568 0.288 1.696 0.48 1.76zM20.96 2.080l0.096-0.64c0.032-0.256 0.256-0.384 0.512-0.32l1.472 0.48c0.128 0.032 0.192 0.096 0.256 0.192 0.032 0.096 0.032 0.224-0.032 0.352l-0.288 0.544c-0.128 0.256-0.256 0.448-0.32 0.576l-1.728-0.512c0-0.16 0-0.384 0.032-0.672zM9.888 24.864c0 0.288 0.256 0.544 0.544 0.544h11.136c0.32 0 0.576-0.256 0.576-0.544 0-0.32-0.256-0.576-0.576-0.576h-11.136c-0.288 0-0.544 0.256-0.544 0.576z"></path>
</svg>
