<?xml version="1.0" encoding="utf-8"?>
<!-- Generated by IcoMoon.io -->
<!DOCTYPE svg PUBLIC "-//W3C//DTD SVG 1.1//EN" "http://www.w3.org/Graphics/SVG/1.1/DTD/svg11.dtd">
<svg version="1.1" xmlns="http://www.w3.org/2000/svg" xmlns:xlink="http://www.w3.org/1999/xlink" width="32" height="32" viewBox="0 0 32 32">
<path d="M26.882 26c0.276 0 0.5 0.224 0.501 0.5v5c0 0.276-0.224 0.5-0.5 0.5h-18.001c-0.276 0-0.5-0.224-0.5-0.5v-5c0-0.276 0.224-0.5 0.5-0.5h1.815l-0.589-2.419c-0.258-1.059 0.098-2.156 0.929-2.864 1.634-1.403 4.376-4.278 4.376-7.764 0-0.196-0.002-0.362-0.006-0.502-0.491 0.658-1.253 1.566-2.336 1.566-1.219 0-1.733-0.385-2.146-0.695-0.337-0.252-0.581-0.434-1.262-0.434-0.795 0-1.232 0.209-1.618 0.393-0.402 0.192-0.859 0.41-1.443 0.12-0.864-0.429-1.709-2.473-1.948-3.089-0.019-0.048-0.029-0.098-0.033-0.15-0.006-0.112-0.050-1.113 0.526-1.742 0.278-0.303 0.657-0.469 1.095-0.481 1.103-0.027 4.822-1.907 5.207-3.565 0.176-0.755 0.633-1.358 1.323-1.744 1.024-0.573 2.463-0.588 3.296-0.31 0.012 0.005 0.023 0.007 0.061-0.013 0.374-0.204 0.798-1.274 0.967-1.932 0.053-0.208 0.234-0.359 0.448-0.374 0.209-0.016 0.414 0.109 0.496 0.308l1.044 2.546c0.834 0.020 2.874 0.246 4.050 1.907 0.122 0.173 0.309 0.397 0.527 0.657 1.927 2.304 6.975 8.352 0.468 20.581h2.752zM11.076 23.346l0.646 2.653h11.28c1.509-2.743 2.42-5.147 2.912-7.257h-2.741c-0.276 0-0.5-0.224-0.5-0.5s0.224-0.5 0.5-0.5h2.947c0.129-0.722 0.209-1.408 0.244-2.057-0.053 0.019-0.109 0.034-0.168 0.034h-3.023c-0.276 0-0.5-0.224-0.5-0.5s0.224-0.5 0.5-0.5h3.023c0.066 0 0.129 0.015 0.187 0.038-0.007-0.736-0.070-1.423-0.176-2.063-0.004 0.001-0.007 0.002-0.011 0.002h-3.023c-0.276 0-0.5-0.224-0.5-0.5s0.224-0.5 0.5-0.5h2.827c-0.205-0.809-0.477-1.534-0.783-2.182h-3c-0.276 0-0.5-0.224-0.5-0.5s0.224-0.5 0.5-0.5h2.473c-0.619-1.053-1.29-1.855-1.793-2.456-0.232-0.277-0.431-0.515-0.576-0.721-1.153-1.627-3.511-1.486-3.535-1.484-0.214 0.013-0.414-0.11-0.496-0.308l-0.677-1.653c-0.241 0.523-0.576 1.054-1.006 1.288-0.274 0.148-0.569 0.177-0.853 0.083-0.525-0.175-1.681-0.221-2.494 0.234-0.452 0.253-0.726 0.613-0.84 1.1-0.513 2.206-4.704 4.3-6.153 4.336-0.22 0.006-0.325 0.092-0.384 0.156-0.221 0.239-0.268 0.713-0.269 0.939 0.426 1.077 1.089 2.307 1.43 2.476 0.133 0.066 0.197 0.051 0.571-0.127 0.409-0.195 1.027-0.49 2.047-0.49 1.014 0 1.463 0.337 1.86 0.634 0.355 0.266 0.662 0.496 1.549 0.496 0.685 0 1.254-0.778 1.67-1.346 0.349-0.476 0.651-0.887 1.119-0.734 0.496 0.162 0.551 0.768 0.551 2.014 0 3.885-2.961 7.007-4.725 8.522-0.544 0.464-0.777 1.181-0.609 1.871zM26.382 31v-4h-17.001v4h17.001zM14.806 6.097c0.276 0 0.5 0.223 0.5 0.5s-0.224 0.5-0.5 0.5h-1.088c-0.276 0-0.5-0.224-0.5-0.5s0.224-0.5 0.5-0.5h1.088z"></path>
</svg>
