<?xml version="1.0" encoding="utf-8"?>
<!-- Generated by IcoMoon.io -->
<!DOCTYPE svg PUBLIC "-//W3C//DTD SVG 1.1//EN" "http://www.w3.org/Graphics/SVG/1.1/DTD/svg11.dtd">
<svg version="1.1" xmlns="http://www.w3.org/2000/svg" xmlns:xlink="http://www.w3.org/1999/xlink" width="32" height="32" viewBox="0 0 32 32">
<path d="M23.488 12.128c-1.568 0-3.072 0.48-4.32 1.408l0.608-6.368h0.576c0 0 0.032 0 0.032 0 0.288 0 0.544-0.256 0.544-0.544 0-0.064 0-0.128-0.032-0.192l-0.544-3.744c-0.032-0.288-0.256-0.48-0.544-0.48h-1.728l-0.32-1.76c-0.032-0.256-0.288-0.448-0.544-0.448h-12.448c-0.256 0-0.512 0.192-0.544 0.448l-0.32 1.76h-1.728c-0.288 0-0.512 0.192-0.544 0.48l-0.544 3.84c-0.032 0.16 0 0.32 0.128 0.448 0.096 0.128 0.256 0.192 0.416 0.192h0.576l1.504 16.032c0.096 0.736 0.64 1.344 1.312 1.536l0.48 1.856c0.064 0.256 0.288 0.416 0.512 0.416h9.952c0.224 0 0.448-0.16 0.512-0.416l0.48-1.856c0.288-0.096 0.576-0.256 0.8-0.48 1.408 1.728 3.488 2.752 5.728 2.752 4.096 0 7.456-3.328 7.456-7.456 0-4.096-3.36-7.424-7.456-7.424zM5.216 1.088h11.552l0.192 1.12h-11.936l0.192-1.12zM2.656 3.296h16.672l0.384 2.752h-17.44l0.384-2.752zM15.52 25.92h-9.056l-0.288-1.12h9.632l-0.288 1.12zM17.152 23.104c-0.032 0.32-0.32 0.608-0.64 0.608h-11.040c-0.32 0-0.608-0.288-0.64-0.608l-0.416-4.352h2.528c0.736 1.024 1.824 1.632 2.944 1.632 1.216 0 2.272-0.576 2.944-1.632h4.736l-0.416 4.352zM17.664 17.632h-5.12c-0.224 0-0.384 0.128-0.48 0.288-0.512 0.896-1.248 1.376-2.176 1.376-0.864 0-1.632-0.512-2.176-1.376-0.096-0.192-0.256-0.288-0.448-0.288h-2.944l-0.384-3.84h3.296c0.192 0 0.384-0.128 0.48-0.288 0.544-0.864 1.312-1.376 2.176-1.376s1.632 0.512 2.176 1.376c0.096 0.192 0.288 0.288 0.48 0.288v0h5.504l-0.384 3.84zM12.832 12.672c-0.736-1.024-1.792-1.664-2.944-1.664-1.12 0-2.208 0.64-2.944 1.664h-3.104l-0.512-5.504h15.328l-0.512 5.504h-5.312zM23.488 25.92c-2.048 0-3.968-1.024-5.152-2.688-0.032 0-0.064-0.032-0.064-0.064l0.64-6.784c0.096 0.096 0.224 0.16 0.352 0.16s0.288-0.064 0.384-0.16c0.224-0.224 0.224-0.576 0-0.8l-0.544-0.544c-0.032 0-0.032-0.032-0.064-0.032 0.064-0.032 0.096-0.064 0.128-0.096 1.184-1.088 2.72-1.696 4.32-1.696 3.488 0 6.336 2.848 6.336 6.336 0 3.52-2.848 6.368-6.336 6.368zM29.312 19.808c-0.128-0.256-0.48-0.384-0.736-0.256l-0.736 0.352c-0.256 0.128-0.384 0.448-0.256 0.736 0.096 0.192 0.288 0.32 0.512 0.32 0.064 0 0.128-0.032 0.224-0.064l0.704-0.352c0.288-0.128 0.416-0.448 0.288-0.736zM27.904 16.16l-0.544-0.576c-0.224-0.192-0.544-0.192-0.768 0-0.224 0.224-0.224 0.576 0 0.8l0.544 0.544c0.128 0.096 0.256 0.16 0.384 0.16 0.16 0 0.288-0.064 0.384-0.16 0.224-0.224 0.224-0.576 0-0.768zM22.56 14.88h1.12c0.288 0 0.544-0.256 0.544-0.544s-0.256-0.544-0.544-0.544h-1.12c-0.288 0-0.544 0.224-0.544 0.544s0.256 0.544 0.544 0.544zM21.472 23.136h-1.12c-0.288 0-0.544 0.256-0.544 0.576 0 0.288 0.256 0.544 0.544 0.544h1.12c0.288 0 0.544-0.256 0.544-0.544 0-0.32-0.256-0.576-0.544-0.576zM26.112 23.2c-0.288-0.128-0.608 0-0.736 0.256l-0.32 0.736c-0.128 0.288-0.032 0.608 0.256 0.736 0.064 0.032 0.16 0.064 0.224 0.064 0.224 0 0.416-0.128 0.512-0.32l0.32-0.736c0.128-0.288 0-0.608-0.256-0.736zM23.488 15.84c-2.048 0-3.712 1.664-3.712 3.712 0 2.080 1.664 3.744 3.712 3.744s3.744-1.664 3.744-3.744c0-2.048-1.696-3.712-3.744-3.712zM23.488 22.208c-1.44 0-2.624-1.184-2.624-2.656 0-1.44 1.184-2.624 2.624-2.624s2.624 1.184 2.624 2.624c0 1.472-1.184 2.656-2.624 2.656z"></path>
</svg>
