<?xml version="1.0" encoding="utf-8"?>
<!-- Generated by IcoMoon.io -->
<!DOCTYPE svg PUBLIC "-//W3C//DTD SVG 1.1//EN" "http://www.w3.org/Graphics/SVG/1.1/DTD/svg11.dtd">
<svg version="1.1" xmlns="http://www.w3.org/2000/svg" xmlns:xlink="http://www.w3.org/1999/xlink" width="32" height="32" viewBox="0 0 32 32">
<path d="M30.020 27.763c-0.664 0-1.204-0.54-1.204-1.204v-21.417c0-0.313 0.252-0.905 1.204-0.905 1.511 0 1.98 5.365 1.98 7.319 0 3.031-0.67 5.815-0.776 6.235v8.767c0 0.664-0.54 1.204-1.204 1.204zM29.617 18.142v8.417c0 0.222 0.18 0.402 0.402 0.402s0.402-0.18 0.402-0.402v-8.417h-0.805zM29.617 17.34h0.889c0.19-0.827 0.691-3.247 0.691-5.784 0-3.347-0.787-6.23-1.21-6.517-0.247 0.005-0.356 0.074-0.371 0.124zM2.666 27.763c-0.3 0-0.588-0.118-0.792-0.323-0.187-0.189-0.288-0.435-0.286-0.692l0.129-13.112c-0.983-0.379-1.695-1.329-1.718-2.437-0-0.010-0-0.020 0-0.030l0.275-6.045c0.010-0.221 0.202-0.388 0.418-0.382 0.221 0.010 0.392 0.197 0.382 0.419l-0.256 5.626h0.699l0.129-5.653c0.005-0.221 0.194-0.398 0.41-0.392 0.221 0.005 0.397 0.189 0.391 0.41l-0.128 5.635h0.69l-0.128-5.635c-0.005-0.221 0.17-0.405 0.391-0.41 0.218-0.007 0.405 0.17 0.41 0.392l0.129 5.653h0.699l-0.256-5.626c-0.010-0.221 0.161-0.409 0.382-0.419 0.219-0.008 0.409 0.161 0.418 0.382l0.275 6.045c0 0.010 0.001 0.020 0 0.030-0.023 1.109-0.735 2.058-1.718 2.437l0.129 13.112c0.003 0.258-0.099 0.504-0.286 0.692-0.204 0.205-0.492 0.323-0.792 0.323zM2.518 13.812l-0.127 12.943c-0.001 0.054 0.029 0.095 0.054 0.12 0.107 0.109 0.337 0.108 0.444 0 0.025-0.025 0.054-0.067 0.054-0.12l-0.128-12.943h-0.297zM0.855 11.587c0.201 0.814 0.942 1.423 1.811 1.423s1.61-0.609 1.811-1.423h-3.623zM16.478 26.173c-5.882 0-10.668-4.786-10.668-10.668s4.786-10.668 10.668-10.668c5.883 0 10.668 4.786 10.668 10.668s-4.786 10.668-10.668 10.668zM16.478 5.638c-5.441 0-9.867 4.426-9.867 9.867s4.426 9.867 9.867 9.867 9.867-4.426 9.867-9.867c0-5.44-4.426-9.867-9.867-9.867zM16.478 23.271c-4.282 0-7.766-3.484-7.766-7.766s3.484-7.766 7.766-7.766c4.282 0 7.766 3.484 7.766 7.766s-3.484 7.766-7.766 7.766zM16.478 8.54c-3.84 0-6.964 3.124-6.964 6.964s3.124 6.964 6.964 6.964 6.964-3.124 6.964-6.964c0-3.84-3.124-6.964-6.964-6.964z"></path>
</svg>
