<?xml version="1.0" encoding="utf-8"?>
<!-- Generated by IcoMoon.io -->
<!DOCTYPE svg PUBLIC "-//W3C//DTD SVG 1.1//EN" "http://www.w3.org/Graphics/SVG/1.1/DTD/svg11.dtd">
<svg version="1.1" xmlns="http://www.w3.org/2000/svg" xmlns:xlink="http://www.w3.org/1999/xlink" width="32" height="32" viewBox="0 0 32 32">
<path d="M26.528 23.872l-2.208-6.016c-0.032 0-0.032-0.032-0.064-0.064l-0.064-0.128c-0.192-0.384-0.64-1.184-1.6-1.184h-5.184l-0.128-1.12h3.328c0.096 0 1.056 0.064 1.664-0.48 0.288-0.256 0.48-0.608 0.48-0.992 0.032-0.512-0.128-0.928-0.416-1.248-0.384-0.384-0.96-0.608-1.696-0.608h-3.744l-0.224-1.856c-0.16-1.088-0.576-1.888-1.216-2.368-0.896-0.64-1.984-0.48-2.368-0.416-0.608 0.128-1.152 0.448-1.504 0.96-0.352 0.48-0.48 1.088-0.384 1.696l1.152 8.064c0.16 0.896 0.896 2.272 2.272 2.272h5.888l2.624 5.568c0.032 0.096 0.448 0.96 1.312 1.312 0.192 0.064 0.416 0.096 0.64 0.096 0.32 0 0.64-0.064 0.96-0.224 0.608-0.288 0.864-0.736 0.96-1.056 0.16-0.608 0-1.344-0.48-2.208zM25.92 25.76c-0.032 0.096-0.096 0.256-0.352 0.352-0.288 0.16-0.512 0.16-0.736 0.096-0.352-0.128-0.608-0.544-0.672-0.736l-2.784-5.888c-0.096-0.192-0.288-0.32-0.512-0.32h-6.24c-0.768 0-1.12-1.088-1.184-1.312l-1.12-8.096c-0.064-0.288 0-0.608 0.192-0.864 0.16-0.256 0.448-0.448 0.768-0.48 0.224-0.032 0.416-0.064 0.608-0.064 0.384 0 0.672 0.096 0.928 0.256 0.384 0.288 0.64 0.832 0.768 1.632l0.256 2.304c0.032 0.288 0.256 0.48 0.544 0.48h4.256c0.384 0.032 0.704 0.128 0.864 0.288 0.096 0.096 0.128 0.224 0.128 0.416 0 0.128-0.032 0.192-0.096 0.224-0.192 0.192-0.64 0.224-0.896 0.192h-5.568c-0.32 0-0.544 0.256-0.544 0.576s0.224 0.544 0.544 0.544h1.056l0.224 1.728c0.032 0.288 0.256 0.512 0.544 0.512h5.696c0.256 0 0.416 0.192 0.64 0.608 0 0.032 0.032 0.064 0.032 0.096l2.24 6.016c0 0.032 0.032 0.064 0.032 0.096 0.352 0.544 0.48 1.056 0.384 1.344zM14.688 6.368c0.672 0 1.312-0.224 1.856-0.608 1.408-1.056 1.664-3.040 0.608-4.448-0.608-0.832-1.568-1.312-2.56-1.312-0.704 0-1.344 0.224-1.888 0.608-1.376 1.056-1.664 3.040-0.608 4.48 0.608 0.8 1.568 1.28 2.592 1.28zM13.376 1.504c0.352-0.256 0.768-0.384 1.216-0.384 0.64 0 1.28 0.32 1.664 0.832 0.704 0.928 0.512 2.24-0.384 2.912-0.352 0.256-0.768 0.384-1.184 0.384-0.672 0-1.28-0.32-1.696-0.832-0.672-0.928-0.512-2.24 0.384-2.912zM21.12 25.504c-1.6 2.080-4 3.264-6.592 3.264-4.64 0-8.384-3.776-8.384-8.384 0-2.944 1.504-5.632 4.032-7.168 0.288-0.16 0.352-0.512 0.192-0.768s-0.48-0.352-0.768-0.192c-2.848 1.76-4.576 4.768-4.576 8.128 0 5.216 4.256 9.472 9.504 9.472 2.944 0 5.664-1.312 7.488-3.648 0.192-0.256 0.128-0.608-0.096-0.8-0.256-0.192-0.608-0.128-0.8 0.096zM8.384 20.384c0-0.352 0.032-0.672 0.096-1.024 0.032-0.288-0.16-0.576-0.48-0.64-0.288-0.064-0.576 0.16-0.64 0.448-0.064 0.416-0.096 0.8-0.096 1.216 0 2.112 0.928 4.128 2.56 5.536 0.096 0.064 0.224 0.128 0.352 0.128 0.16 0 0.32-0.064 0.416-0.192 0.224-0.256 0.192-0.608-0.064-0.8-1.344-1.184-2.144-2.88-2.144-4.672z"></path>
</svg>
