<?xml version="1.0" encoding="utf-8"?>
<!-- Generated by IcoMoon.io -->
<!DOCTYPE svg PUBLIC "-//W3C//DTD SVG 1.1//EN" "http://www.w3.org/Graphics/SVG/1.1/DTD/svg11.dtd">
<svg version="1.1" xmlns="http://www.w3.org/2000/svg" xmlns:xlink="http://www.w3.org/1999/xlink" width="32" height="32" viewBox="0 0 32 32">
<path d="M0.779 32c-0.011 0-0.022-0-0.033-0.001-0.182-0.014-0.336-0.139-0.387-0.314-0.013-0.045-0.317-1.123-0.154-2.633 0.121-1.123 0.661-2.091 1.137-2.945 0.179-0.322 0.349-0.626 0.483-0.913 0.365-0.788 0.217-1.829 0.074-2.835-0.028-0.197-0.056-0.393-0.080-0.587-0.012-0.098-0.029-0.217-0.048-0.355-0.226-1.63-0.827-5.962 0.724-10.116 1.726-4.623 6.112-7.321 6.904-7.66 0.25-0.107 0.324-0.208 0.328-0.246 0.006-0.059-0.077-0.284-0.533-0.61-0.648-0.463-2.069-0.821-2.561-0.92-0.164-0.033-0.294-0.156-0.337-0.318s0.012-0.333 0.138-0.442c0.085-0.073 0.595-0.46 2.309-0.927 1.891-0.515 3.675 0.151 6.376 1.16 1.652 0.617 2.514 0.699 3.426 0.786 0.816 0.078 1.66 0.158 3.065 0.602 3.468 1.095 5.936 3.147 6.61 3.75 0.914 0.818 0.927 1.862 0.746 2.535 2.773 1.469 2.833 1.819 2.867 2.010 0.047 0.27-0.055 0.567-0.288 0.836-0.254 0.294-0.715 0.604-1.27 0.59-0.318-0.008-0.877-0.143-1.586-0.315-0.787-0.19-1.767-0.427-2.542-0.509-1.066-0.113-2.024 0.093-3.474 0.405-0.417 0.090-0.869 0.187-1.371 0.287-1.705 0.338-3.188 0.127-3.903-0.024-0.18 0.524-0.638 1.451-1.79 2.961-1.953 2.559-4.009 2.605-4.096 2.606-0.167 0-0.317-0.090-0.392-0.237s-0.061-0.323 0.036-0.457c0.006-0.008 0.658-0.925 0.915-2.406 0.166-0.959 0.068-1.735-0.022-2.165-0.777 0.196-2.547 0.724-3.943 1.74-1.677 1.221-2.755 4.151-3.081 6.514-0.188 1.364-0.053 2.252 0.36 2.375 0.109 0.032 0.226 0.029 0.463 0.018 0.389-0.018 0.978-0.045 2.045 0.141 1.825 0.318 2.986 1.673 3.034 1.73 0.113 0.134 0.135 0.322 0.056 0.478s-0.24 0.252-0.418 0.239c-0.003 0-0.465-0.022-1.514 0.15-0.611 0.101-0.96 0.29-1.298 0.473-0.243 0.132-0.494 0.268-0.813 0.355-0.455 0.124-0.967 0.155-1.304 0.159-0.074 0.238-0.208 0.562-0.449 0.92-0.341 0.506-0.976 0.836-1.648 1.185-0.292 0.152-0.594 0.309-0.851 0.473-0.584 0.375-1.291 1.717-1.514 2.202-0.072 0.156-0.227 0.255-0.397 0.255zM8.003 1.319c0.581 0.18 1.249 0.435 1.697 0.755 0.645 0.461 0.946 0.936 0.894 1.415-0.030 0.282-0.203 0.676-0.852 0.954-0.735 0.315-4.812 2.829-6.43 7.163-1.473 3.947-0.894 8.12-0.676 9.691 0.020 0.143 0.037 0.266 0.049 0.367 0.024 0.189 0.051 0.38 0.078 0.572 0.161 1.132 0.328 2.303-0.147 3.325-0.147 0.317-0.324 0.635-0.512 0.971-0.457 0.82-0.93 1.667-1.032 2.613-0.041 0.379-0.049 0.726-0.039 1.030 0.329-0.528 0.749-1.087 1.184-1.366 0.29-0.186 0.61-0.352 0.92-0.513 0.545-0.284 1.109-0.576 1.326-0.898 0.343-0.508 0.392-0.913 0.393-0.917 0.026-0.229 0.231-0.401 0.458-0.391 0.008 0 0.793 0.040 1.397-0.125 0.222-0.060 0.409-0.162 0.627-0.28 0.363-0.197 0.816-0.442 1.572-0.567 0.232-0.038 0.437-0.067 0.618-0.090-0.438-0.317-1.052-0.658-1.785-0.786-0.972-0.17-1.482-0.146-1.855-0.129-0.267 0.013-0.498 0.023-0.754-0.054-1.376-0.413-1.073-2.609-0.974-3.331 0.325-2.359 1.419-5.634 3.431-7.1 1.994-1.452 4.577-1.962 4.686-1.983 0.212-0.041 0.419 0.078 0.493 0.279 0.019 0.051 0.455 1.276 0.16 2.984-0.134 0.772-0.361 1.408-0.572 1.874 0.654-0.251 1.604-0.811 2.555-2.058 1.539-2.018 1.707-2.846 1.723-2.956-0.017-0.143 0.040-0.264 0.151-0.359 0.113-0.098 0.271-0.107 0.415-0.063 0.017 0.005 1.807 0.534 3.927 0.113 0.497-0.099 0.945-0.195 1.358-0.284 1.477-0.318 2.544-0.548 3.75-0.42 0.832 0.089 1.843 0.333 2.655 0.529 0.606 0.146 1.179 0.285 1.404 0.291 0.284 0.003 0.554-0.216 0.644-0.361-0.359-0.305-1.626-1.038-2.717-1.607-0.211-0.11-0.295-0.369-0.189-0.582 0.020-0.042 0.511-1.086-0.397-1.898-0.641-0.574-2.989-2.526-6.29-3.568-1.317-0.416-2.114-0.492-2.885-0.565-0.929-0.089-1.889-0.18-3.648-0.837-2.774-1.036-4.294-1.558-5.842-1.135-0.39 0.106-0.71 0.207-0.969 0.299zM4.192 13.784c-0.032 0-0.064-0.003-0.096-0.011-0.235-0.053-0.383-0.286-0.33-0.521 0.017-0.074 0.42-1.836 1.421-3.441 0.998-1.599 3.464-3.716 3.568-3.806 0.183-0.156 0.459-0.135 0.615 0.048s0.135 0.459-0.048 0.615c-0.025 0.021-2.468 2.12-3.395 3.604-0.924 1.48-1.306 3.153-1.31 3.17-0.046 0.203-0.226 0.341-0.426 0.341zM25.642 9.099c-0.041 0-0.083-0.006-0.124-0.018l-0.248-0.074c-0.231-0.069-0.363-0.311-0.294-0.543s0.311-0.363 0.542-0.294l0.248 0.074c0.231 0.069 0.363 0.311 0.294 0.542-0.056 0.19-0.23 0.313-0.418 0.313z"></path>
</svg>
