<?xml version="1.0" encoding="utf-8"?>
<!-- Generated by IcoMoon.io -->
<!DOCTYPE svg PUBLIC "-//W3C//DTD SVG 1.1//EN" "http://www.w3.org/Graphics/SVG/1.1/DTD/svg11.dtd">
<svg version="1.1" xmlns="http://www.w3.org/2000/svg" xmlns:xlink="http://www.w3.org/1999/xlink" width="32" height="32" viewBox="0 0 32 32">
<path d="M7.424 17.376c-1.664 0-3.040 1.376-3.040 3.040s1.376 3.040 3.040 3.040c1.696 0 3.040-1.344 3.040-3.040s-1.344-3.040-3.040-3.040zM7.424 22.368c-1.056 0-1.92-0.864-1.92-1.952 0-1.056 0.864-1.92 1.92-1.92s1.952 0.864 1.952 1.92c0 1.088-0.896 1.952-1.952 1.952zM7.424 9.088c1.696 0 3.040-1.376 3.040-3.040s-1.344-3.040-3.040-3.040c-1.664 0-3.040 1.376-3.040 3.040s1.376 3.040 3.040 3.040zM7.424 4.096c1.056 0 1.952 0.896 1.952 1.952s-0.864 1.92-1.952 1.92-1.92-0.864-1.92-1.92c0-1.056 0.864-1.952 1.92-1.952zM30.368 3.552c-0.288 0-0.544 0.256-0.544 0.544v5.664c-0.16-0.064-0.352-0.128-0.544-0.128h-1.664v-1.664c0-1.088-0.8-2.144-1.856-2.464-3.008-0.928-5.92-1.408-8.672-1.408v0c-1.408 0-2.784 0.128-4.096 0.384-1.088 0.224-1.984 1.248-1.984 2.4v2.752h-8.288c-0.192 0-0.384 0.064-0.544 0.128v-7.296c0-0.32-0.256-0.576-0.544-0.576-0.32 0-0.576 0.256-0.576 0.576v27.104c0 0.608 0.512 1.088 1.12 1.088h0.544c0.512 0 1.056-0.288 1.312-0.704l0.64-0.96h22.176l1.088 1.12c0.32 0.32 0.896 0.544 1.344 0.544h0.544c0.608 0 1.12-0.48 1.12-1.088v-25.472c0-0.288-0.256-0.544-0.576-0.544zM12.128 6.88c0-0.608 0.48-1.216 1.088-1.344 1.28-0.256 2.56-0.352 3.872-0.352 2.784 0 5.6 0.512 8.352 1.344 0.576 0.192 1.056 0.864 1.056 1.44 0 0.736 0 1.504 0 2.24 0.032 0.576-0.48 1.088-1.088 1.088-4.064 0-8.128 0-12.16 0-0.608 0-1.12-0.512-1.12-1.088 0-1.12 0-2.24 0-3.328zM2.72 10.752h8.384c0.256 0.928 1.088 1.664 2.112 1.664h12.192c1.216 0 2.208-1.024 2.208-2.208v0.544h1.664c0.288 0 0.544 0.256 0.544 0.544v1.664c0 0.32-0.256 0.544-0.544 0.544h-26.56c-0.288 0-0.544-0.224-0.544-0.544v-1.664c0-0.288 0.256-0.544 0.544-0.544zM25.76 19.872c-3.008-0.928-5.92-1.376-8.672-1.376v0c-1.408 0-2.784 0.096-4.096 0.352-1.088 0.224-1.952 1.28-1.984 2.4v2.784h-8.288c-0.192 0-0.384 0.032-0.544 0.096v-9.6c0.16 0.064 0.352 0.096 0.544 0.096h26.56c0.192 0 0.384-0.032 0.544-0.096v9.6c-0.16-0.064-0.352-0.096-0.544-0.096h-1.664v-1.664c0-1.088-0.8-2.176-1.856-2.496zM26.496 22.368c0 0.736 0 1.472 0 2.208 0 0.608-0.48 1.088-1.088 1.12-4.064 0-8.128 0-12.16 0-0.608-0.032-1.12-0.512-1.12-1.12 0-1.12 0-2.208 0-3.328 0-0.576 0.48-1.216 1.088-1.344 1.28-0.224 2.56-0.352 3.872-0.352 2.784 0 5.6 0.512 8.352 1.344 0.576 0.192 1.056 0.864 1.056 1.472zM29.824 29.568h-0.544c-0.16 0-0.448-0.128-0.544-0.256l-1.28-1.248c-0.064-0.064-0.128-0.096-0.192-0.128s-0.128-0.032-0.192-0.032h-22.688c0 0-0.032 0-0.064 0s-0.064 0-0.096 0.032c-0.032 0-0.064 0-0.096 0.032s-0.064 0.032-0.096 0.064c-0.032 0.032-0.032 0.032-0.064 0.064 0 0.032-0.032 0.032-0.032 0.032l-0.8 1.216c-0.064 0.096-0.288 0.224-0.416 0.224h-0.544v-3.872c0-0.32 0.256-0.576 0.544-0.576h8.384c0.256 0.96 1.088 1.664 2.112 1.664h12.192c1.216 0 2.208-0.992 2.208-2.208v0.544h1.664c0.288 0 0.544 0.256 0.544 0.576v3.872z"></path>
</svg>
