<?xml version="1.0" encoding="utf-8"?>
<!-- Generated by IcoMoon.io -->
<!DOCTYPE svg PUBLIC "-//W3C//DTD SVG 1.1//EN" "http://www.w3.org/Graphics/SVG/1.1/DTD/svg11.dtd">
<svg version="1.1" xmlns="http://www.w3.org/2000/svg" xmlns:xlink="http://www.w3.org/1999/xlink" width="32" height="32" viewBox="0 0 32 32">
<path d="M20.416 25.44h1.664c0.32 0 0.544-0.256 0.544-0.544 0-0.32-0.224-0.576-0.544-0.576h-1.088v-1.088h1.088c0.32 0 0.544-0.256 0.544-0.544 0-0.32-0.224-0.576-0.544-0.576h-1.088v-1.088h1.088c0.32 0 0.544-0.256 0.544-0.576 0-0.288-0.224-0.544-0.544-0.544h-1.664c-0.288 0-0.544 0.256-0.544 0.544v4.448c0 0.288 0.256 0.544 0.544 0.544zM16 21.024h0.544v3.872c0 0.288 0.256 0.544 0.576 0.544s0.544-0.256 0.544-0.544v-3.872h0.544c0.32 0 0.576-0.256 0.576-0.576 0-0.288-0.256-0.544-0.576-0.544h-2.208c-0.288 0-0.544 0.256-0.544 0.544 0 0.32 0.256 0.576 0.544 0.576zM24.864 25.44h1.632c0.32 0 0.576-0.256 0.576-0.544 0-0.32-0.256-0.576-0.576-0.576h-1.088v-3.872c0-0.288-0.256-0.544-0.544-0.544-0.32 0-0.576 0.256-0.576 0.544v4.448c0 0.288 0.256 0.544 0.576 0.544zM12.672 25.44c1.12 0 2.208-0.96 2.208-2.752 0-1.92-1.12-2.784-2.208-2.784-1.056 0-2.208 0.864-2.208 2.784 0 1.792 1.12 2.752 2.208 2.752zM12.672 21.024c0.672 0 1.12 0.64 1.12 1.664 0 0.96-0.448 1.632-1.12 1.632-0.64 0-1.088-0.672-1.088-1.632 0-1.024 0.416-1.664 1.088-1.664zM12.448 8.384l-0.864 0.32v-0.96c0-0.32-0.256-0.544-0.576-0.544-0.288 0-0.544 0.224-0.544 0.544v0.96l-0.864-0.32c-0.288-0.096-0.576 0.032-0.704 0.32-0.096 0.288 0.064 0.608 0.32 0.736l0.928 0.32-0.544 0.736c-0.192 0.256-0.128 0.576 0.096 0.768 0.096 0.064 0.224 0.128 0.352 0.128 0.16 0 0.32-0.096 0.416-0.224l0.544-0.736 0.544 0.704c0.128 0.16 0.288 0.224 0.448 0.224 0.128 0 0.224-0.032 0.352-0.096 0.224-0.192 0.288-0.544 0.096-0.768l-0.544-0.736 0.928-0.32c0.256-0.128 0.416-0.448 0.32-0.736-0.128-0.288-0.416-0.416-0.704-0.32zM6.048 25.44c0.32 0 0.544-0.256 0.544-0.544v-1.664h1.664v1.664c0 0.288 0.256 0.544 0.544 0.544s0.576-0.256 0.576-0.544v-4.448c0-0.288-0.256-0.544-0.576-0.544s-0.544 0.256-0.544 0.544v1.664h-1.664v-1.664c0-0.288-0.256-0.544-0.544-0.544-0.32 0-0.544 0.256-0.544 0.544v4.448c0 0.288 0.224 0.544 0.544 0.544zM22.4 8.384l-0.864 0.32v-0.96c0-0.32-0.256-0.544-0.544-0.544-0.32 0-0.576 0.224-0.576 0.544v0.96l-0.864-0.32c-0.288-0.096-0.576 0.032-0.704 0.32-0.096 0.288 0.064 0.608 0.352 0.736l0.896 0.32-0.544 0.736c-0.192 0.256-0.128 0.576 0.096 0.768 0.096 0.064 0.224 0.128 0.352 0.128 0.16 0 0.32-0.096 0.416-0.224l0.576-0.736 0.512 0.704c0.128 0.16 0.288 0.224 0.448 0.224 0.128 0 0.256-0.032 0.352-0.096 0.224-0.192 0.288-0.544 0.096-0.768l-0.544-0.736 0.928-0.32c0.288-0.128 0.416-0.448 0.32-0.736s-0.416-0.416-0.704-0.32zM28.16 1.664h-10.016c-0.256-0.96-1.12-1.664-2.144-1.664s-1.888 0.704-2.144 1.664h-10.016c-1.536 0-2.784 1.248-2.784 2.752v22.688c0 1.536 1.248 2.752 2.784 2.752h24.32c1.536 0 2.784-1.216 2.784-2.752v-22.688c0-1.504-1.248-2.752-2.784-2.752zM16 1.12c0.608 0 1.12 0.48 1.12 1.088s-0.512 1.12-1.12 1.12c-0.608 0-1.12-0.512-1.12-1.12s0.512-1.088 1.12-1.088zM29.824 27.104c0 0.928-0.736 1.664-1.664 1.664h-24.32c-0.928 0-1.664-0.736-1.664-1.664v-10.528h27.648v10.528zM29.824 15.488h-27.648v-11.072c0-0.896 0.736-1.664 1.664-1.664h10.016c0.256 0.96 1.12 1.664 2.144 1.664s1.888-0.704 2.144-1.664h10.016c0.928 0 1.664 0.768 1.664 1.664v11.072zM27.36 9.504l-0.864 0.32v-0.992c0-0.288-0.224-0.544-0.544-0.544-0.288 0-0.544 0.256-0.544 0.544v0.992l-0.864-0.32c-0.288-0.128-0.608 0.032-0.704 0.32s0.032 0.608 0.32 0.704l0.896 0.32-0.544 0.768c-0.16 0.224-0.128 0.576 0.128 0.768 0.096 0.064 0.224 0.096 0.32 0.096 0.16 0 0.352-0.064 0.448-0.224l0.544-0.736 0.544 0.736c0.096 0.128 0.288 0.224 0.448 0.224 0.128 0 0.224-0.032 0.32-0.128 0.256-0.16 0.288-0.512 0.128-0.768l-0.544-0.736 0.896-0.32c0.288-0.096 0.448-0.416 0.32-0.704-0.096-0.288-0.416-0.448-0.704-0.32zM17.408 7.84l-0.864 0.32v-0.96c0-0.32-0.224-0.576-0.544-0.576s-0.544 0.256-0.544 0.576v0.96l-0.864-0.32c-0.288-0.128-0.608 0.032-0.704 0.32-0.128 0.288 0.032 0.608 0.32 0.704l0.896 0.352-0.544 0.736c-0.16 0.224-0.128 0.576 0.128 0.768 0.096 0.064 0.192 0.096 0.32 0.096 0.16 0 0.352-0.064 0.448-0.224l0.544-0.736 0.544 0.736c0.096 0.16 0.288 0.224 0.448 0.224 0.096 0 0.224-0.032 0.32-0.096 0.256-0.192 0.288-0.544 0.128-0.8l-0.544-0.704 0.896-0.352c0.288-0.096 0.448-0.416 0.32-0.704-0.096-0.288-0.416-0.416-0.704-0.32zM7.456 9.504l-0.864 0.32v-0.992c0-0.288-0.256-0.544-0.544-0.544-0.32 0-0.544 0.256-0.544 0.544v0.992l-0.864-0.32c-0.288-0.128-0.608 0.032-0.704 0.32-0.128 0.288 0.032 0.608 0.32 0.704l0.896 0.352-0.544 0.736c-0.192 0.224-0.128 0.576 0.128 0.768 0.096 0.064 0.192 0.096 0.32 0.096 0.16 0 0.32-0.064 0.448-0.224l0.544-0.736 0.544 0.736c0.096 0.16 0.256 0.224 0.448 0.224 0.096 0 0.224-0.032 0.32-0.128 0.256-0.16 0.288-0.512 0.128-0.768l-0.544-0.704 0.896-0.352c0.288-0.096 0.416-0.416 0.32-0.704s-0.416-0.448-0.704-0.32z"></path>
</svg>
