<?xml version="1.0" encoding="utf-8"?>
<!-- Generated by IcoMoon.io -->
<!DOCTYPE svg PUBLIC "-//W3C//DTD SVG 1.1//EN" "http://www.w3.org/Graphics/SVG/1.1/DTD/svg11.dtd">
<svg version="1.1" xmlns="http://www.w3.org/2000/svg" xmlns:xlink="http://www.w3.org/1999/xlink" width="32" height="32" viewBox="0 0 32 32">
<path d="M14.72 19.36h-5.536c-0.288 0-0.544 0.256-0.544 0.544v5.536c0 0.32 0.256 0.544 0.544 0.544h5.536c0.32 0 0.544-0.224 0.544-0.544v-5.536c0-0.288-0.224-0.544-0.544-0.544zM14.176 24.896h-4.416v-4.448h4.416v4.448zM22.464 12.704h-4.416c-0.32 0-0.544 0.256-0.544 0.576s0.224 0.544 0.544 0.544h4.416c0.32 0 0.544-0.256 0.544-0.544s-0.224-0.576-0.544-0.576zM14.72 9.952h-5.536c-0.288 0-0.544 0.256-0.544 0.544v5.536c0 0.32 0.256 0.544 0.544 0.544h5.536c0.32 0 0.544-0.224 0.544-0.544v-5.536c0-0.288-0.224-0.544-0.544-0.544zM14.176 15.488h-4.416v-4.416h4.416v4.416zM25.792 3.872h-4.416c-0.032 0-0.064 0-0.096 0-0.192-0.64-0.704-1.12-1.312-1.12-0.16 0-0.544-0.288-0.704-0.672l-0.288-0.704c-0.32-0.768-1.216-1.376-2.048-1.376h-1.664c-0.8 0-1.696 0.608-2.016 1.376l-0.288 0.704c-0.16 0.384-0.544 0.672-0.736 0.672-0.576 0-1.088 0.48-1.28 1.12h-5.056c-1.536 0-2.784 1.248-2.784 2.752v20.48c0 1.536 1.248 2.752 2.784 2.752h19.904c1.536 0 2.752-1.216 2.752-2.752v-20.48c0-1.504-1.216-2.752-2.752-2.752zM11.968 4.416c0-0.32 0.16-0.544 0.256-0.544 0.704 0 1.44-0.608 1.76-1.376l0.288-0.704c0.16-0.352 0.64-0.672 0.992-0.672h1.664c0.384 0 0.864 0.32 1.024 0.672l0.288 0.704c0.032 0.096 0.064 0.192 0.128 0.256h-0.864c-0.32 0-0.576 0.256-0.576 0.576s0.256 0.544 0.576 0.544h2.208c0.032 0 0.064 0 0.096-0.032 0.064 0.032 0.096 0.032 0.16 0.032 0.096 0 0.288 0.224 0.288 0.544v0.576c0 0.288-0.256 0.544-0.544 0.544h-7.2c-0.288 0-0.544-0.256-0.544-0.544v-0.576zM27.456 27.104c0 0.928-0.768 1.664-1.664 1.664h-19.904c-0.928 0-1.664-0.736-1.664-1.664v-20.48c0-0.896 0.736-1.664 1.664-1.664h4.96c0 0.928 0.736 1.664 1.664 1.664h7.2c0.896 0 1.664-0.736 1.664-1.664h4.416c0.896 0 1.664 0.768 1.664 1.664v20.48zM22.464 22.112h-4.416c-0.32 0-0.544 0.256-0.544 0.576 0 0.288 0.224 0.544 0.544 0.544h4.416c0.32 0 0.544-0.256 0.544-0.544 0-0.32-0.224-0.576-0.544-0.576z"></path>
</svg>
