<?xml version="1.0" encoding="utf-8"?>
<!-- Generated by IcoMoon.io -->
<!DOCTYPE svg PUBLIC "-//W3C//DTD SVG 1.1//EN" "http://www.w3.org/Graphics/SVG/1.1/DTD/svg11.dtd">
<svg version="1.1" xmlns="http://www.w3.org/2000/svg" xmlns:xlink="http://www.w3.org/1999/xlink" width="32" height="32" viewBox="0 0 32 32">
<path d="M18.944 13.483c2.375 0.431 3.95 2.701 3.519 5.069-0.559 3.071-2.75 5.243-5.752 5.361l0.037 5.176c-0.012 0.746-0.305 1.54-0.779 2.047l-0.009-0.009c-0.593 0.589-1.374 0.876-2.152 0.867-0.012 0-0.022 0.004-0.033 0.004-1.424 0-2.605-1.020-2.859-2.366-0.197-0.942 0.066-1.957 0.795-2.692 0.001-0.001 0.001-0.001 0.001-0.002 0.005-0.004 0.009-0.010 0.015-0.015l0.004 0.004c0.13-0.122 0.303-0.2 0.496-0.2 0.402 0 0.727 0.325 0.727 0.727 0 0.191-0.077 0.361-0.197 0.492l0.007 0.007c-0.585 0.581-0.562 1.545 0.023 2.126 0.433 0.43 1.065 0.537 1.602 0.33 0.028-0.013 0.053-0.029 0.080-0.044 0.076-0.034 0.141-0.091 0.211-0.139 0.335-0.267 0.599-0.672 0.599-1.132l0.016-0.002-0.025-5.275c-3.559-0.65-6.354-4.052-5.706-7.604 0.324-1.777 1.339-3.254 2.718-4.207l0.001 0.001 3.019-1.774-0.015-7.845c0.288-1.58 1.301-2.627 2.885-2.339 0.791 0.143 1.482 0.669 1.874 1.206l-0.010 0.007c0.804 1.314 1.148 2.57 0.835 4.285-0.316 1.734-1.438 3.036-2.699 4.096l-0.008-0.010-1.497 1.342 0.044 2.888c0.606-0.396 1.278-0.552 2.235-0.379zM16.741 2.648l-0.012 6.602 0.723-0.664c0.864-0.9 1.739-1.951 1.985-3.299 0.242-1.324 0.132-2.172-0.586-3.208l-0.004 0.002c-0.212-0.305-0.541-0.53-0.937-0.602-0.791-0.145-1.024 0.38-1.168 1.169zM15.265 22.325l0.030-4.536c-0.082 0.032-0.171 0.053-0.265 0.053-0.401 0-0.727-0.325-0.727-0.727 0-0.111 0.031-0.214 0.074-0.308 0.161-0.7 0.478-1.327 0.916-1.844l-0.036-3.011-2.187 1.218c-1.073 0.74-1.822 1.921-2.075 3.302-0.487 2.672 1.652 5.232 4.271 5.853zM21.028 18.293c0.289-1.58-0.762-3.093-2.344-3.38-0.911-0.166-1.528 0.121-1.969 0.686l-0.010 6.86c2.312-0.115 3.891-1.795 4.323-4.165z"></path>
</svg>
