<?xml version="1.0" encoding="utf-8"?>
<!-- Generated by IcoMoon.io -->
<!DOCTYPE svg PUBLIC "-//W3C//DTD SVG 1.1//EN" "http://www.w3.org/Graphics/SVG/1.1/DTD/svg11.dtd">
<svg version="1.1" xmlns="http://www.w3.org/2000/svg" xmlns:xlink="http://www.w3.org/1999/xlink" width="32" height="32" viewBox="0 0 32 32">
<path d="M8.921 29.487c-0.164 0-0.32-0.098-0.386-0.259l-8.159-19.902c-0.195-0.315-0.308-0.525-0.327-0.561-0.060-0.114-0.065-0.249-0.012-0.366s0.157-0.204 0.281-0.235l6.471-1.585c2.424-0.594 4.745 0.697 5.664 1.305 0.534-0.964 1.996-3.181 4.42-3.775l6.47-1.585c0.125-0.031 0.257-0.002 0.358 0.078s0.159 0.201 0.158 0.33c-0.001 0.191-0.061 4.689-2.397 6.62-0.074 0.061-0.149 0.121-0.223 0.18l10.462 3.1c0.21 0.062 0.337 0.277 0.288 0.491-0.060 0.27-1.519 6.647-4.784 10.318-1.027 1.154-2.291 2.11-3.757 2.84-2.716 1.353-6.050 0.365-7.591-2.249-0.832-1.412-1.371-2.902-1.603-4.429-0.402-2.643 0.093-5.694 0.634-7.942-0.727-0.082-1.259-0.351-1.608-0.596-0.223 0.432-0.643 1.001-1.421 1.439-0.866 0.488-3.245 1.545-6.626 0.823-1.133-0.242-2.144-0.971-2.967-1.788l7.040 17.171c0.087 0.213-0.015 0.457-0.228 0.544-0.052 0.021-0.106 0.031-0.158 0.031zM15.742 11.882c-0.538 2.188-1.055 5.217-0.663 7.798 0.216 1.421 0.719 2.811 1.497 4.131 1.319 2.239 4.175 3.085 6.501 1.926 1.371-0.683 2.55-1.574 3.506-2.648 2.682-3.016 4.135-8.141 4.5-9.568l-10.698-3.17c-1.84 1.174-3.526 1.474-4.564 1.528-0.027 0.002-0.054 0.003-0.080 0.004zM1.115 8.93c0.675 1.073 2.32 3.361 4.293 3.783 3.19 0.681 5.431-0.39 6.043-0.734 1.057-0.596 1.244-1.488 1.245-1.497 0.029-0.162 0.151-0.292 0.311-0.331s0.328 0.019 0.429 0.15c0.021 0.026 0.585 0.712 1.796 0.752 0.044 0.002 0.095 0.003 0.153 0.003 0.010-0.001 0.022-0.001 0.031-0.001 0.043 0 0.091-0 0.143-0.001 0.972-0.027 3.159-0.313 5.371-2.141 1.603-1.325 1.98-4.236 2.068-5.443l-5.927 1.451c-2.667 0.653-4.073 3.724-4.087 3.755-0.053 0.117-0.156 0.204-0.281 0.234s-0.257 0.002-0.358-0.078c-0.026-0.021-2.701-2.091-5.359-1.441l-5.912 1.448c0.008 0.014 0.014 0.028 0.020 0.043zM25.758 19.988c-0.064 0-0.129-0.003-0.195-0.009v0c-1.577-0.153-2.729-1.68-2.777-1.745-0.067-0.090-0.095-0.203-0.077-0.314s0.079-0.21 0.17-0.275c0.059-0.042 1.443-1.012 2.724-0.896 1.199 0.109 2.578 0.751 2.636 0.778 0.106 0.050 0.186 0.142 0.221 0.254s0.021 0.233-0.038 0.334c-0.046 0.080-1.111 1.874-2.664 1.874zM25.644 19.149c0.76 0.074 1.425-0.605 1.782-1.061-0.474-0.186-1.234-0.448-1.899-0.509-0.592-0.055-1.303 0.247-1.769 0.503 0.38 0.392 1.081 0.989 1.885 1.067v0zM19.184 17.973c-0.505 0-1.055-0.085-1.556-0.345v0c-1.478-0.768-1.386-3.026-1.382-3.122 0.006-0.117 0.060-0.226 0.15-0.301s0.207-0.108 0.323-0.092c0.064 0.009 1.569 0.222 2.634 0.784 1.136 0.599 1.769 2.169 1.795 2.235 0.042 0.104 0.039 0.221-0.006 0.323s-0.131 0.182-0.236 0.221c-0.049 0.018-0.812 0.295-1.724 0.295zM18.013 16.887c0.716 0.372 1.628 0.254 2.161 0.133-0.232-0.436-0.654-1.093-1.208-1.386-0.59-0.311-1.37-0.506-1.869-0.608 0.051 0.577 0.24 1.51 0.916 1.861v0zM8.765 11.683c-1.51 0-2.463-1.797-2.504-1.875-0.054-0.104-0.062-0.226-0.022-0.336s0.125-0.198 0.233-0.242c0.055-0.023 1.367-0.558 2.49-0.606 1.202-0.046 2.453 0.917 2.506 0.959 0.088 0.069 0.145 0.171 0.157 0.283s-0.021 0.223-0.092 0.31c-0.048 0.059-1.192 1.433-2.675 1.506-0.031 0.002-0.062 0.002-0.093 0.002zM7.259 9.83c0.342 0.468 0.924 1.051 1.558 1.018 0.685-0.034 1.346-0.499 1.749-0.869-0.39-0.237-1.005-0.547-1.569-0.522-0.6 0.025-1.292 0.223-1.739 0.373zM16.152 9.84c-0.938 0-1.743-0.337-1.791-0.357-0.103-0.044-0.184-0.128-0.225-0.233s-0.038-0.221 0.009-0.323c0.028-0.061 0.689-1.498 1.779-2.008 1.018-0.476 2.429-0.608 2.488-0.613 0.118-0.011 0.232 0.029 0.319 0.108s0.136 0.191 0.136 0.308c0 0.090-0.015 2.206-1.438 2.861v0c-0.415 0.191-0.859 0.258-1.277 0.258zM15.127 8.86c0.489 0.132 1.297 0.267 1.953-0.035v0c0.609-0.281 0.829-1.093 0.908-1.622-0.466 0.074-1.169 0.218-1.711 0.472-0.481 0.225-0.896 0.769-1.15 1.186z"></path>
</svg>
