<?xml version="1.0" encoding="utf-8"?>
<!-- Generated by IcoMoon.io -->
<!DOCTYPE svg PUBLIC "-//W3C//DTD SVG 1.1//EN" "http://www.w3.org/Graphics/SVG/1.1/DTD/svg11.dtd">
<svg version="1.1" xmlns="http://www.w3.org/2000/svg" xmlns:xlink="http://www.w3.org/1999/xlink" width="32" height="32" viewBox="0 0 32 32">
<path d="M28.384 15.776c0.128-0.544 0.192-1.12 0.192-1.664 0-4.128-3.36-7.488-7.456-7.488-2.336 0-4.544 1.12-5.952 2.944-2.176-5.024-5.472-9.12-5.696-9.376-0.096-0.128-0.256-0.192-0.448-0.192-0.16 0-0.32 0.096-0.416 0.224-0.32 0.416-7.584 10.208-7.552 17.248 0.032 3.648 3.264 7.712 7.616 7.936v3.904c0 0.32 0.256 0.544 0.544 0.544 0.32 0 0.544-0.224 0.544-0.544v-3.904c3.104-0.288 5.792-2.496 6.848-5.344 1.088 0.8 2.336 1.312 3.68 1.44v7.808c0 0.32 0.256 0.544 0.544 0.544 0.32 0 0.544-0.224 0.544-0.544v-2.752h3.328c1.536 0 2.784-0.992 2.784-2.24v-1.152c1.856-0.256 3.296-1.856 3.296-3.808 0-1.632-0.992-3.008-2.4-3.584zM9.088 24.32c-3.872 0-6.912-3.68-6.912-6.848-0.032-5.728 5.312-13.76 6.88-16 1.6 2.112 6.912 9.6 6.912 16 0 3.648-3.2 6.848-6.88 6.848zM21.12 20.448c-1.536 0-3.008-0.544-4.192-1.536 0.096-0.48 0.16-0.96 0.16-1.44 0-2.208-0.576-4.512-1.408-6.688 1.152-1.888 3.232-3.040 5.44-3.040 3.488 0 6.368 2.848 6.368 6.368 0 0.48-0.064 0.928-0.16 1.408-0.128-0.032-0.288-0.032-0.416-0.032-2.112 0-3.872 1.728-3.872 3.872 0 0.256 0.032 0.512 0.096 0.768-0.672 0.224-1.344 0.32-2.016 0.32zM26.368 24.32c0 0.608-0.768 1.12-1.664 1.12h-3.328v-3.872c0.736-0.032 1.44-0.16 2.112-0.384 0.576 1.056 1.632 1.824 2.88 2.016v1.12zM26.912 22.112c-1.504 0-2.752-1.216-2.752-2.752s1.248-2.784 2.752-2.784c1.536 0 2.784 1.248 2.784 2.784s-1.248 2.752-2.784 2.752z"></path>
</svg>
