<?xml version="1.0" encoding="utf-8"?>
<!-- Generated by IcoMoon.io -->
<!DOCTYPE svg PUBLIC "-//W3C//DTD SVG 1.1//EN" "http://www.w3.org/Graphics/SVG/1.1/DTD/svg11.dtd">
<svg version="1.1" xmlns="http://www.w3.org/2000/svg" xmlns:xlink="http://www.w3.org/1999/xlink" width="32" height="32" viewBox="0 0 32 32">
<path d="M30.368 24.288c-1.056 0-1.6 0.352-2.080 0.64-0.416 0.256-0.768 0.48-1.504 0.48s-1.088-0.224-1.504-0.48c-0.288-0.16-0.576-0.352-0.992-0.48v-20.608c0-0.928 0.768-1.664 1.664-1.664h0.544c0.928 0 1.664 0.736 1.664 1.664v2.752c0 0.32 0.256 0.544 0.576 0.544h1.632c0.32 0 0.576-0.224 0.576-0.544s-0.256-0.544-0.576-0.544h-1.088v-2.208c0-1.536-1.248-2.784-2.784-2.784h-0.544c-1.536 0-2.752 1.248-2.752 2.784v7.744h-12.736v-7.744c0-0.928 0.736-1.664 1.664-1.664h0.544c0.928 0 1.664 0.736 1.664 1.664v2.752c0 0.32 0.256 0.544 0.576 0.544h1.632c0.32 0 0.576-0.224 0.576-0.544s-0.256-0.544-0.576-0.544h-1.088v-2.208c0-1.536-1.248-2.784-2.784-2.784h-0.544c-1.536 0-2.752 1.248-2.752 2.784v20.48c-0.192 0-0.352-0.032-0.576-0.032-1.056 0-1.6 0.352-2.080 0.64-0.416 0.256-0.768 0.48-1.504 0.48s-1.088-0.224-1.504-0.48c-0.48-0.288-1.024-0.64-2.080-0.64-0.32 0-0.576 0.256-0.576 0.576 0 0.288 0.256 0.544 0.576 0.544 0.736 0 1.056 0.192 1.504 0.448 0.48 0.32 1.024 0.64 2.080 0.64s1.6-0.32 2.080-0.64c0.448-0.256 0.768-0.448 1.504-0.448s1.088 0.192 1.504 0.448c0.512 0.32 1.056 0.64 2.112 0.64s1.6-0.32 2.080-0.64c0.416-0.256 0.768-0.448 1.504-0.448s1.088 0.192 1.504 0.448c0.48 0.32 1.024 0.64 2.080 0.64s1.6-0.32 2.080-0.64c0.448-0.256 0.768-0.448 1.536-0.448 0.736 0 1.056 0.192 1.504 0.448 0.48 0.32 1.024 0.64 2.080 0.64s1.6-0.32 2.080-0.64c0.448-0.256 0.768-0.448 1.504-0.448 0.32 0 0.576-0.256 0.576-0.544 0-0.32-0.256-0.576-0.576-0.576zM23.2 12.672v6.656h-12.736v-6.656h12.736zM21.088 24.928c-0.416 0.256-0.768 0.48-1.504 0.48s-1.088-0.224-1.504-0.48c-0.48-0.288-1.024-0.64-2.080-0.64s-1.6 0.352-2.080 0.64c-0.448 0.256-0.768 0.48-1.504 0.48s-1.088-0.224-1.536-0.48c-0.128-0.064-0.256-0.16-0.416-0.256v-4.256h12.736v3.872c0 0 0 0 0 0-1.056 0-1.632 0.352-2.112 0.64zM30.944 29.28c0 0.288-0.256 0.544-0.576 0.544-0.736 0-1.056 0.224-1.504 0.48-0.48 0.288-1.024 0.64-2.080 0.64s-1.6-0.352-2.080-0.64c-0.448-0.256-0.768-0.48-1.504-0.48-0.768 0-1.088 0.224-1.536 0.48-0.48 0.288-1.024 0.64-2.080 0.64s-1.6-0.352-2.080-0.64c-0.416-0.256-0.768-0.48-1.504-0.48s-1.088 0.224-1.504 0.48c-0.48 0.288-1.024 0.64-2.080 0.64s-1.632-0.352-2.112-0.64c-0.416-0.256-0.768-0.48-1.504-0.48s-1.056 0.224-1.504 0.48c-0.48 0.288-1.024 0.64-2.080 0.64s-1.6-0.352-2.080-0.64c-0.448-0.256-0.768-0.48-1.504-0.48-0.32 0-0.576-0.256-0.576-0.544s0.256-0.544 0.576-0.544c1.056 0 1.6 0.32 2.080 0.608 0.416 0.288 0.768 0.48 1.504 0.48s1.088-0.192 1.504-0.48c0.48-0.288 1.024-0.608 2.080-0.608s1.6 0.32 2.112 0.608c0.416 0.288 0.736 0.48 1.504 0.48s1.056-0.192 1.504-0.48c0.48-0.288 1.024-0.608 2.080-0.608s1.6 0.32 2.080 0.608c0.448 0.288 0.768 0.48 1.504 0.48s1.088-0.192 1.504-0.48c0.512-0.288 1.056-0.608 2.112-0.608s1.6 0.32 2.080 0.608c0.416 0.288 0.768 0.48 1.504 0.48s1.088-0.192 1.504-0.48c0.48-0.288 1.056-0.608 2.112-0.608 0.288 0 0.544 0.224 0.544 0.544z"></path>
</svg>
