<?xml version="1.0" encoding="utf-8"?>
<!-- Generated by IcoMoon.io -->
<!DOCTYPE svg PUBLIC "-//W3C//DTD SVG 1.1//EN" "http://www.w3.org/Graphics/SVG/1.1/DTD/svg11.dtd">
<svg version="1.1" xmlns="http://www.w3.org/2000/svg" xmlns:xlink="http://www.w3.org/1999/xlink" width="32" height="32" viewBox="0 0 32 32">
<path d="M23.296 11.136c-0.256 0.128-0.384 0.448-0.224 0.736 0.064 0.16 0.128 0.32 0.128 0.512 0 0.608-0.512 1.088-1.12 1.088s-1.088-0.48-1.088-1.088c0-0.192 0.032-0.352 0.096-0.512 0.16-0.256 0.032-0.608-0.224-0.736-0.288-0.128-0.608-0.032-0.768 0.224-0.128 0.32-0.224 0.672-0.224 1.024 0 1.216 0.992 2.208 2.208 2.208s2.208-0.992 2.208-2.208c0-0.352-0.064-0.704-0.256-1.024-0.128-0.288-0.448-0.384-0.736-0.224zM30.816 28.16l-1.984-18.816c-0.096-0.896-0.896-1.6-1.76-1.6h-4.448v-1.376c0-3.584-2.912-6.368-6.624-6.368s-6.624 2.784-6.624 6.368v1.376h-4.448c-0.864 0-1.664 0.704-1.76 1.6l-1.984 18.816c-0.032 0.448 0.096 0.864 0.384 1.216 0.288 0.32 0.704 0.48 1.152 0.48h26.56c0.448 0 0.864-0.16 1.152-0.48s0.416-0.768 0.384-1.216zM10.464 6.368c0-2.944 2.432-5.248 5.536-5.248s5.536 2.304 5.536 5.248v1.376h-11.072v-1.376zM29.6 28.608c-0.064 0.096-0.192 0.16-0.32 0.16h-26.56c-0.128 0-0.256-0.064-0.32-0.16-0.096-0.064-0.128-0.192-0.128-0.32l1.984-18.848c0.032-0.32 0.352-0.576 0.672-0.576h4.448v2.752c0 0.288 0.224 0.544 0.544 0.544s0.544-0.256 0.544-0.544v-2.784h11.072v2.784c0 0.288 0.256 0.544 0.544 0.544s0.544-0.256 0.544-0.544v-2.784h4.448c0.32 0 0.64 0.288 0.672 0.608l1.984 18.816c0 0.16-0.032 0.288-0.128 0.352zM11.136 11.136c-0.288 0.128-0.384 0.448-0.224 0.736 0.064 0.16 0.096 0.32 0.096 0.512 0 0.608-0.48 1.088-1.088 1.088s-1.12-0.48-1.12-1.088c0-0.192 0.064-0.352 0.128-0.512 0.128-0.256 0.032-0.608-0.256-0.736-0.256-0.128-0.608-0.032-0.736 0.224-0.16 0.32-0.224 0.672-0.224 1.024 0 1.216 0.992 2.208 2.208 2.208s2.208-0.992 2.208-2.208c0-0.352-0.096-0.704-0.256-1.024-0.128-0.288-0.48-0.384-0.736-0.224z"></path>
</svg>
