<?xml version="1.0" encoding="utf-8"?>
<!-- Generated by IcoMoon.io -->
<!DOCTYPE svg PUBLIC "-//W3C//DTD SVG 1.1//EN" "http://www.w3.org/Graphics/SVG/1.1/DTD/svg11.dtd">
<svg version="1.1" xmlns="http://www.w3.org/2000/svg" xmlns:xlink="http://www.w3.org/1999/xlink" width="32" height="32" viewBox="0 0 32 32">
<path d="M26.074 28.53c-3.169 0-5.765-2.5-5.919-5.631l-4.139-1.318-4.172 1.318c-0.154 3.131-2.75 5.631-5.919 5.631-3.267 0-5.926-2.658-5.926-5.926s2.658-5.926 5.926-5.926c1.882 0 3.563 0.882 4.649 2.255l1.418-1.477c-0.394-0.853-0.889-1.579-1.48-2.169-0.565-0.565-1.401-0.927-2.328-1.154-0.001 0.003-0.001 0.006-0.001 0.008-0.042 0.217-0.252 0.359-0.468 0.318l-2.597-0.496c-0.112-0.021-0.204-0.088-0.262-0.177-0.958-0.004-1.78 0.061-2.241 0.106-0.276 0.027-0.55-0.083-0.731-0.295s-0.247-0.501-0.175-0.771l0.289-1.1c0.283-1.076 1.258-1.827 2.37-1.827h3.642c1.719 0 3.097 0.708 4.313 1.333 0.924 0.475 1.723 0.885 2.47 0.885 1.724 0 2.4-0.423 3.255-0.959l0.080-0.050c0.596-0.372 1.367-0.526 1.909-0.59l-0.59-1.041h-1.737c-0.221 0-0.4-0.179-0.4-0.4s0.179-0.4 0.4-0.4h1.97c0.144 0 0.277 0.077 0.348 0.203l0.534 0.943c0.056-0.42 0.085-1.007 0.020-1.787-0.163-1.958-1.26-3.951-1.271-3.971-0.082-0.147-0.063-0.33 0.049-0.457s0.29-0.17 0.447-0.109c0.083 0.032 2.032 0.818 3.293 2.859 0.999 1.617 1.315 3.004 1.404 3.516l0.64 0.362c0.295-0.68 0.973-1.157 1.761-1.157 0.028 0 0.055 0.002 0.082 0.003l0.020 0.001c0.212 0.011 0.379 0.187 0.379 0.399v2.023l2.284 1.33c0.358 0.209 0.526 0.618 0.417 1.018s-0.459 0.669-0.874 0.669h-2.999l0.757 0.145c0.217 0.041 0.359 0.251 0.318 0.468s-0.252 0.359-0.468 0.318l-2.597-0.496c-0.101-0.019-0.185-0.075-0.243-0.15-0.749 0.226-1.6 0.622-2.385 1.316-0.417 0.369-0.781 0.819-1.088 1.348l1.168 1.163c0.625-0.691 1.41-1.234 2.296-1.57-0.061-0.086-0.088-0.195-0.067-0.307 0.042-0.217 0.252-0.359 0.468-0.318l1.299 0.248c0.007 0.001 0.015 0.003 0.022 0.005 0.125-0.008 0.25-0.012 0.377-0.012 3.268 0 5.926 2.658 5.926 5.926s-2.658 5.926-5.926 5.926zM20.948 22.613c0.005 2.823 2.303 5.118 5.127 5.118 2.827 0 5.126-2.3 5.126-5.127s-2.3-5.126-5.126-5.126c-2.824 0-5.122 2.295-5.127 5.117v0.018zM5.926 17.477c-2.827 0-5.127 2.3-5.127 5.126s2.3 5.127 5.127 5.127c2.824 0 5.122-2.295 5.127-5.118-0-0.006-0-0.012 0-0.018-0.005-2.823-2.303-5.117-5.127-5.117zM11.037 19.607c0.432 0.734 0.71 1.568 0.791 2.459l2.67-0.844c-0.929-0.434-1.661-1.255-1.957-2.282-0.067-0.231-0.139-0.456-0.217-0.674zM17.756 21.296l2.416 0.769c0.093-1.032 0.453-1.989 1.009-2.802l-1.047-1.042c-0.11 0.256-0.209 0.525-0.298 0.808-0.331 1.055-1.104 1.869-2.081 2.266zM16.017 20.762h0.371c1.237 0 2.317-0.792 2.686-1.971 0.432-1.38 1.104-2.479 1.996-3.269 2.21-1.953 4.812-1.82 5.080-1.801h3.066c0.020 0 0.081 0 0.102-0.078s-0.031-0.108-0.049-0.118l-1.871-1.090v0.075c0 0.212-0.166 0.387-0.378 0.399l-0.019 0.001c-0.030 0.002-0.056 0.004-0.090 0.004h-0.004c-1.035 0-1.881-0.824-1.917-1.85l-1.047-0.592c-0.112-0.063-0.187-0.177-0.201-0.305-0.002-0.015-0.183-1.55-1.32-3.391-0.557-0.902-1.279-1.534-1.863-1.941 0.338 0.817 0.725 1.968 0.822 3.133 0.172 2.066-0.255 2.955-0.328 3.090-0.034 0.065-0.087 0.121-0.155 0.16v0c-0 0-0.001 0-0.001 0.001l-0 0c-0.064 0.036-0.126 0.056-0.202 0.052-0.069 0.001-0.879 0.015-1.602 0.264-0.264 0.713-1.349 3.15-3.831 3.15-3.096 0-5.821-3.217-6.377-3.917-0.282-0.045-0.573-0.071-0.873-0.071h-3.641c-0.749 0-1.406 0.506-1.597 1.231l-0.29 1.101c-0.005 0.019-0.001 0.035 0.011 0.049 0.017 0.020 0.037 0.018 0.044 0.018 1.894-0.185 6.517-0.397 8.539 1.625 1.005 1.005 1.755 2.35 2.23 3.997 0.347 1.203 1.46 2.043 2.707 2.043h0v0zM10.308 11.167c1.068 1.103 2.97 2.719 4.955 2.719 1.305 0 2.144-0.915 2.622-1.694-0.719 0.404-1.565 0.724-3.088 0.724-0.941 0-1.861-0.473-2.836-0.973-0.517-0.266-1.065-0.547-1.653-0.775zM25.804 10.806c0.002 0.025 0.002 0.050-0 0.076-0.004 0.038-0.006 0.076-0.006 0.115 0 0.503 0.333 0.929 0.791 1.070v-2.143c-0.403 0.12-0.712 0.461-0.785 0.883zM26.074 25.32c-1.498 0-2.716-1.218-2.716-2.716s1.218-2.716 2.716-2.716 2.716 1.218 2.716 2.716c0 1.498-1.218 2.716-2.716 2.716zM26.074 20.687c-1.057 0-1.916 0.86-1.916 1.916s0.86 1.916 1.916 1.916 1.916-0.86 1.916-1.916c0-1.057-0.86-1.916-1.916-1.916zM5.926 25.32c-1.498 0-2.716-1.218-2.716-2.716s1.218-2.716 2.716-2.716 2.716 1.218 2.716 2.716c0 1.498-1.218 2.716-2.716 2.716zM5.926 20.687c-1.057 0-1.917 0.86-1.917 1.916s0.86 1.916 1.917 1.916c1.057 0 1.917-0.86 1.917-1.916s-0.86-1.916-1.917-1.916zM7.792 16.684c-0.025 0-0.050-0.002-0.075-0.007l-2.597-0.496c-0.217-0.041-0.359-0.251-0.318-0.468s0.252-0.359 0.468-0.318l2.597 0.496c0.217 0.041 0.359 0.251 0.318 0.468-0.037 0.191-0.204 0.325-0.392 0.325zM26.9 16.558c-0.025 0-0.050-0.002-0.076-0.007l-2.597-0.496c-0.217-0.041-0.359-0.251-0.318-0.468s0.252-0.359 0.468-0.318l2.597 0.496c0.217 0.041 0.359 0.251 0.318 0.468-0.037 0.191-0.204 0.325-0.392 0.325zM7.792 15.584c-0.025 0-0.050-0.002-0.075-0.007l-2.597-0.496c-0.217-0.041-0.359-0.251-0.318-0.468s0.252-0.359 0.468-0.318l2.597 0.496c0.217 0.041 0.359 0.251 0.318 0.468-0.037 0.191-0.204 0.325-0.392 0.325z"></path>
</svg>
