<?xml version="1.0" encoding="utf-8"?>
<!-- Generated by IcoMoon.io -->
<!DOCTYPE svg PUBLIC "-//W3C//DTD SVG 1.1//EN" "http://www.w3.org/Graphics/SVG/1.1/DTD/svg11.dtd">
<svg version="1.1" xmlns="http://www.w3.org/2000/svg" xmlns:xlink="http://www.w3.org/1999/xlink" width="32" height="32" viewBox="0 0 32 32">
<path d="M27.884 1.527c-0.249-0.128-0.55-0.028-0.676 0.22 0 0-6.685 13.111-6.685 13.111-0.448-0.273-0.978-0.417-1.538-0.357-0.123-0.236-0.285-0.444-0.464-0.634 0 0 6.696-13.135 6.696-13.135 0.126-0.249 0.028-0.55-0.22-0.677s-0.55-0.027-0.677 0.221c0 0-6.616 12.978-6.616 12.978-0.679-0.346-1.491-0.442-2.287-0.167-0.629 0.22-1.164 0.647-1.517 1.202-0.252-0.065-0.511-0.097-0.778-0.097-1.41 0-2.609 0.945-2.993 2.235-0.23-0.092-0.478-0.142-0.732-0.142-0.997 0-1.823 0.749-1.946 1.712-0.19-0.036-0.383-0.055-0.579-0.055-1.67 0-3.029 1.36-3.029 3.030 0 0.273 0.044 0.547 0.135 0.86 0.036 0.122 0.121 0.21 0.223 0.274 0 0 6.035 7.905 6.035 7.905s0 1.488 0 1.488c0 0.276 0.224 0.502 0.502 0.502 0 0 9.605 0 9.605 0 0.277 0 0.502-0.226 0.502-0.502 0 0 0-1.489 0-1.489s6.085-7.971 6.085-7.971c0 0-0.032-0.025-0.032-0.025 0.034-0.038 0.078-0.067 0.1-0.116 0.159-0.352 0.241-0.721 0.241-1.096 0-1.469-1.195-2.663-2.662-2.663-0.335 0-0.66 0.062-0.962 0.179-0.275-0.858-1.003-1.516-1.903-1.691-0.057-0.387-0.211-0.739-0.427-1.049 0 0 6.818-13.374 6.818-13.374 0.125-0.248 0.027-0.55-0.222-0.676 0 0 0 0 0 0M20.095 29.336c0 0-9.106 0-9.106 0s-5.455-7.144-5.455-7.144c0 0 20.017 0 20.017 0s-5.456 7.144-5.456 7.144c0 0 0 0 0 0M11.244 30.993c0 0 0-0.65 0-0.65s8.597 0 8.597 0c0 0 0 0.65 0 0.65s-8.597 0-8.597 0c0 0 0 0 0 0M20.731 17.009c0 0.006-0.002 0.051-0.003 0.057-0.003 0.137 0.050 0.268 0.145 0.366s0.227 0.153 0.364 0.153c0.822 0 1.492 0.671 1.492 1.47-0.001 0.014-0.002 0.047-0.002 0.061 0 0.193 0.111 0.369 0.286 0.453 0.174 0.083 0.381 0.061 0.533-0.062 0.295-0.238 0.653-0.365 1.034-0.365 0.913 0 1.657 0.743 1.657 1.659 0 0.13-0.016 0.259-0.047 0.385 0 0-21.323-0.002-21.323-0.002-0.010-0.073-0.015-0.144-0.015-0.212 0-1.117 0.908-2.023 2.023-2.023 0.319 0 0.627 0.075 0.917 0.223 0.182 0.094 0.402 0.066 0.558-0.067 0.156-0.134 0.213-0.349 0.147-0.543-0.035-0.103-0.053-0.207-0.053-0.311 0-0.528 0.429-0.957 0.956-0.957 0.278 0 0.542 0.122 0.724 0.333 0.138 0.159 0.358 0.219 0.556 0.145 0.196-0.073 0.327-0.26 0.329-0.469 0.009-1.157 0.958-2.101 2.116-2.101 0.288 0 0.565 0.057 0.825 0.166 0.254 0.108 0.55-0.010 0.659-0.266 0.212-0.496 0.627-0.884 1.139-1.061 0.53-0.181 1.063-0.126 1.506 0.099 0 0-1.522 2.986-1.522 2.986-0.127 0.247-0.028 0.551 0.221 0.677 0.073 0.037 0.151 0.055 0.227 0.055 0.183 0 0.359-0.101 0.449-0.275 0 0 1.392-2.732 1.392-2.732 0.074 0.121 0.139 0.247 0.186 0.385 0.085 0.254 0.358 0.394 0.614 0.321 0.457-0.131 0.898-0.033 1.244 0.203 0 0-1.445 2.836-1.445 2.836-0.126 0.247-0.029 0.551 0.219 0.677 0.074 0.036 0.153 0.055 0.229 0.055 0.183 0 0.359-0.1 0.448-0.275 0 0 1.184-2.323 1.184-2.323 0.017 0.091 0.033 0.182 0.033 0.281 0 0 0 0 0 0"></path>
</svg>
