<?xml version="1.0" encoding="utf-8"?>
<!-- Generated by IcoMoon.io -->
<!DOCTYPE svg PUBLIC "-//W3C//DTD SVG 1.1//EN" "http://www.w3.org/Graphics/SVG/1.1/DTD/svg11.dtd">
<svg version="1.1" xmlns="http://www.w3.org/2000/svg" xmlns:xlink="http://www.w3.org/1999/xlink" width="32" height="32" viewBox="0 0 32 32">
<path d="M26.185 32h-22.789c-0.51 0-0.976-0.319-1.16-0.795l-1.473-3.807c-0.145-0.375-0.1-0.798 0.121-1.134s0.593-0.544 0.994-0.559l10.008-0.359c-0.049-0.072-0.078-0.159-0.078-0.253v-0.964l-7.031-0.617c-0.139-0.012-0.264-0.088-0.339-0.206s-0.090-0.263-0.042-0.394l7.412-20.152v-1.544c-0.46-0.176-1.054-0.34-1.428-0.323 0.025 0.050 0.052 0.102 0.074 0.144 0.152 0.29 0.555 1.061-0.159 1.435-0.764 0.4-2.571-0.442-3.312-0.823-0.22-0.113-0.306-0.382-0.194-0.602s0.382-0.307 0.602-0.194c0.941 0.483 1.999 0.85 2.389 0.841-0.034-0.078-0.084-0.175-0.12-0.242-0.157-0.301-0.336-0.642-0.189-0.988 0.058-0.137 0.19-0.318 0.49-0.405 0.848-0.247 2.21 0.33 2.475 0.448 0.161 0.072 0.265 0.232 0.265 0.409v1.595c1.722 0.562 9.619 3.406 11.81 8.985 1.903 4.845 1.171 9.086 0.566 11.183-0.253 0.876-1.067 1.488-1.981 1.488h-10.395v0.926c0 0.082-0.022 0.16-0.061 0.226l17.672-0.634c0.38-0.013 0.721 0.186 0.897 0.521s0.143 0.731-0.084 1.034l-3.945 5.26c-0.234 0.312-0.606 0.497-0.995 0.497zM30.35 25.581c-0.002 0-0.004 0-0.005 0l-28.435 1.019c-0.114 0.004-0.216 0.061-0.279 0.157s-0.075 0.212-0.034 0.318l1.473 3.807c0.052 0.135 0.18 0.223 0.325 0.223h22.79c0.109 0 0.214-0.052 0.28-0.14l3.945-5.26c0.007-0.010 0.030-0.039 0.007-0.083-0.020-0.038-0.051-0.041-0.067-0.041zM13.269 23.274h9.828c0.517 0 0.978-0.346 1.121-0.842 0.574-1.988 1.267-6.010-0.539-10.608-1.794-4.569-7.997-7.268-10.496-8.192 0.996 1.952 3.033 6.358 3.263 10.149 0.283 4.67-1.978 8.049-3.177 9.493zM5.437 22.673l6.371 0.559v-17.88zM12.702 4.684v17.855c1.129-1.427 3.102-4.548 2.85-8.704-0.195-3.226-1.824-7.036-2.85-9.151z"></path>
</svg>
