<?xml version="1.0" encoding="utf-8"?>
<!-- Generated by IcoMoon.io -->
<!DOCTYPE svg PUBLIC "-//W3C//DTD SVG 1.1//EN" "http://www.w3.org/Graphics/SVG/1.1/DTD/svg11.dtd">
<svg version="1.1" xmlns="http://www.w3.org/2000/svg" xmlns:xlink="http://www.w3.org/1999/xlink" width="32" height="32" viewBox="0 0 32 32">
<path d="M25.952 15.488h-8.832c-0.32 0-0.576 0.256-0.576 0.544v8.288c0 0.32 0.256 0.576 0.576 0.576h8.832c0.32 0 0.544-0.256 0.544-0.576v-8.288c0-0.288-0.224-0.544-0.544-0.544zM25.408 23.776h-7.744v-7.2h7.744v7.2zM8.256 23.232h1.12c0.288 0 0.544-0.256 0.544-0.544 0-0.32-0.256-0.576-0.544-0.576h-1.12c-0.288 0-0.544 0.256-0.544 0.576 0 0.288 0.256 0.544 0.544 0.544zM30.944 3.872c0-2.144-1.76-3.872-3.872-3.872h-22.144c-2.112 0-3.872 1.728-3.872 3.872v4.96c0 1.088 0.448 2.080 1.184 2.784-0.032 0.192-0.064 0.352-0.064 0.544v14.944c0 1.536 1.248 2.752 2.752 2.752h22.144c1.504 0 2.752-1.216 2.752-2.752v-14.944c0-0.16 0-0.32-0.032-0.48 0-0.032-0.032-0.032-0.032-0.064 0.736-0.704 1.184-1.696 1.184-2.784v-4.96zM16.544 1.12h6.080v7.712c0 1.536-1.216 2.784-2.752 2.784h-0.544c-1.536 0-2.784-1.248-2.784-2.784v-7.712zM9.376 1.12h6.080v7.712c0 1.536-1.248 2.784-2.784 2.784h-0.544c-1.536 0-2.752-1.248-2.752-2.784v-7.712zM2.176 8.832v-4.96c0-1.536 1.248-2.752 2.752-2.752h3.328v7.712c0 1.536-1.248 2.784-2.752 2.784h-0.576c-1.504 0-2.752-1.248-2.752-2.784zM12.672 28.768h-6.080v-12.192h6.080v12.192zM28.736 27.104c0 0.928-0.768 1.664-1.664 1.664h-13.28v-12.736c0-0.288-0.256-0.544-0.544-0.544h-7.2c-0.32 0-0.544 0.256-0.544 0.544v12.736h-0.576c-0.896 0-1.632-0.736-1.632-1.664v-14.752c0.48 0.224 1.056 0.352 1.632 0.352h0.576c1.408 0 2.624-0.736 3.296-1.888 0.704 1.152 1.92 1.888 3.328 1.888h0.544c1.408 0 2.656-0.736 3.328-1.888 0.672 1.152 1.92 1.888 3.328 1.888h0.544c1.408 0 2.656-0.736 3.328-1.888 0.672 1.152 1.888 1.888 3.296 1.888h0.576c0.576 0 1.152-0.128 1.664-0.352v14.752zM29.824 8.832c0 1.536-1.248 2.784-2.752 2.784h-0.576c-1.504 0-2.752-1.248-2.752-2.784v-7.712h3.328c1.504 0 2.752 1.216 2.752 2.752v4.96z"></path>
</svg>
