<?xml version="1.0" encoding="utf-8"?>
<!-- Generated by IcoMoon.io -->
<!DOCTYPE svg PUBLIC "-//W3C//DTD SVG 1.1//EN" "http://www.w3.org/Graphics/SVG/1.1/DTD/svg11.dtd">
<svg version="1.1" xmlns="http://www.w3.org/2000/svg" xmlns:xlink="http://www.w3.org/1999/xlink" width="32" height="32" viewBox="0 0 32 32">
<path d="M11.040 9.344c0.16 0.288 0.032 0.608-0.256 0.768-1.376 0.64-1.6 1.984-1.792 3.264-0.096 0.544-0.192 1.088-0.384 1.536-0.064 0.192-0.288 0.352-0.512 0.352-0.064 0-0.128-0.032-0.192-0.064-0.288-0.096-0.416-0.416-0.32-0.704 0.128-0.352 0.224-0.8 0.288-1.28 0.224-1.344 0.544-3.2 2.432-4.128 0.288-0.128 0.608 0 0.736 0.256zM27.744 4.928v25.44c0 0.32-0.256 0.576-0.544 0.576s-0.544-0.256-0.544-0.576v-25.44c0-1.504-1.248-2.752-2.784-2.752h-7.2c-1.504 0-2.752 0.992-2.752 2.208v2.208c6.304 0.224 6.944 4 7.392 6.784 0.224 1.312 0.416 2.464 1.088 2.88 0.448 0.192 1.12 0.704 1.12 1.696 0 1.376-0.96 1.376-1.344 1.376h-17.632c-0.352 0-1.344 0-1.344-1.376 0-0.992 0.672-1.504 1.12-1.696 0.704-0.416 0.864-1.568 1.088-2.88 0.48-2.784 1.12-6.56 7.392-6.784v-2.208c0-1.824 1.76-3.328 3.872-3.328h7.2c2.144 0 3.872 1.76 3.872 3.872zM13.376 7.712c-5.888 0-6.4 2.976-6.88 5.856-0.256 1.536-0.48 3.008-1.664 3.68-0.032 0-0.064 0.032-0.096 0.032-0.064 0.032-0.416 0.192-0.416 0.672 0 0.128 0 0.224 0 0.256 0.064 0 0.16 0 0.224 0h17.632c0.064 0 0.16 0 0.224 0 0-0.032 0.032-0.128 0.032-0.256 0-0.48-0.352-0.64-0.448-0.672-0.032 0-0.064-0.032-0.096-0.032-1.152-0.672-1.408-2.144-1.664-3.68-0.48-2.88-0.96-5.856-6.848-5.856zM8.928 24.288c-0.288 0-0.544 0.256-0.544 0.576v1.632c0 0.32 0.256 0.576 0.544 0.576 0.32 0 0.576-0.256 0.576-0.576v-1.632c0-0.32-0.256-0.576-0.576-0.576zM8.928 20.416c-0.288 0-0.544 0.256-0.544 0.544v1.664c0 0.32 0.256 0.576 0.544 0.576 0.32 0 0.576-0.256 0.576-0.576v-1.664c0-0.288-0.256-0.544-0.576-0.544zM8.928 28.16c-0.288 0-0.544 0.256-0.544 0.576v1.632c0 0.32 0.256 0.576 0.544 0.576 0.32 0 0.576-0.256 0.576-0.576v-1.632c0-0.32-0.256-0.576-0.576-0.576zM13.376 24.288c-0.32 0-0.576 0.256-0.576 0.576v1.632c0 0.32 0.256 0.576 0.576 0.576 0.288 0 0.544-0.256 0.544-0.576v-1.632c0-0.32-0.256-0.576-0.544-0.576zM13.376 28.16c-0.32 0-0.576 0.256-0.576 0.576v1.632c0 0.32 0.256 0.576 0.576 0.576 0.288 0 0.544-0.256 0.544-0.576v-1.632c0-0.32-0.256-0.576-0.544-0.576zM13.376 20.416c-0.32 0-0.576 0.256-0.576 0.544v1.664c0 0.32 0.256 0.576 0.576 0.576 0.288 0 0.544-0.256 0.544-0.576v-1.664c0-0.288-0.256-0.544-0.544-0.544zM17.792 20.416c-0.32 0-0.544 0.256-0.544 0.544v1.664c0 0.32 0.224 0.576 0.544 0.576s0.544-0.256 0.544-0.576v-1.664c0-0.288-0.224-0.544-0.544-0.544zM17.792 28.16c-0.32 0-0.544 0.256-0.544 0.576v1.632c0 0.32 0.224 0.576 0.544 0.576s0.544-0.256 0.544-0.576v-1.632c0-0.32-0.224-0.576-0.544-0.576zM17.792 24.288c-0.32 0-0.544 0.256-0.544 0.576v1.632c0 0.32 0.224 0.576 0.544 0.576s0.544-0.256 0.544-0.576v-1.632c0-0.32-0.224-0.576-0.544-0.576z"></path>
</svg>
