<?xml version="1.0" encoding="utf-8"?>
<!-- Generated by IcoMoon.io -->
<!DOCTYPE svg PUBLIC "-//W3C//DTD SVG 1.1//EN" "http://www.w3.org/Graphics/SVG/1.1/DTD/svg11.dtd">
<svg version="1.1" xmlns="http://www.w3.org/2000/svg" xmlns:xlink="http://www.w3.org/1999/xlink" width="32" height="32" viewBox="0 0 32 32">
<path d="M29.495 24.255c-0.027 0-0.048-0.001-0.061-0.001h-1.363c-0.004 0-0.009 0-0.014 0h-1.729c-0.004 0-0.009 0-0.014 0h-4.52c-0.205 0-0.371-0.166-0.371-0.371s0.166-0.371 0.371-0.371h3.884l-2.998-5.195c-0.497 0.232-0.963 0.529-1.387 0.888l-2.155 1.828c-0.716 0.607-1.627 0.942-2.566 0.942h-1.457c-0.181 1.287-1.289 2.279-2.625 2.279h-8.943c-1.462 0-2.651-1.189-2.651-2.651v-3.086h-0.526c-0.205 0-0.371-0.166-0.371-0.371s0.166-0.371 0.371-0.371h0.526v-1.17c0-1.012 0.823-1.835 1.835-1.835h11.024c1.848 0 3.050-1.062 3.711-1.9l-1.198-0.817h-1.81c-0.205 0-0.371-0.166-0.371-0.371s0.166-0.371 0.371-0.371h1.925c0.075 0 0.148 0.022 0.209 0.065l1.296 0.884c0.070-0.117 0.122-0.213 0.157-0.281l-0.93-3.772c-0.040-0.159 0.031-0.326 0.172-0.409s0.321-0.063 0.441 0.048l4.944 4.604c0.157 0.048 0.319 0.099 0.485 0.153 3.099 1.006 5.225 4.424 5.314 4.569 0.070 0.114 0.073 0.258 0.008 0.375s-0.189 0.19-0.324 0.19h-2.864c-0.121 0-0.241 0.003-0.361 0.011l3.346 5.764h1.166c0.008 0 0.016 0 0.025 0.001 0.039 0.001 1.018 0.043 1.891-0.88 0.141-0.149 0.376-0.156 0.525-0.015s0.156 0.376 0.015 0.525c-0.981 1.038-2.101 1.113-2.403 1.113zM26.536 23.511h0.883l-3.288-5.664c-0.255 0.049-0.505 0.113-0.752 0.194zM3.548 19.649c-1.052 0-1.908 0.856-1.908 1.908v0.046c0 1.052 0.856 1.908 1.908 1.908h8.943c1.052 0 1.908-0.856 1.908-1.908v-0.046c0-1.052-0.856-1.908-1.908-1.908h-8.943zM16.384 21.231h0.189c0.763 0 1.504-0.272 2.085-0.765l2.155-1.828c1.25-1.060 2.84-1.644 4.478-1.644h2.158c-0.196-0.268-0.462-0.61-0.787-0.979h-2.489c-0.321 0-0.629-0.152-0.826-0.405l-0.871-1.124c-0.087-0.112-0.102-0.264-0.040-0.391s0.192-0.208 0.333-0.208h1.415c-0.397-0.235-0.817-0.435-1.256-0.578-0.189-0.061-0.371-0.118-0.549-0.172-0.003-0.001-0.006-0.002-0.009-0.003-1.959-0.589-3.224-0.712-3.705-0.738-0.298 0.563-1.194 2.002-2.865 2.709-0.26 0.57-1.343 2.076-5.519 2.076h-8.643v0.592h11.075c1.953 0 3.556 1.532 3.669 3.457zM15.122 21.231h0.518c-0.112-1.515-1.381-2.714-2.925-2.714h-11.075v1.202c0.482-0.501 1.159-0.813 1.908-0.813h8.943c1.351 0 2.47 1.017 2.631 2.325zM1.653 16.439h8.63c2.432 0 3.663-0.52 4.278-0.986-0.255 0.038-0.523 0.058-0.805 0.058h-11.024c-0.546 0-1 0.403-1.080 0.927zM23.528 14.629l0.407 0.526c0.057 0.073 0.146 0.117 0.238 0.117h1.785c-0.229-0.223-0.475-0.445-0.737-0.658-0.033 0.010-0.068 0.015-0.104 0.015h-1.59zM18.732 11.656c0.406 0.022 1.216 0.102 2.407 0.38l-3.003-2.797zM12.44 23.084c-0.853 0-1.546-0.694-1.546-1.546s0.694-1.546 1.546-1.546c0.853 0 1.546 0.694 1.546 1.546s-0.694 1.546-1.546 1.546zM12.44 20.733c-0.443 0-0.804 0.361-0.804 0.804s0.361 0.804 0.804 0.804c0.443 0 0.804-0.361 0.804-0.804s-0.361-0.804-0.804-0.804zM8.020 23.084c-0.853 0-1.546-0.694-1.546-1.546s0.694-1.546 1.546-1.546 1.546 0.694 1.546 1.546-0.694 1.546-1.546 1.546zM8.020 20.733c-0.443 0-0.804 0.361-0.804 0.804s0.361 0.804 0.804 0.804c0.443 0 0.804-0.361 0.804-0.804s-0.361-0.804-0.804-0.804zM3.668 23.084c-0.853 0-1.546-0.694-1.546-1.546s0.694-1.546 1.546-1.546 1.546 0.694 1.546 1.546-0.694 1.546-1.546 1.546zM3.668 20.733c-0.443 0-0.804 0.361-0.804 0.804s0.361 0.804 0.804 0.804 0.804-0.361 0.804-0.804-0.36-0.804-0.804-0.804z"></path>
</svg>
