<?xml version="1.0" encoding="utf-8"?>
<!-- Generated by IcoMoon.io -->
<!DOCTYPE svg PUBLIC "-//W3C//DTD SVG 1.1//EN" "http://www.w3.org/Graphics/SVG/1.1/DTD/svg11.dtd">
<svg version="1.1" xmlns="http://www.w3.org/2000/svg" xmlns:xlink="http://www.w3.org/1999/xlink" width="32" height="32" viewBox="0 0 32 32">
<path d="M10.805 11.195c-0.161 0.161-0.161 0.422 0 0.583 0.080 0.080 0.186 0.121 0.291 0.121s0.211-0.041 0.291-0.121c0.995-0.995 0.466-1.926 0.080-2.606-0.39-0.687-0.556-1.037-0.080-1.513 0.161-0.161 0.161-0.422 0-0.582-0.161-0.161-0.422-0.161-0.582 0-0.942 0.941-0.428 1.844-0.053 2.503 0.407 0.718 0.58 1.087 0.053 1.614 0 0 0 0 0 0M13.647 11.195c-0.161 0.161-0.161 0.422 0 0.583 0.081 0.080 0.186 0.121 0.291 0.121s0.211-0.041 0.291-0.121c1.388-1.389 0.667-2.658 0.087-3.678-0.606-1.067-0.91-1.711-0.087-2.533 0.161-0.161 0.161-0.422 0-0.582-0.161-0.161-0.422-0.161-0.582 0-1.307 1.307-0.607 2.535-0.046 3.524 0.631 1.113 0.946 1.786 0.046 2.686 0 0 0 0 0 0M16.506 11.195c-0.16 0.161-0.16 0.422 0 0.583 0.081 0.080 0.187 0.121 0.291 0.121s0.211-0.041 0.291-0.121c0.995-0.995 0.467-1.926 0.080-2.606-0.389-0.687-0.556-1.037-0.079-1.513 0.16-0.161 0.16-0.422 0-0.582-0.161-0.161-0.422-0.161-0.583 0-0.941 0.941-0.428 1.844-0.053 2.503 0.409 0.718 0.582 1.087 0.053 1.614 0 0 0 0 0 0M3.265 17.566c0.684 2.17 2.275 4.015 4.155 4.816 0.052 0.022 0.108 0.033 0.161 0.033 0.16 0 0.313-0.095 0.379-0.251 0.090-0.209-0.007-0.45-0.218-0.54-1.663-0.71-3.077-2.361-3.691-4.306-0.068-0.218-0.3-0.338-0.516-0.27-0.218 0.069-0.338 0.301-0.27 0.517 0 0 0 0 0 0M31.947 10.245c0 0-0.865-1.31-0.865-1.31-0.061-0.091-0.155-0.155-0.261-0.177s-0.219 0-0.309 0.060c0 0-2.719 1.795-2.719 1.795-0.267 0.177-0.449 0.446-0.512 0.759-0.033 0.162-0.030 0.325 0.003 0.483 0 0-3.887 2.51-3.887 2.51-0.001 0-0.001 0.001-0.002 0.001 0 0-22.967 0-22.967 0-0.227 0.001-0.412 0.185-0.412 0.412 0 2.531 0.994 5.156 2.727 7.203 1.703 2.011 3.862 3.172 6.129 3.332 0 0 0 1.382 0 1.382 0 0.228 0.185 0.413 0.412 0.413 0 0 9.363 0 9.363 0 0.227 0 0.413-0.185 0.413-0.413 0 0 0-1.382 0-1.382 2.267-0.16 4.426-1.322 6.128-3.332 1.733-2.047 2.727-4.672 2.727-7.203 0-0.227-0.185-0.412-0.412-0.412 0 0-2.589 0-2.589 0s2.809-1.815 2.809-1.815c0.207 0.161 0.461 0.258 0.731 0.258 0.236 0 0.463-0.068 0.659-0.198 0 0 2.718-1.796 2.718-1.796 0.189-0.124 0.242-0.38 0.116-0.57 0 0 0 0 0 0M18.234 26.286c0 0-8.539 0-8.539 0s0-0.939 0-0.939c0 0 8.539 0 8.539 0s0 0.939 0 0.939c0 0 0 0 0 0M27.080 15.192c-0.208 4.489-3.799 9.331-8.556 9.331 0 0-9.119 0-9.119 0-4.756 0-8.347-4.842-8.556-9.331 0 0 26.23 0 26.23 0s0 0 0 0M28.659 11.924c-0.062 0.041-0.132 0.063-0.205 0.063-0.125 0-0.242-0.063-0.311-0.167-0.055-0.083-0.074-0.182-0.054-0.281s0.076-0.181 0.159-0.237c0 0 2.375-1.569 2.375-1.569s0.411 0.622 0.411 0.622c0 0-2.374 1.569-2.374 1.569s0 0 0 0"></path>
</svg>
