<?xml version="1.0" encoding="utf-8"?>
<!-- Generated by IcoMoon.io -->
<!DOCTYPE svg PUBLIC "-//W3C//DTD SVG 1.1//EN" "http://www.w3.org/Graphics/SVG/1.1/DTD/svg11.dtd">
<svg version="1.1" xmlns="http://www.w3.org/2000/svg" xmlns:xlink="http://www.w3.org/1999/xlink" width="32" height="32" viewBox="0 0 32 32">
<path d="M27.5 0c0.276 0 0.5 0.224 0.5 0.5v31c0 0.276-0.224 0.5-0.5 0.5h-23c-0.276 0-0.5-0.224-0.5-0.5v-31c0-0.276 0.224-0.5 0.5-0.5h23zM17.25 4.958c0-0.113-0.018-0.226-0.052-0.333h-2.396c-0.034 0.108-0.052 0.221-0.052 0.333 0 0.644 0.56 1.167 1.25 1.167s1.25-0.524 1.25-1.167zM12.72 3.515h6.561v-2.5h-6.561v2.5zM11.72 1h-6.72v14.122h6.026c0.251-2.523 2.386-4.5 4.974-4.5s4.723 1.977 4.974 4.5h6.026v-14.122h-6.719v3.015c0 0.276-0.224 0.5-0.5 0.5h-1.584c0.032 0.146 0.052 0.293 0.052 0.443 0 1.195-1.010 2.167-2.25 2.167s-2.25-0.972-2.25-2.167c0-0.149 0.021-0.298 0.053-0.443h-1.583c-0.277 0-0.5-0.224-0.5-0.5v-3.015zM12.034 15.122h7.931c-0.247-1.97-1.93-3.5-3.966-3.5s-3.718 1.53-3.966 3.5zM19.965 16.122h-7.931c0.248 1.97 1.93 3.5 3.966 3.5s3.718-1.53 3.966-3.5zM14.75 26.916c0 0.113 0.018 0.226 0.053 0.334h2.396c0.035-0.108 0.052-0.221 0.052-0.334 0-0.643-0.561-1.166-1.25-1.166s-1.25 0.523-1.25 1.166zM19.281 28.36h-6.561v2.5h6.561v-2.5zM20.281 31h6.719v-14.878h-6.026c-0.251 2.523-2.386 4.5-4.974 4.5s-4.723-1.977-4.974-4.5h-6.026v14.878h6.719v-3.14c0-0.276 0.223-0.5 0.5-0.5h1.583c-0.031-0.145-0.053-0.293-0.053-0.443 0-1.195 1.009-2.166 2.25-2.166s2.25 0.972 2.25 2.166c0 0.15-0.021 0.297-0.052 0.443h1.584c0.276 0 0.5 0.224 0.5 0.5v3.14z"></path>
</svg>
