<?xml version="1.0" encoding="utf-8"?>
<!-- Generated by IcoMoon.io -->
<!DOCTYPE svg PUBLIC "-//W3C//DTD SVG 1.1//EN" "http://www.w3.org/Graphics/SVG/1.1/DTD/svg11.dtd">
<svg version="1.1" xmlns="http://www.w3.org/2000/svg" xmlns:xlink="http://www.w3.org/1999/xlink" width="32" height="32" viewBox="0 0 32 32">
<path d="M25.952 21.408c-2.016-0.896-3.584-1.408-6.24-2.016-0.096 0-0.192-0.032-0.32-0.032-0.032 0-1.28 0.032-1.696 0.672l-1.312 2.048c-0.128 0.192-0.384 0.224-0.512 0.224-0.288 0-0.64-0.128-0.96-0.352-1.088-0.8-2.144-1.728-3.232-2.752-1.024-1.088-1.984-2.176-2.784-3.264-0.288-0.448-0.352-0.864-0.32-1.152 0.032-0.096 0.064-0.224 0.192-0.32l2.048-1.28c0.608-0.384 0.736-1.632 0.64-2.048-0.576-2.176-1.376-4.448-2.016-6.208-0.224-0.608-1.216-0.928-1.888-0.928-0.192 0-0.384 0.032-0.544 0.096-1.792 0.672-3.36 1.728-4.736 3.072-0.352 0.352-0.704 0.736-1.056 1.216l-0.128 0.16v0.224c-0.128 5.12 2.176 10.432 6.304 14.56l0.096 0.128c4.032 4.032 9.216 6.336 14.24 6.336h0.576l0.16-0.128c0.448-0.352 0.864-0.704 1.248-1.088 1.344-1.344 2.368-2.944 3.040-4.704 0.32-0.768-0.16-2.176-0.8-2.464zM25.6 23.392c-0.64 1.632-1.568 3.072-2.784 4.288-0.288 0.288-0.608 0.576-0.96 0.864h-0.128c-4.672 0-9.536-2.208-13.344-5.984l-0.032-0.032-0.032-0.064c-3.808-3.808-6.048-8.8-5.984-13.472 0.288-0.352 0.544-0.672 0.832-0.96 1.248-1.216 2.688-2.144 4.384-2.784 0.288 0 0.608 0.128 0.768 0.224 0.608 1.696 1.376 3.904 1.92 5.952 0 0.16-0.064 0.64-0.096 0.704l-2.048 1.28c-0.384 0.256-0.64 0.64-0.736 1.152-0.128 0.672 0.064 1.44 0.544 2.112 0.832 1.152 1.792 2.272 2.88 3.392 1.12 1.12 2.24 2.048 3.392 2.912 1.152 0.8 2.688 0.704 3.264-0.224l1.248-1.984c0.064-0.032 0.384-0.096 0.736-0.128 2.56 0.576 4.096 1.056 5.92 1.888 0.16 0.128 0.32 0.704 0.256 0.864zM24.512 6.24c-0.192 0-0.352 0.064-0.512 0.192-0.128 0.128-0.288 0.32-0.512 0.608l-3.2 4.288c-0.096 0.128-0.16 0.224-0.224 0.32-0.064 0.064-0.128 0.16-0.16 0.224-0.064 0.096-0.128 0.192-0.128 0.256s-0.064 0.16-0.064 0.224c0 0.32 0.096 0.544 0.288 0.736 0.192 0.16 0.48 0.256 0.864 0.256h3.040v1.12c0 0.288 0.064 0.512 0.224 0.672 0.128 0.16 0.32 0.256 0.544 0.256s0.416-0.096 0.544-0.256c0.128-0.128 0.192-0.352 0.192-0.672v-1.12h0.384c0.32 0 0.544-0.064 0.672-0.16 0.16-0.128 0.256-0.288 0.256-0.512 0-0.288-0.096-0.48-0.288-0.576-0.192-0.064-0.448-0.128-0.736-0.128h-0.288v-4.672c0-0.704-0.288-1.056-0.896-1.056zM23.904 11.968h-2.592l2.592-3.52v3.52zM17.888 0c-2.336 0-4.64 0.608-6.656 1.792-0.288 0.192-0.384 0.576-0.192 0.864 0.16 0.32 0.544 0.416 0.832 0.224 1.824-1.056 3.904-1.632 6.016-1.632 6.496 0 11.776 5.312 11.776 11.808 0 2.048-0.512 4.096-1.536 5.856-0.192 0.32-0.064 0.704 0.224 0.864 0.096 0.064 0.192 0.096 0.32 0.096 0.224 0 0.416-0.128 0.544-0.32 1.12-1.984 1.728-4.224 1.728-6.496 0-7.2-5.856-13.056-13.056-13.056zM17.248 10.336c-0.224 0.224-0.512 0.448-0.832 0.704-0.192 0.128-0.512 0.384-0.928 0.768-0.448 0.416-0.928 0.864-1.472 1.44-0.128 0.128-0.224 0.32-0.352 0.544s-0.16 0.448-0.16 0.608c0 0.224 0.096 0.416 0.256 0.576s0.416 0.256 0.704 0.256h4.448c0.288 0 0.48-0.064 0.608-0.224 0.128-0.128 0.192-0.288 0.192-0.48 0-0.224-0.064-0.416-0.256-0.544-0.16-0.128-0.384-0.192-0.704-0.192h-3.168c0.096-0.16 0.224-0.288 0.32-0.384 0.224-0.288 0.64-0.672 1.248-1.152 0.608-0.512 1.024-0.864 1.28-1.088 0.256-0.256 0.512-0.576 0.768-0.96 0.256-0.416 0.352-0.864 0.352-1.376 0-0.32-0.032-0.64-0.16-0.928s-0.288-0.544-0.512-0.768c-0.192-0.224-0.448-0.416-0.736-0.544-0.448-0.192-0.96-0.288-1.568-0.288-0.512 0-0.96 0.064-1.344 0.224s-0.704 0.352-0.96 0.608c-0.224 0.224-0.416 0.512-0.544 0.8-0.128 0.32-0.192 0.608-0.192 0.896 0 0.224 0.064 0.384 0.192 0.544 0.128 0.128 0.32 0.192 0.512 0.192 0.224 0 0.416-0.064 0.512-0.224 0.128-0.128 0.224-0.352 0.32-0.608 0.096-0.288 0.16-0.448 0.224-0.512 0.288-0.448 0.704-0.704 1.248-0.704 0.224 0 0.48 0.064 0.672 0.192s0.384 0.256 0.512 0.448c0.128 0.224 0.192 0.448 0.192 0.704s-0.064 0.48-0.192 0.736c-0.096 0.256-0.288 0.48-0.48 0.736z"></path>
</svg>
