<?xml version="1.0" encoding="utf-8"?>
<!-- Generated by IcoMoon.io -->
<!DOCTYPE svg PUBLIC "-//W3C//DTD SVG 1.1//EN" "http://www.w3.org/Graphics/SVG/1.1/DTD/svg11.dtd">
<svg version="1.1" xmlns="http://www.w3.org/2000/svg" xmlns:xlink="http://www.w3.org/1999/xlink" width="32" height="32" viewBox="0 0 32 32">
<path d="M13.288 30.281c-0.16 0-0.312-0.093-0.38-0.249l-2.255-5.19c-4.006 0.785-8.106-1.483-9.85-5.496-2.013-4.632-0.111-9.938 4.238-11.828 2.111-0.918 4.477-0.903 6.659 0.042 1.227 0.531 2.314 1.321 3.203 2.311 0.037-0.192 0.079-0.382 0.128-0.569 0.454-1.774 1.373-3.346 2.667-4.571-0.235-0.314-0.375-0.705-0.375-1.127 0-1.039 0.845-1.884 1.884-1.884 0.74 0 1.382 0.429 1.69 1.052 1.544-0.538 3.173-0.611 4.739-0.21 4.594 1.176 7.313 6.114 6.060 11.007-1.086 4.239-4.78 7.123-8.853 6.988l-1.404 5.482c-0.057 0.221-0.282 0.355-0.503 0.298l-2.604-0.667c-0.221-0.057-0.355-0.282-0.298-0.503l1.404-5.483c-0.811-0.411-1.557-0.964-2.202-1.63-0.401 2.144-1.558 4.084-3.357 5.386l2.255 5.191c0.044 0.101 0.046 0.214 0.006 0.317s-0.119 0.184-0.22 0.228l-2.465 1.071c-0.054 0.023-0.11 0.034-0.165 0.034zM10.798 23.097l2.705 6.226 1.706-0.741-2.215-5.098c-0.004-0.008-0.008-0.016-0.011-0.024l-0.479-1.103zM18.937 24.971l1.802 0.462 1.382-5.397c0.001-0.005 0.002-0.009 0.003-0.014l0.299-1.165-1.802-0.462zM6.134 23.581c1.312 0.541 2.751 0.725 4.18 0.482l-0.441-1.015c-0.091-0.209 0.005-0.453 0.215-0.544l2.465-1.071c0.036-0.016 0.073-0.026 0.111-0.031 0.179-0.024 0.359 0.072 0.434 0.245l0.441 1.015c1.154-0.879 2-2.057 2.499-3.384zM8.293 7.668c-0.999 0-1.988 0.203-2.922 0.608-3.931 1.708-5.64 6.526-3.809 10.74 0.777 1.788 2.064 3.196 3.6 4.085l11.189-4.862c0.083-0.362 0.143-0.732 0.177-1.107-0.003-0.028-0.004-0.057-0.002-0.086 0.101-1.2-0.055-2.425-0.454-3.581-0.075-0.216-0.159-0.432-0.252-0.645v0c-0.078-0.18-0.162-0.357-0.251-0.529-0.211-0.409-0.454-0.802-0.726-1.175-0.010-0.013-0.018-0.027-0.026-0.041-0.891-1.21-2.072-2.162-3.446-2.756-1.002-0.434-2.046-0.651-3.079-0.651zM23.052 19.733c0.024 0 0.047 0 0.071 0 1.425 0 2.791-0.409 3.981-1.139l-9.715-2.488c0.008 0.286 0.002 0.572-0.017 0.855 0.634 0.784 1.411 1.432 2.276 1.899l0.274-1.071c0.001-0.003 0.002-0.006 0.003-0.010l0-0c0.027-0.096 0.087-0.175 0.163-0.228h0c0-0 0-0 0.001-0.001s0.001-0 0.001-0c0.007-0.005 0.015-0.010 0.022-0.014s0.015-0.009 0.023-0.012c0 0 0-0 0-0 0.085-0.043 0.184-0.058 0.283-0.034 0.003 0 0.005 0.001 0.007 0.002l2.604 0.667c0.028 0.007 0.056 0.017 0.081 0.030 0.071 0.035 0.131 0.090 0.172 0.16 0.056 0.094 0.072 0.207 0.045 0.313zM17.326 15.237l10.662 2.73c1.376-1.121 2.423-2.716 2.906-4.604 1.14-4.451-1.311-8.937-5.464-10-1.432-0.367-2.925-0.291-4.337 0.217l0 0.025c0 1.039-0.845 1.884-1.884 1.884-0.255 0-0.507-0.053-0.74-0.152-0.047-0.020-0.093-0.042-0.139-0.066-1.214 1.126-2.075 2.584-2.498 4.236-0.104 0.405-0.18 0.824-0.226 1.247 0.26 0.37 0.496 0.761 0.706 1.171 0.095 0.186 0.185 0.375 0.268 0.566 0.097 0.223 0.186 0.45 0.265 0.679 0.239 0.682 0.398 1.376 0.48 2.067zM18.649 4.5c0.162 0.101 0.353 0.159 0.557 0.159 0.582 0 1.056-0.474 1.056-1.056s-0.474-1.056-1.056-1.056c-0.583 0-1.056 0.474-1.056 1.056 0 0.327 0.149 0.62 0.383 0.813 0.006 0.004 0.011 0.008 0.016 0.013 0.032 0.026 0.066 0.050 0.1 0.071zM10.161 12.225c-1.039 0-1.884-0.845-1.884-1.884s0.845-1.884 1.884-1.884 1.884 0.845 1.884 1.884-0.845 1.884-1.884 1.884zM10.161 9.285c-0.583 0-1.056 0.474-1.056 1.056s0.474 1.056 1.056 1.056 1.056-0.474 1.056-1.056-0.474-1.056-1.056-1.056z"></path>
</svg>
