<?xml version="1.0" encoding="utf-8"?>
<!-- Generated by IcoMoon.io -->
<!DOCTYPE svg PUBLIC "-//W3C//DTD SVG 1.1//EN" "http://www.w3.org/Graphics/SVG/1.1/DTD/svg11.dtd">
<svg version="1.1" xmlns="http://www.w3.org/2000/svg" xmlns:xlink="http://www.w3.org/1999/xlink" width="32" height="32" viewBox="0 0 32 32">
<path d="M11.808 3.328c0.288 0.128 0.608 0 0.768-0.256l0.864-1.76c0.032-0.096 0.224-0.192 0.32-0.192h4.48c0.096 0 0.288 0.096 0.32 0.192l0.864 1.76c0.128 0.192 0.32 0.32 0.512 0.32 0.096 0 0.192-0.032 0.256-0.064 0.288-0.16 0.384-0.48 0.256-0.768l-0.864-1.76c-0.256-0.448-0.8-0.8-1.344-0.8h-4.48c-0.544 0-1.088 0.352-1.344 0.8l-0.864 1.76c-0.128 0.288-0.032 0.608 0.256 0.768zM19.936 15.776h-7.872c-0.64 0-1.184 0.256-1.504 0.704s-0.384 1.024-0.192 1.632l0.608 1.856c0.384 1.12 1.6 1.984 2.784 1.984h4.48c1.184 0 2.4-0.864 2.784-1.984l0.608-1.856c0.192-0.608 0.128-1.184-0.192-1.632s-0.864-0.704-1.504-0.704zM20.576 17.76l-0.64 1.856c-0.224 0.64-0.992 1.216-1.696 1.216h-4.48c-0.704 0-1.472-0.576-1.696-1.216l-0.64-1.856c-0.064-0.256-0.064-0.48 0.064-0.64 0.096-0.16 0.32-0.224 0.576-0.224h7.872c0.256 0 0.48 0.064 0.576 0.224 0.128 0.16 0.128 0.384 0.064 0.64zM28.928 12.224c0-0.256-0.064-0.48-0.16-0.704l-1.952-4.672c-0.864-2.144-3.264-2.912-5.184-2.912h-10.656c-1.92 0-4.288 0.768-5.184 2.88l-1.952 4.48c-0.064 0.224-0.128 0.448-0.16 0.672-1.664 0.48-2.752 2.048-2.592 3.84l0.544 6.784c0.064 0.768 0.288 1.504 0.864 2.144v2.848c0 0.928 0.736 1.696 1.696 1.696h2.784c0.96 0 1.696-0.768 1.696-1.696v-2.24h14.656v2.24c0 0.928 0.736 1.696 1.696 1.696h2.816c0.928 0 1.664-0.768 1.664-1.696v-2.848c0.512-0.64 0.8-1.376 0.864-2.144l0.544-6.784c0.128-1.536-0.64-2.944-1.984-3.584zM6.816 7.264c0.704-1.632 2.624-2.208 4.16-2.208h10.656c1.568 0 3.488 0.576 4.16 2.208l1.536 3.712c0 0 0 0.032 0 0.032-0.32 0.608-1.696 0.8-2.304 0.8h-17.472c0 0-1.696 0-2.208-1.12l1.472-3.424zM29.792 15.712l-0.544 6.784c-0.064 0.608-0.32 1.216-0.736 1.696-0.128 0.128-0.16 0.32-0.128 0.48 0 0.032 0 0.064 0 0.096v2.816c0 0.32-0.256 0.576-0.544 0.576h-2.816c-0.32 0-0.576-0.256-0.576-0.576v-2.816c0-0.32-0.256-0.544-0.576-0.544h-15.744c-0.32 0-0.576 0.224-0.576 0.544v2.816c0 0.32-0.256 0.576-0.544 0.576h-2.816c-0.32 0-0.576-0.256-0.576-0.576v-2.816c0-0.032 0-0.064 0-0.096 0.032-0.16 0-0.352-0.128-0.48-0.416-0.512-0.672-1.088-0.704-1.696l-0.576-6.784c-0.128-1.376 0.8-2.528 2.144-2.72 0.288-0.064 0.512-0.352 0.448-0.64 0-0.16 0-0.32 0.032-0.448 1.024 1.024 2.624 1.056 2.72 1.056h17.44c0.224 0 1.856-0.032 2.816-0.8 0 0.096 0 0.224 0 0.352-0.032 0.256 0.128 0.512 0.352 0.608 1.088 0.384 1.728 1.408 1.632 2.592zM6.144 15.2c-1.408 0-2.528 1.152-2.528 2.528 0 1.408 1.12 2.528 2.528 2.528s2.528-1.12 2.528-2.528c0-1.376-1.12-2.528-2.528-2.528zM6.144 19.136c-0.768 0-1.408-0.64-1.408-1.408s0.64-1.408 1.408-1.408 1.408 0.64 1.408 1.408c0 0.768-0.64 1.408-1.408 1.408zM25.856 15.2c-1.408 0-2.528 1.152-2.528 2.528 0 1.408 1.12 2.528 2.528 2.528s2.528-1.12 2.528-2.528c0-1.376-1.12-2.528-2.528-2.528zM25.856 19.136c-0.768 0-1.408-0.64-1.408-1.408s0.64-1.408 1.408-1.408 1.408 0.64 1.408 1.408c0 0.768-0.64 1.408-1.408 1.408z"></path>
</svg>
