<?xml version="1.0" encoding="utf-8"?>
<!-- Generated by IcoMoon.io -->
<!DOCTYPE svg PUBLIC "-//W3C//DTD SVG 1.1//EN" "http://www.w3.org/Graphics/SVG/1.1/DTD/svg11.dtd">
<svg version="1.1" xmlns="http://www.w3.org/2000/svg" xmlns:xlink="http://www.w3.org/1999/xlink" width="32" height="32" viewBox="0 0 32 32">
<path d="M29.632 20.512l-7.84-3.872c-0.096-0.032-0.192-0.032-0.256-0.032v-9.408c0-2.72-2.080-4.736-4.992-4.96v-1.696c0-0.288-0.224-0.544-0.544-0.544s-0.544 0.256-0.544 0.544v1.696c-2.912 0.224-4.992 2.24-4.992 4.96v9.408c-0.064 0-0.16 0-0.224 0.032l-7.872 3.872c-0.736 0.352-1.312 1.28-1.312 2.080v5.632c0 0.896 0.768 1.632 1.664 1.632h26.56c0.896 0 1.664-0.736 1.664-1.632v-5.632c0-0.8-0.576-1.728-1.312-2.080zM16 3.328c2.336 0 4.096 1.344 4.384 3.296h-8.768c0.288-1.952 2.048-3.296 4.384-3.296zM11.584 7.744h8.832v11.008l-4.16-2.112c-0.16-0.064-0.352-0.064-0.512 0l-4.16 2.112v-11.008zM9.376 28.768h-6.656c-0.288 0-0.544-0.256-0.544-0.544v-4.992h7.2v5.536zM9.376 22.112h-7.072c0.128-0.256 0.32-0.512 0.544-0.608l7.616-3.744v1.536l-1.344 0.672c-0.288 0.128-0.384 0.48-0.256 0.736 0.096 0.192 0.288 0.32 0.512 0.32v1.088zM17.12 28.768h-2.24v-3.328c0-0.288 0.256-0.544 0.576-0.544h1.088c0.32 0 0.576 0.224 0.576 0.544v3.328zM21.536 28.768h-3.328v-3.328c0-0.928-0.736-1.664-1.664-1.664h-1.088c-0.928 0-1.664 0.736-1.664 1.664v3.328h-3.328v-8.256l5.536-2.752 5.536 2.752v8.256zM21.536 17.76l7.616 3.744c0.224 0.096 0.416 0.352 0.544 0.608h-7.072v-1.088c0.224 0 0.416-0.128 0.512-0.32 0.128-0.256 0.032-0.608-0.256-0.736l-1.344-0.672v-1.536zM29.824 28.224c0 0.288-0.256 0.544-0.544 0.544h-6.656v-5.536h7.2v4.992zM18.208 12.16c0-1.216-0.992-2.208-2.208-2.208s-2.208 0.992-2.208 2.208c0 1.216 0.992 2.208 2.208 2.208s2.208-0.992 2.208-2.208zM14.88 12.16c0-0.608 0.512-1.088 1.12-1.088s1.12 0.48 1.12 1.088c0 0.608-0.512 1.12-1.12 1.12s-1.12-0.512-1.12-1.12z"></path>
</svg>
