<?xml version="1.0" encoding="utf-8"?>
<!-- Generated by IcoMoon.io -->
<!DOCTYPE svg PUBLIC "-//W3C//DTD SVG 1.1//EN" "http://www.w3.org/Graphics/SVG/1.1/DTD/svg11.dtd">
<svg version="1.1" xmlns="http://www.w3.org/2000/svg" xmlns:xlink="http://www.w3.org/1999/xlink" width="32" height="32" viewBox="0 0 32 32">
<path d="M2.037 32c-0.502 0-1.003-0.191-1.385-0.573l-0.076-0.075c-0.764-0.764-0.764-2.007 0-2.77l4.282-4.282c2.374-2.374 3.905-5.517 4.312-8.85l0.058-0.476c0.056-0.462 0.064-0.96 0.025-1.524-0.244-3.489 1.132-7.005 3.774-9.647 2.262-2.262 5.176-3.606 8.204-3.782 3.044-0.177 5.843 0.844 7.876 2.877 4.184 4.184 3.777 11.397-0.906 16.080v0c-2.642 2.642-6.159 4.017-9.647 3.774-0.564-0.039-1.063-0.031-1.524 0.025l-0.475 0.058c-3.333 0.406-6.476 1.938-8.851 4.312l-4.282 4.282c-0.382 0.382-0.883 0.573-1.385 0.573zM21.906 0.822c-0.208 0-0.417 0.006-0.628 0.018-2.827 0.165-5.551 1.424-7.67 3.543-2.474 2.474-3.762 5.757-3.535 9.008 0.043 0.617 0.033 1.167-0.029 1.681l-0.058 0.476c-0.428 3.515-2.043 6.829-4.546 9.332l-4.282 4.282c-0.443 0.443-0.443 1.164 0 1.608l0.075 0.075c0.443 0.443 1.164 0.443 1.608 0l4.282-4.282c2.503-2.503 5.818-4.118 9.332-4.547l0.476-0.058c0.515-0.063 1.065-0.072 1.681-0.029 3.253 0.228 6.535-1.062 9.008-3.535 4.362-4.363 4.769-11.054 0.906-14.917-1.725-1.725-4.056-2.656-6.619-2.656zM19.952 31.606c-1.906 0-3.456-1.55-3.456-3.456s1.55-3.456 3.456-3.456 3.456 1.55 3.456 3.456c0 1.661-1.178 3.052-2.742 3.382-0.124 0.032-0.226 0.043-0.282 0.047-0.141 0.018-0.285 0.027-0.432 0.027zM18.731 25.817c-0.839 0.441-1.413 1.321-1.413 2.333 0 1.452 1.182 2.634 2.634 2.634 0.103 0 0.205-0.006 0.306-0.018 0.016-0.003 0.033-0.005 0.050-0.006 0.054-0.007 0.108-0.016 0.161-0.027 0.108-0.030 0.256-0.093 0.363-0.226 0.204-0.255 0.182-0.671 0.128-0.976-0.092-0.517-0.514-0.666-1.195-0.867-0.655-0.193-1.552-0.458-1.552-1.5 0-0.56 0.218-1.002 0.518-1.346zM20.601 25.598c-0.347 0.114-1.565 0.585-1.565 1.566 0 0.371 0.217 0.492 0.963 0.712 0.669 0.198 1.586 0.468 1.771 1.512 0.039 0.221 0.056 0.428 0.049 0.62 0.474-0.476 0.767-1.133 0.767-1.856-0-1.228-0.845-2.263-1.985-2.553zM8.961 23.454c-0.107 0-0.212-0.042-0.291-0.12-0.116-0.116-0.152-0.291-0.091-0.443l2.090-5.232c0.051-0.128 0.164-0.223 0.299-0.25s0.276 0.014 0.373 0.112l3.142 3.142c0.098 0.098 0.14 0.238 0.112 0.373s-0.122 0.248-0.25 0.299l-5.232 2.090c-0.050 0.020-0.101 0.029-0.152 0.029zM11.201 18.543l-1.503 3.762 3.763-1.503zM19.553 20.861c-2.236 0-4.39-0.794-6.004-2.408-2.12-2.12-2.825-5.173-2.174-8.116-0.015-0.042-0.023-0.088-0.023-0.136 0-0.118 0.050-0.224 0.129-0.299 0.296-1.104 0.783-2.184 1.459-3.186 0.009-0.016 0.019-0.031 0.030-0.045 0.383-0.561 0.825-1.097 1.326-1.598 3.895-3.895 9.898-4.231 13.38-0.748s3.147 9.485-0.748 13.38c-2.090 2.090-4.788 3.156-7.376 3.156zM17.881 19.872c2.832 0.585 6.075-0.357 8.467-2.748 3.575-3.575 3.91-9.055 0.748-12.218-2.906-2.906-7.771-2.858-11.315-0.056 0.008 0.033 0.013 0.067 0.013 0.102v4.837h1.265v-2.866c0-0.227 0.184-0.411 0.411-0.411s0.411 0.184 0.411 0.411v2.866h4.416c0.227 0 0.411 0.184 0.411 0.411s-0.184 0.411-0.411 0.411h-4.416v1.21h1.676c0.227 0 0.411 0.184 0.411 0.411s-0.184 0.411-0.411 0.411h-1.676v1.21h1.262c0.227 0 0.411 0.184 0.411 0.411s-0.184 0.411-0.411 0.411h-1.262zM15.794 19.114c0.405 0.22 0.828 0.4 1.265 0.541v-4.978h-1.265v1.21h0.208c0.227 0 0.411 0.184 0.411 0.411s-0.184 0.411-0.411 0.411h-0.208v2.404zM13.688 17.388c0.139 0.167 0.287 0.329 0.442 0.485 0.265 0.265 0.546 0.505 0.841 0.721v-1.883h-1.265v0.555c0 0.042-0.006 0.084-0.018 0.122zM13.707 15.889h1.265v-1.21h-1.265v1.21zM12.725 15.889h0.16v-1.21h-0.618c0.118 0.416 0.271 0.821 0.458 1.21zM15.794 13.856h1.265v-1.21h-1.265v1.21zM13.707 13.856h1.265v-1.21h-1.265v1.21zM12.081 13.856h0.804v-1.21h-0.92c0.009 0.408 0.048 0.813 0.116 1.21zM15.794 11.823h1.265v-1.21h-1.265v1.21zM13.707 11.823h1.265v-1.21h-1.265v1.21zM11.985 11.823h0.9v-1.21h-0.729c-0.085 0.403-0.142 0.807-0.171 1.21zM13.707 9.791h1.265v-4.228c-0.031 0.031-0.062 0.061-0.093 0.092-0.44 0.44-0.831 0.909-1.172 1.399v2.737zM12.368 9.791h0.517v-1.325c-0.207 0.434-0.379 0.877-0.517 1.325z"></path>
</svg>
