<?xml version="1.0" encoding="utf-8"?>
<!-- Generated by IcoMoon.io -->
<!DOCTYPE svg PUBLIC "-//W3C//DTD SVG 1.1//EN" "http://www.w3.org/Graphics/SVG/1.1/DTD/svg11.dtd">
<svg version="1.1" xmlns="http://www.w3.org/2000/svg" xmlns:xlink="http://www.w3.org/1999/xlink" width="32" height="32" viewBox="0 0 32 32">
<path d="M6.92 32c-0.206 0-0.379-0.161-0.393-0.369l-1.646-26.399c-0.007-0.104 0.029-0.207 0.098-0.285s0.166-0.126 0.271-0.132l5.588-0.348 0.487-4.118c0.025-0.216 0.221-0.37 0.437-0.344l15.010 1.774c0.104 0.012 0.198 0.065 0.263 0.147s0.094 0.186 0.082 0.29l-3.105 26.268c-0.026 0.216-0.22 0.371-0.437 0.344l-1.298-0.154 0.123 1.968c0.007 0.104-0.029 0.207-0.098 0.285s-0.166 0.126-0.271 0.132l-15.085 0.941c-0.008 0-0.016 0.001-0.025 0.001zM5.692 5.575l1.597 25.614 14.3-0.892-1.597-25.614-8.777 0.547c-0.003 0-0.006 0-0.009 0zM22.226 27.874l1.050 0.124 3.013-25.486-14.228-1.682-0.424 3.585 8.703-0.542c0.213-0.013 0.4 0.153 0.413 0.369zM8.779 29.755c-0.096 0-0.188-0.035-0.26-0.099-0.078-0.069-0.126-0.166-0.132-0.271l-0.251-4.033c-0.014-0.217 0.151-0.404 0.368-0.417l4.714-0.294c0.105-0.006 0.207 0.029 0.285 0.098s0.126 0.166 0.132 0.271l0.251 4.033c0.014 0.217-0.151 0.404-0.368 0.417l-4.714 0.294c-0.008 0-0.016 0.001-0.024 0.001zM8.944 25.696l0.203 3.248 3.928-0.245-0.202-3.248zM8.422 24.045c-0.206 0-0.379-0.161-0.392-0.369l-0.572-9.167c-0.014-0.217 0.151-0.404 0.368-0.417 0.218-0.010 0.404 0.152 0.417 0.368l0.572 9.167c0.014 0.217-0.151 0.404-0.368 0.417-0.008 0-0.017 0.001-0.025 0.001zM10.779 23.898c-0.206 0-0.379-0.161-0.393-0.369l-0.748-11.995c-0.014-0.217 0.151-0.404 0.368-0.417 0.219-0.012 0.404 0.151 0.417 0.368l0.748 11.995c0.014 0.217-0.151 0.404-0.368 0.417-0.008 0-0.017 0.001-0.025 0.001zM13.136 23.751c-0.206 0-0.379-0.161-0.393-0.369l-0.483-7.752c-0.014-0.217 0.151-0.404 0.368-0.417 0.219-0.012 0.404 0.152 0.417 0.368l0.483 7.752c0.014 0.217-0.151 0.404-0.368 0.417-0.008 0-0.017 0.001-0.025 0.001zM7.433 8.174c-0.206 0-0.379-0.161-0.392-0.369-0.014-0.217 0.151-0.404 0.368-0.417l11-0.686c0.218-0.014 0.404 0.151 0.417 0.368s-0.151 0.404-0.368 0.417l-11 0.686c-0.008 0-0.017 0.001-0.025 0.001z"></path>
</svg>
