<?xml version="1.0" encoding="utf-8"?>
<!-- Generated by IcoMoon.io -->
<!DOCTYPE svg PUBLIC "-//W3C//DTD SVG 1.1//EN" "http://www.w3.org/Graphics/SVG/1.1/DTD/svg11.dtd">
<svg version="1.1" xmlns="http://www.w3.org/2000/svg" xmlns:xlink="http://www.w3.org/1999/xlink" width="32" height="32" viewBox="0 0 32 32">
<path d="M22.648 32h-11.031c-0.207 0-0.375-0.168-0.375-0.375v-3.113h-1.33c-0.207 0-0.375-0.168-0.375-0.375v-10.566h-4.753c-0.698 0-1.284-0.43-1.495-1.095s0.022-1.354 0.593-1.755l11.771-8.279v-1.77c0-0.201 0.159-0.367 0.36-0.374 0.082-0.004 2.029-0.108 2.029-1.774 0-1.559-0.968-1.774-2.014-1.774-0.135 0.003-1.364 0.059-1.364 1.242 0 0.207-0.168 0.375-0.375 0.375s-0.375-0.168-0.375-0.375c0-1.559 1.38-1.984 2.11-1.991 1.837 0 2.767 0.849 2.767 2.523 0 1.69-1.406 2.335-2.389 2.488v1.473l11.713 8.238c0.571 0.401 0.803 1.090 0.593 1.755s-0.797 1.095-1.495 1.095h-4.192v14.054c0 0.207-0.168 0.374-0.374 0.374zM11.991 31.251h10.282v-13.679h-0.423v10.566c0 0.207-0.168 0.375-0.375 0.375h-9.485v2.738zM10.287 27.763h10.814v-11.498h-10.366c-0.226 0-0.414 0.168-0.444 0.387v0.546c0 0.019-0.001 0.038-0.004 0.056v10.51zM23.078 16.822h4.137c0.442 0 0.693-0.295 0.781-0.572s0.052-0.662-0.31-0.917v0l-11.686-8.219-11.686 8.219c-0.362 0.254-0.397 0.64-0.31 0.917s0.338 0.572 0.78 0.572h4.753v-0.109c0-0.034 0.002-0.068 0.004-0.101v-0.139c0-0.529 0.431-0.96 0.96-0.96h10.392c0.017 0 0.034 0.001 0.050 0.003h0.612c0.77 0 1.41 0.568 1.522 1.307zM21.85 16.822h0.388c-0.062-0.202-0.204-0.37-0.388-0.467v0.467z"></path>
</svg>
