<?xml version="1.0" encoding="utf-8"?>
<!-- Generated by IcoMoon.io -->
<!DOCTYPE svg PUBLIC "-//W3C//DTD SVG 1.1//EN" "http://www.w3.org/Graphics/SVG/1.1/DTD/svg11.dtd">
<svg version="1.1" xmlns="http://www.w3.org/2000/svg" xmlns:xlink="http://www.w3.org/1999/xlink" width="32" height="32" viewBox="0 0 32 32">
<path d="M27.985 32c-0.094 0-0.188-0.033-0.264-0.101l-3.493-3.111h-16.456l-3.493 3.111c-0.164 0.146-0.415 0.131-0.561-0.032s-0.131-0.415 0.033-0.561l3.473-3.093v-0.935h-0.114c-0.978 0-1.774-0.796-1.774-1.774v-8.716c-0-0.006-0-0.012 0-0.018v-11.227c0-3.057 2.487-5.544 5.544-5.544h10.239c3.057 0 5.544 2.487 5.544 5.544v19.961c0 0.978-0.796 1.774-1.774 1.774h-0.114v0.935l3.473 3.093c0.164 0.146 0.178 0.397 0.033 0.561-0.079 0.088-0.187 0.133-0.297 0.133zM8.018 27.994h15.964v-0.716h-15.964v0.716zM24.379 26.484h0.511c0.54 0 0.98-0.439 0.98-0.98v-8.194l-9.757 2.87c-0.073 0.021-0.151 0.021-0.224 0l-9.757-2.87v8.194c0 0.54 0.439 0.98 0.98 0.98h17.269zM6.131 16.483l9.869 2.903 9.869-2.903v-10.939c0-2.619-2.131-4.749-4.749-4.749h-10.239c-2.619 0-4.749 2.131-4.749 4.749v10.939zM23.583 24.095c-0.93 0-1.687-0.757-1.687-1.687s0.757-1.687 1.687-1.687 1.687 0.757 1.687 1.687c0 0.93-0.757 1.687-1.687 1.687zM23.583 21.515c-0.492 0-0.893 0.401-0.893 0.893s0.401 0.893 0.893 0.893 0.893-0.401 0.893-0.893c-0-0.492-0.401-0.893-0.893-0.893zM8.417 24.095c-0.93 0-1.687-0.757-1.687-1.687s0.757-1.687 1.687-1.687 1.687 0.757 1.687 1.687c0 0.93-0.757 1.687-1.687 1.687zM8.417 21.515c-0.492 0-0.893 0.401-0.893 0.893s0.401 0.893 0.893 0.893 0.893-0.401 0.893-0.893c0-0.492-0.401-0.893-0.893-0.893zM24.873 15.118h-17.746c-0.219 0-0.397-0.178-0.397-0.397v-8.606c0-0.219 0.178-0.397 0.397-0.397h17.746c0.219 0 0.397 0.178 0.397 0.397v8.606c0 0.219-0.178 0.397-0.397 0.397zM16.397 14.324h8.079v-7.811h-8.079v7.811zM7.524 14.324h8.079v-7.811h-8.079v7.811zM16 4.962c-0.824 0-1.495-0.671-1.495-1.495s0.671-1.495 1.495-1.495 1.495 0.671 1.495 1.495-0.671 1.495-1.495 1.495zM16 2.766c-0.387 0-0.701 0.314-0.701 0.701s0.314 0.701 0.701 0.701 0.701-0.314 0.701-0.701-0.314-0.701-0.701-0.701z"></path>
</svg>
