<?xml version="1.0" encoding="utf-8"?>
<!-- Generated by IcoMoon.io -->
<!DOCTYPE svg PUBLIC "-//W3C//DTD SVG 1.1//EN" "http://www.w3.org/Graphics/SVG/1.1/DTD/svg11.dtd">
<svg version="1.1" xmlns="http://www.w3.org/2000/svg" xmlns:xlink="http://www.w3.org/1999/xlink" width="32" height="32" viewBox="0 0 32 32">
<path d="M29.28 6.048h-10.112l1.728-3.040c0.16-0.288 0.064-0.608-0.192-0.768s-0.608-0.064-0.768 0.224l-2.048 3.584h-3.264l-3.712-4.768c-0.192-0.256-0.544-0.288-0.768-0.096-0.256 0.192-0.288 0.544-0.096 0.768l3.168 4.096h-10.496c-0.896 0-1.664 0.736-1.664 1.664v18.24c0 0.928 0.768 1.664 1.664 1.664h12.736v2.208h-4.416c-0.32 0-0.576 0.256-0.576 0.544 0 0.32 0.256 0.576 0.576 0.576h9.952c0.288 0 0.544-0.256 0.544-0.576 0-0.288-0.256-0.544-0.544-0.544h-4.448v-2.208h12.736c0.928 0 1.664-0.736 1.664-1.664v-18.24c0-0.928-0.768-1.664-1.664-1.664zM2.72 7.136h26.56c0.288 0 0.544 0.256 0.544 0.576v14.368h-27.648v-14.368c0-0.32 0.256-0.576 0.544-0.576zM29.28 26.496h-26.56c-0.288 0-0.544-0.224-0.544-0.544v-2.752h27.648v2.752c0 0.32-0.256 0.544-0.544 0.544zM27.072 24.864c0 0.288-0.256 0.544-0.576 0.544h-1.088c-0.32 0-0.544-0.256-0.544-0.544s0.224-0.576 0.544-0.576h1.088c0.32 0 0.576 0.256 0.576 0.576z"></path>
</svg>
