<?xml version="1.0" encoding="utf-8"?>
<!-- Generated by IcoMoon.io -->
<!DOCTYPE svg PUBLIC "-//W3C//DTD SVG 1.1//EN" "http://www.w3.org/Graphics/SVG/1.1/DTD/svg11.dtd">
<svg version="1.1" xmlns="http://www.w3.org/2000/svg" xmlns:xlink="http://www.w3.org/1999/xlink" width="32" height="32" viewBox="0 0 32 32">
<path d="M29.859 7.997c4.412 7.641 1.784 17.448-5.857 21.861-2.513 1.451-5.261 2.14-7.974 2.14-5.536 0-10.926-2.871-13.887-7.999-4.412-7.641-1.784-17.448 5.857-21.861 0.969-0.56 1.973-1.005 2.996-1.342 0.057-0.031 0.118-0.049 0.184-0.056 7-2.213 14.861 0.641 18.681 7.256zM16.172 15.479c5.251-2.865 10.228-2.908 14.811-0.13-0.093-2.234-0.688-4.476-1.83-6.558-0.014-0.006-0.028-0.009-0.041-0.017-5.889-3.536-11.756-3.973-17.441-1.304 0.748 3.28 2.631 5.964 4.424 7.887 0.035 0.037 0.055 0.080 0.076 0.123zM28.030 7.038c-3.793-5.099-10.396-7.204-16.372-5.398-0.374 1.71-0.399 3.321-0.176 4.819 5.414-2.463 10.971-2.266 16.547 0.579zM8.499 3.006c-1.723 0.995-3.171 2.284-4.323 3.765 0.013 0.047 0.027 0.095 0.025 0.146-0.2 6.495 2.197 11.467 7.125 14.778 0.030 0.020 0.049 0.049 0.073 0.074 1.672-1.244 3.034-3.117 4.102-5.634-0.049-0.026-0.097-0.054-0.137-0.096-4.022-4.311-5.671-9.14-4.807-14.022-0.7 0.273-1.388 0.602-2.059 0.989zM3.195 8.189c-2.737 4.503-3.017 10.317-0.245 15.206 2.976 0.505 5.492 0.164 7.575-1.044-4.733-3.284-7.199-8.041-7.33-14.162zM3.647 24.506c2.19 3.184 5.44 5.287 8.996 6.105 0.034-0.017 0.063-0.038 0.101-0.048 7.030-1.759 12.673-8.659 13.125-16.049 0.001-0.027 0.014-0.050 0.019-0.075-2.991-0.51-6.116 0.166-9.44 2.026-2.281 5.42-5.974 8.154-10.997 8.154-0.583 0-1.185-0.041-1.804-0.114zM23.502 28.991c4.635-2.678 7.3-7.472 7.485-12.464-1.351-0.893-2.724-1.516-4.124-1.879-0.468 7.123-5.498 13.799-12.033 16.299 2.925 0.234 5.946-0.382 8.673-1.957z"></path>
</svg>
