<?xml version="1.0" encoding="utf-8"?>
<!-- Generated by IcoMoon.io -->
<!DOCTYPE svg PUBLIC "-//W3C//DTD SVG 1.1//EN" "http://www.w3.org/Graphics/SVG/1.1/DTD/svg11.dtd">
<svg version="1.1" xmlns="http://www.w3.org/2000/svg" xmlns:xlink="http://www.w3.org/1999/xlink" width="32" height="32" viewBox="0 0 32 32">
<path d="M30.003 1.998c4.271 4.272 1.465 14.028-6.256 21.749-5.272 5.272-11.494 8.253-16.27 8.253-2.218 0-4.124-0.643-5.479-1.997-4.271-4.272-1.465-14.028 6.256-21.749s17.475-10.529 21.749-6.256zM29.295 2.706c-1.185-1.185-2.859-1.746-4.819-1.746-1.225 0-2.564 0.226-3.965 0.649 0.012 0.044 0.025 0.088 0.024 0.136 0 0.010 0.067 2.019 3.885 5.837 3.817 3.818 5.826 3.884 5.846 3.885 0.046 0.001 0.087 0.015 0.13 0.028 1.102-3.646 0.824-6.862-1.101-8.788zM2.705 29.295c1.845 1.844 4.873 2.176 8.328 1.233-0.090-0.526-0.627-2.458-3.865-5.695-3.239-3.239-5.17-3.776-5.695-3.865-0.943 3.456-0.611 6.483 1.232 8.328zM23.038 23.038c3.377-3.377 5.791-7.133 7.036-10.583-0.666-0.073-2.798-0.599-6.364-4.166-3.559-3.558-4.090-5.689-4.166-6.36-3.45 1.245-7.206 3.655-10.584 7.033-3.526 3.526-6.001 7.465-7.193 11.038 0.869 0.175 2.913 0.929 6.108 4.124 3.198 3.198 3.949 5.24 4.124 6.109 3.573-1.192 7.512-3.668 11.038-7.194zM18.983 13.725l1.351 1.352c0.196 0.196 0.196 0.512 0 0.708-0.098 0.098-0.226 0.147-0.354 0.147s-0.256-0.049-0.354-0.147l-1.352-1.352-1.567 1.567 1.352 1.352c0.196 0.196 0.196 0.512 0 0.708-0.098 0.098-0.226 0.147-0.354 0.147s-0.256-0.049-0.354-0.147l-1.351-1.352-1.567 1.567 1.352 1.352c0.196 0.196 0.196 0.512 0 0.708-0.098 0.098-0.226 0.147-0.354 0.147s-0.256-0.049-0.354-0.147l-1.352-1.352-0.784 0.783c-0.098 0.098-0.226 0.147-0.354 0.147s-0.256-0.049-0.354-0.147c-0.196-0.195-0.196-0.512 0-0.708l0.784-0.783-1.352-1.352c-0.196-0.196-0.196-0.512 0-0.708s0.512-0.196 0.708 0l1.352 1.352 1.567-1.567-1.351-1.351c-0.196-0.195-0.196-0.512 0-0.708s0.512-0.196 0.708 0l1.351 1.351 1.567-1.567-1.352-1.352c-0.196-0.196-0.196-0.512 0-0.708s0.512-0.196 0.708 0l1.352 1.352 0.784-0.783c0.196-0.196 0.512-0.196 0.708 0s0.196 0.512 0 0.708z"></path>
</svg>
