<?xml version="1.0" encoding="utf-8"?>
<!-- Generated by IcoMoon.io -->
<!DOCTYPE svg PUBLIC "-//W3C//DTD SVG 1.1//EN" "http://www.w3.org/Graphics/SVG/1.1/DTD/svg11.dtd">
<svg version="1.1" xmlns="http://www.w3.org/2000/svg" xmlns:xlink="http://www.w3.org/1999/xlink" width="32" height="32" viewBox="0 0 32 32">
<path d="M16.965 31.154c-2.987 0-5.417-2.43-5.417-5.417v-15.671c0-2.389 1.555-4.422 3.705-5.14 0.011-0.024 0.023-0.047 0.037-0.069l0.97-1.482c-0.071-0.044-0.138-0.094-0.199-0.15-0.184 0.135-0.412 0.215-0.657 0.215h-1.4c-0.45 0-0.839-0.269-1.014-0.654h-3.594c-0.17 0.399-0.565 0.679-1.025 0.679h-1.4c-0.247 0-0.476-0.081-0.661-0.218-0.054 0.047-0.113 0.090-0.174 0.128l0.97 1.482c0.015 0.024 0.029 0.048 0.039 0.074 2.144 0.722 3.693 2.752 3.693 5.136v15.671c0 2.987-2.43 5.417-5.418 5.417s-5.417-2.43-5.417-5.417v-15.671c0-2.384 1.549-4.414 3.693-5.136 0.011-0.026 0.024-0.050 0.039-0.074l0.97-1.482c-0.071-0.044-0.138-0.094-0.199-0.15-0.184 0.135-0.412 0.215-0.657 0.215h-1.4c-0.614 0-1.113-0.499-1.113-1.113s0.5-1.113 1.113-1.113h1.4c0.188 0 0.364 0.047 0.52 0.129 0.251-0.303 0.63-0.496 1.052-0.496 0.428 0 0.81 0.198 1.061 0.506 0.148-0.073 0.315-0.114 0.491-0.114h1.4c0.441 0 0.822 0.257 1.002 0.629h3.616c0.175-0.386 0.564-0.654 1.014-0.654h1.4c0.188 0 0.365 0.047 0.52 0.129 0.251-0.303 0.63-0.496 1.053-0.496 0.428 0 0.81 0.198 1.061 0.506 0.148-0.073 0.315-0.114 0.491-0.114h1.4c0.482 0 0.894 0.308 1.048 0.738 0.705 0.19 2.528 0.784 4.365 2.21 2.124 1.648 4.655 4.76 4.655 10.227v10.602c1.14 0.216 2.005 1.219 2.005 2.421 0 1.359-1.105 2.464-2.464 2.464s-2.464-1.105-2.464-2.464c0-1.202 0.865-2.205 2.005-2.421v-10.602c0-4.075-1.437-7.264-4.27-9.478-1.584-1.237-3.189-1.812-3.916-2.027-0.193 0.333-0.553 0.557-0.964 0.557h-1.4c-0.247 0-0.476-0.081-0.661-0.218-0.055 0.047-0.113 0.090-0.174 0.128l0.97 1.482c0.016 0.025 0.030 0.051 0.041 0.078 2.138 0.726 3.681 2.752 3.681 5.132v15.671c0 2.988-2.43 5.418-5.417 5.418zM12.468 25.89c0.081 2.41 2.067 4.346 4.497 4.346s4.416-1.936 4.497-4.346h-8.993zM0.921 25.89c0.081 2.41 2.067 4.346 4.497 4.346s4.416-1.936 4.497-4.346h-8.993zM29.536 25.89c-0.852 0-1.546 0.693-1.546 1.546s0.693 1.546 1.546 1.546c0.852 0 1.546-0.693 1.546-1.546s-0.693-1.546-1.546-1.546zM12.465 24.972h8.999v-13.222h-8.999v13.222zM0.918 24.972h8.999v-13.222h-8.999v13.222zM12.465 10.831h8.999v-0.765c0-2.481-2.018-4.499-4.499-4.499s-4.499 2.018-4.499 4.499v0.765zM0.918 10.831h8.999v-0.765c0-2.481-2.018-4.499-4.499-4.499s-4.499 2.018-4.499 4.499v0.765zM16.523 4.649h0.905l-0.453-0.692zM4.965 4.649h0.905l-0.452-0.692zM16.975 1.764c-0.247 0-0.448 0.201-0.448 0.448s0.201 0.448 0.448 0.448c0.217 0 0.399-0.156 0.439-0.361 0.001-0.031 0.004-0.062 0.008-0.093-0.003-0.244-0.203-0.441-0.448-0.441zM5.417 1.764c-0.247 0-0.448 0.201-0.448 0.448s0.201 0.448 0.448 0.448c0.218 0 0.399-0.156 0.439-0.362 0.002-0.031 0.004-0.061 0.008-0.091-0.003-0.244-0.203-0.442-0.448-0.442zM18.332 2.368c0.008 0.1 0.092 0.178 0.194 0.178h1.4c0.108 0 0.195-0.088 0.195-0.195s-0.088-0.195-0.195-0.195h-1.4c-0.090 0-0.166 0.061-0.188 0.144-0.001 0.023-0.003 0.045-0.006 0.068zM6.774 2.367c0.008 0.1 0.092 0.179 0.194 0.179h1.4c0.108 0 0.195-0.088 0.195-0.195s-0.088-0.195-0.195-0.195h-1.4c-0.090 0-0.166 0.062-0.188 0.145-0.001 0.023-0.003 0.045-0.006 0.067zM14.002 2.131c-0.108 0-0.195 0.088-0.195 0.195s0.088 0.195 0.195 0.195h1.4c0.108 0 0.195-0.088 0.195-0.195s-0.088-0.195-0.195-0.195h-1.4zM2.445 2.131c-0.108 0-0.195 0.088-0.195 0.195s0.088 0.195 0.195 0.195h1.4c0.108 0 0.195-0.088 0.195-0.195s-0.088-0.195-0.195-0.195h-1.4zM29.536 28.568c-0.624 0-1.133-0.508-1.133-1.133s0.508-1.133 1.133-1.133 1.133 0.508 1.133 1.133-0.508 1.133-1.133 1.133zM29.536 27.221c-0.118 0-0.214 0.096-0.214 0.214s0.096 0.214 0.214 0.214c0.118 0 0.214-0.096 0.214-0.214s-0.096-0.214-0.214-0.214z"></path>
</svg>
