<?xml version="1.0" encoding="utf-8"?>
<!-- Generated by IcoMoon.io -->
<!DOCTYPE svg PUBLIC "-//W3C//DTD SVG 1.1//EN" "http://www.w3.org/Graphics/SVG/1.1/DTD/svg11.dtd">
<svg version="1.1" xmlns="http://www.w3.org/2000/svg" xmlns:xlink="http://www.w3.org/1999/xlink" width="32" height="32" viewBox="0 0 32 32">
<path d="M29.582 29.429h-27.164c-1.333 0-2.418-1.085-2.418-2.418v-17.357c0-1.333 1.085-2.418 2.418-2.418h2.155v-1.096c0-0.24 0.195-0.435 0.435-0.435h3.084c0.24 0 0.435 0.195 0.435 0.435v1.096h2.903v-1.578c0-1.702 1.385-3.087 3.087-3.087h2.965c1.702 0 3.087 1.385 3.087 3.087v1.578h2.903v-1.096c0-0.24 0.195-0.435 0.435-0.435h3.084c0.24 0 0.435 0.195 0.435 0.435v1.096h2.155c1.333 0 2.418 1.084 2.418 2.418v17.357c0 1.333-1.085 2.418-2.418 2.418zM2.418 8.106c-0.853 0-1.548 0.694-1.548 1.548v17.357c0 0.853 0.694 1.548 1.548 1.548h27.164c0.853 0 1.548-0.694 1.548-1.548v-17.357c0-0.853-0.694-1.548-1.548-1.548h-27.164zM24.343 7.236h2.214v-0.661h-2.214v0.661zM12.301 7.236h7.399v-1.578c0-1.222-0.994-2.217-2.217-2.217h-2.965c-1.222 0-2.217 0.995-2.217 2.217v1.578zM5.443 7.236h2.214v-0.661h-2.214v0.661zM14.322 23.615h-3.735c-0.24 0-0.435-0.195-0.435-0.435v-3.735c0-0.24 0.195-0.435 0.435-0.435h3.735c0.24 0 0.435 0.195 0.435 0.435v3.735c0 0.24-0.195 0.435-0.435 0.435zM11.022 22.745h2.865v-2.865h-2.865v2.865zM16.32 18.168c-0.111 0-0.223-0.042-0.308-0.127l-1.998-1.998c-0.082-0.082-0.127-0.192-0.127-0.308s0.046-0.226 0.127-0.308l1.998-1.998c0.163-0.163 0.452-0.163 0.615 0l1.998 1.998c0.082 0.082 0.127 0.192 0.127 0.308s-0.046 0.226-0.127 0.308l-1.998 1.998c-0.085 0.085-0.196 0.127-0.308 0.127zM14.937 15.735l1.382 1.382 1.382-1.382-1.382-1.382zM6.393 18.154c-0.454 0-0.844-0.323-0.928-0.767l-0.268-1.422c-0.004-0.023-0.020-0.042-0.041-0.052l-1.323-0.585c-0.33-0.146-0.545-0.46-0.56-0.821s0.172-0.692 0.489-0.866l1.269-0.694c0.021-0.011 0.034-0.032 0.037-0.055l0.148-1.439c0.050-0.482 0.453-0.846 0.939-0.846 0.239 0 0.467 0.091 0.643 0.257l1.053 0.993c0.013 0.012 0.031 0.019 0.049 0.019l1.43-0.306c0.386-0.083 0.784 0.085 0.994 0.418 0.173 0.273 0.194 0.612 0.055 0.905l-0.619 1.308c-0.010 0.021-0.009 0.046 0.003 0.066l0.726 1.251c0.171 0.295 0.172 0.647 0.002 0.942-0.188 0.327-0.549 0.515-0.936 0.465l-1.435-0.184c-0.029-0.003-0.049 0.008-0.062 0.023l-0.965 1.077c-0.182 0.203-0.429 0.314-0.699 0.314zM6.155 11.477c-0.003 0-0.067 0.001-0.074 0.065l-0.148 1.439c-0.032 0.308-0.213 0.581-0.485 0.73l-1.27 0.694c-0.010 0.005-0.039 0.021-0.037 0.066s0.032 0.058 0.042 0.062l1.323 0.585c0.283 0.126 0.487 0.382 0.544 0.686l0.268 1.422c0.011 0.056 0.062 0.058 0.073 0.058 0.020 0 0.035-0.007 0.050-0.024l0.965-1.078c0.205-0.229 0.512-0.345 0.821-0.305l1.435 0.184c0.041 0 0.063-0.022 0.071-0.036 0.020-0.035 0.005-0.061-0.001-0.070l-0.726-1.251c-0.155-0.268-0.169-0.595-0.037-0.875l0.619-1.308c0.005-0.011 0.017-0.036-0.003-0.068-0.006-0.010-0.031-0.043-0.076-0.033l-1.415 0.304c-0.299 0.065-0.62-0.024-0.844-0.236l-1.053-0.993c-0.015-0.014-0.029-0.020-0.046-0.020zM24.64 14.922c-1.19 0-2.158-0.968-2.158-2.157s0.968-2.158 2.158-2.158c1.19 0 2.158 0.968 2.158 2.158s-0.968 2.157-2.158 2.157zM24.64 11.477c-0.71 0-1.288 0.578-1.288 1.288s0.578 1.287 1.288 1.287c0.71 0 1.288-0.578 1.288-1.287s-0.578-1.288-1.288-1.288z"></path>
</svg>
