<?xml version="1.0" encoding="utf-8"?>
<!-- Generated by IcoMoon.io -->
<!DOCTYPE svg PUBLIC "-//W3C//DTD SVG 1.1//EN" "http://www.w3.org/Graphics/SVG/1.1/DTD/svg11.dtd">
<svg version="1.1" xmlns="http://www.w3.org/2000/svg" xmlns:xlink="http://www.w3.org/1999/xlink" width="32" height="32" viewBox="0 0 32 32">
<path d="M30.202 17.674c0 0 0-1.426 0-1.426 0.573-0.443 0.802-1.166 0.578-1.859-0.111-0.341-0.317-0.622-0.581-0.827 0.276-2.233-0.395-4.477-1.869-6.183-1.513-1.754-3.711-2.758-6.026-2.758 0 0-12.607 0-12.607 0-2.317 0-4.513 1.005-6.028 2.758-1.459 1.69-2.13 3.907-1.875 6.117-0.331 0.24-0.578 0.586-0.672 1.008-0.141 0.635 0.089 1.283 0.596 1.69 0.029 0.023 0.063 0.044 0.093 0.066 0 0 0 1.409 0 1.409-1.041 0.299-1.811 1.249-1.811 2.385 0 0 0 0.115 0 0.115 0 1.063 0.674 1.968 1.616 2.323-0.389 0.995-0.32 2.099 0.222 3.054 0.644 1.136 1.808 1.813 3.114 1.813 0 0 22.098 0 22.098 0 1.306 0 2.469-0.677 3.114-1.813 0.542-0.956 0.611-2.060 0.222-3.054 0.941-0.355 1.615-1.26 1.615-2.323 0 0 0-0.115 0-0.115 0-1.131-0.763-2.078-1.798-2.38 0 0 0 0 0 0M2.756 17.565c0 0 0-0.816 0-0.816 0.333 0.109 0.683 0.172 1.040 0.172 0.939 0 1.825-0.398 2.441-1.068 0.615 0.67 1.501 1.068 2.442 1.068 0.939 0 1.826-0.398 2.441-1.068 0.615 0.671 1.501 1.068 2.441 1.068s1.825-0.398 2.441-1.069c0.615 0.67 1.501 1.068 2.442 1.068 0.94 0 1.825-0.398 2.439-1.068 0.614 0.671 1.502 1.068 2.442 1.068s1.825-0.398 2.439-1.068c0.617 0.67 1.502 1.068 2.442 1.068 0.362 0 0.716-0.064 1.052-0.176 0 0 0 0.812 0 0.812-1.35-0.005-5.106 0.155-7.36 1.953-2.227-1.457-7.681-1.922-7.923-1.942-0.013-0.001-0.027-0.001-0.039-0.001 0 0-11.177 0-11.177 0s0 0 0 0M28.217 14.147c0.334 0 0.654 0.002 0.95 0.004 0.402 0.004 0.634 0.275 0.715 0.528 0.081 0.25 0.052 0.602-0.268 0.837-0.045 0.032-0.091 0.064-0.138 0.093-0.378 0.239-0.818 0.366-1.271 0.366-0.839 0-1.619-0.442-2.033-1.153-0.083-0.146-0.24-0.236-0.409-0.236s-0.323 0.090-0.409 0.236c-0.413 0.711-1.19 1.153-2.031 1.153s-1.619-0.442-2.033-1.153c-0.084-0.146-0.24-0.236-0.409-0.236-0.167 0-0.323 0.090-0.409 0.236-0.413 0.711-1.191 1.153-2.031 1.153-0.842 0-1.62-0.442-2.033-1.153-0.084-0.146-0.241-0.235-0.409-0.236 0 0 0 0 0 0-0.167 0-0.323 0.090-0.409 0.236-0.413 0.711-1.193 1.153-2.033 1.153-0.839 0-1.619-0.442-2.033-1.153-0.084-0.146-0.24-0.236-0.407-0.236s-0.323 0.090-0.409 0.236c-0.414 0.711-1.193 1.153-2.032 1.153-0.842 0-1.619-0.442-2.032-1.153-0.084-0.146-0.24-0.235-0.409-0.236-0.169 0-0.324 0.090-0.409 0.236-0.414 0.711-1.193 1.153-2.032 1.153-0.45 0-0.886-0.124-1.264-0.359-0.078-0.047-0.151-0.1-0.222-0.157-0.332-0.267-0.297-0.613-0.267-0.75 0.048-0.218 0.212-0.471 0.516-0.562 0 0 25.655 0 25.655 0s0 0 0 0M4.385 7.996c1.333-1.546 3.27-2.431 5.312-2.431 0 0 12.607 0 12.607 0 2.041 0 3.978 0.886 5.311 2.431 1.246 1.442 1.847 3.319 1.681 5.205 0 0-26.591 0-26.591 0-0.167-1.886 0.434-3.763 1.68-5.205 0 0 0 0 0 0M29.341 25.081c-0.474 0.835-1.33 1.335-2.291 1.335 0 0-22.098 0-22.098 0-0.961 0-1.818-0.5-2.291-1.335-0.431-0.759-0.461-1.648-0.092-2.422 0 0 26.866 0 26.866 0 0.366 0.774 0.336 1.663-0.094 2.422 0 0 0 0 0 0M31.056 20.169c0 0.851-0.693 1.545-1.546 1.545 0 0-27.021 0-27.021 0-0.851 0-1.545-0.693-1.545-1.545 0 0 0-0.115 0-0.115 0-0.852 0.693-1.543 1.545-1.543 0 0 11.424 0 11.424 0 1.676 0.14 6.269 0.758 7.7 1.963 0.087 0.075 0.196 0.111 0.304 0.111 0.114 0 0.23-0.043 0.321-0.126 2.065-1.909 6.218-1.971 7.235-1.955 0.013 0.001 0.022 0.007 0.035 0.007 0.852 0 1.546 0.691 1.546 1.543 0 0 0 0.115 0 0.115s0.001 0 0.001 0M5.41 10.559c0.044 0.013 0.089 0.019 0.132 0.019 0.204 0 0.393-0.133 0.453-0.339 0.027-0.091 0.684-2.221 2.999-2.221 0.261 0 0.473-0.211 0.473-0.473 0-0.26-0.211-0.471-0.473-0.471-2.429 0-3.617 1.898-3.906 2.902-0.073 0.25 0.071 0.51 0.321 0.582 0 0 0 0 0 0"></path>
</svg>
