<?xml version="1.0" encoding="utf-8"?>
<!-- Generated by IcoMoon.io -->
<!DOCTYPE svg PUBLIC "-//W3C//DTD SVG 1.1//EN" "http://www.w3.org/Graphics/SVG/1.1/DTD/svg11.dtd">
<svg version="1.1" xmlns="http://www.w3.org/2000/svg" xmlns:xlink="http://www.w3.org/1999/xlink" width="32" height="32" viewBox="0 0 32 32">
<path d="M21.401 32h-10.802c-0.196 0-0.366-0.137-0.408-0.329s0.057-0.387 0.236-0.468l5.156-2.329v-14.36l-11.047-8.844c-0.138-0.111-0.192-0.297-0.133-0.464s0.216-0.279 0.394-0.279h9.511l-0.611-4.454c-0.031-0.228 0.128-0.439 0.356-0.47s0.439 0.128 0.47 0.356l0.626 4.567h12.054c0.177 0 0.335 0.112 0.393 0.279s0.005 0.353-0.133 0.464l-11.047 8.844v14.36l5.156 2.329c0.179 0.081 0.277 0.276 0.236 0.468s-0.211 0.329-0.408 0.329zM12.535 31.166h6.929l-3.465-1.565zM10.389 9.288l5.611 4.492 5.611-4.492h-4.402c-0.139 0.629-0.586 1.143-1.173 1.377l0.214 1.327c0.037 0.227-0.118 0.441-0.345 0.478s-0.441-0.118-0.478-0.345l-0.214-1.327c-0.871-0.050-1.588-0.681-1.772-1.509h-3.051zM14.312 9.288c0.164 0.398 0.557 0.679 1.013 0.679s0.849-0.281 1.013-0.679h-2.026zM17.209 8.454h5.444l3.363-2.692h-10.752l0.162 1.183c0.876 0.045 1.599 0.678 1.783 1.51zM14.312 8.454h2.026c-0.164-0.398-0.556-0.678-1.013-0.678s-0.849 0.281-1.013 0.678zM9.348 8.454h4.093c0.138-0.625 0.58-1.136 1.162-1.372l-0.181-1.32h-8.437z"></path>
</svg>
