<?xml version="1.0" encoding="utf-8"?>
<!-- Generated by IcoMoon.io -->
<!DOCTYPE svg PUBLIC "-//W3C//DTD SVG 1.1//EN" "http://www.w3.org/Graphics/SVG/1.1/DTD/svg11.dtd">
<svg version="1.1" xmlns="http://www.w3.org/2000/svg" xmlns:xlink="http://www.w3.org/1999/xlink" width="32" height="32" viewBox="0 0 32 32">
<path d="M24.612 29.156c0 0-16.99 0-16.99 0s-0.101-0.078-0.101-0.078c-3.024-2.326-2.985-7.468-2.396-11.447-0.659-0.599-1.793-0.961-2.715-1.255-0.69-0.22-1.286-0.41-1.636-0.672-0.607-0.455-0.883-1.094-0.705-1.63 0.112-0.337 0.5-0.901 1.841-0.901 0.182 0 0.378 0.012 0.583 0.032 1.321 0.132 2.386 0.91 3.147 1.702 0.162-0.703 0.285-1.125 0.291-1.149 0 0 0.079-0.273 0.079-0.273s20.212 0 20.212 0c0 0 0.080 0.273 0.080 0.273 0.005 0.020 0.11 0.379 0.252 0.985 0.732-0.716 1.745-1.414 2.984-1.538 0.205-0.020 0.402-0.032 0.583-0.032 1.341 0 1.729 0.564 1.841 0.9 0.179 0.536-0.098 1.175-0.703 1.631-0.351 0.262-0.948 0.452-1.638 0.673-0.88 0.279-1.869 0.594-2.534 1.105 0.618 4.040 0.682 9.248-2.372 11.597 0 0-0.101 0.077-0.101 0.077s0 0 0 0M7.882 28.399c0 0 16.469 0 16.469 0 2.852-2.326 2.451-7.885 1.953-11.014 0 0-0.033-0.204-0.033-0.204s0.156-0.139 0.156-0.139c0.781-0.693 1.99-1.078 2.963-1.388 0.599-0.191 1.166-0.372 1.413-0.557 0.325-0.244 0.511-0.574 0.439-0.784-0.062-0.185-0.388-0.382-1.122-0.382-0.156 0-0.327 0.010-0.509 0.028-1.301 0.13-2.339 1.057-2.982 1.813 0 0-0.498 0.586-0.498 0.586s-0.16-0.752-0.16-0.752c-0.131-0.61-0.25-1.085-0.323-1.362 0 0-19.063 0-19.063 0-0.081 0.306-0.218 0.852-0.364 1.555 0 0-0.164 0.789-0.164 0.789s-0.502-0.629-0.502-0.629c-0.668-0.836-1.753-1.861-3.136-1.999-0.18-0.018-0.351-0.028-0.509-0.028-0.734 0-1.060 0.198-1.122 0.382-0.069 0.21 0.115 0.54 0.441 0.784 0.247 0.186 0.814 0.366 1.412 0.556 1.068 0.34 2.398 0.765 3.164 1.585 0 0 0.126 0.134 0.126 0.134s-0.028 0.181-0.028 0.181c-0.474 3.075-0.838 8.544 1.98 10.843 0 0 0 0 0 0M26.347 13.050c0 0-20.652-2.959-20.652-2.959s0.18-0.448 0.18-0.448c0.708-1.757 3.647-2.848 7.671-2.848 1.004 0 2.043 0.070 3.086 0.21 5.132 0.688 9.374 3.129 9.657 5.556 0 0 0.059 0.489 0.059 0.489s0 0 0 0M6.835 9.49c0 0 18.566 2.66 18.566 2.66-0.721-1.717-4.054-3.748-8.868-4.394-1.011-0.135-2.016-0.204-2.986-0.204-3.214 0-5.792 0.762-6.712 1.937 0 0 0 0 0 0M18.006 7.173c-0.302 0-0.618-0.026-0.937-0.075-0.669-0.103-1.287-0.304-1.743-0.563-0.756-0.433-0.809-0.893-0.772-1.126 0.089-0.582 0.827-0.93 1.971-0.93 0.302 0 0.617 0.025 0.936 0.074 0.67 0.103 1.289 0.304 1.743 0.564 0.756 0.434 0.809 0.893 0.772 1.127-0.089 0.582-0.826 0.929-1.97 0.929 0 0 0 0 0 0M16.527 5.236c-0.831 0-1.193 0.217-1.223 0.291 0.015 0.144 0.615 0.627 1.883 0.823 0.282 0.044 0.557 0.066 0.821 0.066 0.83 0 1.19-0.217 1.222-0.291-0.016-0.157-0.673-0.638-1.883-0.823-0.282-0.044-0.557-0.066-0.82-0.066 0 0 0 0 0 0M4.054 11.458c-0.038-0.032-0.943-0.785-1.006-2.044-0.049-0.976 0.415-1.958 1.378-2.923 1.15-1.15 1.332-1.734 1.282-2.021-0.061-0.348-0.547-0.578-1.063-0.821-0.108-0.051-0.215-0.102-0.32-0.155 0 0 0.338-0.677 0.338-0.677 0.099 0.049 0.202 0.098 0.305 0.146 0.637 0.302 1.359 0.642 1.487 1.377 0.123 0.704-0.338 1.533-1.492 2.687-0.805 0.805-1.195 1.596-1.156 2.349 0.046 0.927 0.722 1.489 0.729 1.494 0 0-0.481 0.588-0.481 0.588s0 0 0 0"></path>
</svg>
