<?xml version="1.0" encoding="utf-8"?>
<!-- Generated by IcoMoon.io -->
<!DOCTYPE svg PUBLIC "-//W3C//DTD SVG 1.1//EN" "http://www.w3.org/Graphics/SVG/1.1/DTD/svg11.dtd">
<svg version="1.1" xmlns="http://www.w3.org/2000/svg" xmlns:xlink="http://www.w3.org/1999/xlink" width="32" height="32" viewBox="0 0 32 32">
<path d="M3.52 10.176c0.064 0 0.096 0 0.128 0 0.256 0 0.48-0.192 0.544-0.448 0.544-2.816 2.528-5.152 5.184-6.208l-0.96 1.472c-0.192 0.256-0.096 0.608 0.128 0.768 0.096 0.064 0.224 0.096 0.32 0.096 0.192 0 0.352-0.096 0.448-0.256l1.92-2.848c0.096-0.16 0.128-0.352 0.064-0.512s-0.224-0.288-0.416-0.32l-3.392-0.768c-0.32-0.064-0.608 0.128-0.672 0.416-0.064 0.32 0.128 0.608 0.416 0.672l1.568 0.352c-2.912 1.184-5.088 3.808-5.696 6.944-0.064 0.288 0.128 0.576 0.416 0.64zM11.84 15.488c0.8 0 1.536 0.288 2.144 0.8 0.224 0.192 0.576 0.192 0.768-0.064 0.224-0.224 0.192-0.576-0.064-0.768-0.8-0.704-1.792-1.088-2.848-1.088-2.144 0-3.968 1.664-4.512 3.872h-1.28c-0.32 0-0.544 0.256-0.544 0.576 0 0.288 0.224 0.544 0.544 0.544h1.12c0 0.096 0 0.192 0 0.288 0 0.256 0 0.544 0.064 0.832h-1.184c-0.32 0-0.544 0.224-0.544 0.544 0 0.288 0.224 0.544 0.544 0.544h1.44c0.704 1.952 2.4 3.328 4.352 3.328 1.056 0 2.048-0.384 2.848-1.088 0.256-0.192 0.288-0.544 0.064-0.768-0.192-0.224-0.544-0.256-0.768-0.064-0.608 0.512-1.344 0.8-2.144 0.8-1.376 0-2.56-0.896-3.168-2.208h3.456c0.32 0 0.544-0.256 0.544-0.544 0-0.32-0.224-0.544-0.544-0.544h-3.808c-0.032-0.288-0.064-0.576-0.064-0.832 0-0.096 0-0.192 0-0.288h3.872c0.32 0 0.544-0.256 0.544-0.544 0-0.32-0.224-0.576-0.544-0.576h-3.648c0.48-1.6 1.824-2.752 3.36-2.752zM28.576 19.424c-0.288-0.064-0.576 0.128-0.64 0.416-0.544 2.816-2.56 5.184-5.216 6.208l0.992-1.472c0.16-0.256 0.096-0.608-0.16-0.768s-0.608-0.096-0.768 0.16l-1.92 2.848c-0.096 0.128-0.128 0.32-0.064 0.512 0.064 0.16 0.224 0.288 0.416 0.32l3.392 0.768c0.032 0 0.064 0.032 0.128 0.032 0.256 0 0.48-0.192 0.544-0.448 0.064-0.288-0.128-0.576-0.448-0.672l-1.536-0.32c2.912-1.216 5.12-3.808 5.728-6.944 0.064-0.288-0.128-0.576-0.448-0.64zM22.816 20.256c4.704-0.992 8.128-5.216 8.128-10.016 0-5.664-4.608-10.24-10.24-10.24-4.736 0-8.8 3.2-9.952 7.776-0.128 0.544-0.192 1.12-0.256 1.664-5.248 0.416-9.44 4.832-9.44 10.208 0 5.632 4.608 10.208 10.24 10.208 5.376 0 9.792-4.16 10.208-9.44 0.448-0.032 0.864-0.096 1.312-0.16zM11.296 28.768c-5.024 0-9.12-4.096-9.12-9.12 0-5.056 4.096-9.152 9.12-9.152s9.12 4.096 9.12 9.152c0 5.024-4.096 9.12-9.12 9.12zM20.416 9.12c-0.992-0.288-1.664-0.736-1.888-1.248-0.128-0.288-0.096-0.64 0.128-0.992 0.288-0.576 0.928-0.896 1.76-0.992v3.232zM24.192 13.312c0.256-0.768 0.224-1.472-0.096-2.080-0.384-0.736-1.184-1.28-2.56-1.76v-3.52c0.768 0.128 1.472 0.48 1.76 0.96 0.192 0.256 0.512 0.32 0.768 0.16s0.352-0.512 0.16-0.768c-0.512-0.768-1.536-1.312-2.688-1.472v-0.416c0-0.288-0.256-0.544-0.544-0.544-0.32 0-0.576 0.256-0.576 0.544v0.352c-1.248 0.096-2.24 0.672-2.752 1.568-0.352 0.672-0.416 1.344-0.128 1.984 0.256 0.608 0.928 1.408 2.72 1.92 0.064 0 0.096 0.032 0.16 0.032v3.936c-0.096-0.032-0.192-0.032-0.288-0.064-0.064 0-0.128 0-0.192 0-1.76-2.752-4.832-4.608-8.32-4.736 0.032-0.448 0.128-0.928 0.224-1.376 0.992-4.064 4.64-6.912 8.864-6.912 5.024 0 9.12 4.064 9.12 9.12 0 4.288-3.040 8.032-7.232 8.928-0.352 0.064-0.704 0.128-1.088 0.16-0.032-1.184-0.256-2.272-0.64-3.328 0.032 0.032 0.064 0.032 0.128 0.032 0.288 0 0.544-0.256 0.544-0.544v-0.192c1.152-0.192 2.24-0.8 2.656-1.984zM21.536 14.176v-3.52c0.832 0.32 1.376 0.672 1.6 1.088 0.16 0.32 0.16 0.736 0 1.216-0.224 0.672-0.864 1.056-1.6 1.216z"></path>
</svg>
