<?xml version="1.0" encoding="utf-8"?>
<!-- Generated by IcoMoon.io -->
<!DOCTYPE svg PUBLIC "-//W3C//DTD SVG 1.1//EN" "http://www.w3.org/Graphics/SVG/1.1/DTD/svg11.dtd">
<svg version="1.1" xmlns="http://www.w3.org/2000/svg" xmlns:xlink="http://www.w3.org/1999/xlink" width="32" height="32" viewBox="0 0 32 32">
<path d="M27.552 9.952h-2.208c-0.288 0-0.544 0.256-0.544 0.544s0.256 0.576 0.544 0.576h2.208c0.864 0 1.6-0.32 2.144-0.896 1.216-1.248 1.088-3.488 1.088-3.584 0-0.288-0.256-0.512-0.544-0.512h-3.392l-0.416-1.28c-0.064-0.224-0.288-0.384-0.544-0.384h-3.84v-3.872c0-0.192-0.128-0.384-0.32-0.48s-0.416-0.064-0.576 0.032c-0.128 0.096-2.944 2.272-2.976 5.376-0.032 0-0.032 0-0.032 0.032-0.48 0.8-0.96 1.568-0.96 1.568-0.384 0.608-0.672 1.632-0.672 2.336v1.664c0 0.448-0.32 1.152-0.64 1.472l-9.6 9.376c-0.544-0.096-1.888-0.48-1.952-1.248 0-0.48 0.384-0.736 0.608-0.864 0.288-0.128 0.384-0.48 0.256-0.736-0.128-0.288-0.48-0.384-0.736-0.256-0.8 0.416-1.28 1.12-1.216 1.888 0.096 1.92 2.848 2.304 2.976 2.336 0.032 0 0.032 0 0.064 0 0.096 0 0.16-0.032 0.224-0.064 0.032 0 0.032 0 0.032 0 0.16 0 0.288-0.032 0.384-0.16l9.728-9.472c0.16-0.16 0.32-0.352 0.448-0.576l4.96 1.984-0.064 0.384c0 0.032 0 0.032 0 0.064s-0.064 0.896 0.256 1.76c0 0.032 0.032 0.064 0.064 0.128-0.032 0.064-0.032 0.16 0 0.256 0.768 2.112 2.56 6.784 3.552 9.408 0.128 0.256 0.384 0.48 0.8 0.832 0.128 0.096 0.352 0.256 0.416 0.32l0.32 0.832c-0.096 0-0.224 0.032-0.384 0.032h-1.664c-0.416 0-0.96-0.32-1.184-0.704l-2.656-4.64c-0.448-0.736-1.472-1.088-2.272-0.736l-1.568 0.704c0.032-0.096 0.096-0.224 0.128-0.32 0.736-1.568-1.728-3.104-1.984-3.264-0.288-0.16-0.608-0.096-0.768 0.192s-0.064 0.576 0.192 0.736c0.768 0.48 1.76 1.408 1.536 1.888 0 0 0 0.032-0.032 0.064-0.512 1.568-2.272 3.456-2.272 3.488-0.16 0.16-0.192 0.384-0.128 0.576 0.096 0.224 0.288 0.352 0.512 0.352h2.304c0.192 0 1.632 0.032 1.92 1.664h-10.848c-0.256-0.32-0.736-0.928-1.536-1.792-0.416-0.48-0.672-0.96-0.8-1.408-0.064-0.192-0.192-0.32-0.352-0.384-0.032-0.064-0.128-0.128-0.192-0.192-1.632-0.8-3.488-2.304-3.040-4.768 0.192-0.992 0.8-1.504 1.28-1.76 0.832-0.416 1.888-0.48 2.752-0.096 0.288 0.128 0.608 0 0.736-0.288 0.096-0.288-0.032-0.608-0.288-0.736-1.184-0.512-2.592-0.448-3.712 0.16-0.992 0.512-1.632 1.408-1.856 2.496-0.448 2.464 0.832 4.576 3.616 5.984 0 0 0.032 0 0.032 0 0.192 0.608 0.512 1.184 1.024 1.728 1.056 1.184 1.632 1.92 1.632 1.952 0.096 0.128 0.256 0.192 0.448 0.192 0.032 0 0.096 0 0.128 0s0.064 0 0.096 0h11.456c0.32 0 0.576-0.224 0.576-0.544 0-2.624-2.016-3.328-3.072-3.328h-1.088c0.224-0.288 0.512-0.672 0.768-1.056 0.064 0 0.16-0.032 0.224-0.064l2.624-1.152c0.32-0.128 0.704 0 0.864 0.288l2.656 4.64c0.416 0.672 1.344 1.216 2.144 1.216h1.664c0.288 0 1.024-0.032 1.376-0.48 0.16-0.192 0.224-0.416 0.16-0.64 0-0.032 0-0.064 0-0.096l-0.448-1.184c-0.128-0.256-0.352-0.448-0.768-0.768-0.128-0.096-0.384-0.288-0.448-0.384-0.992-2.592-2.752-7.232-3.52-9.344-0.032-0.032-0.032-0.064-0.064-0.096 0-0.096 0-0.192-0.032-0.288-0.192-0.544-0.192-1.152-0.192-1.28l0.32-1.856c0.416-0.736 1.344-0.736 1.408-0.736h1.664c0.288 0 0.544-0.224 0.544-0.544s-0.256-0.544-0.544-0.544h-1.664c-0.064 0-1.696-0.032-2.432 1.408-0.032 0.064-0.032 0.096-0.064 0.16l-0.064 0.448-4.736-1.888c0.064-0.224 0.096-0.48 0.096-0.672v-1.664c0-0.512 0.256-1.344 0.512-1.76 0 0 0.48-0.768 0.96-1.568 0.064-0.096 0.064-0.16 0.096-0.224 0.064-0.096 0.096-0.224 0.096-0.32 0-1.568 0.928-2.88 1.664-3.712v3.136c0 0.32 0.256 0.576 0.544 0.576h4.032l0.416 1.28c0.096 0.224 0.288 0.384 0.544 0.384h3.2c-0.032 0.608-0.192 1.6-0.768 2.24-0.352 0.352-0.768 0.512-1.344 0.512z"></path>
</svg>
