<?xml version="1.0" encoding="utf-8"?>
<!-- Generated by IcoMoon.io -->
<!DOCTYPE svg PUBLIC "-//W3C//DTD SVG 1.1//EN" "http://www.w3.org/Graphics/SVG/1.1/DTD/svg11.dtd">
<svg version="1.1" xmlns="http://www.w3.org/2000/svg" xmlns:xlink="http://www.w3.org/1999/xlink" width="32" height="32" viewBox="0 0 32 32">
<path d="M29.696 17.216l-0.64-1.952c-0.096-0.192-0.192-0.416-0.32-0.576v-5.344c0-0.512-0.352-1.088-0.8-1.344-7.36-4.096-16.512-4.096-23.872 0-0.448 0.256-0.768 0.832-0.768 1.344v5.344c-0.16 0.16-0.256 0.384-0.352 0.576l-0.64 1.952c-0.704 0.192-1.248 0.832-1.248 1.6v7.456c0 0.768 0.768 1.408 1.664 1.408h1.12c0.864 0 1.696-0.672 1.92-1.504v-0.064c0.096-0.352 0.48-0.672 0.832-0.672h18.816c0.352 0 0.736 0.32 0.832 0.672l0.032 0.064c0.192 0.832 1.024 1.504 1.888 1.504h1.12c0.896 0 1.664-0.64 1.664-1.408v-7.456c0-0.768-0.544-1.408-1.248-1.6zM4.928 14.944h22.144c0.352 0 0.8 0.32 0.928 0.672l0.512 1.536h-25.024l0.512-1.536c0.128-0.352 0.576-0.672 0.928-0.672zM14.336 13.824h-6.624v-1.632c0-0.32 0.256-0.576 0.544-0.576h5.536c0.288 0 0.544 0.256 0.544 0.576v1.632zM24.288 13.824h-6.624v-1.632c0-0.32 0.256-0.576 0.544-0.576h5.536c0.32 0 0.544 0.256 0.544 0.576v1.632zM4.608 8.992c7.040-3.936 15.744-3.936 22.784-0.032 0.096 0.096 0.224 0.288 0.224 0.384v4.576c-0.192-0.032-0.352-0.096-0.544-0.096h-1.664v-1.632c0-0.928-0.736-1.664-1.664-1.664h-5.536c-0.896 0-1.664 0.736-1.664 1.664v1.632h-1.088v-1.632c0-0.928-0.768-1.664-1.664-1.664h-5.536c-0.928 0-1.664 0.736-1.664 1.664v1.632h-1.664c-0.16 0-0.352 0.064-0.544 0.096v-4.576c0-0.096 0.128-0.288 0.224-0.352zM29.824 26.272c0 0.096-0.224 0.288-0.544 0.288h-1.12c-0.352 0-0.736-0.32-0.832-0.672v-0.064c-0.224-0.832-1.056-1.472-1.92-1.472h-18.816c-0.864 0-1.696 0.64-1.888 1.472l-0.032 0.096c-0.096 0.32-0.48 0.64-0.832 0.64h-1.12c-0.32 0-0.544-0.192-0.544-0.288v-7.456c0-0.32 0.256-0.544 0.544-0.544h26.56c0.288 0 0.544 0.224 0.544 0.544v7.456z"></path>
</svg>
