<?xml version="1.0" encoding="utf-8"?>
<!-- Generated by IcoMoon.io -->
<!DOCTYPE svg PUBLIC "-//W3C//DTD SVG 1.1//EN" "http://www.w3.org/Graphics/SVG/1.1/DTD/svg11.dtd">
<svg version="1.1" xmlns="http://www.w3.org/2000/svg" xmlns:xlink="http://www.w3.org/1999/xlink" width="32" height="32" viewBox="0 0 32 32">
<path d="M30.368 17.248l-0.352-2.176c-0.032-0.192-0.096-0.352-0.192-0.512v-5.536c0-0.512-0.352-1.088-0.8-1.344-3.296-1.728-7.264-1.728-10.56 0-0.448 0.256-0.8 0.832-0.8 1.344v5.536c-0.096 0.16-0.16 0.32-0.192 0.512l-0.352 2.176c-0.352 0.288-0.576 0.736-0.576 1.248v7.456c0 0.768 0.768 1.376 1.664 1.376 0.864 0 1.696-0.64 1.92-1.472v-0.064c0.096-0.352 0.512-0.672 0.864-0.672h5.504c0.352 0 0.768 0.32 0.864 0.672v0.064c0.224 0.832 1.056 1.472 1.92 1.472 0.896 0 1.664-0.608 1.664-1.376v-7.456c0-0.512-0.224-0.96-0.576-1.248zM18.592 15.232c0.032-0.32 0.384-0.608 0.736-0.608h8.832c0.352 0 0.704 0.288 0.736 0.608l0.288 1.6h-10.88l0.288-1.6zM26.496 13.504h-5.504v-1.664c0-0.288 0.224-0.544 0.544-0.544h4.416c0.32 0 0.544 0.256 0.544 0.544v1.664zM18.976 8.672c2.976-1.568 6.56-1.568 9.536 0 0.096 0.064 0.224 0.256 0.224 0.352v4.576c-0.192-0.064-0.384-0.096-0.576-0.096h-0.544v-1.664c0-0.896-0.736-1.664-1.664-1.664h-4.416c-0.928 0-1.664 0.768-1.664 1.664v1.664h-0.544c-0.192 0-0.384 0.032-0.576 0.096v-4.576c0-0.096 0.128-0.288 0.224-0.352zM29.824 25.952c0 0.096-0.224 0.288-0.544 0.288-0.352 0-0.768-0.32-0.832-0.672l-0.032-0.064c-0.192-0.832-1.056-1.472-1.92-1.472h-5.504c-0.864 0-1.728 0.64-1.92 1.472l-0.032 0.064c-0.064 0.352-0.48 0.672-0.832 0.672-0.32 0-0.544-0.192-0.544-0.288v-7.456c0-0.32 0.256-0.576 0.544-0.576h11.072c0.288 0 0.544 0.256 0.544 0.576v7.456zM8.256 5.76c-3.968 0-7.2 3.232-7.2 7.2s3.232 7.2 7.2 7.2 7.2-3.232 7.2-7.2-3.232-7.2-7.2-7.2zM8.256 19.040c-3.36 0-6.080-2.72-6.080-6.080s2.72-6.080 6.080-6.080 6.080 2.72 6.080 6.080-2.72 6.080-6.080 6.080zM12.128 12.96c0 0.288-0.256 0.544-0.544 0.544h-2.784v2.784c0 0.288-0.224 0.544-0.544 0.544s-0.544-0.256-0.544-0.544v-2.784h-2.784c-0.288 0-0.544-0.256-0.544-0.544s0.256-0.544 0.544-0.544h2.784v-2.784c0-0.288 0.256-0.544 0.544-0.544s0.544 0.256 0.544 0.544v2.784h2.784c0.288 0 0.544 0.224 0.544 0.544z"></path>
</svg>
