<?xml version="1.0" encoding="utf-8"?>
<!-- Generated by IcoMoon.io -->
<!DOCTYPE svg PUBLIC "-//W3C//DTD SVG 1.1//EN" "http://www.w3.org/Graphics/SVG/1.1/DTD/svg11.dtd">
<svg version="1.1" xmlns="http://www.w3.org/2000/svg" xmlns:xlink="http://www.w3.org/1999/xlink" width="32" height="32" viewBox="0 0 32 32">
<path d="M30.72 12.64c-0.16-0.256-0.448-0.384-0.768-0.384h-1.248c-0.192-1.6-0.736-3.2-1.536-4.608 0.32-0.16 0.576-0.448 0.672-0.8l0.288-1.152c0.064-0.32 0-0.64-0.192-0.864s-0.48-0.384-0.8-0.384h-2.496c-1.696-1.536-3.808-2.592-6.048-3.072l0.032-0.16c0.096-0.288 0.032-0.608-0.16-0.832s-0.48-0.384-0.8-0.384h-3.328c-0.32 0-0.608 0.128-0.8 0.384s-0.256 0.544-0.16 0.864l0.032 0.128c-2.208 0.448-4.256 1.504-5.952 3.008-0.032 0.032-0.032 0.064-0.064 0.064h-2.528c-0.32 0-0.608 0.16-0.8 0.384s-0.256 0.544-0.16 0.864l0.256 1.152c0.096 0.352 0.352 0.64 0.672 0.8-0.8 1.44-1.344 3.008-1.536 4.608h-1.216c-0.32 0-0.608 0.128-0.8 0.384-0.192 0.224-0.256 0.544-0.192 0.864l0.288 1.152c0.16 0.544 0.672 0.96 1.248 0.96h0.672c0.192 1.344 0.576 2.656 1.184 3.904h-0.192c-0.32 0-0.608 0.128-0.8 0.352-0.16 0.256-0.224 0.576-0.16 0.864l0.288 1.152c0.128 0.544 0.672 0.96 1.248 0.96h1.92c0.224 0.256 0.48 0.48 0.736 0.704l0.16 0.128c0.096 0.064 0.224 0.096 0.32 0.096 0.192 0 0.352-0.064 0.448-0.192 0.192-0.256 0.16-0.608-0.096-0.8l-0.128-0.096c-0.064-0.064-0.16-0.16-0.224-0.224 0.16-0.16 0.256-0.352 0.32-0.576l0.288-1.152c0.064-0.288 0-0.608-0.16-0.864-0.192-0.224-0.48-0.352-0.8-0.352h-1.952c-0.64-1.216-1.088-2.528-1.28-3.904h0.448c0.544 0 1.088-0.416 1.216-0.96l0.288-1.152c0.096-0.32 0.032-0.64-0.16-0.864-0.192-0.256-0.48-0.384-0.8-0.384h-0.992c0.224-1.6 0.768-3.072 1.6-4.448h1.632c0.544 0 1.088-0.416 1.216-0.96l0.288-1.152c0.096-0.32 0.032-0.64-0.16-0.864-0.032-0.064-0.096-0.096-0.16-0.16 1.44-1.088 3.072-1.856 4.864-2.208 0.16 0.512 0.64 0.864 1.184 0.864h2.24c0.544 0 1.024-0.352 1.216-0.864 1.76 0.352 3.392 1.12 4.832 2.208-0.064 0.064-0.096 0.096-0.16 0.16-0.192 0.224-0.256 0.544-0.16 0.864l0.288 1.152c0.128 0.544 0.672 0.96 1.216 0.96h1.632c0.832 1.344 1.376 2.88 1.6 4.448h-0.992c-0.32 0-0.608 0.128-0.8 0.384-0.16 0.224-0.224 0.544-0.16 0.864l0.288 1.152c0.128 0.544 0.672 0.96 1.248 0.96h0.416c-0.192 1.376-0.64 2.688-1.28 3.904h-1.952c-0.32 0-0.608 0.128-0.768 0.352-0.192 0.256-0.256 0.576-0.192 0.864l0.288 1.152c0.064 0.224 0.192 0.416 0.352 0.576-0.48 0.448-0.992 0.864-1.536 1.216l-4.224-8.128c0.32-0.448 0.512-1.024 0.512-1.6 0-1.568-1.248-2.816-2.784-2.816s-2.784 1.248-2.784 2.816c0 0.576 0.192 1.152 0.512 1.6l-7.136 13.728c-0.16 0.288-0.032 0.608 0.224 0.768 0.096 0.032 0.192 0.064 0.256 0.064 0.224 0 0.416-0.128 0.512-0.288l2.368-4.576c1.12 0.608 2.336 1.024 3.616 1.28l0.096 0.384c0.128 0.544 0.672 0.96 1.216 0.96h2.24c0.576 0 1.088-0.416 1.216-0.96l0.096-0.384c0.768-0.16 1.504-0.352 2.208-0.64 0.288-0.096 0.416-0.416 0.32-0.704-0.128-0.288-0.448-0.448-0.736-0.32-0.512 0.192-1.024 0.352-1.568 0.48-0.032-0.16-0.096-0.32-0.192-0.448-0.192-0.224-0.48-0.352-0.8-0.352h-3.328c-0.32 0-0.608 0.128-0.8 0.352-0.096 0.128-0.16 0.288-0.192 0.448-0.992-0.256-1.952-0.608-2.88-1.088l4.128-7.936c0.416 0.256 0.896 0.416 1.408 0.416s0.992-0.16 1.408-0.416l7.008 13.472c0.096 0.192 0.288 0.32 0.512 0.32 0.064 0 0.16-0.032 0.256-0.064 0.256-0.16 0.384-0.48 0.224-0.768l-2.4-4.608c0.8-0.512 1.536-1.12 2.208-1.824h1.92c0.576 0 1.12-0.416 1.248-0.96l0.288-1.152c0.064-0.288 0-0.608-0.16-0.864-0.192-0.224-0.48-0.352-0.8-0.352h-0.16c0.608-1.248 0.992-2.56 1.152-3.904h0.672c0.576 0 1.088-0.416 1.248-0.96l0.288-1.152c0.064-0.32 0-0.64-0.192-0.864zM7.488 20.64l-0.256 0.992c0 0.032-0.096 0.096-0.16 0.096h-2.208c-0.064 0-0.16-0.064-0.16-0.096l-0.256-0.992h3.040zM5.248 13.376l-0.256 0.992c0 0.064-0.096 0.128-0.128 0.128h-2.24c-0.064 0-0.128-0.064-0.16-0.128l-0.256-0.992h3.040zM7.776 6.56c0 0.064-0.096 0.128-0.128 0.128h-2.24c-0.064 0-0.128-0.064-0.16-0.128l-0.256-0.992h3.040l-0.256 0.992zM17.28 2.112c-0.032 0.032-0.128 0.128-0.16 0.128h-2.24c-0.032 0-0.128-0.096-0.16-0.128l-0.224-0.992h3.008l-0.224 0.992zM26.752 6.56c-0.032 0.064-0.096 0.128-0.16 0.128h-2.24c-0.032 0-0.128-0.064-0.128-0.128l-0.256-0.992h3.040l-0.256 0.992zM17.504 25.632l-0.224 1.024c-0.032 0.032-0.128 0.096-0.16 0.096h-2.24c-0.032 0-0.128-0.064-0.16-0.096l-0.224-1.024h3.008zM16 15.616c-0.928 0-1.664-0.768-1.664-1.696s0.736-1.664 1.664-1.664c0.928 0 1.664 0.768 1.664 1.664s-0.736 1.696-1.664 1.696zM27.552 20.64l-0.256 0.992c0 0.032-0.096 0.096-0.16 0.096h-2.208c-0.064 0-0.16-0.064-0.16-0.096l-0.256-0.992h3.040zM29.536 14.368c0 0.064-0.096 0.128-0.16 0.128h-2.24c-0.032 0-0.128-0.064-0.128-0.128l-0.256-0.992h3.040l-0.256 0.992z"></path>
</svg>
