<?xml version="1.0" encoding="utf-8"?>
<!-- Generated by IcoMoon.io -->
<!DOCTYPE svg PUBLIC "-//W3C//DTD SVG 1.1//EN" "http://www.w3.org/Graphics/SVG/1.1/DTD/svg11.dtd">
<svg version="1.1" xmlns="http://www.w3.org/2000/svg" xmlns:xlink="http://www.w3.org/1999/xlink" width="32" height="32" viewBox="0 0 32 32">
<path d="M31.786 11.241c-0.14-0.059-0.301-0.029-0.41 0.077-0.773 0.749-3.051 2.694-4.291 2.694-0.048 0-0.093 0.011-0.135 0.027-0.701-0.796-1.735-1.52-3.069-2.134-1.499-0.69-3.289-1.195-5.234-1.5 0.007-0.028 0.018-0.055 0.018-0.085 0-0.507 0.467-1.988 0.646-2.516 0.049-0.145 0.006-0.305-0.11-0.405-0.114-0.1-0.279-0.122-0.416-0.053 0 0-5.275 2.638-5.275 2.638-0.053 0.027-0.094 0.066-0.128 0.11-3.467 0.134-8.179 1.075-11.275 3.418-1.909 1.444-2.18 2.665-2.073 3.435 0.141 1.002 0.98 1.846 2.362 2.381 3.010 1.162 7.3 2.516 11.13 2.677 0 0 5.26 2.629 5.26 2.629 0.053 0.026 0.111 0.039 0.167 0.039 0.090 0 0.178-0.032 0.247-0.093 0.115-0.101 0.158-0.26 0.11-0.405-0.226-0.665-0.57-1.811-0.634-2.358 1.991-0.207 3.744-0.558 5.169-1.051 2.165-0.748 3.257-1.708 3.769-2.625 1.17 0.181 3.079 1.917 3.754 2.614 0.071 0.075 0.171 0.115 0.271 0.115 0.047 0 0.095-0.010 0.141-0.028 0.142-0.057 0.235-0.195 0.235-0.349 0 0 0-8.905 0-8.905 0-0.15-0.090-0.287-0.229-0.347 0 0 0 0 0 0M17.913 10.299c-0.944-0.121-1.92-0.193-2.916-0.218 0 0 3.327-1.664 3.327-1.664-0.19 0.634-0.405 1.445-0.411 1.882 0 0 0 0 0 0M0.781 16.839c-0.115-0.817 0.501-1.76 1.78-2.73 1.387-1.049 3.129-1.791 4.929-2.313 0.021 0.036 0.023 0.081 0.058 0.109 0.029 0.022 2.825 2.377 2.624 4.935-0.1 1.285-0.96 2.431-2.545 3.411-1.812-0.49-3.534-1.082-4.959-1.631-1.099-0.423-1.787-1.073-1.887-1.782 0 0 0 0 0 0M18.324 23.558c0 0-3.077-1.539-3.077-1.539 0.933-0.018 1.83-0.064 2.687-0.135 0.050 0.458 0.227 1.129 0.39 1.675 0 0 0 0 0 0M23.601 20.052c-2.325 0.803-5.554 1.228-9.341 1.228-1.18 0-2.422-0.144-3.668-0.364 0.735-0.655 1.799-1.869 1.84-3.474 0.005-0.207-0.159-0.38-0.367-0.385-0.003 0-0.006 0-0.010 0-0.204 0-0.371 0.162-0.377 0.367-0.043 1.718-1.607 2.986-2.057 3.313-0.338-0.070-0.675-0.153-1.011-0.234 1.427-1.033 2.207-2.242 2.314-3.603 0.193-2.467-1.873-4.633-2.626-5.334 2.114-0.528 4.255-0.749 5.962-0.749 3.522 0 6.827 0.629 9.306 1.772 2.386 1.099 3.701 2.526 3.701 4.017 0 1.801-1.994 2.868-3.666 3.446 0 0 0 0 0 0M31.263 19.601c-0.809-0.748-2.199-1.901-3.354-2.185 0.078-0.285 0.111-0.558 0.111-0.811 0-0.651-0.198-1.284-0.569-1.886 1.283-0.22 2.913-1.492 3.811-2.277 0 0 0 7.158 0 7.158s0 0 0 0M4.043 14.476c-0.746 0-1.353 0.607-1.353 1.353s0.607 1.353 1.353 1.353c0.746 0 1.353-0.607 1.353-1.353s-0.607-1.353-1.353-1.353c0 0 0 0 0 0M4.043 16.427c-0.331 0-0.599-0.268-0.599-0.598s0.269-0.599 0.599-0.599c0.331 0 0.598 0.269 0.598 0.599s-0.268 0.598-0.598 0.598c0 0 0 0 0 0M22.688 14.038c-2.573-1.3-5.504-1.482-7.51-1.404-2.163 0.084-3.707 0.467-3.771 0.483-0.202 0.051-0.324 0.256-0.273 0.458 0.050 0.202 0.255 0.324 0.457 0.273 0.061-0.016 6.095-1.494 10.756 0.862 0.055 0.028 0.113 0.041 0.17 0.041 0.138 0 0.271-0.075 0.336-0.207 0.095-0.186 0.021-0.412-0.164-0.506 0 0 0 0 0 0"></path>
</svg>
