<?xml version="1.0" encoding="utf-8"?>
<!-- Generated by IcoMoon.io -->
<!DOCTYPE svg PUBLIC "-//W3C//DTD SVG 1.1//EN" "http://www.w3.org/Graphics/SVG/1.1/DTD/svg11.dtd">
<svg version="1.1" xmlns="http://www.w3.org/2000/svg" xmlns:xlink="http://www.w3.org/1999/xlink" width="32" height="32" viewBox="0 0 32 32">
<path d="M19.279 10.299c0 0-0.751 0.057-0.751 0.057s0.555 7.351 0.555 7.351c0 0-1.83 0-1.83 0s0-7.275 0-7.275c0 0-0.753 0-0.753 0s0 7.275 0 7.275c0 0-1.557 0-1.557 0s0-7.275 0-7.275c0 0-0.753 0-0.753 0s0 7.275 0 7.275c0 0-1.83 0-1.83 0s0.555-7.351 0.555-7.351c0 0-0.751-0.057-0.751-0.057s-0.559 7.408-0.559 7.408c0 0-0.023 0-0.023 0s0.003 0.381 0.003 0.381c0.026 2.445 1.152 3.93 3.198 4.266-0.094 0.763-0.692 5.613-1.17 9.222 0 0-0.057 0.425-0.057 0.425s4.046 0 4.046 0c0 0-0.057-0.425-0.057-0.425-0.473-3.561-1.060-8.356-1.162-9.194 2.304-0.221 3.455-1.621 3.484-4.293 0 0 0.003-0.381 0.003-0.381s-0.031 0-0.031 0c0 0-0.559-7.409-0.559-7.409s0 0 0 0M14.413 31.248c0.474-3.603 1.040-8.194 1.118-8.835 0.033 0.001 0.063 0.006 0.096 0.007 0.081 0.663 0.641 5.245 1.114 8.828 0 0-2.327 0-2.327 0s0 0 0 0M15.724 21.675c-2.102 0-3.235-1.082-3.375-3.215 0 0 6.751 0 6.751 0-0.123 2.249-1.149 3.215-3.376 3.215 0 0 0 0 0 0M26.595 2.304c-1.611-0.573-3.254 0.242-4.087 2.029-0.781 1.675-2.003 3.468-6.643 3.562 0 0-0.039 0-0.039 0-4.449-0.090-5.754-1.792-6.891-3.839-0.893-1.605-2.403-2.32-3.849-1.815-1.457 0.506-2.581 2.223-1.91 4.525 1.12 3.839 4.99 6.217 8.058 7.067 0 0 0.010-0.826 0.010-0.826-4.382-1.214-6.667-4.129-7.344-6.451-0.565-1.937 0.348-3.227 1.435-3.604 1.315-0.457 2.406 0.507 2.943 1.471 1.206 2.172 2.691 4.128 7.541 4.225 0 0 0.054 0 0.054 0 4.839-0.097 6.378-1.978 7.319-3.997 0.67-1.437 1.907-2.082 3.152-1.637 0.562 0.199 1.35 0.769 1.728 1.718 0.332 0.834 0.255 1.769-0.222 2.701-0.994 1.946-2.885 4.658-7.808 5.734 0 0 0.161 0.735 0.161 0.735 5.839-1.277 7.706-4.928 8.317-6.129 0.732-1.428 0.541-2.594 0.252-3.321-0.469-1.18-1.431-1.883-2.176-2.147 0 0 0 0 0 0M28.471 1.453c0 0 0.938 0.74 0.938 0.74s-0.99 0.609-0.99 0.609c0 0 0.494 0.589 0.494 0.589s1.813-1.118 1.813-1.118c0 0-2.64-2.084-2.64-2.084s-0.631 1.967-0.631 1.967c0 0 0.683 0.365 0.683 0.365s0.334-1.068 0.334-1.068M2.599 2.003c0 0 0.937-0.738 0.937-0.738s0.321 1.004 0.321 1.004c0 0 0.663-0.391 0.663-0.391s-0.597-1.877-0.597-1.877c0 0-2.641 2.085-2.641 2.085s1.669 1.001 1.669 1.001c0 0 0.502-0.563 0.502-0.563s-0.854-0.519-0.854-0.519"></path>
</svg>
