<?xml version="1.0" encoding="utf-8"?>
<!-- Generated by IcoMoon.io -->
<!DOCTYPE svg PUBLIC "-//W3C//DTD SVG 1.1//EN" "http://www.w3.org/Graphics/SVG/1.1/DTD/svg11.dtd">
<svg version="1.1" xmlns="http://www.w3.org/2000/svg" xmlns:xlink="http://www.w3.org/1999/xlink" width="32" height="32" viewBox="0 0 32 32">
<path d="M4.96 14.624c-0.608-0.64-1.728-0.64-2.368 0l-1.024 1.056c-0.32 0.288-0.512 0.736-0.512 1.184s0.192 0.864 0.512 1.184l1.056 1.056c-0.16 0.096-0.32 0.192-0.48 0.32l-0.576 0.608c-0.32 0.32-0.512 0.736-0.512 1.184s0.192 0.864 0.512 1.184l3.584 3.616-1.664 1.664c-0.224 0.224-0.224 0.576-0.032 0.8 0.128 0.096 0.256 0.16 0.416 0.16 0.128 0 0.288-0.064 0.384-0.16l1.696-1.664 3.616 3.616c0.32 0.32 0.736 0.48 1.184 0.48s0.896-0.16 1.216-0.48l0.576-0.608c0.16-0.128 0.256-0.288 0.32-0.448l0.192 0.192c0.32 0.32 0.736 0.48 1.216 0.48s0.864-0.16 1.184-0.48l1.024-1.056c0.64-0.64 0.64-1.728 0-2.368l-11.52-11.52zM11.744 29.024l-0.576 0.608c-0.224 0.224-0.608 0.224-0.832 0l-4.032-4h0.032l-4-4c-0.096-0.128-0.16-0.256-0.16-0.416s0.064-0.288 0.16-0.384l0.608-0.608c0.096-0.096 0.256-0.16 0.416-0.16s0.288 0.064 0.384 0.16l8 8.032c0.128 0.096 0.192 0.224 0.192 0.384s-0.064 0.288-0.192 0.384zM15.68 27.744l-1.024 1.024c-0.224 0.192-0.576 0.192-0.8 0l-11.488-11.52c-0.128-0.096-0.192-0.256-0.192-0.384s0.064-0.288 0.192-0.416l1.024-1.024c0.096-0.096 0.224-0.16 0.384-0.16s0.288 0.064 0.416 0.16l11.488 11.52c0.224 0.192 0.224 0.576 0 0.8zM30.432 11.936c0.672-0.672 0.672-1.728 0-2.368l-3.584-3.616 1.696-1.632c0.224-0.192 0.256-0.576 0.032-0.8s-0.576-0.224-0.8 0l-1.728 1.632-3.616-3.616c-0.64-0.64-1.76-0.64-2.368 0l-0.608 0.608c-0.128 0.128-0.256 0.288-0.32 0.448l-1.088-1.056c-0.608-0.64-1.728-0.64-2.368 0l-1.024 1.024c-0.672 0.672-0.672 1.728 0 2.4l11.488 11.488c0.32 0.32 0.768 0.512 1.216 0.512s0.864-0.192 1.184-0.512l1.024-1.024c0.32-0.32 0.48-0.736 0.48-1.184s-0.16-0.864-0.48-1.184l-0.192-0.192c0.16-0.096 0.32-0.192 0.48-0.32l0.576-0.608zM28.768 14.624l-1.024 1.056c-0.224 0.192-0.576 0.192-0.8 0l-11.488-11.52c-0.224-0.224-0.224-0.576 0-0.8l1.024-1.024c0.096-0.096 0.256-0.16 0.384-0.16s0.288 0.064 0.416 0.16l11.488 11.488c0.128 0.128 0.16 0.256 0.16 0.416s-0.032 0.288-0.16 0.384zM29.664 11.136l-0.608 0.608c-0.224 0.192-0.576 0.192-0.8 0l-8-8.032c-0.128-0.096-0.16-0.224-0.16-0.384s0.032-0.288 0.16-0.384l0.576-0.608c0.128-0.096 0.256-0.16 0.416-0.16 0.128 0 0.288 0.064 0.384 0.16l8.032 8c0.192 0.224 0.192 0.576 0 0.8zM20.32 11.648c0.224 0.224 0.224 0.576 0 0.8l-7.84 7.872c-0.128 0.096-0.256 0.16-0.416 0.16s-0.288-0.064-0.384-0.16c-0.224-0.224-0.224-0.576 0-0.8l7.84-7.872c0.224-0.224 0.576-0.224 0.8 0z"></path>
</svg>
