<?xml version="1.0" encoding="utf-8"?>
<!-- Generated by IcoMoon.io -->
<!DOCTYPE svg PUBLIC "-//W3C//DTD SVG 1.1//EN" "http://www.w3.org/Graphics/SVG/1.1/DTD/svg11.dtd">
<svg version="1.1" xmlns="http://www.w3.org/2000/svg" xmlns:xlink="http://www.w3.org/1999/xlink" width="32" height="32" viewBox="0 0 32 32">
<path d="M16.106 25.871c-0.071 0-0.108-0-0.112-0-0.026-0.003-3.252 0.001-8.292-0.715-5.377-0.763-7.498-2.826-7.586-2.913-0.107-0.107-0.144-0.267-0.093-0.41 0.039-0.111 0.981-2.739 2.456-4.213 1.272-1.272 3.823-2.184 4.605-2.443l1.166-6.254c0.015-0.078 0.052-0.15 0.109-0.206 0.072-0.072 0.537-0.482 2.583-1.451 2.136-1.012 4.926-1.132 5.044-1.137 0.010-0 0.021-0 0.031 0 0.118 0.005 2.908 0.125 5.044 1.137 2.046 0.969 2.51 1.379 2.583 1.451 0.056 0.056 0.094 0.128 0.109 0.206l0.73 3.915 0.72 2.435c0.995 0.348 3.176 1.201 4.321 2.346 1.475 1.475 2.416 4.102 2.456 4.213 0.051 0.145 0.014 0.306-0.096 0.413-0.088 0.085-2.207 2.103-7.58 2.91-4.519 0.679-7.585 0.716-8.196 0.716zM15.999 25.084c0.040 0.001 3.215 0.040 8.186-0.706 4.219-0.634 6.34-2.055 6.955-2.535-0.268-0.68-1.077-2.571-2.174-3.667-1.065-1.065-3.253-1.893-4.131-2.195l-0.485-0.037c0.193 0.127 0.394 0.269 0.603 0.427 1.921 1.464 2.648 4.15 2.678 4.264 0.037 0.14-0.006 0.288-0.111 0.387l-1.953 1.836c-0.107 0.1-0.26 0.133-0.398 0.085s-0.239-0.168-0.26-0.313c-0.142-0.936-0.671-3.572-1.407-4.508-0.692-0.88-1.777-1.559-2.241-1.825-0.334 0.235-0.753 0.365-1.187 0.346-0.114 0.365-0.285 1.21-0.016 2.496 0.388 1.857 1.482 3.613 1.492 3.631 0.069 0.11 0.080 0.248 0.027 0.367s-0.161 0.205-0.289 0.229l-4.255 0.787c-0.118 0.022-0.239-0.011-0.329-0.089s-0.14-0.193-0.136-0.313c0.005-0.126 0.124-3.122 0.621-5.318 0.316-1.392 0.774-2.24 1.092-2.698-0.609 0.172-1.733 0.427-3.542 0.632-0.522 0.090-1.007 0.147-1.442 0.17-3.295 0.174-5.343-0.45-5.88-0.64-0.599 0.196-3.194 1.091-4.383 2.28-1.1 1.1-1.909 2.993-2.175 3.67 0.607 0.484 2.727 1.931 6.953 2.531 4.988 0.708 8.162 0.703 8.186 0.707zM18.924 16.189c-0.262 0.378-0.676 1.133-0.967 2.417-0.365 1.611-0.522 3.734-0.577 4.681l3.217-0.595c-0.375-0.685-1.017-1.994-1.31-3.394-0.292-1.398-0.123-2.363 0.024-2.855-0.139-0.069-0.269-0.156-0.387-0.255zM21.89 15.754c0.582 0.354 1.553 1.020 2.23 1.882 0.741 0.944 1.224 3.035 1.438 4.149l1.244-1.17c-0.209-0.644-0.92-2.547-2.327-3.618-0.998-0.761-1.793-1.083-2.276-1.219zM19.094 15.090c0.15 0.446 0.572 0.768 1.068 0.768 0.297 0 0.567-0.116 0.769-0.304 0.008-0.009 0.017-0.017 0.025-0.025 0.205-0.204 0.331-0.486 0.331-0.797 0-0.621-0.505-1.126-1.126-1.126-0.612 0-1.111 0.49-1.126 1.099zM7.877 15.217c0.694 0.215 2.566 0.681 5.38 0.533 0.407-0.022 0.865-0.076 1.362-0.162 0.009-0.002 0.018-0.003 0.028-0.004 1.779-0.201 2.867-0.452 3.43-0.611-0.837-0.339-3.037-1.174-5.063-1.475-1.818-0.27-3.918-0.417-4.729-0.467zM22.334 14.999l1.774 0.137-0.293-1.569-1.609 0.997 0.006 0.404c0.039 0.009 0.080 0.019 0.122 0.030zM8.429 12.252c0.885 0.056 2.922 0.204 4.699 0.469 2.064 0.307 4.286 1.14 5.189 1.503 0.223-0.809 0.965-1.405 1.844-1.405 0.738 0 1.38 0.42 1.699 1.034l1.8-1.116-0.658-3.527c-0.194-0.141-0.783-0.524-2.281-1.233-1.914-0.907-4.498-1.050-4.722-1.061-0.225 0.011-2.812 0.156-4.723 1.061-1.49 0.706-2.081 1.088-2.281 1.234z"></path>
</svg>
