<?xml version="1.0" encoding="utf-8"?>
<!-- Generated by IcoMoon.io -->
<!DOCTYPE svg PUBLIC "-//W3C//DTD SVG 1.1//EN" "http://www.w3.org/Graphics/SVG/1.1/DTD/svg11.dtd">
<svg version="1.1" xmlns="http://www.w3.org/2000/svg" xmlns:xlink="http://www.w3.org/1999/xlink" width="32" height="32" viewBox="0 0 32 32">
<path d="M18.716 25.704c-0.003 0-0.005-0-0.008-0h-2.403c-0.209 0-0.379-0.169-0.379-0.379s0.169-0.379 0.379-0.379h2.105l0.235-1.087c-3.85-0.502-7.135-3.227-8.29-6.992l-5.255-1.112c-0.54 0.549-1.291 0.889-2.121 0.889-1.642 0-2.978-1.336-2.978-2.978 0-0.903 0.404-1.714 1.041-2.26l-0.672-2.331c-0.033-0.114-0.010-0.237 0.061-0.332s0.184-0.151 0.303-0.151h1.251c0.152 0 0.288 0.091 0.348 0.23l0.799 1.87c1.321 0.067 2.418 0.999 2.734 2.239h4.583c-0.066-0.152-0.102-0.319-0.102-0.494v-0.636c0-0.69 0.561-1.252 1.252-1.252h4.002v-3.497h-13.789c-0.209 0-0.379-0.169-0.379-0.379s0.169-0.379 0.379-0.379h29.812c0.209 0 0.379 0.169 0.379 0.379s-0.169 0.379-0.379 0.379h-13.789v3.497h1.601c0.69 0 1.252 0.561 1.252 1.252v0.636c0 0.175-0.036 0.343-0.102 0.494h0.014c1.808 0 3.488 0.559 4.877 1.512 0.029 0.015 0.056 0.034 0.079 0.055 2.223 1.563 3.678 4.148 3.678 7.067v0.116c0 1.077-0.757 1.98-1.766 2.206l0.229 1.058h1.913c0.209 0 0.379 0.169 0.379 0.379s-0.169 0.379-0.379 0.379h-10.882c-0.002 0-0.005 0-0.007 0zM19.184 24.947h7.734l-0.217-1.004h-6.774c-0.176 0-0.35-0.005-0.524-0.014zM5.596 15.087l5.136 1.087c0.138 0.029 0.248 0.132 0.286 0.268 1.118 3.971 4.783 6.745 8.911 6.745h7.042c0.829 0 1.504-0.674 1.504-1.504v-0.116c0-0.617-0.071-1.217-0.206-1.794-0.008 0-0.016 0.001-0.025 0.001h-2.933c-1.291 0-2.438-0.774-2.92-1.972l-0.593-1.472c-0.175-0.433-0.123-0.922 0.138-1.309s0.696-0.618 1.163-0.618h0.773c-0.997-0.457-2.106-0.713-3.273-0.713h-14.641c-0 0.041-0.002 0.083-0.003 0.124-0.019 0.399-0.117 0.778-0.28 1.121-0.024 0.052-0.050 0.103-0.078 0.153zM23.097 15.159c-0.218 0-0.413 0.104-0.535 0.284s-0.145 0.4-0.064 0.603l0.593 1.473c0.367 0.91 1.237 1.498 2.218 1.498h2.741c-0.537-1.566-1.555-2.911-2.876-3.857zM1.662 11.879c-0.548 0.405-0.905 1.056-0.905 1.788 0 1.225 0.996 2.221 2.221 2.221 0.89 0 1.66-0.527 2.014-1.285 0.115-0.247 0.184-0.514 0.202-0.788 0.003-0.049 0.005-0.098 0.005-0.148 0-0.091-0.008-0.188-0.024-0.305-0.002-0.015-0.003-0.030-0.003-0.045-0.168-1.059-1.088-1.872-2.193-1.872l-0.028 0c-0.018 0.003-0.036 0.005-0.054 0.006-0.434 0.016-0.849 0.156-1.201 0.406-0.011 0.008-0.022 0.015-0.033 0.021zM11.585 12.932h7.861c0.267-0.007 0.482-0.226 0.482-0.494v-0.636c0-0.273-0.222-0.494-0.494-0.494h-7.836c-0.273 0-0.494 0.222-0.494 0.494v0.636c0 0.268 0.215 0.488 0.482 0.494zM1.236 9.35l0.468 1.625c0.199-0.095 0.411-0.168 0.631-0.217l-0.602-1.409-0.497 0zM16.356 10.55h0.719v-3.497h-0.719v3.497zM19.038 18.852c-0.845 0-1.533-0.688-1.533-1.533s0.688-1.533 1.533-1.533c0.845 0 1.533 0.688 1.533 1.533s-0.688 1.533-1.533 1.533zM19.038 16.543c-0.428 0-0.776 0.348-0.776 0.776s0.348 0.776 0.776 0.776c0.428 0 0.776-0.348 0.776-0.776s-0.348-0.776-0.776-0.776zM15.038 18.852c-0.845 0-1.533-0.688-1.533-1.533s0.688-1.533 1.533-1.533 1.533 0.688 1.533 1.533c0 0.845-0.688 1.533-1.533 1.533zM15.038 16.543c-0.428 0-0.776 0.348-0.776 0.776s0.348 0.776 0.776 0.776c0.428 0 0.776-0.348 0.776-0.776s-0.348-0.776-0.776-0.776zM2.978 14.224c-0.307 0-0.557-0.25-0.557-0.557s0.25-0.557 0.557-0.557c0.307 0 0.557 0.25 0.557 0.557s-0.25 0.557-0.557 0.557zM2.978 13.466c-0.11 0-0.2 0.090-0.2 0.2s0.090 0.2 0.2 0.2c0.11 0 0.2-0.090 0.2-0.2s-0.090-0.2-0.2-0.2z"></path>
</svg>
