<?xml version="1.0" encoding="utf-8"?>
<!-- Generated by IcoMoon.io -->
<!DOCTYPE svg PUBLIC "-//W3C//DTD SVG 1.1//EN" "http://www.w3.org/Graphics/SVG/1.1/DTD/svg11.dtd">
<svg version="1.1" xmlns="http://www.w3.org/2000/svg" xmlns:xlink="http://www.w3.org/1999/xlink" width="32" height="32" viewBox="0 0 32 32">
<path d="M16.791 32h-1.581c-0.785 0-1.424-0.639-1.424-1.424v-2.905c0-0.213 0.047-0.416 0.132-0.598h-3.791v0.034c0 1.666-1.164 3.021-2.595 3.021s-2.595-1.355-2.595-3.021v-16.487c0-2.083 0.851-4.028 2.531-5.781 3.233-3.374 8.133-4.514 12.538-2.936l2.898-1.839c0.093-0.059 0.205-0.078 0.311-0.054s0.2 0.089 0.258 0.182l1.523 2.401c0.122 0.192 0.065 0.448-0.127 0.57l-1.267 0.804c0.325 0.274 0.637 0.566 0.931 0.873 0.318 0.332 0.606 0.67 0.864 1.015l0.857-0.544c0.193-0.122 0.448-0.065 0.57 0.128s0.065 0.447-0.127 0.57l-0.832 0.528c0.798 1.284 1.201 2.652 1.201 4.084v16.487c0 1.666-1.164 3.021-2.595 3.021s-2.595-1.355-2.595-3.021v-0.034h-3.791c0.085 0.182 0.132 0.385 0.132 0.598v2.905c-0 0.785-0.639 1.424-1.424 1.424zM15.209 27.073c-0.33 0-0.598 0.268-0.598 0.598v2.905c0 0.33 0.268 0.598 0.598 0.598h1.581c0.33 0 0.598-0.268 0.598-0.598v-2.905c0-0.33-0.268-0.598-0.598-0.598h-1.581zM22.699 26.662v0.445c0 1.21 0.794 2.195 1.77 2.195s1.77-0.985 1.77-2.195v-16.487c0-1.27-0.36-2.489-1.073-3.641l-3.37 2.139c0.848 1.532 0.902 3.167 0.904 3.26v0.558l0 0.010-0 0.010v2.485l0 0.009-0 0.009 0 4.533v6.667zM15.988 2.029c-2.943 0-5.816 1.179-7.925 3.381-1.527 1.594-2.302 3.347-2.302 5.21v16.487c0 1.21 0.794 2.195 1.77 2.195s1.77-0.985 1.77-2.195v-8.366l-0.206 0.131c-0.070 0.044-0.149 0.068-0.231 0.064-0.031 0.002-0.067-0.002-0.1-0.010-0.107-0.024-0.2-0.089-0.258-0.182l-1.524-2.401c-0.122-0.192-0.065-0.447 0.128-0.57l2.192-1.391v-1.996c0.001-0.050 0.015-0.487 0.136-1.104l-2.787 1.769c-0.193 0.122-0.448 0.065-0.57-0.127s-0.065-0.448 0.127-0.57l3.555-2.256c0.314-0.87 0.841-1.823 1.725-2.541 0.213-0.173 0.444-0.345 0.688-0.512 1.287-0.881 2.782-1.273 4.256-1.179l2.24-1.421c-0.246-0.684-0.062-1.459 0.471-1.958-1.038-0.309-2.101-0.46-3.153-0.46zM16.791 26.247h5.083v-3.138h-11.747v3.138h6.664zM10.126 22.284h11.747v-1.871h-11.747v1.871zM10.126 19.587h11.747v-3.724h-8.601c-0.142 0.317-0.375 0.596-0.689 0.796h0l-2.457 1.559v1.37h0zM7.92 16.25l1.075 1.695 0.497-0.315c0.027-0.017 0.056-0.031 0.085-0.041l2.563-1.626c0.444-0.281 0.593-0.854 0.357-1.313-0.025-0.023-0.047-0.050-0.066-0.080-0.018-0.028-0.032-0.058-0.042-0.088-0.317-0.398-0.891-0.502-1.33-0.224zM13.433 15.038h8.441v-1.679h-6.763l-1.784 1.132c0.064 0.179 0.099 0.363 0.106 0.547zM10.126 13.359v0.514l0.491-0.312c0.139-0.088 0.286-0.155 0.436-0.202zM12.144 13.359c0.272 0.084 0.526 0.232 0.737 0.437l0.689-0.437h-1.425zM16.412 12.533h5.462v-0.145c-0-0.012-0.052-1.474-0.78-2.825zM10.126 12.533h4.745l5.774-3.663c-0.188-0.241-0.404-0.468-0.653-0.67-0.197-0.16-0.41-0.319-0.634-0.471-0.834-0.571-1.769-0.909-2.721-1.012l-6.183 3.923c-0.302 0.954-0.328 1.745-0.328 1.76v0.135zM15.021 6.763c-0.833 0.141-1.644 0.463-2.378 0.965-0.225 0.154-0.438 0.313-0.634 0.471-0.382 0.31-0.687 0.678-0.93 1.065zM17.664 6.064c0.755 0.194 1.486 0.521 2.161 0.982 0.242 0.166 0.474 0.338 0.688 0.512 0.323 0.262 0.599 0.556 0.834 0.866l3.352-2.127c-0.228-0.301-0.482-0.597-0.76-0.888v0c-0.331-0.346-0.686-0.671-1.059-0.971l-1.475 0.936c-0.304 0.193-0.644 0.285-0.98 0.285h-0.022c-0.471 0-0.935-0.181-1.283-0.519zM20.365 2.653c-0.023 0.023-0.048 0.044-0.076 0.062l-0.409 0.26c-0.47 0.298-0.609 0.923-0.311 1.393 0.19 0.299 0.513 0.465 0.843 0.468 0.181-0.002 0.363-0.053 0.527-0.157l3.14-1.992-1.081-1.704z"></path>
</svg>
