<?xml version="1.0" encoding="utf-8"?>
<!-- Generated by IcoMoon.io -->
<!DOCTYPE svg PUBLIC "-//W3C//DTD SVG 1.1//EN" "http://www.w3.org/Graphics/SVG/1.1/DTD/svg11.dtd">
<svg version="1.1" xmlns="http://www.w3.org/2000/svg" xmlns:xlink="http://www.w3.org/1999/xlink" width="32" height="32" viewBox="0 0 32 32">
<path d="M12.179 30.906c-0.098 0-0.196-0.037-0.27-0.112-0.149-0.149-0.149-0.391 0-0.541l12.443-12.444c-0.498-0.75-0.417-1.774 0.244-2.434 0.044-0.044 0.091-0.086 0.142-0.128l4.427-4.427c0.143-0.143 0.397-0.143 0.541 0l2.182 2.182c0.149 0.149 0.149 0.391 0 0.541l-4.524 4.524c-0.015 0.016-0.025 0.028-0.037 0.040-0.365 0.365-0.85 0.566-1.366 0.566-0.386 0-0.755-0.112-1.069-0.322l-12.443 12.443c-0.075 0.075-0.173 0.112-0.27 0.112zM29.436 11.632l-4.171 4.171c-0.010 0.010-0.020 0.019-0.031 0.028-0.033 0.027-0.066 0.055-0.097 0.086-0.455 0.455-0.455 1.195-0 1.65s1.195 0.455 1.65 0l0.023-0.026c0.003-0.003 0.005-0.005 0.007-0.008l4.26-4.26zM5.201 27.698c-0.291 0-0.571-0.114-0.784-0.328-0.283-0.283-0.392-0.683-0.291-1.069 0.606-2.328 2.671-8.398 8.746-14.473 6.047-6.047 12.535-8.56 15.044-9.36 0.4-0.127 0.833-0.023 1.13 0.274s0.401 0.73 0.274 1.13c-0.8 2.509-3.313 8.997-9.36 15.044v0c-6.075 6.075-12.145 8.14-14.473 8.746-0.095 0.025-0.191 0.037-0.285 0.037zM28.26 3.179c-0.035 0-0.072 0.005-0.112 0.018-2.456 0.783-8.808 3.244-14.736 9.172-5.942 5.942-7.956 11.858-8.546 14.125-0.045 0.175 0.049 0.293 0.092 0.336s0.162 0.137 0.336 0.092c2.267-0.59 8.183-2.604 14.125-8.547v0c5.928-5.928 8.389-12.28 9.172-14.736 0.059-0.185-0.041-0.311-0.086-0.357-0.036-0.036-0.121-0.104-0.244-0.104zM7.049 25.121c-0.098 0-0.196-0.037-0.27-0.112-0.149-0.149-0.149-0.391 0-0.541l6.327-6.327c0.149-0.149 0.391-0.149 0.541 0s0.149 0.391 0 0.541l-6.327 6.327c-0.075 0.075-0.172 0.112-0.27 0.112zM2.564 21.292c-0.101 0-0.199-0.040-0.27-0.112l-2.182-2.182c-0.149-0.149-0.149-0.391 0-0.541l4.523-4.524c0.015-0.017 0.027-0.030 0.039-0.042 0.659-0.659 1.683-0.74 2.432-0.242l12.444-12.444c0.149-0.149 0.391-0.149 0.541 0s0.149 0.391 0 0.541l-12.444 12.443c0.498 0.75 0.417 1.774-0.244 2.434-0.043 0.043-0.090 0.085-0.142 0.128l-4.427 4.427c-0.072 0.072-0.169 0.112-0.27 0.112zM0.923 18.727l1.641 1.641 4.171-4.171c0.010-0.010 0.020-0.019 0.031-0.028 0.033-0.027 0.066-0.055 0.097-0.086 0.455-0.455 0.455-1.195 0-1.65s-1.195-0.455-1.65 0l-0.023 0.026c-0.003 0.003-0.005 0.005-0.008 0.008zM16.782 18.155c-0.841 0-1.633-0.328-2.227-0.923s-0.923-1.386-0.923-2.227c0-0.841 0.328-1.633 0.923-2.227 1.228-1.228 3.227-1.228 4.455 0 0.595 0.595 0.923 1.386 0.923 2.227s-0.328 1.633-0.923 2.227c-0.595 0.595-1.386 0.923-2.228 0.923zM16.782 12.621c-0.611 0-1.222 0.233-1.687 0.698-0.45 0.451-0.699 1.050-0.699 1.687s0.248 1.236 0.699 1.687c0.93 0.93 2.443 0.93 3.374 0 0.45-0.45 0.699-1.050 0.699-1.687s-0.248-1.236-0.699-1.687c-0.465-0.465-1.076-0.698-1.687-0.698zM20.113 12.057c-0.098 0-0.196-0.037-0.27-0.112-0.149-0.149-0.149-0.391 0-0.541l6.327-6.327c0.149-0.149 0.391-0.149 0.541 0s0.149 0.391 0 0.541l-6.327 6.327c-0.075 0.074-0.172 0.112-0.27 0.112z"></path>
</svg>
