<?xml version="1.0" encoding="utf-8"?>
<!-- Generated by IcoMoon.io -->
<!DOCTYPE svg PUBLIC "-//W3C//DTD SVG 1.1//EN" "http://www.w3.org/Graphics/SVG/1.1/DTD/svg11.dtd">
<svg version="1.1" xmlns="http://www.w3.org/2000/svg" xmlns:xlink="http://www.w3.org/1999/xlink" width="32" height="32" viewBox="0 0 32 32">
<path d="M28.191 31.516c-0.876 0-1.612-0.609-1.807-1.425h-16.191c-0.196 0.816-0.932 1.425-1.807 1.425-1.025 0-1.858-0.834-1.858-1.858 0-0.876 0.609-1.612 1.425-1.807v-0.983c-1.908 0.253-2.861 0.907-2.873 0.915-0.141 0.099-0.328 0.106-0.475 0.016s-0.228-0.257-0.205-0.428l2.475-18.15-4.294-5.068h-2.149c-0.239 0-0.433-0.194-0.433-0.433s0.194-0.433 0.433-0.433h2.35c0.127 0 0.248 0.056 0.33 0.153l4.418 5.216h20.193c1.084 0 2.005 0.811 2.141 1.887l2.131 16.833c0.018 0.143-0.036 0.285-0.144 0.38s-0.257 0.13-0.395 0.093c-0.023-0.006-1.343-0.351-2.833-0.649v0.651c0.817 0.195 1.425 0.932 1.425 1.807 0 1.025-0.833 1.858-1.858 1.858zM28.191 28.665c-0.547 0-0.993 0.445-0.993 0.993s0.445 0.993 0.993 0.993c0.547 0 0.993-0.445 0.993-0.993s-0.445-0.993-0.993-0.993zM8.386 28.665c-0.547 0-0.993 0.445-0.993 0.993s0.445 0.993 0.993 0.993c0.547 0 0.992-0.445 0.992-0.993s-0.445-0.993-0.992-0.993zM10.193 29.225h16.191c0.162-0.678 0.697-1.212 1.374-1.374v-0.814c-0.873-0.153-1.731-0.267-2.36-0.267-0.881 0-2.248 0.228-3.696 0.47-1.75 0.292-3.733 0.623-5.312 0.623-1.444 0-2.431-0.276-3.385-0.543-0.969-0.271-1.972-0.551-3.517-0.551-0.233 0-0.456 0.006-0.671 0.018v1.063c0.678 0.162 1.212 0.697 1.375 1.374zM9.489 25.904c1.664 0 2.725 0.296 3.75 0.583 0.94 0.263 1.827 0.51 3.152 0.51 1.507 0 3.452-0.325 5.169-0.611 1.484-0.248 2.886-0.482 3.838-0.482 1.59 0 4.41 0.645 5.659 0.951l-2.052-16.204c-0.082-0.644-0.633-1.13-1.282-1.13h-20.016l-2.337 17.137c0.784-0.337 2.15-0.754 4.117-0.754zM7.52 24.634c-0.015 0-0.030-0.001-0.044-0.002-0.238-0.024-0.411-0.237-0.387-0.474l1.385-13.559c0.024-0.238 0.238-0.411 0.474-0.387 0.238 0.024 0.411 0.237 0.387 0.474l-1.385 13.559c-0.023 0.223-0.211 0.389-0.43 0.389zM10.809 24.634c-0.006 0-0.013-0-0.019-0-0.239-0.011-0.424-0.213-0.413-0.451l0.289-6.52c0.011-0.239 0.216-0.422 0.451-0.413 0.239 0.011 0.424 0.213 0.413 0.451l-0.288 6.52c-0.010 0.232-0.202 0.413-0.432 0.413zM24.245 7.971h-11.816c-0.239 0-0.433-0.194-0.433-0.433 0-3.152 2.613-5.741 5.908-5.951v-0.67c0-0.239 0.194-0.433 0.433-0.433s0.433 0.194 0.433 0.433v0.67c3.295 0.21 5.908 2.798 5.908 5.951-0 0.239-0.194 0.433-0.433 0.433zM12.882 7.105h10.911c-0.236-2.61-2.593-4.666-5.456-4.666s-5.219 2.056-5.456 4.666z"></path>
</svg>
