<?xml version="1.0" encoding="utf-8"?>
<!-- Generated by IcoMoon.io -->
<!DOCTYPE svg PUBLIC "-//W3C//DTD SVG 1.1//EN" "http://www.w3.org/Graphics/SVG/1.1/DTD/svg11.dtd">
<svg version="1.1" xmlns="http://www.w3.org/2000/svg" xmlns:xlink="http://www.w3.org/1999/xlink" width="32" height="32" viewBox="0 0 32 32">
<path d="M16.64 3.936c-0.352 0-0.608 0.288-0.608 0.64s0.256 0.608 0.608 0.608c4.896 0 8.864 3.968 8.864 8.864 0 0.352 0.288 0.64 0.64 0.64 0.32 0 0.608-0.288 0.608-0.64 0-5.568-4.544-10.112-10.112-10.112zM11.456 4.768c-0.128-0.096-0.32-0.128-0.48-0.064-0.192 0.064-0.32 0.16-0.416 0.32l-5.376 11.232c-0.16 0.288-0.064 0.64 0.192 0.8 0.096 0.032 0.128 0.096 0.224 0.128l-2.784 2.752c-0.992 1.024-1.568 2.4-1.568 3.84s0.576 2.784 1.568 3.808c1.024 1.024 2.368 1.568 3.84 1.568 1.152 0 2.272-0.384 3.2-1.088 0.032 0.096 0.064 0.192 0.128 0.256 0.992 0.992 2.24 1.536 3.424 1.536v0c0.832 0 1.568-0.288 2.112-0.8 0.224-0.256 0.224-0.64 0-0.896-0.256-0.224-0.64-0.224-0.864 0-0.384 0.384-0.896 0.48-1.248 0.48v0c-0.832 0-1.792-0.448-2.528-1.184-0.064-0.064-0.128-0.096-0.192-0.128l2.528-2.496c0.032 0.064 0.096 0.128 0.128 0.192 0.128 0.16 0.32 0.256 0.544 0.256 0.064 0 0.16 0 0.256-0.032l11.232-5.408c0.16-0.096 0.288-0.224 0.32-0.384 0.064-0.192 0.032-0.384-0.064-0.512-3.744-5.664-8.512-10.432-14.176-14.176zM9.568 26.688c-1.568 1.6-4.288 1.6-5.856 0-0.8-0.768-1.248-1.824-1.248-2.912s0.448-2.176 1.248-2.944l2.88-2.912c2.24 1.664 4.224 3.648 5.888 5.888l-2.912 2.88zM14.080 23.872c-2.048-2.976-4.576-5.504-7.552-7.552l4.832-10.112c5.088 3.424 9.408 7.744 12.832 12.832l-10.112 4.832zM16.64 0c-0.352 0-0.608 0.288-0.608 0.608s0.256 0.64 0.608 0.64c7.072 0 12.832 5.728 12.832 12.8 0 0.352 0.256 0.64 0.608 0.64s0.608-0.288 0.608-0.64c0-7.744-6.304-14.048-14.048-14.048z"></path>
</svg>
