<?xml version="1.0" encoding="utf-8"?>
<!-- Generated by IcoMoon.io -->
<!DOCTYPE svg PUBLIC "-//W3C//DTD SVG 1.1//EN" "http://www.w3.org/Graphics/SVG/1.1/DTD/svg11.dtd">
<svg version="1.1" xmlns="http://www.w3.org/2000/svg" xmlns:xlink="http://www.w3.org/1999/xlink" width="32" height="32" viewBox="0 0 32 32">
<path d="M27.643 25.528h-11.431c-0.004 0-0.008 0-0.013 0h-15.836c-0.136 0-0.26-0.075-0.323-0.195s-0.053-0.265 0.024-0.376l12.798-18.329c-0 0 0 0 0 0v0l0-0c0-0 0-0 0.001-0.001s0-0 0-0.001 0-0 0.001-0.001v0c0-0 0-0.001 0-0.001v0c0-0 0.001-0.001 0.001-0.001v0c0.001-0.002 0.003-0.004 0.005-0.006v0c0-0 0.001-0.001 0.001-0.002v-0c0-0 0-0 0.001-0.001l0-0c0-0 0-0.001 0.001-0.001s0-0 0-0.001 0.001-0 0-0.001c0.051-0.066 0.125-0.114 0.212-0.133 0.010-0.002 0.020-0.004 0.030-0.005 0.145-0.018 0.283 0.053 0.355 0.171l5.672 8.835 3.182-4.557c0.040-0.059 0.099-0.107 0.171-0.135 0.006-0.002 0.012-0.004 0.018-0.006h0c0.162-0.053 0.336 0.015 0.422 0.156l9.007 14.030c0.072 0.112 0.077 0.254 0.013 0.371s-0.186 0.189-0.319 0.189h-3.985c-0.002-0-0.005-0-0.008-0zM27.899 24.801h3.071l-6.931-10.796zM25.127 24.801h2l-4.606-12.886-2.952 4.228zM16.514 24.801h7.745l-5.436-8.467c-0.009-0.014-0.016-0.027-0.023-0.042l-4.99-7.774zM1.061 24.801h14.716l-2.828-17.026z"></path>
</svg>
