<?xml version="1.0" encoding="utf-8"?>
<!-- Generated by IcoMoon.io -->
<!DOCTYPE svg PUBLIC "-//W3C//DTD SVG 1.1//EN" "http://www.w3.org/Graphics/SVG/1.1/DTD/svg11.dtd">
<svg version="1.1" xmlns="http://www.w3.org/2000/svg" xmlns:xlink="http://www.w3.org/1999/xlink" width="32" height="32" viewBox="0 0 32 32">
<path d="M16 16c3.615 0 6.546 2.93 6.546 6.546s-2.93 6.545-6.546 6.545-6.546-2.93-6.546-6.545c0-3.615 2.93-6.546 6.546-6.546zM16 27.636c2.812 0 5.091-2.279 5.091-5.091s-2.279-5.091-5.091-5.091-5.091 2.279-5.091 5.091 2.279 5.091 5.091 5.091zM16 3.636c2.812 0 5.091 2.279 5.091 5.091s-2.279 5.091-5.091 5.091-5.091-2.279-5.091-5.091 2.279-5.091 5.091-5.091zM16 12.364c2.009 0 3.636-1.628 3.636-3.636s-1.628-3.636-3.636-3.636-3.636 1.628-3.636 3.636 1.628 3.636 3.636 3.636zM16 10.909c-1.204 0-2.182-0.977-2.182-2.182s0.977-2.182 2.182-2.182 2.182 0.977 2.182 2.182c0 1.205-0.977 2.182-2.182 2.182zM16 8c-0.402 0-0.727 0.325-0.727 0.727s0.325 0.727 0.727 0.727 0.727-0.325 0.727-0.727c0-0.402-0.325-0.727-0.727-0.727zM23.273 29.091c-0.402 0-0.727-0.325-0.727-0.727s0.325-0.727 0.727-0.727c0.402 0 0.727 0.325 0.727 0.727s-0.325 0.727-0.727 0.727zM23.273 4.364c-0.402 0-0.727-0.325-0.727-0.727s0.325-0.727 0.727-0.727c0.402 0 0.727 0.325 0.727 0.727s-0.325 0.727-0.727 0.727zM8.727 29.091c-0.402 0-0.727-0.325-0.727-0.727s0.325-0.727 0.727-0.727c0.402 0 0.727 0.325 0.727 0.727s-0.325 0.727-0.727 0.727zM16 24.727c-1.204 0-2.182-0.977-2.182-2.182s0.977-2.182 2.182-2.182 2.182 0.977 2.182 2.182-0.977 2.182-2.182 2.182zM16 21.818c-0.402 0-0.727 0.325-0.727 0.727s0.325 0.727 0.727 0.727 0.727-0.325 0.727-0.727c0-0.402-0.325-0.727-0.727-0.727zM26.182 0c0.402 0 0.727 0.325 0.727 0.727v30.545c0 0.402-0.325 0.727-0.727 0.727h-20.364c-0.402 0-0.727-0.325-0.727-0.727v-30.545c0-0.402 0.325-0.727 0.727-0.727h20.364zM25.454 30.545v-29.091h-18.909v29.091h18.909zM8.727 4.364c-0.402 0-0.727-0.325-0.727-0.727s0.325-0.727 0.727-0.727c0.402 0 0.727 0.325 0.727 0.727s-0.325 0.727-0.727 0.727z"></path>
</svg>
