<?xml version="1.0" encoding="utf-8"?>
<!-- Generated by IcoMoon.io -->
<!DOCTYPE svg PUBLIC "-//W3C//DTD SVG 1.1//EN" "http://www.w3.org/Graphics/SVG/1.1/DTD/svg11.dtd">
<svg version="1.1" xmlns="http://www.w3.org/2000/svg" xmlns:xlink="http://www.w3.org/1999/xlink" width="32" height="32" viewBox="0 0 32 32">
<path d="M20.032 8.064c-0.064-0.064-0.096-0.128-0.16-0.192-0.352-0.512-0.864-1.248-1.952-1.248h-4.608c-1.056 0-1.568 0.704-1.952 1.248-0.032 0.064-0.096 0.128-0.16 0.224l-0.832 1.312h-1.344c-1.088 0-1.856 0.672-1.856 1.664v9.568c0 0.288 0.128 0.512 0.192 0.672 0.032 0.032 0.064 0.064 0.096 0.128 0.064 0.192 0.288 0.32 0.512 0.32 0.064 0 0.128 0 0.192-0.032 0.288-0.128 0.416-0.448 0.32-0.736-0.064-0.064-0.096-0.16-0.16-0.256-0.032-0.032-0.064-0.096-0.064-0.096v-9.568c0-0.512 0.576-0.576 0.768-0.576h1.632c0.192 0 0.384-0.096 0.48-0.256l0.96-1.504c0.064-0.064 0.128-0.16 0.192-0.224 0.352-0.512 0.544-0.768 1.024-0.768h4.608c0.48 0 0.704 0.288 1.056 0.768 0.064 0.064 0.096 0.16 0.128 0.192l0.224 0.32c0.16 0.256 0.512 0.352 0.768 0.192 0.256-0.192 0.32-0.512 0.16-0.768l-0.224-0.384zM17.12 10.752c-0.48-0.16-0.992-0.224-1.504-0.224-2.848 0-5.152 2.304-5.152 5.152 0 0.512 0.064 0.992 0.192 1.472 0.064 0.256 0.288 0.416 0.544 0.416 0.032 0 0.096-0.032 0.16-0.032 0.288-0.096 0.448-0.384 0.352-0.704-0.096-0.352-0.16-0.736-0.16-1.152 0-2.24 1.824-4.064 4.064-4.064 0.416 0 0.8 0.064 1.184 0.192 0.288 0.096 0.608-0.064 0.704-0.384s-0.096-0.576-0.384-0.672zM16 0c-8.224 0-14.944 6.688-14.944 14.944 0 8.224 6.72 14.912 14.944 14.912s14.944-6.688 14.944-14.912c0-8.256-6.72-14.944-14.944-14.944zM16 28.768c-3.456 0-6.656-1.28-9.088-3.424l2.752-2.752c0.064 0.064 0.16 0.096 0.256 0.096h13.6c1.12 0 1.888-1.088 1.888-2.048v-9.568c0-0.992-0.768-1.664-1.888-1.664h-0.64l3.456-3.488-0.768-0.768-4.416 4.416c0 0 0 0 0 0l-15.040 15.008c-2.432-2.496-3.936-5.888-3.936-9.632 0-7.648 6.208-13.824 13.824-13.824s13.824 6.176 13.824 13.824c0 7.616-6.208 13.824-13.824 13.824zM15.616 20.864c2.848 0 5.184-2.336 5.184-5.184 0-1.12-0.384-2.24-1.088-3.136l2.048-2.048h1.76c0.192 0 0.768 0.064 0.768 0.576v9.568c0 0.448-0.384 0.928-0.768 0.928h-12.832l1.792-1.76c0.896 0.672 2.016 1.056 3.136 1.056zM13.28 19.008l5.632-5.664c0.512 0.672 0.768 1.504 0.768 2.336 0 2.24-1.824 4.064-4.064 4.064-0.864 0-1.664-0.256-2.336-0.736zM22.080 12.704h1.12c0.288 0 0.544-0.224 0.544-0.544s-0.256-0.544-0.544-0.544h-1.12c-0.288 0-0.544 0.256-0.544 0.544s0.256 0.544 0.544 0.544z"></path>
</svg>
