<?xml version="1.0" encoding="utf-8"?>
<!-- Generated by IcoMoon.io -->
<!DOCTYPE svg PUBLIC "-//W3C//DTD SVG 1.1//EN" "http://www.w3.org/Graphics/SVG/1.1/DTD/svg11.dtd">
<svg version="1.1" xmlns="http://www.w3.org/2000/svg" xmlns:xlink="http://www.w3.org/1999/xlink" width="32" height="32" viewBox="0 0 32 32">
<path d="M16 17.152h-1.12c-0.288 0-0.544 0.224-0.544 0.544s0.256 0.544 0.544 0.544h1.12c0.32 0 0.544-0.224 0.544-0.544s-0.224-0.544-0.544-0.544zM11.584 17.696c0-0.32-0.256-0.544-0.576-0.544h-2.208v-4.448h2.208c0.32 0 0.576-0.224 0.576-0.544s-0.256-0.544-0.576-0.544h-8.288c-0.896 0-1.664 0.736-1.664 1.664v3.296c0 0.928 0.768 1.664 1.664 1.664h8.32c0.288 0 0.544-0.224 0.544-0.544zM7.712 17.152h-4.992c-0.288 0-0.544-0.256-0.544-0.576v-3.296c0-0.32 0.256-0.576 0.544-0.576h4.992v4.448zM14.88 12.704h1.12c0.32 0 0.544-0.224 0.544-0.544s-0.224-0.544-0.544-0.544h-1.12c-0.288 0-0.544 0.256-0.544 0.544s0.256 0.544 0.544 0.544zM29.408 4.704c0.832-0.832 1.248-1.728 1.152-2.592-0.128-1.248-1.184-1.984-1.248-2.016-0.256-0.16-0.608-0.096-0.768 0.16s-0.096 0.576 0.16 0.768c0 0 0.672 0.448 0.736 1.184 0.064 0.544-0.224 1.12-0.832 1.728-2.080 2.080-0.896 4.384 0 5.312 0.128 0.096 0.256 0.16 0.416 0.16s0.256-0.064 0.384-0.16c0.192-0.224 0.192-0.576 0-0.8-0.096-0.064-1.856-1.888 0-3.744zM30.368 11.616c-0.288 0-0.544 0.256-0.544 0.544v5.536c0 0.32 0.256 0.544 0.544 0.544 0.32 0 0.576-0.224 0.576-0.544v-5.536c0-0.288-0.256-0.544-0.576-0.544zM16.224 14.944l7.904-7.904c0.224-0.224 0.224-0.576 0-0.8s-0.544-0.224-0.768 0l-7.904 7.904-7.904-7.904c-0.224-0.224-0.576-0.224-0.8 0-0.192 0.224-0.192 0.576 0 0.8l7.904 7.904-7.904 7.904c-0.192 0.192-0.192 0.544 0 0.768 0.128 0.096 0.256 0.16 0.416 0.16s0.256-0.064 0.384-0.16l7.904-7.904 7.904 7.904c0.096 0.096 0.256 0.16 0.384 0.16s0.288-0.064 0.384-0.16c0.224-0.224 0.224-0.576 0-0.768l-7.904-7.904zM28.16 11.616c-0.288 0-0.544 0.256-0.544 0.544v5.536c0 0.32 0.256 0.544 0.544 0.544s0.576-0.224 0.576-0.544v-5.536c0-0.288-0.256-0.544-0.576-0.544zM24.864 11.616h-4.992c-0.288 0-0.544 0.256-0.544 0.544s0.224 0.576 0.544 0.576h4.992c0.288 0 0.544 0.224 0.544 0.544v3.328c0 0.288-0.256 0.544-0.544 0.544h-4.992c-0.288 0-0.544 0.256-0.544 0.544 0 0.32 0.224 0.544 0.544 0.544h4.992c0.896 0 1.632-0.736 1.632-1.632v-3.328c0-0.928-0.736-1.664-1.632-1.664z"></path>
</svg>
