<?xml version="1.0" encoding="utf-8"?>
<!-- Generated by IcoMoon.io -->
<!DOCTYPE svg PUBLIC "-//W3C//DTD SVG 1.1//EN" "http://www.w3.org/Graphics/SVG/1.1/DTD/svg11.dtd">
<svg version="1.1" xmlns="http://www.w3.org/2000/svg" xmlns:xlink="http://www.w3.org/1999/xlink" width="32" height="32" viewBox="0 0 32 32">
<path d="M25.344 1.664h-8.832v-1.12c0-0.288-0.256-0.544-0.576-0.544s-0.544 0.256-0.544 0.544v1.12h-8.832c-1.536 0-2.784 1.248-2.784 2.752v15.488c0 1.536 1.248 2.784 2.784 2.784h8.832v3.872c0 0.288 0.256 0.544 0.544 0.544 1.664 0 2.752 0.928 3.392 1.664h-6.784c0.32-0.448 0.864-0.96 1.568-1.312 0.288-0.128 0.416-0.448 0.288-0.736-0.128-0.256-0.48-0.384-0.736-0.256-1.824 0.864-2.624 2.56-2.656 2.624-0.064 0.16-0.064 0.384 0.064 0.512 0.096 0.16 0.256 0.256 0.448 0.256h8.864c0.192 0 0.352-0.096 0.448-0.256s0.128-0.384 0.032-0.544c-0.064-0.128-1.44-2.72-4.352-3.040v-3.328h8.832c1.536 0 2.784-1.248 2.784-2.784v-15.488c0-1.504-1.248-2.752-2.784-2.752zM27.008 19.904c0 0.928-0.736 1.664-1.664 1.664h-18.784c-0.928 0-1.664-0.736-1.664-1.664v-15.488c0-0.896 0.736-1.664 1.664-1.664h18.784c0.928 0 1.664 0.768 1.664 1.664v15.488zM17.408 7.2h-4.768c-0.32 0-0.576 0.224-0.576 0.544v9.408c0 0.288 0.256 0.544 0.576 0.544s0.544-0.256 0.544-0.544v-2.784h4.224c1.536 0 3.392-0.928 3.392-3.584 0-2.752-2.208-3.552-3.392-3.584zM17.408 13.28h-4.224v-4.992h4.192c0.224 0 2.304 0.16 2.304 2.496 0 2.24-1.6 2.496-2.272 2.496z"></path>
</svg>
