<?xml version="1.0" encoding="utf-8"?>
<!-- Generated by IcoMoon.io -->
<!DOCTYPE svg PUBLIC "-//W3C//DTD SVG 1.1//EN" "http://www.w3.org/Graphics/SVG/1.1/DTD/svg11.dtd">
<svg version="1.1" xmlns="http://www.w3.org/2000/svg" xmlns:xlink="http://www.w3.org/1999/xlink" width="32" height="32" viewBox="0 0 32 32">
<path d="M7.964 32c-1.344 0-2.518-0.995-2.704-2.363l-2.67-19.601c-0.203-1.492 0.845-2.871 2.337-3.075l4.992-0.68 0.562-3.936c0.103-0.722 0.481-1.361 1.065-1.799s1.303-0.622 2.025-0.519l13.518 1.929c0.722 0.103 1.361 0.481 1.799 1.065s0.622 1.302 0.519 2.025l-2.794 19.584c-0.179 1.256-1.2 2.203-2.424 2.329l0.014 0.099c0.203 1.492-0.845 2.871-2.337 3.075v0l-13.53 1.843c-0.124 0.017-0.248 0.025-0.37 0.025zM18.831 5.897c-0.088 0-0.176 0.006-0.264 0.018l-13.53 1.843c-1.053 0.144-1.793 1.117-1.65 2.17l2.67 19.601c0.143 1.053 1.118 1.793 2.17 1.65l13.53-1.843c1.053-0.144 1.793-1.117 1.65-2.17l-0.074-0.543c-0-0.002-0-0.003-0.001-0.005l-2.595-19.053c-0.070-0.51-0.334-0.963-0.743-1.274-0.339-0.258-0.744-0.393-1.163-0.393zM21.532 7.456l2.548 18.705c0.875-0.077 1.61-0.75 1.737-1.645l2.794-19.584c0.073-0.51-0.057-1.017-0.366-1.429s-0.76-0.679-1.27-0.752v0l-13.518-1.929c-0.51-0.073-1.017 0.057-1.429 0.366s-0.679 0.76-0.751 1.27l-0.529 3.71 7.71-1.050c0.723-0.098 1.441 0.090 2.021 0.532s0.955 1.083 1.053 1.806zM13.383 24.181c-1.344 0-2.646-0.436-3.734-1.264-1.316-1.001-2.165-2.454-2.388-4.093s0.205-3.266 1.206-4.583c0.96-1.262 2.335-2.094 3.891-2.357 0.025-0.006 0.051-0.010 0.077-0.014 0.012-0.002 0.023-0.003 0.035-0.004 0.030-0.004 0.060-0.009 0.090-0.013v0c0.001-0 0.002-0 0.003-0 1.638-0.222 3.264 0.206 4.58 1.206s2.164 2.454 2.387 4.093v0.001c0.223 1.638-0.205 3.266-1.206 4.582s-2.454 2.165-4.093 2.388c-0.030 0.004-0.060 0.008-0.090 0.012-0.012 0.002-0.023 0.004-0.035 0.005-0.025 0.003-0.051 0.006-0.076 0.007-0.217 0.022-0.433 0.033-0.648 0.033zM12.91 21.697c0.409 1.064 0.829 1.609 1.050 1.646 0.021-0.001 0.042-0.003 0.063-0.005 0.205-0.071 0.473-0.712 0.586-1.873zM11.374 21.906c0.064 0.082 0.13 0.162 0.197 0.239 0.334 0.382 0.693 0.677 1.065 0.879-0.198-0.347-0.38-0.759-0.545-1.215zM15.427 21.354c-0.044 0.585-0.131 1.115-0.266 1.552 0.519-0.371 0.943-0.957 1.239-1.684zM9.919 22.104c0.070 0.059 0.143 0.117 0.216 0.173 0.326 0.248 0.675 0.456 1.039 0.622-0.070-0.072-0.14-0.147-0.208-0.225-0.176-0.201-0.34-0.416-0.494-0.645zM17.284 21.101c-0.125 0.374-0.277 0.724-0.456 1.043 0.315-0.261 0.603-0.561 0.857-0.895 0.056-0.074 0.11-0.149 0.162-0.225zM8.126 19.111c0.178 0.843 0.551 1.62 1.088 2.278l0.821-0.112c-0.354-0.701-0.614-1.488-0.764-2.322zM10.068 18.847c0.156 0.847 0.435 1.636 0.815 2.315l0.955-0.13c-0.215-0.738-0.389-1.547-0.515-2.356zM12.119 18.567c0.143 0.919 0.327 1.703 0.526 2.355l2.011-0.274c0.017-0.681-0.015-1.486-0.123-2.41zM15.329 18.13c0.095 0.814 0.144 1.64 0.133 2.408l1.208-0.165c0.178-0.741 0.241-1.575 0.163-2.449zM17.629 17.817c0.079 0.858 0.032 1.685-0.122 2.443l0.828-0.113c0.342-0.778 0.493-1.626 0.439-2.486zM8.417 15.924c-0.313 0.752-0.451 1.566-0.399 2.392l1.145-0.156c-0.075-0.823-0.035-1.619 0.104-2.351zM10.102 15.694c-0.161 0.718-0.216 1.519-0.142 2.357l1.255-0.171c-0.095-0.81-0.139-1.596-0.133-2.319zM11.886 15.451c-0.012 0.715 0.030 1.503 0.125 2.32l2.414-0.329c-0.136-0.879-0.311-1.635-0.5-2.269zM14.729 15.064c0.204 0.714 0.37 1.492 0.491 2.27l1.504-0.205c-0.15-0.813-0.413-1.572-0.77-2.232zM16.798 14.782c0.333 0.679 0.578 1.437 0.723 2.239l1.145-0.156c-0.171-0.809-0.521-1.557-1.024-2.198zM9.964 13.832c-0.315 0.261-0.603 0.561-0.857 0.895-0.080 0.105-0.156 0.213-0.228 0.323l0.599-0.082c0.129-0.409 0.293-0.791 0.486-1.137zM11.32 13.33c-0.399 0.382-0.727 0.903-0.964 1.519l0.757-0.103c0.017-0.244 0.041-0.477 0.071-0.698 0.037-0.263 0.082-0.502 0.136-0.718zM12.518 12.675c-0.116 0.058-0.388 0.401-0.538 1.483-0.021 0.152-0.039 0.311-0.053 0.476l1.739-0.237c-0.429-1.146-0.876-1.719-1.098-1.733-0.017 0.003-0.034 0.006-0.050 0.010zM13.784 12.782c0.258 0.404 0.493 0.92 0.699 1.505l0.997-0.136c-0.083-0.111-0.169-0.218-0.259-0.32-0.445-0.508-0.935-0.863-1.437-1.049zM15.618 13.077c0.070 0.072 0.139 0.147 0.208 0.225 0.196 0.224 0.379 0.467 0.547 0.727l0.59-0.080c-0.099-0.087-0.201-0.17-0.306-0.25-0.326-0.248-0.675-0.456-1.039-0.622z"></path>
</svg>
