<?xml version="1.0" encoding="utf-8"?>
<!-- Generated by IcoMoon.io -->
<!DOCTYPE svg PUBLIC "-//W3C//DTD SVG 1.1//EN" "http://www.w3.org/Graphics/SVG/1.1/DTD/svg11.dtd">
<svg version="1.1" xmlns="http://www.w3.org/2000/svg" xmlns:xlink="http://www.w3.org/1999/xlink" width="32" height="32" viewBox="0 0 32 32">
<path d="M28.16 3.872h-4.704l-1.472-1.984c-0.672-0.896-1.408-1.888-3.232-1.888h-7.712c-1.824 0-2.528 0.96-3.232 1.888l-1.472 1.984h-2.496c-1.536 0-2.784 1.248-2.784 2.752v16.064c0 1.504 1.248 2.752 2.784 2.752h24.32c1.536 0 2.784-1.248 2.784-2.752v-16.064c0-1.504-1.248-2.752-2.784-2.752zM29.824 22.688c0 0.896-0.736 1.632-1.664 1.632h-24.32c-0.928 0-1.664-0.736-1.664-1.632v-5.536h4.896c1.152 3.2 4.224 5.536 7.808 5.536 3.616 0 6.688-2.336 7.84-5.536h7.104v5.536zM7.712 14.368c0-3.968 3.232-7.168 7.168-7.168s7.2 3.2 7.2 7.168-3.232 7.2-7.2 7.2-7.168-3.232-7.168-7.2zM29.824 16.032h-6.784c0.096-0.544 0.16-1.088 0.16-1.664 0-4.576-3.744-8.288-8.32-8.288-4.544 0-8.288 3.712-8.288 8.288 0 0.576 0.064 1.12 0.16 1.664h-4.576v-9.408c0-0.896 0.736-1.664 1.664-1.664h3.040l1.824-2.432c0.64-0.864 1.088-1.44 2.336-1.44h7.712c1.28 0 1.728 0.608 2.336 1.44l1.824 2.432h5.248c0.928 0 1.664 0.768 1.664 1.664v9.408zM10.208 16.576c0.064 0 0.096 0 0.16-0.032 0.288-0.096 0.448-0.416 0.352-0.704-0.16-0.48-0.256-0.96-0.256-1.472 0-2.432 1.984-4.416 4.416-4.416 0.32 0 0.576-0.256 0.576-0.544 0-0.32-0.256-0.576-0.576-0.576-3.040 0-5.504 2.496-5.504 5.536 0 0.64 0.096 1.248 0.288 1.824 0.096 0.256 0.288 0.384 0.544 0.384zM27.616 7.2h-2.752c-0.32 0-0.576 0.224-0.576 0.544s0.256 0.544 0.576 0.544h2.752c0.32 0 0.544-0.224 0.544-0.544s-0.224-0.544-0.544-0.544z"></path>
</svg>
