<?xml version="1.0" encoding="utf-8"?>
<!-- Generated by IcoMoon.io -->
<!DOCTYPE svg PUBLIC "-//W3C//DTD SVG 1.1//EN" "http://www.w3.org/Graphics/SVG/1.1/DTD/svg11.dtd">
<svg version="1.1" xmlns="http://www.w3.org/2000/svg" xmlns:xlink="http://www.w3.org/1999/xlink" width="32" height="32" viewBox="0 0 32 32">
<path d="M27.901 14.372c0 0-2.998 0.284-2.998 0.284s0 0 0 0-10.086 0.958-10.086 0.958c0 0 5.689-8.385 5.689-8.385s0 0 0 0 1.697-2.48 1.697-2.48c0 0-0.336-0.229-0.336-0.229-2.323-1.579-5.039-2.413-7.856-2.413-7.717 0-13.995 6.277-13.995 13.994 0 7.715 6.277 13.994 13.994 13.994s13.994-6.278 13.994-13.994c0-0.427-0.022-0.871-0.065-1.323 0 0-0.036-0.405-0.036-0.405s0 0 0 0M13.176 16.587c0 0 11.392-1.083 11.392-1.083 0.013 0.201 0.019 0.4 0.019 0.597 0 5.84-4.751 10.59-10.59 10.59s-10.59-4.751-10.59-10.591c0-5.839 4.75-10.59 10.589-10.59 1.996 0 3.925 0.554 5.604 1.604 0 0-6.425 9.472-6.425 9.472s0 0 0 0M14.009 29.281c-7.268 0-13.182-5.913-13.182-13.181s5.913-13.181 13.182-13.181c2.517 0 4.95 0.707 7.059 2.048 0 0-1.014 1.483-1.014 1.483-1.815-1.141-3.899-1.75-6.058-1.75-6.287 0-11.401 5.114-11.401 11.401 0 6.288 5.115 11.401 11.401 11.401 6.287 0 11.402-5.114 11.402-11.401 0-0.221-0.019-0.447-0.032-0.672 0 0 1.797-0.17 1.797-0.17 0.019 0.287 0.028 0.569 0.028 0.843 0 7.267-5.914 13.18-13.182 13.18 0 0 0 0 0 0M32.016 12.784c0 0-0.038-0.411-0.038-0.411-0.39-4.16-2.603-7.9-6.074-10.258 0 0-0.353-0.24-0.353-0.24s-1.571 2.575-1.571 2.575c0 0-6.769 9.738-6.769 9.738s11.537-1.145 11.537-1.145c0 0 0 0 0 0s3.268-0.259 3.268-0.259c0 0 0 0 0 0M25.797 3.032c2.956 2.149 4.875 5.393 5.327 9.007 0 0-2.055 0.163-2.055 0.163-0.404-3.486-1.685-5.812-4.207-7.637 0 0 0.935-1.533 0.935-1.533s0 0 0 0M18.883 13.206c0 0 5.54-7.971 5.54-7.971 2.301 1.678 3.471 3.82 3.845 7.040 0 0-9.386 0.931-9.386 0.931s0 0 0 0M11.708 7.16c-1.45 0-2.628 1.179-2.628 2.627 0 1.45 1.179 2.628 2.628 2.628 1.449 0 2.627-1.179 2.627-2.628 0-1.449-1.179-2.627-2.627-2.627 0 0 0 0 0 0M11.708 11.604c-1.001 0-1.817-0.815-1.817-1.817 0-1.001 0.815-1.817 1.817-1.817s1.817 0.815 1.817 1.817-0.816 1.817-1.817 1.817c0 0 0 0 0 0M10.194 20.546c0-1.242-1.010-2.251-2.252-2.251s-2.252 1.009-2.252 2.251c0 1.242 1.010 2.251 2.252 2.251 1.243 0 2.252-1.009 2.252-2.251 0 0 0 0 0 0M7.943 21.986c-0.794 0-1.439-0.645-1.439-1.44s0.645-1.44 1.439-1.44c0.795 0 1.44 0.645 1.44 1.44s-0.646 1.44-1.44 1.44c0 0 0 0 0 0M22.284 9.74c0 1.19 0.969 2.158 2.158 2.158s2.157-0.967 2.157-2.158c0-1.19-0.966-2.158-2.157-2.158s-2.158 0.967-2.158 2.158c0 0 0 0 0 0M25.788 9.74c0 0.742-0.604 1.345-1.346 1.345s-1.346-0.603-1.346-1.345c0-0.741 0.604-1.345 1.346-1.345s1.346 0.603 1.346 1.345c0 0 0 0 0 0M19.021 24.241c1.76 0 3.193-1.433 3.193-3.193s-1.433-3.193-3.193-3.193c-1.76 0-3.194 1.433-3.194 3.193s1.434 3.193 3.194 3.193c0 0 0 0 0 0M19.021 18.668c1.312 0 2.381 1.068 2.381 2.38s-1.069 2.381-2.381 2.381c-1.312 0-2.381-1.069-2.381-2.381s1.069-2.38 2.381-2.38c0 0 0 0 0 0M11.587 19.541c0 0.963 1.042 1.565 1.876 1.084 0.387-0.224 0.626-0.637 0.626-1.084 0-0.963-1.042-1.565-1.876-1.084-0.387 0.224-0.626 0.637-0.626 1.084M7.625 15.273c0 0.727 0.787 1.182 1.418 0.818 0.292-0.169 0.473-0.48 0.473-0.818 0-0.727-0.787-1.182-1.418-0.818-0.292 0.169-0.473 0.48-0.473 0.818M8.903 24.427c0 0.668 0.722 1.085 1.3 0.751 0.269-0.155 0.434-0.442 0.434-0.751 0-0.668-0.722-1.085-1.3-0.751-0.269 0.155-0.434 0.442-0.434 0.751"></path>
</svg>
