<?xml version="1.0" encoding="utf-8"?>
<!-- Generated by IcoMoon.io -->
<!DOCTYPE svg PUBLIC "-//W3C//DTD SVG 1.1//EN" "http://www.w3.org/Graphics/SVG/1.1/DTD/svg11.dtd">
<svg version="1.1" xmlns="http://www.w3.org/2000/svg" xmlns:xlink="http://www.w3.org/1999/xlink" width="32" height="32" viewBox="0 0 32 32">
<path d="M31.854 1.103l-15.146 15.146 6.136 6.136c2.26-1.946 5.594-2.192 8.118-0.538 0.126 0.082 0.208 0.217 0.224 0.367s-0.037 0.298-0.144 0.405l-3.982 3.982 4.294 4.294c0.195 0.195 0.195 0.512 0 0.707-0.098 0.097-0.226 0.146-0.354 0.146s-0.256-0.049-0.353-0.147l-4.294-4.294-3.982 3.982c-0.094 0.094-0.221 0.146-0.353 0.146-0.018 0-0.035-0.001-0.052-0.003-0.149-0.015-0.285-0.097-0.367-0.224-1.654-2.525-1.408-5.859 0.537-8.118l-6.136-6.136-6.136 6.136c1.945 2.26 2.192 5.593 0.538 8.119-0.082 0.126-0.217 0.208-0.367 0.224-0.017 0.002-0.034 0.003-0.051 0.003-0.132 0-0.259-0.052-0.354-0.146l-3.982-3.982-4.295 4.294c-0.098 0.097-0.226 0.146-0.354 0.146s-0.256-0.049-0.354-0.146c-0.196-0.195-0.196-0.512 0-0.707l4.295-4.294-3.982-3.982c-0.107-0.107-0.159-0.256-0.144-0.405s0.097-0.285 0.224-0.367c2.526-1.654 5.86-1.408 8.118 0.537l6.136-6.136-15.147-15.146c-0.196-0.196-0.196-0.512 0-0.707s0.512-0.196 0.707 0l15.146 15.147 15.147-15.147c0.195-0.196 0.512-0.196 0.707 0s0.196 0.512 0 0.707zM9.877 30.125c1.117-2.195 0.713-4.922-1.059-6.694-1.771-1.772-4.498-2.176-6.694-1.059zM27.265 21.749c-1.493 0-2.975 0.573-4.083 1.683-1.772 1.771-2.176 4.498-1.059 6.694l7.753-7.753c-0.821-0.418-1.718-0.623-2.61-0.623z"></path>
</svg>
