<?xml version="1.0" encoding="utf-8"?>
<!-- Generated by IcoMoon.io -->
<!DOCTYPE svg PUBLIC "-//W3C//DTD SVG 1.1//EN" "http://www.w3.org/Graphics/SVG/1.1/DTD/svg11.dtd">
<svg version="1.1" xmlns="http://www.w3.org/2000/svg" xmlns:xlink="http://www.w3.org/1999/xlink" width="32" height="32" viewBox="0 0 32 32">
<path d="M28.432 24.044h-1.59c-0.155 0-0.293-0.099-0.343-0.246l-1.869-5.57h-3.086l1.791 5.34c0.037 0.11 0.019 0.232-0.049 0.326s-0.177 0.15-0.293 0.15h-1.59c-0.155 0-0.293-0.099-0.343-0.246l-1.864-5.555h-4.568c-0.9 0.073-1.763 0.421-2.463 0.997l-5.438 4.474c-0.26 0.214-0.588 0.331-0.924 0.331h-4.819c-0.424 0-0.789-0.259-0.928-0.659s-0.016-0.83 0.316-1.094l4.586-3.649c0.91-0.724 2.052-1.123 3.215-1.123h6.428c0.128-0.010 0.257-0.015 0.386-0.015h4.15l1.405-2.255h-8.053c-0.2 0-0.361-0.162-0.361-0.361s0.162-0.361 0.361-0.361h8.503l3.176-5.097c0.575-0.923 1.568-1.474 2.656-1.474h4.083c0.398 0 0.753 0.207 0.949 0.553s0.192 0.757-0.013 1.098l-3.266 5.46c-0.003 0.004-0.005 0.009-0.008 0.013l-1.692 2.829 1.898 5.658c0.037 0.11 0.019 0.232-0.049 0.326s-0.177 0.15-0.293 0.15zM27.102 23.322h0.828l-1.709-5.094h-0.828zM21.664 23.322h0.828l-1.709-5.094h-0.828zM8.173 18.242c-1 0-1.982 0.343-2.765 0.966l-4.586 3.649c-0.134 0.107-0.098 0.249-0.084 0.29s0.074 0.175 0.246 0.175h4.819c0.169 0 0.335-0.059 0.465-0.167l5.438-4.474c0.197-0.162 0.405-0.309 0.622-0.439h-4.155zM24.891 17.505h1.385l1.349-2.255h-6.232l-1.405 2.255h4.903zM22.156 14.527h5.902l3.165-5.291c0.099-0.166 0.036-0.315 0.004-0.371s-0.127-0.187-0.32-0.187h-4.083c-0.837 0-1.6 0.424-2.043 1.134l-2.938 4.715h0.312z"></path>
</svg>
