<?xml version="1.0" encoding="utf-8"?>
<!-- Generated by IcoMoon.io -->
<!DOCTYPE svg PUBLIC "-//W3C//DTD SVG 1.1//EN" "http://www.w3.org/Graphics/SVG/1.1/DTD/svg11.dtd">
<svg version="1.1" xmlns="http://www.w3.org/2000/svg" xmlns:xlink="http://www.w3.org/1999/xlink" width="32" height="32" viewBox="0 0 32 32">
<path d="M5.293 12.476c-3.018 0-5.293 1.060-5.293 2.465 0 0.067 0.030 0.13 0.041 0.196 0 0-0.041 0-0.041 0s0 4.673 0 4.673c0 1.406 2.275 2.466 5.293 2.466s5.293-1.059 5.293-2.466c0 0 0-4.673 0-4.673s-0.039 0-0.039 0c0.011-0.066 0.041-0.129 0.041-0.196-0.001-1.405-2.276-2.465-5.294-2.465 0 0 0 0 0 0M5.293 13.164c2.714 0 4.605 0.937 4.605 1.777s-1.891 1.777-4.605 1.777c-2.714 0-4.605-0.937-4.605-1.777s1.891-1.777 4.605-1.777c0 0 0 0 0 0M5.293 21.589c-2.714 0-4.605-0.937-4.605-1.778 0 0 0-3.641 0-3.641 0.889 0.747 2.567 1.236 4.605 1.236s3.716-0.49 4.605-1.236c0 0 0 3.641 0 3.641 0 0.842-1.891 1.778-4.605 1.778 0 0 0 0 0 0M3.725 14.941c0 0.517 1.307 0.841 2.352 0.582 0.485-0.121 0.784-0.342 0.784-0.582 0-0.517-1.307-0.841-2.352-0.582-0.485 0.121-0.784 0.342-0.784 0.582M10.786 10.47c0 0.517 1.307 0.841 2.352 0.582 0.485-0.121 0.784-0.342 0.784-0.582 0-0.517-1.307-0.841-2.352-0.582-0.485 0.121-0.784 0.342-0.784 0.582M17.647 15.34c0 0 0-4.674 0-4.674s-0.039 0-0.039 0c0.011-0.066 0.039-0.129 0.039-0.196 0-1.405-2.275-2.465-5.293-2.465s-5.293 1.060-5.293 2.465c0 0.067 0.030 0.13 0.041 0.196 0 0-0.041 0-0.041 0s0 1.493 0 1.493c0 0 0.688 0 0.688 0s0-0.461 0-0.461c0.889 0.747 2.567 1.235 4.605 1.235s3.716-0.489 4.605-1.235c0 0 0 3.642 0 3.642 0 0.841-1.891 1.777-4.605 1.777-0.381 0-0.859-0.022-1.222-0.060 0 0 0.028 0.687 0.028 0.687 0.389 0.041 0.79 0.061 1.196 0.061 3.017 0 5.292-1.060 5.292-2.465 0 0 0 0 0 0M12.354 12.247c-2.714 0-4.605-0.937-4.605-1.777s1.891-1.777 4.605-1.777c2.714 0 4.605 0.937 4.605 1.777s-1.891 1.777-4.605 1.777c0 0 0 0 0 0M15.442 21.845c0.119-0.091 12.024-9.072 13.502-9.954 0.593-0.354 0.956-0.793 1.084-1.306 0.165-0.676-0.162-1.22-0.176-1.243 0 0-0.097-0.116-0.097-0.116-0.046-0.042-0.463-0.402-1.097-0.402-0.561 0-1.090 0.278-1.574 0.827-1.14 1.293-11.976 11.566-12.085 11.669 0 0 0.444 0.525 0.444 0.525s0 0 0 0M27.599 10.105c0.348-0.395 0.703-0.594 1.058-0.594 0.318 0 0.556 0.163 0.619 0.212 0.038 0.076 0.165 0.359 0.082 0.698-0.079 0.327-0.337 0.623-0.767 0.879-0.892 0.532-5.29 3.793-8.844 6.45 3.213-3.068 7.166-6.867 7.852-7.645 0 0 0 0 0 0M31.98 17.334c0 0-0.050-0.143-0.050-0.143-0.018-0.035-0.46-0.867-1.483-0.867-0.367 0-0.759 0.111-1.168 0.327-1.522 0.813-15.273 6.629-15.411 6.688 0 0 0.231 0.645 0.231 0.645 0.144-0.042 14.443-4.275 16.137-4.582 0.678-0.124 1.173-0.407 1.472-0.843 0.394-0.576 0.277-1.199 0.272-1.226 0 0 0 0 0 0M31.14 18.171c-0.191 0.278-0.537 0.465-1.026 0.554-1.023 0.186-6.284 1.695-10.544 2.937 4.084-1.744 9.118-3.915 10.033-4.403 0.307-0.163 0.592-0.246 0.844-0.246 0.535 0 0.804 0.385 0.861 0.477 0.010 0.083 0.030 0.395-0.167 0.683 0 0 0 0 0 0"></path>
</svg>
