<?xml version="1.0" encoding="utf-8"?>
<!-- Generated by IcoMoon.io -->
<!DOCTYPE svg PUBLIC "-//W3C//DTD SVG 1.1//EN" "http://www.w3.org/Graphics/SVG/1.1/DTD/svg11.dtd">
<svg version="1.1" xmlns="http://www.w3.org/2000/svg" xmlns:xlink="http://www.w3.org/1999/xlink" width="32" height="32" viewBox="0 0 32 32">
<path d="M27.089 32c-1.237 0-2.243-1.006-2.243-2.243 0-1.087 0.777-1.995 1.804-2.2v-0.881h-18.348v0.881c1.028 0.205 1.804 1.113 1.804 2.2 0 1.237-1.006 2.243-2.243 2.243s-2.243-1.006-2.243-2.243c0-1.087 0.777-1.995 1.804-2.2v-0.884c-2.662-0.091-4.8-2.285-4.8-4.969v-18.957c-0.562-0.185-0.969-0.715-0.969-1.338 0-0.777 0.632-1.408 1.408-1.408s1.408 0.632 1.408 1.408c0 0.623-0.407 1.153-0.969 1.338v18.957c0 2.258 1.837 4.094 4.094 4.094h22.308c0.242 0 0.439 0.196 0.439 0.439s-0.196 0.439-0.439 0.439h-2.378v0.881c1.028 0.205 1.804 1.113 1.804 2.2 0 1.237-1.006 2.243-2.243 2.243zM27.089 28.391c-0.753 0-1.365 0.613-1.365 1.365s0.613 1.365 1.365 1.365c0.753 0 1.366-0.612 1.366-1.365s-0.613-1.365-1.366-1.365zM7.864 28.391c-0.753 0-1.365 0.613-1.365 1.365s0.613 1.365 1.365 1.365c0.753 0 1.366-0.612 1.366-1.365s-0.613-1.365-1.366-1.365zM3.064 0.878c-0.293 0-0.53 0.238-0.53 0.53s0.238 0.53 0.53 0.53c0.292 0 0.53-0.238 0.53-0.53s-0.238-0.53-0.53-0.53zM27.089 25.244h-19.225c-0.242 0-0.439-0.196-0.439-0.439v-6.919c0-0.242 0.196-0.439 0.439-0.439h0.547v-6.329c0-1.016 0.827-1.843 1.843-1.843h9.181c1.016 0 1.843 0.827 1.843 1.843v6.329h1.053v-3.453c0-0.242 0.196-0.439 0.439-0.439h3.467c0.242 0 0.439 0.196 0.439 0.439v3.453h0.413c0.242 0 0.439 0.196 0.439 0.439v6.919c0 0.242-0.196 0.439-0.439 0.439zM8.303 24.367h18.348v-6.041h-18.348v6.041zM23.209 17.447h2.589v-3.015h-2.589v3.015zM9.288 17.447h11.112v-6.329c0-0.532-0.433-0.966-0.965-0.966h-9.181c-0.532 0-0.965 0.433-0.965 0.966v6.329z"></path>
</svg>
