<?xml version="1.0" encoding="utf-8"?>
<!-- Generated by IcoMoon.io -->
<!DOCTYPE svg PUBLIC "-//W3C//DTD SVG 1.1//EN" "http://www.w3.org/Graphics/SVG/1.1/DTD/svg11.dtd">
<svg version="1.1" xmlns="http://www.w3.org/2000/svg" xmlns:xlink="http://www.w3.org/1999/xlink" width="32" height="32" viewBox="0 0 32 32">
<path d="M12.958 32c-2.776 0.001-4.044-3.765-4.836-6.116-0.436-1.293-1.114-2.308-1.9-3.484-0.057-0.086-0.115-0.172-0.173-0.259-0.002-0.003-0.003-0.005-0.005-0.008-0.905-1.359-1.9-2.919-2.644-5.2-1.059-3.244-1.178-5.922-0.335-7.541 0.419-0.806 1.060-1.344 1.905-1.601 2.619-0.797 4.392 0.808 4.571 0.979 0.227 0.196 2.728 2.47 3.564 8.354 0.356 2.505 1.038 4.37 1.639 6.015 0.291 0.795 0.565 1.546 0.774 2.292 0.646 2.304 1.531 5.458-1.495 6.397-0.378 0.117-0.733 0.172-1.066 0.172zM6.784 21.76c0.041 0.061 0.081 0.122 0.122 0.183 0.784 1.174 1.525 2.282 1.995 3.678 1.070 3.178 2.328 6.214 4.88 5.422 2.096-0.65 1.693-2.734 0.948-5.39-0.201-0.716-0.47-1.452-0.755-2.232-0.615-1.683-1.312-3.591-1.681-6.181-0.028-0.197-0.058-0.389-0.090-0.577-0.244-0.332-1.28-1.705-2.345-2.596-0.862-0.721-2.13-1.127-2.753-1.293-0.221 0.835-0.719 2.868-0.722 4.244-0.004 1.613 0.332 4.22 0.401 4.743zM6.411 8.393c-0.369 0-0.771 0.053-1.201 0.184-0.625 0.19-1.101 0.592-1.415 1.195-0.74 1.422-0.603 3.874 0.387 6.907 0.46 1.409 1.009 2.514 1.585 3.488-0.105-0.996-0.208-2.217-0.206-3.15 0.004-1.661 0.647-4.089 0.818-4.707l-0.719-1.665c-0.090-0.208 0.006-0.45 0.214-0.54s0.45 0.006 0.54 0.214l0.695 1.608c0.576 0.139 2.176 0.59 3.277 1.511 0.517 0.432 1.019 0.959 1.437 1.439-1.033-3.952-2.799-5.467-2.82-5.485-0.009-0.007-0.017-0.015-0.025-0.023-0.054-0.053-1.027-0.974-2.567-0.974zM21.723 25.273c-0.174 0-0.356-0.013-0.545-0.039-3.139-0.436-2.777-3.692-2.513-6.070 0.086-0.77 0.235-1.556 0.392-2.387 0.327-1.721 0.697-3.671 0.642-6.201-0.128-5.942 1.971-8.591 2.163-8.821 0.149-0.198 1.639-2.069 4.352-1.707 0.875 0.117 1.594 0.544 2.139 1.271 1.094 1.461 1.411 4.123 0.892 7.496-0.364 2.37-1.092 4.070-1.765 5.557-0.002 0.004-0.004 0.009-0.006 0.013-0.043 0.095-0.085 0.188-0.128 0.281-0.585 1.288-1.090 2.399-1.31 3.746-0.425 2.6-1.122 6.862-4.315 6.862zM20.517 9.973c-0.001 0.191 0.001 0.386 0.005 0.584 0.056 2.616-0.322 4.612-0.656 6.372-0.155 0.816-0.301 1.586-0.383 2.325-0.305 2.742-0.365 4.864 1.809 5.166 2.646 0.367 3.395-2.833 3.936-6.142 0.238-1.454 0.789-2.668 1.373-3.953 0.030-0.067 0.061-0.133 0.091-0.2-0.016-0.527-0.108-3.154-0.373-4.745-0.227-1.359-1.047-3.283-1.401-4.071-0.588 0.266-1.775 0.873-2.507 1.722-0.907 1.052-1.706 2.574-1.894 2.941zM25.558 4.733c0.269 0.582 1.297 2.873 1.57 4.512 0.153 0.92 0.25 2.142 0.308 3.142 0.411-1.054 0.773-2.233 0.998-3.698 0.485-3.152 0.223-5.595-0.738-6.878-0.407-0.544-0.942-0.863-1.59-0.949-2.323-0.31-3.577 1.373-3.589 1.39-0.007 0.009-0.014 0.018-0.021 0.026-0.030 0.036-1.513 1.841-1.893 5.868 0.335-0.541 0.744-1.141 1.184-1.65 0.937-1.087 2.443-1.791 2.988-2.022l0.425-1.699c0.055-0.22 0.278-0.354 0.498-0.299s0.354 0.278 0.299 0.498z"></path>
</svg>
