<?xml version="1.0" encoding="utf-8"?>
<!-- Generated by IcoMoon.io -->
<!DOCTYPE svg PUBLIC "-//W3C//DTD SVG 1.1//EN" "http://www.w3.org/Graphics/SVG/1.1/DTD/svg11.dtd">
<svg version="1.1" xmlns="http://www.w3.org/2000/svg" xmlns:xlink="http://www.w3.org/1999/xlink" width="32" height="32" viewBox="0 0 32 32">
<path d="M0.421 23.56c-0.103 0-0.205-0.037-0.286-0.113-0.17-0.158-0.18-0.425-0.022-0.595l1.519-1.634c0.158-0.17 0.424-0.18 0.595-0.022s0.18 0.425 0.022 0.595l-1.519 1.634c-0.083 0.089-0.196 0.134-0.308 0.134zM28.317 30.784c-2.031 0-3.683-1.652-3.683-3.683 0-1.408 0.794-2.634 1.958-3.254l-0.27-0.689c-0.13 0.058-0.258 0.125-0.382 0.202-2.111 1.314-1.933 3.546-1.878 3.97 0.032 0.074 0.045 0.158 0.033 0.242-0.040 0.301-0.075 0.561-2.931 1.16-1.729 0.362-3.882 0.317-5.384 0.215-1.338-0.091-2.667-0.498-3.845-1.179l-2.451-1.416c0.052 0.246 0.078 0.497 0.078 0.75 0 2.031-1.652 3.683-3.683 3.683s-3.683-1.652-3.683-3.683c0-1.629 1.063-3.014 2.532-3.499l-2.999-1.733c-0.119-0.069-0.197-0.191-0.209-0.327s0.043-0.271 0.148-0.359c0.029-0.026 0.768-0.677 0.768-1.853 0-1.003-0.849-2.040-1.176-2.355-0.124-0.119-0.163-0.301-0.098-0.461s0.219-0.263 0.39-0.263h10.062c0.089 0.002 0.882 0.031 1.305 0.478 0.183 0.193 0.275 0.438 0.267 0.707-0.029 0.871-0.443 1.815-1.031 2.349-0.001 0-0.001 0.001-0.002 0.001-0.482 0.438-0.804 0.99 0.088 2.051 1.149 1.366 2.966 1.469 2.985 1.47 1.254 0.079 4.743 0.166 5.891-0.372 1.325-0.62 2.208-2.744 2.056-4.090-0.104-0.92-2.155-4.668-3.381-6.907-0.806-1.473-1.231-2.255-1.334-2.545-0.111-0.316-0.093-0.626 0.052-0.9 0.16-0.301 0.444-0.495 0.679-0.612l-0.624-2.835c-0.163-0.009-0.325-0.057-0.474-0.146l-0.157-0.094c-0.238-0.143-0.405-0.369-0.473-0.638s-0.025-0.548 0.117-0.786l0.998-1.662c0.143-0.238 0.37-0.406 0.639-0.473s0.548-0.025 0.786 0.117l0.157 0.094c0.491 0.295 0.65 0.934 0.355 1.425l-0.998 1.662c-0.045 0.074-0.097 0.14-0.155 0.199l0.667 3.033c0.369 0.069 1.030 0.203 1.579 0.374 0.843 0.264 1.922 0.959 2.42 2.121 0.151 0.351 0.151 0.706-0 1.025-0.112 0.237-0.293 0.425-0.487 0.571 0.936 0.505 2.606 1.61 4.756 3.886 3.386 3.585 2.935 7.201 2.914 7.354-0.018 0.133-0.098 0.249-0.215 0.312s-0.258 0.068-0.379 0.012c-0.022-0.010-1.797-0.818-3.483-0.517l0.244 0.625c0.301-0.080 0.616-0.122 0.941-0.122 2.031 0 3.683 1.652 3.683 3.683s-1.652 3.683-3.683 3.683zM26.901 24.638c-0.851 0.491-1.426 1.411-1.426 2.463 0 1.567 1.274 2.841 2.841 2.841s2.841-1.275 2.841-2.841-1.274-2.841-2.841-2.841c-0.217 0-0.429 0.025-0.632 0.071l0.396 1.011c0.077-0.010 0.156-0.016 0.236-0.016 0.979 0 1.775 0.796 1.775 1.775s-0.796 1.775-1.775 1.775c-0.979 0-1.775-0.796-1.775-1.775 0-0.599 0.299-1.13 0.755-1.452zM5.862 24.26c-1.558 0.010-2.823 1.281-2.823 2.841 0 1.567 1.274 2.841 2.841 2.841s2.841-1.274 2.841-2.841c0-0.492-0.13-0.976-0.376-1.406l-0.917-0.53-0.347 0.63c0.353 0.325 0.574 0.79 0.574 1.306 0 0.979-0.796 1.775-1.775 1.775s-1.775-0.796-1.775-1.775c0-0.979 0.796-1.775 1.775-1.775 0.16 0 0.316 0.021 0.464 0.061l0.355-0.644zM2.597 21.399l9.76 5.64c1.067 0.616 2.27 0.985 3.48 1.068 1.449 0.098 3.52 0.144 5.154-0.199 1.402-0.294 1.988-0.485 2.225-0.582-0.069-0.758-0.086-3.208 2.279-4.68 1.728-1.075 3.882-0.553 4.897-0.203-0.023-1.088-0.358-3.62-2.71-6.11-3.149-3.334-5.216-4.038-5.236-4.045-0.175-0.057-0.294-0.223-0.291-0.407s0.125-0.346 0.303-0.397c0.165-0.049 0.67-0.255 0.807-0.547 0.032-0.067 0.059-0.166-0.013-0.333-0.385-0.899-1.233-1.441-1.897-1.649-0.601-0.188-1.379-0.333-1.649-0.38-0.15 0.055-0.377 0.171-0.453 0.316-0.022 0.042-0.042 0.106-0.001 0.224 0.085 0.24 0.665 1.299 1.279 2.421 1.836 3.355 3.366 6.214 3.479 7.217 0.19 1.687-0.853 4.16-2.536 4.947-1.578 0.738-6.103 0.462-6.294 0.45-0.083-0.004-2.199-0.124-3.582-1.768-0.749-0.891-0.942-1.735-0.578-2.484h-3.807c-1.398 0-2.535-1.137-2.535-2.535v-0.268h-2.223c0.391 0.55 0.826 1.359 0.826 2.237 0 0.957-0.376 1.657-0.682 2.069zM27.622 26.479c-0.148 0.165-0.238 0.383-0.238 0.622 0 0.515 0.419 0.933 0.933 0.933s0.933-0.419 0.933-0.933c0-0.485-0.371-0.884-0.845-0.929l0.304 0.776c0.085 0.216-0.022 0.461-0.239 0.545s-0.461-0.022-0.545-0.239zM5.88 26.168c-0.515 0-0.933 0.419-0.933 0.933s0.419 0.933 0.933 0.933c0.515 0 0.933-0.419 0.933-0.933 0-0.195-0.060-0.376-0.163-0.526l-0.402 0.729c-0.112 0.204-0.368 0.278-0.572 0.166s-0.277-0.368-0.165-0.572l0.402-0.73c-0.011-0-0.022-0.001-0.034-0.001zM5.519 17.093v0.268c0 0.934 0.76 1.694 1.694 1.694h4.486c0.367-0.403 0.628-1.055 0.647-1.646 0.002-0.044-0.008-0.070-0.036-0.099-0.129-0.137-0.498-0.209-0.709-0.216h-6.081zM19.467 2.058c-0.020 0-0.036 0.003-0.048 0.006-0.029 0.007-0.085 0.029-0.121 0.090l-0.998 1.662c-0.037 0.061-0.030 0.119-0.022 0.149s0.029 0.084 0.089 0.121l0.157 0.094c0.028 0.017 0.060 0.026 0.091 0.028 0.048-0.040 0.107-0.070 0.172-0.085 0.002-0.003 0.004-0.007 0.007-0.010l0.998-1.662c0.056-0.093 0.026-0.214-0.067-0.27l-0.157-0.094c-0.036-0.022-0.072-0.028-0.101-0.028z"></path>
</svg>
