<?xml version="1.0" encoding="utf-8"?>
<!-- Generated by IcoMoon.io -->
<!DOCTYPE svg PUBLIC "-//W3C//DTD SVG 1.1//EN" "http://www.w3.org/Graphics/SVG/1.1/DTD/svg11.dtd">
<svg version="1.1" xmlns="http://www.w3.org/2000/svg" xmlns:xlink="http://www.w3.org/1999/xlink" width="32" height="32" viewBox="0 0 32 32">
<path d="M24.526 29.88c-4.121 0-7.474-3.572-7.474-7.962 0-0.22 0.178-0.397 0.397-0.397h1.76c0.22 0 0.397 0.178 0.397 0.397 0 2.915 2.207 5.286 4.919 5.286s4.919-2.371 4.919-5.286v-19.401c0-0.22 0.178-0.397 0.397-0.397h1.76c0.22 0 0.397 0.178 0.397 0.397v19.401c0 4.39-3.353 7.962-7.474 7.962zM17.857 22.316c0.193 3.768 3.11 6.769 6.669 6.769 3.683 0 6.679-3.215 6.679-7.167v-19.003h-0.965v19.003c0 3.353-2.563 6.080-5.714 6.080-3.025 0-5.509-2.515-5.702-5.683h-0.967zM14.144 19.654c-0.368 0-0.736-0.122-1.049-0.366l-2.32-1.815c-0.324 0.202-0.699 0.313-1.083 0.313h-5.537c-1.752 0-3.176-1.489-3.176-3.32v-0.43c-0.551-0.069-0.979-0.541-0.979-1.111v-2.317c0-0.57 0.428-1.041 0.979-1.111v-0.597c0-1.831 1.425-3.32 3.176-3.32h20.1c1.751 0 3.177 1.489 3.177 3.32v0.597c0.551 0.070 0.979 0.541 0.979 1.111v2.317c0 0.57-0.428 1.041-0.979 1.111v0.43c0 1.831-1.425 3.32-3.177 3.32h-5.537c-0.46 0-0.906-0.158-1.268-0.443l-2.192 1.892c-0.323 0.279-0.718 0.42-1.114 0.42zM11.373 16.93l2.213 1.731c0.346 0.27 0.82 0.258 1.153-0.030l2.157-1.862-2.014-2.264c-0.174-0.196-0.415-0.304-0.677-0.304s-0.503 0.108-0.677 0.304zM14.205 13.408c0.485 0 0.948 0.208 1.271 0.571l2.291 2.575c0.247 0.277 0.593 0.436 0.952 0.436h5.537c1.313 0 2.382-1.133 2.382-2.525v-0.818c0-0.22 0.178-0.397 0.397-0.397h0.256c0.179 0 0.325-0.146 0.325-0.325v-2.317c0-0.179-0.146-0.325-0.325-0.325h-0.256c-0.22 0-0.397-0.178-0.397-0.397v-0.985c0-1.392-1.068-2.525-2.382-2.525h-20.1c-1.313 0-2.382 1.133-2.382 2.525v0.985c0 0.22-0.178 0.397-0.397 0.397h-0.257c-0.179 0-0.325 0.146-0.325 0.325v2.317c0 0.179 0.146 0.325 0.325 0.325h0.256c0.219 0 0.397 0.178 0.397 0.397v0.818c0 1.392 1.068 2.525 2.382 2.525h5.537c0.272 0 0.537-0.092 0.757-0.257 0.003-0.004 0.006-0.008 0.009-0.012 0.036-0.046 0.080-0.082 0.129-0.107 0.019-0.019 0.038-0.039 0.056-0.059l2.291-2.575c0.322-0.363 0.786-0.571 1.271-0.571zM24.316 16.397h-4.831c-0.49 0-0.968-0.217-1.311-0.595l-3.061-3.378c-0.338-0.373-0.524-0.866-0.524-1.388v-2.004c0-1.094 0.823-1.984 1.835-1.984h7.892c1.012 0 1.835 0.89 1.835 1.984v5.381c0 1.094-0.823 1.983-1.835 1.983zM16.424 7.844c-0.574 0-1.040 0.533-1.040 1.189v2.004c0 0.32 0.116 0.632 0.318 0.855v0l3.061 3.378c0.195 0.215 0.452 0.334 0.722 0.334h4.831c0.574 0 1.040-0.533 1.040-1.189v-5.381c0-0.655-0.467-1.189-1.040-1.189l-7.893 0zM8.884 16.397h-4.831c-1.012 0-1.835-0.89-1.835-1.984v-5.381c0-1.094 0.823-1.984 1.835-1.984h7.893c1.012 0 1.835 0.89 1.835 1.984v2.004c0 0.523-0.186 1.016-0.524 1.388l-3.061 3.378c-0.343 0.378-0.821 0.595-1.311 0.595zM4.053 7.844c-0.574 0-1.040 0.533-1.040 1.189v5.381c0 0.655 0.467 1.189 1.040 1.189h4.831c0.27 0 0.527-0.119 0.722-0.334l3.061-3.378c0.202-0.223 0.318-0.535 0.318-0.855v-2.004c0-0.655-0.467-1.189-1.040-1.189l-7.893 0z"></path>
</svg>
