<?xml version="1.0" encoding="utf-8"?>
<!-- Generated by IcoMoon.io -->
<!DOCTYPE svg PUBLIC "-//W3C//DTD SVG 1.1//EN" "http://www.w3.org/Graphics/SVG/1.1/DTD/svg11.dtd">
<svg version="1.1" xmlns="http://www.w3.org/2000/svg" xmlns:xlink="http://www.w3.org/1999/xlink" width="32" height="32" viewBox="0 0 32 32">
<path d="M22.965 32c-0.233 0-0.421-0.189-0.421-0.421v-1.846l-0.993-0.666c-0.193-0.13-0.245-0.391-0.115-0.584s0.392-0.244 0.585-0.115l0.523 0.351v-22.467h-0.365c-0.233 0-0.421-0.189-0.421-0.421v-4.565c0-0.661 0.538-1.2 1.2-1.2 0.677 0 1.215 0.538 1.215 1.2v4.188c0.74 0.11 2.325 0.482 3.18 1.692 0.678 0.96 0.367 1.999-0.27 2.489-0.615 0.474-1.602 0.515-2.419-0.46-0.865-1.032-1.17-2.050-1.277-2.692v22.801l0.768 0.516c0.193 0.13 0.245 0.391 0.115 0.585s-0.392 0.245-0.584 0.115l-0.299-0.201v1.281c0 0.233-0.189 0.421-0.421 0.421zM24.215 6.314c0.084 0.522 0.337 1.415 1.095 2.32 0.489 0.584 0.971 0.555 1.259 0.333 0.334-0.257 0.475-0.799 0.096-1.336-0.615-0.872-1.788-1.199-2.45-1.317zM22.6 5.409h0.73v-4.143c0-0.197-0.16-0.357-0.357-0.357-0.213 0-0.373 0.16-0.373 0.357v4.143zM18.93 32h-1.207c-0.478 0-0.867-0.389-0.867-0.867v-29.673c0-0.805 0.655-1.46 1.46-1.46h0.021c0.805 0 1.46 0.655 1.46 1.46v29.673c0 0.478-0.389 0.867-0.867 0.867zM17.698 22.455v8.678c0 0.014 0.011 0.025 0.025 0.025h1.207c0.014 0 0.025-0.011 0.025-0.025v-8.678h-1.256zM17.698 21.612h1.256v-2.485h-1.256v2.485zM17.698 18.284h1.256v-16.824c0-0.341-0.277-0.618-0.618-0.618h-0.021c-0.34 0-0.618 0.277-0.618 0.618v16.824zM14.276 32h-1.207c-0.478 0-0.867-0.389-0.867-0.867v-29.673c-0-0.805 0.655-1.46 1.46-1.46h0.021c0.805 0 1.46 0.655 1.46 1.46v29.673c0 0.478-0.389 0.867-0.867 0.867zM13.044 22.455v8.678c0 0.014 0.011 0.025 0.025 0.025h1.207c0.014 0 0.025-0.011 0.025-0.025v-8.678h-1.256zM13.044 21.612h1.256v-2.485h-1.256v2.485zM13.044 18.284h1.256v-16.824c0-0.341-0.277-0.618-0.618-0.618h-0.021c-0.341 0-0.618 0.277-0.618 0.618v16.824zM9.034 32c-0.233 0-0.421-0.189-0.421-0.421v-1.281l-0.299 0.201c-0.193 0.13-0.455 0.078-0.584-0.115s-0.078-0.455 0.115-0.584l0.768-0.516v-22.796c-0.107 0.642-0.414 1.659-1.277 2.688-0.817 0.975-1.803 0.933-2.419 0.46-0.637-0.49-0.948-1.529-0.27-2.489 0.854-1.21 2.439-1.582 3.179-1.692v-4.188c0-0.661 0.538-1.2 1.2-1.2 0.677 0 1.216 0.538 1.216 1.2v4.565c0 0.233-0.189 0.421-0.421 0.421h-0.365v22.467l0.524-0.351c0.193-0.129 0.455-0.078 0.585 0.115s0.078 0.455-0.115 0.585l-0.993 0.666v1.846c0 0.233-0.189 0.421-0.421 0.421zM7.785 6.315c-0.663 0.12-1.837 0.448-2.45 1.316-0.379 0.537-0.239 1.079 0.096 1.336 0.288 0.222 0.77 0.251 1.259-0.333 0.757-0.904 1.011-1.796 1.095-2.319zM8.669 5.409h0.73v-4.143c0-0.197-0.16-0.357-0.357-0.357-0.213 0-0.373 0.16-0.373 0.357v4.143z"></path>
</svg>
