<?xml version="1.0" encoding="utf-8"?>
<!-- Generated by IcoMoon.io -->
<!DOCTYPE svg PUBLIC "-//W3C//DTD SVG 1.1//EN" "http://www.w3.org/Graphics/SVG/1.1/DTD/svg11.dtd">
<svg version="1.1" xmlns="http://www.w3.org/2000/svg" xmlns:xlink="http://www.w3.org/1999/xlink" width="32" height="32" viewBox="0 0 32 32">
<path d="M5.008 32c-1.267 0-2.533-0.482-3.497-1.446l-0.065-0.065c-1.928-1.929-1.928-5.067 0-6.995l22.048-22.048c1.928-1.929 5.067-1.929 6.995 0l0.065 0.065c1.928 1.928 1.928 5.066-0 6.995l-22.048 22.048c-0.964 0.964-2.231 1.446-3.497 1.446zM26.991 0.846c-1.095 0-2.124 0.426-2.898 1.2l-22.047 22.048c-1.598 1.598-1.598 4.198 0 5.796l0.065 0.065c0.774 0.774 1.803 1.2 2.898 1.2s2.124-0.426 2.898-1.2l22.047-22.048c0.774-0.774 1.2-1.803 1.2-2.898s-0.426-2.124-1.2-2.898l-0.065-0.065c-0.773-0.774-1.803-1.2-2.898-1.2zM30.838 30.199h-11.729c-0.224 0-0.41-0.174-0.423-0.398-0.005-0.086-0.114-2.121 1.184-3.096 0.59-0.442 1.361-0.569 2.106-0.691 0.747-0.123 1.517-0.249 2.112-0.688 0.004-0.003 0.007-0.005 0.011-0.008 0.078-0.058 0.153-0.122 0.225-0.192 0.222-0.217 0.436-0.572 0.634-0.989 0.001-0.002 0.002-0.004 0.003-0.005 0.003-0.006 0.005-0.012 0.008-0.017 0.228-0.485 0.434-1.052 0.603-1.584 0.003-0.010 0.005-0.019 0.009-0.029 0.001-0.002 0.001-0.004 0.002-0.006 0.192-0.61 0.337-1.17 0.411-1.505 0.026-0.116 0.1-0.216 0.203-0.276s0.227-0.072 0.34-0.036l4.431 1.424c0.175 0.056 0.294 0.219 0.294 0.404v7.268c0 0.235-0.19 0.424-0.424 0.424zM19.539 29.351h10.875v-0.358h-10.837c-0.019 0.131-0.031 0.252-0.038 0.358zM19.808 28.145h10.606v-5.329l-3.702-1.189c-0.052 0.204-0.12 0.462-0.204 0.749l0.818 0.285c0.221 0.077 0.338 0.318 0.261 0.54s-0.318 0.338-0.54 0.261l-0.796-0.277c-0.103 0.301-0.219 0.611-0.346 0.911l0.751 0.341c0.213 0.097 0.308 0.348 0.211 0.561s-0.347 0.308-0.561 0.211l-0.767-0.348c-0.183 0.334-0.383 0.628-0.598 0.845l0.476 0.551c0.153 0.177 0.134 0.445-0.044 0.598s-0.445 0.134-0.598-0.044l-0.511-0.591c-0.315 0.18-0.649 0.303-0.986 0.396l0.135 0.451c0.067 0.224-0.060 0.46-0.285 0.527s-0.46-0.060-0.527-0.285l-0.154-0.515c-0.113 0.019-0.225 0.038-0.335 0.056-0.675 0.11-1.311 0.215-1.735 0.533-0.263 0.198-0.446 0.471-0.572 0.762zM13.738 22.243c-0.473 0-0.917-0.184-1.251-0.518l-2.211-2.211c-0.334-0.334-0.518-0.779-0.518-1.251s0.184-0.917 0.518-1.251l0.019-0.019c0.69-0.69 1.812-0.69 2.503 0l2.211 2.211c0.69 0.69 0.69 1.813 0 2.503l-0.020 0.020c-0.334 0.334-0.778 0.518-1.251 0.518zM11.546 17.322c-0.236 0-0.472 0.090-0.652 0.27l-0.019 0.019c-0.174 0.174-0.27 0.406-0.27 0.652s0.096 0.478 0.27 0.652l2.211 2.211c0.174 0.174 0.406 0.27 0.652 0.27s0.478-0.096 0.652-0.27c0-0.001 0.001-0.001 0.001-0.001l0.019-0.019c0.358-0.358 0.358-0.943-0.001-1.303l-2.211-2.211c-0.18-0.18-0.416-0.27-0.652-0.27zM20.454 15.527c-0.473 0-0.917-0.184-1.251-0.518l-2.211-2.211c-0.69-0.69-0.69-1.813 0-2.503l0.021-0.021c0.688-0.689 1.811-0.689 2.502 0.001l2.211 2.211c0.69 0.69 0.69 1.813 0 2.503l-0.019 0.019c-0.334 0.334-0.779 0.518-1.251 0.518zM18.262 10.605c-0.236 0-0.472 0.090-0.652 0.27l-0.021 0.021c-0.358 0.358-0.358 0.943 0.001 1.303l2.211 2.211c0.174 0.174 0.406 0.27 0.652 0.27s0.478-0.096 0.652-0.27v0l0.019-0.019c0.359-0.359 0.359-0.945 0-1.304l-2.211-2.211c-0.18-0.18-0.416-0.27-0.652-0.27z"></path>
</svg>
