<?xml version="1.0" encoding="utf-8"?>
<!-- Generated by IcoMoon.io -->
<!DOCTYPE svg PUBLIC "-//W3C//DTD SVG 1.1//EN" "http://www.w3.org/Graphics/SVG/1.1/DTD/svg11.dtd">
<svg version="1.1" xmlns="http://www.w3.org/2000/svg" xmlns:xlink="http://www.w3.org/1999/xlink" width="32" height="32" viewBox="0 0 32 32">
<path d="M23.008 14.592c0.416 0.16 0.832 0.256 1.28 0.256 1.408 0 2.72-0.896 3.328-2.304 0.832-1.888 0.096-4.032-1.632-4.768-0.384-0.192-0.8-0.256-1.248-0.256-1.408 0-2.72 0.896-3.36 2.304-0.384 0.896-0.416 1.888-0.128 2.752 0.288 0.928 0.928 1.632 1.76 2.016zM22.4 10.24c0.448-0.96 1.376-1.632 2.336-1.632 0.288 0 0.544 0.064 0.832 0.192 1.152 0.48 1.632 1.984 1.056 3.296-0.448 0.992-1.376 1.632-2.336 1.632-0.288 0-0.576-0.064-0.832-0.16-0.544-0.256-0.96-0.704-1.152-1.312-0.224-0.64-0.192-1.344 0.096-2.016zM1.632 17.792c0.736 0 1.056 0.192 1.504 0.48 0.48 0.288 1.024 0.64 2.080 0.64s1.6-0.352 2.080-0.64c0.448-0.288 0.768-0.48 1.504-0.48s1.088 0.192 1.504 0.48c0.48 0.288 1.056 0.64 2.112 0.64s1.6-0.352 2.080-0.64c0.416-0.288 0.768-0.48 1.504-0.48s1.088 0.192 1.504 0.48c0.48 0.288 1.024 0.64 2.080 0.64s1.6-0.352 2.080-0.64c0.448-0.288 0.768-0.48 1.536-0.48 0.736 0 1.056 0.192 1.504 0.48 0.48 0.288 1.024 0.64 2.080 0.64s1.6-0.352 2.080-0.64c0.448-0.288 0.768-0.48 1.504-0.48 0.32 0 0.576-0.256 0.576-0.544 0-0.32-0.256-0.576-0.576-0.576-1.056 0-1.6 0.352-2.080 0.64-0.416 0.256-0.768 0.48-1.504 0.48s-1.088-0.224-1.504-0.48c-0.48-0.288-1.024-0.64-2.080-0.64-0.128 0-0.224 0.032-0.32 0.032l-3.584-4.96c-0.384-0.576-1.216-1.248-1.856-1.568l-5.184-2.368c-0.64-0.32-1.696-0.448-2.4-0.352l-5.024 0.768c-0.448 0.064-0.832 0.32-1.088 0.704-0.192 0.352-0.256 0.768-0.128 1.152 0.256 0.8 1.12 1.344 2.016 1.216l3.808-0.544c0.48-0.064 1.216 0.128 1.568 0.416l2.656 1.984c0.096 0.064 0.16 0.128 0.16 0.192s-0.064 0.16-0.16 0.224l-4.064 2.912c-0.096 0.064-0.16 0.16-0.192 0.256-0.192-0.032-0.384-0.064-0.608-0.064-1.056 0-1.6 0.352-2.080 0.64-0.416 0.288-0.768 0.48-1.504 0.48s-1.088-0.192-1.504-0.48c-0.48-0.288-1.024-0.64-2.080-0.64-0.32 0-0.576 0.256-0.576 0.576 0 0.288 0.256 0.544 0.576 0.544zM14.304 14.464c0.384-0.288 0.608-0.672 0.608-1.088 0.032-0.416-0.192-0.832-0.576-1.12l-2.656-1.984c-0.608-0.448-1.632-0.736-2.368-0.608l-3.84 0.544c-0.352 0.032-0.704-0.16-0.8-0.448-0.032-0.096-0.032-0.192 0.032-0.256 0.064-0.096 0.16-0.16 0.32-0.192l4.992-0.768c0.48-0.064 1.312 0.064 1.792 0.256l5.184 2.4c0.448 0.224 1.12 0.768 1.408 1.184l3.328 4.608c-0.256 0.096-0.448 0.224-0.64 0.32-0.416 0.288-0.768 0.48-1.504 0.48s-1.088-0.192-1.504-0.48c-0.48-0.288-1.024-0.64-2.080-0.64s-1.6 0.352-2.080 0.64c-0.448 0.288-0.768 0.48-1.504 0.48s-1.088-0.192-1.536-0.48c-0.096-0.064-0.192-0.128-0.288-0.16l3.712-2.688zM30.944 21.664c0 0.32-0.256 0.544-0.576 0.544-0.736 0-1.056 0.224-1.504 0.48-0.48 0.288-1.024 0.64-2.080 0.64s-1.6-0.352-2.080-0.64c-0.448-0.256-0.768-0.48-1.504-0.48-0.768 0-1.088 0.224-1.536 0.48-0.48 0.288-1.024 0.64-2.080 0.64s-1.6-0.352-2.080-0.64c-0.416-0.256-0.768-0.48-1.504-0.48s-1.088 0.224-1.504 0.48c-0.48 0.288-1.024 0.64-2.080 0.64s-1.632-0.352-2.112-0.64c-0.416-0.256-0.768-0.48-1.504-0.48s-1.056 0.224-1.504 0.48c-0.48 0.288-1.024 0.64-2.080 0.64s-1.6-0.352-2.080-0.64c-0.448-0.256-0.768-0.48-1.504-0.48-0.32 0-0.576-0.224-0.576-0.544s0.256-0.544 0.576-0.544c1.056 0 1.6 0.32 2.080 0.64 0.416 0.256 0.768 0.448 1.504 0.448s1.088-0.192 1.504-0.448c0.48-0.32 1.024-0.64 2.080-0.64s1.6 0.32 2.112 0.64c0.416 0.256 0.736 0.448 1.504 0.448s1.056-0.192 1.504-0.448c0.48-0.32 1.024-0.64 2.080-0.64s1.6 0.32 2.080 0.64c0.416 0.256 0.768 0.448 1.504 0.448s1.088-0.192 1.504-0.448c0.48-0.32 1.056-0.64 2.112-0.64s1.6 0.32 2.080 0.64c0.416 0.256 0.768 0.448 1.504 0.448s1.088-0.192 1.504-0.448c0.48-0.32 1.024-0.64 2.080-0.64 0.32 0 0.576 0.224 0.576 0.544z"></path>
</svg>
