<?xml version="1.0" encoding="utf-8"?>
<!-- Generated by IcoMoon.io -->
<!DOCTYPE svg PUBLIC "-//W3C//DTD SVG 1.1//EN" "http://www.w3.org/Graphics/SVG/1.1/DTD/svg11.dtd">
<svg version="1.1" xmlns="http://www.w3.org/2000/svg" xmlns:xlink="http://www.w3.org/1999/xlink" width="32" height="32" viewBox="0 0 32 32">
<path d="M12.053 9.331c0.101 1.343 1.025 2.106 1.065 2.138 0 0 0.553-0.682 0.553-0.682-0.006-0.005-0.671-0.567-0.741-1.522-0.065-0.858 0.351-1.783 1.236-2.753 0.815-0.892 1.18-1.956 1.001-2.922-0.144-0.777-0.637-1.427-1.353-1.785 0 0-0.393 0.784-0.393 0.784 0.474 0.237 0.787 0.649 0.882 1.161 0.129 0.691-0.158 1.483-0.786 2.171-1.054 1.154-1.546 2.302-1.463 3.41 0 0 0 0 0 0M16.704 7.51c0.101 1.343 1.026 2.107 1.065 2.139 0 0 0.554-0.682 0.554-0.682-0.007-0.005-0.671-0.569-0.742-1.522-0.065-0.858 0.351-1.785 1.236-2.753 0.815-0.893 1.179-1.957 1.001-2.922-0.145-0.778-0.638-1.428-1.354-1.786 0 0-0.391 0.785-0.391 0.785 0.474 0.237 0.787 0.649 0.881 1.159 0.129 0.691-0.157 1.483-0.785 2.171-1.055 1.155-1.547 2.302-1.463 3.41 0 0 0 0 0 0M25.708 24.351c0.384-0.492 0.714-1.007 1.007-1.533 0.3 0.047 0.61 0.080 0.944 0.080 2.475 0 4.074-1.36 4.074-3.465 0-1.867-1.427-2.891-3.116-3.22 0.128-1.489 0.054-2.537 0.046-2.64 0 0-0.032-0.403-0.032-0.403s-27.302 0-27.302 0c0 0-0.032 0.403-0.032 0.403-0.021 0.259-0.473 6.395 2.956 10.777 0.787 1.006 1.791 1.764 2.867 2.346 0 0-6.822 0-6.822 0s0.066 0.558 0.222 0.907c0.369 0.829 1.975 1.646 4.773 2.421 0.499 0.138 1.339 0.237 2.327 0.307 0 0 0 1.653 0 1.653s14.695 0 14.695 0c0 0 0-1.647 0-1.647 1.028-0.070 1.904-0.172 2.418-0.314 2.799-0.775 4.387-1.598 4.774-2.421 0.204-0.435 0.251-0.819 0.217-0.887 0 0-0.317-0.019-0.317-0.019s-6.55 0-6.55 0c1.069-0.58 2.067-1.343 2.851-2.345 0 0 0 0 0 0M30.856 19.434c0 1.908-1.651 2.588-3.197 2.588-0.172 0-0.341-0.028-0.513-0.045 0.79-1.692 1.186-3.431 1.376-4.893 1.234 0.253 2.334 0.953 2.334 2.35 0 0 0 0 0 0M21.436 31.108c0 0-12.941 0-12.941 0s0-0.722 0-0.722c1.823 0.095 3.938 0.115 5.411 0.115 0.675 0 1.102-0.006 1.101-0.006 0.010 0 0.436 0.006 1.11 0.006 1.447 0 3.519-0.020 5.319-0.111 0 0 0 0.718 0 0.718s-0.001 0-0.001 0M24.496 29.178c-1.45 0.402-6.343 0.446-8.38 0.446-0.674 0-1.1-0.006-1.11-0.006-0.001 0-0.426 0.006-1.101 0.006-2.036 0-6.929-0.044-8.381-0.446-2.461-0.684-3.487-1.259-3.913-1.604 0 0 26.8 0 26.8 0-0.428 0.346-1.455 0.922-3.916 1.604 0 0 0 0 0 0M20.633 26.697c0 0-11.324 0-11.324 0-1.623-0.569-3.254-1.466-4.367-2.885-2.731-3.489-2.826-8.345-2.789-9.763 0 0 6.463 0 6.463 0s0 3.728 0 3.728c0 0-2.090 0-2.090 0s0 5.054 0 5.054c0 0 5.056 0 5.056 0s0-5.054 0-5.054c0 0-2.090 0-2.090 0s0-3.728 0-3.728c0 0 18.314 0 18.314 0 0.037 1.418-0.054 6.267-2.789 9.763-1.116 1.426-2.755 2.319-4.384 2.885 0 0 0 0 0 0M10.705 18.653c0 0 0 3.3 0 3.3s-3.302 0-3.302 0c0 0 0-3.3 0-3.3s3.302 0 3.302 0c0 0 0 0 0 0"></path>
</svg>
