<?xml version="1.0" encoding="utf-8"?>
<!-- Generated by IcoMoon.io -->
<!DOCTYPE svg PUBLIC "-//W3C//DTD SVG 1.1//EN" "http://www.w3.org/Graphics/SVG/1.1/DTD/svg11.dtd">
<svg version="1.1" xmlns="http://www.w3.org/2000/svg" xmlns:xlink="http://www.w3.org/1999/xlink" width="32" height="32" viewBox="0 0 32 32">
<path d="M31.627 25.456h-18.98c-0.031 0-0.062-0.004-0.091-0.011h-5.084c-0.186 0-0.343-0.137-0.369-0.32l-0.648-4.57-0.858 4.586c-0.033 0.176-0.187 0.304-0.367 0.304h-4.856c-0.13 0-0.25-0.067-0.318-0.178s-0.073-0.249-0.014-0.364c0.019-0.037 1.903-3.743 3.555-7.948 1.563-3.98 2.909-9.464 3.054-10.060 0.003-0.032 0.010-0.064 0.021-0.095l0.005-0.012c0.059-0.161 0.222-0.261 0.391-0.242 0.046 0.005 0.089 0.018 0.128 0.038 0.617 0.139 4.461 0.956 9.726 0.956 5.669 0 8.942-0.96 8.974-0.97 0.106-0.032 0.221-0.015 0.314 0.047s0.153 0.161 0.164 0.272c0.005 0.044 0.477 4.449 2.144 9.434 1.58 4.724 3.23 8.163 3.422 8.557 0.038 0.058 0.060 0.128 0.060 0.203 0 0.206-0.167 0.373-0.373 0.373zM12.871 24.711h18.163c-0.552-1.186-1.913-4.232-3.224-8.151-1.39-4.155-1.962-7.918-2.126-9.161-1.067 0.263-4.093 0.888-8.763 0.888-4.604 0-8.151-0.618-9.449-0.881 0.22 1.484 0.913 5.789 2.060 9.469 1.228 3.939 2.913 7.072 3.339 7.836zM7.795 24.699h4.214c-0.632-1.18-2.098-4.089-3.189-7.591-0.927-2.973-1.554-6.293-1.886-8.298-0.547 2.082-1.53 5.583-2.644 8.418-1.294 3.293-2.729 6.284-3.315 7.472h3.944l1.219-6.511c0.034-0.179 0.193-0.311 0.375-0.304 0.183 0.004 0.335 0.14 0.361 0.32zM22.152 16.675h-6.116c-0.172 0-0.321-0.117-0.362-0.284l-1.044-4.257c-0.027-0.111-0.002-0.229 0.069-0.319s0.179-0.143 0.293-0.143h6.116c0.172 0 0.321 0.117 0.362 0.284l1.044 4.257c0.027 0.111 0.002 0.229-0.069 0.319s-0.179 0.143-0.293 0.143zM16.328 15.929h5.348l-0.861-3.511h-5.348z"></path>
</svg>
