<?xml version="1.0" encoding="utf-8"?>
<!-- Generated by IcoMoon.io -->
<!DOCTYPE svg PUBLIC "-//W3C//DTD SVG 1.1//EN" "http://www.w3.org/Graphics/SVG/1.1/DTD/svg11.dtd">
<svg version="1.1" xmlns="http://www.w3.org/2000/svg" xmlns:xlink="http://www.w3.org/1999/xlink" width="32" height="32" viewBox="0 0 32 32">
<path d="M5.536 14.944c0-0.352-0.288-0.608-0.608-0.608h-0.736c-0.32 0-0.608 0.256-0.608 0.608 0 0.32 0.288 0.608 0.608 0.608h0.736c0.32 0 0.608-0.288 0.608-0.608zM10.752 24c-0.288-0.16-0.64-0.064-0.832 0.224l-0.352 0.608c-0.16 0.32-0.064 0.672 0.224 0.832 0.096 0.064 0.224 0.096 0.32 0.096 0.192 0 0.416-0.128 0.512-0.32l0.352-0.608c0.192-0.288 0.064-0.672-0.224-0.832zM6.112 19.936l-0.64 0.352c-0.288 0.192-0.384 0.544-0.224 0.832 0.128 0.192 0.32 0.32 0.544 0.32 0.096 0 0.192-0.032 0.288-0.096l0.64-0.352c0.288-0.16 0.384-0.512 0.224-0.832-0.16-0.288-0.544-0.384-0.832-0.224zM10.624 4.416c-0.16-0.288-0.544-0.384-0.832-0.224s-0.384 0.544-0.224 0.832l0.384 0.608c0.096 0.192 0.288 0.32 0.512 0.32 0.096 0 0.224-0.032 0.32-0.096 0.288-0.16 0.384-0.544 0.192-0.832l-0.352-0.608zM5.472 9.568l0.64 0.352c0.096 0.064 0.192 0.096 0.288 0.096 0.224 0 0.416-0.128 0.544-0.32 0.16-0.288 0.064-0.672-0.224-0.832l-0.64-0.352c-0.288-0.16-0.64-0.064-0.832 0.224-0.16 0.288-0.064 0.672 0.224 0.832zM25.6 10.016c0.096 0 0.192-0.032 0.288-0.096l0.64-0.352c0.288-0.16 0.384-0.544 0.224-0.832-0.192-0.288-0.544-0.384-0.832-0.224l-0.64 0.352c-0.288 0.16-0.384 0.544-0.224 0.832 0.128 0.192 0.32 0.32 0.544 0.32zM16 4.448c0.352 0 0.608-0.256 0.608-0.608v-0.704c0-0.32-0.256-0.608-0.608-0.608s-0.608 0.288-0.608 0.608v0.704c0 0.352 0.288 0.608 0.608 0.608zM26.528 20.288l-0.64-0.352c-0.288-0.16-0.64-0.064-0.832 0.224-0.16 0.288-0.064 0.672 0.224 0.832l0.64 0.352c0.096 0.064 0.192 0.096 0.288 0.096 0.224 0 0.416-0.128 0.544-0.32 0.16-0.288 0.064-0.64-0.224-0.832zM22.080 24.224c-0.192-0.288-0.544-0.384-0.832-0.224s-0.384 0.544-0.224 0.832l0.352 0.608c0.128 0.224 0.32 0.32 0.544 0.32 0.096 0 0.192-0.032 0.288-0.096 0.288-0.16 0.384-0.544 0.224-0.832l-0.352-0.608zM27.808 14.336c0 0 0 0 0 0h-0.736c-0.32 0-0.608 0.256-0.608 0.608 0 0.32 0.288 0.608 0.608 0.608 0 0 0 0 0 0h0.736c0.32 0 0.608-0.288 0.608-0.64 0-0.32-0.288-0.576-0.608-0.576zM16 25.408c0 0 0 0 0 0-0.32 0-0.608 0.256-0.608 0.608v0.704c0 0.352 0.256 0.608 0.608 0.608v0c0.32 0 0.608-0.256 0.608-0.608v-0.704c0-0.352-0.256-0.608-0.608-0.608zM16 0c-8.224 0-14.944 6.688-14.944 14.944 0 8.224 6.72 14.912 14.944 14.912s14.944-6.688 14.944-14.912c0-8.256-6.72-14.944-14.944-14.944zM16 28.544c-7.488 0-13.6-6.112-13.6-13.6s6.112-13.6 13.6-13.6c7.488 0 13.6 6.080 13.6 13.6s-6.112 13.6-13.6 13.6zM16 5.024c-0.352 0-0.672 0.32-0.672 0.672v8.96l-3.84 3.84c-0.256 0.256-0.256 0.672 0 0.96 0.128 0.128 0.32 0.192 0.48 0.192s0.352-0.064 0.48-0.192l3.872-3.904c0.032 0 0.032-0.064 0.064-0.096 0.16-0.096 0.288-0.288 0.288-0.512v-9.248c0-0.352-0.288-0.672-0.672-0.672zM21.248 5.856c0.096 0.064 0.192 0.096 0.288 0.096 0.224 0 0.416-0.128 0.544-0.32l0.352-0.608c0.16-0.288 0.064-0.672-0.224-0.832s-0.672-0.064-0.832 0.224l-0.352 0.608c-0.192 0.288-0.096 0.672 0.224 0.832z"></path>
</svg>
