<?xml version="1.0" encoding="utf-8"?>
<!-- Generated by IcoMoon.io -->
<!DOCTYPE svg PUBLIC "-//W3C//DTD SVG 1.1//EN" "http://www.w3.org/Graphics/SVG/1.1/DTD/svg11.dtd">
<svg version="1.1" xmlns="http://www.w3.org/2000/svg" xmlns:xlink="http://www.w3.org/1999/xlink" width="32" height="32" viewBox="0 0 32 32">
<path d="M20.992 23.232h1.088c0.32 0 0.544-0.256 0.544-0.544 0-0.32-0.224-0.576-0.544-0.576h-1.088c-0.32 0-0.576 0.256-0.576 0.576 0 0.288 0.256 0.544 0.576 0.544zM24.576 6.368c-1.216 0-2.208 0.992-2.208 2.208 0 0.288 0.256 0.544 0.576 0.544 0.288 0 0.544-0.256 0.544-0.544 0-0.608 0.48-1.088 1.088-1.088 0.32 0 0.544-0.256 0.544-0.576 0-0.288-0.224-0.544-0.544-0.544zM28.16 0h-7.168c-1.536 0-2.784 1.248-2.784 2.752v2.784h-1.088v-2.784c0-1.504-1.248-2.752-2.784-2.752h-10.496c-1.536 0-2.784 1.248-2.784 2.752v6.656c0 1.504 1.248 2.752 2.784 2.752h10.496c1.536 0 2.784-1.248 2.784-2.752v-2.784h1.088v17.152c0 1.536 1.248 2.784 2.784 2.784h7.168c1.536 0 2.784-1.248 2.784-2.784v-21.024c0-1.504-1.248-2.752-2.784-2.752zM3.84 1.12h10.496c0.736 0 1.344 0.448 1.568 1.088h-13.632c0.224-0.64 0.832-1.088 1.568-1.088zM14.336 11.072h-10.496c-0.736 0-1.344-0.48-1.568-1.12h13.632c-0.224 0.64-0.832 1.12-1.568 1.12zM16 8.832h-13.824v-5.504h13.824v5.504zM29.824 23.776c0 0.928-0.736 1.664-1.664 1.664h-7.168c-0.928 0-1.664-0.736-1.664-1.664v-4.416h10.496v4.416zM29.824 18.24h-10.496v-15.488c0-0.896 0.736-1.632 1.664-1.632h7.168c0.928 0 1.664 0.736 1.664 1.632v15.488zM24.576 4.416c-2.304 0-4.16 1.856-4.16 4.16s1.856 4.128 4.16 4.128 4.16-1.856 4.16-4.128-1.888-4.16-4.16-4.16zM24.576 11.616c-1.664 0-3.040-1.376-3.040-3.040 0-1.696 1.376-3.040 3.040-3.040s3.040 1.344 3.040 3.040c0 1.664-1.376 3.040-3.040 3.040z"></path>
</svg>
