<?xml version="1.0" encoding="utf-8"?>
<!-- Generated by IcoMoon.io -->
<!DOCTYPE svg PUBLIC "-//W3C//DTD SVG 1.1//EN" "http://www.w3.org/Graphics/SVG/1.1/DTD/svg11.dtd">
<svg version="1.1" xmlns="http://www.w3.org/2000/svg" xmlns:xlink="http://www.w3.org/1999/xlink" width="32" height="32" viewBox="0 0 32 32">
<path d="M1.696 7.168c-0.16 0-0.32-0.064-0.448-0.192-0.256-0.224-0.256-0.64 0-0.864 8.128-8.16 21.376-8.16 29.504-0.032 0.256 0.256 0.256 0.672 0 0.896s-0.64 0.256-0.896 0c-7.648-7.648-20.064-7.648-27.712 0-0.128 0.128-0.288 0.192-0.448 0.192v0zM5.888 11.36c-0.16 0-0.32-0.064-0.448-0.16-0.224-0.256-0.224-0.64 0-0.896 2.816-2.816 6.592-4.384 10.56-4.384 0 0 0 0 0 0 4 0 7.744 1.568 10.56 4.384 0.224 0.224 0.224 0.64 0 0.864-0.256 0.256-0.64 0.256-0.896 0-2.592-2.56-6.016-4-9.664-4 0 0 0 0 0 0-3.648 0-7.072 1.44-9.664 4.032-0.128 0.096-0.288 0.16-0.448 0.16v0zM10.336 15.808c-0.16 0-0.32-0.064-0.448-0.192-0.256-0.256-0.256-0.64 0-0.896 3.36-3.36 8.864-3.36 12.224 0 0.256 0.256 0.256 0.64 0 0.896s-0.64 0.224-0.864 0c-2.912-2.88-7.584-2.88-10.496 0-0.096 0.128-0.256 0.192-0.416 0.192v0zM16 19.136v0c0.448 0 0.864 0.16 1.184 0.48s0.48 0.736 0.48 1.184c0 0.448-0.16 0.864-0.48 1.184-0.32 0.288-0.736 0.48-1.184 0.48s-0.864-0.192-1.184-0.512c-0.288-0.288-0.48-0.704-0.48-1.152s0.192-0.864 0.48-1.184c0.32-0.32 0.736-0.48 1.184-0.48M16 17.888c-0.736 0-1.504 0.288-2.048 0.832-1.152 1.152-1.152 3.008 0 4.128 0.544 0.576 1.312 0.864 2.048 0.864s1.504-0.288 2.048-0.864c1.152-1.12 1.152-2.976 0-4.128-0.544-0.544-1.312-0.832-2.048-0.832v0z"></path>
</svg>
