<svg width="467pt" height="500pt"  xmlns="http://www.w3.org/2000/svg" viewBox="0 0 24.43 28.85"><defs><style>.cls-1{fill:#fff;}.cls-2{fill:#f05050;}</style></defs><title>Asset 7</title><g id="Layer_2" data-name="Layer 2"><g id="Layer_1-2" data-name="Layer 1"><path id="_Path_" data-name="&lt;Path&gt;" class="cls-1" d="M12.2,28.85A16.43,16.43,0,0,0,20,24.15c4.44-4.73,6.1-13,2.46-18.63a12.3,12.3,0,0,0-18.85-2c-5,5-4.4,13.61-.45,19.1A16.44,16.44,0,0,0,12.2,28.85Z"/><path id="_Compound_Path_" data-name="&lt;Compound Path&gt;" class="cls-2" d="M12.2,28.85A16.43,16.43,0,0,0,20,24.15c4.44-4.73,6.1-13,2.46-18.63a12.3,12.3,0,0,0-18.85-2c-5,5-4.4,13.61-.45,19.1A16.44,16.44,0,0,0,12.2,28.85Zm-9-12.93a9.86,9.86,0,0,1-.77-3.82h0A9.91,9.91,0,0,1,12.2,2.3h0a9.8,9.8,0,0,1,7.2,3.17h0a11.2,11.2,0,0,1,1.82,2.81,10.79,10.79,0,0,1,.38,1.11h0l-.06-.21.06.22h0a9.75,9.75,0,0,1,.22,1h0A9.9,9.9,0,0,1,22,12.11h0a9.92,9.92,0,0,1-9.81,9.81h0A9.91,9.91,0,0,1,3.16,15.93Z"/><path id="_Path_2" data-name="&lt;Path&gt;" class="cls-1" d="M3.16,15.93a9.86,9.86,0,0,1-.77-3.82h0A9.91,9.91,0,0,1,12.2,2.3h0a9.8,9.8,0,0,1,7.2,3.17h0a11.2,11.2,0,0,1,1.82,2.81,10.79,10.79,0,0,1,.38,1.11h0l-.06-.21.06.22h0a9.75,9.75,0,0,1,.22,1h0A9.9,9.9,0,0,1,22,12.11h0a9.92,9.92,0,0,1-9.81,9.81h0A9.91,9.91,0,0,1,3.16,15.93Z"/><path class="cls-2" d="M13.92,16.53H11A.24.24,0,1,0,11,17h2.94a.24.24,0,0,0,0-.48Zm-4.18,0h-2a.24.24,0,0,0,0,.48h2a.24.24,0,0,0,.26-.24A.25.25,0,0,0,9.74,16.53Zm5.4-4.67H12.69a.25.25,0,0,0-.26.26v1.46a.25.25,0,0,0,.26.26h2.44a.25.25,0,0,0,.26-.26V12.12A.25.25,0,0,0,15.14,11.86Zm-.24,1.48h-2v-1h2Zm2.7-7.86H8.76A1.22,1.22,0,0,0,7.54,6.7V10.4H6.8a1.22,1.22,0,0,0-1.24,1.22v5.9A1.22,1.22,0,0,0,6.8,18.74h8.84a1.21,1.21,0,0,0,1.22-1.22V13.83h.74a1.24,1.24,0,0,0,1.24-1.24V6.7A1.23,1.23,0,0,0,17.6,5.48Zm-1.22,12a.73.73,0,0,1-.74.74H6.8a.73.73,0,0,1-.74-.74v-5.9a.73.73,0,0,1,.74-.74h8.84a.73.73,0,0,1,.74.74Zm2-4.91a.73.73,0,0,1-.74.74h-.74V11.62a1.21,1.21,0,0,0-1.22-1.22H8v-1H18.33Zm0-3.68H8v-1H18.33Zm0-1.48H8V6.7A.73.73,0,0,1,8.76,6H17.6a.73.73,0,0,1,.74.72Z"/></g></g></svg>