<svg  width="467pt" height="500pt"  xmlns="http://www.w3.org/2000/svg" viewBox="0 0 24.43 28.85"><defs><style>.cls-1{fill:#fff;}.cls-2{fill:#f05050;}</style></defs><title>Asset 12</title><g id="Layer_2" data-name="Layer 2"><g id="Layer_1-2" data-name="Layer 1"><path id="_Path_" data-name="&lt;Path&gt;" class="cls-1" d="M12.2,28.85A16.43,16.43,0,0,0,20,24.15c4.44-4.73,6.1-13,2.46-18.63a12.3,12.3,0,0,0-18.85-2c-5,5-4.4,13.61-.45,19.1A16.44,16.44,0,0,0,12.2,28.85Z"/><path id="_Compound_Path_" data-name="&lt;Compound Path&gt;" class="cls-2" d="M12.2,28.85A16.43,16.43,0,0,0,20,24.15c4.44-4.73,6.1-13,2.46-18.63a12.3,12.3,0,0,0-18.85-2c-5,5-4.4,13.61-.45,19.1A16.44,16.44,0,0,0,12.2,28.85Zm-9-12.93a9.86,9.86,0,0,1-.77-3.82h0A9.91,9.91,0,0,1,12.2,2.3h0a9.8,9.8,0,0,1,7.2,3.17h0a11.2,11.2,0,0,1,1.82,2.81,10.79,10.79,0,0,1,.38,1.11h0l-.06-.21.06.22h0a9.75,9.75,0,0,1,.22,1h0A9.9,9.9,0,0,1,22,12.11h0a9.92,9.92,0,0,1-9.81,9.81h0A9.91,9.91,0,0,1,3.16,15.93Z"/><path id="_Path_2" data-name="&lt;Path&gt;" class="cls-1" d="M3.16,15.93a9.86,9.86,0,0,1-.77-3.82h0A9.91,9.91,0,0,1,12.2,2.3h0a9.8,9.8,0,0,1,7.2,3.17h0a11.2,11.2,0,0,1,1.82,2.81,10.79,10.79,0,0,1,.38,1.11h0l-.06-.21.06.22h0a9.75,9.75,0,0,1,.22,1h0A9.9,9.9,0,0,1,22,12.11h0a9.92,9.92,0,0,1-9.81,9.81h0A9.91,9.91,0,0,1,3.16,15.93Z"/><path class="cls-2" d="M18.48,17.12h-.71v-1.2a1.13,1.13,0,0,0,.83-1.08,4.31,4.31,0,0,0-.85-2.13.2.2,0,0,0-.2-.08.21.21,0,0,0-.2.1,5,5,0,0,0-.84,2.11,1.19,1.19,0,0,0,.77,1.06v1.22h-1V13a.25.25,0,0,0,.24-.24.25.25,0,0,0-.24-.25v-6a1,1,0,0,0-.63-.85l-3-.92a2,2,0,0,0-1.06,0l-3,.92a1,1,0,0,0-.63.85v6a.25.25,0,0,0-.24.25.25.25,0,0,0,.24.24v4.11h-1V15.9a1.12,1.12,0,0,0,.8-1.06,4.31,4.31,0,0,0-.85-2.13.2.2,0,0,0-.2-.08.21.21,0,0,0-.2.1,5,5,0,0,0-.84,2.11,1.18,1.18,0,0,0,.81,1.08v1.2H5.91a.24.24,0,1,0,0,.48H18.48a.24.24,0,1,0,0-.48ZM6.32,14.84a3.74,3.74,0,0,1,.56-1.53,3.2,3.2,0,0,1,.55,1.53.61.61,0,0,1-.55.62A.63.63,0,0,1,6.32,14.84ZM12,17.12H10.74V14.94H12Zm1.69,0H12.44V14.94h1.22Zm2.17,0H14.13V14.94h.49a.25.25,0,0,0,.24-.24.25.25,0,0,0-.24-.25H9.78a.25.25,0,0,0-.24.25.25.25,0,0,0,.24.24h.49v2.18H8.57V13H10v.24a.24.24,0,0,0,.25.24h3.86a.24.24,0,0,0,.25-.24V13h1.44ZM10.5,13v-.49h3.39V13Zm5.32-.49H14.38v-.24a.24.24,0,0,0-.25-.24H10.27a.24.24,0,0,0-.25.24v.24H8.57v-6a.46.46,0,0,1,.29-.39l2.94-.92a1.49,1.49,0,0,1,.78,0l2.94.92a.46.46,0,0,1,.29.39ZM17,14.84a3.55,3.55,0,0,1,.56-1.53,3.2,3.2,0,0,1,.55,1.53.61.61,0,0,1-.55.62A.63.63,0,0,1,17,14.84ZM14.86,7.69h-1a.24.24,0,0,0-.24.24v1a.24.24,0,0,0,.48,0V8.16h.73a.24.24,0,1,0,0-.48Zm-4.35,0h-1a.23.23,0,0,0-.24.24v1a.23.23,0,0,0,.24.24.24.24,0,0,0,.24-.24V8.16h.73a.24.24,0,0,0,0-.48Zm0,2.17h-1a.24.24,0,0,0-.24.24v1a.24.24,0,0,0,.24.24.25.25,0,0,0,.24-.24v-.73h.73a.24.24,0,0,0,.24-.25A.24.24,0,0,0,10.5,9.86Zm2.18-2.17h-1a.24.24,0,0,0-.24.24v1a.24.24,0,0,0,.24.24A.24.24,0,0,0,12,8.89V8.16h.73a.24.24,0,1,0,0-.48Zm0,2.17h-1a.25.25,0,0,0-.24.24v1a.25.25,0,0,0,.24.24.25.25,0,0,0,.25-.24v-.73h.73a.25.25,0,0,0,.24-.25A.25.25,0,0,0,12.69,9.86Zm2.17,0h-1a.25.25,0,0,0-.24.24v1a.24.24,0,0,0,.48,0v-.73h.73a.25.25,0,0,0,.25-.25A.26.26,0,0,0,14.86,9.86Z"/></g></g></svg>