<svg   width="467pt" height="500pt"  xmlns="http://www.w3.org/2000/svg" viewBox="0 0 24.43 28.85"><defs><style>.cls-1{fill:#fff;}.cls-2{fill:#f05050;}</style></defs><title>Asset 11</title><g id="Layer_2" data-name="Layer 2"><g id="Layer_1-2" data-name="Layer 1"><path id="_Path_" data-name="&lt;Path&gt;" class="cls-1" d="M12.2,28.85A16.43,16.43,0,0,0,20,24.15c4.44-4.73,6.1-13,2.46-18.63a12.3,12.3,0,0,0-18.85-2c-5,5-4.4,13.61-.45,19.1A16.44,16.44,0,0,0,12.2,28.85Z"/><path id="_Compound_Path_" data-name="&lt;Compound Path&gt;" class="cls-2" d="M12.2,28.85A16.43,16.43,0,0,0,20,24.15c4.44-4.73,6.1-13,2.46-18.63a12.3,12.3,0,0,0-18.85-2c-5,5-4.4,13.61-.45,19.1A16.44,16.44,0,0,0,12.2,28.85Zm-9-12.93a9.86,9.86,0,0,1-.77-3.82h0A9.91,9.91,0,0,1,12.2,2.3h0a9.8,9.8,0,0,1,7.2,3.17h0a11.2,11.2,0,0,1,1.82,2.81,10.79,10.79,0,0,1,.38,1.11h0l-.06-.21.06.22h0a9.75,9.75,0,0,1,.22,1h0A9.9,9.9,0,0,1,22,12.11h0a9.92,9.92,0,0,1-9.81,9.81h0A9.91,9.91,0,0,1,3.16,15.93Z"/><path id="_Path_2" data-name="&lt;Path&gt;" class="cls-1" d="M3.16,15.93a9.86,9.86,0,0,1-.77-3.82h0A9.91,9.91,0,0,1,12.2,2.3h0a9.8,9.8,0,0,1,7.2,3.17h0a11.2,11.2,0,0,1,1.82,2.81,10.79,10.79,0,0,1,.38,1.11h0l-.06-.21.06.22h0a9.75,9.75,0,0,1,.22,1h0A9.9,9.9,0,0,1,22,12.11h0a9.92,9.92,0,0,1-9.81,9.81h0A9.91,9.91,0,0,1,3.16,15.93Z"/><path class="cls-2" d="M6.1,9.79h.06a.28.28,0,0,0,.27-.22A4.12,4.12,0,0,1,9,6.54l-.47.72a.27.27,0,0,0,.06.37.3.3,0,0,0,.16,0,.25.25,0,0,0,.22-.12l.94-1.39a.29.29,0,0,0,0-.25.27.27,0,0,0-.2-.16L8,5.38a.27.27,0,0,0-.12.53l.77.17A4.62,4.62,0,0,0,5.9,9.48.27.27,0,0,0,6.1,9.79Zm4.06,2.59a1.61,1.61,0,0,1,1,.39.26.26,0,0,0,.37,0,.24.24,0,0,0,0-.37,2.09,2.09,0,0,0-1.39-.53A2.36,2.36,0,0,0,8,13.73H7.34a.27.27,0,0,0-.27.28.26.26,0,0,0,.27.27h.55v.14a1.85,1.85,0,0,0,0,.41H7.34a.25.25,0,0,0-.27.27.26.26,0,0,0,.27.27H8A2.33,2.33,0,0,0,10.17,17a2.09,2.09,0,0,0,1.39-.53.24.24,0,0,0,0-.37.27.27,0,0,0-.37,0,1.61,1.61,0,0,1-1,.39,1.74,1.74,0,0,1-1.55-1.08h1.69a.26.26,0,0,0,.27-.27.25.25,0,0,0-.27-.27H8.45a3.85,3.85,0,0,1,0-.41v-.14h1.89a.26.26,0,0,0,.27-.27.27.27,0,0,0-.27-.28H8.53A1.78,1.78,0,0,1,10.17,12.38Zm8.17,1.92a.27.27,0,0,0-.31.2,4.12,4.12,0,0,1-2.55,3l.48-.72a.27.27,0,0,0-.45-.3l-.94,1.39a.27.27,0,0,0,0,.25.27.27,0,0,0,.2.16l1.66.37.06,0a.28.28,0,0,0,.27-.22.29.29,0,0,0-.22-.33L15.76,18a4.67,4.67,0,0,0,2.8-3.39A.26.26,0,0,0,18.34,14.3Zm-2.81.41A5,5,0,1,0,9.63,8.62a7.3,7.3,0,0,0-.12.81,5,5,0,1,0,5.37,5.36C15.1,14.77,15.31,14.74,15.52,14.71ZM9.9,18.87a4.46,4.46,0,1,1,4.45-4.45A4.46,4.46,0,0,1,9.9,18.87Zm4.45-9.59a1.38,1.38,0,0,1-.92-.61.51.51,0,0,1,.06-.48,1,1,0,0,1,.86-.48Zm1.84,2a1.26,1.26,0,0,0,0-1,2.05,2.05,0,0,0-1.25-.86V7.73a1.25,1.25,0,0,1,.86.47.28.28,0,0,0,.37.08.26.26,0,0,0,.08-.37,1.89,1.89,0,0,0-1.31-.72V7a.27.27,0,0,0-.27-.27.28.28,0,0,0-.28.27v.17A1.63,1.63,0,0,0,13,7.91a1.07,1.07,0,0,0-.06,1,1.84,1.84,0,0,0,1.33.94l.08,0v1.92l-.14,0h-.09a5,5,0,0,0-4.06-2.31,5,5,0,0,1,.11-.67,4.46,4.46,0,1,1,5.25,5.44c-.17,0-.34.06-.53.08a5.09,5.09,0,0,0-.31-1.62s0,0,.06,0a.27.27,0,0,0,.27-.27v-.09A1.56,1.56,0,0,0,16.2,11.32Zm-1.3.42V10a1.44,1.44,0,0,1,.78.53.77.77,0,0,1,0,.59A1,1,0,0,1,14.9,11.74Z"/></g></g></svg>