<svg width="467pt" height="500pt" xmlns="http://www.w3.org/2000/svg" viewBox="0 0 24.43 28.85">
    <defs>
        <style>.cls-1{fill:#fff;}.cls-2{fill:#f05050;}</style>
    </defs>
    <title>m_avtovokzali</title>
    <g id="Layer_2" data-name="Layer 2">
        <g id="Layer_1-2" data-name="Layer 1">
            <path id="_Path_" data-name="&lt;Path&gt;" class="cls-1"
                  d="M12.2,28.85A16.43,16.43,0,0,0,20,24.15c4.44-4.73,6.1-13,2.46-18.63a12.3,12.3,0,0,0-18.85-2c-5,5-4.4,13.61-.45,19.1A16.44,16.44,0,0,0,12.2,28.85Z"/>
            <path id="_Compound_Path_" data-name="&lt;Compound Path&gt;" class="cls-2"
                  d="M12.2,28.85A16.43,16.43,0,0,0,20,24.15c4.44-4.73,6.1-13,2.46-18.63a12.3,12.3,0,0,0-18.85-2c-5,5-4.4,13.61-.45,19.1A16.44,16.44,0,0,0,12.2,28.85Zm-9-12.93a9.86,9.86,0,0,1-.77-3.82h0A9.91,9.91,0,0,1,12.2,2.3h0a9.8,9.8,0,0,1,7.2,3.17h0a11.2,11.2,0,0,1,1.82,2.81,10.79,10.79,0,0,1,.38,1.11h0l-.06-.21.06.22h0a9.75,9.75,0,0,1,.22,1h0A9.9,9.9,0,0,1,22,12.11h0a9.92,9.92,0,0,1-9.81,9.81h0A9.91,9.91,0,0,1,3.16,15.93Z"/>
            <path id="_Path_2" data-name="&lt;Path&gt;" class="cls-1"
                  d="M3.16,15.93a9.86,9.86,0,0,1-.77-3.82h0A9.91,9.91,0,0,1,12.2,2.3h0a9.8,9.8,0,0,1,7.2,3.17h0a11.2,11.2,0,0,1,1.82,2.81,10.79,10.79,0,0,1,.38,1.11h0l-.06-.21.06.22h0a9.75,9.75,0,0,1,.22,1h0A9.9,9.9,0,0,1,22,12.11h0a9.92,9.92,0,0,1-9.81,9.81h0A9.91,9.91,0,0,1,3.16,15.93Z"/>
            <path class="cls-2"
                  d="M18.16,7.81h-.29V7a2,2,0,0,0-1.27-1.78,14.46,14.46,0,0,0-8.8,0A1.91,1.91,0,0,0,6.52,7v.85H6.24a.85.85,0,0,0-.85.85v2.56a.84.84,0,0,0,.85.85h.28v5.16a1.31,1.31,0,0,0,.85,1.27v.38a.85.85,0,0,0,.85.85h.87a.85.85,0,0,0,.85-.85V18.6h4.54v.28a.84.84,0,0,0,.85.85h.85a.84.84,0,0,0,.85-.85v-.39a1.37,1.37,0,0,0,.85-1.26V12.07h.29a.85.85,0,0,0,.85-.85V8.66A.85.85,0,0,0,18.16,7.81ZM8,5.72a13.9,13.9,0,0,1,8.47,0,1.42,1.42,0,0,1,.87,1.14,1.94,1.94,0,0,0-1-.46c-.54-.08-1.09-.13-1.7-.18a.32.32,0,0,0-.21,0l-.2.2c-.13.15-.2.21-.33.21h-3.4c-.11,0-.15,0-.26-.15a2.8,2.8,0,0,0-.31-.28.59.59,0,0,0-.18,0c-.59,0-1.13.11-1.62.18a2,2,0,0,0-1,.46A1.42,1.42,0,0,1,8,5.72Zm9.35,11.51a.82.82,0,0,1-.64.78.26.26,0,0,0-.23.26v.6a.28.28,0,0,1-.28.29h-.85a.28.28,0,0,1-.28-.29V18.3a.29.29,0,0,0-.29-.28H9.63a.29.29,0,0,0-.28.28v.57a.29.29,0,0,1-.28.29H8.21a.29.29,0,0,1-.28-.29v-.59A.29.29,0,0,0,7.71,18a.75.75,0,0,1-.62-.78V12.95a1.88,1.88,0,0,0,1,.46,28.77,28.77,0,0,0,4.08.29,28.77,28.77,0,0,0,4.08-.29,2.06,2.06,0,0,0,1.06-.49Zm1.13-6a.29.29,0,0,1-.28.28h-.29v-2a.28.28,0,1,0-.55,0v2.25a1.29,1.29,0,0,1-1.14,1.08,28.54,28.54,0,0,1-8,0,1.2,1.2,0,0,1-1.08-1.08V9.52a.29.29,0,0,0-.28-.29.29.29,0,0,0-.29.29v2H6.24a.29.29,0,0,1-.29-.28V8.66a.29.29,0,0,1,.29-.28h.57a.29.29,0,0,0,.28-.28v0A1.25,1.25,0,0,1,8.18,7c.46-.07.95-.11,1.49-.16,0,0,.08.08.13.11a.81.81,0,0,0,.67.34h3.4a1,1,0,0,0,.75-.39l0-.07c.55,0,1.06.1,1.55.16a1.24,1.24,0,0,1,1.09,1.09v0a.28.28,0,0,0,.28.28h.57a.29.29,0,0,1,.28.28ZM15.85,14.7l-1.34.44a1.06,1.06,0,0,0-.72,1.13c0,.38.36.62.85.62H16a.7.7,0,0,0,.78-.73v-.55a1.09,1.09,0,0,0-.21-.8A.61.61,0,0,0,15.85,14.7Zm.31,1.45c0,.11,0,.18-.21.18H14.65a.46.46,0,0,1-.29-.08c0-.31.1-.49.34-.57L16,15.23l.08,0a1.53,1.53,0,0,1,0,.39Zm-6.4-1L8.49,14.7a.6.6,0,0,0-.67.08.94.94,0,0,0-.16.75v.62a.63.63,0,0,0,.67.73H9.63c.51,0,.85-.24.87-.62A1.09,1.09,0,0,0,9.76,15.14Zm-.13,1.19H8.33l-.08,0h0a.74.74,0,0,1,0-.16v-.64a1.68,1.68,0,0,1,0-.29l.07,0,1.29.44a.52.52,0,0,1,.34.57A.42.42,0,0,1,9.63,16.33Z"/>
        </g>
    </g>
</svg>