<?xml version="1.0" encoding="UTF-8" standalone="no"?>
<svg
   xmlns:dc="http://purl.org/dc/elements/1.1/"
   xmlns:cc="http://creativecommons.org/ns#"
   xmlns:rdf="http://www.w3.org/1999/02/22-rdf-syntax-ns#"
   xmlns:svg="http://www.w3.org/2000/svg"
   xmlns="http://www.w3.org/2000/svg"
   xmlns:sodipodi="http://sodipodi.sourceforge.net/DTD/sodipodi-0.dtd"
   xmlns:inkscape="http://www.inkscape.org/namespaces/inkscape"
   width="467pt"
   height="500pt"
   viewBox="0 0 24.43 28.85"
   version="1.1"
   id="svg15"
   sodipodi:docname="m_building.svg"
   inkscape:version="0.92.1 r15371">
  <metadata
     id="metadata19">
    <rdf:RDF>
      <cc:Work
         rdf:about="">
        <dc:format>image/svg+xml</dc:format>
        <dc:type
           rdf:resource="http://purl.org/dc/dcmitype/StillImage" />
        <dc:title>Asset 8</dc:title>
      </cc:Work>
    </rdf:RDF>
  </metadata>
  <sodipodi:namedview
     pagecolor="#ffffff"
     bordercolor="#666666"
     borderopacity="1"
     objecttolerance="10"
     gridtolerance="10"
     guidetolerance="10"
     inkscape:pageopacity="0"
     inkscape:pageshadow="2"
     inkscape:window-width="1920"
     inkscape:window-height="1018"
     id="namedview17"
     showgrid="false"
     inkscape:zoom="0.354"
     inkscape:cx="311.33333"
     inkscape:cy="333.33333"
     inkscape:window-x="-8"
     inkscape:window-y="-8"
     inkscape:window-maximized="1"
     inkscape:current-layer="svg15" />
  <defs
     id="defs4">
    <style
       id="style2">.cls-1{fill:#fff;}.cls-2{fill:#f05050;}</style>
  </defs>
  <title
     id="title6">Asset 8</title>
  <g
     id="Layer_2"
     data-name="Layer 2">
    <g
       id="Layer_1-2"
       data-name="Layer 1">
      <path
         id="_Path_"
         data-name="&lt;Path&gt;"
         class="cls-1"
         d="M12.2,28.85A16.43,16.43,0,0,0,20,24.15c4.44-4.73,6.1-13,2.46-18.63a12.3,12.3,0,0,0-18.85-2c-5,5-4.4,13.61-.45,19.1A16.44,16.44,0,0,0,12.2,28.85Z" />
      <path
         id="_Compound_Path_"
         data-name="&lt;Compound Path&gt;"
         class="cls-2"
         d="M12.2,28.85A16.43,16.43,0,0,0,20,24.15c4.44-4.73,6.1-13,2.46-18.63a12.3,12.3,0,0,0-18.85-2c-5,5-4.4,13.61-.45,19.1A16.44,16.44,0,0,0,12.2,28.85Zm-9-12.93a9.86,9.86,0,0,1-.77-3.82h0A9.91,9.91,0,0,1,12.2,2.3h0a9.8,9.8,0,0,1,7.2,3.17h0a11.2,11.2,0,0,1,1.82,2.81,10.79,10.79,0,0,1,.38,1.11h0l-.06-.21.06.22h0a9.75,9.75,0,0,1,.22,1h0A9.9,9.9,0,0,1,22,12.11h0a9.92,9.92,0,0,1-9.81,9.81h0A9.91,9.91,0,0,1,3.16,15.93Z" />
      <path
         id="_Path_2"
         data-name="&lt;Path&gt;"
         class="cls-1"
         d="M3.16,15.93a9.86,9.86,0,0,1-.77-3.82h0A9.91,9.91,0,0,1,12.2,2.3h0a9.8,9.8,0,0,1,7.2,3.17h0a11.2,11.2,0,0,1,1.82,2.81,10.79,10.79,0,0,1,.38,1.11h0l-.06-.21.06.22h0a9.75,9.75,0,0,1,.22,1h0A9.9,9.9,0,0,1,22,12.11h0a9.92,9.92,0,0,1-9.81,9.81h0A9.91,9.91,0,0,1,3.16,15.93Z" />
      <path
         class="cls-2"
         d="m 19.154537,18.25062 h -0.805278 v -1.357921 c 0.505273,-0.126318 0.931597,-0.631592 0.931597,-1.215813 0,-1.105284 -0.915808,-2.336888 -0.963177,-2.400046 -0.04736,-0.06316 -0.126318,-0.110529 -0.221057,-0.09474 -0.09474,0 -0.173687,0.03158 -0.221056,0.110529 -0.03159,0.06316 -0.947388,1.40529 -0.947388,2.384256 0.01579,0.489483 0.347376,1.026335 0.868438,1.200023 v 1.373711 h -1.089494 v -4.642195 c 0.142108,0 0.268426,-0.126318 0.268426,-0.268427 0,-0.157897 -0.126318,-0.284215 -0.268426,-0.284215 V 6.2345983 c 0,-0.4105343 -0.315796,-0.8368583 -0.71054,-0.9631766 L 12.664938,4.2292963 c -0.331585,-0.1105284 -0.868437,-0.1105284 -1.200023,0 L 8.1332718,5.2714217 C 7.7385273,5.39774 7.4227317,5.824064 7.4227317,6.2345983 v 6.8211847 c -0.142108,0 -0.2684262,0.126318 -0.2684262,0.284215 0,0.142109 0.1263182,0.268427 0.2684262,0.268427 V 18.25062 H 6.3332369 v -1.373711 c 0.5052731,-0.142108 0.9000175,-0.631591 0.9000175,-1.200023 0,-1.105284 -0.9158072,-2.336888 -0.9631765,-2.400046 -0.047369,-0.06316 -0.1263182,-0.110529 -0.2210569,-0.09474 -0.094738,0 -0.1736876,0.03158 -0.2210569,0.110529 -0.03158,0.06316 -0.9473868,1.40529 -0.9473868,2.384256 0.01579,0.505273 0.363165,1.057915 0.9158072,1.215813 V 18.25062 H 4.975316 c -0.1578977,0 -0.284216,0.110528 -0.284216,0.268426 0,0.157898 0.1263183,0.268426 0.284216,0.268426 h 14.179221 c 0.157898,0 0.284216,-0.110528 0.284216,-0.268426 0,-0.157898 -0.126318,-0.268426 -0.284216,-0.268426 z M 5.4332196,15.676886 c 0,-0.521063 0.3631649,-1.247393 0.6315911,-1.721086 0.2526365,0.394744 0.6158014,1.105284 0.6158014,1.721086 0,0.363165 -0.3000058,0.694751 -0.6158014,0.694751 -0.3473751,0 -0.6315911,-0.378955 -0.6315911,-0.694751 z m 6.3632814,2.573734 h -1.373712 v -2.463206 h 1.373712 z m 1.910562,0 h -1.37371 v -2.463206 h 1.37371 z m 2.447416,0 h -1.910563 v -2.463206 h 0.552642 c 0.142109,0 0.268427,-0.126318 0.268427,-0.268426 0,-0.157898 -0.126318,-0.284215 -0.268427,-0.284215 H 9.333295 c -0.142108,0 -0.2684262,0.126317 -0.2684262,0.284215 0,0.142108 0.1263182,0.268426 0.2684262,0.268426 H 9.8859373 V 18.25062 H 7.975374 v -4.642195 h 1.6263472 v 0.268426 c 0,0.157898 0.1263183,0.268427 0.2842161,0.268427 h 4.3579787 c 0.157899,0 0.284216,-0.110529 0.284216,-0.268427 v -0.268426 h 1.626347 z m -6.000115,-4.642195 v -0.552642 h 3.821126 v 0.552642 z m 6.000115,-0.552642 h -1.626347 v -0.268427 c 0,-0.157897 -0.126317,-0.268426 -0.284216,-0.268426 H 9.8859373 c -0.1578978,0 -0.2842161,0.110529 -0.2842161,0.268426 v 0.268427 H 7.975374 V 6.2345983 c 0,-0.1736876 0.1578978,-0.3947445 0.3315853,-0.4421138 L 11.622813,4.750359 c 0.236847,-0.078948 0.647381,-0.078948 0.884227,0 l 3.315854,1.0421255 c 0.173688,0.047369 0.331585,0.2684262 0.331585,0.4421138 z m 1.326342,2.621103 c 0,-0.521063 0.347375,-1.247393 0.631591,-1.721086 0.252636,0.394744 0.615801,1.105284 0.615801,1.721086 0,0.363165 -0.300006,0.694751 -0.615801,0.694751 -0.347375,0 -0.631591,-0.378955 -0.631591,-0.694751 z M 15.064985,7.6083091 H 13.97549 c -0.142108,0 -0.268427,0.1105284 -0.268427,0.2684262 V 8.96623 c 0,0.1578978 0.110529,0.2684263 0.268427,0.2684263 0.157898,0 0.268426,-0.1105285 0.268426,-0.2684263 V 8.1451615 h 0.821069 c 0.157898,0 0.284216,-0.1263183 0.284216,-0.2684262 0,-0.1421081 -0.126318,-0.2684262 -0.284216,-0.2684262 z m -4.910621,0 H 9.0648688 c -0.1578978,0 -0.2684263,0.1105284 -0.2684263,0.2684262 V 8.96623 c 0,0.1578978 0.1105285,0.2684263 0.2684263,0.2684263 0.142108,0 0.2684262,-0.1105285 0.2684262,-0.2684263 V 8.1451615 h 0.821069 c 0.157897,0 0.268425,-0.1263183 0.268425,-0.2684262 0,-0.1421081 -0.110528,-0.2684262 -0.268425,-0.2684262 z m 0,2.4474159 H 9.0648688 c -0.1578978,0 -0.2684263,0.126318 -0.2684263,0.268426 v 1.105284 c 0,0.142108 0.1105285,0.268427 0.2684263,0.268427 0.142108,0 0.2684262,-0.126319 0.2684262,-0.268427 v -0.821068 h 0.821069 c 0.157897,0 0.268425,-0.126318 0.268425,-0.284216 0,-0.142108 -0.110528,-0.268426 -0.268425,-0.268426 z m 2.463205,-2.4474159 h -1.105285 c -0.142108,0 -0.268425,0.1105284 -0.268425,0.2684262 V 8.96623 c 0,0.1578978 0.126317,0.2684263 0.268425,0.2684263 0.157898,0 0.284217,-0.1105285 0.284217,-0.2684263 V 8.1451615 h 0.821068 c 0.142108,0 0.268426,-0.1263183 0.268426,-0.2684262 0,-0.1421081 -0.126318,-0.2684262 -0.268426,-0.2684262 z m 0,2.4474159 h -1.105285 c -0.142108,0 -0.268425,0.126318 -0.268425,0.268426 v 1.105284 c 0,0.142108 0.126317,0.268427 0.268425,0.268427 0.157898,0 0.284217,-0.126319 0.284217,-0.268427 v -0.821068 h 0.821068 c 0.142108,0 0.268426,-0.126318 0.268426,-0.284216 0,-0.142108 -0.126318,-0.268426 -0.268426,-0.268426 z m 2.447416,0 H 13.97549 c -0.142108,0 -0.268427,0.126318 -0.268427,0.268426 v 1.105284 c 0,0.142108 0.110529,0.268427 0.268427,0.268427 0.157898,0 0.268426,-0.126319 0.268426,-0.268427 v -0.821068 h 0.821069 c 0.157898,0 0.284216,-0.126318 0.284216,-0.284216 -0.01579,-0.142108 -0.126318,-0.268426 -0.284216,-0.268426 z"
         id="path11"
         inkscape:connector-curvature="0"
         style="fill:#f05050;stroke-width:0.10318869" />
    </g>
  </g>
</svg>
