<?xml version="1.0" encoding="UTF-8" standalone="no"?>
<svg
   xmlns:dc="http://purl.org/dc/elements/1.1/"
   xmlns:cc="http://creativecommons.org/ns#"
   xmlns:rdf="http://www.w3.org/1999/02/22-rdf-syntax-ns#"
   xmlns:svg="http://www.w3.org/2000/svg"
   xmlns="http://www.w3.org/2000/svg"
   xmlns:sodipodi="http://sodipodi.sourceforge.net/DTD/sodipodi-0.dtd"
   xmlns:inkscape="http://www.inkscape.org/namespaces/inkscape"
   width="467pt"
   height="500pt"
   viewBox="0 0 24.43 28.85"
   version="1.1"
   id="svg15"
   sodipodi:docname="m_helicopter.svg"
   inkscape:version="0.92.1 r15371">
  <metadata
     id="metadata19">
    <rdf:RDF>
      <cc:Work
         rdf:about="">
        <dc:format>image/svg+xml</dc:format>
        <dc:type
           rdf:resource="http://purl.org/dc/dcmitype/StillImage" />
        <dc:title>Asset 8</dc:title>
      </cc:Work>
    </rdf:RDF>
  </metadata>
  <sodipodi:namedview
     pagecolor="#ffffff"
     bordercolor="#666666"
     borderopacity="1"
     objecttolerance="10"
     gridtolerance="10"
     guidetolerance="10"
     inkscape:pageopacity="0"
     inkscape:pageshadow="2"
     inkscape:window-width="1920"
     inkscape:window-height="1018"
     id="namedview17"
     showgrid="false"
     inkscape:zoom="0.354"
     inkscape:cx="311.33333"
     inkscape:cy="333.33333"
     inkscape:window-x="-8"
     inkscape:window-y="-8"
     inkscape:window-maximized="1"
     inkscape:current-layer="svg15" />
  <defs
     id="defs4">
    <style
       id="style2">.cls-1{fill:#fff;}.cls-2{fill:#f05050;}</style>
  </defs>
  <title
     id="title6">Asset 8</title>
  <g
     id="Layer_2"
     data-name="Layer 2">
    <g
       id="Layer_1-2"
       data-name="Layer 1">
      <path
         id="_Path_"
         data-name="&lt;Path&gt;"
         class="cls-1"
         d="M12.2,28.85A16.43,16.43,0,0,0,20,24.15c4.44-4.73,6.1-13,2.46-18.63a12.3,12.3,0,0,0-18.85-2c-5,5-4.4,13.61-.45,19.1A16.44,16.44,0,0,0,12.2,28.85Z" />
      <path
         id="_Compound_Path_"
         data-name="&lt;Compound Path&gt;"
         class="cls-2"
         d="M12.2,28.85A16.43,16.43,0,0,0,20,24.15c4.44-4.73,6.1-13,2.46-18.63a12.3,12.3,0,0,0-18.85-2c-5,5-4.4,13.61-.45,19.1A16.44,16.44,0,0,0,12.2,28.85Zm-9-12.93a9.86,9.86,0,0,1-.77-3.82h0A9.91,9.91,0,0,1,12.2,2.3h0a9.8,9.8,0,0,1,7.2,3.17h0a11.2,11.2,0,0,1,1.82,2.81,10.79,10.79,0,0,1,.38,1.11h0l-.06-.21.06.22h0a9.75,9.75,0,0,1,.22,1h0A9.9,9.9,0,0,1,22,12.11h0a9.92,9.92,0,0,1-9.81,9.81h0A9.91,9.91,0,0,1,3.16,15.93Z" />
      <path
         id="_Path_2"
         data-name="&lt;Path&gt;"
         class="cls-1"
         d="M3.16,15.93a9.86,9.86,0,0,1-.77-3.82h0A9.91,9.91,0,0,1,12.2,2.3h0a9.8,9.8,0,0,1,7.2,3.17h0a11.2,11.2,0,0,1,1.82,2.81,10.79,10.79,0,0,1,.38,1.11h0l-.06-.21.06.22h0a9.75,9.75,0,0,1,.22,1h0A9.9,9.9,0,0,1,22,12.11h0a9.92,9.92,0,0,1-9.81,9.81h0A9.91,9.91,0,0,1,3.16,15.93Z" />
      <path
         class="cls-2"
         d="m 13.35937,16.875155 c -0.0015,0 -0.0024,0 -0.0039,0 h -1.170671 c -0.101819,0 -0.184638,-0.08233 -0.184638,-0.184638 0,-0.102306 0.08233,-0.184638 0.184638,-0.184638 h 1.025497 l 0.114485,-0.529556 C 11.44917,15.731762 9.8488104,14.40422 9.2861269,12.570017 L 6.7260391,12.028282 c -0.2630728,0.267458 -0.6289388,0.433096 -1.0332914,0.433096 -0.7999362,0 -1.4507977,-0.650862 -1.4507977,-1.450797 0,-0.439917 0.1968174,-0.835013 0.5071458,-1.1010088 L 4.4217164,8.7739748 c -0.016077,-0.055537 -0.00487,-0.1154597 0.029718,-0.161741 0.034589,-0.046282 0.08964,-0.073563 0.147613,-0.073563 h 0.609452 c 0.07405,0 0.1403055,0.044332 0.1695358,0.1120495 L 5.767285,9.5617316 c 0.6435539,0.03264 1.1779814,0.4866844 1.3319277,1.0907774 H 9.331921 C 9.299768,10.578459 9.28223,10.497101 9.28223,10.411846 v -0.309841 c 0,-0.3361484 0.2733034,-0.609939 0.6099391,-0.609939 H 11.84183 V 7.7884262 H 5.1242181 C 5.0223992,7.7884262 4.93958,7.7060942 4.93958,7.6037881 4.93958,7.501482 5.021912,7.41915 5.1242181,7.41915 H 19.647784 c 0.101819,0 0.184638,0.082332 0.184638,0.1846381 0,0.1023061 -0.08233,0.1846381 -0.184638,0.1846381 H 12.930172 V 9.492066 h 0.779962 c 0.336149,0 0.609939,0.2733035 0.609939,0.609939 v 0.309841 c 0,0.08526 -0.01754,0.1671 -0.04969,0.240663 h 0.0068 c 0.880806,0 1.699255,0.272329 2.375937,0.736604 0.01413,0.0073 0.02728,0.01656 0.03848,0.0268 1.082983,0.761449 1.791818,2.020788 1.791818,3.442843 v 0.05651 c 0,0.524685 -0.368789,0.9646 -0.860346,1.074702 l 0.111563,0.515427 h 0.93196 c 0.101818,0 0.184638,0.08234 0.184638,0.184638 0,0.102306 -0.08233,0.184639 -0.184638,0.184639 h -5.301379 c -9.69e-4,0 -0.0024,0 -0.0034,0 z m 0.227997,-0.368789 h 3.767787 l -0.105717,-0.489121 h -3.300102 c -0.08574,0 -0.17051,-0.0024 -0.255278,-0.0068 z m -6.6196907,-4.803514 2.5021143,0.529556 c 0.067229,0.01413 0.1208187,0.0643 0.1393312,0.130562 0.5446582,1.934559 2.3301432,3.285973 4.3411882,3.285973 h 3.430664 c 0.403865,0 0.732706,-0.328354 0.732706,-0.732706 v -0.05651 c 0,-0.300585 -0.03458,-0.592888 -0.100357,-0.873986 -0.0039,0 -0.0078,4.87e-4 -0.01218,4.87e-4 h -1.428876 c -0.628939,0 -1.187725,-0.377071 -1.422541,-0.960703 L 14.860835,12.30841 c -0.08526,-0.210946 -0.05992,-0.449172 0.06723,-0.637708 0.127152,-0.188535 0.339073,-0.301072 0.566581,-0.301072 h 0.376585 C 15.385518,11.146988 14.845244,11.022273 14.276715,11.022273 H 7.1440324 c 0,0.01997 -9.695e-4,0.04043 -0.00146,0.0604 -0.00926,0.194382 -0.056999,0.37902 -0.1364082,0.54612 -0.011692,0.02534 -0.024359,0.05018 -0.037999,0.07454 z m 8.5259947,0.03508 c -0.106204,0 -0.201203,0.05066 -0.260638,0.138356 -0.05944,0.08769 -0.07064,0.194869 -0.03118,0.293766 l 0.288893,0.717604 c 0.178793,0.443326 0.602631,0.729782 1.080547,0.729782 h 1.335338 C 17.645021,12.854526 17.14908,12.19928 16.505525,11.738416 Z M 5.0511424,10.140004 c -0.2669702,0.197305 -0.4408905,0.514454 -0.4408905,0.871064 0,0.596786 0.4852231,1.082008 1.0820085,1.082008 0.4335829,0 0.8087052,-0.25674 0.9811641,-0.626016 0.056025,-0.12033 0.08964,-0.250406 0.098409,-0.383891 0.00146,-0.02387 0.00243,-0.04774 0.00243,-0.0721 0,-0.04433 -0.0039,-0.09159 -0.011692,-0.148588 -9.696e-4,-0.0073 -0.00146,-0.01462 -0.00146,-0.02192 C 6.6792705,10.324643 6.2310725,9.928572 5.6927477,9.928572 h -0.013641 c -0.00877,0.00146 -0.017538,0.00243 -0.026307,0.00292 -0.2114326,0.0078 -0.4136089,0.075998 -0.5850934,0.197792 -0.00536,0.0039 -0.010718,0.0073 -0.016077,0.01023 z m 4.8342058,0.512992 h 3.8296578 c 0.130075,-0.0034 0.234817,-0.1101 0.234817,-0.240662 v -0.309842 c 0,-0.1329976 -0.108153,-0.2406625 -0.240663,-0.2406625 H 9.8916815 c -0.132998,0 -0.2406629,0.1081521 -0.2406629,0.2406625 v 0.309842 c 0,0.130562 0.1047419,0.237739 0.2348168,0.240662 z M 4.8436072,8.907947 5.0716036,9.6996012 C 5.1685508,9.6533199 5.2718312,9.6177564 5.379009,9.5938849 L 5.0857316,8.9074599 H 4.8436072 Z m 7.3660378,0.5846062 h 0.350276 V 7.7889134 h -0.350276 z m 1.306595,4.0445008 c -0.411661,0 -0.746835,-0.335175 -0.746835,-0.746834 0,-0.411661 0.335174,-0.746836 0.746835,-0.746836 0.41166,0 0.746834,0.335175 0.746834,0.746836 0,0.411659 -0.335174,0.746834 -0.746834,0.746834 z m 0,-1.12488 c -0.20851,0 -0.378046,0.169535 -0.378046,0.378046 0,0.208509 0.169536,0.378044 0.378046,0.378044 0.208509,0 0.378045,-0.169535 0.378045,-0.378044 0,-0.208511 -0.169536,-0.378046 -0.378045,-0.378046 z m -1.948688,1.12488 c -0.41166,0 -0.746834,-0.335175 -0.746834,-0.746834 0,-0.411661 0.335174,-0.746836 0.746834,-0.746836 0.411661,0 0.746835,0.335175 0.746835,0.746836 0,0.411659 -0.335174,0.746834 -0.746835,0.746834 z m 0,-1.12488 c -0.208509,0 -0.378045,0.169535 -0.378045,0.378046 0,0.208509 0.169536,0.378044 0.378045,0.378044 0.20851,0 0.378046,-0.169535 0.378046,-0.378044 0,-0.208511 -0.169536,-0.378046 -0.378046,-0.378046 z M 5.6922604,11.282422 c -0.1495617,0 -0.2713546,-0.121793 -0.2713546,-0.271354 0,-0.149562 0.1217929,-0.271355 0.2713546,-0.271355 0.1495619,0 0.2713548,0.121793 0.2713548,0.271355 0,0.149561 -0.1217929,0.271354 -0.2713548,0.271354 z m 0,-0.369276 c -0.053589,0 -0.097434,0.04385 -0.097434,0.09743 0,0.05359 0.043846,0.09743 0.097434,0.09743 0.053589,0 0.097434,-0.04384 0.097434,-0.09743 0,-0.05359 -0.043846,-0.09743 -0.097434,-0.09743 z"
         id="path11"
         inkscape:connector-curvature="0"
         style="fill:#f05050;stroke-width:0.05027062" />
    </g>
  </g>
</svg>
