<svg width="467pt" height="500pt" xmlns="http://www.w3.org/2000/svg" viewBox="0 0 24.43 28.85">
    <defs>
        <style>.cls-1{fill:#fff;}.cls-2{fill:#f05050;}</style>
    </defs>
    <title>m_izvestnie ludi</title>
    <g id="Layer_2" data-name="Layer 2">
        <g id="Layer_1-2" data-name="Layer 1">
            <path id="_Path_" data-name="&lt;Path&gt;" class="cls-1"
                  d="M12.2,28.85A16.43,16.43,0,0,0,20,24.15c4.44-4.73,6.1-13,2.46-18.63a12.3,12.3,0,0,0-18.85-2c-5,5-4.4,13.61-.45,19.1A16.44,16.44,0,0,0,12.2,28.85Z"/>
            <path id="_Compound_Path_" data-name="&lt;Compound Path&gt;" class="cls-2"
                  d="M12.2,28.85A16.43,16.43,0,0,0,20,24.15c4.44-4.73,6.1-13,2.46-18.63a12.3,12.3,0,0,0-18.85-2c-5,5-4.4,13.61-.45,19.1A16.44,16.44,0,0,0,12.2,28.85Zm-9-12.93a9.86,9.86,0,0,1-.77-3.82h0A9.91,9.91,0,0,1,12.2,2.3h0a9.8,9.8,0,0,1,7.2,3.17h0a11.2,11.2,0,0,1,1.82,2.81,10.79,10.79,0,0,1,.38,1.11h0l-.06-.21.06.22h0a9.75,9.75,0,0,1,.22,1h0A9.9,9.9,0,0,1,22,12.11h0a9.92,9.92,0,0,1-9.81,9.81h0A9.91,9.91,0,0,1,3.16,15.93Z"/>
            <path id="_Path_2" data-name="&lt;Path&gt;" class="cls-1"
                  d="M3.16,15.93a9.86,9.86,0,0,1-.77-3.82h0A9.91,9.91,0,0,1,12.2,2.3h0a9.8,9.8,0,0,1,7.2,3.17h0a11.2,11.2,0,0,1,1.82,2.81,10.79,10.79,0,0,1,.38,1.11h0l-.06-.21.06.22h0a9.75,9.75,0,0,1,.22,1h0A9.9,9.9,0,0,1,22,12.11h0a9.92,9.92,0,0,1-9.81,9.81h0A9.91,9.91,0,0,1,3.16,15.93Z"/>
            <path class="cls-2"
                  d="M15.94,10.33a1.49,1.49,0,0,1-.1-.71c0-.2,0-.29-.07-.37l-.15-.15a4,4,0,0,1-.34-.35V8.68a1.65,1.65,0,0,0-.09-.59h0a.78.78,0,0,0,.43-.48.64.64,0,0,0-.15-.51.84.84,0,0,0-.44-.33.62.62,0,0,0,0-.19A.91.91,0,0,0,14.38,6c-.46-.16-.75-.16-1,0l0,0a1,1,0,0,0-1.07-.61,1.78,1.78,0,0,0-1.08.38l-.09,0a2.17,2.17,0,0,0-1.72.1,1.61,1.61,0,0,0-.77.85,1.24,1.24,0,0,0-.78.16,1,1,0,0,0-.43.71,2,2,0,0,0,.25,1.35,1.54,1.54,0,0,0-.49,1.42,1.32,1.32,0,0,0,.59,1,1.21,1.21,0,0,0,.3,1.24,2.58,2.58,0,0,0,1.51.67l0,.23a1.42,1.42,0,0,0-.7.21,1,1,0,0,0-.22.68,1.48,1.48,0,0,1-.08.43,5.41,5.41,0,0,0-.47.52.25.25,0,0,0,0,.36c.12.1,3,2.42,5.06,2.42h.07a4.4,4.4,0,0,1,2.68.74.25.25,0,0,0,.16.06.25.25,0,0,0,.23-.36,7.12,7.12,0,0,0-1.89-2.38.34.34,0,0,0,.11-.18,1.63,1.63,0,0,0,0-.57v-.06a3.35,3.35,0,0,1,.32-.26.77.77,0,0,0,.92-.11,1.2,1.2,0,0,0,.29-.78l.29-.21a.25.25,0,0,0,.07-.33l-.08-.14.16,0a.25.25,0,0,0,.15-.36L16.63,13l.09,0c.16,0,.53-.1.49-.5A5.85,5.85,0,0,0,15.94,10.33Zm.69,2.14a1.53,1.53,0,0,0-.49.16A.25.25,0,0,0,16,13l.05.09-.16,0a.25.25,0,0,0-.15.37l.12.22-.22.16a.26.26,0,0,0-.1.24.74.74,0,0,1-.15.53c-.12.13-.42-.05-.42-.06a.25.25,0,0,0-.28,0c-.68.46-.68.6-.68.7a1.7,1.7,0,0,0,0,.19,2.54,2.54,0,0,1,0,.3H14c-.12,0-.32,0-.36.23s0,.22.19.34A4.91,4.91,0,0,1,15.45,18a5.77,5.77,0,0,0-2.17-.39h-.07c-1.55,0-3.85-1.63-4.54-2.15.07-.09.17-.18.25-.26a1.18,1.18,0,0,0,.24-.76c0-.12,0-.31,0-.34A.8.8,0,0,1,9.49,14h0a8.43,8.43,0,0,0,3,2h.07a.25.25,0,0,0,.07-.5A7.92,7.92,0,0,1,10,13.81a.25.25,0,0,0,0-.08l.08-.71a.25.25,0,0,0-.25-.28,2.31,2.31,0,0,1-1.43-.53.7.7,0,0,1-.11-.89.25.25,0,0,0,0-.25.26.26,0,0,0-.22-.14s-.35,0-.45-.72a1,1,0,0,1,.47-1.07.26.26,0,0,0,.05-.41,1.33,1.33,0,0,1-.28-1.14.48.48,0,0,1,.2-.36.93.93,0,0,1,.65-.05A.26.26,0,0,0,9,7.12a.27.27,0,0,0,.09-.22s0-.32.57-.67a1.68,1.68,0,0,1,1.33,0c.19.05.31.09.43,0l.11-.08a1.27,1.27,0,0,1,.82-.27c.37,0,.45.12.58.35a.68.68,0,0,0,.34.36.38.38,0,0,0,.47-.19s.09,0,.45.08c.2.07.32.16.34.24a.32.32,0,0,1-.1.23.25.25,0,0,0,0,.35.26.26,0,0,0,.35,0,.15.15,0,0,1,.1,0,.33.33,0,0,1,.19.15.38.38,0,0,1,.06.11.78.78,0,0,1-.2.15,1.66,1.66,0,0,0-.26.19v0l0,.07V8a.25.25,0,0,0,0,.06h0a.16.16,0,0,1,0,.11.32.32,0,0,1-.23,0,2.49,2.49,0,0,1-.81-.28c-.32-.16-.69-.34-1-.06s-.18,1.12-.1,1.4l.05,1.12a.25.25,0,0,0,.14.21l.35.18-.29.7a.25.25,0,0,0,.09.3l.58.41-.26.42a.25.25,0,0,0,0,.3l.27.31a1.77,1.77,0,0,1-1.2-.5.25.25,0,1,0-.33.39,2.28,2.28,0,0,0,1.47.62,1.33,1.33,0,0,0,.64-.15.25.25,0,0,0,.06-.38l-.41-.47.29-.46a.25.25,0,0,0-.07-.34l-.61-.44.3-.73a.25.25,0,0,0-.12-.32L13,10.19l0-1a.27.27,0,0,0,0-.06,1.55,1.55,0,0,1,0-.92,1.31,1.31,0,0,1,.39.15,2.94,2.94,0,0,0,1,.33.85.85,0,0,0,.5-.07v.06c0,.06,0,.11,0,.14s.15.29.49.63l.06.06s0,.07,0,.11c0,.5,0,1,.34,1.14a6.85,6.85,0,0,1,1,1.69Z"/>
            <path class="cls-2"
                  d="M10.46,9.83a.91.91,0,0,0-.64.71.88.88,0,0,0,.37.88.25.25,0,1,0,.3-.41.37.37,0,0,1-.17-.38.41.41,0,0,1,.28-.32.61.61,0,0,1,.59.26.25.25,0,0,0,.38-.34A1.09,1.09,0,0,0,10.46,9.83Z"/>
        </g>
    </g>
</svg>