<?xml version="1.0" encoding="UTF-8" standalone="no"?>
<svg
   xmlns:dc="http://purl.org/dc/elements/1.1/"
   xmlns:cc="http://creativecommons.org/ns#"
   xmlns:rdf="http://www.w3.org/1999/02/22-rdf-syntax-ns#"
   xmlns:svg="http://www.w3.org/2000/svg"
   xmlns="http://www.w3.org/2000/svg"
   xmlns:sodipodi="http://sodipodi.sourceforge.net/DTD/sodipodi-0.dtd"
   xmlns:inkscape="http://www.inkscape.org/namespaces/inkscape"
   width="467pt"
   height="500pt"
   viewBox="0 0 24.43 28.85"
   version="1.1"
   id="svg15"
   sodipodi:docname="m_refill.svg"
   inkscape:version="0.92.1 r15371">
  <metadata
     id="metadata19">
    <rdf:RDF>
      <cc:Work
         rdf:about="">
        <dc:format>image/svg+xml</dc:format>
        <dc:type
           rdf:resource="http://purl.org/dc/dcmitype/StillImage" />
        <dc:title>Asset 8</dc:title>
      </cc:Work>
    </rdf:RDF>
  </metadata>
  <sodipodi:namedview
     pagecolor="#ffffff"
     bordercolor="#666666"
     borderopacity="1"
     objecttolerance="10"
     gridtolerance="10"
     guidetolerance="10"
     inkscape:pageopacity="0"
     inkscape:pageshadow="2"
     inkscape:window-width="1920"
     inkscape:window-height="1018"
     id="namedview17"
     showgrid="false"
     inkscape:zoom="0.354"
     inkscape:cx="311.33333"
     inkscape:cy="333.33333"
     inkscape:window-x="-8"
     inkscape:window-y="-8"
     inkscape:window-maximized="1"
     inkscape:current-layer="svg15" />
  <defs
     id="defs4">
    <style
       id="style2">.cls-1{fill:#fff;}.cls-2{fill:#f05050;}</style>
  </defs>
  <title
     id="title6">Asset 8</title>
  <g
     id="Layer_2"
     data-name="Layer 2">
    <g
       id="Layer_1-2"
       data-name="Layer 1">
      <path
         id="_Path_"
         data-name="&lt;Path&gt;"
         class="cls-1"
         d="M12.2,28.85A16.43,16.43,0,0,0,20,24.15c4.44-4.73,6.1-13,2.46-18.63a12.3,12.3,0,0,0-18.85-2c-5,5-4.4,13.61-.45,19.1A16.44,16.44,0,0,0,12.2,28.85Z" />
      <path
         id="_Compound_Path_"
         data-name="&lt;Compound Path&gt;"
         class="cls-2"
         d="M12.2,28.85A16.43,16.43,0,0,0,20,24.15c4.44-4.73,6.1-13,2.46-18.63a12.3,12.3,0,0,0-18.85-2c-5,5-4.4,13.61-.45,19.1A16.44,16.44,0,0,0,12.2,28.85Zm-9-12.93a9.86,9.86,0,0,1-.77-3.82h0A9.91,9.91,0,0,1,12.2,2.3h0a9.8,9.8,0,0,1,7.2,3.17h0a11.2,11.2,0,0,1,1.82,2.81,10.79,10.79,0,0,1,.38,1.11h0l-.06-.21.06.22h0a9.75,9.75,0,0,1,.22,1h0A9.9,9.9,0,0,1,22,12.11h0a9.92,9.92,0,0,1-9.81,9.81h0A9.91,9.91,0,0,1,3.16,15.93Z" />
      <path
         id="_Path_2"
         data-name="&lt;Path&gt;"
         class="cls-1"
         d="M3.16,15.93a9.86,9.86,0,0,1-.77-3.82h0A9.91,9.91,0,0,1,12.2,2.3h0a9.8,9.8,0,0,1,7.2,3.17h0a11.2,11.2,0,0,1,1.82,2.81,10.79,10.79,0,0,1,.38,1.11h0l-.06-.21.06.22h0a9.75,9.75,0,0,1,.22,1h0A9.9,9.9,0,0,1,22,12.11h0a9.92,9.92,0,0,1-9.81,9.81h0A9.91,9.91,0,0,1,3.16,15.93Z" />
      <path
         class="cls-2"
         d="M 12.811174,19.672832 H 6.7293666 c -0.1000059,0 -0.1810062,-0.081 -0.1810062,-0.181006 V 18.7316 H 6.4157734 C 6.0365655,18.7316 5.72795,18.422985 5.72795,18.043777 V 7.4730167 c 0,-0.5923426 0.4819289,-1.073819 1.0738191,-1.073819 h 5.9370019 c 0.592343,0 1.073819,0.4819289 1.073819,1.073819 v 3.4753183 h 0.307711 c 0.688728,0 1.248942,0.560214 1.248942,1.248943 v 4.363606 c 0,0.324906 0.264269,0.589627 0.589628,0.589627 h 0.01584 c 0.324906,0 0.589628,-0.264269 0.589628,-0.589627 V 8.9038705 c 0,-0.4502529 0.129871,-0.8878353 0.375587,-1.2656856 l 0.395951,-0.6081808 1.196451,-1.7589274 c 0.05656,-0.08281 0.168788,-0.1040785 0.251599,-0.047967 0.08281,0.056112 0.104078,0.1687882 0.04797,0.2515985 l -0.888294,1.3055069 h 0.0036 c 0.428984,0 0.778326,0.3493419 0.778326,0.7783265 0,0.4289846 -0.349342,0.7783265 -0.778326,0.7783265 -0.323096,0 -0.600488,-0.1977492 -0.718142,-0.4783087 C 17.031311,8.1717 16.92678,8.5328073 16.92678,8.90387 v 7.657014 c 0,0.524918 -0.426722,0.95164 -0.95164,0.95164 H 15.9593 c -0.524917,0 -0.95164,-0.426722 -0.95164,-0.95164 v -4.364059 c 0,-0.489169 -0.397761,-0.88693 -0.88693,-0.88693 h -0.307687 v 6.733429 c 0,0.379208 -0.308616,0.687824 -0.687824,0.687824 h -0.132587 v 0.760225 c 0,0.100006 -0.081,0.181007 -0.181006,0.181007 z M 6.9103728,19.31082 H 12.630167 V 18.7316 H 6.9103728 Z m 5.9008012,-0.941232 h 0.313593 c 0.179648,0 0.325811,-0.146163 0.325811,-0.325811 V 7.4730167 c 0,-0.3923308 -0.319476,-0.7118067 -0.711807,-0.7118067 H 6.8017691 c -0.3927834,0 -0.7118068,0.3194759 -0.7118068,0.7118067 V 18.043777 c 0,0.179648 0.1461625,0.325811 0.3258111,0.325811 z M 17.946771,7.1426805 c -0.229425,0 -0.416314,0.1868888 -0.416314,0.4163142 0,0.2294253 0.186889,0.4163141 0.416314,0.4163141 0.229425,0 0.416314,-0.1868888 0.416314,-0.4163141 0,-0.2294254 -0.186889,-0.4163142 -0.416314,-0.4163142 z M 12.340558,11.065989 H 7.2239659 c -0.3194758,0 -0.5792197,-0.259744 -0.5792197,-0.57922 V 7.8802806 c 0,-0.3194759 0.2597439,-0.5792197 0.5792197,-0.5792197 h 5.1165921 c 0.319476,0 0.579219,0.2597438 0.579219,0.5792197 v 2.6064884 c 0,0.319476 -0.259743,0.57922 -0.579219,0.57922 z M 7.2239659,7.6630732 c -0.1199165,0 -0.2172074,0.097291 -0.2172074,0.2172074 v 2.6064884 c 0,0.119917 0.097291,0.217208 0.2172074,0.217208 h 5.1165921 c 0.119916,0 0.217207,-0.09729 0.217207,-0.217208 V 7.8802806 c 0,-0.1199166 -0.09729,-0.2172074 -0.217207,-0.2172074 z m 4.6459761,2.4526338 h -0.663841 c -0.100005,0 -0.181006,-0.081 -0.181006,-0.1810064 V 8.3418463 c 0,-0.1000059 0.081,-0.1810062 0.181006,-0.1810062 h 0.663841 c 0.100006,0 0.181006,0.081 0.181006,0.1810062 v 1.5928543 c 0,0.1000054 -0.081,0.1810064 -0.181006,0.1810064 z M 11.387108,9.7536944 h 0.301375 V 8.5228525 h -0.301375 z m -0.73579,0.3620126 H 9.987477 c -0.100005,0 -0.1810056,-0.081 -0.1810056,-0.1810064 V 8.3418463 c 0,-0.1000059 0.081,-0.1810062 0.1810056,-0.1810062 h 0.663841 c 0.100006,0 0.181006,0.081 0.181006,0.1810062 v 1.5928543 c 0,0.1000054 -0.081,0.1810064 -0.181006,0.1810064 z M 10.168484,9.7536944 h 0.301827 V 8.5228525 H 10.168484 Z M 9.4141405,10.115707 c -0.1000059,0 -0.1810061,-0.081 -0.1810061,-0.1810064 V 8.3418463 c 0,-0.1000059 0.081,-0.1810062 0.1810061,-0.1810062 0.1000059,0 0.1810062,0.081 0.1810062,0.1810062 v 1.5928543 c 0,0.1000054 -0.081,0.1810064 -0.1810062,0.1810064 z"
         id="path11"
         inkscape:connector-curvature="0"
         style="fill:#f05050;stroke-width:0.45251542" />
    </g>
  </g>
</svg>
