<?xml version="1.0" encoding="UTF-8" standalone="no"?>
<svg
   xmlns:dc="http://purl.org/dc/elements/1.1/"
   xmlns:cc="http://creativecommons.org/ns#"
   xmlns:rdf="http://www.w3.org/1999/02/22-rdf-syntax-ns#"
   xmlns:svg="http://www.w3.org/2000/svg"
   xmlns="http://www.w3.org/2000/svg"
   xmlns:sodipodi="http://sodipodi.sourceforge.net/DTD/sodipodi-0.dtd"
   xmlns:inkscape="http://www.inkscape.org/namespaces/inkscape"
   width="467pt"
   height="500pt"
   viewBox="0 0 24.43 28.85"
   version="1.1"
   id="svg15"
   sodipodi:docname="m_taxi.svg"
   inkscape:version="0.92.1 r15371">
  <metadata
     id="metadata19">
    <rdf:RDF>
      <cc:Work
         rdf:about="">
        <dc:format>image/svg+xml</dc:format>
        <dc:type
           rdf:resource="http://purl.org/dc/dcmitype/StillImage" />
        <dc:title>Asset 8</dc:title>
      </cc:Work>
    </rdf:RDF>
  </metadata>
  <sodipodi:namedview
     pagecolor="#ffffff"
     bordercolor="#666666"
     borderopacity="1"
     objecttolerance="10"
     gridtolerance="10"
     guidetolerance="10"
     inkscape:pageopacity="0"
     inkscape:pageshadow="2"
     inkscape:window-width="1920"
     inkscape:window-height="1018"
     id="namedview17"
     showgrid="false"
     inkscape:zoom="0.354"
     inkscape:cx="311.33333"
     inkscape:cy="333.33333"
     inkscape:window-x="-8"
     inkscape:window-y="-8"
     inkscape:window-maximized="1"
     inkscape:current-layer="svg15" />
  <defs
     id="defs4">
    <style
       id="style2">.cls-1{fill:#fff;}.cls-2{fill:#f05050;}</style>
  </defs>
  <title
     id="title6">Asset 8</title>
  <g
     id="Layer_2"
     data-name="Layer 2">
    <g
       id="Layer_1-2"
       data-name="Layer 1">
      <path
         id="_Path_"
         data-name="&lt;Path&gt;"
         class="cls-1"
         d="M12.2,28.85A16.43,16.43,0,0,0,20,24.15c4.44-4.73,6.1-13,2.46-18.63a12.3,12.3,0,0,0-18.85-2c-5,5-4.4,13.61-.45,19.1A16.44,16.44,0,0,0,12.2,28.85Z" />
      <path
         id="_Compound_Path_"
         data-name="&lt;Compound Path&gt;"
         class="cls-2"
         d="M12.2,28.85A16.43,16.43,0,0,0,20,24.15c4.44-4.73,6.1-13,2.46-18.63a12.3,12.3,0,0,0-18.85-2c-5,5-4.4,13.61-.45,19.1A16.44,16.44,0,0,0,12.2,28.85Zm-9-12.93a9.86,9.86,0,0,1-.77-3.82h0A9.91,9.91,0,0,1,12.2,2.3h0a9.8,9.8,0,0,1,7.2,3.17h0a11.2,11.2,0,0,1,1.82,2.81,10.79,10.79,0,0,1,.38,1.11h0l-.06-.21.06.22h0a9.75,9.75,0,0,1,.22,1h0A9.9,9.9,0,0,1,22,12.11h0a9.92,9.92,0,0,1-9.81,9.81h0A9.91,9.91,0,0,1,3.16,15.93Z" />
      <path
         id="_Path_2"
         data-name="&lt;Path&gt;"
         class="cls-1"
         d="M3.16,15.93a9.86,9.86,0,0,1-.77-3.82h0A9.91,9.91,0,0,1,12.2,2.3h0a9.8,9.8,0,0,1,7.2,3.17h0a11.2,11.2,0,0,1,1.82,2.81,10.79,10.79,0,0,1,.38,1.11h0l-.06-.21.06.22h0a9.75,9.75,0,0,1,.22,1h0A9.9,9.9,0,0,1,22,12.11h0a9.92,9.92,0,0,1-9.81,9.81h0A9.91,9.91,0,0,1,3.16,15.93Z" />
      <path
         class="cls-2"
         d="m 10.274707,6.2982485 c 0.133096,0.059153 0.280981,0 0.354923,-0.1183075 l 0.399288,-0.8133647 c 0.01479,-0.044365 0.103519,-0.08873 0.147885,-0.08873 h 2.070382 c 0.04437,0 0.133095,0.044366 0.147885,0.08873 l 0.399288,0.8133647 c 0.05915,0.088731 0.147884,0.1478843 0.236615,0.1478843 0.04436,0 0.08873,-0.014788 0.118307,-0.029577 0.133096,-0.073942 0.177462,-0.2218266 0.118309,-0.3549227 L 13.8683,5.1299615 C 13.749993,4.9229229 13.498589,4.76025 13.247185,4.76025 h -2.070382 c -0.251404,0 -0.502808,0.1626729 -0.621115,0.3697112 L 10.1564,5.9433257 c -0.05916,0.1330962 -0.01479,0.2809806 0.118307,0.3549228 z m 3.756266,5.7527055 h -3.637959 c -0.295768,0 -0.5471718,0.118308 -0.6950561,0.325346 -0.1478845,0.207038 -0.1774615,0.47323 -0.08873,0.754211 l 0.2809806,0.85773 c 0.1774615,0.517596 0.7394215,0.916884 1.2865945,0.916884 h 2.070382 c 0.547173,0 1.109133,-0.399288 1.286595,-0.916884 l 0.28098,-0.85773 C 14.90349,12.84953 14.87392,12.583338 14.72603,12.3763 14.578145,12.169262 14.326742,12.050954 14.030973,12.050954 Z m 0.295769,0.916885 -0.295769,0.857729 c -0.10352,0.295768 -0.458443,0.561961 -0.783788,0.561961 h -2.070382 c -0.325347,0 -0.680269,-0.266193 -0.783789,-0.561961 l -0.295768,-0.857729 c -0.02958,-0.118309 -0.02958,-0.221827 0.02957,-0.29577 0.04437,-0.07395 0.147884,-0.103519 0.266192,-0.103519 h 3.637958 c 0.118307,0 0.221827,0.02957 0.266193,0.103519 0.05916,0.07395 0.05916,0.177461 0.02957,0.29577 z m 3.859784,-2.558403 c 0,-0.118307 -0.02957,-0.221826 -0.07395,-0.325345 L 17.210489,7.9249776 C 16.811201,6.9341517 15.702068,6.5792289 14.81476,6.5792289 H 9.8902077 c -0.887307,0 -1.981652,0.3549228 -2.3957285,1.3309604 L 6.5923838,9.9805718 c -0.029577,0.1035192 -0.059154,0.2070382 -0.073942,0.3105572 -0.7689994,0.221827 -1.2718066,0.94646 -1.1978643,1.774614 l 0.2514036,3.135151 c 0.029577,0.354923 0.1330959,0.695057 0.399288,0.990825 v 1.316173 c 0,0.428864 0.3401344,0.783786 0.7837878,0.783786 h 1.2865948 c 0.4436535,0 0.7837878,-0.354922 0.7837878,-0.783786 V 16.4727 h 6.7731085 v 1.035192 c 0,0.428864 0.340135,0.783786 0.783788,0.783786 h 1.301382 c 0.428866,0 0.769,-0.354922 0.769,-0.783786 v -1.316173 c 0.236616,-0.295768 0.369712,-0.635902 0.399289,-0.990825 l 0.251403,-3.135151 c 0.05916,-0.709845 -0.295769,-1.360537 -0.916884,-1.656307 z M 7.9677095,8.1172275 C 8.2930553,7.3630167 9.1803622,7.0968246 9.8902077,7.0968246 H 14.81476 c 0.724634,0 1.611941,0.2661921 1.922499,1.0204029 l 0.709845,1.7154599 c 0,0 0,0.014788 0,0.014788 -0.147885,0.2809806 -0.783788,0.3697106 -1.064768,0.3697106 H 8.3078437 c 0,0 -0.7837875,0 -1.0204027,-0.517595 z M 18.585814,12.021377 18.33441,15.156528 c -0.02957,0.28098 -0.147884,0.561961 -0.340133,0.783788 -0.05916,0.05915 -0.07395,0.147885 -0.05916,0.221827 0,0.01479 0,0.02957 0,0.04436 v 1.301383 c 0,0.147884 -0.118306,0.266192 -0.251402,0.266192 h -1.301383 c -0.147885,0 -0.266192,-0.118308 -0.266192,-0.266192 v -1.301383 c 0,-0.147884 -0.118308,-0.251404 -0.266193,-0.251404 H 8.5740358 c -0.1478845,0 -0.2661921,0.10352 -0.2661921,0.251404 v 1.301383 c 0,0.147884 -0.1183074,0.266192 -0.2514036,0.266192 H 6.7550569 c -0.1478846,0 -0.2661922,-0.118308 -0.2661922,-0.266192 v -1.301383 c 0,-0.01479 0,-0.02957 0,-0.04436 0.014788,-0.07395 0,-0.162674 -0.059154,-0.221827 C 6.2374609,15.7037 6.1191533,15.437508 6.1043649,15.156528 L 5.8381732,12.021377 c -0.059154,-0.635903 0.3697111,-1.168286 0.9908258,-1.257018 0.133096,-0.02957 0.2366151,-0.162673 0.2070384,-0.295768 0,-0.07394 0,-0.147885 0.014788,-0.207038 0.4732303,0.47323 1.2126526,0.488018 1.257018,0.488018 h 8.0597036 c 0.103519,0 0.85773,-0.01479 1.301384,-0.369711 0,0.04437 0,0.103519 0,0.162673 -0.01479,0.118308 0.05916,0.236615 0.162672,0.28098 0.502807,0.177462 0.798578,0.650691 0.754211,1.197864 z M 7.6571521,11.784762 c -0.6506917,0 -1.1682874,0.532385 -1.1682874,1.168288 0,0.650692 0.5175957,1.168286 1.1682874,1.168286 0.6506916,0 1.1682874,-0.517594 1.1682874,-1.168286 0,-0.635903 -0.5175958,-1.168288 -1.1682874,-1.168288 z m 0,1.81898 c -0.3549228,0 -0.6506917,-0.29577 -0.6506917,-0.650692 0,-0.354923 0.2957689,-0.650692 0.6506917,-0.650692 0.3549228,0 0.6506916,0.295769 0.6506916,0.650692 0,0.354922 -0.2957688,0.650692 -0.6506916,0.650692 z m 9.1096839,-1.81898 c -0.650691,0 -1.168288,0.532385 -1.168288,1.168288 0,0.650692 0.517597,1.168286 1.168288,1.168286 0.65069,0 1.168287,-0.517594 1.168287,-1.168286 0,-0.635903 -0.517597,-1.168288 -1.168287,-1.168288 z m 0,1.81898 c -0.354923,0 -0.650691,-0.29577 -0.650691,-0.650692 0,-0.354923 0.295768,-0.650692 0.650691,-0.650692 0.354922,0 0.65069,0.295769 0.65069,0.650692 0,0.354922 -0.295768,0.650692 -0.65069,0.650692 z"
         id="path11"
         inkscape:connector-curvature="0"
         style="fill:#f05050;stroke-width:0.20912501" />
    </g>
  </g>
</svg>
