<svg width="467pt" height="500pt" xmlns="http://www.w3.org/2000/svg" viewBox="0 0 24.43 28.85">
    <defs>
        <style>.cls-1{fill:#fff;}.cls-2{fill:#f05050;}</style>
    </defs>
    <title>m_usadba</title>
    <g id="Layer_2" data-name="Layer 2">
        <g id="Layer_1-2" data-name="Layer 1">
            <path id="_Path_" data-name="&lt;Path&gt;" class="cls-1"
                  d="M12.2,28.85A16.43,16.43,0,0,0,20,24.15c4.44-4.73,6.1-13,2.46-18.63a12.3,12.3,0,0,0-18.85-2c-5,5-4.4,13.61-.45,19.1A16.44,16.44,0,0,0,12.2,28.85Z"/>
            <path id="_Compound_Path_" data-name="&lt;Compound Path&gt;" class="cls-2"
                  d="M12.2,28.85A16.43,16.43,0,0,0,20,24.15c4.44-4.73,6.1-13,2.46-18.63a12.3,12.3,0,0,0-18.85-2c-5,5-4.4,13.61-.45,19.1A16.44,16.44,0,0,0,12.2,28.85Zm-9-12.93a9.86,9.86,0,0,1-.77-3.82h0A9.91,9.91,0,0,1,12.2,2.3h0a9.8,9.8,0,0,1,7.2,3.17h0a11.2,11.2,0,0,1,1.82,2.81,10.79,10.79,0,0,1,.38,1.11h0l-.06-.21.06.22h0a9.75,9.75,0,0,1,.22,1h0A9.9,9.9,0,0,1,22,12.11h0a9.92,9.92,0,0,1-9.81,9.81h0A9.91,9.91,0,0,1,3.16,15.93Z"/>
            <path id="_Path_2" data-name="&lt;Path&gt;" class="cls-1"
                  d="M3.16,15.93a9.86,9.86,0,0,1-.77-3.82h0A9.91,9.91,0,0,1,12.2,2.3h0a9.8,9.8,0,0,1,7.2,3.17h0a11.2,11.2,0,0,1,1.82,2.81,10.79,10.79,0,0,1,.38,1.11h0l-.06-.21.06.22h0a9.75,9.75,0,0,1,.22,1h0A9.9,9.9,0,0,1,22,12.11h0a9.92,9.92,0,0,1-9.81,9.81h0A9.91,9.91,0,0,1,3.16,15.93Z"/>
            <path class="cls-2"
                  d="M18,13.92l-3.36-1.66h-.11v-4a2.15,2.15,0,0,0-2.14-2.12V5.37a.23.23,0,1,0-.47,0v.73A2.15,2.15,0,0,0,9.83,8.22v4h-.1L6.36,13.92a1.07,1.07,0,0,0-.56.89v2.41a.71.71,0,0,0,.71.7H17.88a.71.71,0,0,0,.71-.7V14.81A1.07,1.07,0,0,0,18,13.92ZM12.2,6.56A1.76,1.76,0,0,1,14.07,8H10.32A1.76,1.76,0,0,1,12.2,6.56ZM10.31,8.45h3.78v4.71l-1.78-.9a.3.3,0,0,0-.22,0l-1.78.9Zm-.95,9H6.51a.24.24,0,0,1-.23-.23V15.08H9.36Zm0-2.85h-3a.55.55,0,0,1,.23-.26l3.26-1.6v.66l-.58.29a.23.23,0,0,0-.11.32.24.24,0,0,0,.22.14Zm3.32,2.85h-1V16a.24.24,0,0,1,.25-.23h.47a.23.23,0,0,1,.25.23Zm1.89,0H13.14V16a.71.71,0,0,0-.71-.71H12a.71.71,0,0,0-.71.71v1.42H9.83V13.92l2.37-1.18,2.37,1.18Zm0-4.71,3.26,1.6a.55.55,0,0,1,.23.26H15v-.47a.24.24,0,0,0,.22-.14.23.23,0,0,0-.11-.32l-.58-.29Zm3.55,4.48a.24.24,0,0,1-.23.23H15V15.08h3.08Zm-5-6.88a.95.95,0,1,0-.95.95A.95.95,0,0,0,13.14,10.34Zm-1.42,0a.48.48,0,0,1,1,0,.48.48,0,0,1-1,0Z"/>
        </g>
    </g>
</svg>