<?xml version="1.0" standalone="no"?>
<!DOCTYPE svg PUBLIC "-//W3C//DTD SVG 20010904//EN"
 "http://www.w3.org/TR/2001/REC-SVG-20010904/DTD/svg10.dtd">
<svg version="1.0" xmlns="http://www.w3.org/2000/svg"
 width="313.000000pt" height="313.000000pt" viewBox="0 0 313.000000 313.000000"
 preserveAspectRatio="xMidYMid meet">
<metadata>
Created by potrace 1.11, written by Peter Selinger 2001-2013
</metadata>
<g transform="translate(0.000000,313.000000) scale(0.100000,-0.100000)"
fill="#000000" stroke="none">
<path d="M1385 3120 c-307 -34 -565 -158 -781 -374 -115 -115 -186 -215 -255
-360 -257 -540 -146 -1289 267 -1797 115 -141 287 -292 446 -391 149 -92 398
-198 468 -198 42 0 196 56 315 114 508 251 860 717 977 1296 20 100 23 144 23
335 0 172 -4 238 -18 305 -59 283 -186 520 -376 702 -243 235 -528 355 -876
371 -60 3 -146 1 -190 -3z m366 -274 c177 -39 361 -133 486 -250 346 -322 444
-814 244 -1231 -253 -529 -876 -757 -1396 -510 -237 113 -445 333 -536 570
-93 240 -93 536 0 768 137 343 444 595 806 662 96 17 297 13 396 -9z"/>
<path d="M1013 2522 c-43 -32 -106 -89 -141 -128 l-63 -69 6 -49 c19 -150 108
-277 276 -395 l68 -48 -42 -12 c-99 -29 -189 -109 -234 -208 -22 -48 -25 -65
-21 -133 6 -109 47 -190 143 -286 84 -84 215 -155 330 -179 138 -29 335 -15
565 40 108 26 293 84 367 116 l42 18 -14 42 c-33 92 -55 242 -65 430 -5 114
-16 221 -25 259 -24 94 -106 256 -162 319 -173 196 -433 214 -598 40 -59 -61
-89 -117 -100 -184 -11 -69 -11 -69 -61 -33 -137 99 -192 226 -182 423 3 52 2
95 -3 95 -4 0 -43 -26 -86 -58z"/>
</g>
</svg>
