<svg width="467pt" height="500pt" xmlns="http://www.w3.org/2000/svg" viewBox="0 0 24.43 28.85">
    <defs>
        <style>.cls-1{fill:#fff;}.cls-2{fill:#f05050;}</style>
    </defs>
    <title>m_ribalka</title>
    <g id="Layer_2" data-name="Layer 2">
        <g id="Layer_1-2" data-name="Layer 1">
            <path id="_Path_" data-name="&lt;Path&gt;" class="cls-1"
                  d="M12.2,28.85A16.43,16.43,0,0,0,20,24.15c4.44-4.73,6.1-13,2.46-18.63a12.3,12.3,0,0,0-18.85-2c-5,5-4.4,13.61-.45,19.1A16.44,16.44,0,0,0,12.2,28.85Z"/>
            <path id="_Compound_Path_" data-name="&lt;Compound Path&gt;" class="cls-2"
                  d="M12.2,28.85A16.43,16.43,0,0,0,20,24.15c4.44-4.73,6.1-13,2.46-18.63a12.3,12.3,0,0,0-18.85-2c-5,5-4.4,13.61-.45,19.1A16.44,16.44,0,0,0,12.2,28.85Zm-9-12.93a9.86,9.86,0,0,1-.77-3.82h0A9.91,9.91,0,0,1,12.2,2.3h0a9.8,9.8,0,0,1,7.2,3.17h0a11.2,11.2,0,0,1,1.82,2.81,10.79,10.79,0,0,1,.38,1.11h0l-.06-.21.06.22h0a9.75,9.75,0,0,1,.22,1h0A9.9,9.9,0,0,1,22,12.11h0a9.92,9.92,0,0,1-9.81,9.81h0A9.91,9.91,0,0,1,3.16,15.93Z"/>
            <path id="_Path_2" data-name="&lt;Path&gt;" class="cls-1"
                  d="M3.16,15.93a9.86,9.86,0,0,1-.77-3.82h0A9.91,9.91,0,0,1,12.2,2.3h0a9.8,9.8,0,0,1,7.2,3.17h0a11.2,11.2,0,0,1,1.82,2.81,10.79,10.79,0,0,1,.38,1.11h0l-.06-.21.06.22h0a9.75,9.75,0,0,1,.22,1h0A9.9,9.9,0,0,1,22,12.11h0a9.92,9.92,0,0,1-9.81,9.81h0A9.91,9.91,0,0,1,3.16,15.93Z"/>
            <path class="cls-2"
                  d="M21.12,9.42a.21.21,0,0,0-.23,0c-.44.42-1.73,1.52-2.43,1.52l-.08,0A5.18,5.18,0,0,0,16.65,9.8a11.38,11.38,0,0,0-3-.85.2.2,0,0,0,0,0,7.59,7.59,0,0,1,.37-1.42.21.21,0,0,0-.3-.26l-3,1.49a.22.22,0,0,0-.07.06,12,12,0,0,0-6.38,1.93c-1.08.82-1.23,1.51-1.17,1.94A1.86,1.86,0,0,0,4.49,14a21.32,21.32,0,0,0,6.3,1.52l3,1.49.09,0A.21.21,0,0,0,14,17a.21.21,0,0,0,.06-.23,8.93,8.93,0,0,1-.36-1.33,13.33,13.33,0,0,0,2.93-.59,3.64,3.64,0,0,0,2.13-1.49,5.66,5.66,0,0,1,2.12,1.48.21.21,0,0,0,.15.07l.08,0a.21.21,0,0,0,.13-.2v-5a.21.21,0,0,0-.13-.2h0m-7.85-.53a16.2,16.2,0,0,0-1.65-.12l1.88-.94a5.06,5.06,0,0,0-.23,1.07h0m-9.7,3.7c-.07-.46.28-1,1-1.55A8.64,8.64,0,0,1,7.37,9.74s0,0,0,.06S9,11.14,8.89,12.59a2.61,2.61,0,0,1-1.44,1.93,29,29,0,0,1-2.81-.92c-.62-.24-1-.61-1.07-1h0m9.93,3.8-1.74-.87q.79,0,1.52-.08a6.19,6.19,0,0,0,.22.95h0m3-2a16.89,16.89,0,0,1-5.29.7,12.09,12.09,0,0,1-2.08-.21,2.84,2.84,0,0,0,1-2,.21.21,0,0,0-.21-.22h0a.21.21,0,0,0-.21.21A2.69,2.69,0,0,1,8.58,14.8L8,14.66a2.81,2.81,0,0,0,1.31-2,4.19,4.19,0,0,0-1.49-3,14.4,14.4,0,0,1,3.37-.42,12.94,12.94,0,0,1,5.27,1c1.35.62,2.09,1.43,2.09,2.27,0,1-1.13,1.62-2.08,2h0m4.34-.26a5.29,5.29,0,0,0-1.9-1.24,1.74,1.74,0,0,0,.06-.46,2,2,0,0,0-.32-1.07,5.52,5.52,0,0,0,2.16-1.29v4.05h0M5.42,11.25a.77.77,0,1,0,.77.77.77.77,0,0,0-.77-.77h0m0,1.1A.34.34,0,1,1,5.76,12a.34.34,0,0,1-.34.34h0M16,11a8.89,8.89,0,0,0-4.25-.79,11.39,11.39,0,0,0-2.13.27.21.21,0,0,0,.1.41,10.05,10.05,0,0,1,6.09.49l.1,0A.21.21,0,0,0,16,11h0"/>
        </g>
    </g>
</svg>