<svg  width="467pt" height="500pt"  xmlns="http://www.w3.org/2000/svg" viewBox="0 0 24.43 28.85"><defs><style>.cls-1{fill:#fff;}.cls-2{fill:#f05050;}</style></defs><title>Asset 15</title><g id="Layer_2" data-name="Layer 2"><g id="Layer_1-2" data-name="Layer 1"><path id="_Path_" data-name="&lt;Path&gt;" class="cls-1" d="M12.2,28.85A16.43,16.43,0,0,0,20,24.15c4.44-4.73,6.1-13,2.46-18.63a12.3,12.3,0,0,0-18.85-2c-5,5-4.4,13.61-.45,19.1A16.44,16.44,0,0,0,12.2,28.85Z"/><path id="_Compound_Path_" data-name="&lt;Compound Path&gt;" class="cls-2" d="M12.2,28.85A16.43,16.43,0,0,0,20,24.15c4.44-4.73,6.1-13,2.46-18.63a12.3,12.3,0,0,0-18.85-2c-5,5-4.4,13.61-.45,19.1A16.44,16.44,0,0,0,12.2,28.85Zm-9-12.93a9.86,9.86,0,0,1-.77-3.82h0A9.91,9.91,0,0,1,12.2,2.3h0a9.8,9.8,0,0,1,7.2,3.17h0a11.2,11.2,0,0,1,1.82,2.81,10.79,10.79,0,0,1,.38,1.11h0l-.06-.21.06.22h0a9.75,9.75,0,0,1,.22,1h0A9.9,9.9,0,0,1,22,12.11h0a9.92,9.92,0,0,1-9.81,9.81h0A9.91,9.91,0,0,1,3.16,15.93Z"/><path id="_Path_2" data-name="&lt;Path&gt;" class="cls-1" d="M3.16,15.93a9.86,9.86,0,0,1-.77-3.82h0A9.91,9.91,0,0,1,12.2,2.3h0a9.8,9.8,0,0,1,7.2,3.17h0a11.2,11.2,0,0,1,1.82,2.81,10.79,10.79,0,0,1,.38,1.11h0l-.06-.21.06.22h0a9.75,9.75,0,0,1,.22,1h0A9.9,9.9,0,0,1,22,12.11h0a9.92,9.92,0,0,1-9.81,9.81h0A9.91,9.91,0,0,1,3.16,15.93Z"/><path class="cls-2" d="M14.1,16.63h.72A.23.23,0,0,0,15,16.4a.24.24,0,0,0-.23-.25h-.47v-.47h.47a.23.23,0,0,0,.23-.23.24.24,0,0,0-.23-.25h-.47v-.47h.47a.24.24,0,0,0,.23-.25.23.23,0,0,0-.23-.23H14.1a.24.24,0,0,0-.23.23V16.4A.24.24,0,0,0,14.1,16.63Zm-1.9-1.9h.23V16.4a.24.24,0,0,0,.25.23.23.23,0,0,0,.23-.23V14.73h.23a.25.25,0,0,0,.25-.25.24.24,0,0,0-.25-.23H12.2a.24.24,0,0,0-.23.23A.24.24,0,0,0,12.2,14.73ZM16,16.63h.7A.24.24,0,0,0,17,16.4a.25.25,0,0,0-.25-.25h-.47V14.48a.24.24,0,0,0-.23-.23.24.24,0,0,0-.25.23V16.4A.24.24,0,0,0,16,16.63Zm-5.24,0c.48,0,.95-.41.95-1.18s-.48-1.2-.95-1.2-.95.37-.95,1.2A1.05,1.05,0,0,0,10.77,16.63Zm0-1.9c.29,0,.48.28.48.72s-.19.7-.48.7-.47-.29-.47-.7S10.48,14.73,10.77,14.73Zm-.1-5.44-.37.14V9a.24.24,0,0,0-.25-.23A.23.23,0,0,0,9.82,9v.41l-.37-.14a.24.24,0,0,0-.3.14.27.27,0,0,0,.14.32l.4.14-.23.32a.24.24,0,0,0,0,.33.29.29,0,0,0,.15.06.24.24,0,0,0,.18-.1l.23-.32.23.3a.24.24,0,0,0,.19.1.31.31,0,0,0,.15,0,.24.24,0,0,0,0-.33l-.23-.32.4-.14A.27.27,0,0,0,11,9.43.24.24,0,0,0,10.67,9.29ZM7.92,16.63a.23.23,0,0,0,.23-.23v-.72h.72v.72a.24.24,0,0,0,.23.23.25.25,0,0,0,.25-.23V14.48a.24.24,0,0,0-.25-.23.23.23,0,0,0-.23.23v.72H8.15v-.72a.24.24,0,0,0-.23-.23.23.23,0,0,0-.23.23V16.4A.23.23,0,0,0,7.92,16.63Zm7-7.34-.37.14V9a.23.23,0,0,0-.23-.23A.24.24,0,0,0,14.1,9v.41l-.37-.14a.24.24,0,0,0-.3.14.26.26,0,0,0,.15.32l.39.14-.23.32a.24.24,0,0,0,0,.33.29.29,0,0,0,.15.06.24.24,0,0,0,.18-.1l.25-.32.22.3a.24.24,0,0,0,.19.1.28.28,0,0,0,.15,0,.24.24,0,0,0,0-.33l-.23-.32.4-.14a.26.26,0,0,0,.14-.32A.23.23,0,0,0,14.95,9.29ZM17.43,6.4H13.12a1,1,0,0,0-1.84,0H7a1.2,1.2,0,0,0-1.2,1.18v9.76A1.19,1.19,0,0,0,7,18.53H17.43a1.19,1.19,0,0,0,1.2-1.18V7.59A1.2,1.2,0,0,0,17.43,6.4ZM12.2,6.17a.48.48,0,0,1,.48.47.48.48,0,0,1-1,0A.48.48,0,0,1,12.2,6.17Zm5.95,11.18a.71.71,0,0,1-.72.72H7a.71.71,0,0,1-.72-.72V12.82H18.14Zm0-5H6.25V7.59A.72.72,0,0,1,7,6.87h4.31a1,1,0,0,0,1.84,0h4.31a.72.72,0,0,1,.72.72ZM17.08,9.78l-.37.14V9.49a.23.23,0,0,0-.23-.23.24.24,0,0,0-.23.23v.43l-.37-.14a.22.22,0,0,0-.3.14.23.23,0,0,0,.14.3l.39.14-.23.33a.24.24,0,0,0,.06.33.27.27,0,0,0,.14,0,.22.22,0,0,0,.19-.1l.23-.32.23.32a.26.26,0,0,0,.19.1A.18.18,0,0,0,17,11a.24.24,0,0,0,.06-.33l-.23-.32.39-.14a.24.24,0,0,0-.17-.44ZM12.8,9.06l-.37.14V8.79a.23.23,0,1,0-.47,0V9.2l-.37-.14a.24.24,0,0,0-.17.44l.39.15-.23.32a.24.24,0,0,0,.06.33.23.23,0,0,0,.14,0,.22.22,0,0,0,.19-.1l.23-.32.23.32a.22.22,0,0,0,.19.1.27.27,0,0,0,.14,0,.26.26,0,0,0,.06-.34l-.23-.3L13,9.5a.22.22,0,0,0,.14-.3A.23.23,0,0,0,12.8,9.06Zm-4.28.72-.37.14V9.49a.24.24,0,0,0-.23-.23.23.23,0,0,0-.23.23v.43l-.37-.14a.24.24,0,1,0-.17.44l.39.15-.23.32a.23.23,0,0,0,.19.37.24.24,0,0,0,.19-.1l.23-.32.23.32a.21.21,0,0,0,.19.1A.2.2,0,0,0,8.48,11a.24.24,0,0,0,.06-.33l-.23-.3.39-.15a.23.23,0,0,0,.14-.3A.22.22,0,0,0,8.52,9.78Z"/></g></g></svg>