<svg width="467pt" height="500pt" xmlns="http://www.w3.org/2000/svg" viewBox="0 0 24.43 28.85">
    <defs>
        <style>.cls-1{fill:#fff;}.cls-2{fill:#f05050;}</style>
    </defs>
    <title>m_architectura</title>
    <g id="Layer_2" data-name="Layer 2">
        <g id="Layer_1-2" data-name="Layer 1">
            <path id="_Path_" data-name="&lt;Path&gt;" class="cls-1"
                  d="M12.2,28.85A16.43,16.43,0,0,0,20,24.15c4.44-4.73,6.1-13,2.46-18.63a12.3,12.3,0,0,0-18.85-2c-5,5-4.4,13.61-.45,19.1A16.44,16.44,0,0,0,12.2,28.85Z"/>
            <path id="_Compound_Path_" data-name="&lt;Compound Path&gt;" class="cls-2"
                  d="M12.2,28.85A16.43,16.43,0,0,0,20,24.15c4.44-4.73,6.1-13,2.46-18.63a12.3,12.3,0,0,0-18.85-2c-5,5-4.4,13.61-.45,19.1A16.44,16.44,0,0,0,12.2,28.85Zm-9-12.93a9.86,9.86,0,0,1-.77-3.82h0A9.91,9.91,0,0,1,12.2,2.3h0a9.8,9.8,0,0,1,7.2,3.17h0a11.2,11.2,0,0,1,1.82,2.81,10.79,10.79,0,0,1,.38,1.11h0l-.06-.21.06.22h0a9.75,9.75,0,0,1,.22,1h0A9.9,9.9,0,0,1,22,12.11h0a9.92,9.92,0,0,1-9.81,9.81h0A9.91,9.91,0,0,1,3.16,15.93Z"/>
            <path id="_Path_2" data-name="&lt;Path&gt;" class="cls-1"
                  d="M3.16,15.93a9.86,9.86,0,0,1-.77-3.82h0A9.91,9.91,0,0,1,12.2,2.3h0a9.8,9.8,0,0,1,7.2,3.17h0a11.2,11.2,0,0,1,1.82,2.81,10.79,10.79,0,0,1,.38,1.11h0l-.06-.21.06.22h0a9.75,9.75,0,0,1,.22,1h0A9.9,9.9,0,0,1,22,12.11h0a9.92,9.92,0,0,1-9.81,9.81h0A9.91,9.91,0,0,1,3.16,15.93Z"/>
            <path class="cls-2"
                  d="M16.65,16.88a.24.24,0,1,0,0-.49H7.75a.24.24,0,0,0,0,.49ZM10,11.69a.25.25,0,0,0-.24.24v3a.25.25,0,0,0,.24.24.25.25,0,0,0,.26-.24v-3A.25.25,0,0,0,10,11.69Zm7.43,5.69H7a.24.24,0,0,0-.24.24.23.23,0,0,0,.24.24H17.39a.24.24,0,0,0,.24-.24A.25.25,0,0,0,17.39,17.38Zm1.29-4.59-2.46-.6h-.06v-.74a.2.2,0,0,0,0-.09l.17.07a.25.25,0,1,0,.19-.46l-1.57-.66V8.22a2.52,2.52,0,0,0-2.48-2.7h0V4.76a.24.24,0,1,0-.49,0V5.5h0a2.52,2.52,0,0,0-2.48,2.7v2.09L7.9,11a.24.24,0,0,0-.14.31.27.27,0,0,0,.33.14l.17-.07a.2.2,0,0,0,0,.09v.76l-2.52.59a.26.26,0,0,0-.2.24v3.61a.24.24,0,0,0,.26.24h1a.24.24,0,0,0,0-.49H6V13.23l2.22-.53v2.95a.25.25,0,0,0,.26.24H15.9a.25.25,0,0,0,.26-.24v-3l2.22.54v3.16h-.74a.24.24,0,1,0,0,.49h1a.24.24,0,0,0,.26-.24V13A.26.26,0,0,0,18.68,12.79ZM12.2,6a2,2,0,0,1,2.22,2H10A2,2,0,0,1,12.2,6ZM10,8.47h4.46v1.65L12.3,9.24a.24.24,0,0,0-.2,0L10,10.11Zm5.69,3v3.95H8.73V11.44a.25.25,0,0,0-.14-.23L12.2,9.73l3.61,1.49A.25.25,0,0,0,15.66,11.44Zm-4.21.24a.25.25,0,0,0-.24.24v3a.25.25,0,0,0,.24.24.24.24,0,0,0,.24-.24v-3A.24.24,0,0,0,11.45,11.69Zm1.49,3.46a.25.25,0,0,0,.24-.24v-3a.24.24,0,0,0-.49,0v3A.24.24,0,0,0,12.94,15.15Zm1.49,0a.25.25,0,0,0,.24-.24v-3a.25.25,0,0,0-.24-.24.25.25,0,0,0-.26.24v3A.25.25,0,0,0,14.43,15.15Z"/>
        </g>
    </g>
</svg>