<svg width="467pt" height="500pt" xmlns="http://www.w3.org/2000/svg" viewBox="0 0 24.43 28.85">
    <defs>
        <style>.cls-1{fill:#fff;}.cls-2{fill:#f05050;}</style>
    </defs>
    <title>m_baza otdiha</title>
    <g id="Layer_2" data-name="Layer 2">
        <g id="Layer_1-2" data-name="Layer 1">
            <path id="_Path_" data-name="&lt;Path&gt;" class="cls-1"
                  d="M12.2,28.85A16.43,16.43,0,0,0,20,24.15c4.44-4.73,6.1-13,2.46-18.63a12.3,12.3,0,0,0-18.85-2c-5,5-4.4,13.61-.45,19.1A16.44,16.44,0,0,0,12.2,28.85Z"/>
            <path id="_Compound_Path_" data-name="&lt;Compound Path&gt;" class="cls-2"
                  d="M12.2,28.85A16.43,16.43,0,0,0,20,24.15c4.44-4.73,6.1-13,2.46-18.63a12.3,12.3,0,0,0-18.85-2c-5,5-4.4,13.61-.45,19.1A16.44,16.44,0,0,0,12.2,28.85Zm-9-12.93a9.86,9.86,0,0,1-.77-3.82h0A9.91,9.91,0,0,1,12.2,2.3h0a9.8,9.8,0,0,1,7.2,3.17h0a11.2,11.2,0,0,1,1.82,2.81,10.79,10.79,0,0,1,.38,1.11h0l-.06-.21.06.22h0a9.75,9.75,0,0,1,.22,1h0A9.9,9.9,0,0,1,22,12.11h0a9.92,9.92,0,0,1-9.81,9.81h0A9.91,9.91,0,0,1,3.16,15.93Z"/>
            <path id="_Path_2" data-name="&lt;Path&gt;" class="cls-1"
                  d="M3.16,15.93a9.86,9.86,0,0,1-.77-3.82h0A9.91,9.91,0,0,1,12.2,2.3h0a9.8,9.8,0,0,1,7.2,3.17h0a11.2,11.2,0,0,1,1.82,2.81,10.79,10.79,0,0,1,.38,1.11h0l-.06-.21.06.22h0a9.75,9.75,0,0,1,.22,1h0A9.9,9.9,0,0,1,22,12.11h0a9.92,9.92,0,0,1-9.81,9.81h0A9.91,9.91,0,0,1,3.16,15.93Z"/>
            <path class="cls-2"
                  d="M19.81,15.87H8.06a.18.18,0,0,1-.18-.16l-.32-2.22-.42,2.23a.18.18,0,0,1-.18.15H4.61a.18.18,0,0,1-.16-.26s.93-1.82,1.73-3.87A44.73,44.73,0,0,0,7.66,6.84v0h0a.18.18,0,0,1,.19-.12l.06,0a22.91,22.91,0,0,0,4.73.47A16.89,16.89,0,0,0,17,6.68a.18.18,0,0,1,.23.16,24.27,24.27,0,0,0,1,4.59A37.33,37.33,0,0,0,20,15.59a.18.18,0,0,1-.15.28Zm-9.12-.36h8.84a39.22,39.22,0,0,1-1.57-4,25.16,25.16,0,0,1-1-4.46,18.35,18.35,0,0,1-4.26.43,24,24,0,0,1-4.6-.43,33.59,33.59,0,0,0,1,4.61A21.38,21.38,0,0,0,10.69,15.51Zm-2.47,0h2.05a22.1,22.1,0,0,1-1.55-3.69,31.86,31.86,0,0,1-.92-4,39.84,39.84,0,0,1-1.29,4.1c-.63,1.6-1.33,3.06-1.61,3.63H6.82l.59-3.17a.18.18,0,0,1,.36,0Zm7-3.9h-3a.18.18,0,0,1-.18-.14l-.51-2.07a.18.18,0,0,1,.18-.22h3a.18.18,0,0,1,.18.14l.51,2.07a.18.18,0,0,1-.18.22Zm-2.83-.36H15l-.42-1.71H12Z"/>
        </g>
    </g>
</svg>