<svg width="467pt" height="500pt" xmlns="http://www.w3.org/2000/svg" viewBox="0 0 24.43 28.85">
    <defs>
        <style>.cls-1{fill:#fff;}.cls-2{fill:#f05050;}</style>
    </defs>
    <title>m_gastronomia</title>
    <g id="Layer_2" data-name="Layer 2">
        <g id="Layer_1-2" data-name="Layer 1">
            <path id="_Path_" data-name="&lt;Path&gt;" class="cls-1"
                  d="M12.2,28.85A16.43,16.43,0,0,0,20,24.15c4.44-4.73,6.1-13,2.46-18.63a12.3,12.3,0,0,0-18.85-2c-5,5-4.4,13.61-.45,19.1A16.44,16.44,0,0,0,12.2,28.85Z"/>
            <path id="_Compound_Path_" data-name="&lt;Compound Path&gt;" class="cls-2"
                  d="M12.2,28.85A16.43,16.43,0,0,0,20,24.15c4.44-4.73,6.1-13,2.46-18.63a12.3,12.3,0,0,0-18.85-2c-5,5-4.4,13.61-.45,19.1A16.44,16.44,0,0,0,12.2,28.85Zm-9-12.93a9.86,9.86,0,0,1-.77-3.82h0A9.91,9.91,0,0,1,12.2,2.3h0a9.8,9.8,0,0,1,7.2,3.17h0a11.2,11.2,0,0,1,1.82,2.81,10.79,10.79,0,0,1,.38,1.11h0l-.06-.21.06.22h0a9.75,9.75,0,0,1,.22,1h0A9.9,9.9,0,0,1,22,12.11h0a9.92,9.92,0,0,1-9.81,9.81h0A9.91,9.91,0,0,1,3.16,15.93Z"/>
            <path id="_Path_2" data-name="&lt;Path&gt;" class="cls-1"
                  d="M3.16,15.93a9.86,9.86,0,0,1-.77-3.82h0A9.91,9.91,0,0,1,12.2,2.3h0a9.8,9.8,0,0,1,7.2,3.17h0a11.2,11.2,0,0,1,1.82,2.81,10.79,10.79,0,0,1,.38,1.11h0l-.06-.21.06.22h0a9.75,9.75,0,0,1,.22,1h0A9.9,9.9,0,0,1,22,12.11h0a9.92,9.92,0,0,1-9.81,9.81h0A9.91,9.91,0,0,1,3.16,15.93Z"/>
            <path class="cls-2"
                  d="M19.14,11.31l-1.48.14h0l-5,.47,2.81-4.14h0l.84-1.23-.17-.11a6.91,6.91,0,1,0,3,5.72c0-.21,0-.43,0-.65l0-.2h0m-7.28,1.09,5.63-.54q0,.15,0,.29A5.23,5.23,0,1,1,15,7.73l-3.17,4.68h0m.41,6.27a6.51,6.51,0,1,1,3.49-12l-.5.73a5.63,5.63,0,1,0,2.64,4.77c0-.11,0-.22,0-.33l.89-.08c0,.14,0,.28,0,.42a6.52,6.52,0,0,1-6.51,6.51h0m8.9-8.15,0-.2a6.89,6.89,0,0,0-3-5.07L18,5.14l-.78,1.27-3.34,4.81,5.7-.57h0l1.61-.13h0M18.1,5.71a6.49,6.49,0,0,1,2.63,4.45l-1,.08a5,5,0,0,0-2.08-3.77l.46-.76h0m-3.42,5L17.42,6.8a4.58,4.58,0,0,1,1.9,3.48l-4.64.46h0m-3.54-3A1.3,1.3,0,1,0,12.44,9a1.3,1.3,0,0,0-1.3-1.3h0m0,2.2A.9.9,0,1,1,12,9a.9.9,0,0,1-.9.9h0m-.75,4.42a1.11,1.11,0,1,0-1.11,1.11,1.11,1.11,0,0,0,1.11-1.11h0m-1.11.71a.71.71,0,1,1,.71-.71.71.71,0,0,1-.71.71h0M16.37,9A1.07,1.07,0,1,0,17.43,8,1.07,1.07,0,0,0,16.37,9h0M18.1,9a.67.67,0,1,1-.67-.66A.67.67,0,0,1,18.1,9h0m-3.34,7.16a1.58,1.58,0,1,0-1.58-1.58,1.58,1.58,0,0,0,1.58,1.58h0m0-2.75a1.18,1.18,0,1,1-1.18,1.18,1.18,1.18,0,0,1,1.18-1.18h0m-3.67.43a.62.62,0,1,0,.31-.54.62.62,0,0,0-.31.54m-2-2.11a.47.47,0,1,0,.23-.4.47.47,0,0,0-.23.4m.63,4.52a.43.43,0,1,0,.21-.37.43.43,0,0,0-.21.37"/>
        </g>
    </g>
</svg>