<svg width="467pt" height="500pt" xmlns="http://www.w3.org/2000/svg" viewBox="0 0 24.43 28.85">
    <defs>
        <style>.cls-1{fill:#fff;}.cls-2{fill:#f05050;}</style>
    </defs>
    <title>m_gostinica</title>
    <g id="Layer_2" data-name="Layer 2">
        <g id="Layer_1-2" data-name="Layer 1">
            <path id="_Path_" data-name="&lt;Path&gt;" class="cls-1"
                  d="M12.2,28.85A16.43,16.43,0,0,0,20,24.15c4.44-4.73,6.1-13,2.46-18.63a12.3,12.3,0,0,0-18.85-2c-5,5-4.4,13.61-.45,19.1A16.44,16.44,0,0,0,12.2,28.85Z"/>
            <path id="_Compound_Path_" data-name="&lt;Compound Path&gt;" class="cls-2"
                  d="M12.2,28.85A16.43,16.43,0,0,0,20,24.15c4.44-4.73,6.1-13,2.46-18.63a12.3,12.3,0,0,0-18.85-2c-5,5-4.4,13.61-.45,19.1A16.44,16.44,0,0,0,12.2,28.85Zm-9-12.93a9.86,9.86,0,0,1-.77-3.82h0A9.91,9.91,0,0,1,12.2,2.3h0a9.8,9.8,0,0,1,7.2,3.17h0a11.2,11.2,0,0,1,1.82,2.81,10.79,10.79,0,0,1,.38,1.11h0l-.06-.21.06.22h0a9.75,9.75,0,0,1,.22,1h0A9.9,9.9,0,0,1,22,12.11h0a9.92,9.92,0,0,1-9.81,9.81h0A9.91,9.91,0,0,1,3.16,15.93Z"/>
            <path id="_Path_2" data-name="&lt;Path&gt;" class="cls-1"
                  d="M3.16,15.93a9.86,9.86,0,0,1-.77-3.82h0A9.91,9.91,0,0,1,12.2,2.3h0a9.8,9.8,0,0,1,7.2,3.17h0a11.2,11.2,0,0,1,1.82,2.81,10.79,10.79,0,0,1,.38,1.11h0l-.06-.21.06.22h0a9.75,9.75,0,0,1,.22,1h0A9.9,9.9,0,0,1,22,12.11h0a9.92,9.92,0,0,1-9.81,9.81h0A9.91,9.91,0,0,1,3.16,15.93Z"/>
            <path class="cls-2"
                  d="M14.13,16.71h.73a.24.24,0,0,0,.24-.24.24.24,0,0,0-.24-.25h-.48v-.48h.48a.24.24,0,0,0,.24-.24.24.24,0,0,0-.24-.25h-.48v-.48h.48a.24.24,0,0,0,.24-.25.24.24,0,0,0-.24-.24h-.73a.25.25,0,0,0-.24.24v1.95A.25.25,0,0,0,14.13,16.71ZM12.2,14.78h.24v1.7a.25.25,0,0,0,.25.24.24.24,0,0,0,.24-.24v-1.7h.24a.25.25,0,0,0,.25-.25.25.25,0,0,0-.25-.24h-1a.25.25,0,0,0-.24.24A.25.25,0,0,0,12.2,14.78Zm3.88,1.93h.71a.25.25,0,0,0,.25-.24.25.25,0,0,0-.25-.25h-.48v-1.7a.25.25,0,0,0-.24-.24.25.25,0,0,0-.25.24v1.95A.25.25,0,0,0,16.08,16.71Zm-5.34,0c.49,0,1-.42,1-1.21s-.49-1.22-1-1.22-1,.38-1,1.22A1.07,1.07,0,0,0,10.74,16.71Zm0-1.93c.29,0,.49.28.49.73s-.2.71-.49.71-.48-.29-.48-.71S10.45,14.78,10.74,14.78Zm-.1-5.54-.38.14V9A.24.24,0,0,0,10,8.72.24.24,0,0,0,9.77,9v.42l-.38-.14a.24.24,0,0,0-.31.14.27.27,0,0,0,.14.32l.41.14-.24.32a.24.24,0,0,0,0,.34.29.29,0,0,0,.15.06.24.24,0,0,0,.18-.1l.24-.32.24.31a.24.24,0,0,0,.2.1.32.32,0,0,0,.15,0,.24.24,0,0,0,0-.34l-.24-.32.41-.14a.27.27,0,0,0,.14-.32A.24.24,0,0,0,10.64,9.24Zm-2.8,7.47a.24.24,0,0,0,.24-.24v-.73h.73v.73a.25.25,0,0,0,.24.24.26.26,0,0,0,.25-.24V14.53A.25.25,0,0,0,9,14.29a.24.24,0,0,0-.24.24v.73H8.08v-.73a.25.25,0,0,0-.24-.24.24.24,0,0,0-.24.24v1.95A.24.24,0,0,0,7.84,16.71ZM15,9.24l-.38.14V9a.24.24,0,0,0-.24-.24.24.24,0,0,0-.25.24v.42l-.38-.14a.24.24,0,0,0-.31.14.27.27,0,0,0,.15.32l.39.14-.24.32a.24.24,0,0,0,0,.34.29.29,0,0,0,.15.06.24.24,0,0,0,.18-.1l.25-.32.22.31a.24.24,0,0,0,.2.1.28.28,0,0,0,.15,0,.24.24,0,0,0,0-.34l-.24-.32.41-.14a.26.26,0,0,0,.14-.32A.24.24,0,0,0,15,9.24ZM17.52,6.3H13.14a1,1,0,0,0-1.88,0H6.87A1.22,1.22,0,0,0,5.65,7.51v9.94a1.21,1.21,0,0,0,1.22,1.21H17.52a1.21,1.21,0,0,0,1.22-1.21V7.51A1.22,1.22,0,0,0,17.52,6.3ZM12.2,6.06a.48.48,0,0,1,.49.48.49.49,0,0,1-1,0A.48.48,0,0,1,12.2,6.06Zm6.05,11.38a.72.72,0,0,1-.73.73H6.87a.72.72,0,0,1-.73-.73V12.83H18.25Zm0-5.09H6.14V7.51a.73.73,0,0,1,.73-.73h4.39a1,1,0,0,0,1.88,0h4.39a.73.73,0,0,1,.73.73ZM17.17,9.73l-.38.14V9.44a.24.24,0,0,0-.24-.24.25.25,0,0,0-.24.24v.43l-.38-.14a.23.23,0,0,0-.31.14.24.24,0,0,0,.14.31l.39.14-.24.34A.25.25,0,0,0,16,11a.27.27,0,0,0,.14,0,.23.23,0,0,0,.2-.1l.24-.32.24.32a.27.27,0,0,0,.2.1.18.18,0,0,0,.14-.06.24.24,0,0,0,.06-.34l-.24-.32.39-.14a.24.24,0,0,0-.17-.45ZM12.81,9l-.38.14V8.72a.24.24,0,1,0-.48,0v.42L11.58,9a.24.24,0,0,0-.17.45l.39.15-.24.32a.25.25,0,0,0,.06.34.24.24,0,0,0,.14,0,.23.23,0,0,0,.2-.1l.24-.32.24.32a.23.23,0,0,0,.2.1.27.27,0,0,0,.14,0,.26.26,0,0,0,.06-.35l-.24-.31L13,9.45a.23.23,0,0,0,.14-.31A.24.24,0,0,0,12.81,9Zm-4.36.73-.38.14V9.44a.25.25,0,0,0-.24-.24.24.24,0,0,0-.24.24v.43l-.38-.14a.24.24,0,1,0-.17.45l.39.15-.24.32a.24.24,0,0,0,.2.38.24.24,0,0,0,.2-.1l.24-.32.24.32a.21.21,0,0,0,.2.1A.2.2,0,0,0,8.41,11a.24.24,0,0,0,.06-.34l-.24-.31.39-.15a.24.24,0,0,0,.14-.31A.23.23,0,0,0,8.46,9.73Z"/>
        </g>
    </g>
</svg>