<svg width="467pt" height="500pt" xmlns="http://www.w3.org/2000/svg" viewBox="0 0 24.43 28.85">
    <defs>
        <style>.cls-1{fill:#fff;}.cls-2{fill:#f05050;}</style>
    </defs>
    <title>kinoteatri_1</title>
    <g id="Layer_2" data-name="Layer 2">
        <g id="Layer_1-2" data-name="Layer 1">
            <path id="_Path_" data-name="&lt;Path&gt;" class="cls-1"
                  d="M12.2,28.85A16.43,16.43,0,0,0,20,24.15c4.44-4.73,6.1-13,2.46-18.63a12.3,12.3,0,0,0-18.85-2c-5,5-4.4,13.61-.45,19.1A16.44,16.44,0,0,0,12.2,28.85Z"/>
            <path id="_Compound_Path_" data-name="&lt;Compound Path&gt;" class="cls-2"
                  d="M12.2,28.85A16.43,16.43,0,0,0,20,24.15c4.44-4.73,6.1-13,2.46-18.63a12.3,12.3,0,0,0-18.85-2c-5,5-4.4,13.61-.45,19.1A16.44,16.44,0,0,0,12.2,28.85Zm-9-12.93a9.86,9.86,0,0,1-.77-3.82h0A9.91,9.91,0,0,1,12.2,2.3h0a9.8,9.8,0,0,1,7.2,3.17h0a11.2,11.2,0,0,1,1.82,2.81,10.79,10.79,0,0,1,.38,1.11h0l-.06-.21.06.22h0a9.75,9.75,0,0,1,.22,1h0A9.9,9.9,0,0,1,22,12.11h0a9.92,9.92,0,0,1-9.81,9.81h0A9.91,9.91,0,0,1,3.16,15.93Z"/>
            <path id="_Path_2" data-name="&lt;Path&gt;" class="cls-1"
                  d="M3.16,15.93a9.86,9.86,0,0,1-.77-3.82h0A9.91,9.91,0,0,1,12.2,2.3h0a9.8,9.8,0,0,1,7.2,3.17h0a11.2,11.2,0,0,1,1.82,2.81,10.79,10.79,0,0,1,.38,1.11h0l-.06-.21.06.22h0a9.75,9.75,0,0,1,.22,1h0A9.9,9.9,0,0,1,22,12.11h0a9.92,9.92,0,0,1-9.81,9.81h0A9.91,9.91,0,0,1,3.16,15.93Z"/>
            <path class="cls-2"
                  d="M17.51,8.17a1.47,1.47,0,0,0-1-1.34h0a1.63,1.63,0,0,0-.55-.06,1.5,1.5,0,0,0-1.21-.89,1.59,1.59,0,0,0-.29,0A1.49,1.49,0,0,0,13.54,5a1.46,1.46,0,0,0-1.32.11,1.46,1.46,0,0,0-.93-.2,1.43,1.43,0,0,0-1.3,1,1.51,1.51,0,0,0-.45,0,1.44,1.44,0,0,0-1.07,1A1.47,1.47,0,0,0,7.69,7a1.43,1.43,0,0,0-.81,1.33,1.28,1.28,0,0,0,.78,1.16l1,9.64a.23.23,0,0,0,.23.2h6.66a.23.23,0,0,0,.23-.2l1-9.65a1.46,1.46,0,0,0,.74-1.35ZM9.07,18.92,8.12,9.58H9.45l.22,4a1.05,1.05,0,0,0-.49.82,1.09,1.09,0,0,0,.5.86l.25,3.7Zm3.12-5.58c1.49,0,2.6.54,2.6,1s-1.07,1.05-2.6,1.05-2.57-.55-2.57-1.05,1.1-1,2.57-1ZM9.91,9.58H11.2V13a4.25,4.25,0,0,0-1.1.32Zm1.75,0h1.08v3.33l-.54,0-.53,0ZM13.19,13V9.57h1.33l-.2,3.71h0a4.64,4.64,0,0,0-1.1-.31Zm-2,6h-.82l-.23-3.43a4.33,4.33,0,0,0,1.05.3Zm1.53,0H11.66V15.84l.54,0,.54,0Zm1.32,0h-.86V15.79a4.32,4.32,0,0,0,1.09-.31Zm1.27,0h-.82l.25-3.7a1.08,1.08,0,0,0,.5-.85,1,1,0,0,0-.49-.82l.22-4h1.33Zm1.23-9.8H7.88a.82.82,0,0,1-.55-.75,1,1,0,0,1,.56-.92h0A1,1,0,0,1,9,7.5a.23.23,0,0,0,.26-.37A1.52,1.52,0,0,0,8.91,7a1,1,0,0,1,.73-.63,1.13,1.13,0,0,1,1.11.37.23.23,0,0,0,.35-.29A1.53,1.53,0,0,0,10.44,6a1,1,0,0,1,.89-.63h0A1,1,0,0,1,12.4,6a.23.23,0,0,0,.43-.15,1.46,1.46,0,0,0-.24-.42,1,1,0,0,1,.79,0A1.05,1.05,0,0,1,14,6a1.49,1.49,0,0,0-.74.59.23.23,0,0,0,.07.32.23.23,0,0,0,.32-.07,1.05,1.05,0,0,1,1-.46h0a1,1,0,0,1,.79.53,1.53,1.53,0,0,0-.64.45.23.23,0,0,0,.35.29,1.11,1.11,0,0,1,1.18-.34,1,1,0,0,1,.21,1.85Zm0,0"/>
            <path class="cls-2"
                  d="M11.08,7.59A1.08,1.08,0,0,0,10,7.44a.94.94,0,0,0-.56.89.23.23,0,0,0,.45,0,.48.48,0,0,1,.28-.47.63.63,0,0,1,.61.08.23.23,0,1,0,.29-.35Zm0,0"/>
            <path class="cls-2"
                  d="M13.4,7.28a.23.23,0,0,0-.32,0,.63.63,0,0,1-.6.08.58.58,0,0,1-.29-.51.23.23,0,0,0-.45,0,1,1,0,0,0,.54.91h0a1.07,1.07,0,0,0,.41.08,1.05,1.05,0,0,0,.66-.23.23.23,0,0,0,0-.32Zm0,0"/>
            <path class="cls-2"
                  d="M14.53,7.61a.23.23,0,0,0-.23.23.52.52,0,0,1-.32.47.63.63,0,0,1-.61-.08.23.23,0,1,0-.29.35,1.06,1.06,0,0,0,.66.23,1.11,1.11,0,0,0,.42-.08,1,1,0,0,0,.6-.89.23.23,0,0,0-.23-.23Zm0,0"/>
        </g>
    </g>
</svg>