<svg width="467pt" height="500pt" xmlns="http://www.w3.org/2000/svg" viewBox="0 0 24.43 28.85">
    <defs>
        <style>.cls-1{fill:#fff;}.cls-2{fill:#f05050;}</style>
    </defs>
    <title>m_parki</title>
    <g id="Layer_2" data-name="Layer 2">
        <g id="Layer_1-2" data-name="Layer 1">
            <path id="_Path_" data-name="&lt;Path&gt;" class="cls-1"
                  d="M12.2,28.85A16.43,16.43,0,0,0,20,24.15c4.44-4.73,6.1-13,2.46-18.63a12.3,12.3,0,0,0-18.85-2c-5,5-4.4,13.61-.45,19.1A16.44,16.44,0,0,0,12.2,28.85Z"/>
            <path id="_Compound_Path_" data-name="&lt;Compound Path&gt;" class="cls-2"
                  d="M12.2,28.85A16.43,16.43,0,0,0,20,24.15c4.44-4.73,6.1-13,2.46-18.63a12.3,12.3,0,0,0-18.85-2c-5,5-4.4,13.61-.45,19.1A16.44,16.44,0,0,0,12.2,28.85Zm-9-12.93a9.86,9.86,0,0,1-.77-3.82h0A9.91,9.91,0,0,1,12.2,2.3h0a9.8,9.8,0,0,1,7.2,3.17h0a11.2,11.2,0,0,1,1.82,2.81,10.79,10.79,0,0,1,.38,1.11h0l-.06-.21.06.22h0a9.75,9.75,0,0,1,.22,1h0A9.9,9.9,0,0,1,22,12.11h0a9.92,9.92,0,0,1-9.81,9.81h0A9.91,9.91,0,0,1,3.16,15.93Z"/>
            <path id="_Path_2" data-name="&lt;Path&gt;" class="cls-1"
                  d="M3.16,15.93a9.86,9.86,0,0,1-.77-3.82h0A9.91,9.91,0,0,1,12.2,2.3h0a9.8,9.8,0,0,1,7.2,3.17h0a11.2,11.2,0,0,1,1.82,2.81,10.79,10.79,0,0,1,.38,1.11h0l-.06-.21.06.22h0a9.75,9.75,0,0,1,.22,1h0A9.9,9.9,0,0,1,22,12.11h0a9.92,9.92,0,0,1-9.81,9.81h0A9.91,9.91,0,0,1,3.16,15.93Z"/>
            <path class="cls-2"
                  d="M19,12.57a4,4,0,0,0,.1-.91,4.07,4.07,0,0,0-7.3-2.47,23.89,23.89,0,0,0-3.1-5.1A.29.29,0,0,0,8.44,4a.3.3,0,0,0-.23.12C8,4.33,4.09,9.66,4.1,13.49a4.56,4.56,0,0,0,4.15,4.32v2.13a.29.29,0,0,0,.3.3.28.28,0,0,0,.3-.3V17.81a4.51,4.51,0,0,0,3.73-2.91,4,4,0,0,0,2,.78v4.25a.29.29,0,0,0,.3.3.28.28,0,0,0,.3-.3v-1.5H17a1.39,1.39,0,0,0,1.52-1.22V16.6a2.1,2.1,0,0,0,.49-4ZM8.48,17.22a4,4,0,0,1-3.76-3.73C4.7,10.38,7.61,6,8.46,4.78c.87,1.15,3.76,5.23,3.76,8.71A3.83,3.83,0,0,1,8.48,17.22ZM15,15.11a3.54,3.54,0,0,1-2.28-.84,4,4,0,0,0,.09-.78,10.41,10.41,0,0,0-.77-3.64,3.47,3.47,0,0,1,6.43,1.81,3.83,3.83,0,0,1-.09.77,1,1,0,0,0-.23,0,2.12,2.12,0,0,0-2.11,2.11,1.72,1.72,0,0,0,.05.42A3.44,3.44,0,0,1,15,15.11Zm2.86,2.11c0,.33-.42.61-.91.61H15.17V15.72a4.19,4.19,0,0,0,1.15-.21,2.16,2.16,0,0,0,1.57,1.1Zm.3-1.2a1.51,1.51,0,0,1,0-3,1.51,1.51,0,1,1,0,3Z"/>
        </g>
    </g>
</svg>