<svg width="467pt" height="500pt" xmlns="http://www.w3.org/2000/svg" viewBox="0 0 24.43 28.85">
    <defs>
        <style>.cls-1{fill:#fff;}.cls-2{fill:#f05050;}</style>
    </defs>
    <title>m_teatri i doma kulturi</title>
    <g id="Layer_2" data-name="Layer 2">
        <g id="Layer_1-2" data-name="Layer 1">
            <path id="_Path_" data-name="&lt;Path&gt;" class="cls-1"
                  d="M12.2,28.85A16.43,16.43,0,0,0,20,24.15c4.44-4.73,6.1-13,2.46-18.63a12.3,12.3,0,0,0-18.85-2c-5,5-4.4,13.61-.45,19.1A16.44,16.44,0,0,0,12.2,28.85Z"/>
            <path id="_Compound_Path_" data-name="&lt;Compound Path&gt;" class="cls-2"
                  d="M12.2,28.85A16.43,16.43,0,0,0,20,24.15c4.44-4.73,6.1-13,2.46-18.63a12.3,12.3,0,0,0-18.85-2c-5,5-4.4,13.61-.45,19.1A16.44,16.44,0,0,0,12.2,28.85Zm-9-12.93a9.86,9.86,0,0,1-.77-3.82h0A9.91,9.91,0,0,1,12.2,2.3h0a9.8,9.8,0,0,1,7.2,3.17h0a11.2,11.2,0,0,1,1.82,2.81,10.79,10.79,0,0,1,.38,1.11h0l-.06-.21.06.22h0a9.75,9.75,0,0,1,.22,1h0A9.9,9.9,0,0,1,22,12.11h0a9.92,9.92,0,0,1-9.81,9.81h0A9.91,9.91,0,0,1,3.16,15.93Z"/>
            <path id="_Path_2" data-name="&lt;Path&gt;" class="cls-1"
                  d="M3.16,15.93a9.86,9.86,0,0,1-.77-3.82h0A9.91,9.91,0,0,1,12.2,2.3h0a9.8,9.8,0,0,1,7.2,3.17h0a11.2,11.2,0,0,1,1.82,2.81,10.79,10.79,0,0,1,.38,1.11h0l-.06-.21.06.22h0a9.75,9.75,0,0,1,.22,1h0A9.9,9.9,0,0,1,22,12.11h0a9.92,9.92,0,0,1-9.81,9.81h0A9.91,9.91,0,0,1,3.16,15.93Z"/>
            <path class="cls-2"
                  d="M8.69,18.8a.21.21,0,0,1-.19-.13l-4-9.87-.16-.28a.21.21,0,0,1,0-.18.21.21,0,0,1,.14-.12l3.21-.79a3.76,3.76,0,0,1,2.81.65,3.76,3.76,0,0,1,2.19-1.87l3.21-.79a.21.21,0,0,1,.26.2c0,.09,0,2.33-1.19,3.28L14.8,9,20,10.54a.21.21,0,0,1,.14.24,13.4,13.4,0,0,1-2.37,5.12,6.14,6.14,0,0,1-1.86,1.41,2.89,2.89,0,0,1-3.76-1.12,6.13,6.13,0,0,1-.79-2.2,10.88,10.88,0,0,1,.31-3.94,1.71,1.71,0,0,1-.8-.3,1.73,1.73,0,0,1-.7.71,4.7,4.7,0,0,1-3.29.41A3.1,3.1,0,0,1,5.39,10l3.49,8.52a.21.21,0,0,1-.11.27l-.08,0Zm3.38-8.73a10.63,10.63,0,0,0-.33,3.87,5.72,5.72,0,0,0,.74,2,2.47,2.47,0,0,0,3.22,1,5.73,5.73,0,0,0,1.74-1.31,12.77,12.77,0,0,0,2.23-4.75L14.37,9.31a4.68,4.68,0,0,1-2.26.76h0ZM4.82,8.6a4.13,4.13,0,0,0,2.13,1.88,4.34,4.34,0,0,0,3-.36,1.22,1.22,0,0,0,.62-.74.21.21,0,0,1,.37-.09,1.21,1.21,0,0,0,.89.37H12a4.43,4.43,0,0,0,2.66-1.06,4.18,4.18,0,0,0,1-2.7l-2.94.72a3.57,3.57,0,0,0-2,1.86.21.21,0,0,1-.32.08,3.58,3.58,0,0,0-2.66-.71l-2.93.72v0ZM17,14.09h-.1a2.26,2.26,0,0,1-1.38-.87.21.21,0,0,1,0-.16.21.21,0,0,1,.08-.14A2.4,2.4,0,0,1,17,12.48a4.66,4.66,0,0,1,1.31.39.21.21,0,0,1,.09.29s-.55.93-1.32.93ZM17,13.67a1.14,1.14,0,0,0,.88-.53,3.76,3.76,0,0,0-.94-.25,1.71,1.71,0,0,0-.88.25,1.65,1.65,0,0,0,.93.53h0Zm-3.2-.58a1.67,1.67,0,0,1-.77-.17h0c-.73-.38-.69-1.5-.69-1.55a.21.21,0,0,1,.23-.19,4.66,4.66,0,0,1,1.31.39,2.4,2.4,0,0,1,.89,1.11.21.21,0,0,1-.12.27,2.71,2.71,0,0,1-.85.15Zm-.58-.54a1.65,1.65,0,0,0,1.07.07,1.69,1.69,0,0,0-.6-.69,3.75,3.75,0,0,0-.93-.3,1.14,1.14,0,0,0,.45.92ZM8.61,10C7.86,10,7.39,9.08,7.37,9a.21.21,0,0,1,0-.17.21.21,0,0,1,.12-.12,4.34,4.34,0,0,1,1.23-.3,2.26,2.26,0,0,1,1.24.48.21.21,0,0,1,0,.29A2.12,2.12,0,0,1,8.66,10h0ZM7.86,9a1,1,0,0,0,.77.5,1.52,1.52,0,0,0,.87-.43,1.52,1.52,0,0,0-.78-.26A3.39,3.39,0,0,0,7.86,9Zm4.41,0a2.51,2.51,0,0,1-.89-.18.21.21,0,0,1-.11-.12.2.2,0,0,1,0-.16,2.25,2.25,0,0,1,.88-1,4.34,4.34,0,0,1,1.23-.3.21.21,0,0,1,.23.21s0,1.09-.71,1.42h0a1.51,1.51,0,0,1-.63.13Zm-.51-.49a1.5,1.5,0,0,0,1,0h0a1,1,0,0,0,.45-.8,3.4,3.4,0,0,0-.85.23,1.55,1.55,0,0,0-.57.59Z"/>
        </g>
    </g>
</svg>