<svg width="467pt" height="500pt" xmlns="http://www.w3.org/2000/svg" viewBox="0 0 24.43 28.85">
    <defs>
        <style>.cls-1{fill:#fff;}.cls-2{fill:#f05050;}</style>
    </defs>
    <title>m_vistavki</title>
    <g id="Layer_2" data-name="Layer 2">
        <g id="Layer_1-2" data-name="Layer 1">
            <path id="_Path_" data-name="&lt;Path&gt;" class="cls-1"
                  d="M12.2,28.85A16.43,16.43,0,0,0,20,24.15c4.44-4.73,6.1-13,2.46-18.63a12.3,12.3,0,0,0-18.85-2c-5,5-4.4,13.61-.45,19.1A16.44,16.44,0,0,0,12.2,28.85Z"/>
            <path id="_Compound_Path_" data-name="&lt;Compound Path&gt;" class="cls-2"
                  d="M12.2,28.85A16.43,16.43,0,0,0,20,24.15c4.44-4.73,6.1-13,2.46-18.63a12.3,12.3,0,0,0-18.85-2c-5,5-4.4,13.61-.45,19.1A16.44,16.44,0,0,0,12.2,28.85Zm-9-12.93a9.86,9.86,0,0,1-.77-3.82h0A9.91,9.91,0,0,1,12.2,2.3h0a9.8,9.8,0,0,1,7.2,3.17h0a11.2,11.2,0,0,1,1.82,2.81,10.79,10.79,0,0,1,.38,1.11h0l-.06-.21.06.22h0a9.75,9.75,0,0,1,.22,1h0A9.9,9.9,0,0,1,22,12.11h0a9.92,9.92,0,0,1-9.81,9.81h0A9.91,9.91,0,0,1,3.16,15.93Z"/>
            <path id="_Path_2" data-name="&lt;Path&gt;" class="cls-1"
                  d="M3.16,15.93a9.86,9.86,0,0,1-.77-3.82h0A9.91,9.91,0,0,1,12.2,2.3h0a9.8,9.8,0,0,1,7.2,3.17h0a11.2,11.2,0,0,1,1.82,2.81,10.79,10.79,0,0,1,.38,1.11h0l-.06-.21.06.22h0a9.75,9.75,0,0,1,.22,1h0A9.9,9.9,0,0,1,22,12.11h0a9.92,9.92,0,0,1-9.81,9.81h0A9.91,9.91,0,0,1,3.16,15.93Z"/>
            <path class="cls-2"
                  d="M18.05,18.14h-.69a.18.18,0,0,1-.18-.18.54.54,0,1,0-1.09,0,.18.18,0,0,1-.18.18h-.74A.18.18,0,0,1,15,18a.54.54,0,0,0-1.09,0,.18.18,0,0,1-.18.18H13a.18.18,0,0,1-.18-.18.54.54,0,1,0-1.09,0,.18.18,0,0,1-.18.18h-.74a.18.18,0,0,1-.18-.18.54.54,0,1,0-1.09,0,.18.18,0,0,1-.18.18H8.62A.18.18,0,0,1,8.45,18a.54.54,0,1,0-1.09,0,.18.18,0,0,1-.18.18H6.34A.18.18,0,0,1,6.17,18V17.2A.18.18,0,0,1,6.34,17a.54.54,0,1,0,0-1.09.18.18,0,0,1-.18-.18V15a.18.18,0,0,1,.18-.18.54.54,0,1,0,0-1.09.18.18,0,0,1-.18-.18v-.74a.18.18,0,0,1,.18-.18.54.54,0,1,0,0-1.09.18.18,0,0,1-.18-.18v-.74a.18.18,0,0,1,.18-.18.54.54,0,0,0,0-1.09.18.18,0,0,1-.18-.18V8.46a.18.18,0,0,1,.18-.18.54.54,0,1,0,0-1.09A.18.18,0,0,1,6.17,7V6.26a.18.18,0,0,1,.18-.18h.84a.18.18,0,0,1,.18.18.54.54,0,1,0,1.09,0,.18.18,0,0,1,.18-.18h.74a.18.18,0,0,1,.18.18.54.54,0,0,0,1.09,0,.18.18,0,0,1,.18-.18h.74a.18.18,0,0,1,.18.18.54.54,0,1,0,1.09,0A.18.18,0,0,1,13,6.08h.74a.18.18,0,0,1,.18.18.54.54,0,0,0,1.09,0,.18.18,0,0,1,.18-.18h.74a.18.18,0,0,1,.18.18.54.54,0,1,0,1.09,0,.18.18,0,0,1,.18-.18h.69a.18.18,0,0,1,.18.18V7a.18.18,0,0,1-.18.18.54.54,0,1,0,0,1.09.18.18,0,0,1,.18.18V9.2a.18.18,0,0,1-.18.18.54.54,0,1,0,0,1.09.18.18,0,0,1,.18.18v.74a.18.18,0,0,1-.18.18.54.54,0,1,0,0,1.09.18.18,0,0,1,.18.18v.74a.18.18,0,0,1-.18.18.54.54,0,1,0,0,1.09.18.18,0,0,1,.18.18v.74a.18.18,0,0,1-.18.18.54.54,0,1,0,0,1.09.18.18,0,0,1,.18.18V18a.18.18,0,0,1-.18.18Zm-.53-.35h.35v-.43a.9.9,0,0,1,0-1.76v-.42a.9.9,0,0,1,0-1.76V13a.9.9,0,0,1,0-1.76v-.42a.9.9,0,0,1,0-1.76V8.62a.9.9,0,0,1,0-1.76V6.43h-.35a.9.9,0,0,1-1.76,0h-.42a.9.9,0,0,1-1.76,0h-.42a.9.9,0,0,1-1.76,0H11a.9.9,0,0,1-1.76,0H8.78A.9.9,0,0,1,7,6.43h-.5v.43a.9.9,0,0,1,0,1.76V9a.9.9,0,0,1,0,1.76v.42a.9.9,0,0,1,0,1.76v.42a.9.9,0,0,1,0,1.76v.42a.9.9,0,0,1,0,1.76v.43H7a.9.9,0,0,1,1.76,0h.42a.9.9,0,0,1,1.76,0h.42a.9.9,0,0,1,1.76,0h.42a.9.9,0,0,1,1.76,0h.42a.9.9,0,0,1,1.76,0Zm-1-1.13H7.83a.18.18,0,0,1-.18-.18V7.74a.18.18,0,0,1,.18-.18h8.73a.18.18,0,0,1,.18.18v8.73a.18.18,0,0,1-.18.18ZM8,16.3h8.38V7.92H8Z"/>
        </g>
    </g>
</svg>