<svg width="467pt" height="500pt" xmlns="http://www.w3.org/2000/svg" viewBox="0 0 24.43 28.85">
    <defs>
        <style>.cls-1{fill:#fff;}.cls-2{fill:#f05050;}</style>
    </defs>
    <title>zapovednie mesta_1</title>
    <g id="Layer_2" data-name="Layer 2">
        <g id="Layer_1-2" data-name="Layer 1">
            <path id="_Path_" data-name="&lt;Path&gt;" class="cls-1"
                  d="M12.2,28.85A16.43,16.43,0,0,0,20,24.15c4.44-4.73,6.1-13,2.46-18.63a12.3,12.3,0,0,0-18.85-2c-5,5-4.4,13.61-.45,19.1A16.44,16.44,0,0,0,12.2,28.85Z"/>
            <path id="_Compound_Path_" data-name="&lt;Compound Path&gt;" class="cls-2"
                  d="M12.2,28.85A16.43,16.43,0,0,0,20,24.15c4.44-4.73,6.1-13,2.46-18.63a12.3,12.3,0,0,0-18.85-2c-5,5-4.4,13.61-.45,19.1A16.44,16.44,0,0,0,12.2,28.85Zm-9-12.93a9.86,9.86,0,0,1-.77-3.82h0A9.91,9.91,0,0,1,12.2,2.3h0a9.8,9.8,0,0,1,7.2,3.17h0a11.2,11.2,0,0,1,1.82,2.81,10.79,10.79,0,0,1,.38,1.11h0l-.06-.21.06.22h0a9.75,9.75,0,0,1,.22,1h0A9.9,9.9,0,0,1,22,12.11h0a9.92,9.92,0,0,1-9.81,9.81h0A9.91,9.91,0,0,1,3.16,15.93Z"/>
            <path id="_Path_2" data-name="&lt;Path&gt;" class="cls-1"
                  d="M3.16,15.93a9.86,9.86,0,0,1-.77-3.82h0A9.91,9.91,0,0,1,12.2,2.3h0a9.8,9.8,0,0,1,7.2,3.17h0a11.2,11.2,0,0,1,1.82,2.81,10.79,10.79,0,0,1,.38,1.11h0l-.06-.21.06.22h0a9.75,9.75,0,0,1,.22,1h0A9.9,9.9,0,0,1,22,12.11h0a9.92,9.92,0,0,1-9.81,9.81h0A9.91,9.91,0,0,1,3.16,15.93Z"/>
            <path class="cls-2"
                  d="M6.5,13.08V14.6l-.31.35a.32.32,0,0,0-.14.26v.63a.2.2,0,1,0,.4,0v-.6l.31-.35a.32.32,0,0,0,.14-.26V13.07a1.66,1.66,0,0,1,1.43-1.64l2.61,0a.2.2,0,0,0,0-.4L8.32,11h0a2,2,0,0,0-.8.28,2.13,2.13,0,0,0-1.86,1.33.31.31,0,0,0,.25.44l.34,0Zm-.44-.39a1.73,1.73,0,0,1,.84-.82,2.05,2.05,0,0,0-.35.8A2.14,2.14,0,0,1,6.05,12.68Z"/>
            <circle class="cls-2" cx="16.51" cy="8.36" r="0.2"/>
            <path class="cls-2"
                  d="M16.63,11.54a.2.2,0,0,0-.21.2c0,.43,0,.84-.08,1.2a2.78,2.78,0,0,1-.26.89,11.35,11.35,0,0,0-.91,3.27l-.41.11,0-2.56a.2.2,0,0,0,0,0,.32.32,0,0,0-.3-.24l-4.34-.15h0l-.83,0a.31.31,0,0,0-.23.08L7.54,15.65H7.07a.32.32,0,0,0-.32.32v1.29l-.31,0v-.22a.2.2,0,1,0-.4,0v1.07H6a.32.32,0,0,0,.32.32H7.3a.32.32,0,0,0,.31-.39l-.1-.39a.32.32,0,0,0-.12-.18l-.23-.17V16.05h.41a.32.32,0,0,0,.2-.07v1.46h0v.71a.31.31,0,0,0,.31.31h1a.31.31,0,0,0,.3-.32h0v0l-.08-.45h0v0h0a.31.31,0,0,0-.12-.16h0l-.37-.23V16l.44,0a.2.2,0,0,0,.16-.1l.79-1.3,2.7.1-.22,2.77h0l-.05.63a.32.32,0,0,0,.08.25l0,0,0,0h0a.3.3,0,0,0,.18.06h.93a.3.3,0,0,0,.26-.23v0l.08-.4h0a.31.31,0,0,0-.11-.3l0,0-.16-.1-.13-.08.48-2.55h.08l0,2.7h0v0l.15.7h0a.32.32,0,0,0,.31.24h1a.3.3,0,0,0,.3-.23l.09-.37a.31.31,0,0,0-.11-.31l-.49-.37A11.14,11.14,0,0,1,16.44,14a3.18,3.18,0,0,0,.3-1c0-.37.07-.79.09-1.24A.2.2,0,0,0,16.63,11.54ZM6.44,18.06v-.35l.46-.07.22.17.06.25Zm1.73,0v-.45l.4-.07.35.22.05.3Zm.93-2.44-.52,0a.2.2,0,0,0-.19.2v1.3l-.22,0V15.61l1.1-1,.45,0ZM13,18.06l0-.39.4-.07h0l0,0,.18.11.12.07,0,.26Zm.35-.86-.28.05.2-2.52.54,0Zm2.34.86h-.82l-.09-.44.51-.13.45.34Z"/>
            <path class="cls-2"
                  d="M18.79,6.93v-.4A.77.77,0,0,0,18,5.76h-.14a.2.2,0,0,0-.2.2v.42H17.5a.64.64,0,0,0-.64-.62h-.3a.2.2,0,0,0-.2.2v.65H15.14V6a.2.2,0,0,0-.2-.2h-.3a.64.64,0,0,0-.64.62h-.17V6a.2.2,0,0,0-.2-.2h-.14a.77.77,0,0,0-.77.77v.4a.93.93,0,0,0,.93.93h.93L13.84,10a1.65,1.65,0,0,1-1.58,1.11.2.2,0,0,0,0,.4h0a2.05,2.05,0,0,0,1.94-1.38L15,7.86h1.52l.11.08.16.16a1,1,0,0,0,.67.28h.93v.49a.43.43,0,0,1-.51.42l-1.3-.23a.2.2,0,0,0-.24.22s0,.47.07,1.14a.2.2,0,0,0,.2.2h0a.2.2,0,0,0,.19-.21c0-.38,0-.69,0-.9l1,.18a.83.83,0,0,0,1-.82V8.39A.41.41,0,0,0,18.38,8h-.92a.55.55,0,0,1-.34-.12h.75A.93.93,0,0,0,18.79,6.93Zm-5.68,0v-.4a.37.37,0,0,1,.31-.36v.41a.2.2,0,0,0,.2.2h.58a.2.2,0,0,0,.2-.2V6.39a.23.23,0,0,1,.23-.23h.1v.65a.2.2,0,0,0,.2.2h1.62a.2.2,0,0,0,.2-.2V6.16h.1a.23.23,0,0,1,.23.23v.18a.2.2,0,0,0,.2.2h.58a.2.2,0,0,0,.2-.2V6.16a.37.37,0,0,1,.31.36v.4a.53.53,0,0,1-.53.53H13.64A.53.53,0,0,1,13.11,6.93Z"/>
        </g>
    </g>
</svg>