<svg width="467pt" height="500pt"  xmlns="http://www.w3.org/2000/svg" viewBox="0 0 24.43 28.85"><defs><style>.cls-1{fill:#fff;}.cls-2{fill:#f05050;}</style></defs><title>Asset 1</title><g id="Layer_2" data-name="Layer 2"><g id="Layer_1-2" data-name="Layer 1"><path id="_Path_" data-name="&lt;Path&gt;" class="cls-1" d="M12.2,28.85A16.43,16.43,0,0,0,20,24.15c4.44-4.73,6.1-13,2.46-18.63a12.3,12.3,0,0,0-18.85-2c-5,5-4.4,13.61-.45,19.1A16.44,16.44,0,0,0,12.2,28.85Z"/><path id="_Compound_Path_" data-name="&lt;Compound Path&gt;" class="cls-2" d="M12.2,28.85A16.43,16.43,0,0,0,20,24.15c4.44-4.73,6.1-13,2.46-18.63a12.3,12.3,0,0,0-18.85-2c-5,5-4.4,13.61-.45,19.1A16.44,16.44,0,0,0,12.2,28.85Zm-9-12.93a9.86,9.86,0,0,1-.77-3.82h0A9.91,9.91,0,0,1,12.2,2.3h0a9.8,9.8,0,0,1,7.2,3.17h0a11.2,11.2,0,0,1,1.82,2.81,10.79,10.79,0,0,1,.38,1.11h0l-.06-.21.06.22h0a9.75,9.75,0,0,1,.22,1h0A9.9,9.9,0,0,1,22,12.11h0a9.92,9.92,0,0,1-9.81,9.81h0A9.91,9.91,0,0,1,3.16,15.93Z"/><path id="_Path_2" data-name="&lt;Path&gt;" class="cls-1" d="M3.16,15.93a9.86,9.86,0,0,1-.77-3.82h0A9.91,9.91,0,0,1,12.2,2.3h0a9.8,9.8,0,0,1,7.2,3.17h0a11.2,11.2,0,0,1,1.82,2.81,10.79,10.79,0,0,1,.38,1.11h0l-.06-.21.06.22h0a9.75,9.75,0,0,1,.22,1h0A9.9,9.9,0,0,1,22,12.11h0a9.92,9.92,0,0,1-9.81,9.81h0A9.91,9.91,0,0,1,3.16,15.93Z"/><path class="cls-2" d="M18.28,15h-.11a.74.74,0,0,0,0-.6l-.5-1a.75.75,0,0,0-1.34,0l-.5,1a.74.74,0,0,0,0,.6h-.43v0L15,13.75a.39.39,0,0,0-.38-.28h-.7L12.59,6a.39.39,0,0,0-.39-.32h0a.39.39,0,0,0-.39.33l-1.29,7.43h-.7a.39.39,0,0,0-.38.28L9.07,15v0H8.64a.74.74,0,0,0,0-.6l-.5-1a.75.75,0,0,0-1.34,0l-.5,1a.74.74,0,0,0,0,.6H6.12a.4.4,0,0,0-.4.4V18.1a.4.4,0,0,0,.4.4H18.28a.4.4,0,0,0,.4-.4V15.43A.4.4,0,0,0,18.28,15Zm-2-.12a.25.25,0,0,1,0-.25l.5-1a.26.26,0,0,1,.46,0l.5,1a.26.26,0,0,1-.23.37h-1A.25.25,0,0,1,16.24,14.91Zm-4-8.23,1.18,6.8H11ZM9.89,14H14.5L14.82,15H9.58Zm-3.18.94a.25.25,0,0,1,0-.25l.5-1a.26.26,0,0,1,.46,0l.5,1a.26.26,0,0,1-.23.37h-1A.25.25,0,0,1,6.71,14.91ZM18.18,18h-12V15.52h12Z"/></g></g></svg>