<svg  width="467pt" height="500pt"  xmlns="http://www.w3.org/2000/svg" viewBox="0 0 24.43 28.85"><defs><style>.cls-1{fill:#fff;}.cls-2{fill:#f05050;}</style></defs><title>Asset 13</title><g id="Layer_2" data-name="Layer 2"><g id="Layer_1-2" data-name="Layer 1"><path id="_Path_" data-name="&lt;Path&gt;" class="cls-1" d="M12.2,28.85A16.43,16.43,0,0,0,20,24.15c4.44-4.73,6.1-13,2.46-18.63a12.3,12.3,0,0,0-18.85-2c-5,5-4.4,13.61-.45,19.1A16.44,16.44,0,0,0,12.2,28.85Z"/><path id="_Compound_Path_" data-name="&lt;Compound Path&gt;" class="cls-2" d="M12.2,28.85A16.43,16.43,0,0,0,20,24.15c4.44-4.73,6.1-13,2.46-18.63a12.3,12.3,0,0,0-18.85-2c-5,5-4.4,13.61-.45,19.1A16.44,16.44,0,0,0,12.2,28.85Zm-9-12.93a9.86,9.86,0,0,1-.77-3.82h0A9.91,9.91,0,0,1,12.2,2.3h0a9.8,9.8,0,0,1,7.2,3.17h0a11.2,11.2,0,0,1,1.82,2.81,10.79,10.79,0,0,1,.38,1.11h0l-.06-.21.06.22h0a9.75,9.75,0,0,1,.22,1h0A9.9,9.9,0,0,1,22,12.11h0a9.92,9.92,0,0,1-9.81,9.81h0A9.91,9.91,0,0,1,3.16,15.93Z"/><path id="_Path_2" data-name="&lt;Path&gt;" class="cls-1" d="M3.16,15.93a9.86,9.86,0,0,1-.77-3.82h0A9.91,9.91,0,0,1,12.2,2.3h0a9.8,9.8,0,0,1,7.2,3.17h0a11.2,11.2,0,0,1,1.82,2.81,10.79,10.79,0,0,1,.38,1.11h0l-.06-.21.06.22h0a9.75,9.75,0,0,1,.22,1h0A9.9,9.9,0,0,1,22,12.11h0a9.92,9.92,0,0,1-9.81,9.81h0A9.91,9.91,0,0,1,3.16,15.93Z"/><path class="cls-2" d="M18.08,12.51a3.48,3.48,0,0,0,.09-.79,3.53,3.53,0,0,0-6.33-2.15A20.72,20.72,0,0,0,9.15,5.15a.25.25,0,0,0-.21-.09.26.26,0,0,0-.2.11c-.15.2-3.58,4.82-3.57,8.14a4,4,0,0,0,3.6,3.75V18.9a.25.25,0,0,0,.26.26.25.25,0,0,0,.26-.26V17.06a3.91,3.91,0,0,0,3.23-2.52,3.48,3.48,0,0,0,1.74.68V18.9a.25.25,0,0,0,.26.26.25.25,0,0,0,.26-.26V17.6h1.57a1.2,1.2,0,0,0,1.31-1.06V16a1.82,1.82,0,0,0,.42-3.49ZM9,16.54a3.43,3.43,0,0,1-3.26-3.23c0-2.7,2.51-6.5,3.25-7.56.76,1,3.26,4.53,3.26,7.56A3.32,3.32,0,0,1,9,16.54Zm5.68-1.83a3.07,3.07,0,0,1-2-.73,3.47,3.47,0,0,0,.08-.68,9,9,0,0,0-.66-3.16,3,3,0,0,1,5.58,1.57,3.32,3.32,0,0,1-.08.66.86.86,0,0,0-.2,0,1.83,1.83,0,0,0-1.83,1.83,1.49,1.49,0,0,0,0,.36A3,3,0,0,1,14.65,14.72Zm2.48,1.83c0,.29-.36.53-.79.53H14.77V15.24a3.64,3.64,0,0,0,1-.18,1.88,1.88,0,0,0,1.36,1Zm.26-1a1.31,1.31,0,0,1,0-2.61,1.31,1.31,0,1,1,0,2.61Z"/></g></g></svg>