<svg width="467pt" height="500pt" xmlns="http://www.w3.org/2000/svg" viewBox="0 0 24.43 28.85">
    <defs>
        <style>.cls-1{fill:#fff;}.cls-2{fill:#f05050;}</style>
    </defs>
    <title>m_plyaji</title>
    <g id="Layer_2" data-name="Layer 2">
        <g id="Layer_1-2" data-name="Layer 1">
            <path id="_Path_" data-name="&lt;Path&gt;" class="cls-1"
                  d="M12.2,28.85A16.43,16.43,0,0,0,20,24.15c4.44-4.73,6.1-13,2.46-18.63a12.3,12.3,0,0,0-18.85-2c-5,5-4.4,13.61-.45,19.1A16.44,16.44,0,0,0,12.2,28.85Z"/>
            <path id="_Compound_Path_" data-name="&lt;Compound Path&gt;" class="cls-2"
                  d="M12.2,28.85A16.43,16.43,0,0,0,20,24.15c4.44-4.73,6.1-13,2.46-18.63a12.3,12.3,0,0,0-18.85-2c-5,5-4.4,13.61-.45,19.1A16.44,16.44,0,0,0,12.2,28.85Zm-9-12.93a9.86,9.86,0,0,1-.77-3.82h0A9.91,9.91,0,0,1,12.2,2.3h0a9.8,9.8,0,0,1,7.2,3.17h0a11.2,11.2,0,0,1,1.82,2.81,10.79,10.79,0,0,1,.38,1.11h0l-.06-.21.06.22h0a9.75,9.75,0,0,1,.22,1h0A9.9,9.9,0,0,1,22,12.11h0a9.92,9.92,0,0,1-9.81,9.81h0A9.91,9.91,0,0,1,3.16,15.93Z"/>
            <path id="_Path_2" data-name="&lt;Path&gt;" class="cls-1"
                  d="M3.16,15.93a9.86,9.86,0,0,1-.77-3.82h0A9.91,9.91,0,0,1,12.2,2.3h0a9.8,9.8,0,0,1,7.2,3.17h0a11.2,11.2,0,0,1,1.82,2.81,10.79,10.79,0,0,1,.38,1.11h0l-.06-.21.06.22h0a9.75,9.75,0,0,1,.22,1h0A9.9,9.9,0,0,1,22,12.11h0a9.92,9.92,0,0,1-9.81,9.81h0A9.91,9.91,0,0,1,3.16,15.93Z"/>
            <path class="cls-2"
                  d="M18.44,16.15h-.8a.18.18,0,0,1-.17-.12l-.94-2.8H15l.9,2.68a.18.18,0,0,1-.17.24h-.8a.18.18,0,0,1-.17-.12l-.94-2.79h-2.3a2.24,2.24,0,0,0-1.24.5L7.54,16a.73.73,0,0,1-.46.17H4.65a.49.49,0,0,1-.31-.88l2.3-1.83a2.6,2.6,0,0,1,1.62-.56h5.51l.71-1.13h-4a.18.18,0,0,1,0-.36h4.27l1.6-2.56a1.56,1.56,0,0,1,1.33-.74h2.05a.55.55,0,0,1,.47.83l-1.64,2.74h0l-.85,1.42,1,2.84a.18.18,0,0,1-.17.24Zm-.67-.36h.42l-.86-2.56h-.42Zm-2.73,0h.42l-.86-2.56h-.42ZM8.26,13.24a2.24,2.24,0,0,0-1.39.49l-2.3,1.83a.13.13,0,0,0,.08.23H7.07a.37.37,0,0,0,.23-.08L10,13.46a2.58,2.58,0,0,1,.31-.22Zm8.4-.37h.7L18,11.73H14.91l-.71,1.13Zm-1.37-1.5h3l1.59-2.66a.19.19,0,0,0-.16-.28H17.64a1.2,1.2,0,0,0-1,.57l-1.48,2.37h.16Z"/>
        </g>
    </g>
</svg>