<svg  width="467pt" height="500pt"  xmlns="http://www.w3.org/2000/svg" viewBox="0 0 24.43 28.85"><defs><style>.cls-1{fill:#fff;}.cls-2{fill:#f05050;}</style></defs><title>Asset 14</title><g id="Layer_2" data-name="Layer 2"><g id="Layer_1-2" data-name="Layer 1"><path id="_Path_" data-name="&lt;Path&gt;" class="cls-1" d="M12.2,28.85A16.43,16.43,0,0,0,20,24.15c4.44-4.73,6.1-13,2.46-18.63a12.3,12.3,0,0,0-18.85-2c-5,5-4.4,13.61-.45,19.1A16.44,16.44,0,0,0,12.2,28.85Z"/><path id="_Compound_Path_" data-name="&lt;Compound Path&gt;" class="cls-2" d="M12.2,28.85A16.43,16.43,0,0,0,20,24.15c4.44-4.73,6.1-13,2.46-18.63a12.3,12.3,0,0,0-18.85-2c-5,5-4.4,13.61-.45,19.1A16.44,16.44,0,0,0,12.2,28.85Zm-9-12.93a9.86,9.86,0,0,1-.77-3.82h0A9.91,9.91,0,0,1,12.2,2.3h0a9.8,9.8,0,0,1,7.2,3.17h0a11.2,11.2,0,0,1,1.82,2.81,10.79,10.79,0,0,1,.38,1.11h0l-.06-.21.06.22h0a9.75,9.75,0,0,1,.22,1h0A9.9,9.9,0,0,1,22,12.11h0a9.92,9.92,0,0,1-9.81,9.81h0A9.91,9.91,0,0,1,3.16,15.93Z"/><path id="_Path_2" data-name="&lt;Path&gt;" class="cls-1" d="M3.16,15.93a9.86,9.86,0,0,1-.77-3.82h0A9.91,9.91,0,0,1,12.2,2.3h0a9.8,9.8,0,0,1,7.2,3.17h0a11.2,11.2,0,0,1,1.82,2.81,10.79,10.79,0,0,1,.38,1.11h0l-.06-.21.06.22h0a9.75,9.75,0,0,1,.22,1h0A9.9,9.9,0,0,1,22,12.11h0a9.92,9.92,0,0,1-9.81,9.81h0A9.91,9.91,0,0,1,3.16,15.93Z"/><path class="cls-2" d="M16.8,17a.25.25,0,1,0,0-.5H7.59a.25.25,0,0,0,0,.5ZM9.89,11.62a.26.26,0,0,0-.25.25V15a.26.26,0,0,0,.25.25.26.26,0,0,0,.27-.25V11.87A.26.26,0,0,0,9.89,11.62Zm7.68,5.89H6.82a.25.25,0,0,0-.25.25.24.24,0,0,0,.25.25H17.57a.25.25,0,0,0,.25-.25A.26.26,0,0,0,17.57,17.51Zm1.33-4.75-2.55-.62H16.3v-.77a.21.21,0,0,0,0-.09l.18.07a.26.26,0,1,0,.19-.47L15,10.2V8a2.61,2.61,0,0,0-2.56-2.8h0V4.46a.25.25,0,1,0-.5,0v.77h0A2.61,2.61,0,0,0,9.38,8V10.2l-1.63.68a.25.25,0,0,0-.15.33.27.27,0,0,0,.34.15l.18-.07a.21.21,0,0,0,0,.09v.78l-2.61.61a.27.27,0,0,0-.21.25v3.73a.25.25,0,0,0,.27.25h1a.25.25,0,0,0,0-.5H5.8V13.22l2.29-.55v3a.26.26,0,0,0,.27.25H16a.26.26,0,0,0,.27-.25V12.66l2.29.56v3.27h-.77a.25.25,0,1,0,0,.5h1a.25.25,0,0,0,.27-.25V13A.27.27,0,0,0,18.9,12.76Zm-6.71-7a2.12,2.12,0,0,1,2.29,2H9.9A2.12,2.12,0,0,1,12.2,5.74ZM9.89,8.29h4.62V10l-2.21-.9a.25.25,0,0,0-.21,0L9.89,10Zm5.89,3.08v4.09H8.61V11.37a.26.26,0,0,0-.15-.24L12.2,9.59l3.73,1.54A.26.26,0,0,0,15.78,11.37Zm-4.35.25a.26.26,0,0,0-.25.25V15a.26.26,0,0,0,.25.25.25.25,0,0,0,.25-.25V11.87A.25.25,0,0,0,11.43,11.62ZM13,15.2a.26.26,0,0,0,.25-.25V11.87a.25.25,0,0,0-.5,0V15A.25.25,0,0,0,13,15.2Zm1.54,0a.26.26,0,0,0,.25-.25V11.87a.26.26,0,0,0-.25-.25.26.26,0,0,0-.27.25V15A.26.26,0,0,0,14.51,15.2Z"/></g></g></svg>