<svg width="467pt" height="500pt"  xmlns="http://www.w3.org/2000/svg" viewBox="0 0 24.43 28.85"><defs><style>.cls-1{fill:#fff;}.cls-2{fill:#f05050;}</style></defs><title>Asset 2</title><g id="Layer_2" data-name="Layer 2"><g id="Layer_1-2" data-name="Layer 1"><path id="_Path_" data-name="&lt;Path&gt;" class="cls-1" d="M12.2,28.85A16.43,16.43,0,0,0,20,24.15c4.44-4.73,6.1-13,2.46-18.63a12.3,12.3,0,0,0-18.85-2c-5,5-4.4,13.61-.45,19.1A16.44,16.44,0,0,0,12.2,28.85Z"/><path id="_Compound_Path_" data-name="&lt;Compound Path&gt;" class="cls-2" d="M12.2,28.85A16.43,16.43,0,0,0,20,24.15c4.44-4.73,6.1-13,2.46-18.63a12.3,12.3,0,0,0-18.85-2c-5,5-4.4,13.61-.45,19.1A16.44,16.44,0,0,0,12.2,28.85Zm-9-12.93a9.86,9.86,0,0,1-.77-3.82h0A9.91,9.91,0,0,1,12.2,2.3h0a9.8,9.8,0,0,1,7.2,3.17h0a11.2,11.2,0,0,1,1.82,2.81,10.79,10.79,0,0,1,.38,1.11h0l-.06-.21.06.22h0a9.75,9.75,0,0,1,.22,1h0A9.9,9.9,0,0,1,22,12.11h0a9.92,9.92,0,0,1-9.81,9.81h0A9.91,9.91,0,0,1,3.16,15.93Z"/><path id="_Path_2" data-name="&lt;Path&gt;" class="cls-1" d="M3.16,15.93a9.86,9.86,0,0,1-.77-3.82h0A9.91,9.91,0,0,1,12.2,2.3h0a9.8,9.8,0,0,1,7.2,3.17h0a11.2,11.2,0,0,1,1.82,2.81,10.79,10.79,0,0,1,.38,1.11h0l-.06-.21.06.22h0a9.75,9.75,0,0,1,.22,1h0A9.9,9.9,0,0,1,22,12.11h0a9.92,9.92,0,0,1-9.81,9.81h0A9.91,9.91,0,0,1,3.16,15.93Z"/><path class="cls-2" d="M18,16.11V8.49a.7.7,0,0,0,.41-.63V7.74A.7.7,0,0,0,18,7.09L12.47,4.77a.69.69,0,0,0-.54,0L6.37,7.09a.7.7,0,0,0-.43.64v.12a.7.7,0,0,0,.41.63v7.62a.7.7,0,0,0,.07,1.39H18A.7.7,0,0,0,18,16.11ZM6.85,8.55h.51V16.1H6.85Zm2,6.23h-1V13.55h1Zm0-1.74h-1v-.78h1Zm0-1.29h-1V10.6h1Zm0-1.66h-1V8.55h1Zm-1,5.19h1v.81h-1ZM9.4,8.55H9.9V16.1H9.4Zm2,6.23h-1V13.55h1Zm0-1.74h-1v-.78h1Zm0-1.29h-1V10.6h1Zm0-1.66h-1V8.55h1Zm-1,5.19h1v.81h-1Zm1.54-6.74h.51V16.1h-.51Zm2,6.23H13V13.55h1ZM14,13H13v-.78h1Zm0-1.29H13V10.6h1Zm0-1.66H13V8.55h1Zm-1,5.19h1v.81H13Zm1.54-6.74H15V16.1h-.51Zm2,6.23h-1V13.55h1Zm0-1.74h-1v-.78h1Zm0-1.29h-1V10.6h1Zm0-1.66h-1V8.55h1Zm-1,5.19h1v.81h-1ZM17,8.55h.51V16.1H17ZM6.44,7.74a.19.19,0,0,1,.12-.18l5.56-2.32h.15l5.56,2.32a.19.19,0,0,1,.12.18v.12a.19.19,0,0,1-.19.19H6.64a.19.19,0,0,1-.19-.19ZM18,17H6.41a.19.19,0,0,1,0-.39H18A.19.19,0,1,1,18,17Z"/></g></g></svg>