<svg width="467pt" height="500pt"  xmlns="http://www.w3.org/2000/svg" viewBox="0 0 24.43 28.85"><defs><style>.cls-1{fill:#fff;}.cls-2{fill:#f05050;}</style></defs><title>Asset 8</title><g id="Layer_2" data-name="Layer 2"><g id="Layer_1-2" data-name="Layer 1"><path id="_Path_" data-name="&lt;Path&gt;" class="cls-1" d="M12.2,28.85A16.43,16.43,0,0,0,20,24.15c4.44-4.73,6.1-13,2.46-18.63a12.3,12.3,0,0,0-18.85-2c-5,5-4.4,13.61-.45,19.1A16.44,16.44,0,0,0,12.2,28.85Z"/><path id="_Compound_Path_" data-name="&lt;Compound Path&gt;" class="cls-2" d="M12.2,28.85A16.43,16.43,0,0,0,20,24.15c4.44-4.73,6.1-13,2.46-18.63a12.3,12.3,0,0,0-18.85-2c-5,5-4.4,13.61-.45,19.1A16.44,16.44,0,0,0,12.2,28.85Zm-9-12.93a9.86,9.86,0,0,1-.77-3.82h0A9.91,9.91,0,0,1,12.2,2.3h0a9.8,9.8,0,0,1,7.2,3.17h0a11.2,11.2,0,0,1,1.82,2.81,10.79,10.79,0,0,1,.38,1.11h0l-.06-.21.06.22h0a9.75,9.75,0,0,1,.22,1h0A9.9,9.9,0,0,1,22,12.11h0a9.92,9.92,0,0,1-9.81,9.81h0A9.91,9.91,0,0,1,3.16,15.93Z"/><path id="_Path_2" data-name="&lt;Path&gt;" class="cls-1" d="M3.16,15.93a9.86,9.86,0,0,1-.77-3.82h0A9.91,9.91,0,0,1,12.2,2.3h0a9.8,9.8,0,0,1,7.2,3.17h0a11.2,11.2,0,0,1,1.82,2.81,10.79,10.79,0,0,1,.38,1.11h0l-.06-.21.06.22h0a9.75,9.75,0,0,1,.22,1h0A9.9,9.9,0,0,1,22,12.11h0a9.92,9.92,0,0,1-9.81,9.81h0A9.91,9.91,0,0,1,3.16,15.93Z"/><path class="cls-2" d="M17.92,8h-.28V7.16a1.87,1.87,0,0,0-1.22-1.71A13.88,13.88,0,0,0,8,5.46,1.84,1.84,0,0,0,6.74,7.16V8H6.48a.82.82,0,0,0-.82.82v2.46a.81.81,0,0,0,.82.82h.27v5a1.26,1.26,0,0,0,.82,1.22v.36a.82.82,0,0,0,.82.82H9.2a.82.82,0,0,0,.82-.82v-.27h4.36v.27a.81.81,0,0,0,.82.82H16a.81.81,0,0,0,.82-.82v-.38A1.31,1.31,0,0,0,17.64,17v-5h.28a.82.82,0,0,0,.82-.82V8.79A.82.82,0,0,0,17.92,8ZM8.12,6a13.35,13.35,0,0,1,8.13,0,1.36,1.36,0,0,1,.83,1.1,1.86,1.86,0,0,0-1-.44c-.52-.08-1.05-.13-1.63-.17a.3.3,0,0,0-.2,0l-.19.19c-.13.14-.19.2-.31.2H10.54c-.11,0-.14,0-.25-.14a2.69,2.69,0,0,0-.3-.27.56.56,0,0,0-.17,0c-.56,0-1.08.11-1.55.17a1.91,1.91,0,0,0-1,.44A1.36,1.36,0,0,1,8.12,6ZM17.1,17a.78.78,0,0,1-.61.75.25.25,0,0,0-.22.25v.58a.27.27,0,0,1-.27.28h-.82a.27.27,0,0,1-.27-.28v-.55a.28.28,0,0,0-.28-.27H9.74a.27.27,0,0,0-.27.27v.55a.28.28,0,0,1-.27.28H8.37a.28.28,0,0,1-.27-.28V18a.28.28,0,0,0-.22-.27.72.72,0,0,1-.6-.75V12.92a1.8,1.8,0,0,0,1,.44,27.62,27.62,0,0,0,3.92.28,27.62,27.62,0,0,0,3.92-.28,2,2,0,0,0,1-.47Zm1.08-5.77a.27.27,0,0,1-.27.27h-.28V9.62a.27.27,0,1,0-.53,0v2.16a1.24,1.24,0,0,1-1.1,1,27.41,27.41,0,0,1-7.68,0,1.16,1.16,0,0,1-1-1V9.62A.28.28,0,0,0,7,9.34a.28.28,0,0,0-.28.28v1.9H6.48a.28.28,0,0,1-.28-.27V8.79a.28.28,0,0,1,.28-.27H7a.27.27,0,0,0,.27-.27v0A1.2,1.2,0,0,1,8.34,7.16c.44-.06.91-.11,1.43-.16l.13.11a.78.78,0,0,0,.64.33H13.8a1,1,0,0,0,.72-.38l0-.06c.53,0,1,.09,1.49.16A1.19,1.19,0,0,1,17.1,8.21v0a.26.26,0,0,0,.27.27h.55a.27.27,0,0,1,.27.27Zm-2.48,3.34L14.42,15a1,1,0,0,0-.69,1.08c0,.36.34.6.82.6H15.8a.67.67,0,0,0,.75-.71v-.53a1,1,0,0,0-.2-.77A.59.59,0,0,0,15.71,14.59ZM16,16c0,.11,0,.17-.2.17H14.55a.44.44,0,0,1-.28-.08c0-.3.09-.47.33-.55l1.3-.42.08,0a1.46,1.46,0,0,1,0,.38ZM9.86,15l-1.22-.42a.58.58,0,0,0-.64.08.91.91,0,0,0-.16.72V16a.61.61,0,0,0,.64.71H9.74c.49,0,.82-.24.83-.6A1,1,0,0,0,9.86,15Zm-.13,1.14H8.48l-.08,0h0a.71.71,0,0,1,0-.16v-.61a1.61,1.61,0,0,1,0-.28l.06,0,1.24.42a.5.5,0,0,1,.33.55A.4.4,0,0,1,9.74,16.16Z"/></g></g></svg>