<svg width="467pt" height="500pt" xmlns="http://www.w3.org/2000/svg" viewBox="0 0 24.43 28.85">
    <defs>
        <style>.cls-1{fill:#fff;}.cls-2{fill:#f05050;}</style>
    </defs>
    <title>m_razvlekat centri</title>
    <g id="Layer_2" data-name="Layer 2">
        <g id="Layer_1-2" data-name="Layer 1">
            <path id="_Path_" data-name="&lt;Path&gt;" class="cls-1"
                  d="M12.2,28.85A16.43,16.43,0,0,0,20,24.15c4.44-4.73,6.1-13,2.46-18.63a12.3,12.3,0,0,0-18.85-2c-5,5-4.4,13.61-.45,19.1A16.44,16.44,0,0,0,12.2,28.85Z"/>
            <path id="_Compound_Path_" data-name="&lt;Compound Path&gt;" class="cls-2"
                  d="M12.2,28.85A16.43,16.43,0,0,0,20,24.15c4.44-4.73,6.1-13,2.46-18.63a12.3,12.3,0,0,0-18.85-2c-5,5-4.4,13.61-.45,19.1A16.44,16.44,0,0,0,12.2,28.85Zm-9-12.93a9.86,9.86,0,0,1-.77-3.82h0A9.91,9.91,0,0,1,12.2,2.3h0a9.8,9.8,0,0,1,7.2,3.17h0a11.2,11.2,0,0,1,1.82,2.81,10.79,10.79,0,0,1,.38,1.11h0l-.06-.21.06.22h0a9.75,9.75,0,0,1,.22,1h0A9.9,9.9,0,0,1,22,12.11h0a9.92,9.92,0,0,1-9.81,9.81h0A9.91,9.91,0,0,1,3.16,15.93Z"/>
            <path id="_Path_2" data-name="&lt;Path&gt;" class="cls-1"
                  d="M3.16,15.93a9.86,9.86,0,0,1-.77-3.82h0A9.91,9.91,0,0,1,12.2,2.3h0a9.8,9.8,0,0,1,7.2,3.17h0a11.2,11.2,0,0,1,1.82,2.81,10.79,10.79,0,0,1,.38,1.11h0l-.06-.21.06.22h0a9.75,9.75,0,0,1,.22,1h0A9.9,9.9,0,0,1,22,12.11h0a9.92,9.92,0,0,1-9.81,9.81h0A9.91,9.91,0,0,1,3.16,15.93Z"/>
            <path class="cls-2"
                  d="M19.77,10.87a.45.45,0,0,0-.39-.2h-.64a6.41,6.41,0,0,0-.79-2.37.66.66,0,0,0,.35-.41l.15-.59a.52.52,0,0,0-.1-.44.55.55,0,0,0-.41-.2H16.64a6.76,6.76,0,0,0-3.11-1.58l0-.08a.45.45,0,0,0-.08-.43.55.55,0,0,0-.41-.2H11.34a.5.5,0,0,0-.41.2.48.48,0,0,0-.08.44l0,.07A6.61,6.61,0,0,0,7.8,6.62s0,0,0,0H6.47a.55.55,0,0,0-.41.2A.47.47,0,0,0,6,7.3l.13.59a.66.66,0,0,0,.35.41,6.51,6.51,0,0,0-.79,2.37H5a.5.5,0,0,0-.41.2.52.52,0,0,0-.1.44l.15.59a.69.69,0,0,0,.64.49h.35a6.74,6.74,0,0,0,.61,2h-.1a.53.53,0,0,0-.41.18.61.61,0,0,0-.08.44l.15.59a.67.67,0,0,0,.64.49h1a3.93,3.93,0,0,0,.38.36l.08.07a.32.32,0,0,0,.16,0,.28.28,0,0,0,.23-.1.29.29,0,0,0,0-.41L8.2,16l-.12-.12a.66.66,0,0,0,.16-.3L8.4,15a.61.61,0,0,0-.08-.44.53.53,0,0,0-.41-.18h-1a6.13,6.13,0,0,1-.66-2h.23a.67.67,0,0,0,.63-.49l.15-.59a.47.47,0,0,0-.08-.44.5.5,0,0,0-.41-.2H6.24a6,6,0,0,1,.82-2.29H7.9a.67.67,0,0,0,.63-.49l.15-.59a.47.47,0,0,0-.08-.44s0,0-.08-.08A6.08,6.08,0,0,1,11,5.63a.64.64,0,0,0,.61.44h1.15a.67.67,0,0,0,.63-.44,6.11,6.11,0,0,1,2.49,1.14l-.08.08a.47.47,0,0,0-.08.44l.15.59a.67.67,0,0,0,.63.49h.84a6,6,0,0,1,.82,2.29h-.51a.5.5,0,0,0-.41.2.58.58,0,0,0-.08.44l.15.59a.67.67,0,0,0,.64.49h.21a6.13,6.13,0,0,1-.66,2h-1a.48.48,0,0,0-.39.18A.55.55,0,0,0,16,15l.15.59a.69.69,0,0,0,.18.3,5.73,5.73,0,0,1-.79.63l-2.17-4.18a1.43,1.43,0,1,0-2.34,0L7.36,19.42a.29.29,0,0,0,.12.39l.13,0a.31.31,0,0,0,.26-.15l1.22-2.35a6.59,6.59,0,0,0,1.86.66l0,.2a.67.67,0,0,0,.63.49h1.15a.65.65,0,0,0,.63-.49l0-.2a6.45,6.45,0,0,0,1.14-.33.28.28,0,0,0,.16-.36.29.29,0,0,0-.38-.16,6.54,6.54,0,0,1-.81.25.58.58,0,0,0-.1-.23.53.53,0,0,0-.41-.18H11.34a.53.53,0,0,0-.41.18.58.58,0,0,0-.1.23,7,7,0,0,1-1.48-.56l2.12-4.08a1.33,1.33,0,0,0,1.45,0l3.6,6.93a.29.29,0,0,0,.26.16l.13,0a.29.29,0,0,0,.12-.39L15.8,17.05a6.15,6.15,0,0,0,1.14-.94h1a.67.67,0,0,0,.64-.49l.15-.59a.61.61,0,0,0-.08-.44.53.53,0,0,0-.41-.18h-.08a6.26,6.26,0,0,0,.59-2h.35a.69.69,0,0,0,.64-.49l.15-.59A.52.52,0,0,0,19.77,10.87ZM7.82,15l-.13.51s0,0-.08,0H6.47s-.08,0-.08,0L6.26,15ZM6.67,11.24l-.13.51s0,.07-.07.07H5.32a.11.11,0,0,1-.08-.07l-.13-.51ZM8,7.74s0,.07-.07.07H6.75a.11.11,0,0,1-.08-.07l-.13-.51H8.1Zm4.89-2.29s-.07.07-.08.07H11.62s-.07,0-.08-.07l-.12-.51H13Zm4.87,2.29a.11.11,0,0,1-.08.07H16.49s-.07,0-.07-.07l-.13-.51h1.56ZM13,17.55l-.12.53-.08,0H11.62l-.08,0-.12-.53ZM12.2,12.4a.86.86,0,0,1-.86-.87.85.85,0,0,1,.86-.86.86.86,0,0,1,.86.86A.87.87,0,0,1,12.2,12.4ZM18.14,15l-.13.51s0,0-.08,0H16.79s-.08,0-.08,0L16.57,15Zm1-3.23s0,.07-.08.07H17.92s-.07,0-.07-.07l-.13-.51h1.56Z"/>
        </g>
    </g>
</svg>