<svg width="467pt" height="500pt"  xmlns="http://www.w3.org/2000/svg" viewBox="0 0 24.43 28.85"><defs><style>.cls-1{fill:#fff;}.cls-2{fill:#f05050;}</style></defs><title>Asset 5</title><g id="Layer_2" data-name="Layer 2"><g id="Layer_1-2" data-name="Layer 1"><path id="_Path_" data-name="&lt;Path&gt;" class="cls-1" d="M12.2,28.85A16.43,16.43,0,0,0,20,24.15c4.44-4.73,6.1-13,2.46-18.63a12.3,12.3,0,0,0-18.85-2c-5,5-4.4,13.61-.45,19.1A16.44,16.44,0,0,0,12.2,28.85Z"/><path id="_Compound_Path_" data-name="&lt;Compound Path&gt;" class="cls-2" d="M12.2,28.85A16.43,16.43,0,0,0,20,24.15c4.44-4.73,6.1-13,2.46-18.63a12.3,12.3,0,0,0-18.85-2c-5,5-4.4,13.61-.45,19.1A16.44,16.44,0,0,0,12.2,28.85Zm-9-12.93a9.86,9.86,0,0,1-.77-3.82h0A9.91,9.91,0,0,1,12.2,2.3h0a9.8,9.8,0,0,1,7.2,3.17h0a11.2,11.2,0,0,1,1.82,2.81,10.79,10.79,0,0,1,.38,1.11h0l-.06-.21.06.22h0a9.75,9.75,0,0,1,.22,1h0A9.9,9.9,0,0,1,22,12.11h0a9.92,9.92,0,0,1-9.81,9.81h0A9.91,9.91,0,0,1,3.16,15.93Z"/><path id="_Path_2" data-name="&lt;Path&gt;" class="cls-1" d="M3.16,15.93a9.86,9.86,0,0,1-.77-3.82h0A9.91,9.91,0,0,1,12.2,2.3h0a9.8,9.8,0,0,1,7.2,3.17h0a11.2,11.2,0,0,1,1.82,2.81,10.79,10.79,0,0,1,.38,1.11h0l-.06-.21.06.22h0a9.75,9.75,0,0,1,.22,1h0A9.9,9.9,0,0,1,22,12.11h0a9.92,9.92,0,0,1-9.81,9.81h0A9.91,9.91,0,0,1,3.16,15.93Z"/><path class="cls-2" d="M10.3,11.29l2.26-.93a3.29,3.29,0,0,0,.92.54h0l3.39,1.59a1.32,1.32,0,0,0,1.42-.18A1.32,1.32,0,0,0,18.74,11a23.71,23.71,0,0,0-1-4.22l-.05-.15h0l0,0-.08-.19a.29.29,0,0,0-.06-.09A3.27,3.27,0,0,0,13.4,4.82h0L5.81,8h0a3.26,3.26,0,0,0-1.89,3.93.29.29,0,0,0,0,.1l.07.17,0,.06c0,.1.09.2.14.3a24.2,24.2,0,0,0,2.18,3.56,1.32,1.32,0,0,0,1.13.64h.13a1.32,1.32,0,0,0,1.13-.87L10,12.32v0A3.28,3.28,0,0,0,10.3,11.29Zm1.32-2.2a3.26,3.26,0,0,0,.49.82l-1.81.75a3.26,3.26,0,0,0-2-2.7,3.3,3.3,0,0,0-.55-.17L11.9,6.07a3.3,3.3,0,0,0-.27.51A3.25,3.25,0,0,0,11.62,9.08Zm6.55,2a.75.75,0,0,1-1,.86l-1.92-.9a3.24,3.24,0,0,0,2.53-2.18c.28,1.18.43,2.17.43,2.19ZM17.1,6.76l.12.31a2.7,2.7,0,1,1-.12-.31ZM4.58,9.94a2.68,2.68,0,0,1,5,0h0a2.68,2.68,0,0,1-4.85,2.27L4.56,12A2.66,2.66,0,0,1,4.58,9.94Zm3.62,5.7a.75.75,0,0,1-1.35.13l0,0s-.61-.81-1.24-1.85l.21.1a3.25,3.25,0,0,0,3.12-.34Z"/><path class="cls-2" d="M6.47,10.32a.29.29,0,0,0,.27.18l.11,0A.29.29,0,0,0,7,10.1l-.32-.77a.29.29,0,0,0-.54.22Z"/><path class="cls-2" d="M7.42,12.61a.29.29,0,0,0,.27.18l.11,0A.29.29,0,0,0,8,12.39l-.32-.77a.29.29,0,1,0-.54.22Z"/><path class="cls-2" d="M7.81,11l.11,0,.77-.32a.29.29,0,0,0-.22-.54l-.77.32a.29.29,0,0,0,.11.56Z"/><path class="cls-2" d="M5.52,11.9l.11,0,.77-.32A.29.29,0,0,0,6.18,11l-.77.32a.29.29,0,0,0,.11.56Z"/><path class="cls-2" d="M14.06,7.19a.29.29,0,0,0,.27.18l.11,0A.29.29,0,0,0,14.6,7l-.32-.77a.29.29,0,1,0-.54.22Z"/><path class="cls-2" d="M15,9.48a.29.29,0,0,0,.27.18l.11,0a.29.29,0,0,0,.16-.38l-.32-.77a.29.29,0,1,0-.54.22Z"/><path class="cls-2" d="M15.4,7.81l.11,0,.77-.32a.29.29,0,0,0-.22-.54l-.77.32a.29.29,0,0,0,.11.56Z"/><path class="cls-2" d="M13.77,7.88,13,8.2a.29.29,0,0,0,.11.56l.11,0L14,8.42a.29.29,0,1,0-.22-.54Z"/><path class="cls-2" d="M16.59,15.7l.11,0a.29.29,0,0,0,.27-.18l.32-.77a.29.29,0,0,0-.54-.23l-.32.77A.29.29,0,0,0,16.59,15.7Z"/><path class="cls-2" d="M17.83,14.11a.29.29,0,0,0,.16.38l.77.32.11,0a.29.29,0,0,0,.11-.56l-.77-.32A.29.29,0,0,0,17.83,14.11Z"/><path class="cls-2" d="M16.58,13.88a.29.29,0,0,0,.11-.56L15.93,13a.29.29,0,1,0-.23.54l.77.32Z"/><path class="cls-2" d="M20.47,14.83a3.26,3.26,0,0,0-.41-2.73.29.29,0,1,0-.49.32,2.68,2.68,0,0,1,.25,2.48l-.13.28a2.68,2.68,0,0,1-4.83-2.31.29.29,0,1,0-.54-.23,3.25,3.25,0,0,0-.23.93l-1.81-.76a3.27,3.27,0,0,0,.5-.82.29.29,0,1,0-.54-.23,2.67,2.67,0,0,1-1.7,1.53.29.29,0,0,0,.08.57h.09a3.27,3.27,0,0,0,1.12-.6l2.26.94a3.28,3.28,0,0,0,.27,1v0l1.26,3.53a1.32,1.32,0,0,0,1.13.88h.13A1.32,1.32,0,0,0,18,19a24.2,24.2,0,0,0,2.2-3.55c.05-.1.1-.2.14-.3l0-.08.06-.15A.29.29,0,0,0,20.47,14.83Zm-2.93,3.84,0,0a.75.75,0,0,1-1.35-.13l-.72-2a3.25,3.25,0,0,0,3.12.35l.21-.1C18.15,17.86,17.55,18.66,17.54,18.67Z"/></g></g></svg>