<svg  width="467pt" height="500pt" xmlns="http://www.w3.org/2000/svg" viewBox="0 0 24.43 28.85"><defs><style>.cls-1{fill:#fff;}.cls-2{fill:#f05050;}</style></defs><title>Asset 10</title><g id="Layer_2" data-name="Layer 2"><g id="Layer_1-2" data-name="Layer 1"><path id="_Path_" data-name="&lt;Path&gt;" class="cls-1" d="M12.2,28.85A16.43,16.43,0,0,0,20,24.15c4.44-4.73,6.1-13,2.46-18.63a12.3,12.3,0,0,0-18.85-2c-5,5-4.4,13.61-.45,19.1A16.44,16.44,0,0,0,12.2,28.85Z"/><path id="_Compound_Path_" data-name="&lt;Compound Path&gt;" class="cls-2" d="M12.2,28.85A16.43,16.43,0,0,0,20,24.15c4.44-4.73,6.1-13,2.46-18.63a12.3,12.3,0,0,0-18.85-2c-5,5-4.4,13.61-.45,19.1A16.44,16.44,0,0,0,12.2,28.85Zm-9-12.93a9.86,9.86,0,0,1-.77-3.82h0A9.91,9.91,0,0,1,12.2,2.3h0a9.8,9.8,0,0,1,7.2,3.17h0a11.2,11.2,0,0,1,1.82,2.81,10.79,10.79,0,0,1,.38,1.11h0l-.06-.21.06.22h0a9.75,9.75,0,0,1,.22,1h0A9.9,9.9,0,0,1,22,12.11h0a9.92,9.92,0,0,1-9.81,9.81h0A9.91,9.91,0,0,1,3.16,15.93Z"/><path id="_Path_2" data-name="&lt;Path&gt;" class="cls-1" d="M3.16,15.93a9.86,9.86,0,0,1-.77-3.82h0A9.91,9.91,0,0,1,12.2,2.3h0a9.8,9.8,0,0,1,7.2,3.17h0a11.2,11.2,0,0,1,1.82,2.81,10.79,10.79,0,0,1,.38,1.11h0l-.06-.21.06.22h0a9.75,9.75,0,0,1,.22,1h0A9.9,9.9,0,0,1,22,12.11h0a9.92,9.92,0,0,1-9.81,9.81h0A9.91,9.91,0,0,1,3.16,15.93Z"/><g id="_Group_" data-name="&lt;Group&gt;"><path id="_Compound_Path_2" data-name="&lt;Compound Path&gt;" class="cls-2" d="M12.13,16.93a5.25,5.25,0,0,1-5.25-5.25V10.32a.79.79,0,0,1,.79-.79h8.92a.79.79,0,0,1,.79.79v1.36A5.25,5.25,0,0,1,12.13,16.93ZM7.67,10a.27.27,0,0,0-.27.27v1.36a4.73,4.73,0,0,0,9.47,0V10.32a.27.27,0,0,0-.27-.27Z"/><path id="_Path_3" data-name="&lt;Path&gt;" class="cls-2" d="M17.39,14.35H16.6a.26.26,0,1,1,0-.52h.79a.85.85,0,0,0,.85-.85V11.59H17.12a.26.26,0,1,1,0-.52h1.63V13A1.36,1.36,0,0,1,17.39,14.35Z"/><path id="_Path_4" data-name="&lt;Path&gt;" class="cls-2" d="M12.13,18.65c-3.06,0-5-.39-6.22-1.25a.64.64,0,0,1,.37-1.16H8a.26.26,0,0,1,0,.52H6.28a.12.12,0,0,0-.12.09.11.11,0,0,0,0,.13c1.15.8,3,1.16,5.92,1.16a.26.26,0,1,1,0,.52Z"/><path id="_Path_5" data-name="&lt;Path&gt;" class="cls-2" d="M12.13,18.65a.26.26,0,0,1,0-.52c2.95,0,4.78-.36,5.92-1.16a.11.11,0,0,0,0-.13.12.12,0,0,0-.12-.09H16.26a.26.26,0,1,1,0-.52H18a.64.64,0,0,1,.37,1.16C17.11,18.26,15.19,18.65,12.13,18.65Z"/><path id="_Path_6" data-name="&lt;Path&gt;" class="cls-2" d="M11.56,9a.26.26,0,0,1-.19-.08c-.41-.43-.12-1,.08-1.36.12-.23.26-.49.21-.61-.3-.74-.56-.9-.56-.9A.25.25,0,0,1,11,5.72a.26.26,0,0,1,.34-.13c.07,0,.44.23.83,1.17a1.27,1.27,0,0,1-.23,1c-.22.43-.3.63-.17.76a.26.26,0,0,1-.19.44Z"/><path id="_Path_7" data-name="&lt;Path&gt;" class="cls-2" d="M12.59,9a.26.26,0,0,1-.2-.1.81.81,0,0,1,0-1.08.72.72,0,0,0,.14-.72A.26.26,0,1,1,13,7a1.23,1.23,0,0,1-.19,1.16c-.14.22-.18.28,0,.48a.26.26,0,0,1-.2.42Z"/></g></g></g></svg>