<svg width="467pt" height="500pt" xmlns="http://www.w3.org/2000/svg" viewBox="0 0 24.43 28.85">
    <defs>
        <style>.cls-1{fill:#fff;}.cls-2{fill:#f05050;}</style>
    </defs>
    <title>m_festival</title>
    <g id="Layer_2" data-name="Layer 2">
        <g id="Layer_1-2" data-name="Layer 1">
            <path id="_Path_" data-name="&lt;Path&gt;" class="cls-1"
                  d="M12.2,28.85A16.43,16.43,0,0,0,20,24.15c4.44-4.73,6.1-13,2.46-18.63a12.3,12.3,0,0,0-18.85-2c-5,5-4.4,13.61-.45,19.1A16.44,16.44,0,0,0,12.2,28.85Z"/>
            <path id="_Compound_Path_" data-name="&lt;Compound Path&gt;" class="cls-2"
                  d="M12.2,28.85A16.43,16.43,0,0,0,20,24.15c4.44-4.73,6.1-13,2.46-18.63a12.3,12.3,0,0,0-18.85-2c-5,5-4.4,13.61-.45,19.1A16.44,16.44,0,0,0,12.2,28.85Zm-9-12.93a9.86,9.86,0,0,1-.77-3.82h0A9.91,9.91,0,0,1,12.2,2.3h0a9.8,9.8,0,0,1,7.2,3.17h0a11.2,11.2,0,0,1,1.82,2.81,10.79,10.79,0,0,1,.38,1.11h0l-.06-.21.06.22h0a9.75,9.75,0,0,1,.22,1h0A9.9,9.9,0,0,1,22,12.11h0a9.92,9.92,0,0,1-9.81,9.81h0A9.91,9.91,0,0,1,3.16,15.93Z"/>
            <path id="_Path_2" data-name="&lt;Path&gt;" class="cls-1"
                  d="M3.16,15.93a9.86,9.86,0,0,1-.77-3.82h0A9.91,9.91,0,0,1,12.2,2.3h0a9.8,9.8,0,0,1,7.2,3.17h0a11.2,11.2,0,0,1,1.82,2.81,10.79,10.79,0,0,1,.38,1.11h0l-.06-.21.06.22h0a9.75,9.75,0,0,1,.22,1h0A9.9,9.9,0,0,1,22,12.11h0a9.92,9.92,0,0,1-9.81,9.81h0A9.91,9.91,0,0,1,3.16,15.93Z"/>
            <path class="cls-2"
                  d="M5.65,7.12,7.09,11a.33.33,0,0,0,.59,0L9,8.93l1.11,2.51a.33.33,0,0,0,.44.17.34.34,0,0,0,.14-.12l1.36-2,1.37,2.36a.33.33,0,0,0,.56,0l1.63-2.34L17,12a.33.33,0,0,0,.29.17h0a.33.33,0,0,0,.28-.2L19,8.59l.15,0a.25.25,0,1,0-.1-.49h0a18.31,18.31,0,0,1-7.11.36A19.56,19.56,0,0,1,7,7l-.33-.14.36,0A23.09,23.09,0,0,0,18.22,5.41.25.25,0,1,0,18,5,20.77,20.77,0,0,1,9.53,6.53a26.61,26.61,0,0,1-4.21-.32A.26.26,0,0,0,5,6.39a.27.27,0,0,0,.13.32l.49.24V7A.23.23,0,0,0,5.65,7.12ZM16,9.07a18.91,18.91,0,0,0,2.3-.33l.11,0-1.16,2.77L15.94,9.07ZM12.46,9a19.45,19.45,0,0,0,2.11.12h.67L13.7,11.32,12.34,9ZM9.39,8.4a19.68,19.68,0,0,0,2.3.5h.09l-1.35,2L9.27,8.37Zm-3-1.13a20.54,20.54,0,0,0,2.41.94l.1,0-.08.07-.07.08L7.44,10.53,6.22,7.22Z"/>
            <path class="cls-2"
                  d="M16.55,19.07l1.8-3.72.1,0,.54-.2L19.2,15a.26.26,0,0,0-.1-.51c-3.71.17-9-.62-12.34-2.79a.25.25,0,1,0-.27.42A22.34,22.34,0,0,0,17.34,15h.35l-.33.1a18.83,18.83,0,0,1-5,.85h-.54a17.63,17.63,0,0,1-6.46-1.23.25.25,0,0,0-.32.14A.25.25,0,0,0,5,15H5v.1l1,3.71a.34.34,0,0,0,.27.24.33.33,0,0,0,.33-.14l1.69-2.45,1.34,2.6a.33.33,0,0,0,.19.16.33.33,0,0,0,.25,0,.34.34,0,0,0,.12-.1l1.63-2.26L13,19.1a.33.33,0,0,0,.29.19h0a.33.33,0,0,0,.29-.17l1.39-2.45,1,2.38a.33.33,0,0,0,.61,0ZM6.44,18.33l-.8-2.92.1,0a18.89,18.89,0,0,0,2.15.63l.08,0Zm3.55.25-1.2-2.33.11,0a18,18,0,0,0,2.46.23h.11Zm3.29,0-1-2.08h.09a19.5,19.5,0,0,0,2.11-.18l.12,0Zm3-.08-1-2.32h.07a20.3,20.3,0,0,0,2.21-.56l.13,0Z"/>
        </g>
    </g>
</svg>