<svg width="467pt" height="500pt" xmlns="http://www.w3.org/2000/svg" viewBox="0 0 24.43 28.85">
    <defs>
        <style>.cls-1{fill:#fff;}.cls-2{fill:#f05050;}</style>
    </defs>
    <title>m_muzei</title>
    <g id="Layer_2" data-name="Layer 2">
        <g id="Layer_1-2" data-name="Layer 1">
            <path id="_Path_" data-name="&lt;Path&gt;" class="cls-1"
                  d="M12.2,28.85A16.43,16.43,0,0,0,20,24.15c4.44-4.73,6.1-13,2.46-18.63a12.3,12.3,0,0,0-18.85-2c-5,5-4.4,13.61-.45,19.1A16.44,16.44,0,0,0,12.2,28.85Z"/>
            <path id="_Compound_Path_" data-name="&lt;Compound Path&gt;" class="cls-2"
                  d="M12.2,28.85A16.43,16.43,0,0,0,20,24.15c4.44-4.73,6.1-13,2.46-18.63a12.3,12.3,0,0,0-18.85-2c-5,5-4.4,13.61-.45,19.1A16.44,16.44,0,0,0,12.2,28.85Zm-9-12.93a9.86,9.86,0,0,1-.77-3.82h0A9.91,9.91,0,0,1,12.2,2.3h0a9.8,9.8,0,0,1,7.2,3.17h0a11.2,11.2,0,0,1,1.82,2.81,10.79,10.79,0,0,1,.38,1.11h0l-.06-.21.06.22h0a9.75,9.75,0,0,1,.22,1h0A9.9,9.9,0,0,1,22,12.11h0a9.92,9.92,0,0,1-9.81,9.81h0A9.91,9.91,0,0,1,3.16,15.93Z"/>
            <path id="_Path_2" data-name="&lt;Path&gt;" class="cls-1"
                  d="M3.16,15.93a9.86,9.86,0,0,1-.77-3.82h0A9.91,9.91,0,0,1,12.2,2.3h0a9.8,9.8,0,0,1,7.2,3.17h0a11.2,11.2,0,0,1,1.82,2.81,10.79,10.79,0,0,1,.38,1.11h0l-.06-.21.06.22h0a9.75,9.75,0,0,1,.22,1h0A9.9,9.9,0,0,1,22,12.11h0a9.92,9.92,0,0,1-9.81,9.81h0A9.91,9.91,0,0,1,3.16,15.93Z"/>
            <path class="cls-2"
                  d="M19.18,16.3l-.36-.87a.72.72,0,0,0-.65-.43h-.31V9.34h.61A.57.57,0,0,0,19,8.9a.57.57,0,0,0-.31-.64l-5.92-2.8a1.39,1.39,0,0,0-1.21,0l-6,2.8a.58.58,0,0,0,.24,1.1h.6V15H6.21a.72.72,0,0,0-.65.43l-.36.85a.74.74,0,0,0,.07.67.7.7,0,0,0,.58.31H18.53a.7.7,0,0,0,.58-.31.66.66,0,0,0,.07-.67ZM5.88,8.77,11.82,6a.81.81,0,0,1,.73,0l5.94,2.8h-.91a.29.29,0,0,0-.28.28s0,0,0,.06,0,0,0,.06V15H16.15V11a1.14,1.14,0,0,0-2.28,0v4H13.3V11A1.14,1.14,0,0,0,11,11v4h-.57V11a1.14,1.14,0,0,0-2.28,0v4H7V9.34H12.6a.28.28,0,1,0,0-.57ZM15.58,11v4H14.44V11a.57.57,0,1,1,1.14,0Zm-2.85,0v4H11.59V11a.57.57,0,1,1,1.14,0ZM9.89,11v4H8.75V11a.57.57,0,1,1,1.14,0Zm8.76,5.61s-.06.07-.11.07H5.86a.12.12,0,0,1-.11-.07.14.14,0,0,1,0-.14l.36-.84a.16.16,0,0,1,.14-.09h12a.16.16,0,0,1,.14.09l.36.85a.22.22,0,0,1,0,.13Zm0,0"/>
        </g>
    </g>
</svg>