<svg width="467pt" height="500pt" xmlns="http://www.w3.org/2000/svg" viewBox="0 0 24.43 28.85">
    <defs>
        <style>.cls-1{fill:#fff;}.cls-2{fill:#f05050;}</style>
    </defs>
    <title>m_pravoslavnie svyatini</title>
    <g id="Layer_2" data-name="Layer 2">
        <g id="Layer_1-2" data-name="Layer 1">
            <path id="_Path_" data-name="&lt;Path&gt;" class="cls-1"
                  d="M12.2,28.85A16.43,16.43,0,0,0,20,24.15c4.44-4.73,6.1-13,2.46-18.63a12.3,12.3,0,0,0-18.85-2c-5,5-4.4,13.61-.45,19.1A16.44,16.44,0,0,0,12.2,28.85Z"/>
            <path id="_Compound_Path_" data-name="&lt;Compound Path&gt;" class="cls-2"
                  d="M12.2,28.85A16.43,16.43,0,0,0,20,24.15c4.44-4.73,6.1-13,2.46-18.63a12.3,12.3,0,0,0-18.85-2c-5,5-4.4,13.61-.45,19.1A16.44,16.44,0,0,0,12.2,28.85Zm-9-12.93a9.86,9.86,0,0,1-.77-3.82h0A9.91,9.91,0,0,1,12.2,2.3h0a9.8,9.8,0,0,1,7.2,3.17h0a11.2,11.2,0,0,1,1.82,2.81,10.79,10.79,0,0,1,.38,1.11h0l-.06-.21.06.22h0a9.75,9.75,0,0,1,.22,1h0A9.9,9.9,0,0,1,22,12.11h0a9.92,9.92,0,0,1-9.81,9.81h0A9.91,9.91,0,0,1,3.16,15.93Z"/>
            <path id="_Path_2" data-name="&lt;Path&gt;" class="cls-1"
                  d="M3.16,15.93a9.86,9.86,0,0,1-.77-3.82h0A9.91,9.91,0,0,1,12.2,2.3h0a9.8,9.8,0,0,1,7.2,3.17h0a11.2,11.2,0,0,1,1.82,2.81,10.79,10.79,0,0,1,.38,1.11h0l-.06-.21.06.22h0a9.75,9.75,0,0,1,.22,1h0A9.9,9.9,0,0,1,22,12.11h0a9.92,9.92,0,0,1-9.81,9.81h0A9.91,9.91,0,0,1,3.16,15.93Z"/>
            <path class="cls-2"
                  d="M17.09,12.49l-2.41-2a2,2,0,0,0-1.14-.42h-2.7a2,2,0,0,0-1.13.42l-2.41,2a1.58,1.58,0,0,0-.52,1.09v4.06a.8.8,0,0,0,.81.8h3a.27.27,0,0,0,.28-.27v-3a1.34,1.34,0,1,1,2.69,0v3a.27.27,0,0,0,.28.27h3a.81.81,0,0,0,.81-.8V13.58A1.64,1.64,0,0,0,17.09,12.49Zm0,5.16a.27.27,0,0,1-.27.27h-2.7v-2.7a1.89,1.89,0,1,0-3.78,0v2.7H7.6a.27.27,0,0,1-.27-.27V13.58a1,1,0,0,1,.31-.67l2.41-2a1.58,1.58,0,0,1,.78-.28h2.7a1.53,1.53,0,0,1,.78.28l2.42,2a1.08,1.08,0,0,1,.31.67ZM10.31,9.8h3.78a.29.29,0,0,0,.19-.08,1.43,1.43,0,0,0,.34-1c0-1.16-1.48-2-2.16-2.33V5.2H13a.26.26,0,0,0,.27-.27A.27.27,0,0,0,13,4.67h-.55V4.12a.27.27,0,0,0-.27-.27.26.26,0,0,0-.27.27v.55h-.55a.26.26,0,0,0-.27.27.25.25,0,0,0,.27.27h.55V6.39c-.69.34-2.17,1.17-2.17,2.33a1.34,1.34,0,0,0,.36,1A.26.26,0,0,0,10.31,9.8ZM12.2,6.86c1.25.64,1.89,1.27,1.89,1.86a1,1,0,0,1-.14.55h-3.5a1,1,0,0,1-.14-.55C10.31,8.13,10.95,7.5,12.2,6.86Z"/>
        </g>
    </g>
</svg>