<svg width="467pt" height="500pt" xmlns="http://www.w3.org/2000/svg" viewBox="0 0 24.43 28.85">
    <defs>
        <style>.cls-1{fill:#fff;}.cls-2{fill:#f05050;}</style>
    </defs>
    <title>m_sanatorii</title>
    <g id="Layer_2" data-name="Layer 2">
        <g id="Layer_1-2" data-name="Layer 1">
            <path id="_Path_" data-name="&lt;Path&gt;" class="cls-1"
                  d="M12.2,28.85A16.43,16.43,0,0,0,20,24.15c4.44-4.73,6.1-13,2.46-18.63a12.3,12.3,0,0,0-18.85-2c-5,5-4.4,13.61-.45,19.1A16.44,16.44,0,0,0,12.2,28.85Z"/>
            <path id="_Compound_Path_" data-name="&lt;Compound Path&gt;" class="cls-2"
                  d="M12.2,28.85A16.43,16.43,0,0,0,20,24.15c4.44-4.73,6.1-13,2.46-18.63a12.3,12.3,0,0,0-18.85-2c-5,5-4.4,13.61-.45,19.1A16.44,16.44,0,0,0,12.2,28.85Zm-9-12.93a9.86,9.86,0,0,1-.77-3.82h0A9.91,9.91,0,0,1,12.2,2.3h0a9.8,9.8,0,0,1,7.2,3.17h0a11.2,11.2,0,0,1,1.82,2.81,10.79,10.79,0,0,1,.38,1.11h0l-.06-.21.06.22h0a9.75,9.75,0,0,1,.22,1h0A9.9,9.9,0,0,1,22,12.11h0a9.92,9.92,0,0,1-9.81,9.81h0A9.91,9.91,0,0,1,3.16,15.93Z"/>
            <path id="_Path_2" data-name="&lt;Path&gt;" class="cls-1"
                  d="M3.16,15.93a9.86,9.86,0,0,1-.77-3.82h0A9.91,9.91,0,0,1,12.2,2.3h0a9.8,9.8,0,0,1,7.2,3.17h0a11.2,11.2,0,0,1,1.82,2.81,10.79,10.79,0,0,1,.38,1.11h0l-.06-.21.06.22h0a9.75,9.75,0,0,1,.22,1h0A9.9,9.9,0,0,1,22,12.11h0a9.92,9.92,0,0,1-9.81,9.81h0A9.91,9.91,0,0,1,3.16,15.93Z"/>
            <path class="cls-2"
                  d="M15.84,6.1a.84.84,0,1,0-1.08.8V9.14a2.56,2.56,0,1,1-5.12,0V6.9a.84.84,0,1,0-.48,0V9.14a3,3,0,0,0,2.79,3v2.22a2.56,2.56,0,0,1-1.23,2.18,1.46,1.46,0,1,0,.14.62s0-.09,0-.13a3,3,0,0,0,1.59-2.67V12.17a3,3,0,0,0,2.81-3V6.9A.84.84,0,0,0,15.84,6.1ZM9,6.1a.35.35,0,1,1,.35.35A.36.36,0,0,1,9,6.1Zm.35,12.07a1,1,0,1,1,.89-1.39l-.14,0a.84.84,0,1,0,.07.48l.15,0A1,1,0,0,1,9.39,18.17Zm0-.74h.27a.35.35,0,0,1-.27.13.35.35,0,1,1,.25-.61H9.39a.24.24,0,0,0,0,.48ZM15,6.46a.35.35,0,1,1,.35-.35A.35.35,0,0,1,15,6.46Z"/>
            <path class="cls-2"
                  d="M10.9,8l-.18.44a3,3,0,0,1,1.22,1.8.25.25,0,0,0,.23.18.23.23,0,0,0,.23-.18,3,3,0,0,1,1.26-1.83l-.18-.44a3.46,3.46,0,0,0-1.31,1.49A3.47,3.47,0,0,0,10.9,8Z"/>
            <path class="cls-2"
                  d="M8.15,15.65a7,7,0,0,1-2.1-4.8,3,3,0,0,1,2.5-2.94l0-.47a3.45,3.45,0,0,0-2.95,3.4,7.37,7.37,0,0,0,2.15,5Z"/>
            <path class="cls-2"
                  d="M15.86,7.45l0,.47a3,3,0,0,1,2.5,3c0,4.64-5.42,7.24-6.18,7.59-.14-.06-.45-.21-.85-.43l-.37.32a12,12,0,0,0,1.14.57l.09,0,.09,0c.27-.11,6.56-2.79,6.56-8.06A3.48,3.48,0,0,0,15.86,7.45Z"/>
        </g>
    </g>
</svg>