<svg width="467pt" height="500pt" xmlns="http://www.w3.org/2000/svg" viewBox="0 0 24.43 28.85">
    <defs>
        <style>.cls-1{fill:#fff;}.cls-2{fill:#f05050;}</style>
    </defs>
    <title>m_pamyatniki</title>
    <g id="Layer_2" data-name="Layer 2">
        <g id="Layer_1-2" data-name="Layer 1">
            <path id="_Path_" data-name="&lt;Path&gt;" class="cls-1"
                  d="M12.2,28.85A16.43,16.43,0,0,0,20,24.15c4.44-4.73,6.1-13,2.46-18.63a12.3,12.3,0,0,0-18.85-2c-5,5-4.4,13.61-.45,19.1A16.44,16.44,0,0,0,12.2,28.85Z"/>
            <path id="_Compound_Path_" data-name="&lt;Compound Path&gt;" class="cls-2"
                  d="M12.2,28.85A16.43,16.43,0,0,0,20,24.15c4.44-4.73,6.1-13,2.46-18.63a12.3,12.3,0,0,0-18.85-2c-5,5-4.4,13.61-.45,19.1A16.44,16.44,0,0,0,12.2,28.85Zm-9-12.93a9.86,9.86,0,0,1-.77-3.82h0A9.91,9.91,0,0,1,12.2,2.3h0a9.8,9.8,0,0,1,7.2,3.17h0a11.2,11.2,0,0,1,1.82,2.81,10.79,10.79,0,0,1,.38,1.11h0l-.06-.21.06.22h0a9.75,9.75,0,0,1,.22,1h0A9.9,9.9,0,0,1,22,12.11h0a9.92,9.92,0,0,1-9.81,9.81h0A9.91,9.91,0,0,1,3.16,15.93Z"/>
            <path id="_Path_2" data-name="&lt;Path&gt;" class="cls-1"
                  d="M3.16,15.93a9.86,9.86,0,0,1-.77-3.82h0A9.91,9.91,0,0,1,12.2,2.3h0a9.8,9.8,0,0,1,7.2,3.17h0a11.2,11.2,0,0,1,1.82,2.81,10.79,10.79,0,0,1,.38,1.11h0l-.06-.21.06.22h0a9.75,9.75,0,0,1,.22,1h0A9.9,9.9,0,0,1,22,12.11h0a9.92,9.92,0,0,1-9.81,9.81h0A9.91,9.91,0,0,1,3.16,15.93Z"/>
            <path class="cls-2"
                  d="M18.57,14.19h-.15a.76.76,0,0,0,0-.63l-.52-1a.77.77,0,0,0-1.37,0l-.52,1a.76.76,0,0,0,0,.63h-.49v0l-.39-1.32a.4.4,0,0,0-.38-.28h-.74l-1.35-7.8a.4.4,0,0,0-.78,0l-1.35,7.8H9.71a.4.4,0,0,0-.38.28l-.39,1.32v0H8.44a.76.76,0,0,0,0-.63l-.52-1a.77.77,0,0,0-1.37,0l-.52,1a.76.76,0,0,0,0,.63H5.83a.4.4,0,0,0-.4.4v2.81a.4.4,0,0,0,.4.4H18.57a.4.4,0,0,0,.4-.4V14.58A.4.4,0,0,0,18.57,14.19ZM16.42,14a.28.28,0,0,1,0-.28l.52-1a.29.29,0,0,1,.51,0l.52,1a.29.29,0,0,1-.25.42h-1A.28.28,0,0,1,16.42,14ZM12.2,5.32l1.26,7.24H10.94ZM9.77,13h4.85L15,14.19H9.43ZM6.44,14a.28.28,0,0,1,0-.28l.52-1a.29.29,0,0,1,.51,0l.52,1a.29.29,0,0,1-.25.42h-1A.28.28,0,0,1,6.44,14Zm12,3.26H5.91V14.67H18.48Z"/>
        </g>
    </g>
</svg>