<svg width="467pt" height="500pt"  xmlns="http://www.w3.org/2000/svg" viewBox="0 0 24.43 28.85"><defs><style>.cls-1{fill:#fff;}.cls-2{fill:#f05050;}</style></defs><title>Asset 4</title><g id="Layer_2" data-name="Layer 2"><g id="Layer_1-2" data-name="Layer 1"><path id="_Path_" data-name="&lt;Path&gt;" class="cls-1" d="M12.2,28.85A16.43,16.43,0,0,0,20,24.15c4.44-4.73,6.1-13,2.46-18.63a12.3,12.3,0,0,0-18.85-2c-5,5-4.4,13.61-.45,19.1A16.44,16.44,0,0,0,12.2,28.85Z"/><path id="_Compound_Path_" data-name="&lt;Compound Path&gt;" class="cls-2" d="M12.2,28.85A16.43,16.43,0,0,0,20,24.15c4.44-4.73,6.1-13,2.46-18.63a12.3,12.3,0,0,0-18.85-2c-5,5-4.4,13.61-.45,19.1A16.44,16.44,0,0,0,12.2,28.85Zm-9-12.93a9.86,9.86,0,0,1-.77-3.82h0A9.91,9.91,0,0,1,12.2,2.3h0a9.8,9.8,0,0,1,7.2,3.17h0a11.2,11.2,0,0,1,1.82,2.81,10.79,10.79,0,0,1,.38,1.11h0l-.06-.21.06.22h0a9.75,9.75,0,0,1,.22,1h0A9.9,9.9,0,0,1,22,12.11h0a9.92,9.92,0,0,1-9.81,9.81h0A9.91,9.91,0,0,1,3.16,15.93Z"/><path id="_Path_2" data-name="&lt;Path&gt;" class="cls-1" d="M3.16,15.93a9.86,9.86,0,0,1-.77-3.82h0A9.91,9.91,0,0,1,12.2,2.3h0a9.8,9.8,0,0,1,7.2,3.17h0a11.2,11.2,0,0,1,1.82,2.81,10.79,10.79,0,0,1,.38,1.11h0l-.06-.21.06.22h0a9.75,9.75,0,0,1,.22,1h0A9.9,9.9,0,0,1,22,12.11h0a9.92,9.92,0,0,1-9.81,9.81h0A9.91,9.91,0,0,1,3.16,15.93Z"/><path class="cls-2" d="M13.51,14.57H10.88a.43.43,0,0,0-.42.42v2.26a.43.43,0,0,0,.42.42h2.63a.43.43,0,0,0,.42-.42V15A.43.43,0,0,0,13.51,14.57Zm-.06,2.62H10.94V15.05h2.51Z"/><path class="cls-2" d="M19.36,18.25H15.25V14a.42.42,0,0,0,.37-.42V12.51a.43.43,0,0,0-.42-.42h-.61V7.58a2.1,2.1,0,0,0-2.1-2.1H11.9a2.1,2.1,0,0,0-2.1,2.1v4.5H9.2a.43.43,0,0,0-.42.42v1.06a.42.42,0,0,0,.37.42v4.27H5a.24.24,0,1,0,0,.48H19.36a.24.24,0,0,0,0-.48ZM10.29,7.58A1.62,1.62,0,0,1,11.9,6h.59a1.62,1.62,0,0,1,1.62,1.62v4.5h-.55V11h-.37V9.53h-2V11h-.37v1h-.55ZM11.69,11V10h1v1Zm1.39.5V12H11.32v-.45Zm-3.82,1h5.88v.94H9.26Zm.37,5.68V14h5.13v4.26Z"/></g></g></svg>