<svg width="467pt" height="500pt"  xmlns="http://www.w3.org/2000/svg" viewBox="0 0 24.43 28.85"><defs><style>.cls-1{fill:#fff;}.cls-2{fill:#f05050;}</style></defs><title>Asset 9</title><g id="Layer_2" data-name="Layer 2"><g id="Layer_1-2" data-name="Layer 1"><path id="_Path_" data-name="&lt;Path&gt;" class="cls-1" d="M12.2,28.85A16.43,16.43,0,0,0,20,24.15c4.44-4.73,6.1-13,2.46-18.63a12.3,12.3,0,0,0-18.85-2c-5,5-4.4,13.61-.45,19.1A16.44,16.44,0,0,0,12.2,28.85Z"/><path id="_Compound_Path_" data-name="&lt;Compound Path&gt;" class="cls-2" d="M12.2,28.85A16.43,16.43,0,0,0,20,24.15c4.44-4.73,6.1-13,2.46-18.63a12.3,12.3,0,0,0-18.85-2c-5,5-4.4,13.61-.45,19.1A16.44,16.44,0,0,0,12.2,28.85Zm-9-12.93a9.86,9.86,0,0,1-.77-3.82h0A9.91,9.91,0,0,1,12.2,2.3h0a9.8,9.8,0,0,1,7.2,3.17h0a11.2,11.2,0,0,1,1.82,2.81,10.79,10.79,0,0,1,.38,1.11h0l-.06-.21.06.22h0a9.75,9.75,0,0,1,.22,1h0A9.9,9.9,0,0,1,22,12.11h0a9.92,9.92,0,0,1-9.81,9.81h0A9.91,9.91,0,0,1,3.16,15.93Z"/><path id="_Path_2" data-name="&lt;Path&gt;" class="cls-1" d="M3.16,15.93a9.86,9.86,0,0,1-.77-3.82h0A9.91,9.91,0,0,1,12.2,2.3h0a9.8,9.8,0,0,1,7.2,3.17h0a11.2,11.2,0,0,1,1.82,2.81,10.79,10.79,0,0,1,.38,1.11h0l-.06-.21.06.22h0a9.75,9.75,0,0,1,.22,1h0A9.9,9.9,0,0,1,22,12.11h0a9.92,9.92,0,0,1-9.81,9.81h0A9.91,9.91,0,0,1,3.16,15.93Z"/><path class="cls-2" d="M16.88,13.39l-2.31-1.92a2,2,0,0,0-1.09-.4H10.89a2,2,0,0,0-1.08.4L7.51,13.39a1.51,1.51,0,0,0-.49,1v3.89a.77.77,0,0,0,.78.76h2.85a.26.26,0,0,0,.27-.25V16a1.29,1.29,0,1,1,2.58,0v2.85a.26.26,0,0,0,.27.25H16.6a.78.78,0,0,0,.78-.76V14.44A1.57,1.57,0,0,0,16.88,13.39Zm0,4.94a.26.26,0,0,1-.25.25H14V16a1.81,1.81,0,0,0-3.62,0v2.59H7.79a.26.26,0,0,1-.25-.25V14.44a1,1,0,0,1,.3-.64l2.31-1.93a1.51,1.51,0,0,1,.75-.27h2.59a1.46,1.46,0,0,1,.75.27l2.32,1.93a1,1,0,0,1,.3.64Zm-6.47-7.52H14a.28.28,0,0,0,.18-.07,1.37,1.37,0,0,0,.33-1c0-1.11-1.42-1.9-2.07-2.23V6.41H13a.25.25,0,0,0,.25-.25A.26.26,0,0,0,13,5.9h-.52V5.38a.26.26,0,0,0-.25-.25.25.25,0,0,0-.25.25V5.9h-.52a.25.25,0,0,0-.25.25.24.24,0,0,0,.25.25h.52V7.55c-.66.33-2.08,1.12-2.08,2.23a1.28,1.28,0,0,0,.34,1A.25.25,0,0,0,10.39,10.81ZM12.2,8C13.4,8.61,14,9.21,14,9.78a1,1,0,0,1-.13.52H10.52a1,1,0,0,1-.13-.52C10.39,9.21,11,8.61,12.2,8Z"/></g></g></svg>