<svg width="467pt" height="500pt"  xmlns="http://www.w3.org/2000/svg" viewBox="0 0 24.43 28.85"><defs><style>.cls-1{fill:#fff;}.cls-2{fill:#f05050;}</style></defs><title>Asset 6</title><g id="Layer_2" data-name="Layer 2"><g id="Layer_1-2" data-name="Layer 1"><path id="_Path_" data-name="&lt;Path&gt;" class="cls-1" d="M12.2,28.85A16.43,16.43,0,0,0,20,24.15c4.44-4.73,6.1-13,2.46-18.63a12.3,12.3,0,0,0-18.85-2c-5,5-4.4,13.61-.45,19.1A16.44,16.44,0,0,0,12.2,28.85Z"/><path id="_Compound_Path_" data-name="&lt;Compound Path&gt;" class="cls-2" d="M12.2,28.85A16.43,16.43,0,0,0,20,24.15c4.44-4.73,6.1-13,2.46-18.63a12.3,12.3,0,0,0-18.85-2c-5,5-4.4,13.61-.45,19.1A16.44,16.44,0,0,0,12.2,28.85Zm-9-12.93a9.86,9.86,0,0,1-.77-3.82h0A9.91,9.91,0,0,1,12.2,2.3h0a9.8,9.8,0,0,1,7.2,3.17h0a11.2,11.2,0,0,1,1.82,2.81,10.79,10.79,0,0,1,.38,1.11h0l-.06-.21.06.22h0a9.75,9.75,0,0,1,.22,1h0A9.9,9.9,0,0,1,22,12.11h0a9.92,9.92,0,0,1-9.81,9.81h0A9.91,9.91,0,0,1,3.16,15.93Z"/><path id="_Path_2" data-name="&lt;Path&gt;" class="cls-1" d="M3.16,15.93a9.86,9.86,0,0,1-.77-3.82h0A9.91,9.91,0,0,1,12.2,2.3h0a9.8,9.8,0,0,1,7.2,3.17h0a11.2,11.2,0,0,1,1.82,2.81,10.79,10.79,0,0,1,.38,1.11h0l-.06-.21.06.22h0a9.75,9.75,0,0,1,.22,1h0A9.9,9.9,0,0,1,22,12.11h0a9.92,9.92,0,0,1-9.81,9.81h0A9.91,9.91,0,0,1,3.16,15.93Z"/><path class="cls-2" d="M18.21,13.57l-3.46-1.71h-.11V7.7a2.22,2.22,0,0,0-2.2-2.19V4.77a.24.24,0,1,0-.48,0v.75A2.22,2.22,0,0,0,9.76,7.7v4.15a.24.24,0,0,0-.1,0L6.19,13.57a1.1,1.1,0,0,0-.58.92V17a.73.73,0,0,0,.73.72H18.05a.73.73,0,0,0,.73-.72V14.49A1.1,1.1,0,0,0,18.21,13.57ZM12.2,6a1.81,1.81,0,0,1,1.93,1.45H10.26A1.81,1.81,0,0,1,12.2,6ZM10.25,7.94h3.89V12.8l-1.83-.93a.31.31,0,0,0-.23,0l-1.83.93Zm-1,9.27H6.34A.25.25,0,0,1,6.1,17v-2.2H9.28Zm0-2.93H6.16A.56.56,0,0,1,6.4,14l3.36-1.65V13l-.59.3a.24.24,0,0,0-.11.32.25.25,0,0,0,.23.14Zm3.41,2.93h-1V15.74A.25.25,0,0,1,12,15.5h.48a.24.24,0,0,1,.25.24Zm1.95,0H13.17V15.74a.73.73,0,0,0-.73-.73H12a.73.73,0,0,0-.73.73v1.47H9.76V13.57l2.44-1.21,2.44,1.21Zm0-4.85L18,14a.56.56,0,0,1,.24.27H15.12V13.8a.25.25,0,0,0,.23-.14.24.24,0,0,0-.11-.32l-.59-.3ZM18.29,17a.25.25,0,0,1-.24.24H15.12V14.77h3.17ZM13.17,9.89a1,1,0,1,0-1,1A1,1,0,0,0,13.17,9.89Zm-1.47,0a.49.49,0,0,1,1,0,.49.49,0,0,1-1,0Z"/></g></g></svg>