<svg width="467pt" height="500pt" xmlns="http://www.w3.org/2000/svg" viewBox="0 0 24.43 28.85">
    <defs>
        <style>.cls-1{fill:#fff;}.cls-2{fill:#f05050;}</style>
    </defs>
    <title>m_gd</title>
    <g id="Layer_2" data-name="Layer 2">
        <g id="Layer_1-2" data-name="Layer 1">
            <path id="_Path_" data-name="&lt;Path&gt;" class="cls-1"
                  d="M12.2,28.85A16.43,16.43,0,0,0,20,24.15c4.44-4.73,6.1-13,2.46-18.63a12.3,12.3,0,0,0-18.85-2c-5,5-4.4,13.61-.45,19.1A16.44,16.44,0,0,0,12.2,28.85Z"/>
            <path id="_Compound_Path_" data-name="&lt;Compound Path&gt;" class="cls-2"
                  d="M12.2,28.85A16.43,16.43,0,0,0,20,24.15c4.44-4.73,6.1-13,2.46-18.63a12.3,12.3,0,0,0-18.85-2c-5,5-4.4,13.61-.45,19.1A16.44,16.44,0,0,0,12.2,28.85Zm-9-12.93a9.86,9.86,0,0,1-.77-3.82h0A9.91,9.91,0,0,1,12.2,2.3h0a9.8,9.8,0,0,1,7.2,3.17h0a11.2,11.2,0,0,1,1.82,2.81,10.79,10.79,0,0,1,.38,1.11h0l-.06-.21.06.22h0a9.75,9.75,0,0,1,.22,1h0A9.9,9.9,0,0,1,22,12.11h0a9.92,9.92,0,0,1-9.81,9.81h0A9.91,9.91,0,0,1,3.16,15.93Z"/>
            <path id="_Path_2" data-name="&lt;Path&gt;" class="cls-1"
                  d="M3.16,15.93a9.86,9.86,0,0,1-.77-3.82h0A9.91,9.91,0,0,1,12.2,2.3h0a9.8,9.8,0,0,1,7.2,3.17h0a11.2,11.2,0,0,1,1.82,2.81,10.79,10.79,0,0,1,.38,1.11h0l-.06-.21.06.22h0a9.75,9.75,0,0,1,.22,1h0A9.9,9.9,0,0,1,22,12.11h0a9.92,9.92,0,0,1-9.81,9.81h0A9.91,9.91,0,0,1,3.16,15.93Z"/>
            <path class="cls-2"
                  d="M18.06,19.94a.19.19,0,0,1-.13,0l-1.71-1.52h-8L6.46,19.89a.19.19,0,1,1-.26-.29l1.7-1.51v-.46H7.85A.87.87,0,0,1,7,16.76V12.49H7V7A2.71,2.71,0,0,1,9.69,4.28h5A2.71,2.71,0,0,1,17.41,7v9.76a.87.87,0,0,1-.87.87h-.06v.46l1.7,1.51a.19.19,0,0,1-.13.34ZM8.29,18H16.1v-.35H8.29Zm8-.74h.25a.48.48,0,0,0,.48-.48v-4l-4.77,1.4a.2.2,0,0,1-.11,0l-4.77-1.4v4a.48.48,0,0,0,.48.48H16.3ZM7.37,12.35l4.83,1.42L17,12.35V7A2.33,2.33,0,0,0,14.7,4.67h-5A2.33,2.33,0,0,0,7.37,7v5.35Zm8.54,3.72a.83.83,0,1,1,.83-.83A.83.83,0,0,1,15.91,16.07Zm0-1.26a.44.44,0,1,0,.44.44A.44.44,0,0,0,15.91,14.81ZM8.49,16.07a.83.83,0,1,1,.83-.83A.83.83,0,0,1,8.49,16.07Zm0-1.26a.44.44,0,1,0,.44.44A.44.44,0,0,0,8.49,14.81Zm8-3.13H7.86a.19.19,0,0,1-.19-.19V7.27a.19.19,0,0,1,.19-.19h8.68a.19.19,0,0,1,.19.19v4.21A.19.19,0,0,1,16.54,11.68Zm-4.15-.39h4V7.47h-4Zm-4.34,0h4V7.47h-4ZM12.2,6.71A.73.73,0,1,1,12.93,6,.73.73,0,0,1,12.2,6.71Zm0-1.07a.34.34,0,1,0,.34.34A.34.34,0,0,0,12.2,5.64Z"/>
        </g>
    </g>
</svg>