<?xml version="1.0" standalone="no"?>
<!DOCTYPE svg PUBLIC "-//W3C//DTD SVG 1.1//EN" "http://www.w3.org/Graphics/SVG/1.1/DTD/svg11.dtd" >
<svg xmlns="http://www.w3.org/2000/svg" xmlns:xlink="http://www.w3.org/1999/xlink" version="1.1">
<metadata>
Created by FontForge 20170731 at Mon Mar 13 02:31:06 2017
 By Aleksey,,,
Copyright (c) 2015 Typotheque.com All rights reserved.
</metadata>
<defs>
<font id="WilliamTextPro-Bold" horiz-adv-x="627" >
  <font-face 
    font-family="William Text Pro Bold"
    font-weight="700"
    font-stretch="normal"
    units-per-em="1000"
    panose-1="0 0 0 0 0 0 0 0 0 0"
    ascent="745"
    descent="-255"
    x-height="521"
    cap-height="700"
    bbox="-852.067 -302.75 1485.53 1080.56"
    underline-thickness="50"
    underline-position="-200"
    unicode-range="U+0020-FB04"
  />
<missing-glyph horiz-adv-x="712" 
d="M605 675v27h27v-27h-27zM530 675v27h27v-27h-27zM455 675v27h27v-27h-27zM80 675v27h27v-27h-27zM155 675v27h27v-27h-27zM230 675v27h27v-27h-27zM380 675v27h27v-27h-27zM305 675v27h27v-27h-27zM80 600v27h27v-27h-27zM605 600v27h27v-27h-27zM455 525v27h27v-27h-27z
M80 525v27h27v-27h-27zM605 525v27h27v-27h-27zM230 525v27h27v-27h-27zM305 525v27h27v-27h-27zM380 525v27h27v-27h-27zM455 450v27h27v-27h-27zM80 450v27h27v-27h-27zM605 450v27h27v-27h-27zM80 375v27h27v-27h-27zM455 375v27h27v-27h-27zM305 375v27h27v-27h-27z
M605 375v27h27v-27h-27zM380 375v27h27v-27h-27zM305 300v27h27v-27h-27zM605 300v27h27v-27h-27zM80 300v27h27v-27h-27zM80 225v27h27v-27h-27zM605 225v27h27v-27h-27zM305 150v27h27v-27h-27zM80 150v27h27v-27h-27zM605 150v27h27v-27h-27zM80 75v27h27v-27h-27z
M605 75v27h27v-27h-27zM605 0v27h27v-27h-27zM530 0v27h27v-27h-27zM455 0v27h27v-27h-27zM80 0v27h27v-27h-27zM305 0v27h27v-27h-27zM230 0v27h27v-27h-27zM155 0v27h27v-27h-27zM380 0v27h27v-27h-27z" />
    <glyph glyph-name="f_f" unicode="ff" horiz-adv-x="757" 
d="M322 16q0 -10 -3.5 -13t-14.5 -3h-248q-10 0 -13.5 3.5t-3.5 12.5v14q0 14 15 17l11 2q22 4 30.5 18.5t8.5 46.5v323h-63q-12 0 -8 14l16 59q2 11 17 11h38v11q0 88 59 153t153 65q45 0 72.5 -21t27.5 -56q0 -24 -14 -38.5t-36 -14.5q-43 0 -50 55q-4 31 -17 31
q-32 0 -32 -140v-45h165v21q0 89 58.5 153.5t151.5 64.5q45 0 72.5 -21t27.5 -56q0 -24 -14 -38.5t-36 -14.5q-43 0 -50 55q-4 31 -17 31q-18 0 -24 -34t-6 -106v-55h110q12 0 9 -13l-14 -60q-2 -11 -17 -11h-88v-323q0 -32 8.5 -46.5t30.5 -18.5l11 -2q15 -3 15 -17v-14
q0 -9 -3.5 -12.5t-13.5 -3.5h-249q-10 0 -13.5 3.5t-3.5 12.5v14q0 14 15 17l6 1q21 4 27.5 18.5t6.5 47.5v323h-165v-323q0 -33 6 -48.5t25 -17.5l8 -1q16 -2 16 -16v-15z" />
    <glyph glyph-name="fi" unicode="fi" horiz-adv-x="681" 
d="M322 16q0 -10 -3.5 -13t-14.5 -3h-248q-10 0 -13.5 3.5t-3.5 12.5v14q0 14 15 17l11 2q22 4 30.5 18.5t8.5 46.5v323h-63q-12 0 -8 14l16 59q2 11 17 11h38v15q0 96 85 160t218 64q76 0 124.5 -28.5t48.5 -72.5q0 -33 -21 -52t-56 -19q-52 0 -84 66q-16 32 -27.5 43.5
t-30.5 11.5q-40 0 -67 -39.5t-27 -112.5v-36h223q25 0 82 10q7 1 12 -2l7 -5q5 -4 5 -12v-398q0 -60 36 -65l13 -2q16 -2 16 -16v-15q0 -10 -3.5 -13t-14.5 -3h-246q-10 0 -13.5 3.5t-3.5 12.5v14q0 14 15 17l6 1q21 4 27.5 18.5t6.5 47.5v289q0 34 -34 34h-134v-323
q0 -33 6 -48.5t25 -17.5l8 -1q16 -2 16 -16v-15z" />
    <glyph glyph-name="fl" unicode="fl" horiz-adv-x="687" 
d="M322 16q0 -10 -3.5 -13t-14.5 -3h-248q-10 0 -13.5 3.5t-3.5 12.5v14q0 14 15 17l11 2q22 4 30.5 18.5t8.5 46.5v323h-63q-12 0 -8 14l16 59q2 11 17 11h38v20q0 107 69 157.5t186 50.5q31 0 79 -6t57 -6q19 0 45 8l40 13q7 2 13 -1l8 -5q4 -3 4 -12v-626q0 -60 35 -65
l7 -1q19 -3 19 -16v-14q0 -18 -17 -18h-244q-11 0 -14.5 3t-3.5 13v15q0 14 16 16l8 1q19 2 25 17.5t6 48.5v489q0 97 -82 97q-39 0 -66 -28.5t-27 -85.5v-65h112q12 0 9 -13l-14 -60q-2 -11 -18 -11h-89v-323q0 -33 6 -48.5t25 -17.5l8 -1q16 -2 16 -16v-15z" />
    <glyph glyph-name="f_f_i" unicode="ffi" horiz-adv-x="1002" 
d="M322 16q0 -10 -3.5 -13t-14.5 -3h-248q-10 0 -13.5 3.5t-3.5 12.5v14q0 14 15 17l11 2q22 4 30.5 18.5t8.5 46.5v323h-63q-12 0 -8 14l16 59q2 11 15 11h40v11q0 88 59 153t153 65q45 0 72.5 -21t27.5 -56q0 -24 -14 -38.5t-36 -14.5q-43 0 -50 55q-4 31 -17 31
q-32 0 -32 -140v-45h165v15q0 100 80 162t213 62q76 0 124.5 -28.5t48.5 -72.5q0 -33 -21 -52t-56 -19q-52 0 -84 66q-16 32 -27 43.5t-28 11.5q-32 0 -59.5 -40.5t-27.5 -111.5v-36h223q25 0 82 10q7 1 12 -2l7 -5q5 -4 5 -12v-398q0 -60 36 -65l13 -2q16 -2 16 -16v-15
q0 -10 -3.5 -13t-14.5 -3h-246q-10 0 -13.5 3.5t-3.5 12.5v14q0 14 15 17l6 1q21 4 27.5 18.5t6.5 47.5v289q0 34 -34 34h-134v-323q0 -33 6 -48.5t25 -17.5l8 -1q16 -2 16 -16v-15q0 -10 -3.5 -13t-14.5 -3h-238q-10 0 -13.5 3.5t-3.5 12.5v14q0 14 15 17l6 1
q21 4 27.5 18.5t6.5 47.5v323h-165v-323q0 -33 6 -48.5t25 -17.5l8 -1q16 -2 16 -16v-15z" />
    <glyph glyph-name="f_f_l" unicode="ffl" horiz-adv-x="1012" 
d="M322 16q0 -10 -3.5 -13t-14.5 -3h-248q-10 0 -13.5 3.5t-3.5 12.5v14q0 14 15 17l11 2q22 4 30.5 18.5t8.5 46.5v323h-63q-12 0 -8 14l16 59q2 11 17 11h38v11q0 88 59 153t153 65q45 0 72.5 -21t27.5 -56q0 -24 -14 -38.5t-36 -14.5q-43 0 -50 55q-4 31 -17 31
q-32 0 -32 -140v-45h167v21q0 107 67.5 157.5t183.5 50.5q31 0 79 -6t57 -6q18 0 44 8l40 13q7 2 13 -1l8 -5q4 -3 4 -12v-627q0 -60 35 -65l7 -1q19 -3 19 -16v-14q0 -18 -17 -18h-244q-11 0 -14.5 3t-3.5 13v15q0 14 16 16l8 1q19 2 25 17.5t6 48.5v499q0 88 -79 88
q-91 0 -91 -114v-66h108q17 0 13 -13l-18 -60q-3 -11 -17 -11h-86v-323q0 -33 6 -48.5t25 -17.5l8 -1q16 -2 16 -16v-15q0 -10 -3.5 -13t-14.5 -3h-238q-10 0 -13.5 3.5t-3.5 12.5v14q0 14 15 17l6 1q21 4 27.5 18.5t6.5 47.5v323h-167v-323q0 -33 6 -48.5t25 -17.5l8 -1
q16 -2 16 -16v-15z" />
    <glyph glyph-name="f_b" unicode="fb" horiz-adv-x="1003" 
d="M968 286q0 -128 -79 -212t-194 -84q-93 0 -163 58l-48 -46q-8 -7 -19 -7h-11q-12 0 -12 13v595q0 97 -81 97q-39 0 -66.5 -28.5t-27.5 -85.5v-65h112q12 0 9 -13l-14 -60q-2 -11 -17 -11h-90v-323q0 -32 8.5 -46.5t30.5 -18.5l11 -2q15 -3 15 -17v-14q0 -9 -3.5 -12.5
t-13.5 -3.5h-259q-10 0 -13.5 3.5t-3.5 12.5v14q0 14 15 17l11 2q22 4 30.5 18.5t8.5 46.5v323h-63q-12 0 -8 14l16 59q2 11 17 11h38v20q0 107 69.5 157.5t186.5 50.5q31 0 79 -6t57 -6q18 0 44 8l40 13q7 2 13 -1l8 -5q4 -3 4 -12v-276q73 67 155 67q101 0 154.5 -69.5
t53.5 -175.5zM605 121q0 -34 22.5 -56.5t54.5 -22.5q106 0 106 218q0 44 -9 81.5t-34.5 67t-64.5 29.5q-40 0 -75 -21v-296z" />
    <glyph glyph-name="f_h" unicode="fh" horiz-adv-x="1027" 
d="M322 16q0 -10 -3.5 -13t-14.5 -3h-248q-10 0 -13.5 3.5t-3.5 12.5v14q0 14 15 17l11 2q22 4 30.5 18.5t8.5 46.5v323h-63q-12 0 -8 14l16 59q2 11 17 11h38v20q0 107 69.5 157.5t186.5 50.5q31 0 79 -6t57 -6q19 0 45 8l40 13q7 2 13 -1l8 -5q4 -3 4 -12v-310
q32 43 81 72t99 29q71 0 113.5 -41.5t42.5 -114.5v-261q0 -32 7.5 -47t27.5 -18l7 -1q23 -3 23 -16v-14q0 -18 -21 -18h-253q-12 0 -15.5 3.5t-3.5 12.5v14q0 15 17 18l6 1q21 4 29.5 19t8.5 46v240q0 35 -19.5 54t-52.5 19q-45 0 -97 -39v-274q0 -60 35 -65l7 -1
q19 -3 19 -16v-14q0 -18 -17 -18h-244q-11 0 -14.5 3t-3.5 13v15q0 14 16 16l8 1q19 2 25 17.5t6 48.5v489q0 97 -82 97q-39 0 -66.5 -28.5t-27.5 -85.5v-65h112q12 0 9 -13l-14 -60q-2 -11 -17 -11h-90v-323q0 -33 6 -48.5t25 -17.5l8 -1q16 -2 16 -16v-15z" />
    <glyph glyph-name="f_j" unicode="fj" horiz-adv-x="671" 
d="M595 -9q0 -124 -77.5 -202.5t-187.5 -78.5q-43 0 -75.5 19.5t-32.5 56.5q0 28 16.5 44t45.5 16q32 0 61 -41q23 -35 41 -35q22 0 34 28t12 74v531q0 34 -34 34h-131v-323q0 -33 6 -48.5t25 -17.5l8 -1q16 -2 16 -16v-15q0 -10 -3.5 -13t-14.5 -3h-248q-10 0 -13.5 3.5
t-3.5 12.5v14q0 14 15 17l11 2q22 4 30.5 18.5t8.5 46.5v323h-63q-12 0 -8 14l16 59q2 11 17 11h38v15q0 96 85 160t218 64q76 0 124.5 -28.5t48.5 -72.5q0 -33 -21 -52t-56 -19q-52 0 -84 66q-16 32 -27.5 43.5t-30.5 11.5q-40 0 -67 -39.5t-27 -112.5v-36h222q25 0 82 10
q7 1 12 -2l7 -5q5 -4 5 -12v-521z" />
    <glyph glyph-name="f_k" unicode="fk" horiz-adv-x="1005" 
d="M322 16q0 -10 -3.5 -13t-14.5 -3h-248q-10 0 -13.5 3.5t-3.5 12.5v14q0 14 15 17l11 2q22 4 30.5 18.5t8.5 46.5v323h-63q-12 0 -8 14l16 59q2 11 17 11h38v20q0 107 69 157.5t186 50.5q31 0 79 -6t57 -6q17 0 43 8l40 13q7 2 13 -1l8 -5q4 -3 4 -12v-446h30l115 106
q29 28 22.5 49t-37.5 23l-11 1q-21 1 -21 16v14q0 18 21 18h220q14 0 18.5 -3.5t4.5 -12.5v-14q0 -9 -4 -12.5t-16 -5.5q-50 -10 -138 -86l-52 -44l151 -229q1 -2 6.5 -10t7.5 -10.5t7.5 -10t8.5 -10.5t8 -8.5t9.5 -8t10 -5t10.5 -3.5q12 -2 16.5 -5.5t4.5 -12.5v-14
q0 -9 -4.5 -12.5t-18.5 -3.5h-243q-21 0 -21 18v14q0 14 16 16l7 1q35 5 -8 65l-82 128h-38v-128q0 -62 27 -65l7 -1q19 -3 19 -16v-14q0 -18 -17 -18h-236q-11 0 -14.5 3t-3.5 13v15q0 14 16 16l8 1q19 2 25 17.5t6 48.5v489q0 97 -80 97q-39 0 -66 -28.5t-27 -85.5v-65
h111q11 0 8 -13l-13 -60q-2 -11 -17 -11h-89v-323q0 -33 6 -48.5t25 -17.5l8 -1q16 -2 16 -16v-15z" />
    <glyph glyph-name="f_igrave" unicode="f&#xec;" horiz-adv-x="681" 
d="M322 16q0 -10 -3.5 -13t-14.5 -3h-248q-10 0 -13.5 3.5t-3.5 12.5v14q0 14 15 17l11 2q22 4 30.5 18.5t8.5 46.5v323h-63q-12 0 -8 14l16 59q2 11 17 11h38v21q0 88 59 153t153 65q44 0 69.5 -21t25.5 -56q0 -24 -13.5 -38.5t-35.5 -14.5q-42 0 -49 54q-4 31 -16 31
q-18 0 -24 -32.5t-6 -96.5v-65h223q25 0 82 10q7 1 12 -2l7 -5q5 -4 5 -12v-398q0 -60 36 -65l13 -2q16 -2 16 -16v-15q0 -10 -3.5 -13t-14.5 -3h-246q-10 0 -13.5 3.5t-3.5 12.5v14q0 14 15 17l6 1q21 4 27.5 18.5t6.5 47.5v289q0 34 -34 34h-134v-323q0 -33 6 -48.5
t25 -17.5l8 -1q16 -2 16 -16v-15zM549 571l-106 97q-20 18 -20 42q0 19 17 33.5t35 14.5q30 0 49 -39l58 -125q7 -15 -1 -22l-8 -6q-10 -8 -24 5z" />
    <glyph glyph-name="f_idieresis" unicode="f&#xef;" horiz-adv-x="681" 
d="M322 16q0 -10 -3.5 -13t-14.5 -3h-248q-10 0 -13.5 3.5t-3.5 12.5v14q0 14 15 17l11 2q22 4 30.5 18.5t8.5 46.5v323h-63q-12 0 -8 14l16 59q2 11 17 11h38v21q0 89 66 153.5t175 64.5q60 0 97 -27t37 -69q0 -29 -16.5 -47t-43.5 -18q-61 0 -61 63v14q0 21 -11 29
q-9 7 -25 7q-55 0 -55 -118v-73h223q25 0 82 10q7 1 12 -2l7 -5q5 -4 5 -12v-398q0 -60 36 -65l13 -2q16 -2 16 -16v-15q0 -10 -3.5 -13t-14.5 -3h-246q-10 0 -13.5 3.5t-3.5 12.5v14q0 14 15 17l6 1q21 4 27.5 18.5t6.5 47.5v289q0 34 -34 34h-134v-323q0 -33 6 -48.5
t25 -17.5l8 -1q16 -2 16 -16v-15zM530 665q0 29 19 48.5t47 19.5t47 -19.5t19 -48.5t-19 -48.5t-47 -19.5t-47 19.5t-19 48.5z" />
    <glyph glyph-name=".notdef" horiz-adv-x="712" 
d="M605 675v27h27v-27h-27zM530 675v27h27v-27h-27zM455 675v27h27v-27h-27zM80 675v27h27v-27h-27zM155 675v27h27v-27h-27zM230 675v27h27v-27h-27zM380 675v27h27v-27h-27zM305 675v27h27v-27h-27zM80 600v27h27v-27h-27zM605 600v27h27v-27h-27zM455 525v27h27v-27h-27z
M80 525v27h27v-27h-27zM605 525v27h27v-27h-27zM230 525v27h27v-27h-27zM305 525v27h27v-27h-27zM380 525v27h27v-27h-27zM455 450v27h27v-27h-27zM80 450v27h27v-27h-27zM605 450v27h27v-27h-27zM80 375v27h27v-27h-27zM455 375v27h27v-27h-27zM305 375v27h27v-27h-27z
M605 375v27h27v-27h-27zM380 375v27h27v-27h-27zM305 300v27h27v-27h-27zM605 300v27h27v-27h-27zM80 300v27h27v-27h-27zM80 225v27h27v-27h-27zM605 225v27h27v-27h-27zM305 150v27h27v-27h-27zM80 150v27h27v-27h-27zM605 150v27h27v-27h-27zM80 75v27h27v-27h-27z
M605 75v27h27v-27h-27zM605 0v27h27v-27h-27zM530 0v27h27v-27h-27zM455 0v27h27v-27h-27zM80 0v27h27v-27h-27zM305 0v27h27v-27h-27zM230 0v27h27v-27h-27zM155 0v27h27v-27h-27zM380 0v27h27v-27h-27z" />
    <glyph glyph-name=".null" horiz-adv-x="0" 
 />
    <glyph glyph-name="nonmarkingreturn" horiz-adv-x="333" 
 />
    <glyph glyph-name="space" unicode=" " horiz-adv-x="239" 
 />
    <glyph glyph-name="exclam" unicode="!" horiz-adv-x="316" 
d="M175 195h-24q-18 0 -18 18v63q0 64 -31.5 184.5t-31.5 159.5q0 105 93 105t93 -105q0 -39 -31.5 -159.5t-31.5 -184.5v-63q0 -18 -18 -18zM163 -14q-34 0 -56 20.5t-22 56.5q0 35 23 56.5t56 21.5t55 -21.5t22 -56.5q0 -34 -22 -55.5t-56 -21.5z" />
    <glyph glyph-name="quotedbl" unicode="&#x22;" horiz-adv-x="470" 
d="M130 455q-8 0 -11.5 3.5t-5.5 13.5l-39 195q-4 24 -4 34q0 29 18.5 44t49.5 15q64 0 64 -59q0 -10 -4 -34l-39 -195q-2 -10 -5.5 -13.5t-11.5 -3.5h-12zM328 455q-8 0 -11.5 3.5t-5.5 13.5l-39 195q-4 24 -4 34q0 29 18.5 44t49.5 15q64 0 64 -59q0 -10 -4 -34l-39 -195
q-2 -10 -5.5 -13.5t-11.5 -3.5h-12z" />
    <glyph glyph-name="numbersign" unicode="#" horiz-adv-x="695" 
d="M169 -101q-4 -15 -20 -15h-36q-17 0 -13 19l41 185h-107q-17 0 -13 19l9 41q3 16 20 16h108l43 191h-109q-17 0 -13 18l10 41q4 17 20 17h109l40 180q2 11 6 15t14 4h39q15 0 11 -19l-40 -180h180l40 180q2 11 6 15t14 4h39q15 0 11 -19l-40 -180h107q18 0 14 -18
l-10 -42q-2 -10 -6 -13t-14 -3h-108l-43 -191h107q18 0 14 -18l-10 -42q-4 -16 -21 -16h-107l-42 -189q-4 -15 -20 -15h-36q-17 0 -13 19l41 185h-180zM228 164h180l43 191h-180z" />
    <glyph glyph-name="dollar" unicode="$" horiz-adv-x="531" 
d="M287 -71q0 -12 -10 -12h-19q-10 0 -10 12l1 64q-52 5 -105 34q-7 4 -12 4q-6 0 -10 -9l-6 -14q-4 -11 -16 -11h-20q-9 0 -12 3t-3 11v151q0 8 3.5 11.5t12.5 3.5h17q14 0 17 -10q39 -116 135 -122l3 165q-3 1 -9.5 3t-9.5 3q-83 26 -123.5 65.5t-40.5 107.5
q0 80 55.5 123t132.5 45l1 55q0 11 9 11h20q6 0 7.5 -2t1.5 -9l-1 -57q39 -5 79 -26q8 -4 12 -4q6 0 10 7l7 13q4 9 14 9h18q11 0 11 -11l2 -132q0 -17 -12 -17h-17q-16 0 -19 10q-29 91 -106 100l-2 -159q3 -1 8.5 -3t8.5 -3q82 -27 119 -61.5t37 -105.5q0 -76 -46 -125.5
t-132 -53.5zM191 435q0 -47 64 -76l2 145q-31 -5 -48.5 -23t-17.5 -46zM357 117q0 28 -15 46t-51 33l-2 -150q68 9 68 71z" />
    <glyph glyph-name="percent" unicode="%" horiz-adv-x="823" 
d="M207 256q-73 0 -115 43t-42 120q0 74 43.5 118.5t117.5 44.5q71 0 113 -43.5t42 -117.5q0 -76 -42.5 -120.5t-116.5 -44.5zM618 533l-364 -529q-9 -13 -22 -5l-15 10q-14 9 -4 24l363 527q10 14 23 5l16 -11q12 -8 3 -21zM209 302q57 0 57 118q0 116 -57 116
q-30 0 -44.5 -33t-14.5 -83q0 -118 59 -118zM617 -26q-73 0 -114 42.5t-41 120.5q0 74 43.5 118.5t117.5 44.5q71 0 113 -43.5t42 -117.5q0 -76 -43.5 -120.5t-117.5 -44.5zM621 20q57 0 57 118q0 116 -57 116q-30 0 -44.5 -33t-14.5 -83q0 -118 59 -118z" />
    <glyph glyph-name="ampersand" unicode="&#x26;" horiz-adv-x="916" 
d="M901 147q-66 -161 -195 -161q-93 0 -175 79q-94 -79 -220 -79q-112 0 -179 49t-67 139q0 133 161 201q-87 85 -87 164q0 81 63.5 126.5t158.5 45.5q88 0 138.5 -35.5t50.5 -98.5q0 -58 -38 -98t-115 -67q71 -62 189 -194l4 -4q35 50 57 99q38 86 -54 93q-19 1 -19 16v18
q0 15 14 15h242q16 0 16 -18v-12q0 -17 -15 -18q-44 -3 -69 -25t-51 -71q-44 -83 -83 -137q72 -72 136 -72q58 0 98 65q9 14 22 7l9 -4q16 -6 8 -23zM274 586q0 -37 20.5 -70t64.5 -72q70 54 70 137q0 38 -22.5 60t-56.5 22q-33 0 -54.5 -21t-21.5 -56zM220 222
q0 -65 41 -102.5t110 -37.5q63 0 117 30q-133 148 -222 226q-46 -49 -46 -116z" />
    <glyph glyph-name="quotesingle" unicode="'" horiz-adv-x="272" 
d="M130 455q-8 0 -11.5 3.5t-5.5 13.5l-39 195q-4 24 -4 34q0 29 18.5 44t49.5 15q64 0 64 -59q0 -10 -4 -34l-39 -195q-2 -10 -5.5 -13.5t-11.5 -3.5h-12z" />
    <glyph glyph-name="parenleft" unicode="(" horiz-adv-x="413" 
d="M60 237q0 155 79 290t213 228q14 10 21 0l12 -15q8 -11 -2 -19q-218 -188 -218 -490q0 -138 53 -263.5t159 -213.5q11 -8 3 -20l-12 -16q-7 -10 -18 -3q-290 198 -290 522z" />
    <glyph glyph-name="parenright" unicode=")" horiz-adv-x="413" 
d="M353 236q0 -156 -79 -291t-213 -228q-14 -10 -21 0l-12 17q-7 10 2 18q218 190 218 490q0 137 -53 262.5t-160 213.5q-12 9 -3 20l12 15q8 11 19 4q290 -198 290 -521z" />
    <glyph glyph-name="asterisk" unicode="*" horiz-adv-x="418" 
d="M206 599l-91 -51q-22 -13 -36 -13q-19 0 -30 12.5t-11 33.5q0 19 12 30t29 11q12 0 23 -1l101 -9l-82 78q-19 19 -19 36q0 19 15.5 31.5t35.5 12.5q27 0 36 -35l27 -116l48 102q16 33 40 33q18 0 32 -14t14 -32q0 -24 -31 -42l-93 -55l121 -16q36 -5 36 -38
q0 -19 -12.5 -34t-30.5 -15q-16 0 -36 18l-84 72l18 -97q4 -16 4 -30q0 -19 -11.5 -30.5t-31.5 -11.5t-32 10.5t-12 27.5q0 14 10 36z" />
    <glyph glyph-name="plus" unicode="+" horiz-adv-x="582" 
d="M327 95q0 -11 -2.5 -14.5t-13.5 -3.5h-40q-10 0 -13 3.5t-3 15.5v182h-182q-11 0 -14.5 2.5t-3.5 12.5v41q0 10 3.5 13t15.5 3h181v177q0 12 3 15.5t13 3.5h40q11 0 13.5 -3.5t2.5 -14.5v-178h182q11 0 14.5 -3t3.5 -13v-41q0 -10 -3.5 -12.5t-14.5 -2.5h-182v-183z" />
    <glyph glyph-name="comma" unicode="," horiz-adv-x="271" 
d="M53 -184q-17 -5 -22 6l-5 12q-5 10 5 16q57 31 88 71q24 31 34 74q-10 -5 -30 -5q-32 0 -51.5 19t-19.5 50q0 36 22 57.5t58 21.5q44 0 66.5 -29.5t22.5 -76.5q0 -87 -56 -146q-44 -47 -112 -70z" />
    <glyph glyph-name="hyphen" unicode="-" horiz-adv-x="362" 
d="M34 245q-11 0 -11 11v48q0 11 11 11h293q12 0 12 -11v-48q0 -11 -12 -11h-293z" />
    <glyph glyph-name="period" unicode="." horiz-adv-x="266" 
d="M133 -14q-34 0 -56 20.5t-22 56.5q0 35 23 56.5t56 21.5t55 -21.5t22 -56.5q0 -34 -22 -55.5t-56 -21.5z" />
    <glyph glyph-name="slash" unicode="/" horiz-adv-x="564" 
d="M496 749q16 -6 10 -23l-404 -1003q-7 -15 -20 -10l-23 9q-18 7 -12 22l404 1004q7 16 22 10z" />
    <glyph glyph-name="zero" unicode="0" horiz-adv-x="652" 
d="M321 -11q-123 0 -197 80t-74 204q0 132 76 210.5t206 78.5q127 0 198.5 -77.5t71.5 -202.5q0 -126 -73 -209.5t-208 -83.5zM334 41q95 0 95 227q0 108 -24.5 175t-77.5 67q-50 0 -77 -58.5t-27 -152.5q0 -48 5.5 -91t17.5 -82t35 -62t53 -23z" />
    <glyph glyph-name="one" unicode="1" horiz-adv-x="449" 
d="M149 114v323q0 64 -48 65l-26 1q-21 1 -21 18v14q0 9 4.5 12.5t18.5 3.5h297q21 0 21 -18v-14q0 -14 -23 -16l-27 -1q-45 -1 -45 -65v-323q0 -62 45 -65l19 -1q21 -1 21 -16v-14q0 -18 -21 -18h-287q-14 0 -18.5 3.5t-4.5 12.5v14q0 17 21 18l26 1q48 1 48 65z" />
    <glyph glyph-name="two" unicode="2" horiz-adv-x="563" 
d="M417 131q24 0 35 9t18 34l4 14q4 15 17 15h21q13 0 10 -15l-38 -237q-1 -13 -14 -13h-23q-15 0 -12 16l3 19q4 27 -23 27h-362q-16 0 -16 16v24q0 16 11 26q102 89 147 134q93 92 93 164q0 39 -22 64.5t-62 25.5q-73 0 -121 -88q-8 -14 -21 -8l-18 8q-14 6 -7 22
q80 174 241 174q80 0 130 -40.5t50 -108.5q0 -60 -35 -104t-99 -88q-69 -49 -124 -89z" />
    <glyph glyph-name="three" unicode="3" horiz-adv-x="544" 
d="M475 43q0 -73 -42 -128.5t-105.5 -83t-136.5 -27.5q-74 0 -132.5 31.5t-58.5 85.5q0 25 16 42t43 17q24 0 39 -16t28 -48q12 -30 28.5 -43t45.5 -13q51 0 81.5 38.5t30.5 96.5q0 114 -147 168q-13 5 -13 14v3q0 12 10 19q133 98 133 175q0 37 -22.5 58.5t-61.5 21.5
q-71 0 -116 -87q-7 -14 -21 -8l-20 8q-12 5 -7 20q30 77 90.5 126t143.5 49q77 0 126.5 -39.5t49.5 -102.5q0 -102 -141 -173q71 -35 115 -89.5t44 -114.5z" />
    <glyph glyph-name="four" unicode="4" horiz-adv-x="599" 
d="M454 -161q0 -14 -4.5 -19t-16.5 -5h-95q-12 0 -16.5 5t-4.5 19v161h-292q-15 0 -15 15v22q0 13 7 23l318 477q10 14 25 14h78q10 0 13 -4t3 -16v-438h81q16 0 16 -18v-58q0 -17 -16 -17h-81v-161zM113 93h204v304z" />
    <glyph glyph-name="five" unicode="5" horiz-adv-x="520" 
d="M451 71q0 -110 -81 -188.5t-194 -78.5q-73 0 -128.5 30t-55.5 85q0 27 16.5 44.5t43.5 17.5q6 0 11 -1t9 -2t8 -4t6.5 -4.5t6 -6.5t5 -7t5 -9t5 -9.5t5.5 -11t5 -11.5q14 -31 31 -43t46 -12q51 0 85 43t34 99q0 139 -208 167q-14 2 -17.5 11t0.5 26l67 316q4 17 10.5 23
t24.5 6h203q27 0 36 6t15 23l4 12q4 13 15 13h24q12 0 9 -14l-31 -149q-4 -19 -10 -24t-27 -5h-240l-22 -103q136 -19 210 -79.5t74 -159.5z" />
    <glyph glyph-name="six" unicode="6" horiz-adv-x="636" 
d="M584 257q0 -116 -75 -192t-193 -76q-125 0 -193 78t-68 209q0 185 134.5 311t340.5 132q11 0 15 -3.5t4 -13.5v-15q0 -13 -3.5 -17t-13.5 -5q-112 -11 -187.5 -72.5t-99.5 -143.5q47 23 107 23q114 0 173 -58t59 -157zM322 37q50 0 71 57t21 140q0 189 -92 189
q-50 0 -73.5 -52t-23.5 -131q0 -203 97 -203z" />
    <glyph glyph-name="seven" unicode="7" horiz-adv-x="551" 
d="M172 400q-38 0 -51.5 -10.5t-23.5 -48.5l-3 -12q-3 -13 -16 -13h-22q-14 0 -11 16l34 246q2 16 16 16h25q11 0 10 -14l-1 -10q-1 -11 3 -15t14 -4h356q18 0 18 -14q0 -9 -4 -20q-24 -57 -129 -307t-145 -347q-12 -29 -27.5 -43.5t-39.5 -14.5q-43 0 -57.5 31.5t13.5 81.5
q122 202 284 482h-243z" />
    <glyph glyph-name="eight" unicode="8" horiz-adv-x="617" 
d="M558 200q0 -94 -70 -152.5t-185 -58.5q-111 0 -174.5 46.5t-63.5 134.5q0 58 35.5 101.5t97.5 67.5q-60 37 -87.5 81t-27.5 102q0 89 70 140.5t179 51.5q96 0 157.5 -41.5t61.5 -114.5q0 -111 -135 -164q74 -41 108 -85t34 -109zM222 566q0 -49 38.5 -82.5t114.5 -69.5
q48 60 48 132q0 51 -28 83.5t-76 32.5q-42 0 -69.5 -26.5t-27.5 -69.5zM205 178q0 -57 29.5 -97t81.5 -40q45 0 73 29t28 75q0 49 -36 85t-110 70q-22 10 -32 15q-34 -49 -34 -137z" />
    <glyph glyph-name="nine" unicode="9" horiz-adv-x="628" 
d="M87 -195q-18 -2 -18 16v23q0 15 16 18q124 18 208 83.5t110 157.5q-38 -27 -100 -27q-111 0 -181 61.5t-70 169.5q0 113 72 184t189 71q125 0 192.5 -83t67.5 -219q0 -87 -29 -164.5t-86.5 -141t-152.5 -103.5t-218 -46zM316 127q49 0 71 52t22 129q0 92 -23 147.5
t-72 55.5q-46 0 -70 -50t-24 -140q0 -88 23.5 -141t72.5 -53z" />
    <glyph glyph-name="colon" unicode=":" horiz-adv-x="266" 
d="M133 360q-34 0 -56 20.5t-22 56.5q0 35 23 56.5t56 21.5t55 -21.5t22 -56.5q0 -34 -22 -55.5t-56 -21.5zM133 -14q-34 0 -56 20.5t-22 56.5q0 35 23 56.5t56 21.5t55 -21.5t22 -56.5q0 -34 -22 -55.5t-56 -21.5z" />
    <glyph glyph-name="semicolon" unicode=";" horiz-adv-x="271" 
d="M136 360q-34 0 -56 20.5t-22 56.5q0 35 23 56.5t56 21.5t55 -21.5t22 -56.5q0 -34 -22 -55.5t-56 -21.5zM53 -184q-17 -5 -22 6l-5 12q-5 10 5 16q57 31 88 71q24 31 34 74q-10 -5 -30 -5q-32 0 -51.5 19t-19.5 50q0 36 22 57.5t58 21.5q44 0 66.5 -29.5t22.5 -76.5
q0 -87 -56 -146q-44 -47 -112 -70z" />
    <glyph glyph-name="less" unicode="&#x3c;" horiz-adv-x="525" 
d="M426 119q-7 -15 -23 -8l-334 153q-9 4 -9 17v59q0 13 10 18l334 156q17 8 24 -8l14 -30q8 -17 -8 -24l-304 -142l305 -135q15 -8 7 -24z" />
    <glyph glyph-name="equal" unicode="=" horiz-adv-x="551" 
d="M476 382h-401q-9 0 -12 3t-3 13v40q0 10 3 13t12 3h401q9 0 12 -3t3 -13v-40q0 -10 -3 -13t-12 -3zM476 173h-401q-9 0 -12 3t-3 13v40q0 10 3 13t12 3h401q9 0 12 -3t3 -13v-40q0 -10 -3 -13t-12 -3z" />
    <glyph glyph-name="greater" unicode="&#x3e;" horiz-adv-x="525" 
d="M121 112q-16 -8 -24 8l-14 30q-8 17 8 24l304 142l-305 135q-15 7 -7 24l16 32q7 15 23 8l334 -154q9 -4 9 -17v-58q0 -13 -10 -18z" />
    <glyph glyph-name="question" unicode="?" horiz-adv-x="375" 
d="M124 195q-18 0 -18 18v138q0 42 12 59t51 28l63 18q37 10 50.5 21.5t13.5 30.5q0 39 -54 52q-44 10 -98 10q-100 0 -100 82q0 34 25 56t64 22q86 0 146.5 -72t60.5 -167q0 -79 -22.5 -113t-82.5 -59l-34 -14q-19 -8 -27 -17.5t-8 -28.5v-46q0 -18 -18 -18h-24zM133 -14
q-34 0 -56 20.5t-22 56.5q0 35 23 56.5t56 21.5t55 -21.5t22 -56.5q0 -34 -22 -55.5t-56 -21.5z" />
    <glyph glyph-name="at" unicode="@" horiz-adv-x="905" 
d="M628 -160q-82 -43 -213 -43q-171 0 -264.5 90.5t-93.5 245.5q0 204 130.5 331.5t328.5 127.5q150 0 241 -80.5t91 -221.5q0 -129 -69.5 -214.5t-174.5 -85.5q-118 0 -122 90v6v7q-23 -45 -61.5 -74t-88.5 -29q-47 0 -72.5 29.5t-25.5 83.5q0 62 34 137t93.5 131t121.5 56
q51 0 66 -40l5 15q4 11 8 14t15 3h83q16 0 10 -19q-54 -183 -71 -269q-5 -28 -5 -44q0 -46 39 -46q59 0 105.5 75.5t46.5 169.5q0 120 -72.5 186.5t-199.5 66.5q-167 0 -278.5 -113.5t-111.5 -286.5q0 -136 76.5 -212.5t220.5 -76.5q98 0 185 35q17 6 22 -5l8 -19
q6 -14 -7 -21zM493 385q-36 0 -68 -52t-48 -114.5t-16 -107.5q0 -51 32 -51q22 0 46.5 28.5t43.5 73.5q14 33 24 69q8 27 14 60q17 94 -28 94z" />
    <glyph glyph-name="A" unicode="A" horiz-adv-x="762" 
d="M252 14q0 -14 -15 -14h-208q-19 0 -19 14v19q0 17 17 17h6q47 3 81 90l179 462l-4 14q-5 19 11 29q42 25 76 56q14 13 28 13q18 0 24 -17l236 -582q15 -36 27 -50.5t34 -14.5h4q14 0 18.5 -3.5t4.5 -12.5v-16q0 -18 -21 -18h-300q-14 0 -18.5 3.5t-4.5 12.5v16
q0 18 21 18h6q34 0 50.5 16t3.5 49l-45 114h-232l-33 -89q-33 -90 49 -90h10q14 0 14 -16v-20zM230 278h195l-100 257z" />
    <glyph glyph-name="B" unicode="B" horiz-adv-x="753" 
d="M700 208q0 -208 -301 -208h-335q-14 0 -18.5 3.5t-4.5 12.5v16q0 18 21 18h6q32 0 46.5 15t14.5 50v470q0 35 -14.5 50t-46.5 15h-6q-21 0 -21 18v16q0 9 4.5 12.5t18.5 3.5h336q134 0 200 -37.5t66 -125.5q0 -125 -130 -157q79 -10 121.5 -53.5t42.5 -118.5zM301 630
v-241l75 1q58 1 85.5 37t27.5 91q0 62 -29 97.5t-85 35.5h-52q-22 0 -22 -21zM378 49h25q57 0 86.5 42.5t29.5 111.5q0 74 -37 106.5t-114 31.5l-67 -1v-198q0 -51 17 -72t60 -21z" />
    <glyph glyph-name="C" unicode="C" horiz-adv-x="793" 
d="M450 -14q-177 0 -287.5 96t-110.5 263q0 90 31.5 161.5t86 116t123 68t145.5 23.5q96 0 181 -47q14 -7 20 -7q9 0 15 11l12 22q6 11 16 11h15q13 0 13 -14l3 -197q0 -18 -14 -18h-21q-16 0 -21 14q-57 170 -203 170q-103 0 -159 -84t-56 -214q0 -88 21 -157.5t73 -116.5
t130 -47q75 0 127 43t73 123q2 10 6 14t14 4h20q15 0 15 -16l-3 -199q0 -15 -14 -15h-15q-14 0 -18 12l-10 26q-4 11 -13 11q-6 0 -19 -7q-81 -50 -176 -50z" />
    <glyph glyph-name="D" unicode="D" horiz-adv-x="870" 
d="M64 0q-14 0 -18.5 3.5t-4.5 12.5v16q0 18 21 18h6q32 0 46.5 15t14.5 50v470q0 35 -14.5 50t-46.5 15h-6q-21 0 -21 18v16q0 9 4.5 12.5t18.5 3.5h353q193 0 297 -87t104 -239q0 -166 -107 -270t-281 -104h-366zM305 144q0 -52 17 -73t60 -21h35q56 0 99 26t67 70
t36 95.5t12 107.5q0 136 -57.5 218.5t-174.5 82.5h-72q-22 0 -22 -21v-485z" />
    <glyph glyph-name="E" unicode="E" horiz-adv-x="715" 
d="M647 28q-3 -17 -10.5 -22.5t-24.5 -5.5h-548q-14 0 -18.5 3.5t-4.5 12.5v16q0 18 21 18h6q32 0 46.5 15t14.5 50v470q0 35 -14.5 50t-46.5 15h-6q-21 0 -21 18v16q0 9 4.5 12.5t18.5 3.5h532q17 0 23 -6t8 -21l20 -129q3 -18 -10 -21l-14 -4q-15 -4 -22 9q-5 9 -14 25.5
t-14 25.5q-20 37 -49 54t-80 17h-117q-22 0 -22 -21v-241h92q82 0 82 84v6q0 11 3.5 14.5t12.5 3.5h17q14 0 14 -18v-223q0 -16 -14 -16h-17q-17 0 -17 19v7q-2 39 -20.5 56.5t-62.5 17.5h-90v-195q0 -52 17 -73t60 -21h57q101 0 163 98q6 9 15.5 25.5t12.5 22.5q6 11 21 8
l12 -3q14 -3 11 -19z" />
    <glyph glyph-name="F" unicode="F" horiz-adv-x="683" 
d="M408 18q0 -18 -21 -18h-323q-14 0 -18.5 3.5t-4.5 12.5v16q0 18 21 18h6q32 0 46.5 15t14.5 50v470q0 35 -14.5 50t-46.5 15h-6q-21 0 -21 18v16q0 9 4.5 12.5t18.5 3.5h527q17 0 23 -6t8 -21l20 -129q3 -18 -10 -21l-14 -4q-15 -4 -22 9q-5 9 -14 25t-14 25
q-20 37 -49 54.5t-80 17.5h-112q-22 0 -22 -21v-251h90q81 0 81 81v7q0 16 16 16h17q14 0 14 -18v-216q0 -16 -14 -16h-16q-17 0 -17 20v7q0 38 -19.5 54t-64.5 16h-87v-214q0 -65 73 -65h7q14 0 18.5 -3.5t4.5 -12.5v-16z" />
    <glyph glyph-name="G" unicode="G" horiz-adv-x="833" 
d="M443 714q90 0 176 -47q14 -7 20 -7q8 0 15 11l12 22q6 11 16 11h15q13 0 13 -14l3 -195q0 -18 -14 -18h-22q-17 0 -21 14q-57 168 -203 168q-104 0 -159.5 -83t-55.5 -220q0 -139 56 -227.5t160 -88.5q71 0 103 34t32 106v16q0 45 -12 63.5t-46 18.5h-15q-23 0 -23 15v19
q0 16 18 16h275q17 0 17 -16v-18q0 -16 -16 -16h-18q-22 0 -30 -13.5t-8 -45.5v-101q0 -25 -4.5 -34.5t-20.5 -22.5q-42 -32 -110.5 -53.5t-149.5 -21.5t-150.5 21t-125 63t-87 111.5t-31.5 158.5q0 178 110.5 276t280.5 98z" />
    <glyph glyph-name="H" unicode="H" horiz-adv-x="928" 
d="M393 18q0 -18 -21 -18h-308q-14 0 -18.5 3.5t-4.5 12.5v16q0 18 21 18h6q32 0 46.5 15t14.5 50v470q0 35 -14.5 50t-46.5 15h-6q-21 0 -21 18v16q0 9 4.5 12.5t18.5 3.5h308q21 0 21 -18v-16q0 -9 -4.5 -12.5t-18.5 -3.5h-7q-58 0 -58 -65v-197h318v197q0 35 -14.5 50
t-46.5 15h-6q-21 0 -21 18v16q0 9 4.5 12.5t18.5 3.5h308q21 0 21 -18v-16q0 -9 -4.5 -12.5t-18.5 -3.5h-7q-58 0 -58 -65v-470q0 -65 58 -65h7q14 0 18.5 -3.5t4.5 -12.5v-16q0 -18 -21 -18h-308q-14 0 -18.5 3.5t-4.5 12.5v16q0 18 21 18h6q32 0 46.5 15t14.5 50v223h-318
v-223q0 -65 58 -65h7q14 0 18.5 -3.5t4.5 -12.5v-16z" />
    <glyph glyph-name="I" unicode="I" horiz-adv-x="434" 
d="M129 115v470q0 35 -14.5 50t-46.5 15h-6q-21 0 -21 18v16q0 9 4.5 12.5t18.5 3.5h308q21 0 21 -18v-16q0 -9 -4.5 -12.5t-18.5 -3.5h-7q-58 0 -58 -65v-470q0 -65 58 -65h7q14 0 18.5 -3.5t4.5 -12.5v-16q0 -18 -21 -18h-308q-14 0 -18.5 3.5t-4.5 12.5v16q0 18 21 18h6
q32 0 46.5 15t14.5 50z" />
    <glyph glyph-name="J" unicode="J" horiz-adv-x="396" 
d="M114 585q0 36 -15 50.5t-52 14.5h-10q-21 0 -21 18v16q0 9 4.5 12.5t18.5 3.5h316q21 0 21 -18v-16q0 -9 -4.5 -12.5t-18.5 -3.5h-7q-58 0 -58 -65v-608q0 -122 -72.5 -193.5t-176.5 -71.5q-64 0 -101.5 25t-37.5 69q0 34 21 54.5t54 20.5q28 0 45 -18.5t17 -50.5
q0 -8 -1 -19t-1 -15q0 -23 20 -23q28 0 43.5 32.5t15.5 87.5v710z" />
    <glyph glyph-name="K" unicode="K" horiz-adv-x="838" 
d="M386 18q0 -18 -21 -18h-301q-14 0 -18.5 3.5t-4.5 12.5v16q0 18 21 18h6q32 0 46.5 15t14.5 50v470q0 35 -14.5 50t-46.5 15h-6q-21 0 -21 18v16q0 9 4.5 12.5t18.5 3.5h308q21 0 21 -18v-16q0 -9 -4.5 -12.5t-18.5 -3.5h-7q-58 0 -58 -65v-200h56l178 168
q40 38 33.5 67.5t-51.5 29.5h-11q-17 0 -17 14v22q0 14 15 14h280q16 0 16 -13v-17q0 -11 -3.5 -15t-17.5 -5q-43 -2 -80 -25t-106 -84l-98 -89l210 -320q19 -29 30 -42t30.5 -25t45.5 -15q13 -1 13 -17v-15q0 -18 -19 -18h-307q-15 0 -15 16v18q0 16 14 16h8q46 0 11 54
l-148 231h-67v-220q0 -35 11.5 -50t39.5 -15h7q14 0 18.5 -3.5t4.5 -12.5v-16z" />
    <glyph glyph-name="L" unicode="L" horiz-adv-x="742" 
d="M64 0q-14 0 -18.5 3.5t-4.5 12.5v16q0 18 21 18h6q32 0 46.5 15t14.5 50v470q0 35 -14.5 50t-46.5 15h-6q-21 0 -21 18v16q0 9 4.5 12.5t18.5 3.5h308q21 0 21 -18v-16q0 -9 -4.5 -12.5t-18.5 -3.5h-7q-58 0 -58 -65v-441q0 -52 17 -73t60 -21h68q63 0 99.5 27t68.5 86
q5 8 32 63q7 15 21 12l20 -4q13 -3 10 -17l-30 -189q-3 -17 -10.5 -22.5t-24.5 -5.5h-572z" />
    <glyph glyph-name="M" unicode="M" horiz-adv-x="1013" 
d="M283 12q0 -12 -14 -12h-231q-17 0 -17 13v21q0 14 15 14h12q44 0 59.5 45.5t15.5 146.5v345q0 35 -14.5 50t-46.5 15h-6q-21 0 -21 18v16q0 9 4.5 12.5t18.5 3.5h226q15 0 22.5 -5t12.5 -17l198 -441l190 438q6 14 13.5 19.5t22.5 5.5h203q21 0 21 -18v-16q0 -16 -16 -16
h-13q-31 0 -42.5 -14t-11.5 -51v-470q0 -65 58 -65h7q14 0 18.5 -3.5t4.5 -12.5v-16q0 -18 -21 -18h-301q-14 0 -18.5 3.5t-4.5 12.5v16q0 18 21 18h6q32 0 46.5 15t14.5 50v443l-233 -527q-5 -13 -26 -13t-28 14l-248 535v-326q0 -103 13.5 -148t53.5 -45h12q14 0 19 -3
t5 -13v-20z" />
    <glyph glyph-name="N" unicode="N" horiz-adv-x="812" 
d="M299 14q0 -14 -15 -14h-252q-18 0 -18 15v18q0 15 17 17l12 1q45 4 62.5 41t17.5 134v330q0 48 -24.5 71t-60.5 23h-2q-21 0 -21 18v15q0 10 4 13.5t18 3.5h194q31 0 50 -22l366 -429v252q0 77 -19 111t-57 37l-12 1q-22 1 -22 17v16q0 17 18 17h234q11 0 15 -3.5
t4 -12.5v-17q0 -9 -3.5 -12.5t-15.5 -4.5l-10 -1q-40 -4 -57.5 -37t-17.5 -113v-480q0 -19 -19 -19h-45q-14 0 -26 13l-434 511v-298q0 -96 19.5 -133t69.5 -42l11 -1q11 -1 15 -4.5t4 -12.5v-19z" />
    <glyph glyph-name="O" unicode="O" horiz-adv-x="875" 
d="M823 368q0 -173 -106.5 -277.5t-280.5 -104.5q-169 0 -276.5 96.5t-107.5 268.5q0 170 110 266.5t280 96.5q164 0 272.5 -92t108.5 -254zM638 328q0 149 -52.5 240.5t-154.5 91.5q-93 0 -143.5 -76t-50.5 -184q0 -165 56 -262.5t163 -97.5q42 0 74.5 18.5t52.5 47.5
t32.5 68.5t17.5 77t5 76.5z" />
    <glyph glyph-name="P" unicode="P" horiz-adv-x="711" 
d="M408 18q0 -18 -21 -18h-323q-14 0 -18.5 3.5t-4.5 12.5v16q0 18 21 18h6q32 0 46.5 15t14.5 50v470q0 35 -14.5 50t-46.5 15h-6q-21 0 -21 18v16q0 9 4.5 12.5t18.5 3.5h328q274 0 274 -195q0 -110 -78.5 -161t-206.5 -51q-24 0 -76 2v-180q0 -65 73 -65h7
q14 0 18.5 -3.5t4.5 -12.5v-16zM305 629v-282q32 -2 48 -2q70 0 103 42.5t33 115.5q0 147 -122 147h-40q-22 0 -22 -21z" />
    <glyph glyph-name="Q" unicode="Q" horiz-adv-x="880" 
d="M1297 -166q-100 -112 -233 -112q-73 0 -149.5 18.5t-199.5 67.5q-111 45 -419 198q-114 37 -179 124t-65 221q0 170 110.5 266.5t279.5 96.5q163 0 272 -89t109 -252q0 -135 -60 -229t-171 -133q40 -14 112 -41.5t106 -39.5q252 -89 345 -89q63 0 112 29q13 8 23 -2
l9 -10q10 -10 -2 -24zM638 328q0 149 -52.5 240.5t-154.5 91.5q-93 0 -143.5 -76t-50.5 -184q0 -165 56 -262.5t163 -97.5q42 0 74.5 18.5t52.5 47.5t32.5 68.5t17.5 77t5 76.5z" />
    <glyph glyph-name="R" unicode="R" horiz-adv-x="789" 
d="M390 18q0 -18 -21 -18h-305q-14 0 -18.5 3.5t-4.5 12.5v16q0 18 21 18h6q32 0 46.5 15t14.5 50v470q0 35 -14.5 50t-46.5 15h-6q-21 0 -21 18v16q0 9 4.5 12.5t18.5 3.5h330q269 0 269 -169q0 -65 -40 -111t-112 -65q23 -17 46 -50l133 -204q17 -27 32.5 -38.5
t40.5 -13.5q16 -1 16 -16v-17q0 -16 -17 -16h-194q-19 0 -29 15l-168 279q-10 17 -20 23.5t-30 6.5h-19v-209q0 -65 58 -65h7q14 0 18.5 -3.5t4.5 -12.5v-16zM302 629v-255h45q67 0 102.5 40t35.5 107q0 129 -127 129h-34q-22 0 -22 -21z" />
    <glyph glyph-name="S" unicode="S" horiz-adv-x="625" 
d="M324 660q-47 0 -78.5 -24.5t-31.5 -64.5q0 -45 35 -71.5t116 -59.5q113 -45 159 -95t46 -141q0 -95 -65.5 -155.5t-174.5 -60.5q-95 0 -172 43q-10 6 -16 6q-9 0 -13 -12l-6 -17q-4 -14 -18 -14h-17q-16 0 -16 17l-1 189q0 19 18 19h17q15 0 19 -13q56 -166 196 -166
q53 0 82 28.5t29 71.5q0 48 -32.5 79t-111.5 62q-112 44 -161 90t-49 132q0 99 69 154t172 55q77 0 145 -36q10 -5 16 -5t11 9l8 16q6 12 18 12h14q13 0 13 -14l3 -168q0 -21 -15 -21h-17q-17 0 -21 12q-42 143 -170 143z" />
    <glyph glyph-name="T" unicode="T" horiz-adv-x="853" 
d="M317 650h-60q-50 0 -82 -26t-61 -77l-24 -42q-8 -14 -24 -10l-17 5q-12 4 -8 24l38 174q3 16 17 16q5 0 39 -7t58 -7h468q29 0 63 7t38 7q12 0 15 -14l35 -175q2 -14 -12 -20l-13 -5q-17 -7 -26 10q-2 3 -18 31q-19 33 -29.5 47.5t-27.5 32t-37 23.5t-48 6h-64
q-22 0 -22 -21v-514q0 -65 58 -65h7q14 0 18.5 -3.5t4.5 -12.5v-16q0 -18 -21 -18h-308q-14 0 -18.5 3.5t-4.5 12.5v16q0 18 21 18h6q32 0 46.5 15t14.5 50v514q0 21 -22 21z" />
    <glyph glyph-name="U" unicode="U" horiz-adv-x="811" 
d="M702 283q0 -297 -274 -297q-155 0 -237.5 61t-82.5 211v327q0 35 -14.5 50t-46.5 15h-6q-21 0 -21 18v16q0 9 4.5 12.5t18.5 3.5h308q21 0 21 -18v-16q0 -9 -4.5 -12.5t-18.5 -3.5h-7q-58 0 -58 -65v-304q0 -119 40 -174t135 -55q92 0 138.5 59t46.5 158v271
q0 58 -13.5 82.5t-50.5 26.5l-16 1q-13 1 -17.5 4t-4.5 13v17q0 16 16 16h225q16 0 16 -13v-21q0 -15 -20 -16l-12 -1q-35 -3 -50 -28.5t-15 -78.5v-259z" />
    <glyph glyph-name="V" unicode="V" horiz-adv-x="749" 
d="M427 18q-7 -18 -24 -18h-20q-19 0 -27 18l-258 567q-16 34 -28.5 49.5t-32.5 15.5h-6q-21 0 -21 18v16q0 9 4.5 12.5t18.5 3.5h310q21 0 21 -18v-16q0 -9 -4.5 -12.5t-18.5 -3.5h-7q-77 0 -48 -65l162 -364l121 326q19 46 14 72.5t-39 29.5l-13 1q-19 1 -19 15v22
q0 13 14 13h197q16 0 16 -18v-14q0 -16 -15 -18l-6 -1q-51 -8 -92 -112z" />
    <glyph glyph-name="W" unicode="W" horiz-adv-x="1144" 
d="M411 19q-8 -19 -27 -19h-16q-17 0 -26 19l-239 566q-28 65 -66 65h-6q-21 0 -21 18v16q0 9 4.5 12.5t18.5 3.5h306q21 0 21 -18v-16q0 -9 -4.5 -12.5t-18.5 -3.5h-7q-35 0 -43.5 -14t5.5 -51l144 -361l124 314l-20 47q-28 65 -66 65h-6q-21 0 -21 18v16q0 9 4.5 12.5
t18.5 3.5h294q21 0 21 -18v-16q0 -9 -4.5 -12.5t-18.5 -3.5h-7q-35 0 -43.5 -13.5t5.5 -51.5l133 -357l117 322q8 22 11 37.5t2 30t-11 22.5t-28 9l-14 1q-19 1 -19 16v19q0 15 16 15h194q16 0 16 -18v-14q0 -16 -15 -18l-7 -1q-28 -4 -46.5 -26t-37.5 -73l-197 -532
q-7 -18 -27 -18h-15q-19 0 -27 18l-174 444z" />
    <glyph glyph-name="X" unicode="X" horiz-adv-x="777" 
d="M278 14q0 -14 -18 -14h-234q-16 0 -16 18v14q0 17 15 18q40 2 71.5 25t67.5 72l136 190l-169 248q-26 38 -43 51.5t-47 13.5q-21 0 -21 18v16q0 9 4.5 12.5t18.5 3.5h314q21 0 21 -18v-16q0 -9 -4.5 -12.5t-18.5 -3.5h-7q-26 0 -31.5 -15.5t16.5 -49.5l100 -146l94 139
q12 18 14 34t-7 26.5t-28 11.5l-16 1q-17 1 -17 14v21q0 14 18 14h225q16 0 16 -18v-13q0 -17 -15 -18q-72 -6 -134 -93l-119 -164l190 -279q26 -38 46 -51.5t46 -13.5q21 0 21 -18v-16q0 -9 -4.5 -12.5t-18.5 -3.5h-330q-21 0 -21 18v16q0 9 4.5 12.5t18.5 3.5h7
q74 0 29 65l-120 175l-114 -166q-20 -28 -13 -50t40 -24l16 -1q17 -1 17 -14v-21z" />
    <glyph glyph-name="Y" unicode="Y" horiz-adv-x="746" 
d="M565 13q0 -8 -3.5 -10.5t-14.5 -2.5h-328q-16 0 -16 14v18q0 10 4 13.5t14 3.5h14q62 0 62 65v172l-180 299q-22 37 -39 51t-47 14q-21 0 -21 18v16q0 9 4.5 12.5t18.5 3.5h319q21 0 21 -18v-16q0 -9 -4.5 -12.5t-18.5 -3.5h-7q-32 0 -42 -15t8 -50l133 -226l116 213
q18 31 13 54t-33 24l-16 1q-17 1 -17 17v16q0 16 18 16h197q16 0 16 -18v-14q0 -16 -15 -18q-33 -4 -56.5 -25.5t-49.5 -66.5l-144 -253v-191q0 -34 14.5 -49.5t46.5 -15.5h16q17 0 17 -14v-22z" />
    <glyph glyph-name="Z" unicode="Z" horiz-adv-x="709" 
d="M58 50l379 577q15 23 -6 23h-116q-72 0 -108 -20.5t-69 -72.5q-8 -13 -21 -34t-16 -26q-9 -14 -24 -10l-15 4q-14 4 -10 19l38 161q4 18 12 23.5t28 5.5h502q16 0 16 -16v-8q0 -11 -9 -26l-380 -581q-13 -19 9 -19h152q67 0 107 24t68 77q10 19 23 45q8 17 26 13l13 -3
q14 -4 11 -19l-33 -157q-4 -18 -11.5 -24t-29.5 -6h-528q-16 0 -16 16v8q0 15 8 26z" />
    <glyph glyph-name="bracketleft" unicode="[" horiz-adv-x="334" 
d="M288 693h-146v-914h146q11 0 14.5 -2.5t3.5 -13.5v-25q0 -10 -3.5 -13t-15.5 -3h-201q-13 0 -16.5 3t-3.5 13v995q0 11 3.5 14t16.5 3h201q12 0 15.5 -3t3.5 -14v-25q0 -10 -3.5 -12.5t-14.5 -2.5z" />
    <glyph glyph-name="backslash" unicode="\" horiz-adv-x="562" 
d="M67 746l23 10q15 6 22 -10l403 -1001q5 -15 -11 -21l-21 -9q-17 -7 -23 9l-403 1000q-6 15 10 22z" />
    <glyph glyph-name="bracketright" unicode="]" horiz-adv-x="334" 
d="M46 693q-11 0 -14.5 2.5t-3.5 12.5v25q0 11 3.5 14t15.5 3h201q13 0 16.5 -3t3.5 -14v-995q0 -10 -3.5 -13t-16.5 -3h-201q-12 0 -15.5 3t-3.5 13v25q0 11 3.5 13.5t14.5 2.5h146v914h-146z" />
    <glyph glyph-name="asciicircum" unicode="^" horiz-adv-x="510" 
d="M117 369q-7 -12 -22 -12h-35q-16 0 -8 15l167 318q6 10 17 10h40q11 0 17 -10l165 -318q8 -15 -8 -15h-36q-15 0 -21 11l-138 270z" />
    <glyph glyph-name="underscore" unicode="_" horiz-adv-x="490" 
d="M6 -278q-7 0 -9 2t-2 9v48q0 7 2 9t9 2h478q11 0 11 -11v-48q0 -7 -2 -9t-9 -2h-478z" />
    <glyph glyph-name="grave" unicode="`" horiz-adv-x="345" 
d="M265 575l-180 75q-38 16 -38 53q0 23 15.5 41t39.5 18q26 0 50 -22l138 -130q9 -9 2 -19l-8 -12q-6 -9 -19 -4z" />
    <glyph glyph-name="a" unicode="a" horiz-adv-x="575" 
d="M426 -10q-45 0 -71.5 23.5t-33.5 62.5q-62 -87 -155 -87q-52 0 -85.5 32t-33.5 83q0 32 12.5 57.5t38 44t48 30t58.5 25.5q82 32 109 45l1 77q0 93 -76 93q-45 0 -45 -42q0 -3 0.5 -21t0.5 -28q0 -39 -22 -59t-61 -20q-32 0 -50 17.5t-18 47.5q0 62 85 112t183 50
q79 0 121 -35t41 -103l-3 -264q0 -45 27 -45q23 0 42 46q4 10 15 7l13 -4q10 -3 7 -14q-15 -61 -52 -96t-96 -35zM203 149q0 -28 15.5 -45.5t41.5 -17.5q29 0 52 23l1 153q-45 -21 -51 -24q-59 -30 -59 -89z" />
    <glyph glyph-name="b" unicode="b" horiz-adv-x="656" 
d="M621 286q0 -128 -79 -212t-194 -84q-93 0 -163 58l-52 -46q-8 -7 -19 -7h-11q-12 0 -12 13v614q0 29 -24 32l-35 4q-12 1 -12 14v13q0 12 11 15l201 58q8 3 14 -1l7 -4q5 -3 5 -11v-278q73 67 155 67q101 0 154.5 -69.5t53.5 -175.5zM258 121q0 -34 22.5 -56.5
t54.5 -22.5q106 0 106 218q0 44 -9 81.5t-34.5 67t-64.5 29.5q-40 0 -75 -21v-296z" />
    <glyph glyph-name="c" unicode="c" horiz-adv-x="545" 
d="M293 -10q-106 0 -182 67.5t-76 192.5q0 132 77 206.5t202 74.5q83 0 137 -41t54 -96q0 -35 -20 -53t-52 -18q-65 0 -79 72q-1 5 -4 21.5t-5 25.5q-9 37 -41 37q-46 0 -69.5 -53.5t-23.5 -128.5q0 -99 39.5 -151t109.5 -52q73 0 114 61q7 12 17 7l18 -8q10 -5 3 -21
q-26 -63 -81 -103t-138 -40z" />
    <glyph glyph-name="d" unicode="d" horiz-adv-x="655" 
d="M407 9v61q-21 -30 -66 -55t-91 -25q-95 0 -155 72.5t-60 186.5q0 137 74.5 209.5t193.5 72.5q52 0 98 -22v110q0 31 -24 32l-48 4q-13 1 -13 13v16q0 13 11 16l215 58q8 3 14 -1l7 -4q5 -3 5 -11v-640q0 -19 13 -24l38 -15q12 -5 12 -19v-5q0 -15 -14 -17l-186 -30
q-7 -1 -14 3l-5 3q-5 4 -5 11zM326 76q25 0 46.5 13.5t28.5 30.5v189q0 170 -83 170q-105 0 -105 -207q0 -83 29.5 -139.5t83.5 -56.5z" />
    <glyph glyph-name="e" unicode="e" horiz-adv-x="563" 
d="M515 133q-26 -64 -83 -103.5t-141 -39.5q-107 0 -181.5 70t-74.5 196q0 130 76.5 202.5t190.5 72.5q95 0 161 -58t65 -154q0 -28 -22 -28h-295q1 -92 42.5 -144.5t109.5 -52.5q75 0 114 61q7 12 17 7l18 -8q9 -4 3 -21zM292 482q-32 0 -53.5 -38.5t-26.5 -107.5h109
q29 0 29 40q0 106 -58 106z" />
    <glyph glyph-name="f" unicode="f" horiz-adv-x="431" 
d="M334 16q0 -9 -3.5 -12.5t-13.5 -3.5h-261q-10 0 -13.5 3.5t-3.5 12.5v14q0 14 15 17l11 2q22 4 30.5 18.5t8.5 46.5v323h-62q-13 0 -9 14l15 56q4 14 16 14h40v21q0 88 59 153t153 65q45 0 72.5 -21t27.5 -56q0 -24 -14 -38.5t-36 -14.5q-43 0 -50 55q-4 31 -17 31
q-18 0 -24 -34t-6 -106v-55h110q12 0 9 -13l-13 -57q-3 -14 -17 -14h-89v-323q0 -32 8.5 -46.5t30.5 -18.5l11 -2q15 -3 15 -17v-14z" />
    <glyph glyph-name="g" unicode="g" horiz-adv-x="622" 
d="M595 -79q0 -104 -81.5 -156.5t-230.5 -52.5q-52 0 -97 6.5t-85 21t-63.5 41.5t-23.5 64q0 77 116 102q-37 8 -60 40t-23 68q0 87 100 132q-94 49 -94 154q0 90 70 140t181 50q87 0 146 -38q54 46 110 46q28 0 44.5 -15t16.5 -39q0 -18 -11 -31t-29 -13q-24 0 -42 23
q-14 19 -26 19q-14 0 -33 -14q50 -48 50 -122q0 -87 -66.5 -138.5t-171.5 -51.5q-58 0 -105 14q-28 -14 -28 -47q0 -45 69 -45h163q204 0 204 -158zM366 333q0 146 -73 146q-38 0 -56.5 -37t-18.5 -90q0 -61 19 -102t59 -41q38 0 54.5 36t15.5 88zM473 -133q0 38 -25.5 52
t-84.5 14h-130q-49 0 -79 -17.5t-30 -51.5q0 -52 49.5 -77.5t126.5 -25.5q76 0 124.5 28.5t48.5 77.5z" />
    <glyph glyph-name="h" unicode="h" horiz-adv-x="679" 
d="M91 622q0 29 -24 32l-35 4q-12 1 -12 13v13q0 13 11 16l201 58q8 3 14 -1l7 -4q5 -3 5 -11v-312q32 43 81 72t99 29q71 0 113.5 -41.5t42.5 -114.5v-261q0 -32 7.5 -47t27.5 -18l7 -1q23 -3 23 -16v-14q0 -18 -21 -18h-253q-12 0 -15.5 3.5t-3.5 12.5v14q0 15 17 18l6 1
q21 4 29.5 19t8.5 46v240q0 35 -19.5 54t-52.5 19q-45 0 -97 -39v-274q0 -60 35 -65l7 -1q19 -3 19 -16v-14q0 -18 -17 -18h-253q-14 0 -18.5 3.5t-4.5 12.5v14q0 9 4.5 12.5t16.5 5.5l6 1q22 4 30 18.5t8 46.5v508z" />
    <glyph glyph-name="i" unicode="i" horiz-adv-x="353" 
d="M177 596q-33 0 -56 22t-23 55q0 34 23 56t56 22q34 0 55.5 -22t21.5 -56t-21.5 -55.5t-55.5 -21.5zM101 394q0 29 -24 32l-32 4q-12 1 -12 13v13q0 13 11 16l198 58q8 3 14 -1l7 -4q5 -3 5 -11v-400q0 -60 36 -65l13 -2q16 -2 16 -16v-15q0 -10 -3.5 -13t-14.5 -3h-262
q-10 0 -13.5 3.5t-3.5 12.5v14q0 14 15 17l11 2q22 4 30.5 18.5t8.5 46.5v280z" />
    <glyph glyph-name="j" unicode="j" horiz-adv-x="340" 
d="M171 596q-33 0 -56 22t-23 55q0 34 23 56t56 22q34 0 55.5 -22t21.5 -56t-21.5 -55.5t-55.5 -21.5zM97 394q0 29 -24 32l-32 4q-12 1 -12 13v13q0 13 11 16l198 58q8 3 14 -1l7 -4q5 -3 5 -11v-521q0 -124 -78 -202.5t-188 -78.5q-43 0 -75.5 19.5t-32.5 56.5
q0 28 16.5 44t45.5 16q32 0 61 -41q23 -35 41 -35q43 0 43 102v520z" />
    <glyph glyph-name="k" unicode="k" horiz-adv-x="660" 
d="M311 18q0 -18 -17 -18h-245q-14 0 -18.5 3.5t-4.5 12.5v14q0 9 4.5 12.5t16.5 5.5l6 1q22 4 30 18.5t8 46.5v508q0 29 -24 32l-35 4q-12 1 -12 13v13q0 13 11 16l201 58q8 3 14 -1l7 -4q5 -3 5 -11v-448h30l115 106q29 28 22.5 49t-37.5 23l-11 1q-21 1 -21 16v14
q0 18 21 18h220q14 0 18.5 -3.5t4.5 -12.5v-14q0 -9 -4 -12.5t-16 -5.5q-50 -10 -138 -86l-52 -44l151 -229q1 -2 6.5 -10t7.5 -10.5t7.5 -10t8.5 -10.5t8 -8.5t9.5 -8t10 -5t10.5 -3.5q12 -2 16.5 -5.5t4.5 -12.5v-14q0 -9 -4.5 -12.5t-18.5 -3.5h-243q-21 0 -21 18v14
q0 14 16 16l7 1q35 5 -8 65l-82 128h-38v-128q0 -62 27 -65l7 -1q19 -3 19 -16v-14z" />
    <glyph glyph-name="l" unicode="l" horiz-adv-x="344" 
d="M91 622q0 29 -24 32l-35 4q-12 1 -12 13v13q0 13 11 16l201 58q8 3 14 -1l7 -4q5 -3 5 -11v-628q0 -60 36 -65l13 -2q16 -2 16 -16v-15q0 -10 -3.5 -13t-14.5 -3h-262q-10 0 -13.5 3.5t-3.5 12.5v14q0 14 15 17l11 2q22 4 30.5 18.5t8.5 46.5v508z" />
    <glyph glyph-name="m" unicode="m" horiz-adv-x="989" 
d="M101 394q0 29 -24 32l-32 4q-12 1 -12 13v13q0 13 11 16l195 58q8 3 14 -1l7 -4q5 -3 5 -11v-83q72 100 169 100q107 0 145 -101q79 101 173 101q70 0 111 -41.5t41 -114.5v-261q0 -31 7.5 -46.5t27.5 -18.5l7 -1q23 -3 23 -16v-14q0 -18 -21 -18h-247q-12 0 -15.5 3.5
t-3.5 12.5v14q0 15 17 18l6 1q19 4 25.5 18.5t6.5 46.5v240q0 73 -64 73q-41 0 -87 -39v-274q0 -34 4.5 -48.5t20.5 -16.5l7 -1q19 -3 19 -16v-14q0 -18 -17 -18h-233q-12 0 -15.5 3.5t-3.5 12.5v14q0 15 17 18l6 1q18 3 23 17t5 48v240q0 73 -65 73q-43 0 -86 -38v-275
q0 -32 6 -47.5t23 -17.5l7 -1q19 -3 19 -16v-14q0 -18 -17 -18h-247q-14 0 -18.5 3.5t-4.5 12.5v14q0 9 4.5 12.5t16.5 5.5l6 1q22 4 30 18.5t8 46.5v280z" />
    <glyph glyph-name="n" unicode="n" horiz-adv-x="677" 
d="M57 0q-21 0 -21 15v15q0 14 15 17l13 2q22 4 29.5 18.5t7.5 46.5v280q0 29 -24 32l-32 4q-12 1 -12 13v13q0 13 11 16l195 58q8 3 14 -1l7 -4q5 -3 5 -11v-84q29 42 78 71.5t98 29.5q69 0 110 -41.5t41 -111.5v-264q0 -60 36 -65l13 -2q16 -2 16 -16v-15q0 -10 -3.5 -13
t-14.5 -3h-252q-10 0 -13.5 3.5t-3.5 12.5v14q0 14 15 17l6 1q21 4 27.5 18.5t6.5 47.5v240q0 73 -67 73q-46 0 -90 -39v-274q0 -33 5.5 -47t23.5 -18l11 -2q15 -3 15 -16v-13q0 -18 -19 -18h-247z" />
    <glyph glyph-name="o" unicode="o" 
d="M311 -10q-123 0 -199.5 69.5t-76.5 204.5q0 120 82 193.5t201 73.5q125 0 199.5 -73.5t74.5 -193.5q0 -124 -76 -199t-205 -75zM324 42q90 0 90 187q0 250 -103 250q-27 0 -47 -17.5t-30.5 -46.5t-15.5 -59.5t-5 -62.5q0 -47 5.5 -89t18 -80t35 -60t52.5 -22z" />
    <glyph glyph-name="p" unicode="p" horiz-adv-x="657" 
d="M92 394q0 29 -24 32l-32 4q-12 1 -12 13v13q0 13 11 16l195 58q8 3 14 -1l7 -4q5 -3 5 -11v-53q75 70 156 70q98 0 154 -67.5t56 -175.5q0 -130 -79.5 -214t-190.5 -84q-51 0 -93 15v-169q0 -32 8.5 -46t36.5 -18l24 -3q16 -2 16 -16v-15q0 -10 -3.5 -13t-14.5 -3h-282
q-10 0 -13.5 3.5t-3.5 12.5v14q0 14 15 17l11 2q22 4 30.5 18.5t8.5 46.5v558zM259 417v-291q0 -37 20 -60.5t55 -23.5q39 0 64 31.5t34.5 76t9.5 100.5q0 79 -26 133.5t-84 54.5q-39 0 -73 -21z" />
    <glyph glyph-name="q" unicode="q" horiz-adv-x="638" 
d="M623 -260q0 -18 -17 -18h-272q-11 0 -14.5 3t-3.5 13v14q0 15 16 17l24 3q28 4 36.5 18t8.5 46v226q-58 -72 -151 -72q-88 0 -151.5 67.5t-63.5 195.5q0 73 23 128.5t61.5 87t83.5 47t95 15.5q91 0 157 -55l83 55q9 6 17 4l6 -2q7 -2 7 -10v-687q0 -32 6 -47.5t23 -17.5
l7 -1q19 -3 19 -16v-14zM401 119v203q0 74 -22 115.5t-62 41.5q-50 0 -77 -52t-27 -149q0 -91 30 -146.5t81 -55.5q53 0 77 43z" />
    <glyph glyph-name="r" unicode="r" horiz-adv-x="509" 
d="M339 0h-286q-10 0 -13.5 3.5t-3.5 12.5v14q0 14 15 17l11 2q22 4 30.5 18.5t8.5 46.5v280q0 29 -24 32l-32 4q-12 1 -12 13v13q0 13 11 16l195 58q8 3 14 -1l7 -4q5 -3 5 -11v-91q40 55 75 81.5t76 26.5q37 0 56 -22t19 -57q0 -34 -16 -54.5t-45 -20.5q-32 0 -58 28
q-20 20 -36 20q-29 0 -64 -37v-274q0 -32 8.5 -46t36.5 -18l24 -3q16 -2 16 -16v-15q0 -10 -3.5 -13t-14.5 -3z" />
    <glyph glyph-name="s" unicode="s" horiz-adv-x="471" 
d="M65 17q-12 5 -12 19l-3 119q0 14 11 15l14 1q10 1 14 -9q32 -66 60.5 -92.5t76.5 -26.5q82 0 82 61q0 33 -22 51t-75 38q-90 34 -124 70.5t-34 105.5q0 78 56 120t147 42q71 0 133 -20q12 -4 13 -16l7 -110q1 -11 -10 -12l-12 -2q-12 -2 -18 10q-46 97 -117 97
q-69 0 -69 -52q0 -29 20.5 -44t78.5 -38q83 -31 117 -70t34 -101q0 -83 -58.5 -133t-151.5 -50q-91 0 -158 27z" />
    <glyph glyph-name="t" unicode="t" horiz-adv-x="432" 
d="M403 71q-70 -79 -175 -79q-134 0 -134 152v287h-55q-14 0 -14 14v12q0 14 11 20q39 23 90 71.5t85 90.5q9 12 21 12h16q11 0 11 -13v-117h141q12 0 9 -13l-16 -64q-2 -8 -5.5 -10.5t-11.5 -2.5h-117v-270q0 -74 56 -74q32 0 62 18q11 7 19 -3l8 -10q9 -10 -1 -21z" />
    <glyph glyph-name="u" unicode="u" horiz-adv-x="658" 
d="M404 439q0 25 -19 28l-34 4q-15 1 -15 16v16q0 14 14 16l202 12q7 0 11 -3l4 -3q4 -3 4 -10v-413q0 -19 13 -24l38 -15q12 -5 12 -19v-5q0 -15 -14 -17l-185 -30q-7 -1 -14 3l-5 3q-5 4 -5 11v80q-32 -40 -78.5 -69.5t-100.5 -29.5q-70 0 -107.5 41t-37.5 113v295
q0 25 -19 28l-34 4q-15 1 -15 16v16q0 14 14 16l202 12q7 0 11 -3l4 -3q4 -3 4 -10v-350q0 -71 68 -71q48 0 82 37v308z" />
    <glyph glyph-name="v" unicode="v" horiz-adv-x="598" 
d="M344 16q-6 -16 -24 -16h-31q-18 0 -25 16l-187 413q-10 23 -19 31.5t-26 11.5q-11 2 -14 5t-3 13v15q0 9 4 12.5t16 3.5h250q21 0 21 -18v-15q0 -13 -23 -16l-7 -1q-48 -7 -21 -69l100 -229l90 222q27 69 -26 76l-7 1q-23 3 -23 16v15q0 18 21 18h155q14 0 18.5 -3.5
t4.5 -12.5v-15q0 -10 -4 -13t-15 -5q-39 -5 -65 -70z" />
    <glyph glyph-name="w" unicode="w" horiz-adv-x="895" 
d="M329 17q-7 -17 -24 -17h-28q-18 0 -26 17l-164 383q-14 31 -19 41.5t-14 20t-22 11.5q-17 3 -17 18v14q0 16 18 16h240q21 0 21 -18v-14q0 -13 -23 -16l-7 -1q-40 -6 -12 -72l92 -223l85 216l-8 23q-19 53 -53 57q-19 3 -19 18v14q0 9 4.5 12.5t18.5 3.5h234
q11 0 14.5 -4t3.5 -14v-14q0 -9 -4 -11.5t-16 -4.5l-7 -1q-45 -7 -17 -73l90 -221l76 222q10 30 0 50t-33 22l-10 1q-18 2 -18 18v12q0 18 21 18h156q14 0 18.5 -3.5t4.5 -12.5v-14q0 -9 -4.5 -12.5t-15.5 -5.5q-37 -5 -65 -83l-138 -373q-6 -17 -23 -17h-28q-20 0 -27 17
l-129 312z" />
    <glyph glyph-name="x" unicode="x" horiz-adv-x="604" 
d="M227 18q0 -10 -3 -14t-14 -4h-172q-14 0 -18.5 3.5t-4.5 12.5v13q0 9 4.5 13t16.5 6q42 8 90 70l101 129l-139 186q-17 22 -27 30t-24 10q-10 2 -13 5t-3 13v14q0 9 4 12.5t17 3.5h252q11 0 15 -4t4 -14v-14q0 -15 -17 -16l-11 -1q-17 -1 -17 -16.5t16 -36.5l66 -88
l54 74q21 28 19.5 46t-25.5 21l-9 1q-19 1 -19 16v14q0 10 4 14t15 4h168q14 0 18.5 -3.5t4.5 -12.5v-13q0 -9 -4.5 -13t-16.5 -6q-21 -4 -39.5 -18.5t-46.5 -48.5l-92 -116l163 -217q16 -21 39 -25q10 -1 13 -4.5t3 -13.5v-14q0 -9 -4 -12.5t-17 -3.5h-263q-11 0 -14 4
t-3 14v14q0 13 19 16l7 1q13 2 18.5 10.5t2 22t-14.5 28.5l-71 95l-63 -87q-45 -61 5 -69l7 -1q19 -3 19 -16v-14z" />
    <glyph glyph-name="y" unicode="y" horiz-adv-x="636" 
d="M342 -68q-53 -112 -99 -164.5t-118 -52.5q-41 0 -67 22.5t-26 57.5q0 28 18 45t43 17q24 0 37.5 -13.5t23 -26.5t21.5 -13q27 0 53.5 36.5t64.5 129.5l-194 430q-30 69 -63 73q-12 2 -16.5 5.5t-4.5 12.5v14q0 9 4.5 12.5t18.5 3.5h271q21 0 21 -18v-14q0 -13 -23 -16
l-7 -1q-56 -8 -29 -72l104 -247l90 239q12 31 3.5 54t-30.5 26l-7 1q-23 3 -23 16v14q0 18 21 18h174q14 0 18.5 -3.5t4.5 -12.5v-14q0 -9 -4.5 -12.5t-16.5 -5.5q-42 -5 -75 -82q-13 -31 -96 -235.5t-92 -223.5z" />
    <glyph glyph-name="z" unicode="z" horiz-adv-x="547" 
d="M48 0q-13 0 -13 13v17q0 11 6 19l270 402q13 18 -6 18h-74q-47 0 -75 -22t-57 -70l-15 -24q-7 -11 -20 -7l-14 4q-15 5 -10 20l38 127q4 14 9.5 19t17.5 5h383q13 0 13 -13v-19q0 -10 -6 -20l-267 -399q-3 -5 -4 -9t2 -6.5t8 -2.5h93q51 0 79.5 22.5t57.5 73.5l13 23
q9 17 23 13l16 -4q11 -3 8 -16l-36 -143q-3 -12 -9 -16.5t-20 -4.5h-411z" />
    <glyph glyph-name="braceleft" unicode="{" horiz-adv-x="354" 
d="M70 -131q0 49 46 131t46 118q0 32 -22 53t-72 45q-14 7 -14 16v6q0 9 14 16q49 24 71.5 44t22.5 49q0 33 -46 116.5t-46 130.5q0 86 60.5 126t156.5 40q12 0 24 -2q11 -1 11 -13v-18q0 -12 -13 -12h-13q-48 0 -82.5 -27.5t-34.5 -86.5q0 -43 23 -125t23 -115
q0 -41 -17 -64.5t-58 -46.5q-14 -7 -14 -13v-1q0 -6 14 -14q73 -45 73 -115q0 -34 -22 -115t-22 -120q0 -54 34 -84.5t83 -30.5h13q13 0 13 -12v-18q0 -12 -11 -13q-12 -2 -24 -2q-95 0 -156 39t-61 118z" />
    <glyph glyph-name="bar" unicode="|" horiz-adv-x="347" 
d="M201 735v-998q0 -9 -3 -12t-13 -3h-23q-10 0 -13 3t-3 12v998q0 9 3 12t13 3h23q10 0 13 -3t3 -12z" />
    <glyph glyph-name="braceright" unicode="}" horiz-adv-x="354" 
d="M284 594q0 -47 -46 -130.5t-46 -116.5q0 -29 22.5 -49t71.5 -44q14 -7 14 -16v-6q0 -9 -14 -16q-50 -24 -72 -45t-22 -53q0 -36 46 -118t46 -131q0 -79 -61 -118t-156 -39q-12 0 -24 2q-11 1 -11 13v18q0 12 13 12h13q49 0 83 30.5t34 84.5q0 39 -22 120t-22 115
q0 70 73 115q14 8 14 14v1q0 6 -14 13q-41 23 -58 46.5t-17 64.5q0 33 23 115t23 125q0 59 -34.5 86.5t-82.5 27.5h-13q-13 0 -13 12v18q0 12 11 13q12 2 24 2q96 0 156.5 -40t60.5 -126z" />
    <glyph glyph-name="asciitilde" unicode="~" horiz-adv-x="523" 
d="M365 236q-43 0 -115.5 37.5t-96.5 37.5q-39 0 -64 -61q-5 -12 -18 -9l-21 5q-12 3 -9 17q32 122 117 122q39 0 113 -37.5t99 -37.5q24 0 37.5 14.5t26.5 45.5q5 13 17 10l21 -5q13 -3 10 -16q-29 -123 -117 -123z" />
    <glyph glyph-name="uni00A0" unicode="&#xa0;" horiz-adv-x="239" 
 />
    <glyph glyph-name="exclamdown" unicode="&#xa1;" horiz-adv-x="316" 
d="M153 544q33 0 55 -21.5t22 -56.5q0 -34 -22 -55.5t-56 -21.5t-56 20.5t-22 56.5q0 35 23 56.5t56 21.5zM141 335h24q18 0 18 -18v-63q0 -64 31.5 -184.5t31.5 -159.5q0 -105 -93 -105t-93 105q0 39 31.5 159.5t31.5 184.5v63q0 18 18 18z" />
    <glyph glyph-name="cent" unicode="&#xa2;" horiz-adv-x="563" 
d="M308 -42q0 -8 -2.5 -10t-11.5 -2h-10q-8 0 -11 2.5t-3 10.5l2 56q-102 7 -166 77.5t-64 181.5q0 121 67 194.5t178 83.5l1 52q0 12 12 12h15q12 0 12 -12l-2 -51q78 -1 125.5 -33t47.5 -82q0 -29 -16 -46t-45 -17q-52 0 -65 52q-2 8 -5 22.5t-5 20.5q-8 34 -38 38
l-11 -390q13 -4 34 -4q77 0 120 65q7 12 17 7l18 -8q9 -4 3 -21q-23 -60 -71.5 -99.5t-123.5 -43.5zM198 320q0 -138 77 -186l10 368q-39 -16 -63 -65t-24 -117z" />
    <glyph glyph-name="sterling" unicode="&#xa3;" horiz-adv-x="589" 
d="M529 127q0 -54 -43.5 -96t-98.5 -42q-49 0 -100 24q-50 24 -70 33q-58 26 -84 27q-12 -36 -18 -47q-19 -36 -51 -36q-18 0 -28.5 10t-10.5 25q0 44 86 89q21 50 42 124q1 1 1 3t1 3h-54q-15 0 -12 13l3 13q2 12 14 12h59q18 66 32 121q21 79 80.5 126t143.5 47
q46 0 76 -19t30 -55q0 -21 -12.5 -35.5t-34.5 -14.5q-42 0 -54 48q-8 32 -29 32q-20 0 -31.5 -24t-23.5 -73q-20 -86 -44 -153h86q10 0 12 -2t0 -10l-3 -15q-2 -11 -16 -11h-94q-31 -63 -83 -103q23 5 41 5q51 0 110 -28q49 -23 63 -29q28 -11 43 -11q21 0 21 20
q0 10 -18 17q-40 15 -40 47q0 19 14 31t33 12q29 0 45.5 -22.5t16.5 -55.5z" />
    <glyph glyph-name="currency" unicode="&#xa4;" horiz-adv-x="663" 
d="M579 -14q-8 -8 -17 1l-90 89q-62 -51 -149 -51q-85 0 -147 49l-93 -85q-9 -9 -17 -1l-20 22q-10 10 0 19l92 85q-47 64 -47 147q0 84 47 147l-90 88q-12 11 -3 22l20 21q10 11 21 0l91 -90q61 48 146 48t147 -49l91 88q10 8 20 -2l19 -20q8 -10 0 -18l-91 -89
q46 -61 46 -146q0 -83 -45 -145l89 -90q8 -8 0 -18zM323 78q73 0 123.5 52.5t50.5 130.5t-50.5 130.5t-123.5 52.5t-123.5 -52.5t-50.5 -130.5t50.5 -130.5t123.5 -52.5z" />
    <glyph glyph-name="yen" unicode="&#xa5;" horiz-adv-x="637" 
d="M478 16q0 -9 -4.5 -12.5t-18.5 -3.5h-279q-21 0 -21 18v14q0 18 23 18h7q28 0 40 12.5t12 44.5v28h-114q-9 0 -12 2.5t-3 9.5v18q0 7 3 9.5t12 2.5h114v45l-7 13h-107q-9 0 -12 2t-3 9v19q0 7 3 9.5t12 2.5h85l-93 173q-15 28 -30.5 39.5t-43.5 11.5q-21 0 -21 18v16
q0 9 4.5 12.5t18.5 3.5h258q21 0 21 -18v-16q0 -9 -4.5 -12.5t-18.5 -3.5h-3q-12 0 -17 -9.5t3 -28.5l87 -181l73 159q12 30 7.5 45t-21.5 15h-3q-21 0 -21 18v16q0 9 4.5 12.5t18.5 3.5h149q21 0 21 -18v-16q0 -15 -21 -16q-49 -4 -92 -94l-63 -130h89q10 0 12.5 -2
t2.5 -10v-19q0 -7 -2.5 -9t-11.5 -2h-110l-5 -10v-48h114q10 0 12.5 -2t2.5 -10v-18q0 -7 -3 -9.5t-11 -2.5h-115v-28q0 -33 12 -45t43 -12h6q21 0 21 -18v-16z" />
    <glyph glyph-name="brokenbar" unicode="&#xa6;" horiz-adv-x="347" 
d="M201 371h-55v364q0 9 3 12t13 3h23q10 0 13 -3t3 -12v-364zM146 -263v380h55v-380q0 -9 -3 -12t-13 -3h-23q-10 0 -13 3t-3 12z" />
    <glyph glyph-name="section" unicode="&#xa7;" horiz-adv-x="619" 
d="M500 -83q0 -89 -58.5 -148t-160.5 -59q-49 0 -91.5 8.5t-74.5 32t-32 59.5q0 29 17.5 45t44.5 16q18 0 32.5 -9.5t21.5 -20t17 -28.5q15 -28 33.5 -42.5t53.5 -14.5q45 0 71.5 26.5t26.5 65.5q0 37 -25 63t-76 49l-100 46q-69 32 -104.5 78t-35.5 122q0 118 110 184
q-58 49 -58 135t62 137.5t158 51.5q68 0 120 -24t52 -70q0 -24 -13.5 -39t-36.5 -15q-24 0 -39.5 11t-33.5 37q-18 27 -35 39.5t-49 12.5q-33 0 -57.5 -22.5t-24.5 -55.5q0 -39 25 -63t84 -50l82 -36q74 -33 108.5 -75.5t34.5 -119.5q0 -119 -106 -201q57 -47 57 -126z
M364 91q27 -12 41 -22q42 52 42 107q0 44 -25.5 73t-81.5 53l-74 32q-39 17 -62 31q-38 -40 -38 -96q0 -51 28.5 -81t89.5 -59z" />
    <glyph glyph-name="dieresis" unicode="&#xa8;" horiz-adv-x="434" 
d="M50 665q0 29 19.5 49t47.5 20q29 0 48.5 -20t19.5 -49t-19.5 -49t-48.5 -20q-28 0 -47.5 20t-19.5 49zM249 665q0 29 19.5 49t48.5 20q28 0 47.5 -20t19.5 -49t-19.5 -49t-47.5 -20q-29 0 -48.5 20t-19.5 49z" />
    <glyph glyph-name="copyright" unicode="&#xa9;" horiz-adv-x="669" 
d="M335 559q125 0 206 -81.5t81 -205.5t-81 -204.5t-206 -80.5t-206.5 80.5t-81.5 204.5t81.5 205.5t206.5 81.5zM335 519q-106 0 -173 -69.5t-67 -177.5q0 -106 67 -175.5t173 -69.5t172.5 69.5t66.5 175.5q0 108 -66.5 177.5t-172.5 69.5zM340 120q-74 0 -121.5 38
t-47.5 108q0 82 49.5 125t118.5 43q42 0 78 -20q5 -3 9 -3t7 5l4 9q3 5 8 5h9q6 0 6 -6l1 -84q0 -8 -6 -8h-12q-9 0 -10 6q-19 66 -74 66q-42 0 -66.5 -37t-24.5 -92t21.5 -89.5t68.5 -34.5q29 0 50 17.5t28 48.5q1 8 10 8h10q8 0 8 -7l-1 -85q0 -7 -8 -7h-8q-7 0 -9 6l-2 7
q-2 6 -7 6q-3 0 -9 -3q-40 -22 -80 -22z" />
    <glyph glyph-name="ordfeminine" unicode="&#xaa;" horiz-adv-x="385" 
d="M278 398q-54 0 -68 51q-38 -52 -93 -52q-32 0 -52.5 19.5t-20.5 50.5q0 38 25 60.5t70 39.5q58 25 65 28v49q0 58 -47 58q-26 0 -26 -26q0 -2 0.5 -13.5t0.5 -17.5q0 -50 -50 -50q-18 0 -30 11.5t-12 29.5q0 39 50.5 70.5t110.5 31.5q49 0 75.5 -22.5t25.5 -64.5l-2 -161
q0 -31 16 -31q14 0 24 28q3 7 9 6l11 -3q6 -1 5 -8q-8 -38 -30 -61t-57 -23zM137 497q0 -18 9 -28t22 -10q19 0 35 19l1 86l-33 -15q-34 -16 -34 -52z" />
    <glyph glyph-name="guillemotleft" unicode="&#xab;" horiz-adv-x="595" 
d="M276 23q-10 -6 -19 4l-192 209q-5 6 -5 13v1q0 7 5 13l192 209q9 11 21 3l13 -9q10 -8 4 -19l-111 -196l111 -199q6 -12 -6 -20zM498 36q-10 -6 -19 4l-178 196q-5 6 -5 13v1q0 7 5 13l178 196q9 10 20 3l14 -9q10 -6 4 -19l-98 -183l98 -186q6 -13 -4 -19z" />
    <glyph glyph-name="logicalnot" unicode="&#xac;" horiz-adv-x="600" 
d="M490 429v-237q0 -9 -3 -12t-13 -3h-42q-10 0 -13.5 3t-2.5 12v181h-361q-9 0 -12 3t-3 13v40q0 10 3 13t12 3h420q9 0 12 -3t3 -13z" />
    <glyph glyph-name="registered" unicode="&#xae;" horiz-adv-x="631" 
d="M315 263q-112 0 -183.5 72t-71.5 183q0 112 71.5 184.5t183.5 72.5t184 -72.5t72 -184.5q0 -111 -72 -183t-184 -72zM315 297q95 0 156.5 63t61.5 158q0 97 -61.5 160t-156.5 63t-156.5 -63t-61.5 -160q0 -95 61.5 -158t156.5 -63zM328 398q0 -7 -11 -7h-125q-10 0 -10 8
v8q0 8 11 8h3q21 0 21 31v156q0 31 -22 31h-3q-10 0 -10 9v7q0 8 11 8h134q112 0 112 -66q0 -23 -15 -41.5t-42 -26.5q8 -5 17 -19l47 -75q8 -14 19 -14q9 0 9 -9v-8q0 -7 -11 -7h-71q-12 0 -15 7l-59 103q-4 9 -15 9h-8v-70q0 -25 20 -25h3q10 0 10 -9v-8zM310 532
q50 0 50 56q0 45 -45 45h-11q-9 0 -9 -8v-93h15z" />
    <glyph glyph-name="macron" unicode="&#xaf;" horiz-adv-x="376" 
d="M309 623h-242q-11 0 -14 3.5t-3 15.5v44q0 11 3.5 15t13.5 4h242q10 0 13.5 -4t3.5 -15v-44q0 -12 -3 -15.5t-14 -3.5z" />
    <glyph glyph-name="degree" unicode="&#xb0;" horiz-adv-x="318" 
d="M159 486q-54 0 -91.5 31.5t-37.5 88.5q0 58 37.5 91t91.5 33q55 0 92 -32t37 -88q0 -57 -37.5 -90.5t-91.5 -33.5zM160 532q30 0 49 20t19 56t-19 56t-49 20t-50 -20.5t-20 -55.5q0 -34 20 -55t50 -21z" />
    <glyph glyph-name="plusminus" unicode="&#xb1;" horiz-adv-x="565" 
d="M315 168q0 -11 -2.5 -14.5t-13.5 -3.5h-36q-10 0 -13 3.5t-3 15.5v154h-174q-11 0 -14.5 2.5t-3.5 12.5v35q0 10 3.5 13t15.5 3h173v154q0 12 3 15.5t13 3.5h36q11 0 13.5 -3.5t2.5 -14.5v-155h177q11 0 14.5 -3t3.5 -13v-35q0 -10 -3.5 -12.5t-14.5 -2.5h-177v-155z
M55 56v35q0 11 3.5 14t15.5 3h416q13 0 16.5 -3t3.5 -14v-35q0 -11 -3.5 -13.5t-15.5 -2.5h-418q-11 0 -14.5 2.5t-3.5 13.5z" />
    <glyph glyph-name="twosuperior" unicode="&#xb2;" horiz-adv-x="380" 
d="M267 446q21 0 28.5 6t12.5 24l3 12q3 9 11 9h11q8 0 7 -11l-11 -111q-1 -15 -19 -15h-246q-11 0 -11 8v25q0 9 7 17q61 62 89 93q71 76 71 131q0 58 -52 58q-56 0 -86 -61q-4 -9 -15 -5l-9 3q-10 3 -6 14q19 56 60.5 88t98.5 32q51 0 80 -28t29 -73q0 -37 -18.5 -66.5
t-55.5 -61.5q-86 -72 -104 -88h125z" />
    <glyph glyph-name="threesuperior" unicode="&#xb3;" horiz-adv-x="380" 
d="M335 481q0 -57 -47 -93t-125 -36q-47 0 -81.5 18t-34.5 49q0 18 11.5 29t29.5 11q17 0 25 -10t16 -30q14 -36 41 -36q28 0 45 24.5t17 58.5q0 73 -83 73q-10 0 -10 8v13q0 8 10 9q38 7 58 27.5t20 49.5q0 23 -13.5 36.5t-36.5 13.5q-51 0 -83 -52q-5 -9 -14 -5l-11 5
q-8 4 -5 13q44 106 154 106q48 0 76 -24.5t28 -67.5q0 -33 -24.5 -59.5t-65.5 -36.5q48 -4 75.5 -29t27.5 -65z" />
    <glyph glyph-name="acute" unicode="&#xb4;" horiz-adv-x="345" 
d="M250 763q21 0 37.5 -18t16.5 -44q0 -28 -40 -46l-183 -81q-13 -5 -19 4l-8 12q-7 10 2 19l146 131q25 23 48 23z" />
    <glyph glyph-name="paragraph" unicode="&#xb6;" horiz-adv-x="573" 
d="M266 -232q32 0 52.5 48.5t20.5 131.5v158q-143 3 -216 78t-73 216q0 139 78 219.5t225 80.5h154q21 0 21 -18v-16q0 -9 -4.5 -12.5t-18.5 -3.5h-7q-65 0 -65 -65v-613q0 -123 -59.5 -191.5t-154.5 -68.5q-46 0 -74.5 20.5t-28.5 55.5q0 28 18 44.5t44 16.5q37 0 57 -47
q8 -19 14 -26.5t17 -7.5z" />
    <glyph glyph-name="periodcentered" unicode="&#xb7;" horiz-adv-x="198" 
d="M99 210q-34 0 -56.5 21t-22.5 57q0 35 23.5 57t56.5 22t55.5 -22t22.5 -57q0 -34 -22.5 -56t-56.5 -22z" />
    <glyph glyph-name="cedilla" unicode="&#xb8;" horiz-adv-x="343" 
d="M63 -285q-14 3 -13 14l1 16q1 13 12 13h25q45 0 70.5 15t25.5 41q0 41 -83 57q-16 4 -6 17l93 121h51l-54 -69q49 -7 78.5 -31t29.5 -65q0 -61 -51.5 -96.5t-133.5 -35.5q-28 0 -45 3z" />
    <glyph glyph-name="onesuperior" unicode="&#xb9;" horiz-adv-x="380" 
d="M152 434v237l-66 -17q-10 -3 -13 6l-5 15q-3 10 6 14l158 71q7 3 13 3q14 0 14 -14v-315q0 -34 37 -37l16 -1q14 -1 14 -11v-13q0 -12 -13 -12h-218q-15 0 -15 9v15q0 11 13 12l9 1q29 3 39.5 10t10.5 27z" />
    <glyph glyph-name="ordmasculine" unicode="&#xba;" horiz-adv-x="402" 
d="M199 398q-77 0 -124.5 44t-47.5 130q0 75 51 120t125 45q78 0 125 -46.5t47 -121.5q0 -77 -47.5 -124t-128.5 -47zM208 430q57 0 57 117q0 157 -66 157q-22 0 -36.5 -19.5t-19.5 -44.5t-5 -53q0 -65 16.5 -111t53.5 -46z" />
    <glyph glyph-name="guillemotright" unicode="&#xbb;" horiz-adv-x="595" 
d="M338 27q-9 -10 -19 -4l-13 9q-12 8 -6 20l111 199l-111 196q-6 11 4 19l13 9q12 8 21 -3l192 -209q5 -6 5 -13v-1q0 -7 -5 -13zM116 40q-9 -10 -19 -4l-15 10q-10 6 -4 19l98 186l-98 183q-6 13 4 19l14 9q11 7 20 -3l178 -196q5 -6 5 -13v-1q0 -7 -5 -13z" />
    <glyph glyph-name="onequarter" unicode="&#xbc;" horiz-adv-x="800" 
d="M671 680l-463 -680q-10 -14 -21 -6l-11 7q-10 6 1 21l462 680q10 14 21 6l9 -6q13 -8 2 -22zM130 379v237l-66 -17q-10 -3 -13 6l-5 15q-3 10 6 14l158 71q8 3 13 3q14 0 14 -14v-315q0 -34 37 -37l16 -1q14 -1 14 -11v-13q0 -12 -13 -12h-218q-15 0 -15 9v15q0 11 13 12
l9 1q29 3 39.5 10t10.5 27zM702 13q0 -13 -14 -13h-68q-15 0 -15 14v68h-163q-9 0 -9 8v21q0 7 4 14l150 258q9 15 24 15h78q13 0 13 -15v-247h46q10 0 10 -9v-36q0 -9 -10 -9h-46v-69zM489 136h116v195z" />
    <glyph glyph-name="onehalf" unicode="&#xbd;" horiz-adv-x="800" 
d="M651 680l-463 -680q-10 -14 -21 -6l-11 7q-10 6 1 21l462 680q10 14 21 6l9 -6q13 -8 2 -22zM123 379v237l-66 -17q-10 -3 -13 6l-5 15q-3 10 6 14l158 71q8 3 13 3q14 0 14 -14v-315q0 -34 37 -37l16 -1q14 -1 14 -11v-13q0 -12 -13 -12h-218q-15 0 -15 9v15q0 11 13 12
l9 1q29 3 39.5 10t10.5 27zM696 86q21 0 28.5 6t12.5 24l3 12q3 9 11 9h11q8 0 7 -11l-11 -111q-1 -15 -19 -15h-246q-11 0 -11 8v25q0 9 7 17q61 62 89 93q71 76 71 131q0 58 -52 58q-56 0 -86 -61q-4 -9 -15 -5l-9 3q-10 3 -6 14q19 56 60.5 88t98.5 32q51 0 80 -28
t29 -73q0 -37 -18.5 -66.5t-55.5 -61.5q-86 -72 -104 -88h125z" />
    <glyph glyph-name="threequarters" unicode="&#xbe;" horiz-adv-x="800" 
d="M680 680l-463 -680q-10 -14 -21 -6l-11 7q-10 6 1 21l462 680q10 14 21 6l9 -6q13 -8 2 -22zM343 426q0 -57 -47 -93t-125 -36q-47 0 -81.5 18t-34.5 49q0 18 11.5 29t29.5 11q17 0 25 -10t16 -30q14 -36 41 -36q28 0 45 24.5t17 58.5q0 73 -83 73q-10 0 -10 8v13
q0 8 10 9q38 7 58 27.5t20 49.5q0 23 -13.5 36.5t-36.5 13.5q-51 0 -83 -52q-5 -9 -14 -5l-11 5q-8 4 -5 13q44 106 154 106q48 0 76 -24.5t28 -67.5q0 -33 -24.5 -59.5t-65.5 -36.5q48 -4 75.5 -29t27.5 -65zM708 13q0 -13 -14 -13h-68q-15 0 -15 14v68h-163q-9 0 -9 8v21
q0 7 4 14l150 258q9 15 24 15h78q13 0 13 -15v-247h46q10 0 10 -9v-36q0 -9 -10 -9h-46v-69zM495 136h116v195z" />
    <glyph glyph-name="questiondown" unicode="&#xbf;" horiz-adv-x="381" 
d="M257 544q33 0 55 -21.5t22 -56.5q0 -34 -22 -55.5t-56 -21.5t-56 20.5t-22 56.5q0 35 23 56.5t56 21.5zM266 335q18 0 18 -18v-138q0 -42 -12 -59t-51 -28l-63 -18q-37 -10 -50.5 -21.5t-13.5 -30.5q0 -39 54 -52q44 -10 98 -10q100 0 100 -82q0 -34 -25 -56t-64 -22
q-86 0 -146.5 72t-60.5 167q0 79 22.5 113t82.5 59l34 14q19 8 27 17.5t8 28.5v46q0 18 18 18h24z" />
    <glyph glyph-name="Agrave" unicode="&#xc0;" horiz-adv-x="762" 
d="M477 765q-5 -10 -18 -6l-208 61q-46 13 -46 51q0 22 14.5 38t36.5 16q19 0 48 -18l172 -111q12 -8 7 -19zM252 14q0 -14 -15 -14h-208q-19 0 -19 14v19q0 17 17 17h6q47 3 81 90l179 462l-4 14q-5 19 11 29q42 25 76 56q14 13 28 13q18 0 24 -17l236 -582
q15 -36 27 -50.5t34 -14.5h4q14 0 18.5 -3.5t4.5 -12.5v-16q0 -18 -21 -18h-300q-14 0 -18.5 3.5t-4.5 12.5v16q0 18 21 18h6q34 0 50.5 16t3.5 49l-45 114h-232l-33 -89q-33 -90 49 -90h10q14 0 14 -16v-20zM230 278h195l-100 257z" />
    <glyph glyph-name="Aacute" unicode="&#xc1;" horiz-adv-x="762" 
d="M266 765l-6 12q-5 11 7 19l172 113q23 16 48 16q23 0 36 -16t13 -38q0 -38 -46 -51l-206 -61q-13 -4 -18 6zM252 14q0 -14 -15 -14h-208q-19 0 -19 14v19q0 17 17 17h6q47 3 81 90l179 462l-4 14q-5 19 11 29q42 25 76 56q14 13 28 13q18 0 24 -17l236 -582
q15 -36 27 -50.5t34 -14.5h4q14 0 18.5 -3.5t4.5 -12.5v-16q0 -18 -21 -18h-300q-14 0 -18.5 3.5t-4.5 12.5v16q0 18 21 18h6q34 0 50.5 16t3.5 49l-45 114h-232l-33 -89q-33 -90 49 -90h10q14 0 14 -16v-20zM230 278h195l-100 257z" />
    <glyph glyph-name="Acircumflex" unicode="&#xc2;" horiz-adv-x="762" 
d="M226 764q-12 -6 -19 2l-8 11q-8 10 2 20l118 120q7 7 18 7h59q10 0 17 -7l118 -120q9 -9 1 -20l-7 -9q-8 -10 -18 -5l-142 77zM252 14q0 -14 -15 -14h-208q-19 0 -19 14v19q0 17 17 17h6q47 3 81 90l179 462l-4 14q-5 19 11 29q42 25 76 56q14 13 28 13q18 0 24 -17
l236 -582q15 -36 27 -50.5t34 -14.5h4q14 0 18.5 -3.5t4.5 -12.5v-16q0 -18 -21 -18h-300q-14 0 -18.5 3.5t-4.5 12.5v16q0 18 21 18h6q34 0 50.5 16t3.5 49l-45 114h-232l-33 -89q-33 -90 49 -90h10q14 0 14 -16v-20zM230 278h195l-100 257z" />
    <glyph glyph-name="Atilde" unicode="&#xc3;" horiz-adv-x="762" 
d="M459 777q-22 0 -61 10l-84 23q-16 5 -33 5q-31 0 -54 -45q-6 -11 -18 -7l-10 3q-14 5 -9 19q35 116 98 116q21 0 55 -9l86 -23q21 -6 34 -6q18 0 29 11t20 35q5 13 17 10l11 -2q12 -3 10 -16q-25 -124 -91 -124zM252 14q0 -14 -15 -14h-208q-19 0 -19 14v19q0 17 17 17h6
q47 3 81 90l179 462l-4 14q-5 19 11 29q42 25 76 56q14 13 28 13q18 0 24 -17l236 -582q15 -36 27 -50.5t34 -14.5h4q14 0 18.5 -3.5t4.5 -12.5v-16q0 -18 -21 -18h-300q-14 0 -18.5 3.5t-4.5 12.5v16q0 18 21 18h6q34 0 50.5 16t3.5 49l-45 114h-232l-33 -89
q-33 -90 49 -90h10q14 0 14 -16v-20zM230 278h195l-100 257z" />
    <glyph glyph-name="Adieresis" unicode="&#xc4;" horiz-adv-x="762" 
d="M180 849q0 28 20.5 48.5t48.5 20.5q29 0 49 -20t20 -49t-20 -49t-49 -20q-28 0 -48.5 20.5t-20.5 48.5zM398 849q0 28 20.5 48.5t48.5 20.5q29 0 49 -20t20 -49t-20 -49t-49 -20q-28 0 -48.5 20.5t-20.5 48.5zM252 14q0 -14 -15 -14h-208q-19 0 -19 14v19q0 17 17 17h6
q47 3 81 90l179 462l-4 14q-5 19 11 29q42 25 76 56q14 13 28 13q18 0 24 -17l236 -582q15 -36 27 -50.5t34 -14.5h4q14 0 18.5 -3.5t4.5 -12.5v-16q0 -18 -21 -18h-300q-14 0 -18.5 3.5t-4.5 12.5v16q0 18 21 18h6q34 0 50.5 16t3.5 49l-45 114h-232l-33 -89
q-33 -90 49 -90h10q14 0 14 -16v-20zM230 278h195l-100 257z" />
    <glyph glyph-name="Aring" unicode="&#xc5;" horiz-adv-x="762" 
d="M367 748q-48 0 -77 28.5t-29 73.5q0 44 30.5 73t76.5 29q48 0 78 -28.5t30 -72.5q0 -45 -31 -74t-78 -29zM368 793q24 0 39.5 16t15.5 41t-15.5 41t-38.5 16t-39 -16t-16 -40q0 -26 15 -42t39 -16zM252 14q0 -14 -15 -14h-208q-19 0 -19 14v19q0 17 17 17h6q47 3 81 90
l179 462l-4 14q-5 19 11 29q42 25 76 56q14 13 28 13q18 0 24 -17l236 -582q15 -36 27 -50.5t34 -14.5h4q14 0 18.5 -3.5t4.5 -12.5v-16q0 -18 -21 -18h-300q-14 0 -18.5 3.5t-4.5 12.5v16q0 18 21 18h6q34 0 50.5 16t3.5 49l-45 114h-232l-33 -89q-33 -90 49 -90h10
q14 0 14 -16v-20zM230 278h195l-100 257z" />
    <glyph glyph-name="AE" unicode="&#xc6;" horiz-adv-x="1053" 
d="M264 14q0 -14 -15 -14h-220q-19 0 -19 14v19q0 17 17 17h6q25 0 53.5 26.5t51.5 64.5l312 507q-18 2 -39 2h-26q-21 0 -21 18v16q0 9 4.5 12.5t18.5 3.5h536q17 0 23 -6t8 -21l20 -129q3 -18 -10 -21l-14 -4q-15 -4 -22 9q-5 9 -14 25.5t-14 25.5q-20 37 -49 54t-80 17
h-97q-22 0 -22 -21v-252h77q82 0 82 84v6q0 11 3.5 14.5t12.5 3.5h17q14 0 14 -18v-223q0 -16 -14 -16h-17q-17 0 -17 19v7q-2 39 -20.5 56t-62.5 17h-75v-183q0 -52 17 -73t60 -21h44q105 0 167 96l30 47q8 12 21 8l11 -3q13 -4 10 -18l-30 -152q-4 -17 -11 -22.5t-24 -5.5
h-530q-14 0 -18.5 3.5t-4.5 12.5v16q0 18 21 18h6q32 0 46.5 15t14.5 50v142h-205l-70 -116q-23 -35 -16 -63t49 -28h10q14 0 14 -16v-20zM307 307h175v290z" />
    <glyph glyph-name="Ccedilla" unicode="&#xc7;" horiz-adv-x="793" 
d="M549 -156q0 -61 -51.5 -96.5t-133.5 -35.5q-28 0 -45 3q-14 3 -13 14l1 16q1 13 12 13h25q45 0 70.5 15t25.5 41q0 41 -83 57q-16 4 -6 17l76 98q-168 7 -271.5 102.5t-103.5 256.5q0 90 31.5 161.5t86 116t123 68t145.5 23.5q96 0 181 -47q14 -7 20 -7q9 0 15 11l12 22
q6 11 16 11h15q13 0 13 -14l3 -197q0 -18 -14 -18h-21q-16 0 -21 14q-57 170 -203 170q-103 0 -159 -84t-56 -214q0 -88 21 -157.5t73 -116.5t130 -47q75 0 127 43t73 123q2 10 6 14t14 4h20q15 0 15 -16l-3 -199q0 -15 -14 -15h-15q-14 0 -18 12l-10 26q-4 11 -13 11
q-6 0 -19 -7q-69 -43 -148 -49l-37 -47q49 -7 78.5 -31t29.5 -65z" />
    <glyph glyph-name="Egrave" unicode="&#xc8;" horiz-adv-x="715" 
d="M479 765q-5 -10 -18 -6l-208 61q-46 13 -46 51q0 22 14.5 38t36.5 16q19 0 48 -18l172 -111q12 -8 7 -19zM647 28q-3 -17 -10.5 -22.5t-24.5 -5.5h-548q-14 0 -18.5 3.5t-4.5 12.5v16q0 18 21 18h6q32 0 46.5 15t14.5 50v470q0 35 -14.5 50t-46.5 15h-6q-21 0 -21 18v16
q0 9 4.5 12.5t18.5 3.5h532q17 0 23 -6t8 -21l20 -129q3 -18 -10 -21l-14 -4q-15 -4 -22 9q-5 9 -14 25.5t-14 25.5q-20 37 -49 54t-80 17h-117q-22 0 -22 -21v-241h92q82 0 82 84v6q0 11 3.5 14.5t12.5 3.5h17q14 0 14 -18v-223q0 -16 -14 -16h-17q-17 0 -17 19v7
q-2 39 -20.5 56.5t-62.5 17.5h-90v-195q0 -52 17 -73t60 -21h57q101 0 163 98q6 9 15.5 25.5t12.5 22.5q6 11 21 8l12 -3q14 -3 11 -19z" />
    <glyph glyph-name="Eacute" unicode="&#xc9;" horiz-adv-x="715" 
d="M269 765l-6 12q-5 11 7 19l172 113q23 16 48 16q23 0 36 -16t13 -38q0 -38 -46 -51l-206 -61q-13 -4 -18 6zM647 28q-3 -17 -10.5 -22.5t-24.5 -5.5h-548q-14 0 -18.5 3.5t-4.5 12.5v16q0 18 21 18h6q32 0 46.5 15t14.5 50v470q0 35 -14.5 50t-46.5 15h-6q-21 0 -21 18
v16q0 9 4.5 12.5t18.5 3.5h532q17 0 23 -6t8 -21l20 -129q3 -18 -10 -21l-14 -4q-15 -4 -22 9q-5 9 -14 25.5t-14 25.5q-20 37 -49 54t-80 17h-117q-22 0 -22 -21v-241h92q82 0 82 84v6q0 11 3.5 14.5t12.5 3.5h17q14 0 14 -18v-223q0 -16 -14 -16h-17q-17 0 -17 19v7
q-2 39 -20.5 56.5t-62.5 17.5h-90v-195q0 -52 17 -73t60 -21h57q101 0 163 98q6 9 15.5 25.5t12.5 22.5q6 11 21 8l12 -3q14 -3 11 -19z" />
    <glyph glyph-name="Ecircumflex" unicode="&#xca;" horiz-adv-x="715" 
d="M219 764q-12 -6 -19 2l-8 11q-8 10 2 20l118 120q7 7 18 7h59q10 0 17 -7l118 -120q9 -9 1 -20l-7 -9q-8 -10 -18 -5l-142 77zM647 28q-3 -17 -10.5 -22.5t-24.5 -5.5h-548q-14 0 -18.5 3.5t-4.5 12.5v16q0 18 21 18h6q32 0 46.5 15t14.5 50v470q0 35 -14.5 50t-46.5 15
h-6q-21 0 -21 18v16q0 9 4.5 12.5t18.5 3.5h532q17 0 23 -6t8 -21l20 -129q3 -18 -10 -21l-14 -4q-15 -4 -22 9q-5 9 -14 25.5t-14 25.5q-20 37 -49 54t-80 17h-117q-22 0 -22 -21v-241h92q82 0 82 84v6q0 11 3.5 14.5t12.5 3.5h17q14 0 14 -18v-223q0 -16 -14 -16h-17
q-17 0 -17 19v7q-2 39 -20.5 56.5t-62.5 17.5h-90v-195q0 -52 17 -73t60 -21h57q101 0 163 98q6 9 15.5 25.5t12.5 22.5q6 11 21 8l12 -3q14 -3 11 -19z" />
    <glyph glyph-name="Edieresis" unicode="&#xcb;" horiz-adv-x="715" 
d="M179 849q0 28 20.5 48.5t48.5 20.5t48.5 -20t20.5 -49t-20.5 -49t-48.5 -20t-48.5 20.5t-20.5 48.5zM397 849q0 28 20.5 48.5t48.5 20.5t48.5 -20t20.5 -49t-20.5 -49t-48.5 -20t-48.5 20.5t-20.5 48.5zM647 28q-3 -17 -10.5 -22.5t-24.5 -5.5h-548q-14 0 -18.5 3.5
t-4.5 12.5v16q0 18 21 18h6q32 0 46.5 15t14.5 50v470q0 35 -14.5 50t-46.5 15h-6q-21 0 -21 18v16q0 9 4.5 12.5t18.5 3.5h532q17 0 23 -6t8 -21l20 -129q3 -18 -10 -21l-14 -4q-15 -4 -22 9q-5 9 -14 25.5t-14 25.5q-20 37 -49 54t-80 17h-117q-22 0 -22 -21v-241h92
q82 0 82 84v6q0 11 3.5 14.5t12.5 3.5h17q14 0 14 -18v-223q0 -16 -14 -16h-17q-17 0 -17 19v7q-2 39 -20.5 56.5t-62.5 17.5h-90v-195q0 -52 17 -73t60 -21h57q101 0 163 98q6 9 15.5 25.5t12.5 22.5q6 11 21 8l12 -3q14 -3 11 -19z" />
    <glyph glyph-name="Igrave" unicode="&#xcc;" horiz-adv-x="434" 
d="M346 765q-5 -10 -18 -6l-208 61q-46 13 -46 51q0 22 14.5 38t36.5 16q19 0 48 -18l172 -111q12 -8 7 -19zM129 115v470q0 35 -14.5 50t-46.5 15h-6q-21 0 -21 18v16q0 9 4.5 12.5t18.5 3.5h308q21 0 21 -18v-16q0 -9 -4.5 -12.5t-18.5 -3.5h-7q-58 0 -58 -65v-470
q0 -65 58 -65h7q14 0 18.5 -3.5t4.5 -12.5v-16q0 -18 -21 -18h-308q-14 0 -18.5 3.5t-4.5 12.5v16q0 18 21 18h6q32 0 46.5 15t14.5 50z" />
    <glyph glyph-name="Iacute" unicode="&#xcd;" horiz-adv-x="434" 
d="M101 765l-6 12q-5 11 7 19l172 113q23 16 48 16q23 0 36 -16t13 -38q0 -38 -46 -51l-206 -61q-13 -4 -18 6zM129 115v470q0 35 -14.5 50t-46.5 15h-6q-21 0 -21 18v16q0 9 4.5 12.5t18.5 3.5h308q21 0 21 -18v-16q0 -9 -4.5 -12.5t-18.5 -3.5h-7q-58 0 -58 -65v-470
q0 -65 58 -65h7q14 0 18.5 -3.5t4.5 -12.5v-16q0 -18 -21 -18h-308q-14 0 -18.5 3.5t-4.5 12.5v16q0 18 21 18h6q32 0 46.5 15t14.5 50z" />
    <glyph glyph-name="Icircumflex" unicode="&#xce;" horiz-adv-x="434" 
d="M80 763q-12 -6 -19 2l-8 11q-7 10 2 20l118 120q7 7 18 7h59q10 0 17 -7l118 -120q9 -9 1 -20l-7 -9q-8 -10 -18 -5l-142 77zM129 115v470q0 35 -14.5 50t-46.5 15h-6q-21 0 -21 18v16q0 9 4.5 12.5t18.5 3.5h308q21 0 21 -18v-16q0 -9 -4.5 -12.5t-18.5 -3.5h-7
q-58 0 -58 -65v-470q0 -65 58 -65h7q14 0 18.5 -3.5t4.5 -12.5v-16q0 -18 -21 -18h-308q-14 0 -18.5 3.5t-4.5 12.5v16q0 18 21 18h6q32 0 46.5 15t14.5 50z" />
    <glyph glyph-name="Idieresis" unicode="&#xcf;" horiz-adv-x="434" 
d="M41 849q0 28 20.5 48.5t48.5 20.5t48.5 -20t20.5 -49t-20.5 -49t-48.5 -20t-48.5 20.5t-20.5 48.5zM259 849q0 28 20.5 48.5t48.5 20.5t48.5 -20t20.5 -49t-20.5 -49t-48.5 -20t-48.5 20.5t-20.5 48.5zM129 115v470q0 35 -14.5 50t-46.5 15h-6q-21 0 -21 18v16
q0 9 4.5 12.5t18.5 3.5h308q21 0 21 -18v-16q0 -9 -4.5 -12.5t-18.5 -3.5h-7q-58 0 -58 -65v-470q0 -65 58 -65h7q14 0 18.5 -3.5t4.5 -12.5v-16q0 -18 -21 -18h-308q-14 0 -18.5 3.5t-4.5 12.5v16q0 18 21 18h6q32 0 46.5 15t14.5 50z" />
    <glyph glyph-name="Eth" unicode="&#xd0;" horiz-adv-x="873" 
d="M821 374q0 -166 -107 -270t-281 -104h-366q-14 0 -18.5 3.5t-4.5 12.5v16q0 18 21 18h6q32 0 46.5 15t14.5 50v221h-73q-9 0 -12 3t-3 13v19q0 10 3 13t12 3h73v198q0 35 -14.5 50t-46.5 15h-6q-21 0 -21 18v16q0 9 4.5 12.5t18.5 3.5h353q193 0 297 -87t104 -239z
M383 50h37q56 0 99 26t67 70t36 95.5t12 107.5q0 136 -57.5 218.5t-174.5 82.5h-74q-22 0 -22 -21v-242h126q9 0 12 -3t3 -13v-19q0 -10 -3 -13t-12 -3h-126v-192q0 -52 17 -73t60 -21z" />
    <glyph glyph-name="Ntilde" unicode="&#xd1;" horiz-adv-x="812" 
d="M522 777q-22 0 -61 10l-84 23q-16 5 -33 5q-31 0 -54 -45q-6 -11 -18 -7l-10 3q-14 5 -9 19q35 116 98 116q21 0 55 -9l86 -23q21 -6 34 -6q18 0 29 11t20 35q5 13 17 10l11 -2q12 -3 10 -16q-25 -124 -91 -124zM299 14q0 -14 -15 -14h-252q-18 0 -18 15v18q0 15 17 17
l12 1q45 4 62.5 41t17.5 134v330q0 48 -24.5 71t-60.5 23h-2q-21 0 -21 18v15q0 10 4 13.5t18 3.5h194q31 0 50 -22l366 -429v252q0 77 -19 111t-57 37l-12 1q-22 1 -22 17v16q0 17 18 17h234q11 0 15 -3.5t4 -12.5v-17q0 -9 -3.5 -12.5t-15.5 -4.5l-10 -1q-40 -4 -57.5 -37
t-17.5 -113v-480q0 -19 -19 -19h-45q-14 0 -26 13l-434 511v-298q0 -96 19.5 -133t69.5 -42l11 -1q11 -1 15 -4.5t4 -12.5v-19z" />
    <glyph glyph-name="Ograve" unicode="&#xd2;" horiz-adv-x="875" 
d="M565 765q-5 -10 -18 -6l-208 61q-46 13 -46 51q0 22 14.5 38t36.5 16q19 0 48 -18l172 -111q12 -8 7 -19zM823 368q0 -173 -106.5 -277.5t-280.5 -104.5q-169 0 -276.5 96.5t-107.5 268.5q0 170 110 266.5t280 96.5q164 0 272.5 -92t108.5 -254zM638 328
q0 149 -52.5 240.5t-154.5 91.5q-93 0 -143.5 -76t-50.5 -184q0 -165 56 -262.5t163 -97.5q42 0 74.5 18.5t52.5 47.5t32.5 68.5t17.5 77t5 76.5z" />
    <glyph glyph-name="Oacute" unicode="&#xd3;" horiz-adv-x="875" 
d="M325 765l-6 12q-5 11 7 19l172 113q23 16 48 16q23 0 36 -16t13 -38q0 -38 -46 -51l-206 -61q-13 -4 -18 6zM823 368q0 -173 -106.5 -277.5t-280.5 -104.5q-169 0 -276.5 96.5t-107.5 268.5q0 170 110 266.5t280 96.5q164 0 272.5 -92t108.5 -254zM638 328
q0 149 -52.5 240.5t-154.5 91.5q-93 0 -143.5 -76t-50.5 -184q0 -165 56 -262.5t163 -97.5q42 0 74.5 18.5t52.5 47.5t32.5 68.5t17.5 77t5 76.5z" />
    <glyph glyph-name="Ocircumflex" unicode="&#xd4;" horiz-adv-x="875" 
d="M291 764q-12 -6 -19 2l-8 11q-8 10 2 20l118 120q7 7 18 7h59q10 0 17 -7l118 -120q9 -9 1 -20l-7 -9q-8 -10 -18 -5l-142 77zM823 368q0 -173 -106.5 -277.5t-280.5 -104.5q-169 0 -276.5 96.5t-107.5 268.5q0 170 110 266.5t280 96.5q164 0 272.5 -92t108.5 -254z
M638 328q0 149 -52.5 240.5t-154.5 91.5q-93 0 -143.5 -76t-50.5 -184q0 -165 56 -262.5t163 -97.5q42 0 74.5 18.5t52.5 47.5t32.5 68.5t17.5 77t5 76.5z" />
    <glyph glyph-name="Otilde" unicode="&#xd5;" horiz-adv-x="875" 
d="M526 777q-22 0 -61 10l-84 23q-16 5 -33 5q-31 0 -54 -45q-6 -11 -18 -7l-10 3q-14 5 -9 19q35 116 98 116q21 0 55 -9l86 -23q21 -6 34 -6q18 0 29 11t20 35q5 13 17 10l11 -2q12 -3 10 -16q-25 -124 -91 -124zM823 368q0 -173 -106.5 -277.5t-280.5 -104.5
q-169 0 -276.5 96.5t-107.5 268.5q0 170 110 266.5t280 96.5q164 0 272.5 -92t108.5 -254zM638 328q0 149 -52.5 240.5t-154.5 91.5q-93 0 -143.5 -76t-50.5 -184q0 -165 56 -262.5t163 -97.5q42 0 74.5 18.5t52.5 47.5t32.5 68.5t17.5 77t5 76.5z" />
    <glyph glyph-name="Odieresis" unicode="&#xd6;" horiz-adv-x="875" 
d="M258 849q0 28 20.5 48.5t48.5 20.5q29 0 49 -20t20 -49t-20 -49t-49 -20q-28 0 -48.5 20.5t-20.5 48.5zM476 849q0 28 20.5 48.5t48.5 20.5q29 0 49 -20t20 -49t-20 -49t-49 -20q-28 0 -48.5 20.5t-20.5 48.5zM823 368q0 -173 -106.5 -277.5t-280.5 -104.5
q-169 0 -276.5 96.5t-107.5 268.5q0 170 110 266.5t280 96.5q164 0 272.5 -92t108.5 -254zM638 328q0 149 -52.5 240.5t-154.5 91.5q-93 0 -143.5 -76t-50.5 -184q0 -165 56 -262.5t163 -97.5q42 0 74.5 18.5t52.5 47.5t32.5 68.5t17.5 77t5 76.5z" />
    <glyph glyph-name="multiply" unicode="&#xd7;" horiz-adv-x="540" 
d="M123 121q-13 -13 -26 1l-20 20q-13 12 0 25l147 147l-146 145q-14 13 -1 26l23 22q12 12 23 1l148 -147l146 146q11 11 24 -1l22 -21q13 -11 -1 -25l-145 -145l145 -146q12 -13 0 -25l-21 -21q-13 -13 -27 0l-144 145z" />
    <glyph glyph-name="Oslash" unicode="&#xd8;" horiz-adv-x="875" 
d="M187 -18q-9 -12 -20 -5l-20 13q-12 7 -2 22l38 51q-131 99 -131 288q0 170 110 266.5t280 96.5q112 0 200 -44l36 47q8 12 22 3l17 -11q11 -8 2 -21l-33 -44q137 -95 137 -276q0 -173 -106.5 -277.5t-280.5 -104.5q-119 0 -209 49zM235 400q0 -135 38 -226l301 413
q-54 73 -143 73q-94 0 -145 -76.5t-51 -183.5zM640 328q0 126 -38 211l-302 -415q59 -84 156 -84q52 0 89.5 27t57 72t28.5 92t9 97z" />
    <glyph glyph-name="Ugrave" unicode="&#xd9;" horiz-adv-x="811" 
d="M545 765q-5 -10 -18 -6l-208 61q-46 13 -46 51q0 22 14.5 38t36.5 16q19 0 48 -18l172 -111q12 -8 7 -19zM702 283q0 -297 -274 -297q-155 0 -237.5 61t-82.5 211v327q0 35 -14.5 50t-46.5 15h-6q-21 0 -21 18v16q0 9 4.5 12.5t18.5 3.5h308q21 0 21 -18v-16
q0 -9 -4.5 -12.5t-18.5 -3.5h-7q-58 0 -58 -65v-304q0 -119 40 -174t135 -55q92 0 138.5 59t46.5 158v271q0 58 -13.5 82.5t-50.5 26.5l-16 1q-13 1 -17.5 4t-4.5 13v17q0 16 16 16h225q16 0 16 -13v-21q0 -15 -20 -16l-12 -1q-35 -3 -50 -28.5t-15 -78.5v-259z" />
    <glyph glyph-name="Uacute" unicode="&#xda;" horiz-adv-x="811" 
d="M356 765l-6 12q-5 11 7 19l172 113q23 16 48 16q23 0 36 -16t13 -38q0 -38 -46 -51l-206 -61q-13 -4 -18 6zM702 283q0 -297 -274 -297q-155 0 -237.5 61t-82.5 211v327q0 35 -14.5 50t-46.5 15h-6q-21 0 -21 18v16q0 9 4.5 12.5t18.5 3.5h308q21 0 21 -18v-16
q0 -9 -4.5 -12.5t-18.5 -3.5h-7q-58 0 -58 -65v-304q0 -119 40 -174t135 -55q92 0 138.5 59t46.5 158v271q0 58 -13.5 82.5t-50.5 26.5l-16 1q-13 1 -17.5 4t-4.5 13v17q0 16 16 16h225q16 0 16 -13v-21q0 -15 -20 -16l-12 -1q-35 -3 -50 -28.5t-15 -78.5v-259z" />
    <glyph glyph-name="Ucircumflex" unicode="&#xdb;" horiz-adv-x="811" 
d="M320 764q-12 -6 -19 2l-8 11q-7 10 2 20l118 120q7 7 18 7h59q10 0 17 -7l118 -120q9 -9 1 -20l-7 -9q-8 -10 -18 -5l-142 77zM702 283q0 -297 -274 -297q-155 0 -237.5 61t-82.5 211v327q0 35 -14.5 50t-46.5 15h-6q-21 0 -21 18v16q0 9 4.5 12.5t18.5 3.5h308
q21 0 21 -18v-16q0 -9 -4.5 -12.5t-18.5 -3.5h-7q-58 0 -58 -65v-304q0 -119 40 -174t135 -55q92 0 138.5 59t46.5 158v271q0 58 -13.5 82.5t-50.5 26.5l-16 1q-13 1 -17.5 4t-4.5 13v17q0 16 16 16h225q16 0 16 -13v-21q0 -15 -20 -16l-12 -1q-35 -3 -50 -28.5t-15 -78.5
v-259z" />
    <glyph glyph-name="Udieresis" unicode="&#xdc;" horiz-adv-x="811" 
d="M280 849q0 28 20.5 48.5t48.5 20.5q29 0 49 -20t20 -49t-20 -49t-49 -20q-28 0 -48.5 20.5t-20.5 48.5zM498 849q0 28 20.5 48.5t48.5 20.5q29 0 49 -20t20 -49t-20 -49t-49 -20q-28 0 -48.5 20.5t-20.5 48.5zM702 283q0 -297 -274 -297q-155 0 -237.5 61t-82.5 211v327
q0 35 -14.5 50t-46.5 15h-6q-21 0 -21 18v16q0 9 4.5 12.5t18.5 3.5h308q21 0 21 -18v-16q0 -9 -4.5 -12.5t-18.5 -3.5h-7q-58 0 -58 -65v-304q0 -119 40 -174t135 -55q92 0 138.5 59t46.5 158v271q0 58 -13.5 82.5t-50.5 26.5l-16 1q-13 1 -17.5 4t-4.5 13v17q0 16 16 16
h225q16 0 16 -13v-21q0 -15 -20 -16l-12 -1q-35 -3 -50 -28.5t-15 -78.5v-259z" />
    <glyph glyph-name="Yacute" unicode="&#xdd;" horiz-adv-x="746" 
d="M314 765l-6 12q-5 11 7 19l172 113q23 16 48 16q23 0 36 -16t13 -38q0 -38 -46 -51l-206 -61q-13 -4 -18 6zM565 13q0 -8 -3.5 -10.5t-14.5 -2.5h-328q-16 0 -16 14v18q0 10 4 13.5t14 3.5h14q62 0 62 65v172l-180 299q-22 37 -39 51t-47 14q-21 0 -21 18v16
q0 9 4.5 12.5t18.5 3.5h319q21 0 21 -18v-16q0 -9 -4.5 -12.5t-18.5 -3.5h-7q-32 0 -42 -15t8 -50l133 -226l116 213q18 31 13 54t-33 24l-16 1q-17 1 -17 17v16q0 16 18 16h197q16 0 16 -18v-14q0 -16 -15 -18q-33 -4 -56.5 -25.5t-49.5 -66.5l-144 -253v-191
q0 -34 14.5 -49.5t46.5 -15.5h16q17 0 17 -14v-22z" />
    <glyph glyph-name="Thorn" unicode="&#xde;" horiz-adv-x="724" 
d="M395 18q0 -18 -21 -18h-310q-14 0 -18.5 3.5t-4.5 12.5v16q0 18 21 18h6q32 0 46.5 15t14.5 50v470q0 35 -14.5 50t-46.5 15h-6q-21 0 -21 18v16q0 9 4.5 12.5t18.5 3.5h304q21 0 21 -18v-16q0 -9 -4.5 -12.5t-18.5 -3.5h-7q-58 0 -58 -65v-21q63 5 115 5
q135 0 202.5 -48t67.5 -151q0 -111 -79 -165t-208 -54q-47 0 -98 3v-39q0 -65 64 -65h7q14 0 18.5 -3.5t4.5 -12.5v-16zM378 518q-36 0 -77 -3v-311q54 -2 72 -2q136 0 136 162q0 154 -131 154z" />
    <glyph glyph-name="germandbls" unicode="&#xdf;" horiz-adv-x="732" 
d="M712 173q0 -83 -55.5 -133t-144.5 -50q-74 0 -138 22q-12 4 -12 19l-3 119q0 14 11 15l14 1q10 1 14 -9q54 -115 120 -115q30 0 49.5 16.5t19.5 45.5q0 30 -16 49.5t-65 45.5l-60 32q-53 29 -73.5 60.5t-20.5 74.5q0 38 17 66.5t51 60.5q37 35 49.5 56.5t12.5 63.5
q0 43 -27 73t-94 30q-53 0 -74.5 -29.5t-21.5 -99.5v-473q0 -31 8 -45.5t30 -18.5l10 -2q13 -3 13 -17v-15q0 -10 -3.5 -13t-12.5 -3h-258q-10 0 -13.5 3.5t-3.5 12.5v14q0 14 15 17l11 2q22 4 30.5 18.5t8.5 46.5v323h-62q-13 0 -9 14l15 56q4 14 16 14h40v21q0 96 75 157
t218 61q115 0 179 -32.5t64 -93.5q0 -28 -6.5 -47.5t-26 -38t-34.5 -29t-52 -32.5q-43 -26 -43 -52q0 -16 10.5 -27t45.5 -30l73 -39q60 -32 84.5 -70t24.5 -96z" />
    <glyph glyph-name="agrave" unicode="&#xe0;" horiz-adv-x="575" 
d="M368 575l-180 75q-38 16 -38 53q0 23 15.5 41t39.5 18q26 0 50 -22l138 -130q9 -9 2 -19l-8 -12q-6 -9 -19 -4zM426 -10q-45 0 -71.5 23.5t-33.5 62.5q-62 -87 -155 -87q-52 0 -85.5 32t-33.5 83q0 32 12.5 57.5t38 44t48 30t58.5 25.5q82 32 109 45l1 77q0 93 -76 93
q-45 0 -45 -42q0 -3 0.5 -21t0.5 -28q0 -39 -22 -59t-61 -20q-32 0 -50 17.5t-18 47.5q0 62 85 112t183 50q79 0 121 -35t41 -103l-3 -264q0 -45 27 -45q23 0 42 46q4 10 15 7l13 -4q10 -3 7 -14q-15 -61 -52 -96t-96 -35zM203 149q0 -28 15.5 -45.5t41.5 -17.5q29 0 52 23
l1 153q-45 -21 -51 -24q-59 -30 -59 -89z" />
    <glyph glyph-name="aacute" unicode="&#xe1;" horiz-adv-x="575" 
d="M372 763q21 0 37.5 -18t16.5 -44q0 -28 -40 -46l-183 -81q-13 -5 -19 4l-8 12q-7 10 2 19l146 131q25 23 48 23zM426 -10q-45 0 -71.5 23.5t-33.5 62.5q-62 -87 -155 -87q-52 0 -85.5 32t-33.5 83q0 32 12.5 57.5t38 44t48 30t58.5 25.5q82 32 109 45l1 77q0 93 -76 93
q-45 0 -45 -42q0 -3 0.5 -21t0.5 -28q0 -39 -22 -59t-61 -20q-32 0 -50 17.5t-18 47.5q0 62 85 112t183 50q79 0 121 -35t41 -103l-3 -264q0 -45 27 -45q23 0 42 46q4 10 15 7l13 -4q10 -3 7 -14q-15 -61 -52 -96t-96 -35zM203 149q0 -28 15.5 -45.5t41.5 -17.5q29 0 52 23
l1 153q-45 -21 -51 -24q-59 -30 -59 -89z" />
    <glyph glyph-name="acircumflex" unicode="&#xe2;" horiz-adv-x="575" 
d="M401 574q-10 -9 -20 -1l-107 91l-115 -90q-11 -8 -20 -1l-8 7q-10 8 -2 20l101 144q7 10 20 10h50q13 0 20 -10l91 -141q8 -13 -2 -22zM426 -10q-45 0 -71.5 23.5t-33.5 62.5q-62 -87 -155 -87q-52 0 -85.5 32t-33.5 83q0 32 12.5 57.5t38 44t48 30t58.5 25.5
q82 32 109 45l1 77q0 93 -76 93q-45 0 -45 -42q0 -3 0.5 -21t0.5 -28q0 -39 -22 -59t-61 -20q-32 0 -50 17.5t-18 47.5q0 62 85 112t183 50q79 0 121 -35t41 -103l-3 -264q0 -45 27 -45q23 0 42 46q4 10 15 7l13 -4q10 -3 7 -14q-15 -61 -52 -96t-96 -35zM203 149
q0 -28 15.5 -45.5t41.5 -17.5q29 0 52 23l1 153q-45 -21 -51 -24q-59 -30 -59 -89z" />
    <glyph glyph-name="atilde" unicode="&#xe3;" horiz-adv-x="575" 
d="M209 731q19 0 52 -12l51 -19q22 -9 36 -9q29 0 47 43q5 12 16 9l11 -3q12 -3 9 -16q-24 -121 -93 -121q-20 0 -58 14l-44 17q-26 10 -41 10q-25 0 -46 -42q-5 -11 -16 -8l-11 3q-12 3 -8 18q27 116 95 116zM426 -10q-45 0 -71.5 23.5t-33.5 62.5q-62 -87 -155 -87
q-52 0 -85.5 32t-33.5 83q0 32 12.5 57.5t38 44t48 30t58.5 25.5q82 32 109 45l1 77q0 93 -76 93q-45 0 -45 -42q0 -3 0.5 -21t0.5 -28q0 -39 -22 -59t-61 -20q-32 0 -50 17.5t-18 47.5q0 62 85 112t183 50q79 0 121 -35t41 -103l-3 -264q0 -45 27 -45q23 0 42 46q4 10 15 7
l13 -4q10 -3 7 -14q-15 -61 -52 -96t-96 -35zM203 149q0 -28 15.5 -45.5t41.5 -17.5q29 0 52 23l1 153q-45 -21 -51 -24q-59 -30 -59 -89z" />
    <glyph glyph-name="adieresis" unicode="&#xe4;" horiz-adv-x="575" 
d="M97 669q0 29 19.5 49t47.5 20q29 0 48.5 -20t19.5 -49t-19.5 -49t-48.5 -20q-28 0 -47.5 20t-19.5 49zM296 669q0 29 19.5 49t48.5 20q28 0 47.5 -20t19.5 -49t-19.5 -49t-47.5 -20q-29 0 -48.5 20t-19.5 49zM426 -10q-45 0 -71.5 23.5t-33.5 62.5q-62 -87 -155 -87
q-52 0 -85.5 32t-33.5 83q0 32 12.5 57.5t38 44t48 30t58.5 25.5q82 32 109 45l1 77q0 93 -76 93q-45 0 -45 -42q0 -3 0.5 -21t0.5 -28q0 -39 -22 -59t-61 -20q-32 0 -50 17.5t-18 47.5q0 62 85 112t183 50q79 0 121 -35t41 -103l-3 -264q0 -45 27 -45q23 0 42 46q4 10 15 7
l13 -4q10 -3 7 -14q-15 -61 -52 -96t-96 -35zM203 149q0 -28 15.5 -45.5t41.5 -17.5q29 0 52 23l1 153q-45 -21 -51 -24q-59 -30 -59 -89z" />
    <glyph glyph-name="aring" unicode="&#xe5;" horiz-adv-x="575" 
d="M273 573q-40 0 -68 28.5t-28 69.5q0 40 28 68.5t68 28.5q41 0 69.5 -28.5t28.5 -68.5q0 -41 -28.5 -69.5t-69.5 -28.5zM273 620q21 0 35 14.5t14 36.5q0 21 -14 35.5t-35 14.5q-20 0 -33.5 -14.5t-13.5 -35.5q0 -22 13.5 -36.5t33.5 -14.5zM426 -10q-45 0 -71.5 23.5
t-33.5 62.5q-62 -87 -155 -87q-52 0 -85.5 32t-33.5 83q0 32 12.5 57.5t38 44t48 30t58.5 25.5q82 32 109 45l1 77q0 93 -76 93q-45 0 -45 -42q0 -3 0.5 -21t0.5 -28q0 -39 -22 -59t-61 -20q-32 0 -50 17.5t-18 47.5q0 62 85 112t183 50q79 0 121 -35t41 -103l-3 -264
q0 -45 27 -45q23 0 42 46q4 10 15 7l13 -4q10 -3 7 -14q-15 -61 -52 -96t-96 -35zM203 149q0 -28 15.5 -45.5t41.5 -17.5q29 0 52 23l1 153q-45 -21 -51 -24q-59 -30 -59 -89z" />
    <glyph glyph-name="ae" unicode="&#xe6;" horiz-adv-x="829" 
d="M567 -10q-143 0 -208 103q-79 -106 -192 -106q-60 0 -92 32.5t-32 85.5q0 27 10.5 49.5t24 37t38.5 28.5t43 21t48 18q68 24 108 45v63q0 105 -56 105q-29 0 -52 -15.5t-23 -41.5v-31q0 -80 -74 -80q-66 0 -66 61q0 46 46.5 86t106 60t107.5 20q86 0 123 -47
q65 47 151 47q93 0 154.5 -58.5t61.5 -153.5q0 -28 -22 -28h-295q1 -92 43.5 -144.5t110.5 -52.5q75 0 114 61q7 12 17 7l18 -8q9 -4 3 -21q-26 -64 -81 -103.5t-135 -39.5zM558 485q-32 0 -53.5 -39.5t-26.5 -109.5h109q29 0 29 40q0 109 -58 109zM206 144q0 -25 14 -42
t38 -17q46 0 84 40q-25 56 -27 135q-5 -2 -22.5 -10.5t-27.5 -13.5q-59 -30 -59 -92z" />
    <glyph glyph-name="ccedilla" unicode="&#xe7;" horiz-adv-x="545" 
d="M401 -156q0 -61 -51.5 -96.5t-133.5 -35.5q-28 0 -45 3q-14 3 -13 14l1 16q1 13 12 13h25q45 0 70.5 15t25.5 41q0 41 -83 57q-16 4 -6 17l79 102q-103 4 -175 71t-72 189q0 132 77 206.5t202 74.5q83 0 137 -41t54 -96q0 -35 -20 -53t-52 -18q-65 0 -79 72q-1 5 -4 21.5
t-5 25.5q-9 37 -41 37q-46 0 -69.5 -53.5t-23.5 -128.5q0 -99 39.5 -151t109.5 -52q73 0 114 61q7 12 17 7l18 -8q10 -5 3 -21q-50 -122 -178 -140l-41 -53q49 -7 78.5 -31t29.5 -65z" />
    <glyph glyph-name="egrave" unicode="&#xe8;" horiz-adv-x="563" 
d="M390 575l-180 75q-38 16 -38 53q0 23 15.5 41t39.5 18q26 0 50 -22l138 -130q9 -9 2 -19l-8 -12q-6 -9 -19 -4zM515 133q-26 -64 -83 -103.5t-141 -39.5q-107 0 -181.5 70t-74.5 196q0 130 76.5 202.5t190.5 72.5q95 0 161 -58t65 -154q0 -28 -22 -28h-295
q1 -92 42.5 -144.5t109.5 -52.5q75 0 114 61q7 12 17 7l18 -8q9 -4 3 -21zM292 482q-32 0 -53.5 -38.5t-26.5 -107.5h109q29 0 29 40q0 106 -58 106z" />
    <glyph glyph-name="eacute" unicode="&#xe9;" horiz-adv-x="563" 
d="M395 763q21 0 37.5 -18t16.5 -44q0 -28 -40 -46l-183 -81q-13 -5 -19 4l-8 12q-7 10 2 19l146 131q25 23 48 23zM515 133q-26 -64 -83 -103.5t-141 -39.5q-107 0 -181.5 70t-74.5 196q0 130 76.5 202.5t190.5 72.5q95 0 161 -58t65 -154q0 -28 -22 -28h-295
q1 -92 42.5 -144.5t109.5 -52.5q75 0 114 61q7 12 17 7l18 -8q9 -4 3 -21zM292 482q-32 0 -53.5 -38.5t-26.5 -107.5h109q29 0 29 40q0 106 -58 106z" />
    <glyph glyph-name="ecircumflex" unicode="&#xea;" horiz-adv-x="563" 
d="M427 574q-10 -9 -20 -1l-107 91l-115 -90q-11 -8 -20 -1l-8 7q-10 8 -2 20l101 144q7 10 20 10h50q13 0 20 -10l91 -141q8 -13 -2 -22zM515 133q-26 -64 -83 -103.5t-141 -39.5q-107 0 -181.5 70t-74.5 196q0 130 76.5 202.5t190.5 72.5q95 0 161 -58t65 -154
q0 -28 -22 -28h-295q1 -92 42.5 -144.5t109.5 -52.5q75 0 114 61q7 12 17 7l18 -8q9 -4 3 -21zM292 482q-32 0 -53.5 -38.5t-26.5 -107.5h109q29 0 29 40q0 106 -58 106z" />
    <glyph glyph-name="edieresis" unicode="&#xeb;" horiz-adv-x="563" 
d="M130 669q0 29 19.5 49t47.5 20q29 0 48.5 -20t19.5 -49t-19.5 -49t-48.5 -20q-28 0 -47.5 20t-19.5 49zM329 669q0 29 19.5 49t48.5 20q28 0 47.5 -20t19.5 -49t-19.5 -49t-47.5 -20q-29 0 -48.5 20t-19.5 49zM515 133q-26 -64 -83 -103.5t-141 -39.5q-107 0 -181.5 70
t-74.5 196q0 130 76.5 202.5t190.5 72.5q95 0 161 -58t65 -154q0 -28 -22 -28h-295q1 -92 42.5 -144.5t109.5 -52.5q75 0 114 61q7 12 17 7l18 -8q9 -4 3 -21zM292 482q-32 0 -53.5 -38.5t-26.5 -107.5h109q29 0 29 40q0 106 -58 106z" />
    <glyph glyph-name="igrave" unicode="&#xec;" horiz-adv-x="353" 
d="M256 575l-180 75q-38 16 -38 53q0 23 15.5 41t39.5 18q26 0 50 -22l138 -130q9 -9 2 -19l-8 -12q-6 -9 -19 -4zM101 394q0 29 -24 32l-32 4q-12 1 -12 13v13q0 13 11 16l198 58q8 3 14 -1l7 -4q5 -3 5 -11v-400q0 -60 36 -65l13 -2q16 -2 16 -16v-15q0 -10 -3.5 -13
t-14.5 -3h-262q-10 0 -13.5 3.5t-3.5 12.5v14q0 14 15 17l11 2q22 4 30.5 18.5t8.5 46.5v280z" />
    <glyph glyph-name="iacute" unicode="&#xed;" horiz-adv-x="353" 
d="M260 763q21 0 37.5 -18t16.5 -44q0 -28 -40 -46l-183 -81q-13 -5 -19 4l-8 12q-7 10 2 19l146 131q25 23 48 23zM101 394q0 29 -24 32l-32 4q-12 1 -12 13v13q0 13 11 16l198 58q8 3 14 -1l7 -4q5 -3 5 -11v-400q0 -60 36 -65l13 -2q16 -2 16 -16v-15q0 -10 -3.5 -13
t-14.5 -3h-262q-10 0 -13.5 3.5t-3.5 12.5v14q0 14 15 17l11 2q22 4 30.5 18.5t8.5 46.5v280z" />
    <glyph glyph-name="icircumflex" unicode="&#xee;" horiz-adv-x="353" 
d="M297 574q-10 -9 -20 -1l-107 91l-115 -90q-11 -8 -20 -1l-8 7q-10 8 -2 20l101 144q7 10 20 10h50q13 0 20 -10l91 -141q8 -13 -2 -22zM101 394q0 29 -24 32l-32 4q-12 1 -12 13v13q0 13 11 16l198 58q8 3 14 -1l7 -4q5 -3 5 -11v-400q0 -60 36 -65l13 -2q16 -2 16 -16
v-15q0 -10 -3.5 -13t-14.5 -3h-262q-10 0 -13.5 3.5t-3.5 12.5v14q0 14 15 17l11 2q22 4 30.5 18.5t8.5 46.5v280z" />
    <glyph glyph-name="idieresis" unicode="&#xef;" horiz-adv-x="353" 
d="M12 669q0 29 19.5 49t47.5 20q29 0 48.5 -20t19.5 -49t-19.5 -49t-48.5 -20q-28 0 -47.5 20t-19.5 49zM211 669q0 29 19.5 49t48.5 20q28 0 47.5 -20t19.5 -49t-19.5 -49t-47.5 -20q-29 0 -48.5 20t-19.5 49zM101 394q0 29 -24 32l-32 4q-12 1 -12 13v13q0 13 11 16
l198 58q8 3 14 -1l7 -4q5 -3 5 -11v-400q0 -60 36 -65l13 -2q16 -2 16 -16v-15q0 -10 -3.5 -13t-14.5 -3h-262q-10 0 -13.5 3.5t-3.5 12.5v14q0 14 15 17l11 2q22 4 30.5 18.5t8.5 46.5v280z" />
    <glyph glyph-name="eth" unicode="&#xf0;" horiz-adv-x="628" 
d="M583 304q0 -82 -22.5 -144t-62.5 -98.5t-89 -54t-107 -17.5q-120 0 -193.5 66t-73.5 190q0 120 79 186.5t192 66.5q54 0 89 -18q-33 73 -85 130l-110 -74q-13 -9 -21 2l-10 15q-8 12 7 22l100 67q-55 46 -121 73q-13 4 -8 18l6 15q5 12 16 11q100 -19 183 -65l87 59
q11 7 19 -3l10 -14q10 -13 -3 -22l-70 -47q93 -65 140.5 -160.5t47.5 -203.5zM410 239q0 91 -25 151t-78 60q-34 0 -56.5 -27.5t-31.5 -68t-9 -90.5q0 -60 9 -108t35 -82.5t66 -34.5q90 0 90 200z" />
    <glyph glyph-name="ntilde" unicode="&#xf1;" horiz-adv-x="677" 
d="M282 731q19 0 52 -12l51 -19q23 -9 36 -9q29 0 47 43q5 12 16 9l11 -3q12 -3 9 -16q-24 -121 -93 -121q-19 0 -58 14l-44 17q-26 10 -41 10q-25 0 -46 -42q-5 -11 -16 -8l-11 3q-12 3 -8 18q27 116 95 116zM57 0q-21 0 -21 15v15q0 14 15 17l13 2q22 4 29.5 18.5
t7.5 46.5v280q0 29 -24 32l-32 4q-12 1 -12 13v13q0 13 11 16l195 58q8 3 14 -1l7 -4q5 -3 5 -11v-84q29 42 78 71.5t98 29.5q69 0 110 -41.5t41 -111.5v-264q0 -60 36 -65l13 -2q16 -2 16 -16v-15q0 -10 -3.5 -13t-14.5 -3h-252q-10 0 -13.5 3.5t-3.5 12.5v14q0 14 15 17
l6 1q21 4 27.5 18.5t6.5 47.5v240q0 73 -67 73q-46 0 -90 -39v-274q0 -33 5.5 -47t23.5 -18l11 -2q15 -3 15 -16v-13q0 -18 -19 -18h-247z" />
    <glyph glyph-name="ograve" unicode="&#xf2;" 
d="M413 575l-180 75q-38 16 -38 53q0 23 15.5 41t39.5 18q26 0 50 -22l138 -130q9 -9 2 -19l-8 -12q-6 -9 -19 -4zM311 -10q-123 0 -199.5 69.5t-76.5 204.5q0 120 82 193.5t201 73.5q125 0 199.5 -73.5t74.5 -193.5q0 -124 -76 -199t-205 -75zM324 42q90 0 90 187
q0 250 -103 250q-27 0 -47 -17.5t-30.5 -46.5t-15.5 -59.5t-5 -62.5q0 -47 5.5 -89t18 -80t35 -60t52.5 -22z" />
    <glyph glyph-name="oacute" unicode="&#xf3;" 
d="M414 763q21 0 37.5 -18t16.5 -44q0 -28 -40 -46l-183 -81q-13 -5 -19 4l-8 12q-7 10 2 19l146 131q25 23 48 23zM311 -10q-123 0 -199.5 69.5t-76.5 204.5q0 120 82 193.5t201 73.5q125 0 199.5 -73.5t74.5 -193.5q0 -124 -76 -199t-205 -75zM324 42q90 0 90 187
q0 250 -103 250q-27 0 -47 -17.5t-30.5 -46.5t-15.5 -59.5t-5 -62.5q0 -47 5.5 -89t18 -80t35 -60t52.5 -22z" />
    <glyph glyph-name="ocircumflex" unicode="&#xf4;" 
d="M444 574q-10 -9 -20 -1l-107 91l-115 -90q-11 -8 -20 -1l-8 7q-10 8 -2 20l101 144q7 10 20 10h50q13 0 20 -10l91 -141q8 -13 -2 -22zM311 -10q-123 0 -199.5 69.5t-76.5 204.5q0 120 82 193.5t201 73.5q125 0 199.5 -73.5t74.5 -193.5q0 -124 -76 -199t-205 -75z
M324 42q90 0 90 187q0 250 -103 250q-27 0 -47 -17.5t-30.5 -46.5t-15.5 -59.5t-5 -62.5q0 -47 5.5 -89t18 -80t35 -60t52.5 -22z" />
    <glyph glyph-name="otilde" unicode="&#xf5;" 
d="M257 731q19 0 52 -12l51 -19q22 -9 36 -9q29 0 47 43q5 12 16 9l11 -3q12 -3 9 -16q-24 -121 -93 -121q-20 0 -58 14l-44 17q-26 10 -41 10q-25 0 -46 -42q-5 -11 -16 -8l-11 3q-12 3 -8 18q27 116 95 116zM311 -10q-123 0 -199.5 69.5t-76.5 204.5q0 120 82 193.5
t201 73.5q125 0 199.5 -73.5t74.5 -193.5q0 -124 -76 -199t-205 -75zM324 42q90 0 90 187q0 250 -103 250q-27 0 -47 -17.5t-30.5 -46.5t-15.5 -59.5t-5 -62.5q0 -47 5.5 -89t18 -80t35 -60t52.5 -22z" />
    <glyph glyph-name="odieresis" unicode="&#xf6;" 
d="M141 669q0 29 19.5 49t47.5 20q29 0 48.5 -20t19.5 -49t-19.5 -49t-48.5 -20q-28 0 -47.5 20t-19.5 49zM340 669q0 29 19.5 49t48.5 20q28 0 47.5 -20t19.5 -49t-19.5 -49t-47.5 -20q-29 0 -48.5 20t-19.5 49zM311 -10q-123 0 -199.5 69.5t-76.5 204.5q0 120 82 193.5
t201 73.5q125 0 199.5 -73.5t74.5 -193.5q0 -124 -76 -199t-205 -75zM324 42q90 0 90 187q0 250 -103 250q-27 0 -47 -17.5t-30.5 -46.5t-15.5 -59.5t-5 -62.5q0 -47 5.5 -89t18 -80t35 -60t52.5 -22z" />
    <glyph glyph-name="divide" unicode="&#xf7;" horiz-adv-x="571" 
d="M285 425q-30 0 -49.5 18t-18.5 49t20.5 49.5t48.5 18.5t48.5 -18.5t18.5 -49.5q-1 -29 -20 -48t-48 -19zM496 278h-421q-9 0 -12 3t-3 13v40q0 10 3 13t12 3h421q9 0 12 -3t3 -13v-40q0 -10 -3 -13t-12 -3zM285 66q-30 0 -49.5 18t-18.5 49t20.5 49.5t48.5 18.5
t48.5 -18.5t18.5 -49.5q-1 -29 -20 -48t-48 -19z" />
    <glyph glyph-name="oslash" unicode="&#xf8;" 
d="M110 -11q-9 -12 -21 -3l-11 9q-12 11 -3 22l36 44q-76 71 -76 203q0 120 82 193.5t201 73.5q86 0 151 -37l27 34q10 12 21 4l14 -11q11 -8 0 -22l-25 -31q86 -73 86 -204q0 -124 -76 -199t-205 -75q-98 0 -165 43zM211 293q0 -58 9 -110l175 216q-27 80 -84 80
q-36 0 -59.5 -31t-32 -71t-8.5 -84zM417 229q0 66 -8 115l-175 -215q29 -87 90 -87q93 0 93 187z" />
    <glyph glyph-name="ugrave" unicode="&#xf9;" horiz-adv-x="658" 
d="M409 575l-180 75q-38 16 -38 53q0 23 15.5 41t39.5 18q26 0 50 -22l138 -130q9 -9 2 -19l-8 -12q-6 -9 -19 -4zM404 439q0 25 -19 28l-34 4q-15 1 -15 16v16q0 14 14 16l202 12q7 0 11 -3l4 -3q4 -3 4 -10v-413q0 -19 13 -24l38 -15q12 -5 12 -19v-5q0 -15 -14 -17
l-185 -30q-7 -1 -14 3l-5 3q-5 4 -5 11v80q-32 -40 -78.5 -69.5t-100.5 -29.5q-70 0 -107.5 41t-37.5 113v295q0 25 -19 28l-34 4q-15 1 -15 16v16q0 14 14 16l202 12q7 0 11 -3l4 -3q4 -3 4 -10v-350q0 -71 68 -71q48 0 82 37v308z" />
    <glyph glyph-name="uacute" unicode="&#xfa;" horiz-adv-x="658" 
d="M449 763q21 0 37.5 -18t16.5 -44q0 -28 -40 -46l-183 -81q-13 -5 -19 4l-8 12q-7 10 2 19l146 131q25 23 48 23zM404 439q0 25 -19 28l-34 4q-15 1 -15 16v16q0 14 14 16l202 12q7 0 11 -3l4 -3q4 -3 4 -10v-413q0 -19 13 -24l38 -15q12 -5 12 -19v-5q0 -15 -14 -17
l-185 -30q-7 -1 -14 3l-5 3q-5 4 -5 11v80q-32 -40 -78.5 -69.5t-100.5 -29.5q-70 0 -107.5 41t-37.5 113v295q0 25 -19 28l-34 4q-15 1 -15 16v16q0 14 14 16l202 12q7 0 11 -3l4 -3q4 -3 4 -10v-350q0 -71 68 -71q48 0 82 37v308z" />
    <glyph glyph-name="ucircumflex" unicode="&#xfb;" horiz-adv-x="658" 
d="M455 574q-10 -9 -20 -1l-107 91l-115 -90q-11 -8 -20 -1l-8 7q-10 8 -2 20l101 144q7 10 20 10h50q13 0 20 -10l91 -141q8 -13 -2 -22zM404 439q0 25 -19 28l-34 4q-15 1 -15 16v16q0 14 14 16l202 12q7 0 11 -3l4 -3q4 -3 4 -10v-413q0 -19 13 -24l38 -15q12 -5 12 -19
v-5q0 -15 -14 -17l-185 -30q-7 -1 -14 3l-5 3q-5 4 -5 11v80q-32 -40 -78.5 -69.5t-100.5 -29.5q-70 0 -107.5 41t-37.5 113v295q0 25 -19 28l-34 4q-15 1 -15 16v16q0 14 14 16l202 12q7 0 11 -3l4 -3q4 -3 4 -10v-350q0 -71 68 -71q48 0 82 37v308z" />
    <glyph glyph-name="udieresis" unicode="&#xfc;" horiz-adv-x="658" 
d="M156 669q0 29 19.5 49t47.5 20q29 0 48.5 -20t19.5 -49t-19.5 -49t-48.5 -20q-28 0 -47.5 20t-19.5 49zM355 669q0 29 19.5 49t48.5 20q28 0 47.5 -20t19.5 -49t-19.5 -49t-47.5 -20q-29 0 -48.5 20t-19.5 49zM404 439q0 25 -19 28l-34 4q-15 1 -15 16v16q0 14 14 16
l202 12q7 0 11 -3l4 -3q4 -3 4 -10v-413q0 -19 13 -24l38 -15q12 -5 12 -19v-5q0 -15 -14 -17l-185 -30q-7 -1 -14 3l-5 3q-5 4 -5 11v80q-32 -40 -78.5 -69.5t-100.5 -29.5q-70 0 -107.5 41t-37.5 113v295q0 25 -19 28l-34 4q-15 1 -15 16v16q0 14 14 16l202 12q7 0 11 -3
l4 -3q4 -3 4 -10v-350q0 -71 68 -71q48 0 82 37v308z" />
    <glyph glyph-name="yacute" unicode="&#xfd;" horiz-adv-x="636" 
d="M449 763q21 0 37.5 -18t16.5 -44q0 -28 -40 -46l-183 -81q-13 -5 -19 4l-8 12q-7 10 2 19l146 131q25 23 48 23zM342 -68q-53 -112 -99 -164.5t-118 -52.5q-41 0 -67 22.5t-26 57.5q0 28 18 45t43 17q24 0 37.5 -13.5t23 -26.5t21.5 -13q27 0 53.5 36.5t64.5 129.5
l-194 430q-30 69 -63 73q-12 2 -16.5 5.5t-4.5 12.5v14q0 9 4.5 12.5t18.5 3.5h271q21 0 21 -18v-14q0 -13 -23 -16l-7 -1q-56 -8 -29 -72l104 -247l90 239q12 31 3.5 54t-30.5 26l-7 1q-23 3 -23 16v14q0 18 21 18h174q14 0 18.5 -3.5t4.5 -12.5v-14q0 -9 -4.5 -12.5
t-16.5 -5.5q-42 -5 -75 -82q-13 -31 -96 -235.5t-92 -223.5z" />
    <glyph glyph-name="thorn" unicode="&#xfe;" horiz-adv-x="654" 
d="M256 742v-281q75 70 153 70q98 0 154 -67.5t56 -175.5q0 -130 -79.5 -214t-190.5 -84q-51 0 -93 15v-169q0 -32 8.5 -46t36.5 -18l24 -3q16 -2 16 -16v-15q0 -10 -3.5 -13t-14.5 -3h-280q-10 0 -13.5 3.5t-3.5 12.5v14q0 14 15 17l11 2q22 4 30.5 18.5t8.5 46.5v786
q0 29 -24 32l-35 4q-12 1 -12 13v13q0 13 11 16l199 58q8 3 14 -1l7 -4q5 -3 5 -11zM256 417v-291q0 -37 20 -60.5t55 -23.5q39 0 64 31.5t34.5 76t9.5 100.5q0 79 -26 133.5t-84 54.5q-39 0 -73 -21z" />
    <glyph glyph-name="ydieresis" unicode="&#xff;" horiz-adv-x="636" 
d="M196 669q0 29 19.5 49t47.5 20q29 0 48.5 -20t19.5 -49t-19.5 -49t-48.5 -20q-28 0 -47.5 20t-19.5 49zM395 669q0 29 19.5 49t48.5 20q28 0 47.5 -20t19.5 -49t-19.5 -49t-47.5 -20q-29 0 -48.5 20t-19.5 49zM342 -68q-53 -112 -99 -164.5t-118 -52.5q-41 0 -67 22.5
t-26 57.5q0 28 18 45t43 17q24 0 37.5 -13.5t23 -26.5t21.5 -13q27 0 53.5 36.5t64.5 129.5l-194 430q-30 69 -63 73q-12 2 -16.5 5.5t-4.5 12.5v14q0 9 4.5 12.5t18.5 3.5h271q21 0 21 -18v-14q0 -13 -23 -16l-7 -1q-56 -8 -29 -72l104 -247l90 239q12 31 3.5 54t-30.5 26
l-7 1q-23 3 -23 16v14q0 18 21 18h174q14 0 18.5 -3.5t4.5 -12.5v-14q0 -9 -4.5 -12.5t-16.5 -5.5q-42 -5 -75 -82q-13 -31 -96 -235.5t-92 -223.5z" />
    <glyph glyph-name="Amacron" unicode="&#x100;" horiz-adv-x="762" 
d="M504 795h-274q-9 0 -12 3t-3 13v46q0 10 3 13t12 3h274q9 0 12 -3t3 -13v-46q0 -10 -3 -13t-12 -3zM252 14q0 -14 -15 -14h-208q-19 0 -19 14v19q0 17 17 17h6q47 3 81 90l179 462l-4 14q-5 19 11 29q42 25 76 56q14 13 28 13q18 0 24 -17l236 -582q15 -36 27 -50.5
t34 -14.5h4q14 0 18.5 -3.5t4.5 -12.5v-16q0 -18 -21 -18h-300q-14 0 -18.5 3.5t-4.5 12.5v16q0 18 21 18h6q34 0 50.5 16t3.5 49l-45 114h-232l-33 -89q-33 -90 49 -90h10q14 0 14 -16v-20zM230 278h195l-100 257z" />
    <glyph glyph-name="amacron" unicode="&#x101;" horiz-adv-x="575" 
d="M388 623h-242q-11 0 -14 3.5t-3 15.5v44q0 11 3.5 15t13.5 4h242q10 0 13.5 -4t3.5 -15v-44q0 -12 -3 -15.5t-14 -3.5zM426 -10q-45 0 -71.5 23.5t-33.5 62.5q-62 -87 -155 -87q-52 0 -85.5 32t-33.5 83q0 32 12.5 57.5t38 44t48 30t58.5 25.5q82 32 109 45l1 77
q0 93 -76 93q-45 0 -45 -42q0 -3 0.5 -21t0.5 -28q0 -39 -22 -59t-61 -20q-32 0 -50 17.5t-18 47.5q0 62 85 112t183 50q79 0 121 -35t41 -103l-3 -264q0 -45 27 -45q23 0 42 46q4 10 15 7l13 -4q10 -3 7 -14q-15 -61 -52 -96t-96 -35zM203 149q0 -28 15.5 -45.5t41.5 -17.5
q29 0 52 23l1 153q-45 -21 -51 -24q-59 -30 -59 -89z" />
    <glyph glyph-name="Abreve" unicode="&#x102;" horiz-adv-x="762" 
d="M367 763q-69 0 -113 46q-29 31 -49 85q-4 13 7 19l11 6q13 7 20 -4q25 -35 52 -49q28 -16 72 -16t74 16q25 14 50 49q7 11 20 4l12 -6q10 -6 6 -19q-20 -54 -49 -84q-42 -47 -113 -47zM252 14q0 -14 -15 -14h-208q-19 0 -19 14v19q0 17 17 17h6q47 3 81 90l179 462l-4 14
q-5 19 11 29q42 25 76 56q14 13 28 13q18 0 24 -17l236 -582q15 -36 27 -50.5t34 -14.5h4q14 0 18.5 -3.5t4.5 -12.5v-16q0 -18 -21 -18h-300q-14 0 -18.5 3.5t-4.5 12.5v16q0 18 21 18h6q34 0 50.5 16t3.5 49l-45 114h-232l-33 -89q-33 -90 49 -90h10q14 0 14 -16v-20z
M230 278h195l-100 257z" />
    <glyph glyph-name="abreve" unicode="&#x103;" horiz-adv-x="575" 
d="M276 587q-66 0 -103 46q-26 31 -40 84q-4 18 8 23l11 5q14 6 20 -5q16 -31 40 -49q28 -19 64 -19t62 18q21 14 41 48q7 12 20 7l13 -5q9 -4 5 -21q-16 -55 -40 -84q-37 -48 -101 -48zM426 -10q-45 0 -71.5 23.5t-33.5 62.5q-62 -87 -155 -87q-52 0 -85.5 32t-33.5 83
q0 32 12.5 57.5t38 44t48 30t58.5 25.5q82 32 109 45l1 77q0 93 -76 93q-45 0 -45 -42q0 -3 0.5 -21t0.5 -28q0 -39 -22 -59t-61 -20q-32 0 -50 17.5t-18 47.5q0 62 85 112t183 50q79 0 121 -35t41 -103l-3 -264q0 -45 27 -45q23 0 42 46q4 10 15 7l13 -4q10 -3 7 -14
q-15 -61 -52 -96t-96 -35zM203 149q0 -28 15.5 -45.5t41.5 -17.5q29 0 52 23l1 153q-45 -21 -51 -24q-59 -30 -59 -89z" />
    <glyph glyph-name="Aogonek" unicode="&#x104;" horiz-adv-x="762" 
d="M729 -198q-54 -90 -146 -90q-51 0 -82.5 26t-31.5 69q0 94 133 193h-171q-14 0 -18.5 3.5t-4.5 12.5v16q0 18 21 18h6q34 0 50.5 16t3.5 49l-45 114h-232l-33 -89q-33 -90 49 -90h10q14 0 14 -16v-20q0 -14 -15 -14h-208q-19 0 -19 14v19q0 17 17 17h6q47 3 81 90
l179 462l-4 14q-5 19 11 29q42 25 76 56q14 13 28 13q18 0 24 -17l236 -582q15 -36 27 -50.5t34 -14.5h4q14 0 18.5 -3.5t4.5 -12.5v-16q0 -18 -21 -18h-73q-75 -75 -75 -133q0 -30 16.5 -49t44.5 -19q30 0 57 25q9 9 18 2l8 -6q9 -7 2 -18zM230 278h195l-100 257z" />
    <glyph glyph-name="aogonek" unicode="&#x105;" horiz-adv-x="575" 
d="M562 -198q-54 -90 -146 -90q-51 0 -82.5 26t-31.5 69q0 89 120 183q-43 1 -68.5 24.5t-32.5 61.5q-62 -87 -155 -87q-52 0 -85.5 32t-33.5 83q0 32 12.5 57.5t38 44t48 30t58.5 25.5q82 32 109 45l1 77q0 93 -76 93q-45 0 -45 -42q0 -3 0.5 -21t0.5 -28q0 -39 -22 -59
t-61 -20q-32 0 -50 17.5t-18 47.5q0 62 85 112t183 50q79 0 121 -35t41 -103l-3 -264q0 -45 27 -45q23 0 42 46q4 10 15 7l13 -4q10 -3 7 -14q-19 -79 -72 -111q-86 -79 -86 -143q0 -30 16.5 -49t44.5 -19q30 0 57 25q9 9 18 2l8 -6q9 -7 2 -18zM203 149q0 -28 15.5 -45.5
t41.5 -17.5q29 0 52 23l1 153q-45 -21 -51 -24q-59 -30 -59 -89z" />
    <glyph glyph-name="Cacute" unicode="&#x106;" horiz-adv-x="793" 
d="M319 765l-6 12q-5 11 7 19l172 113q23 16 48 16q23 0 36 -16t13 -38q0 -38 -46 -51l-206 -61q-13 -4 -18 6zM450 -14q-177 0 -287.5 96t-110.5 263q0 90 31.5 161.5t86 116t123 68t145.5 23.5q96 0 181 -47q14 -7 20 -7q9 0 15 11l12 22q6 11 16 11h15q13 0 13 -14
l3 -197q0 -18 -14 -18h-21q-16 0 -21 14q-57 170 -203 170q-103 0 -159 -84t-56 -214q0 -88 21 -157.5t73 -116.5t130 -47q75 0 127 43t73 123q2 10 6 14t14 4h20q15 0 15 -16l-3 -199q0 -15 -14 -15h-15q-14 0 -18 12l-10 26q-4 11 -13 11q-6 0 -19 -7q-81 -50 -176 -50z
" />
    <glyph glyph-name="cacute" unicode="&#x107;" horiz-adv-x="545" 
d="M384 763q21 0 37.5 -18t16.5 -44q0 -28 -40 -46l-183 -81q-13 -5 -19 4l-8 12q-7 10 2 19l146 131q25 23 48 23zM293 -10q-106 0 -182 67.5t-76 192.5q0 132 77 206.5t202 74.5q83 0 137 -41t54 -96q0 -35 -20 -53t-52 -18q-65 0 -79 72q-1 5 -4 21.5t-5 25.5
q-9 37 -41 37q-46 0 -69.5 -53.5t-23.5 -128.5q0 -99 39.5 -151t109.5 -52q73 0 114 61q7 12 17 7l18 -8q10 -5 3 -21q-26 -63 -81 -103t-138 -40z" />
    <glyph glyph-name="Ccircumflex" unicode="&#x108;" horiz-adv-x="793" 
d="M287 764q-12 -6 -19 2l-8 11q-8 10 2 20l118 120q7 7 18 7h59q10 0 17 -7l118 -120q9 -9 1 -20l-7 -9q-8 -10 -18 -5l-142 77zM450 -14q-177 0 -287.5 96t-110.5 263q0 90 31.5 161.5t86 116t123 68t145.5 23.5q96 0 181 -47q14 -7 20 -7q9 0 15 11l12 22q6 11 16 11h15
q13 0 13 -14l3 -197q0 -18 -14 -18h-21q-16 0 -21 14q-57 170 -203 170q-103 0 -159 -84t-56 -214q0 -88 21 -157.5t73 -116.5t130 -47q75 0 127 43t73 123q2 10 6 14t14 4h20q15 0 15 -16l-3 -199q0 -15 -14 -15h-15q-14 0 -18 12l-10 26q-4 11 -13 11q-6 0 -19 -7
q-81 -50 -176 -50z" />
    <glyph glyph-name="ccircumflex" unicode="&#x109;" horiz-adv-x="545" 
d="M429 574q-10 -9 -20 -1l-107 91l-115 -90q-11 -8 -20 -1l-8 7q-10 8 -2 20l101 144q7 10 20 10h50q13 0 20 -10l91 -141q8 -13 -2 -22zM293 -10q-106 0 -182 67.5t-76 192.5q0 132 77 206.5t202 74.5q83 0 137 -41t54 -96q0 -35 -20 -53t-52 -18q-65 0 -79 72
q-1 5 -4 21.5t-5 25.5q-9 37 -41 37q-46 0 -69.5 -53.5t-23.5 -128.5q0 -99 39.5 -151t109.5 -52q73 0 114 61q7 12 17 7l18 -8q10 -5 3 -21q-26 -63 -81 -103t-138 -40z" />
    <glyph glyph-name="Cdotaccent" unicode="&#x10a;" horiz-adv-x="793" 
d="M354 849q0 28 20.5 48.5t48.5 20.5q29 0 49 -20t20 -49t-20 -49t-49 -20q-28 0 -48.5 20.5t-20.5 48.5zM450 -14q-177 0 -287.5 96t-110.5 263q0 90 31.5 161.5t86 116t123 68t145.5 23.5q96 0 181 -47q14 -7 20 -7q9 0 15 11l12 22q6 11 16 11h15q13 0 13 -14l3 -197
q0 -18 -14 -18h-21q-16 0 -21 14q-57 170 -203 170q-103 0 -159 -84t-56 -214q0 -88 21 -157.5t73 -116.5t130 -47q75 0 127 43t73 123q2 10 6 14t14 4h20q15 0 15 -16l-3 -199q0 -15 -14 -15h-15q-14 0 -18 12l-10 26q-4 11 -13 11q-6 0 -19 -7q-81 -50 -176 -50z" />
    <glyph glyph-name="cdotaccent" unicode="&#x10b;" horiz-adv-x="545" 
d="M308 593q-33 0 -56 22t-23 55q0 34 23 56t56 22q34 0 55.5 -22t21.5 -56t-21.5 -55.5t-55.5 -21.5zM293 -10q-106 0 -182 67.5t-76 192.5q0 132 77 206.5t202 74.5q83 0 137 -41t54 -96q0 -35 -20 -53t-52 -18q-65 0 -79 72q-1 5 -4 21.5t-5 25.5q-9 37 -41 37
q-46 0 -69.5 -53.5t-23.5 -128.5q0 -99 39.5 -151t109.5 -52q73 0 114 61q7 12 17 7l18 -8q10 -5 3 -21q-26 -63 -81 -103t-138 -40z" />
    <glyph glyph-name="Ccaron" unicode="&#x10c;" horiz-adv-x="793" 
d="M480 767q-7 -7 -18 -7h-57q-10 0 -17 7l-119 120q-9 9 -1 20l7 9q8 10 18 5l142 -77l139 76q12 7 19 -2l8 -11q8 -11 -2 -20zM450 -14q-177 0 -287.5 96t-110.5 263q0 90 31.5 161.5t86 116t123 68t145.5 23.5q96 0 181 -47q14 -7 20 -7q9 0 15 11l12 22q6 11 16 11h15
q13 0 13 -14l3 -197q0 -18 -14 -18h-21q-16 0 -21 14q-57 170 -203 170q-103 0 -159 -84t-56 -214q0 -88 21 -157.5t73 -116.5t130 -47q75 0 127 43t73 123q2 10 6 14t14 4h20q15 0 15 -16l-3 -199q0 -15 -14 -15h-15q-14 0 -18 12l-10 26q-4 11 -13 11q-6 0 -19 -7
q-81 -50 -176 -50z" />
    <glyph glyph-name="ccaron" unicode="&#x10d;" horiz-adv-x="545" 
d="M348 585q-7 -10 -20 -10h-52q-13 0 -20 10l-90 139q-9 14 2 23l8 7q10 8 20 0l108 -89l114 89q11 8 21 0l8 -7q8 -8 0 -20zM293 -10q-106 0 -182 67.5t-76 192.5q0 132 77 206.5t202 74.5q83 0 137 -41t54 -96q0 -35 -20 -53t-52 -18q-65 0 -79 72q-1 5 -4 21.5t-5 25.5
q-9 37 -41 37q-46 0 -69.5 -53.5t-23.5 -128.5q0 -99 39.5 -151t109.5 -52q73 0 114 61q7 12 17 7l18 -8q10 -5 3 -21q-26 -63 -81 -103t-138 -40z" />
    <glyph glyph-name="Dcaron" unicode="&#x10e;" horiz-adv-x="870" 
d="M459 767q-7 -7 -18 -7h-57q-10 0 -17 7l-119 120q-9 9 -1 20l7 9q8 10 18 5l142 -77l139 76q12 7 19 -2l8 -11q8 -11 -2 -20zM64 0q-14 0 -18.5 3.5t-4.5 12.5v16q0 18 21 18h6q32 0 46.5 15t14.5 50v470q0 35 -14.5 50t-46.5 15h-6q-21 0 -21 18v16q0 9 4.5 12.5
t18.5 3.5h353q193 0 297 -87t104 -239q0 -166 -107 -270t-281 -104h-366zM305 144q0 -52 17 -73t60 -21h35q56 0 99 26t67 70t36 95.5t12 107.5q0 136 -57.5 218.5t-174.5 82.5h-72q-22 0 -22 -21v-485z" />
    <glyph glyph-name="dcaron" unicode="&#x10f;" horiz-adv-x="655" 
d="M680 604q10 11 10 27q0 17 -17 32q-25 23 -25 51q0 24 15.5 39t39.5 15q29 0 47 -22t18 -55q0 -65 -55 -120q-30 -30 -51 -41q-12 -6 -18 3l-9 12q-8 11 2 20q31 25 43 39zM407 9v61q-21 -30 -66 -55t-91 -25q-95 0 -155 72.5t-60 186.5q0 137 74.5 209.5t193.5 72.5
q52 0 98 -22v110q0 31 -24 32l-48 4q-13 1 -13 13v16q0 13 11 16l215 58q8 3 14 -1l7 -4q5 -3 5 -11v-640q0 -19 13 -24l38 -15q12 -5 12 -19v-5q0 -15 -14 -17l-186 -30q-7 -1 -14 3l-5 3q-5 4 -5 11zM326 76q25 0 46.5 13.5t28.5 30.5v189q0 170 -83 170q-105 0 -105 -207
q0 -83 29.5 -139.5t83.5 -56.5z" />
    <glyph glyph-name="Dcroat" unicode="&#x110;" horiz-adv-x="873" 
d="M821 374q0 -166 -107 -270t-281 -104h-366q-14 0 -18.5 3.5t-4.5 12.5v16q0 18 21 18h6q32 0 46.5 15t14.5 50v221h-73q-9 0 -12 3t-3 13v19q0 10 3 13t12 3h73v198q0 35 -14.5 50t-46.5 15h-6q-21 0 -21 18v16q0 9 4.5 12.5t18.5 3.5h353q193 0 297 -87t104 -239z
M383 50h37q56 0 99 26t67 70t36 95.5t12 107.5q0 136 -57.5 218.5t-174.5 82.5h-74q-22 0 -22 -21v-242h126q9 0 12 -3t3 -13v-19q0 -10 -3 -13t-12 -3h-126v-192q0 -52 17 -73t60 -21z" />
    <glyph glyph-name="dcroat" unicode="&#x111;" horiz-adv-x="653" 
d="M407 9v61q-21 -30 -66 -55t-91 -25q-96 0 -155.5 70t-59.5 184q0 136 74 205.5t194 69.5q53 0 99 -22v86h-123q-9 0 -12 3t-3 13v10q0 10 3 13t12 3h123v30q0 28 -24 29l-35 2q-12 1 -12 13v12q0 13 11 16l198 41q10 2 14 -1l7 -4q5 -3 5 -11v-127h56q9 0 12 -3t3 -13
v-10q0 -10 -3 -13t-12 -3h-56v-481q0 -19 13 -24l38 -15q12 -5 12 -19v-5q0 -15 -14 -17l-184 -30q-7 -1 -14 3l-5 3q-5 4 -5 11zM326 76q25 0 46.5 13.5t28.5 30.5v179q0 170 -83 170q-105 0 -105 -202q0 -83 29 -137t84 -54z" />
    <glyph glyph-name="Emacron" unicode="&#x112;" horiz-adv-x="715" 
d="M503 795h-274q-9 0 -12 3t-3 13v46q0 10 3 13t12 3h274q9 0 12 -3t3 -13v-46q0 -10 -3 -13t-12 -3zM647 28q-3 -17 -10.5 -22.5t-24.5 -5.5h-548q-14 0 -18.5 3.5t-4.5 12.5v16q0 18 21 18h6q32 0 46.5 15t14.5 50v470q0 35 -14.5 50t-46.5 15h-6q-21 0 -21 18v16
q0 9 4.5 12.5t18.5 3.5h532q17 0 23 -6t8 -21l20 -129q3 -18 -10 -21l-14 -4q-15 -4 -22 9q-5 9 -14 25.5t-14 25.5q-20 37 -49 54t-80 17h-117q-22 0 -22 -21v-241h92q82 0 82 84v6q0 11 3.5 14.5t12.5 3.5h17q14 0 14 -18v-223q0 -16 -14 -16h-17q-17 0 -17 19v7
q-2 39 -20.5 56.5t-62.5 17.5h-90v-195q0 -52 17 -73t60 -21h57q101 0 163 98q6 9 15.5 25.5t12.5 22.5q6 11 21 8l12 -3q14 -3 11 -19z" />
    <glyph glyph-name="emacron" unicode="&#x113;" horiz-adv-x="563" 
d="M419 623h-242q-11 0 -14 3.5t-3 15.5v44q0 11 3.5 15t13.5 4h242q10 0 13.5 -4t3.5 -15v-44q0 -12 -3 -15.5t-14 -3.5zM515 133q-26 -64 -83 -103.5t-141 -39.5q-107 0 -181.5 70t-74.5 196q0 130 76.5 202.5t190.5 72.5q95 0 161 -58t65 -154q0 -28 -22 -28h-295
q1 -92 42.5 -144.5t109.5 -52.5q75 0 114 61q7 12 17 7l18 -8q9 -4 3 -21zM292 482q-32 0 -53.5 -38.5t-26.5 -107.5h109q29 0 29 40q0 106 -58 106z" />
    <glyph glyph-name="Ebreve" unicode="&#x114;" horiz-adv-x="715" 
d="M362 763q-69 0 -113 46q-29 31 -49 85q-4 13 7 19l11 6q13 7 20 -4q25 -35 52 -49q28 -16 72 -16t74 16q25 14 50 49q7 11 20 4l12 -6q10 -6 6 -19q-20 -54 -49 -84q-42 -47 -113 -47zM647 28q-3 -17 -10.5 -22.5t-24.5 -5.5h-548q-14 0 -18.5 3.5t-4.5 12.5v16
q0 18 21 18h6q32 0 46.5 15t14.5 50v470q0 35 -14.5 50t-46.5 15h-6q-21 0 -21 18v16q0 9 4.5 12.5t18.5 3.5h532q17 0 23 -6t8 -21l20 -129q3 -18 -10 -21l-14 -4q-15 -4 -22 9q-5 9 -14 25.5t-14 25.5q-20 37 -49 54t-80 17h-117q-22 0 -22 -21v-241h92q82 0 82 84v6
q0 11 3.5 14.5t12.5 3.5h17q14 0 14 -18v-223q0 -16 -14 -16h-17q-17 0 -17 19v7q-2 39 -20.5 56.5t-62.5 17.5h-90v-195q0 -52 17 -73t60 -21h57q101 0 163 98q6 9 15.5 25.5t12.5 22.5q6 11 21 8l12 -3q14 -3 11 -19z" />
    <glyph glyph-name="ebreve" unicode="&#x115;" horiz-adv-x="563" 
d="M294 587q-66 0 -103 46q-26 31 -40 84q-4 18 8 23l11 5q14 6 20 -5q16 -31 40 -49q28 -19 64 -19t62 18q21 14 41 48q7 12 20 7l13 -5q9 -4 5 -21q-16 -55 -40 -84q-37 -48 -101 -48zM515 133q-26 -64 -83 -103.5t-141 -39.5q-107 0 -181.5 70t-74.5 196
q0 130 76.5 202.5t190.5 72.5q95 0 161 -58t65 -154q0 -28 -22 -28h-295q1 -92 42.5 -144.5t109.5 -52.5q75 0 114 61q7 12 17 7l18 -8q9 -4 3 -21zM292 482q-32 0 -53.5 -38.5t-26.5 -107.5h109q29 0 29 40q0 106 -58 106z" />
    <glyph glyph-name="Edotaccent" unicode="&#x116;" horiz-adv-x="715" 
d="M293 849q0 28 20.5 48.5t48.5 20.5t48.5 -20t20.5 -49t-20.5 -49t-48.5 -20t-48.5 20.5t-20.5 48.5zM647 28q-3 -17 -10.5 -22.5t-24.5 -5.5h-548q-14 0 -18.5 3.5t-4.5 12.5v16q0 18 21 18h6q32 0 46.5 15t14.5 50v470q0 35 -14.5 50t-46.5 15h-6q-21 0 -21 18v16
q0 9 4.5 12.5t18.5 3.5h532q17 0 23 -6t8 -21l20 -129q3 -18 -10 -21l-14 -4q-15 -4 -22 9q-5 9 -14 25.5t-14 25.5q-20 37 -49 54t-80 17h-117q-22 0 -22 -21v-241h92q82 0 82 84v6q0 11 3.5 14.5t12.5 3.5h17q14 0 14 -18v-223q0 -16 -14 -16h-17q-17 0 -17 19v7
q-2 39 -20.5 56.5t-62.5 17.5h-90v-195q0 -52 17 -73t60 -21h57q101 0 163 98q6 9 15.5 25.5t12.5 22.5q6 11 21 8l12 -3q14 -3 11 -19z" />
    <glyph glyph-name="edotaccent" unicode="&#x117;" horiz-adv-x="563" 
d="M306 593q-33 0 -56 22t-23 55q0 34 23 56t56 22q34 0 55.5 -22t21.5 -56t-21.5 -55.5t-55.5 -21.5zM515 133q-26 -64 -83 -103.5t-141 -39.5q-107 0 -181.5 70t-74.5 196q0 130 76.5 202.5t190.5 72.5q95 0 161 -58t65 -154q0 -28 -22 -28h-295q1 -92 42.5 -144.5
t109.5 -52.5q75 0 114 61q7 12 17 7l18 -8q9 -4 3 -21zM292 482q-32 0 -53.5 -38.5t-26.5 -107.5h109q29 0 29 40q0 106 -58 106z" />
    <glyph glyph-name="Eogonek" unicode="&#x118;" horiz-adv-x="715" 
d="M637 -198q-54 -90 -146 -90q-51 0 -82.5 26t-31.5 69q0 94 133 193h-446q-14 0 -18.5 3.5t-4.5 12.5v16q0 18 21 18h6q32 0 46.5 15t14.5 50v470q0 35 -14.5 50t-46.5 15h-6q-21 0 -21 18v16q0 9 4.5 12.5t18.5 3.5h532q17 0 23 -6t8 -21l20 -129q3 -18 -10 -21l-14 -4
q-15 -4 -22 9q-5 9 -14 25.5t-14 25.5q-20 37 -49 54t-80 17h-117q-22 0 -22 -21v-241h92q82 0 82 84v6q0 11 3.5 14.5t12.5 3.5h17q14 0 14 -18v-223q0 -16 -14 -16h-17q-17 0 -17 19v7q-2 39 -20.5 56.5t-62.5 17.5h-90v-195q0 -52 17 -73t60 -21h57q101 0 163 98
q6 9 15.5 25.5t12.5 22.5q6 11 21 8l12 -3q14 -3 11 -19l-27 -154q-3 -17 -10.5 -22.5t-24.5 -5.5h-46q-75 -75 -75 -133q0 -30 16.5 -49t44.5 -19q30 0 57 25q9 9 18 2l8 -6q9 -7 2 -18z" />
    <glyph glyph-name="eogonek" unicode="&#x119;" horiz-adv-x="563" 
d="M455 -198q-54 -90 -146 -90q-51 0 -82.5 26t-31.5 69q0 89 121 184q-8 -1 -25 -1q-107 0 -181.5 70t-74.5 196q0 130 76.5 202.5t190.5 72.5q95 0 161 -58t65 -154q0 -28 -22 -28h-295q1 -92 42.5 -144.5t109.5 -52.5q75 0 114 61q7 12 17 7l18 -8q9 -4 3 -21
q-35 -88 -120 -123q-86 -79 -86 -143q0 -30 16.5 -49t44.5 -19q30 0 57 25q9 9 18 2l8 -6q9 -7 2 -18zM292 482q-32 0 -53.5 -38.5t-26.5 -107.5h109q29 0 29 40q0 106 -58 106z" />
    <glyph glyph-name="Ecaron" unicode="&#x11a;" horiz-adv-x="715" 
d="M411 767q-7 -7 -18 -7h-57q-10 0 -17 7l-119 120q-9 9 -1 20l7 9q8 10 18 5l142 -77l139 76q12 7 19 -2l8 -11q8 -11 -2 -20zM647 28q-3 -17 -10.5 -22.5t-24.5 -5.5h-548q-14 0 -18.5 3.5t-4.5 12.5v16q0 18 21 18h6q32 0 46.5 15t14.5 50v470q0 35 -14.5 50t-46.5 15
h-6q-21 0 -21 18v16q0 9 4.5 12.5t18.5 3.5h532q17 0 23 -6t8 -21l20 -129q3 -18 -10 -21l-14 -4q-15 -4 -22 9q-5 9 -14 25.5t-14 25.5q-20 37 -49 54t-80 17h-117q-22 0 -22 -21v-241h92q82 0 82 84v6q0 11 3.5 14.5t12.5 3.5h17q14 0 14 -18v-223q0 -16 -14 -16h-17
q-17 0 -17 19v7q-2 39 -20.5 56.5t-62.5 17.5h-90v-195q0 -52 17 -73t60 -21h57q101 0 163 98q6 9 15.5 25.5t12.5 22.5q6 11 21 8l12 -3q14 -3 11 -19z" />
    <glyph glyph-name="ecaron" unicode="&#x11b;" horiz-adv-x="563" 
d="M345 585q-7 -10 -20 -10h-52q-13 0 -20 10l-90 139q-9 14 2 23l8 7q10 8 20 0l108 -89l114 89q11 8 21 0l8 -7q8 -8 0 -20zM515 133q-26 -64 -83 -103.5t-141 -39.5q-107 0 -181.5 70t-74.5 196q0 130 76.5 202.5t190.5 72.5q95 0 161 -58t65 -154q0 -28 -22 -28h-295
q1 -92 42.5 -144.5t109.5 -52.5q75 0 114 61q7 12 17 7l18 -8q9 -4 3 -21zM292 482q-32 0 -53.5 -38.5t-26.5 -107.5h109q29 0 29 40q0 106 -58 106z" />
    <glyph glyph-name="Gcircumflex" unicode="&#x11c;" horiz-adv-x="833" 
d="M282 764q-12 -6 -19 2l-8 11q-7 10 2 20l118 120q7 7 18 7h59q10 0 17 -7l118 -120q9 -9 1 -20l-7 -9q-8 -10 -18 -5l-142 77zM443 714q90 0 176 -47q14 -7 20 -7q8 0 15 11l12 22q6 11 16 11h15q13 0 13 -14l3 -195q0 -18 -14 -18h-22q-17 0 -21 14q-57 168 -203 168
q-104 0 -159.5 -83t-55.5 -220q0 -139 56 -227.5t160 -88.5q71 0 103 34t32 106v16q0 45 -12 63.5t-46 18.5h-15q-23 0 -23 15v19q0 16 18 16h275q17 0 17 -16v-18q0 -16 -16 -16h-18q-22 0 -30 -13.5t-8 -45.5v-101q0 -25 -4.5 -34.5t-20.5 -22.5q-42 -32 -110.5 -53.5
t-149.5 -21.5t-150.5 21t-125 63t-87 111.5t-31.5 158.5q0 178 110.5 276t280.5 98z" />
    <glyph glyph-name="gcircumflex" unicode="&#x11d;" horiz-adv-x="622" 
d="M437 574q-10 -9 -20 -1l-107 91l-115 -90q-11 -8 -20 -1l-8 7q-10 8 -2 20l101 144q7 10 20 10h50q13 0 20 -10l91 -141q8 -13 -2 -22zM595 -79q0 -104 -81.5 -156.5t-230.5 -52.5q-52 0 -97 6.5t-85 21t-63.5 41.5t-23.5 64q0 77 116 102q-37 8 -60 40t-23 68
q0 87 100 132q-94 49 -94 154q0 90 70 140t181 50q87 0 146 -38q54 46 110 46q28 0 44.5 -15t16.5 -39q0 -18 -11 -31t-29 -13q-24 0 -42 23q-14 19 -26 19q-14 0 -33 -14q50 -48 50 -122q0 -87 -66.5 -138.5t-171.5 -51.5q-58 0 -105 14q-28 -14 -28 -47q0 -45 69 -45h163
q204 0 204 -158zM366 333q0 146 -73 146q-38 0 -56.5 -37t-18.5 -90q0 -61 19 -102t59 -41q38 0 54.5 36t15.5 88zM473 -133q0 38 -25.5 52t-84.5 14h-130q-49 0 -79 -17.5t-30 -51.5q0 -52 49.5 -77.5t126.5 -25.5q76 0 124.5 28.5t48.5 77.5z" />
    <glyph glyph-name="Gbreve" unicode="&#x11e;" horiz-adv-x="833" 
d="M440 763q-69 0 -113 46q-29 31 -49 85q-4 13 7 19l11 6q13 7 20 -4q25 -35 52 -49q28 -16 72 -16t74 16q25 14 50 49q7 11 20 4l12 -6q10 -6 6 -19q-20 -54 -49 -84q-42 -47 -113 -47zM443 714q90 0 176 -47q14 -7 20 -7q8 0 15 11l12 22q6 11 16 11h15q13 0 13 -14
l3 -195q0 -18 -14 -18h-22q-17 0 -21 14q-57 168 -203 168q-104 0 -159.5 -83t-55.5 -220q0 -139 56 -227.5t160 -88.5q71 0 103 34t32 106v16q0 45 -12 63.5t-46 18.5h-15q-23 0 -23 15v19q0 16 18 16h275q17 0 17 -16v-18q0 -16 -16 -16h-18q-22 0 -30 -13.5t-8 -45.5
v-101q0 -25 -4.5 -34.5t-20.5 -22.5q-42 -32 -110.5 -53.5t-149.5 -21.5t-150.5 21t-125 63t-87 111.5t-31.5 158.5q0 178 110.5 276t280.5 98z" />
    <glyph glyph-name="gbreve" unicode="&#x11f;" horiz-adv-x="622" 
d="M302 587q-66 0 -103 46q-26 31 -40 84q-4 18 8 23l11 5q14 6 20 -5q16 -31 40 -49q28 -19 64 -19t62 18q21 14 41 48q7 12 20 7l13 -5q9 -4 5 -21q-16 -55 -40 -84q-37 -48 -101 -48zM595 -79q0 -104 -81.5 -156.5t-230.5 -52.5q-52 0 -97 6.5t-85 21t-63.5 41.5
t-23.5 64q0 77 116 102q-37 8 -60 40t-23 68q0 87 100 132q-94 49 -94 154q0 90 70 140t181 50q87 0 146 -38q54 46 110 46q28 0 44.5 -15t16.5 -39q0 -18 -11 -31t-29 -13q-24 0 -42 23q-14 19 -26 19q-14 0 -33 -14q50 -48 50 -122q0 -87 -66.5 -138.5t-171.5 -51.5
q-58 0 -105 14q-28 -14 -28 -47q0 -45 69 -45h163q204 0 204 -158zM366 333q0 146 -73 146q-38 0 -56.5 -37t-18.5 -90q0 -61 19 -102t59 -41q38 0 54.5 36t15.5 88zM473 -133q0 38 -25.5 52t-84.5 14h-130q-49 0 -79 -17.5t-30 -51.5q0 -52 49.5 -77.5t126.5 -25.5
q76 0 124.5 28.5t48.5 77.5z" />
    <glyph glyph-name="Gdotaccent" unicode="&#x120;" horiz-adv-x="833" 
d="M363 849q0 28 20.5 48.5t48.5 20.5t48.5 -20t20.5 -49t-20.5 -49t-48.5 -20t-48.5 20.5t-20.5 48.5zM443 714q90 0 176 -47q14 -7 20 -7q8 0 15 11l12 22q6 11 16 11h15q13 0 13 -14l3 -195q0 -18 -14 -18h-22q-17 0 -21 14q-57 168 -203 168q-104 0 -159.5 -83
t-55.5 -220q0 -139 56 -227.5t160 -88.5q71 0 103 34t32 106v16q0 45 -12 63.5t-46 18.5h-15q-23 0 -23 15v19q0 16 18 16h275q17 0 17 -16v-18q0 -16 -16 -16h-18q-22 0 -30 -13.5t-8 -45.5v-101q0 -25 -4.5 -34.5t-20.5 -22.5q-42 -32 -110.5 -53.5t-149.5 -21.5
t-150.5 21t-125 63t-87 111.5t-31.5 158.5q0 178 110.5 276t280.5 98z" />
    <glyph glyph-name="gdotaccent" unicode="&#x121;" horiz-adv-x="622" 
d="M311 593q-33 0 -56 22t-23 55q0 34 23 56t56 22q34 0 55.5 -22t21.5 -56t-21.5 -55.5t-55.5 -21.5zM595 -79q0 -104 -81.5 -156.5t-230.5 -52.5q-52 0 -97 6.5t-85 21t-63.5 41.5t-23.5 64q0 77 116 102q-37 8 -60 40t-23 68q0 87 100 132q-94 49 -94 154q0 90 70 140
t181 50q87 0 146 -38q54 46 110 46q28 0 44.5 -15t16.5 -39q0 -18 -11 -31t-29 -13q-24 0 -42 23q-14 19 -26 19q-14 0 -33 -14q50 -48 50 -122q0 -87 -66.5 -138.5t-171.5 -51.5q-58 0 -105 14q-28 -14 -28 -47q0 -45 69 -45h163q204 0 204 -158zM366 333q0 146 -73 146
q-38 0 -56.5 -37t-18.5 -90q0 -61 19 -102t59 -41q38 0 54.5 36t15.5 88zM473 -133q0 38 -25.5 52t-84.5 14h-130q-49 0 -79 -17.5t-30 -51.5q0 -52 49.5 -77.5t126.5 -25.5q76 0 124.5 28.5t48.5 77.5z" />
    <glyph glyph-name="Gcommaaccent" unicode="&#x122;" horiz-adv-x="833" 
d="M443 714q90 0 176 -47q14 -7 20 -7q8 0 15 11l12 22q6 11 16 11h15q13 0 13 -14l3 -195q0 -18 -14 -18h-22q-17 0 -21 14q-57 168 -203 168q-104 0 -159.5 -83t-55.5 -220q0 -139 56 -227.5t160 -88.5q71 0 103 34t32 106v16q0 45 -12 63.5t-46 18.5h-15q-23 0 -23 15v19
q0 16 18 16h275q17 0 17 -16v-18q0 -16 -16 -16h-18q-22 0 -30 -13.5t-8 -45.5v-101q0 -25 -4.5 -34.5t-20.5 -22.5q-42 -32 -110.5 -53.5t-149.5 -21.5t-150.5 21t-125 63t-87 111.5t-31.5 158.5q0 178 110.5 276t280.5 98zM385 -292q-10 -3 -15 6l-6 10q-6 10 4 17
q28 18 42 30q32 31 43 54q-9 -4 -24 -4q-26 0 -43 16t-17 41q0 30 20.5 48.5t49.5 18.5q33 0 53.5 -23.5t20.5 -62.5q0 -70 -72 -122q-30 -21 -56 -29z" />
    <glyph glyph-name="gcommaaccent" unicode="&#x123;" horiz-adv-x="622" 
d="M373 633q0 -29 -18.5 -46t-45.5 -17q-32 0 -50.5 23t-18.5 61q0 70 67 122q23 18 54 32q11 5 16 -5l6 -10q6 -9 -4 -16q-27 -18 -41 -32q-29 -27 -44 -61q8 4 24 4q24 0 39.5 -15.5t15.5 -39.5zM595 -79q0 -104 -81.5 -156.5t-230.5 -52.5q-52 0 -97 6.5t-85 21
t-63.5 41.5t-23.5 64q0 77 116 102q-37 8 -60 40t-23 68q0 87 100 132q-94 49 -94 154q0 90 70 140t181 50q87 0 146 -38q54 46 110 46q28 0 44.5 -15t16.5 -39q0 -18 -11 -31t-29 -13q-24 0 -42 23q-14 19 -26 19q-14 0 -33 -14q50 -48 50 -122q0 -87 -66.5 -138.5
t-171.5 -51.5q-58 0 -105 14q-28 -14 -28 -47q0 -45 69 -45h163q204 0 204 -158zM366 333q0 146 -73 146q-38 0 -56.5 -37t-18.5 -90q0 -61 19 -102t59 -41q38 0 54.5 36t15.5 88zM473 -133q0 38 -25.5 52t-84.5 14h-130q-49 0 -79 -17.5t-30 -51.5q0 -52 49.5 -77.5
t126.5 -25.5q76 0 124.5 28.5t48.5 77.5z" />
    <glyph glyph-name="Hcircumflex" unicode="&#x124;" horiz-adv-x="928" 
d="M319 764q-12 -6 -19 2l-8 11q-8 10 2 20l118 120q7 7 18 7h59q10 0 17 -7l118 -120q9 -9 1 -20l-7 -9q-8 -10 -18 -5l-142 77zM393 18q0 -18 -21 -18h-308q-14 0 -18.5 3.5t-4.5 12.5v16q0 18 21 18h6q32 0 46.5 15t14.5 50v470q0 35 -14.5 50t-46.5 15h-6q-21 0 -21 18
v16q0 9 4.5 12.5t18.5 3.5h308q21 0 21 -18v-16q0 -9 -4.5 -12.5t-18.5 -3.5h-7q-58 0 -58 -65v-197h318v197q0 35 -14.5 50t-46.5 15h-6q-21 0 -21 18v16q0 9 4.5 12.5t18.5 3.5h308q21 0 21 -18v-16q0 -9 -4.5 -12.5t-18.5 -3.5h-7q-58 0 -58 -65v-470q0 -65 58 -65h7
q14 0 18.5 -3.5t4.5 -12.5v-16q0 -18 -21 -18h-308q-14 0 -18.5 3.5t-4.5 12.5v16q0 18 21 18h6q32 0 46.5 15t14.5 50v223h-318v-223q0 -65 58 -65h7q14 0 18.5 -3.5t4.5 -12.5v-16z" />
    <glyph glyph-name="hcircumflex" unicode="&#x125;" horiz-adv-x="679" 
d="M313 776q-8 -8 -20 -1l-127 83l-126 -83q-11 -7 -18 0l-9 8q-9 9 -2 19l108 134q7 10 20 10h54q11 0 20 -10l110 -131q9 -10 -2 -21zM91 622q0 29 -24 32l-35 4q-12 1 -12 13v13q0 13 11 16l201 58q8 3 14 -1l7 -4q5 -3 5 -11v-312q32 43 81 72t99 29q71 0 113.5 -41.5
t42.5 -114.5v-261q0 -32 7.5 -47t27.5 -18l7 -1q23 -3 23 -16v-14q0 -18 -21 -18h-253q-12 0 -15.5 3.5t-3.5 12.5v14q0 15 17 18l6 1q21 4 29.5 19t8.5 46v240q0 35 -19.5 54t-52.5 19q-45 0 -97 -39v-274q0 -60 35 -65l7 -1q19 -3 19 -16v-14q0 -18 -17 -18h-253
q-14 0 -18.5 3.5t-4.5 12.5v14q0 9 4.5 12.5t16.5 5.5l6 1q22 4 30 18.5t8 46.5v508z" />
    <glyph glyph-name="Hbar" unicode="&#x126;" horiz-adv-x="934" 
d="M396 18q0 -18 -21 -18h-308q-14 0 -18.5 3.5t-4.5 12.5v16q0 18 21 18h6q32 0 47.5 15t15.5 50v379h-75q-9 0 -12 3t-3 13v13q0 10 3 13t12 3h75v46q0 35 -15.5 50t-47.5 15h-6q-21 0 -21 18v16q0 9 4.5 12.5t18.5 3.5h308q21 0 21 -18v-16q0 -9 -4.5 -12.5t-18.5 -3.5
h-7q-59 0 -59 -65v-46h320v46q0 35 -15 50t-47 15h-6q-21 0 -21 18v16q0 9 4.5 12.5t18.5 3.5h308q21 0 21 -18v-16q0 -9 -4.5 -12.5t-18.5 -3.5h-7q-60 0 -60 -65v-46h75q9 0 12 -3t3 -13v-13q0 -10 -3 -13t-12 -3h-75v-379q0 -65 60 -65h7q14 0 18.5 -3.5t4.5 -12.5v-16
q0 -18 -21 -18h-308q-14 0 -18.5 3.5t-4.5 12.5v16q0 18 21 18h6q32 0 47 15t15 50v223h-320v-223q0 -65 59 -65h7q14 0 18.5 -3.5t4.5 -12.5v-16zM307 388h320v106h-320v-106z" />
    <glyph glyph-name="hbar" unicode="&#x127;" horiz-adv-x="678" 
d="M318 18q0 -18 -17 -18h-252q-14 0 -18.5 3.5t-4.5 12.5v14q0 9 4.5 12.5t16.5 5.5l6 1q23 4 31 18.5t8 46.5v469h-57q-9 0 -12 3t-3 13v10q0 10 3 13t12 3h57v30q0 28 -24 29l-36 2q-12 1 -12 13v12q0 13 11 16l200 41q10 2 14 -1l7 -4q5 -3 5 -11v-127h122q9 0 12 -3
t3 -13v-10q0 -10 -3 -13t-12 -3h-122v-163q32 43 81 72t99 29q71 0 113.5 -41.5t42.5 -114.5v-251q0 -32 7.5 -47t27.5 -18l7 -1q23 -3 23 -16v-14q0 -18 -21 -18h-253q-12 0 -15.5 3.5t-3.5 12.5v14q0 15 17 18l6 1q21 4 29.5 19t8.5 46v230q0 35 -19.5 54t-52.5 19
q-45 0 -97 -39v-264q0 -60 35 -65l7 -1q19 -3 19 -16v-14z" />
    <glyph glyph-name="Itilde" unicode="&#x128;" horiz-adv-x="434" 
d="M313 777q-22 0 -61 10l-84 23q-16 5 -33 5q-31 0 -54 -45q-6 -11 -18 -7l-10 3q-14 5 -9 19q35 116 98 116q21 0 55 -9l86 -23q21 -6 34 -6q18 0 29 11t20 35q5 13 17 10l11 -2q12 -3 10 -16q-25 -124 -91 -124zM129 115v470q0 35 -14.5 50t-46.5 15h-6q-21 0 -21 18v16
q0 9 4.5 12.5t18.5 3.5h308q21 0 21 -18v-16q0 -9 -4.5 -12.5t-18.5 -3.5h-7q-58 0 -58 -65v-470q0 -65 58 -65h7q14 0 18.5 -3.5t4.5 -12.5v-16q0 -18 -21 -18h-308q-14 0 -18.5 3.5t-4.5 12.5v16q0 18 21 18h6q32 0 46.5 15t14.5 50z" />
    <glyph glyph-name="itilde" unicode="&#x129;" horiz-adv-x="353" 
d="M104 731q19 0 52 -12l51 -19q23 -9 36 -9q29 0 47 43q5 12 16 9l11 -3q12 -3 9 -16q-24 -121 -93 -121q-19 0 -58 14l-44 17q-26 10 -41 10q-25 0 -46 -42q-5 -11 -16 -8l-11 3q-12 3 -8 18q27 116 95 116zM101 394q0 29 -24 32l-32 4q-12 1 -12 13v13q0 13 11 16l198 58
q8 3 14 -1l7 -4q5 -3 5 -11v-400q0 -60 36 -65l13 -2q16 -2 16 -16v-15q0 -10 -3.5 -13t-14.5 -3h-262q-10 0 -13.5 3.5t-3.5 12.5v14q0 14 15 17l11 2q22 4 30.5 18.5t8.5 46.5v280z" />
    <glyph glyph-name="Imacron" unicode="&#x12a;" horiz-adv-x="434" 
d="M354 795h-274q-9 0 -12 3t-3 13v46q0 10 3 13t12 3h274q9 0 12 -3t3 -13v-46q0 -10 -3 -13t-12 -3zM129 115v470q0 35 -14.5 50t-46.5 15h-6q-21 0 -21 18v16q0 9 4.5 12.5t18.5 3.5h308q21 0 21 -18v-16q0 -9 -4.5 -12.5t-18.5 -3.5h-7q-58 0 -58 -65v-470q0 -65 58 -65
h7q14 0 18.5 -3.5t4.5 -12.5v-16q0 -18 -21 -18h-308q-14 0 -18.5 3.5t-4.5 12.5v16q0 18 21 18h6q32 0 46.5 15t14.5 50z" />
    <glyph glyph-name="imacron" unicode="&#x12b;" horiz-adv-x="353" 
d="M291 623h-242q-11 0 -14 3.5t-3 15.5v44q0 11 3.5 15t13.5 4h242q10 0 13.5 -4t3.5 -15v-44q0 -12 -3 -15.5t-14 -3.5zM101 394q0 29 -24 32l-32 4q-12 1 -12 13v13q0 13 11 16l198 58q8 3 14 -1l7 -4q5 -3 5 -11v-400q0 -60 36 -65l13 -2q16 -2 16 -16v-15
q0 -10 -3.5 -13t-14.5 -3h-262q-10 0 -13.5 3.5t-3.5 12.5v14q0 14 15 17l11 2q22 4 30.5 18.5t8.5 46.5v280z" />
    <glyph glyph-name="Ibreve" unicode="&#x12c;" horiz-adv-x="434" 
d="M219 763q-69 0 -113 46q-29 31 -49 85q-4 13 7 19l11 6q13 7 20 -4q25 -35 52 -49q28 -16 72 -16t74 16q25 14 50 49q7 11 20 4l12 -6q10 -6 6 -19q-20 -54 -49 -84q-42 -47 -113 -47zM129 115v470q0 35 -14.5 50t-46.5 15h-6q-21 0 -21 18v16q0 9 4.5 12.5t18.5 3.5h308
q21 0 21 -18v-16q0 -9 -4.5 -12.5t-18.5 -3.5h-7q-58 0 -58 -65v-470q0 -65 58 -65h7q14 0 18.5 -3.5t4.5 -12.5v-16q0 -18 -21 -18h-308q-14 0 -18.5 3.5t-4.5 12.5v16q0 18 21 18h6q32 0 46.5 15t14.5 50z" />
    <glyph glyph-name="ibreve" unicode="&#x12d;" horiz-adv-x="353" 
d="M172 587q-66 0 -103 46q-26 31 -40 84q-4 18 8 23l11 5q14 6 20 -5q16 -31 40 -49q28 -19 64 -19t62 18q21 14 41 48q7 12 20 7l13 -5q9 -4 5 -21q-16 -55 -40 -84q-37 -48 -101 -48zM101 394q0 29 -24 32l-32 4q-12 1 -12 13v13q0 13 11 16l198 58q8 3 14 -1l7 -4
q5 -3 5 -11v-400q0 -60 36 -65l13 -2q16 -2 16 -16v-15q0 -10 -3.5 -13t-14.5 -3h-262q-10 0 -13.5 3.5t-3.5 12.5v14q0 14 15 17l11 2q22 4 30.5 18.5t8.5 46.5v280z" />
    <glyph glyph-name="Iogonek" unicode="&#x12e;" horiz-adv-x="434" 
d="M351 -197q-54 -90 -146 -90q-51 0 -82.5 26t-31.5 69q0 94 132 192h-159q-14 0 -18.5 3.5t-4.5 12.5v16q0 18 21 18h6q32 0 46.5 15t14.5 50v470q0 35 -14.5 50t-46.5 15h-6q-21 0 -21 18v16q0 9 4.5 12.5t18.5 3.5h308q21 0 21 -18v-16q0 -9 -4.5 -12.5t-18.5 -3.5h-7
q-58 0 -58 -65v-470q0 -65 58 -65h7q14 0 18.5 -3.5t4.5 -12.5v-16q0 -18 -21 -18h-93q-74 -72 -74 -132q0 -30 16.5 -49t44.5 -19q30 0 57 25q9 9 18 2l8 -6q9 -7 2 -18z" />
    <glyph glyph-name="iogonek" unicode="&#x12f;" horiz-adv-x="353" 
d="M177 596q-33 0 -56 22t-23 55q0 34 23 56t56 22q34 0 55.5 -22t21.5 -56t-21.5 -55.5t-55.5 -21.5zM328 -198q-54 -90 -146 -90q-51 0 -82.5 26t-31.5 69q0 94 133 193h-148q-10 0 -13.5 3.5t-3.5 12.5v14q0 14 15 17l11 2q22 4 30.5 18.5t8.5 46.5v280q0 29 -24 32
l-32 4q-12 1 -12 13v13q0 13 11 16l198 58q8 3 14 -1l7 -4q5 -3 5 -11v-400q0 -60 36 -65l13 -2q16 -2 16 -16v-15q0 -10 -3.5 -13t-14.5 -3h-58q-75 -75 -75 -133q0 -30 16.5 -49t44.5 -19q30 0 57 25q9 9 18 2l8 -6q9 -7 2 -18z" />
    <glyph glyph-name="Idotaccent" unicode="&#x130;" horiz-adv-x="434" 
d="M147 849q0 28 20.5 48.5t48.5 20.5t48.5 -20t20.5 -49t-20.5 -49t-48.5 -20t-48.5 20.5t-20.5 48.5zM129 115v470q0 35 -14.5 50t-46.5 15h-6q-21 0 -21 18v16q0 9 4.5 12.5t18.5 3.5h308q21 0 21 -18v-16q0 -9 -4.5 -12.5t-18.5 -3.5h-7q-58 0 -58 -65v-470
q0 -65 58 -65h7q14 0 18.5 -3.5t4.5 -12.5v-16q0 -18 -21 -18h-308q-14 0 -18.5 3.5t-4.5 12.5v16q0 18 21 18h6q32 0 46.5 15t14.5 50z" />
    <glyph glyph-name="dotlessi" unicode="&#x131;" horiz-adv-x="353" 
d="M101 394q0 29 -24 32l-32 4q-12 1 -12 13v13q0 13 11 16l198 58q8 3 14 -1l7 -4q5 -3 5 -11v-400q0 -60 36 -65l13 -2q16 -2 16 -16v-15q0 -10 -3.5 -13t-14.5 -3h-262q-10 0 -13.5 3.5t-3.5 12.5v14q0 14 15 17l11 2q22 4 30.5 18.5t8.5 46.5v280z" />
    <glyph glyph-name="IJ" unicode="&#x132;" horiz-adv-x="816" 
d="M115 383v202q0 35 -13 50t-44 15h-6q-21 0 -21 18v16q0 9 4.5 12.5t18.5 3.5h281q21 0 21 -18v-16q0 -9 -4.5 -12.5t-18.5 -3.5h-7q-25 0 -36 -15.5t-11 -49.5v-202q0 -34 12.5 -49.5t41.5 -15.5h7q14 0 18.5 -3.5t4.5 -12.5v-16q0 -18 -21 -18h-288q-14 0 -18.5 3.5
t-4.5 12.5v16q0 18 21 18h6q31 0 44 15t13 50zM542 585q0 35 -14 50t-45 15h-10q-21 0 -21 18v16q0 9 4.5 12.5t18.5 3.5h308q21 0 21 -18v-16q0 -9 -4.5 -12.5t-18.5 -3.5h-7q-58 0 -58 -65v-331q0 -121 -93 -199.5t-253 -78.5q-127 0 -192 47t-65 103q0 40 22 64.5
t60 24.5q34 0 53.5 -19.5t19.5 -55.5q0 -9 -6 -28t-6 -24q0 -28 29.5 -45.5t88.5 -17.5q81 0 124.5 45.5t43.5 125.5v389z" />
    <glyph glyph-name="ij" unicode="&#x133;" horiz-adv-x="677" 
d="M508 596q-33 0 -56 22t-23 55q0 34 23 56t56 22q34 0 55.5 -22t21.5 -56t-21.5 -55.5t-55.5 -21.5zM177 596q-33 0 -56 22t-23 55q0 34 23 56t56 22q34 0 55.5 -22t21.5 -56t-21.5 -55.5t-55.5 -21.5zM434 394q0 29 -24 32l-32 4q-12 1 -12 13v13q0 13 11 16l198 58
q8 3 14 -1l7 -4q5 -3 5 -11v-521q0 -124 -78 -202.5t-188 -78.5q-43 0 -75.5 19.5t-32.5 56.5q0 28 16.5 44t45.5 16q32 0 61 -41q23 -35 41 -35q43 0 43 102v520zM101 394q0 29 -24 32l-32 4q-12 1 -12 13v13q0 13 11 16l198 58q8 3 14 -1l7 -4q5 -3 5 -11v-400
q0 -60 36 -65l13 -2q16 -2 16 -16v-15q0 -10 -3.5 -13t-14.5 -3h-262q-10 0 -13.5 3.5t-3.5 12.5v14q0 14 15 17l11 2q22 4 30.5 18.5t8.5 46.5v280z" />
    <glyph glyph-name="Jcircumflex" unicode="&#x134;" horiz-adv-x="396" 
d="M55 764q-12 -6 -19 2l-8 11q-7 10 2 20l118 120q7 7 18 7h59q10 0 17 -7l118 -120q9 -9 1 -20l-7 -9q-8 -10 -18 -5l-142 77zM114 585q0 36 -15 50.5t-52 14.5h-10q-21 0 -21 18v16q0 9 4.5 12.5t18.5 3.5h316q21 0 21 -18v-16q0 -9 -4.5 -12.5t-18.5 -3.5h-7
q-58 0 -58 -65v-608q0 -122 -72.5 -193.5t-176.5 -71.5q-64 0 -101.5 25t-37.5 69q0 34 21 54.5t54 20.5q28 0 45 -18.5t17 -50.5q0 -8 -1 -19t-1 -15q0 -23 20 -23q28 0 43.5 32.5t15.5 87.5v710z" />
    <glyph glyph-name="jcircumflex" unicode="&#x135;" horiz-adv-x="340" 
d="M293 574q-10 -9 -20 -1l-107 91l-115 -90q-11 -8 -20 -1l-8 7q-10 8 -2 20l101 144q7 10 20 10h50q13 0 20 -10l91 -141q8 -13 -2 -22zM97 394q0 29 -24 32l-32 4q-12 1 -12 13v13q0 13 11 16l198 58q8 3 14 -1l7 -4q5 -3 5 -11v-521q0 -124 -78 -202.5t-188 -78.5
q-43 0 -75.5 19.5t-32.5 56.5q0 28 16.5 44t45.5 16q32 0 61 -41q23 -35 41 -35q43 0 43 102v520z" />
    <glyph glyph-name="Kcommaaccent" unicode="&#x136;" horiz-adv-x="838" 
d="M386 18q0 -18 -21 -18h-301q-14 0 -18.5 3.5t-4.5 12.5v16q0 18 21 18h6q32 0 46.5 15t14.5 50v470q0 35 -14.5 50t-46.5 15h-6q-21 0 -21 18v16q0 9 4.5 12.5t18.5 3.5h308q21 0 21 -18v-16q0 -9 -4.5 -12.5t-18.5 -3.5h-7q-58 0 -58 -65v-200h56l178 168
q40 38 33.5 67.5t-51.5 29.5h-11q-17 0 -17 14v22q0 14 15 14h280q16 0 16 -13v-17q0 -11 -3.5 -15t-17.5 -5q-43 -2 -80 -25t-106 -84l-98 -89l210 -320q19 -29 30 -42t30.5 -25t45.5 -15q13 -1 13 -17v-15q0 -18 -19 -18h-307q-15 0 -15 16v18q0 16 14 16h8q46 0 11 54
l-148 231h-67v-220q0 -35 11.5 -50t39.5 -15h7q14 0 18.5 -3.5t4.5 -12.5v-16zM386 -292q-10 -3 -15 6l-6 10q-6 10 4 17q28 18 42 30q32 31 43 54q-9 -4 -24 -4q-26 0 -43 16t-17 41q0 30 20.5 48.5t49.5 18.5q33 0 53.5 -23.5t20.5 -62.5q0 -70 -72 -122q-30 -21 -56 -29z
" />
    <glyph glyph-name="kcommaaccent" unicode="&#x137;" horiz-adv-x="660" 
d="M311 18q0 -18 -17 -18h-245q-14 0 -18.5 3.5t-4.5 12.5v14q0 9 4.5 12.5t16.5 5.5l6 1q22 4 30 18.5t8 46.5v508q0 29 -24 32l-35 4q-12 1 -12 13v13q0 13 11 16l201 58q8 3 14 -1l7 -4q5 -3 5 -11v-448h30l115 106q29 28 22.5 49t-37.5 23l-11 1q-21 1 -21 16v14
q0 18 21 18h220q14 0 18.5 -3.5t4.5 -12.5v-14q0 -9 -4 -12.5t-16 -5.5q-50 -10 -138 -86l-52 -44l151 -229q1 -2 6.5 -10t7.5 -10.5t7.5 -10t8.5 -10.5t8 -8.5t9.5 -8t10 -5t10.5 -3.5q12 -2 16.5 -5.5t4.5 -12.5v-14q0 -9 -4.5 -12.5t-18.5 -3.5h-243q-21 0 -21 18v14
q0 14 16 16l7 1q35 5 -8 65l-82 128h-38v-128q0 -62 27 -65l7 -1q19 -3 19 -16v-14zM281 -292q-10 -3 -15 6l-6 10q-6 10 4 17q28 18 42 30q32 31 43 54q-9 -4 -24 -4q-26 0 -43 16t-17 41q0 30 20.5 48.5t49.5 18.5q33 0 53.5 -23.5t20.5 -62.5q0 -70 -72 -122
q-30 -21 -56 -29z" />
    <glyph glyph-name="uni0138" unicode="&#x138;" horiz-adv-x="661" 
d="M314 16q0 -10 -3.5 -13t-14.5 -3h-246q-10 0 -13.5 3.5t-3.5 12.5v14q0 14 15 17l11 2q22 4 30.5 18.5t8.5 46.5v293q0 32 -8.5 46.5t-30.5 18.5l-11 2q-15 3 -15 17v14q0 9 3.5 12.5t13.5 3.5h262q11 0 14.5 -3t3.5 -13v-15q0 -14 -16 -16l-13 -2q-20 -3 -28 -13t-8 -32
v-148h29l124 125q24 24 24 44.5t-22 23.5l-7 1q-23 3 -23 16v14q0 18 21 18h206q14 0 18.5 -3.5t4.5 -12.5v-14q0 -9 -4 -12.5t-17 -5.5q-36 -7 -66.5 -25.5t-74.5 -59.5l-58 -53l155 -219q42 -60 79 -68q14 -3 14 -18v-14q0 -9 -4.5 -12.5t-18.5 -3.5h-256q-21 0 -21 18v14
q0 14 15 16l7 1q17 2 19.5 19.5t-15.5 45.5l-83 117h-46v-137q0 -24 5 -34t21 -12l7 -1q9 -2 12.5 -5t3.5 -11v-15z" />
    <glyph glyph-name="Lacute" unicode="&#x139;" horiz-adv-x="742" 
d="M147 765l-6 12q-5 11 7 19l172 113q23 16 48 16q23 0 36 -16t13 -38q0 -38 -46 -51l-206 -61q-13 -4 -18 6zM64 0q-14 0 -18.5 3.5t-4.5 12.5v16q0 18 21 18h6q32 0 46.5 15t14.5 50v470q0 35 -14.5 50t-46.5 15h-6q-21 0 -21 18v16q0 9 4.5 12.5t18.5 3.5h308
q21 0 21 -18v-16q0 -9 -4.5 -12.5t-18.5 -3.5h-7q-58 0 -58 -65v-441q0 -52 17 -73t60 -21h68q63 0 99.5 27t68.5 86q5 8 32 63q7 15 21 12l20 -4q13 -3 10 -17l-30 -189q-3 -17 -10.5 -22.5t-24.5 -5.5h-572z" />
    <glyph glyph-name="lacute" unicode="&#x13a;" horiz-adv-x="344" 
d="M256 957q23 0 38.5 -18t15.5 -43q0 -40 -46 -53l-201 -58q-13 -4 -18 7l-7 13q-6 10 5 18l158 112q31 22 55 22zM91 622q0 29 -24 32l-35 4q-12 1 -12 13v13q0 13 11 16l201 58q8 3 14 -1l7 -4q5 -3 5 -11v-628q0 -60 36 -65l13 -2q16 -2 16 -16v-15q0 -10 -3.5 -13
t-14.5 -3h-262q-10 0 -13.5 3.5t-3.5 12.5v14q0 14 15 17l11 2q22 4 30.5 18.5t8.5 46.5v508z" />
    <glyph glyph-name="Lcommaaccent" unicode="&#x13b;" horiz-adv-x="742" 
d="M64 0q-14 0 -18.5 3.5t-4.5 12.5v16q0 18 21 18h6q32 0 46.5 15t14.5 50v470q0 35 -14.5 50t-46.5 15h-6q-21 0 -21 18v16q0 9 4.5 12.5t18.5 3.5h308q21 0 21 -18v-16q0 -9 -4.5 -12.5t-18.5 -3.5h-7q-58 0 -58 -65v-441q0 -52 17 -73t60 -21h68q63 0 99.5 27t68.5 86
q5 8 32 63q7 15 21 12l20 -4q13 -3 10 -17l-30 -189q-3 -17 -10.5 -22.5t-24.5 -5.5h-572zM351 -292q-10 -3 -15 6l-6 10q-6 10 4 17q28 18 42 30q32 31 43 54q-9 -4 -24 -4q-26 0 -43 16t-17 41q0 30 20.5 48.5t49.5 18.5q33 0 53.5 -23.5t20.5 -62.5q0 -70 -72 -122
q-30 -21 -56 -29z" />
    <glyph glyph-name="lcommaaccent" unicode="&#x13c;" horiz-adv-x="344" 
d="M91 622q0 29 -24 32l-35 4q-12 1 -12 13v13q0 13 11 16l201 58q8 3 14 -1l7 -4q5 -3 5 -11v-628q0 -60 36 -65l13 -2q16 -2 16 -16v-15q0 -10 -3.5 -13t-14.5 -3h-262q-10 0 -13.5 3.5t-3.5 12.5v14q0 14 15 17l11 2q22 4 30.5 18.5t8.5 46.5v508zM121 -292q-10 -3 -15 6
l-6 10q-6 10 4 17q28 18 42 30q32 31 43 54q-9 -4 -24 -4q-26 0 -43 16t-17 41q0 30 20.5 48.5t49.5 18.5q33 0 53.5 -23.5t20.5 -62.5q0 -70 -72 -122q-30 -21 -56 -29z" />
    <glyph glyph-name="Lcaron" unicode="&#x13d;" horiz-adv-x="742" 
d="M512 550q10 11 10 27q0 17 -17 32q-25 23 -25 51q0 24 15.5 39t39.5 15q29 0 47 -22t18 -55q0 -65 -55 -120q-30 -30 -51 -41q-12 -6 -18 3l-9 12q-8 11 2 20q31 25 43 39zM64 0q-14 0 -18.5 3.5t-4.5 12.5v16q0 18 21 18h6q32 0 46.5 15t14.5 50v470q0 35 -14.5 50
t-46.5 15h-6q-21 0 -21 18v16q0 9 4.5 12.5t18.5 3.5h308q21 0 21 -18v-16q0 -9 -4.5 -12.5t-18.5 -3.5h-7q-58 0 -58 -65v-441q0 -52 17 -73t60 -21h68q63 0 99.5 27t68.5 86q5 8 32 63q7 15 21 12l20 -4q13 -3 10 -17l-30 -189q-3 -17 -10.5 -22.5t-24.5 -5.5h-572z" />
    <glyph glyph-name="lcaron" unicode="&#x13e;" horiz-adv-x="344" 
d="M370 604q10 11 10 27q0 17 -17 32q-25 23 -25 51q0 24 15.5 39t39.5 15q29 0 47 -22t18 -55q0 -65 -55 -120q-30 -30 -51 -41q-12 -6 -18 3l-9 12q-8 11 2 20q31 25 43 39zM91 622q0 29 -24 32l-35 4q-12 1 -12 13v13q0 13 11 16l201 58q8 3 14 -1l7 -4q5 -3 5 -11v-628
q0 -60 36 -65l13 -2q16 -2 16 -16v-15q0 -10 -3.5 -13t-14.5 -3h-262q-10 0 -13.5 3.5t-3.5 12.5v14q0 14 15 17l11 2q22 4 30.5 18.5t8.5 46.5v508z" />
    <glyph glyph-name="Ldot" unicode="&#x13f;" horiz-adv-x="742" 
d="M64 0q-14 0 -18.5 3.5t-4.5 12.5v16q0 18 21 18h6q32 0 46.5 15t14.5 50v470q0 35 -14.5 50t-46.5 15h-6q-21 0 -21 18v16q0 9 4.5 12.5t18.5 3.5h308q21 0 21 -18v-16q0 -9 -4.5 -12.5t-18.5 -3.5h-7q-58 0 -58 -65v-441q0 -52 17 -73t60 -21h68q63 0 99.5 27t68.5 86
q5 8 32 63q7 15 21 12l20 -4q13 -3 10 -17l-30 -189q-3 -17 -10.5 -22.5t-24.5 -5.5h-572zM569 317q-34 0 -56 20.5t-22 56.5q0 35 23 56.5t56 21.5t55 -21.5t22 -56.5q0 -34 -22 -55.5t-56 -21.5z" />
    <glyph glyph-name="ldot" unicode="&#x140;" horiz-adv-x="461" 
d="M91 622q0 29 -24 32l-35 4q-12 1 -12 13v13q0 13 11 16l201 58q8 3 14 -1l7 -4q5 -3 5 -11v-628q0 -60 36 -65l13 -2q16 -2 16 -16v-15q0 -10 -3.5 -13t-14.5 -3h-262q-10 0 -13.5 3.5t-3.5 12.5v14q0 14 15 17l11 2q22 4 30.5 18.5t8.5 46.5v508zM401 297
q-30 0 -51.5 19.5t-21.5 50.5t21 51t52 20t51 -19.5t20 -51.5q0 -31 -20 -50.5t-51 -19.5z" />
    <glyph glyph-name="Lslash" unicode="&#x141;" horiz-adv-x="742" 
d="M671 28q-3 -17 -10.5 -22.5t-24.5 -5.5h-572q-14 0 -18.5 3.5t-4.5 12.5v16q0 18 21 18h6q32 0 46.5 15t14.5 50v157l-71 -41q-17 -9 -17 9v27q0 15 12 22l76 44v252q0 35 -14.5 50t-46.5 15h-6q-21 0 -21 18v16q0 9 4.5 12.5t18.5 3.5h307q21 0 21 -18v-16
q0 -9 -4.5 -12.5t-18.5 -3.5h-7q-58 0 -58 -65v-157l124 72q17 10 17 -7v-29q0 -14 -13 -22l-128 -75v-223q0 -52 17 -73t60 -21h69q63 0 99.5 27t68.5 86q5 8 32 63q7 15 21 12l20 -4q13 -3 10 -17z" />
    <glyph glyph-name="lslash" unicode="&#x142;" horiz-adv-x="346" 
d="M322 16q0 -10 -3.5 -13t-14.5 -3h-260q-10 0 -13.5 3.5t-3.5 12.5v14q0 14 15 17l11 2q22 4 30.5 18.5t8.5 46.5v181l-56 -32q-19 -10 -19 9v18q0 16 12 23l63 36v273q0 29 -24 32l-35 4q-12 1 -12 13v13q0 13 11 16l199 58q8 3 14 -1l7 -4q5 -3 5 -11v-308l56 31
q18 10 18 -9v-19q0 -17 -11 -23l-63 -35v-265q0 -60 36 -65l13 -2q16 -2 16 -16v-15z" />
    <glyph glyph-name="Nacute" unicode="&#x143;" horiz-adv-x="812" 
d="M325 765l-6 12q-5 11 7 19l172 113q23 16 48 16q23 0 36 -16t13 -38q0 -38 -46 -51l-206 -61q-13 -4 -18 6zM299 14q0 -14 -15 -14h-252q-18 0 -18 15v18q0 15 17 17l12 1q45 4 62.5 41t17.5 134v330q0 48 -24.5 71t-60.5 23h-2q-21 0 -21 18v15q0 10 4 13.5t18 3.5h194
q31 0 50 -22l366 -429v252q0 77 -19 111t-57 37l-12 1q-22 1 -22 17v16q0 17 18 17h234q11 0 15 -3.5t4 -12.5v-17q0 -9 -3.5 -12.5t-15.5 -4.5l-10 -1q-40 -4 -57.5 -37t-17.5 -113v-480q0 -19 -19 -19h-45q-14 0 -26 13l-434 511v-298q0 -96 19.5 -133t69.5 -42l11 -1
q11 -1 15 -4.5t4 -12.5v-19z" />
    <glyph glyph-name="nacute" unicode="&#x144;" horiz-adv-x="677" 
d="M458 763q21 0 37.5 -18t16.5 -44q0 -28 -40 -46l-183 -81q-13 -5 -19 4l-8 12q-7 10 2 19l146 131q25 23 48 23zM57 0q-21 0 -21 15v15q0 14 15 17l13 2q22 4 29.5 18.5t7.5 46.5v280q0 29 -24 32l-32 4q-12 1 -12 13v13q0 13 11 16l195 58q8 3 14 -1l7 -4q5 -3 5 -11
v-84q29 42 78 71.5t98 29.5q69 0 110 -41.5t41 -111.5v-264q0 -60 36 -65l13 -2q16 -2 16 -16v-15q0 -10 -3.5 -13t-14.5 -3h-252q-10 0 -13.5 3.5t-3.5 12.5v14q0 14 15 17l6 1q21 4 27.5 18.5t6.5 47.5v240q0 73 -67 73q-46 0 -90 -39v-274q0 -33 5.5 -47t23.5 -18l11 -2
q15 -3 15 -16v-13q0 -18 -19 -18h-247z" />
    <glyph glyph-name="Ncommaaccent" unicode="&#x145;" horiz-adv-x="812" 
d="M299 14q0 -14 -15 -14h-252q-18 0 -18 15v18q0 15 17 17l12 1q45 4 62.5 41t17.5 134v330q0 48 -24.5 71t-60.5 23h-2q-21 0 -21 18v15q0 10 4 13.5t18 3.5h194q31 0 50 -22l366 -429v252q0 77 -19 111t-57 37l-12 1q-22 1 -22 17v16q0 17 18 17h234q11 0 15 -3.5
t4 -12.5v-17q0 -9 -3.5 -12.5t-15.5 -4.5l-10 -1q-40 -4 -57.5 -37t-17.5 -113v-480q0 -19 -19 -19h-45q-14 0 -26 13l-434 511v-298q0 -96 19.5 -133t69.5 -42l11 -1q11 -1 15 -4.5t4 -12.5v-19zM381 -292q-10 -3 -15 6l-6 10q-6 10 4 17q28 18 42 30q32 31 43 54
q-9 -4 -24 -4q-26 0 -43 16t-17 41q0 30 20.5 48.5t49.5 18.5q33 0 53.5 -23.5t20.5 -62.5q0 -70 -72 -122q-30 -21 -56 -29z" />
    <glyph glyph-name="ncommaaccent" unicode="&#x146;" horiz-adv-x="677" 
d="M57 0q-21 0 -21 15v15q0 14 15 17l13 2q22 4 29.5 18.5t7.5 46.5v280q0 29 -24 32l-32 4q-12 1 -12 13v13q0 13 11 16l195 58q8 3 14 -1l7 -4q5 -3 5 -11v-84q29 42 78 71.5t98 29.5q69 0 110 -41.5t41 -111.5v-264q0 -60 36 -65l13 -2q16 -2 16 -16v-15q0 -10 -3.5 -13
t-14.5 -3h-252q-10 0 -13.5 3.5t-3.5 12.5v14q0 14 15 17l6 1q21 4 27.5 18.5t6.5 47.5v240q0 73 -67 73q-46 0 -90 -39v-274q0 -33 5.5 -47t23.5 -18l11 -2q15 -3 15 -16v-13q0 -18 -19 -18h-247zM294 -292q-10 -3 -15 6l-6 10q-6 10 4 17q28 18 42 30q32 31 43 54
q-9 -4 -24 -4q-26 0 -43 16t-17 41q0 30 20.5 48.5t49.5 18.5q33 0 53.5 -23.5t20.5 -62.5q0 -70 -72 -122q-30 -21 -56 -29z" />
    <glyph glyph-name="Ncaron" unicode="&#x147;" horiz-adv-x="812" 
d="M470 767q-7 -7 -18 -7h-57q-10 0 -17 7l-119 120q-9 9 -1 20l7 9q8 10 18 5l142 -77l139 76q12 7 19 -2l8 -11q8 -11 -2 -20zM299 14q0 -14 -15 -14h-252q-18 0 -18 15v18q0 15 17 17l12 1q45 4 62.5 41t17.5 134v330q0 48 -24.5 71t-60.5 23h-2q-21 0 -21 18v15
q0 10 4 13.5t18 3.5h194q31 0 50 -22l366 -429v252q0 77 -19 111t-57 37l-12 1q-22 1 -22 17v16q0 17 18 17h234q11 0 15 -3.5t4 -12.5v-17q0 -9 -3.5 -12.5t-15.5 -4.5l-10 -1q-40 -4 -57.5 -37t-17.5 -113v-480q0 -19 -19 -19h-45q-14 0 -26 13l-434 511v-298
q0 -96 19.5 -133t69.5 -42l11 -1q11 -1 15 -4.5t4 -12.5v-19z" />
    <glyph glyph-name="ncaron" unicode="&#x148;" horiz-adv-x="677" 
d="M390 585q-7 -10 -20 -10h-52q-13 0 -20 10l-90 139q-9 14 2 23l8 7q10 8 20 0l108 -89l114 89q11 8 21 0l8 -7q8 -8 0 -20zM57 0q-21 0 -21 15v15q0 14 15 17l13 2q22 4 29.5 18.5t7.5 46.5v280q0 29 -24 32l-32 4q-12 1 -12 13v13q0 13 11 16l195 58q8 3 14 -1l7 -4
q5 -3 5 -11v-84q29 42 78 71.5t98 29.5q69 0 110 -41.5t41 -111.5v-264q0 -60 36 -65l13 -2q16 -2 16 -16v-15q0 -10 -3.5 -13t-14.5 -3h-252q-10 0 -13.5 3.5t-3.5 12.5v14q0 14 15 17l6 1q21 4 27.5 18.5t6.5 47.5v240q0 73 -67 73q-46 0 -90 -39v-274q0 -33 5.5 -47
t23.5 -18l11 -2q15 -3 15 -16v-13q0 -18 -19 -18h-247z" />
    <glyph glyph-name="napostrophe" unicode="&#x149;" horiz-adv-x="677" 
d="M87 615q10 11 10 27q0 17 -17 32q-25 23 -25 51q0 24 15.5 39t39.5 15q29 0 47 -22t18 -55q0 -65 -55 -120q-30 -30 -51 -41q-12 -6 -18 3l-9 12q-8 11 2 20q31 25 43 39zM57 0q-21 0 -21 15v15q0 14 15 17l13 2q22 4 29.5 18.5t7.5 46.5v280q0 29 -24 32l-32 4
q-12 1 -12 13v13q0 13 11 16l195 58q8 3 14 -1l7 -4q5 -3 5 -11v-84q29 42 78 71.5t98 29.5q69 0 110 -41.5t41 -111.5v-264q0 -60 36 -65l13 -2q16 -2 16 -16v-15q0 -10 -3.5 -13t-14.5 -3h-252q-10 0 -13.5 3.5t-3.5 12.5v14q0 14 15 17l6 1q21 4 27.5 18.5t6.5 47.5v240
q0 73 -67 73q-46 0 -90 -39v-274q0 -33 5.5 -47t23.5 -18l11 -2q15 -3 15 -16v-13q0 -18 -19 -18h-247z" />
    <glyph glyph-name="Eng" unicode="&#x14a;" horiz-adv-x="821" 
d="M713 15q0 -117 -45 -181t-121 -64q-45 0 -78 22.5t-33 62.5q0 27 17 43.5t45 16.5q39 0 54 -45q6 -17 11 -23q8 -11 21 -11q29 0 49.5 38.5t22.5 115.5l-467 534v-298q0 -96 19.5 -133t69.5 -42l11 -1q11 -1 15 -4.5t4 -12.5v-19q0 -14 -15 -14h-256q-18 0 -18 15v18
q0 15 17 17l12 1q46 4 65 41.5t19 133.5v330q0 48 -26 71t-69 23h-2q-21 0 -21 18v15q0 10 4 13.5t18 3.5h204q31 0 50 -22l366 -421v244q3 142 -76 148l-12 1q-22 1 -22 17v16q0 17 18 17h234q11 0 15 -3.5t4 -12.5v-17q0 -9 -3.5 -12.5t-15.5 -4.5l-10 -1
q-40 -4 -57.5 -37t-17.5 -113v-484z" />
    <glyph glyph-name="eng" unicode="&#x14b;" horiz-adv-x="658" 
d="M425 -99v453q0 73 -67 73q-46 0 -90 -39v-274q0 -33 5.5 -47t23.5 -18l11 -2q15 -3 15 -16v-13q0 -18 -19 -18h-247q-21 0 -21 15v15q0 14 15 17l13 2q22 4 29.5 18.5t7.5 46.5v280q0 29 -24 32l-32 4q-12 1 -12 13v13q0 13 11 16l195 58q8 3 14 -1l7 -4q5 -3 5 -11v-84
q29 42 78 71.5t98 29.5q69 0 110 -41.5t41 -111.5v-358q0 -124 -78 -202.5t-188 -78.5q-43 0 -75.5 19.5t-32.5 56.5q0 28 16.5 44t45.5 16q32 0 61 -41q23 -35 41 -35q43 0 43 102z" />
    <glyph glyph-name="Omacron" unicode="&#x14c;" horiz-adv-x="875" 
d="M568 795h-274q-9 0 -12 3t-3 13v46q0 10 3 13t12 3h274q9 0 12 -3t3 -13v-46q0 -10 -3 -13t-12 -3zM823 368q0 -173 -106.5 -277.5t-280.5 -104.5q-169 0 -276.5 96.5t-107.5 268.5q0 170 110 266.5t280 96.5q164 0 272.5 -92t108.5 -254zM638 328q0 149 -52.5 240.5
t-154.5 91.5q-93 0 -143.5 -76t-50.5 -184q0 -165 56 -262.5t163 -97.5q42 0 74.5 18.5t52.5 47.5t32.5 68.5t17.5 77t5 76.5z" />
    <glyph glyph-name="omacron" unicode="&#x14d;" 
d="M437 623h-242q-11 0 -14 3.5t-3 15.5v44q0 11 3.5 15t13.5 4h242q10 0 13.5 -4t3.5 -15v-44q0 -12 -3 -15.5t-14 -3.5zM311 -10q-123 0 -199.5 69.5t-76.5 204.5q0 120 82 193.5t201 73.5q125 0 199.5 -73.5t74.5 -193.5q0 -124 -76 -199t-205 -75zM324 42q90 0 90 187
q0 250 -103 250q-27 0 -47 -17.5t-30.5 -46.5t-15.5 -59.5t-5 -62.5q0 -47 5.5 -89t18 -80t35 -60t52.5 -22z" />
    <glyph glyph-name="Obreve" unicode="&#x14e;" horiz-adv-x="875" 
d="M433 763q-69 0 -113 46q-29 31 -49 85q-4 13 7 19l11 6q13 7 20 -4q25 -35 52 -49q28 -16 72 -16t74 16q25 14 50 49q7 11 20 4l12 -6q10 -6 6 -19q-20 -54 -49 -84q-42 -47 -113 -47zM823 368q0 -173 -106.5 -277.5t-280.5 -104.5q-169 0 -276.5 96.5t-107.5 268.5
q0 170 110 266.5t280 96.5q164 0 272.5 -92t108.5 -254zM638 328q0 149 -52.5 240.5t-154.5 91.5q-93 0 -143.5 -76t-50.5 -184q0 -165 56 -262.5t163 -97.5q42 0 74.5 18.5t52.5 47.5t32.5 68.5t17.5 77t5 76.5z" />
    <glyph glyph-name="obreve" unicode="&#x14f;" 
d="M312 587q-66 0 -103 46q-26 31 -40 84q-4 18 8 23l11 5q14 6 20 -5q16 -31 40 -49q28 -19 64 -19t62 18q21 14 41 48q7 12 20 7l13 -5q9 -4 5 -21q-16 -55 -40 -84q-37 -48 -101 -48zM311 -10q-123 0 -199.5 69.5t-76.5 204.5q0 120 82 193.5t201 73.5q125 0 199.5 -73.5
t74.5 -193.5q0 -124 -76 -199t-205 -75zM324 42q90 0 90 187q0 250 -103 250q-27 0 -47 -17.5t-30.5 -46.5t-15.5 -59.5t-5 -62.5q0 -47 5.5 -89t18 -80t35 -60t52.5 -22z" />
    <glyph glyph-name="Ohungarumlaut" unicode="&#x150;" horiz-adv-x="875" 
d="M255 768l-5 8q-7 12 4 20l139 110q24 20 46 20q17 0 29 -13.5t12 -30.5q0 -31 -37 -47l-165 -71q-16 -7 -23 4zM462 770l-5 10q-5 12 7 20l155 102q22 14 42 14q19 0 31.5 -14.5t12.5 -33.5q0 -35 -36 -46l-185 -58q-16 -5 -22 6zM823 368q0 -173 -106.5 -277.5
t-280.5 -104.5q-169 0 -276.5 96.5t-107.5 268.5q0 170 110 266.5t280 96.5q164 0 272.5 -92t108.5 -254zM638 328q0 149 -52.5 240.5t-154.5 91.5q-93 0 -143.5 -76t-50.5 -184q0 -165 56 -262.5t163 -97.5q42 0 74.5 18.5t52.5 47.5t32.5 68.5t17.5 77t5 76.5z" />
    <glyph glyph-name="ohungarumlaut" unicode="&#x151;" 
d="M165 616l111 117q21 21 42 21q18 0 30.5 -13.5t12.5 -31.5q0 -27 -30 -44l-143 -80q-11 -6 -19 3l-6 8q-7 10 2 20zM342 589l-6 9q-7 12 3 20l128 111q21 18 42 18q18 0 31.5 -15.5t13.5 -33.5q0 -31 -35 -46l-158 -67q-13 -5 -19 4zM311 -10q-123 0 -199.5 69.5
t-76.5 204.5q0 120 82 193.5t201 73.5q125 0 199.5 -73.5t74.5 -193.5q0 -124 -76 -199t-205 -75zM324 42q90 0 90 187q0 250 -103 250q-27 0 -47 -17.5t-30.5 -46.5t-15.5 -59.5t-5 -62.5q0 -47 5.5 -89t18 -80t35 -60t52.5 -22z" />
    <glyph glyph-name="OE" unicode="&#x152;" horiz-adv-x="1127" 
d="M1056 28q-4 -17 -11 -22.5t-24 -5.5h-578q-191 0 -291 92.5t-100 253.5q0 169 109 261.5t289 92.5h547q17 0 23 -6t8 -21l20 -129q3 -18 -10 -21l-14 -4q-15 -4 -22 9q-5 9 -14 25.5t-14 25.5q-20 37 -49 54t-80 17h-97q-22 0 -22 -21v-252h77q82 0 82 84v6
q0 11 3.5 14.5t12.5 3.5h17q14 0 14 -18v-223q0 -16 -14 -16h-17q-17 0 -17 19v7q-2 39 -20.5 56t-62.5 17h-75v-183q0 -52 17 -73t60 -21h44q105 0 167 96l30 47q8 12 21 8l11 -3q13 -4 10 -18zM478 50q42 0 57 20.5t15 73.5v412q0 53 -15 73.5t-57 20.5h-25
q-101 0 -157.5 -77t-56.5 -202q0 -63 12 -118.5t37.5 -102t69.5 -73.5t103 -27h17z" />
    <glyph glyph-name="oe" unicode="&#x153;" horiz-adv-x="935" 
d="M889 133q-26 -64 -81 -103.5t-135 -39.5q-118 0 -180 68q-66 -68 -182 -68q-124 0 -200 70t-76 209q0 119 81.5 190.5t200.5 71.5q111 0 181 -68q71 68 186 68q93 0 154.5 -58.5t61.5 -153.5q0 -28 -22 -28h-295q1 -92 43.5 -144.5t110.5 -52.5q75 0 114 61q7 12 17 7
l18 -8q9 -4 3 -21zM664 485q-32 0 -53.5 -39.5t-26.5 -109.5h109q29 0 29 40q0 109 -58 109zM323 42q91 0 91 187q0 47 -4.5 88t-15 79t-31.5 60.5t-51 22.5t-51 -18.5t-30.5 -49.5t-13 -59t-3.5 -59q0 -48 5.5 -90.5t17.5 -79.5t34 -59t52 -22z" />
    <glyph glyph-name="Racute" unicode="&#x154;" horiz-adv-x="789" 
d="M264 765l-6 12q-5 11 7 19l172 113q23 16 48 16q23 0 36 -16t13 -38q0 -38 -46 -51l-206 -61q-13 -4 -18 6zM390 18q0 -18 -21 -18h-305q-14 0 -18.5 3.5t-4.5 12.5v16q0 18 21 18h6q32 0 46.5 15t14.5 50v470q0 35 -14.5 50t-46.5 15h-6q-21 0 -21 18v16q0 9 4.5 12.5
t18.5 3.5h330q269 0 269 -169q0 -65 -40 -111t-112 -65q23 -17 46 -50l133 -204q17 -27 32.5 -38.5t40.5 -13.5q16 -1 16 -16v-17q0 -16 -17 -16h-194q-19 0 -29 15l-168 279q-10 17 -20 23.5t-30 6.5h-19v-209q0 -65 58 -65h7q14 0 18.5 -3.5t4.5 -12.5v-16zM302 629v-255
h45q67 0 102.5 40t35.5 107q0 129 -127 129h-34q-22 0 -22 -21z" />
    <glyph glyph-name="racute" unicode="&#x155;" horiz-adv-x="509" 
d="M382 763q21 0 37.5 -18t16.5 -44q0 -28 -40 -46l-183 -81q-13 -5 -19 4l-8 12q-7 10 2 19l146 131q25 23 48 23zM339 0h-286q-10 0 -13.5 3.5t-3.5 12.5v14q0 14 15 17l11 2q22 4 30.5 18.5t8.5 46.5v280q0 29 -24 32l-32 4q-12 1 -12 13v13q0 13 11 16l195 58q8 3 14 -1
l7 -4q5 -3 5 -11v-91q40 55 75 81.5t76 26.5q37 0 56 -22t19 -57q0 -34 -16 -54.5t-45 -20.5q-32 0 -58 28q-20 20 -36 20q-29 0 -64 -37v-274q0 -32 8.5 -46t36.5 -18l24 -3q16 -2 16 -16v-15q0 -10 -3.5 -13t-14.5 -3z" />
    <glyph glyph-name="Rcommaaccent" unicode="&#x156;" horiz-adv-x="789" 
d="M390 18q0 -18 -21 -18h-305q-14 0 -18.5 3.5t-4.5 12.5v16q0 18 21 18h6q32 0 46.5 15t14.5 50v470q0 35 -14.5 50t-46.5 15h-6q-21 0 -21 18v16q0 9 4.5 12.5t18.5 3.5h330q269 0 269 -169q0 -65 -40 -111t-112 -65q23 -17 46 -50l133 -204q17 -27 32.5 -38.5
t40.5 -13.5q16 -1 16 -16v-17q0 -16 -17 -16h-194q-19 0 -29 15l-168 279q-10 17 -20 23.5t-30 6.5h-19v-209q0 -65 58 -65h7q14 0 18.5 -3.5t4.5 -12.5v-16zM302 629v-255h45q67 0 102.5 40t35.5 107q0 129 -127 129h-34q-22 0 -22 -21zM394 -292q-10 -3 -15 6l-6 10
q-6 10 4 17q28 18 42 30q32 31 43 54q-9 -4 -24 -4q-26 0 -43 16t-17 41q0 30 20.5 48.5t49.5 18.5q33 0 53.5 -23.5t20.5 -62.5q0 -70 -72 -122q-30 -21 -56 -29z" />
    <glyph glyph-name="rcommaaccent" unicode="&#x157;" horiz-adv-x="509" 
d="M339 0h-286q-10 0 -13.5 3.5t-3.5 12.5v14q0 14 15 17l11 2q22 4 30.5 18.5t8.5 46.5v280q0 29 -24 32l-32 4q-12 1 -12 13v13q0 13 11 16l195 58q8 3 14 -1l7 -4q5 -3 5 -11v-91q40 55 75 81.5t76 26.5q37 0 56 -22t19 -57q0 -34 -16 -54.5t-45 -20.5q-32 0 -58 28
q-20 20 -36 20q-29 0 -64 -37v-274q0 -32 8.5 -46t36.5 -18l24 -3q16 -2 16 -16v-15q0 -10 -3.5 -13t-14.5 -3zM146 -292q-10 -3 -15 6l-6 10q-6 10 4 17q28 18 42 30q32 31 43 54q-9 -4 -24 -4q-26 0 -43 16t-17 41q0 30 20.5 48.5t49.5 18.5q33 0 53.5 -23.5t20.5 -62.5
q0 -70 -72 -122q-30 -21 -56 -29z" />
    <glyph glyph-name="Rcaron" unicode="&#x158;" horiz-adv-x="789" 
d="M412 767q-7 -7 -18 -7h-57q-10 0 -17 7l-119 120q-9 9 -1 20l7 9q8 10 18 5l142 -77l139 76q12 7 19 -2l8 -11q7 -11 -2 -20zM390 18q0 -18 -21 -18h-305q-14 0 -18.5 3.5t-4.5 12.5v16q0 18 21 18h6q32 0 46.5 15t14.5 50v470q0 35 -14.5 50t-46.5 15h-6q-21 0 -21 18
v16q0 9 4.5 12.5t18.5 3.5h330q269 0 269 -169q0 -65 -40 -111t-112 -65q23 -17 46 -50l133 -204q17 -27 32.5 -38.5t40.5 -13.5q16 -1 16 -16v-17q0 -16 -17 -16h-194q-19 0 -29 15l-168 279q-10 17 -20 23.5t-30 6.5h-19v-209q0 -65 58 -65h7q14 0 18.5 -3.5t4.5 -12.5
v-16zM302 629v-255h45q67 0 102.5 40t35.5 107q0 129 -127 129h-34q-22 0 -22 -21z" />
    <glyph glyph-name="rcaron" unicode="&#x159;" horiz-adv-x="509" 
d="M327 585q-7 -10 -20 -10h-52q-13 0 -20 10l-90 139q-9 14 2 23l8 7q10 8 20 0l108 -89l114 89q11 8 21 0l8 -7q8 -8 0 -20zM339 0h-286q-10 0 -13.5 3.5t-3.5 12.5v14q0 14 15 17l11 2q22 4 30.5 18.5t8.5 46.5v280q0 29 -24 32l-32 4q-12 1 -12 13v13q0 13 11 16l195 58
q8 3 14 -1l7 -4q5 -3 5 -11v-91q40 55 75 81.5t76 26.5q37 0 56 -22t19 -57q0 -34 -16 -54.5t-45 -20.5q-32 0 -58 28q-20 20 -36 20q-29 0 -64 -37v-274q0 -32 8.5 -46t36.5 -18l24 -3q16 -2 16 -16v-15q0 -10 -3.5 -13t-14.5 -3z" />
    <glyph glyph-name="Sacute" unicode="&#x15a;" horiz-adv-x="625" 
d="M216 765l-6 12q-5 11 7 19l172 113q23 16 48 16q23 0 36 -16t13 -38q0 -38 -46 -51l-206 -61q-13 -4 -18 6zM324 660q-47 0 -78.5 -24.5t-31.5 -64.5q0 -45 35 -71.5t116 -59.5q113 -45 159 -95t46 -141q0 -95 -65.5 -155.5t-174.5 -60.5q-95 0 -172 43q-10 6 -16 6
q-9 0 -13 -12l-6 -17q-4 -14 -18 -14h-17q-16 0 -16 17l-1 189q0 19 18 19h17q15 0 19 -13q56 -166 196 -166q53 0 82 28.5t29 71.5q0 48 -32.5 79t-111.5 62q-112 44 -161 90t-49 132q0 99 69 154t172 55q77 0 145 -36q10 -5 16 -5t11 9l8 16q6 12 18 12h14q13 0 13 -14
l3 -168q0 -21 -15 -21h-17q-17 0 -21 12q-42 143 -170 143z" />
    <glyph glyph-name="sacute" unicode="&#x15b;" horiz-adv-x="471" 
d="M334 763q21 0 37.5 -18t16.5 -44q0 -28 -40 -46l-183 -81q-13 -5 -19 4l-8 12q-7 10 2 19l146 131q25 23 48 23zM65 17q-12 5 -12 19l-3 119q0 14 11 15l14 1q10 1 14 -9q32 -66 60.5 -92.5t76.5 -26.5q82 0 82 61q0 33 -22 51t-75 38q-90 34 -124 70.5t-34 105.5
q0 78 56 120t147 42q71 0 133 -20q12 -4 13 -16l7 -110q1 -11 -10 -12l-12 -2q-12 -2 -18 10q-46 97 -117 97q-69 0 -69 -52q0 -29 20.5 -44t78.5 -38q83 -31 117 -70t34 -101q0 -83 -58.5 -133t-151.5 -50q-91 0 -158 27z" />
    <glyph glyph-name="Scircumflex" unicode="&#x15c;" horiz-adv-x="625" 
d="M184 764q-12 -6 -19 2l-8 11q-7 10 2 20l118 120q7 7 18 7h59q10 0 17 -7l118 -120q9 -9 1 -20l-7 -9q-8 -10 -18 -5l-142 77zM324 660q-47 0 -78.5 -24.5t-31.5 -64.5q0 -45 35 -71.5t116 -59.5q113 -45 159 -95t46 -141q0 -95 -65.5 -155.5t-174.5 -60.5q-95 0 -172 43
q-10 6 -16 6q-9 0 -13 -12l-6 -17q-4 -14 -18 -14h-17q-16 0 -16 17l-1 189q0 19 18 19h17q15 0 19 -13q56 -166 196 -166q53 0 82 28.5t29 71.5q0 48 -32.5 79t-111.5 62q-112 44 -161 90t-49 132q0 99 69 154t172 55q77 0 145 -36q10 -5 16 -5t11 9l8 16q6 12 18 12h14
q13 0 13 -14l3 -168q0 -21 -15 -21h-17q-17 0 -21 12q-42 143 -170 143z" />
    <glyph glyph-name="scircumflex" unicode="&#x15d;" horiz-adv-x="471" 
d="M369 574q-10 -9 -20 -1l-107 91l-115 -90q-11 -8 -20 -1l-8 7q-10 8 -2 20l101 144q7 10 20 10h50q13 0 20 -10l91 -141q8 -13 -2 -22zM65 17q-12 5 -12 19l-3 119q0 14 11 15l14 1q10 1 14 -9q32 -66 60.5 -92.5t76.5 -26.5q82 0 82 61q0 33 -22 51t-75 38
q-90 34 -124 70.5t-34 105.5q0 78 56 120t147 42q71 0 133 -20q12 -4 13 -16l7 -110q1 -11 -10 -12l-12 -2q-12 -2 -18 10q-46 97 -117 97q-69 0 -69 -52q0 -29 20.5 -44t78.5 -38q83 -31 117 -70t34 -101q0 -83 -58.5 -133t-151.5 -50q-91 0 -158 27z" />
    <glyph glyph-name="Scedilla" unicode="&#x15e;" horiz-adv-x="625" 
d="M426 -156q0 -61 -51.5 -96.5t-133.5 -35.5q-28 0 -45 3q-14 3 -13 14l1 16q1 13 12 13h25q45 0 70.5 15t25.5 41q0 41 -83 57q-16 4 -6 17l77 101q-78 4 -147 42q-10 6 -16 6q-9 0 -13 -12l-6 -17q-4 -14 -18 -14h-17q-16 0 -16 17l-1 189q0 19 18 19h17q15 0 19 -13
q56 -166 196 -166q53 0 82 28.5t29 71.5q0 48 -32.5 79t-111.5 62q-112 44 -161 90t-49 132q0 99 69 154t172 55q77 0 145 -36q10 -5 16 -5t11 9l8 16q6 12 18 12h14q13 0 13 -14l3 -168q0 -21 -15 -21h-17q-17 0 -21 12q-42 143 -170 143q-47 0 -78.5 -24.5t-31.5 -64.5
q0 -45 35 -71.5t116 -59.5q113 -45 159 -95t46 -141q0 -89 -58 -148.5t-156 -66.5l-38 -49q49 -7 78.5 -31t29.5 -65z" />
    <glyph glyph-name="scedilla" unicode="&#x15f;" horiz-adv-x="471" 
d="M332 -156q0 -61 -51.5 -96.5t-133.5 -35.5q-29 0 -45 3q-14 3 -13 14l1 16q1 13 12 13h25q45 0 70.5 15t25.5 41q0 41 -83 57q-16 4 -6 17l78 102q-82 1 -147 27q-12 5 -12 19l-3 119q0 14 11 15l14 1q10 1 14 -9q32 -66 60.5 -92.5t76.5 -26.5q82 0 82 61q0 33 -22 51
t-75 38q-90 34 -124 70.5t-34 105.5q0 78 56 120t147 42q71 0 133 -20q12 -4 13 -16l7 -110q1 -11 -10 -12l-12 -2q-12 -2 -18 10q-46 97 -117 97q-69 0 -69 -52q0 -29 20.5 -44t78.5 -38q83 -31 117 -70t34 -101q0 -73 -45.5 -121t-122.5 -59l-41 -53q49 -7 78.5 -31
t29.5 -65z" />
    <glyph glyph-name="Scaron" unicode="&#x160;" horiz-adv-x="625" 
d="M375 767q-7 -7 -18 -7h-57q-10 0 -17 7l-119 120q-9 9 -1 20l7 9q8 10 18 5l142 -77l139 76q12 7 19 -2l8 -11q8 -11 -2 -20zM324 660q-47 0 -78.5 -24.5t-31.5 -64.5q0 -45 35 -71.5t116 -59.5q113 -45 159 -95t46 -141q0 -95 -65.5 -155.5t-174.5 -60.5q-95 0 -172 43
q-10 6 -16 6q-9 0 -13 -12l-6 -17q-4 -14 -18 -14h-17q-16 0 -16 17l-1 189q0 19 18 19h17q15 0 19 -13q56 -166 196 -166q53 0 82 28.5t29 71.5q0 48 -32.5 79t-111.5 62q-112 44 -161 90t-49 132q0 99 69 154t172 55q77 0 145 -36q10 -5 16 -5t11 9l8 16q6 12 18 12h14
q13 0 13 -14l3 -168q0 -21 -15 -21h-17q-17 0 -21 12q-42 143 -170 143z" />
    <glyph glyph-name="scaron" unicode="&#x161;" horiz-adv-x="471" 
d="M282 585q-7 -10 -20 -10h-52q-13 0 -20 10l-90 139q-9 14 2 23l8 7q10 8 20 0l108 -89l114 89q11 8 21 0l8 -7q8 -8 0 -20zM65 17q-12 5 -12 19l-3 119q0 14 11 15l14 1q10 1 14 -9q32 -66 60.5 -92.5t76.5 -26.5q82 0 82 61q0 33 -22 51t-75 38q-90 34 -124 70.5
t-34 105.5q0 78 56 120t147 42q71 0 133 -20q12 -4 13 -16l7 -110q1 -11 -10 -12l-12 -2q-12 -2 -18 10q-46 97 -117 97q-69 0 -69 -52q0 -29 20.5 -44t78.5 -38q83 -31 117 -70t34 -101q0 -83 -58.5 -133t-151.5 -50q-91 0 -158 27z" />
    <glyph glyph-name="Tcommaaccent" unicode="&#x162;" horiz-adv-x="853" 
d="M317 650h-60q-50 0 -82 -26t-61 -77l-24 -42q-8 -14 -24 -10l-17 5q-12 4 -8 24l38 174q3 16 17 16q5 0 39 -7t58 -7h468q29 0 63 7t38 7q12 0 15 -14l35 -175q2 -14 -12 -20l-13 -5q-17 -7 -26 10q-2 3 -18 31q-19 33 -29.5 47.5t-27.5 32t-37 23.5t-48 6h-64
q-22 0 -22 -21v-514q0 -65 58 -65h7q14 0 18.5 -3.5t4.5 -12.5v-16q0 -18 -21 -18h-308q-14 0 -18.5 3.5t-4.5 12.5v16q0 18 21 18h6q32 0 46.5 15t14.5 50v514q0 21 -22 21zM376 -292q-10 -3 -15 6l-6 10q-6 10 4 17q28 18 42 30q32 31 43 54q-9 -4 -24 -4q-26 0 -43 16
t-17 41q0 30 20.5 48.5t49.5 18.5q33 0 53.5 -23.5t20.5 -62.5q0 -70 -72 -122q-30 -21 -56 -29z" />
    <glyph glyph-name="tcommaaccent" unicode="&#x163;" horiz-adv-x="432" 
d="M403 71q-70 -79 -175 -79q-134 0 -134 152v287h-55q-14 0 -14 14v12q0 14 11 20q39 23 90 71.5t85 90.5q9 12 21 12h16q11 0 11 -13v-117h141q12 0 9 -13l-16 -64q-2 -8 -5.5 -10.5t-11.5 -2.5h-117v-270q0 -74 56 -74q32 0 62 18q11 7 19 -3l8 -10q9 -10 -1 -21z
M188 -292q-10 -3 -15 6l-6 10q-6 10 4 17q28 18 42 30q32 31 43 54q-9 -4 -24 -4q-26 0 -43 16t-17 41q0 30 20.5 48.5t49.5 18.5q33 0 53.5 -23.5t20.5 -62.5q0 -70 -72 -122q-30 -21 -56 -29z" />
    <glyph glyph-name="Tcaron" unicode="&#x164;" horiz-adv-x="853" 
d="M474 767q-7 -7 -18 -7h-57q-10 0 -17 7l-119 120q-9 9 -1 20l7 9q8 10 18 5l142 -77l139 76q12 7 19 -2l8 -11q7 -11 -2 -20zM317 650h-60q-50 0 -82 -26t-61 -77l-24 -42q-8 -14 -24 -10l-17 5q-12 4 -8 24l38 174q3 16 17 16q5 0 39 -7t58 -7h468q29 0 63 7t38 7
q12 0 15 -14l35 -175q2 -14 -12 -20l-13 -5q-17 -7 -26 10q-2 3 -18 31q-19 33 -29.5 47.5t-27.5 32t-37 23.5t-48 6h-64q-22 0 -22 -21v-514q0 -65 58 -65h7q14 0 18.5 -3.5t4.5 -12.5v-16q0 -18 -21 -18h-308q-14 0 -18.5 3.5t-4.5 12.5v16q0 18 21 18h6q32 0 46.5 15
t14.5 50v514q0 21 -22 21z" />
    <glyph glyph-name="tcaron" unicode="&#x165;" horiz-adv-x="432" 
d="M375 645q10 11 10 27q0 17 -17 32q-25 23 -25 51q0 24 15.5 39t39.5 15q29 0 47 -22t18 -55q0 -65 -55 -120q-30 -30 -51 -41q-12 -6 -18 3l-9 12q-8 11 2 20q31 25 43 39zM403 71q-70 -79 -175 -79q-134 0 -134 152v287h-55q-14 0 -14 14v12q0 14 11 20q39 23 90 71.5
t85 90.5q9 12 21 12h16q11 0 11 -13v-117h141q12 0 9 -13l-16 -64q-2 -8 -5.5 -10.5t-11.5 -2.5h-117v-270q0 -74 56 -74q32 0 62 18q11 7 19 -3l8 -10q9 -10 -1 -21z" />
    <glyph glyph-name="Tbar" unicode="&#x166;" horiz-adv-x="853" 
d="M602 18q0 -18 -21 -18h-306q-14 0 -18.5 3.5t-4.5 12.5v16q0 18 21 18h6q32 0 46.5 15t14.5 50v213h-132q-9 0 -12 3t-3 13v18q0 10 3 13t12 3h132v251q0 21 -22 21h-61q-50 0 -82 -26t-61 -77l-24 -42q-8 -14 -24 -10l-17 5q-12 4 -8 24l38 174q3 16 17 16q5 0 39 -7
t58 -7h468q29 0 63 7t38 7q12 0 15 -14l35 -175q2 -14 -12 -20l-13 -5q-17 -7 -26 10q-2 3 -18 31q-19 33 -29.5 47.5t-27.5 32t-37 23.5t-48 6h-65q-22 0 -22 -21v-251h132q9 0 12 -3t3 -13v-18q0 -10 -3 -13t-12 -3h-132v-213q0 -65 58 -65h7q14 0 18.5 -3.5t4.5 -12.5
v-16z" />
    <glyph glyph-name="tbar" unicode="&#x167;" horiz-adv-x="432" 
d="M403 71q-70 -79 -175 -79q-134 0 -134 152v118h-54q-9 0 -12 3t-3 13v11q0 10 3 13t12 3h54v126h-55q-14 0 -14 14v12q0 14 11 20q39 23 90 71.5t85 90.5q9 12 21 12h16q11 0 11 -13v-117h141q12 0 9 -13l-16 -64q-2 -8 -5.5 -10.5t-11.5 -2.5h-117v-126h117q9 0 12 -3
t3 -13v-11q0 -10 -3 -13t-12 -3h-117v-101q0 -74 56 -74q32 0 62 18q11 7 19 -3l8 -10q9 -10 -1 -21z" />
    <glyph glyph-name="Utilde" unicode="&#x168;" horiz-adv-x="811" 
d="M543 777q-22 0 -61 10l-84 23q-16 5 -33 5q-31 0 -54 -45q-6 -11 -18 -7l-10 3q-14 5 -9 19q35 116 98 116q21 0 55 -9l86 -23q21 -6 34 -6q18 0 29 11t20 35q5 13 17 10l11 -2q12 -3 10 -16q-25 -124 -91 -124zM702 283q0 -297 -274 -297q-155 0 -237.5 61t-82.5 211
v327q0 35 -14.5 50t-46.5 15h-6q-21 0 -21 18v16q0 9 4.5 12.5t18.5 3.5h308q21 0 21 -18v-16q0 -9 -4.5 -12.5t-18.5 -3.5h-7q-58 0 -58 -65v-304q0 -119 40 -174t135 -55q92 0 138.5 59t46.5 158v271q0 58 -13.5 82.5t-50.5 26.5l-16 1q-13 1 -17.5 4t-4.5 13v17
q0 16 16 16h225q16 0 16 -13v-21q0 -15 -20 -16l-12 -1q-35 -3 -50 -28.5t-15 -78.5v-259z" />
    <glyph glyph-name="utilde" unicode="&#x169;" horiz-adv-x="658" 
d="M259 731q19 0 52 -12l51 -19q22 -9 36 -9q29 0 47 43q5 12 16 9l11 -3q12 -3 9 -16q-24 -121 -93 -121q-20 0 -58 14l-44 17q-26 10 -41 10q-25 0 -46 -42q-5 -11 -16 -8l-11 3q-12 3 -8 18q27 116 95 116zM404 439q0 25 -19 28l-34 4q-15 1 -15 16v16q0 14 14 16l202 12
q7 0 11 -3l4 -3q4 -3 4 -10v-413q0 -19 13 -24l38 -15q12 -5 12 -19v-5q0 -15 -14 -17l-185 -30q-7 -1 -14 3l-5 3q-5 4 -5 11v80q-32 -40 -78.5 -69.5t-100.5 -29.5q-70 0 -107.5 41t-37.5 113v295q0 25 -19 28l-34 4q-15 1 -15 16v16q0 14 14 16l202 12q7 0 11 -3l4 -3
q4 -3 4 -10v-350q0 -71 68 -71q48 0 82 37v308z" />
    <glyph glyph-name="Umacron" unicode="&#x16a;" horiz-adv-x="811" 
d="M572 795h-274q-9 0 -12 3t-3 13v46q0 10 3 13t12 3h274q9 0 12 -3t3 -13v-46q0 -10 -3 -13t-12 -3zM702 283q0 -297 -274 -297q-155 0 -237.5 61t-82.5 211v327q0 35 -14.5 50t-46.5 15h-6q-21 0 -21 18v16q0 9 4.5 12.5t18.5 3.5h308q21 0 21 -18v-16q0 -9 -4.5 -12.5
t-18.5 -3.5h-7q-58 0 -58 -65v-304q0 -119 40 -174t135 -55q92 0 138.5 59t46.5 158v271q0 58 -13.5 82.5t-50.5 26.5l-16 1q-13 1 -17.5 4t-4.5 13v17q0 16 16 16h225q16 0 16 -13v-21q0 -15 -20 -16l-12 -1q-35 -3 -50 -28.5t-15 -78.5v-259z" />
    <glyph glyph-name="umacron" unicode="&#x16b;" horiz-adv-x="658" 
d="M442 623h-242q-11 0 -14 3.5t-3 15.5v44q0 11 3.5 15t13.5 4h242q10 0 13.5 -4t3.5 -15v-44q0 -12 -3 -15.5t-14 -3.5zM404 439q0 25 -19 28l-34 4q-15 1 -15 16v16q0 14 14 16l202 12q7 0 11 -3l4 -3q4 -3 4 -10v-413q0 -19 13 -24l38 -15q12 -5 12 -19v-5
q0 -15 -14 -17l-185 -30q-7 -1 -14 3l-5 3q-5 4 -5 11v80q-32 -40 -78.5 -69.5t-100.5 -29.5q-70 0 -107.5 41t-37.5 113v295q0 25 -19 28l-34 4q-15 1 -15 16v16q0 14 14 16l202 12q7 0 11 -3l4 -3q4 -3 4 -10v-350q0 -71 68 -71q48 0 82 37v308z" />
    <glyph glyph-name="Ubreve" unicode="&#x16c;" horiz-adv-x="811" 
d="M449 763q-69 0 -113 46q-29 31 -49 85q-4 13 7 19l11 6q13 7 20 -4q25 -35 52 -49q28 -16 72 -16t74 16q25 14 50 49q7 11 20 4l12 -6q10 -6 6 -19q-20 -54 -49 -84q-42 -47 -113 -47zM702 283q0 -297 -274 -297q-155 0 -237.5 61t-82.5 211v327q0 35 -14.5 50t-46.5 15
h-6q-21 0 -21 18v16q0 9 4.5 12.5t18.5 3.5h308q21 0 21 -18v-16q0 -9 -4.5 -12.5t-18.5 -3.5h-7q-58 0 -58 -65v-304q0 -119 40 -174t135 -55q92 0 138.5 59t46.5 158v271q0 58 -13.5 82.5t-50.5 26.5l-16 1q-13 1 -17.5 4t-4.5 13v17q0 16 16 16h225q16 0 16 -13v-21
q0 -15 -20 -16l-12 -1q-35 -3 -50 -28.5t-15 -78.5v-259z" />
    <glyph glyph-name="ubreve" unicode="&#x16d;" horiz-adv-x="658" 
d="M322 587q-66 0 -103 46q-26 31 -40 84q-4 18 8 23l11 5q14 6 20 -5q16 -31 40 -49q28 -19 64 -19t62 18q21 14 41 48q7 12 20 7l13 -5q9 -4 5 -21q-16 -55 -40 -84q-37 -48 -101 -48zM404 439q0 25 -19 28l-34 4q-15 1 -15 16v16q0 14 14 16l202 12q7 0 11 -3l4 -3
q4 -3 4 -10v-413q0 -19 13 -24l38 -15q12 -5 12 -19v-5q0 -15 -14 -17l-185 -30q-7 -1 -14 3l-5 3q-5 4 -5 11v80q-32 -40 -78.5 -69.5t-100.5 -29.5q-70 0 -107.5 41t-37.5 113v295q0 25 -19 28l-34 4q-15 1 -15 16v16q0 14 14 16l202 12q7 0 11 -3l4 -3q4 -3 4 -10v-350
q0 -71 68 -71q48 0 82 37v308z" />
    <glyph glyph-name="Uring" unicode="&#x16e;" horiz-adv-x="811" 
d="M460 748q-48 0 -77 28.5t-29 73.5q0 44 30.5 73t76.5 29q48 0 78 -28.5t30 -72.5q0 -45 -31 -74t-78 -29zM461 793q24 0 39.5 16t15.5 41t-15.5 41t-38.5 16t-39 -16t-16 -40q0 -26 15 -42t39 -16zM702 283q0 -297 -274 -297q-155 0 -237.5 61t-82.5 211v327
q0 35 -14.5 50t-46.5 15h-6q-21 0 -21 18v16q0 9 4.5 12.5t18.5 3.5h308q21 0 21 -18v-16q0 -9 -4.5 -12.5t-18.5 -3.5h-7q-58 0 -58 -65v-304q0 -119 40 -174t135 -55q92 0 138.5 59t46.5 158v271q0 58 -13.5 82.5t-50.5 26.5l-16 1q-13 1 -17.5 4t-4.5 13v17q0 16 16 16
h225q16 0 16 -13v-21q0 -15 -20 -16l-12 -1q-35 -3 -50 -28.5t-15 -78.5v-259z" />
    <glyph glyph-name="uring" unicode="&#x16f;" horiz-adv-x="658" 
d="M327 573q-40 0 -68 28.5t-28 69.5q0 40 28 68.5t68 28.5q41 0 69.5 -28.5t28.5 -68.5q0 -41 -28.5 -69.5t-69.5 -28.5zM327 620q21 0 35 14.5t14 36.5q0 21 -14 35.5t-35 14.5q-20 0 -33.5 -14.5t-13.5 -35.5q0 -22 13.5 -36.5t33.5 -14.5zM404 439q0 25 -19 28l-34 4
q-15 1 -15 16v16q0 14 14 16l202 12q7 0 11 -3l4 -3q4 -3 4 -10v-413q0 -19 13 -24l38 -15q12 -5 12 -19v-5q0 -15 -14 -17l-185 -30q-7 -1 -14 3l-5 3q-5 4 -5 11v80q-32 -40 -78.5 -69.5t-100.5 -29.5q-70 0 -107.5 41t-37.5 113v295q0 25 -19 28l-34 4q-15 1 -15 16v16
q0 14 14 16l202 12q7 0 11 -3l4 -3q4 -3 4 -10v-350q0 -71 68 -71q48 0 82 37v308z" />
    <glyph glyph-name="Uhungarumlaut" unicode="&#x170;" horiz-adv-x="811" 
d="M242 768l-5 8q-7 12 4 20l139 110q24 20 46 20q17 0 29 -13.5t12 -30.5q0 -31 -37 -47l-165 -71q-16 -7 -23 4zM449 770l-5 10q-5 12 7 20l155 102q22 14 42 14q19 0 31.5 -14.5t12.5 -33.5q0 -35 -36 -46l-185 -58q-16 -5 -22 6zM702 283q0 -297 -274 -297
q-155 0 -237.5 61t-82.5 211v327q0 35 -14.5 50t-46.5 15h-6q-21 0 -21 18v16q0 9 4.5 12.5t18.5 3.5h308q21 0 21 -18v-16q0 -9 -4.5 -12.5t-18.5 -3.5h-7q-58 0 -58 -65v-304q0 -119 40 -174t135 -55q92 0 138.5 59t46.5 158v271q0 58 -13.5 82.5t-50.5 26.5l-16 1
q-13 1 -17.5 4t-4.5 13v17q0 16 16 16h225q16 0 16 -13v-21q0 -15 -20 -16l-12 -1q-35 -3 -50 -28.5t-15 -78.5v-259z" />
    <glyph glyph-name="uhungarumlaut" unicode="&#x171;" horiz-adv-x="658" 
d="M169 616l111 117q21 21 42 21q18 0 30.5 -13.5t12.5 -31.5q0 -27 -30 -44l-143 -80q-11 -6 -19 3l-6 8q-7 10 2 20zM346 589l-6 9q-7 12 3 20l128 111q21 18 42 18q18 0 31.5 -15.5t13.5 -33.5q0 -31 -35 -46l-158 -67q-13 -5 -19 4zM404 439q0 25 -19 28l-34 4
q-15 1 -15 16v16q0 14 14 16l202 12q7 0 11 -3l4 -3q4 -3 4 -10v-413q0 -19 13 -24l38 -15q12 -5 12 -19v-5q0 -15 -14 -17l-185 -30q-7 -1 -14 3l-5 3q-5 4 -5 11v80q-32 -40 -78.5 -69.5t-100.5 -29.5q-70 0 -107.5 41t-37.5 113v295q0 25 -19 28l-34 4q-15 1 -15 16v16
q0 14 14 16l202 12q7 0 11 -3l4 -3q4 -3 4 -10v-350q0 -71 68 -71q48 0 82 37v308z" />
    <glyph glyph-name="Uogonek" unicode="&#x172;" horiz-adv-x="811" 
d="M582 -198q-54 -90 -146 -90q-51 0 -82.5 26t-31.5 69q0 88 115 179h-9q-155 0 -237.5 61t-82.5 211v327q0 35 -14.5 50t-46.5 15h-6q-21 0 -21 18v16q0 9 4.5 12.5t18.5 3.5h308q21 0 21 -18v-16q0 -9 -4.5 -12.5t-18.5 -3.5h-7q-58 0 -58 -65v-304q0 -119 40 -174
t135 -55q92 0 138.5 59t46.5 158v271q0 58 -13.5 82.5t-50.5 26.5l-16 1q-13 1 -17.5 4t-4.5 13v17q0 16 16 16h225q16 0 16 -13v-21q0 -15 -20 -16l-12 -1q-35 -3 -50 -28.5t-15 -78.5v-259q0 -251 -198 -290q-68 -70 -68 -126q0 -30 16.5 -49t44.5 -19q30 0 57 25
q9 9 18 2l8 -6q9 -7 2 -18z" />
    <glyph glyph-name="uogonek" unicode="&#x173;" horiz-adv-x="658" 
d="M532 -198q-54 -90 -146 -90q-51 0 -82.5 26t-31.5 69q0 96 139 197v5v80q-32 -40 -78.5 -69.5t-100.5 -29.5q-70 0 -107.5 41t-37.5 113v295q0 25 -19 28l-34 4q-15 1 -15 16v16q0 14 14 16l202 12q7 0 11 -3l4 -3q4 -3 4 -10v-350q0 -71 68 -71q48 0 82 37v308
q0 25 -19 28l-34 4q-15 1 -15 16v16q0 14 14 16l202 12q7 0 11 -3l4 -3q4 -3 4 -10v-413q0 -19 13 -24l38 -15q12 -5 12 -19v-5q0 -15 -14 -17l-163 -26q-71 -73 -71 -129q0 -30 16.5 -49t44.5 -19q30 0 57 25q9 9 18 2l8 -6q9 -7 2 -18z" />
    <glyph glyph-name="Wcircumflex" unicode="&#x174;" horiz-adv-x="1144" 
d="M474 764q-12 -6 -19 2l-8 11q-7 10 2 20l118 120q7 7 18 7h59q10 0 17 -7l118 -120q9 -9 1 -20l-7 -9q-8 -10 -18 -5l-142 77zM411 19q-8 -19 -27 -19h-16q-17 0 -26 19l-239 566q-28 65 -66 65h-6q-21 0 -21 18v16q0 9 4.5 12.5t18.5 3.5h306q21 0 21 -18v-16
q0 -9 -4.5 -12.5t-18.5 -3.5h-7q-35 0 -43.5 -14t5.5 -51l144 -361l124 314l-20 47q-28 65 -66 65h-6q-21 0 -21 18v16q0 9 4.5 12.5t18.5 3.5h294q21 0 21 -18v-16q0 -9 -4.5 -12.5t-18.5 -3.5h-7q-35 0 -43.5 -13.5t5.5 -51.5l133 -357l117 322q8 22 11 37.5t2 30
t-11 22.5t-28 9l-14 1q-19 1 -19 16v19q0 15 16 15h194q16 0 16 -18v-14q0 -16 -15 -18l-7 -1q-28 -4 -46.5 -26t-37.5 -73l-197 -532q-7 -18 -27 -18h-15q-19 0 -27 18l-174 444z" />
    <glyph glyph-name="wcircumflex" unicode="&#x175;" horiz-adv-x="895" 
d="M610 574q-10 -9 -20 -1l-107 91l-115 -90q-11 -8 -20 -1l-8 7q-10 8 -2 20l101 144q7 10 20 10h50q13 0 20 -10l91 -141q8 -13 -2 -22zM329 17q-7 -17 -24 -17h-28q-18 0 -26 17l-164 383q-14 31 -19 41.5t-14 20t-22 11.5q-17 3 -17 18v14q0 16 18 16h240q21 0 21 -18
v-14q0 -13 -23 -16l-7 -1q-40 -6 -12 -72l92 -223l85 216l-8 23q-19 53 -53 57q-19 3 -19 18v14q0 9 4.5 12.5t18.5 3.5h234q11 0 14.5 -4t3.5 -14v-14q0 -9 -4 -11.5t-16 -4.5l-7 -1q-45 -7 -17 -73l90 -221l76 222q10 30 0 50t-33 22l-10 1q-18 2 -18 18v12q0 18 21 18
h156q14 0 18.5 -3.5t4.5 -12.5v-14q0 -9 -4.5 -12.5t-15.5 -5.5q-37 -5 -65 -83l-138 -373q-6 -17 -23 -17h-28q-20 0 -27 17l-129 312z" />
    <glyph glyph-name="Ycircumflex" unicode="&#x176;" horiz-adv-x="746" 
d="M278 764q-12 -6 -19 2l-8 11q-7 10 2 20l118 120q7 7 18 7h59q10 0 17 -7l118 -120q9 -9 1 -20l-7 -9q-8 -10 -18 -5l-142 77zM565 13q0 -8 -3.5 -10.5t-14.5 -2.5h-328q-16 0 -16 14v18q0 10 4 13.5t14 3.5h14q62 0 62 65v172l-180 299q-22 37 -39 51t-47 14
q-21 0 -21 18v16q0 9 4.5 12.5t18.5 3.5h319q21 0 21 -18v-16q0 -9 -4.5 -12.5t-18.5 -3.5h-7q-32 0 -42 -15t8 -50l133 -226l116 213q18 31 13 54t-33 24l-16 1q-17 1 -17 17v16q0 16 18 16h197q16 0 16 -18v-14q0 -16 -15 -18q-33 -4 -56.5 -25.5t-49.5 -66.5l-144 -253
v-191q0 -34 14.5 -49.5t46.5 -15.5h16q17 0 17 -14v-22z" />
    <glyph glyph-name="ycircumflex" unicode="&#x177;" horiz-adv-x="636" 
d="M497 574q-10 -9 -20 -1l-107 91l-115 -90q-11 -8 -20 -1l-8 7q-10 8 -2 20l101 144q7 10 20 10h50q13 0 20 -10l91 -141q8 -13 -2 -22zM342 -68q-53 -112 -99 -164.5t-118 -52.5q-41 0 -67 22.5t-26 57.5q0 28 18 45t43 17q24 0 37.5 -13.5t23 -26.5t21.5 -13
q27 0 53.5 36.5t64.5 129.5l-194 430q-30 69 -63 73q-12 2 -16.5 5.5t-4.5 12.5v14q0 9 4.5 12.5t18.5 3.5h271q21 0 21 -18v-14q0 -13 -23 -16l-7 -1q-56 -8 -29 -72l104 -247l90 239q12 31 3.5 54t-30.5 26l-7 1q-23 3 -23 16v14q0 18 21 18h174q14 0 18.5 -3.5t4.5 -12.5
v-14q0 -9 -4.5 -12.5t-16.5 -5.5q-42 -5 -75 -82q-13 -31 -96 -235.5t-92 -223.5z" />
    <glyph glyph-name="Ydieresis" unicode="&#x178;" horiz-adv-x="746" 
d="M249 849q0 28 20.5 48.5t48.5 20.5t48.5 -20t20.5 -49t-20.5 -49t-48.5 -20t-48.5 20.5t-20.5 48.5zM467 849q0 28 20.5 48.5t48.5 20.5t48.5 -20t20.5 -49t-20.5 -49t-48.5 -20t-48.5 20.5t-20.5 48.5zM565 13q0 -8 -3.5 -10.5t-14.5 -2.5h-328q-16 0 -16 14v18
q0 10 4 13.5t14 3.5h14q62 0 62 65v172l-180 299q-22 37 -39 51t-47 14q-21 0 -21 18v16q0 9 4.5 12.5t18.5 3.5h319q21 0 21 -18v-16q0 -9 -4.5 -12.5t-18.5 -3.5h-7q-32 0 -42 -15t8 -50l133 -226l116 213q18 31 13 54t-33 24l-16 1q-17 1 -17 17v16q0 16 18 16h197
q16 0 16 -18v-14q0 -16 -15 -18q-33 -4 -56.5 -25.5t-49.5 -66.5l-144 -253v-191q0 -34 14.5 -49.5t46.5 -15.5h16q17 0 17 -14v-22z" />
    <glyph glyph-name="Zacute" unicode="&#x179;" horiz-adv-x="709" 
d="M270 765l-6 12q-5 11 7 19l172 113q23 16 48 16q23 0 36 -16t13 -38q0 -38 -46 -51l-206 -61q-13 -4 -18 6zM58 50l379 577q15 23 -6 23h-116q-72 0 -108 -20.5t-69 -72.5q-8 -13 -21 -34t-16 -26q-9 -14 -24 -10l-15 4q-14 4 -10 19l38 161q4 18 12 23.5t28 5.5h502
q16 0 16 -16v-8q0 -11 -9 -26l-380 -581q-13 -19 9 -19h152q67 0 107 24t68 77q10 19 23 45q8 17 26 13l13 -3q14 -4 11 -19l-33 -157q-4 -18 -11.5 -24t-29.5 -6h-528q-16 0 -16 16v8q0 15 8 26z" />
    <glyph glyph-name="zacute" unicode="&#x17a;" horiz-adv-x="547" 
d="M394 763q21 0 37.5 -18t16.5 -44q0 -28 -40 -46l-183 -81q-13 -5 -19 4l-8 12q-7 10 2 19l146 131q25 23 48 23zM48 0q-13 0 -13 13v17q0 11 6 19l270 402q13 18 -6 18h-74q-47 0 -75 -22t-57 -70l-15 -24q-7 -11 -20 -7l-14 4q-15 5 -10 20l38 127q4 14 9.5 19t17.5 5
h383q13 0 13 -13v-19q0 -10 -6 -20l-267 -399q-3 -5 -4 -9t2 -6.5t8 -2.5h93q51 0 79.5 22.5t57.5 73.5l13 23q9 17 23 13l16 -4q11 -3 8 -16l-36 -143q-3 -12 -9 -16.5t-20 -4.5h-411z" />
    <glyph glyph-name="Zdotaccent" unicode="&#x17b;" horiz-adv-x="709" 
d="M300 849q0 28 20.5 48.5t48.5 20.5q29 0 49 -20t20 -49t-20 -49t-49 -20q-28 0 -48.5 20.5t-20.5 48.5zM58 50l379 577q15 23 -6 23h-116q-72 0 -108 -20.5t-69 -72.5q-8 -13 -21 -34t-16 -26q-9 -14 -24 -10l-15 4q-14 4 -10 19l38 161q4 18 12 23.5t28 5.5h502
q16 0 16 -16v-8q0 -11 -9 -26l-380 -581q-13 -19 9 -19h152q67 0 107 24t68 77q10 19 23 45q8 17 26 13l13 -3q14 -4 11 -19l-33 -157q-4 -18 -11.5 -24t-29.5 -6h-528q-16 0 -16 16v8q0 15 8 26z" />
    <glyph glyph-name="zdotaccent" unicode="&#x17c;" horiz-adv-x="547" 
d="M297 593q-33 0 -56 22t-23 55q0 34 23 56t56 22q34 0 55.5 -22t21.5 -56t-21.5 -55.5t-55.5 -21.5zM48 0q-13 0 -13 13v17q0 11 6 19l270 402q13 18 -6 18h-74q-47 0 -75 -22t-57 -70l-15 -24q-7 -11 -20 -7l-14 4q-15 5 -10 20l38 127q4 14 9.5 19t17.5 5h383
q13 0 13 -13v-19q0 -10 -6 -20l-267 -399q-3 -5 -4 -9t2 -6.5t8 -2.5h93q51 0 79.5 22.5t57.5 73.5l13 23q9 17 23 13l16 -4q11 -3 8 -16l-36 -143q-3 -12 -9 -16.5t-20 -4.5h-411z" />
    <glyph glyph-name="Zcaron" unicode="&#x17d;" horiz-adv-x="709" 
d="M417 767q-7 -7 -18 -7h-57q-10 0 -17 7l-119 120q-9 9 -1 20l7 9q8 10 18 5l142 -77l139 76q12 7 19 -2l8 -11q8 -11 -2 -20zM58 50l379 577q15 23 -6 23h-116q-72 0 -108 -20.5t-69 -72.5q-8 -13 -21 -34t-16 -26q-9 -14 -24 -10l-15 4q-14 4 -10 19l38 161
q4 18 12 23.5t28 5.5h502q16 0 16 -16v-8q0 -11 -9 -26l-380 -581q-13 -19 9 -19h152q67 0 107 24t68 77q10 19 23 45q8 17 26 13l13 -3q14 -4 11 -19l-33 -157q-4 -18 -11.5 -24t-29.5 -6h-528q-16 0 -16 16v8q0 15 8 26z" />
    <glyph glyph-name="zcaron" unicode="&#x17e;" horiz-adv-x="547" 
d="M332 585q-7 -10 -20 -10h-52q-13 0 -20 10l-90 139q-9 14 2 23l8 7q10 8 20 0l108 -89l114 89q11 8 21 0l8 -7q8 -8 0 -20zM48 0q-13 0 -13 13v17q0 11 6 19l270 402q13 18 -6 18h-74q-47 0 -75 -22t-57 -70l-15 -24q-7 -11 -20 -7l-14 4q-15 5 -10 20l38 127
q4 14 9.5 19t17.5 5h383q13 0 13 -13v-19q0 -10 -6 -20l-267 -399q-3 -5 -4 -9t2 -6.5t8 -2.5h93q51 0 79.5 22.5t57.5 73.5l13 23q9 17 23 13l16 -4q11 -3 8 -16l-36 -143q-3 -12 -9 -16.5t-20 -4.5h-411z" />
    <glyph glyph-name="uni018F" unicode="&#x18f;" horiz-adv-x="764" 
d="M712 356q0 -172 -98 -271t-251 -99q-137 0 -228 78t-91 213q0 31 26 31h459v25q0 122 -56 196.5t-153 74.5q-126 0 -222 -89q-11 -9 -20 -4l-12 7q-11 7 -2 22q46 79 127 126.5t192 47.5q150 0 239.5 -94t89.5 -264zM376 36q134 0 151 227h-266q-21 0 -21 -21
q0 -92 37.5 -149t98.5 -57z" />
    <glyph glyph-name="florin" unicode="&#x192;" horiz-adv-x="540" 
d="M293 82q-7 -129 -65.5 -203t-159.5 -74q-48 0 -76 17t-28 49q0 21 14 35t38 14q27 0 42 -29q7 -14 11 -20t10.5 -11t15.5 -5q54 0 65 203l11 201h-103q-14 0 -9 16l10 37q4 14 17 14h89l1 15q6 117 64.5 176t147.5 59q50 0 78.5 -18.5t28.5 -53.5q0 -20 -12.5 -32.5
t-33.5 -12.5q-32 0 -52 37q-10 18 -17 24.5t-18 6.5q-47 0 -55 -166l-2 -35h119q12 0 9 -15l-10 -38q-4 -14 -18 -14h-103z" />
    <glyph glyph-name="ohorn" unicode="&#x1a1;" horiz-adv-x="720" 
d="M592 264q0 -124 -76 -199t-205 -75q-123 0 -199.5 69.5t-76.5 204.5q0 120 82 193.5t201 73.5q99 0 169 -48q47 -29 83 -29q14 0 23.5 7t9.5 20q0 9 -15.5 27t-15.5 35q0 20 15 33t40 13q27 0 44 -20t17 -50q0 -43 -34.5 -73t-96.5 -39q35 -61 35 -143zM324 42
q90 0 90 187q0 250 -103 250q-27 0 -47 -17.5t-30.5 -46.5t-15.5 -59.5t-5 -62.5q0 -47 5.5 -89t18 -80t35 -60t52.5 -22z" />
    <glyph glyph-name="Uhorn" unicode="&#x1af;" horiz-adv-x="970" 
d="M702 283q0 -297 -274 -297q-155 0 -237.5 61t-82.5 211v327q0 35 -14.5 50t-46.5 15h-6q-21 0 -21 18v16q0 9 4.5 12.5t18.5 3.5h308q21 0 21 -18v-16q0 -9 -4.5 -12.5t-18.5 -3.5h-7q-58 0 -58 -65v-304q0 -119 40 -174t135 -55q92 0 138.5 59t46.5 158v271
q0 58 -13.5 82.5t-50.5 26.5l-16 1q-13 1 -17.5 4t-4.5 13v17q0 16 16 16h225h1q21 0 37 8.5t16 23.5q0 10 -16.5 32.5t-16.5 44.5q0 21 16.5 36.5t43.5 15.5q32 0 50.5 -23.5t18.5 -59.5q0 -53 -43.5 -87t-104.5 -40l-6 -1l-12 -1q-35 -3 -50 -28.5t-15 -78.5v-259z" />
    <glyph glyph-name="uhorn" unicode="&#x1b0;" horiz-adv-x="720" 
d="M411 89q-32 -40 -78.5 -69.5t-100.5 -29.5q-70 0 -107.5 41t-37.5 113v295q0 25 -19 28l-34 4q-15 1 -15 16v16q0 14 14 16l202 12q7 0 11 -3l4 -3q4 -3 4 -10v-350q0 -71 68 -71q48 0 82 37v308q0 25 -19 28l-34 4q-15 1 -15 16v16q0 14 14 16l150 9l62 4q35 0 35 26
q0 8 -15 26t-15 36q0 20 15 33t40 13q28 0 44.5 -20t16.5 -50q0 -41 -29.5 -68.5t-82.5 -38.5v-387q0 -19 13 -24l38 -15q12 -5 12 -19v-5q0 -15 -14 -17l-185 -30q-7 -1 -14 3l-5 3q-5 4 -5 11v80z" />
    <glyph glyph-name="uni01C4" unicode="&#x1c4;" horiz-adv-x="1526" 
d="M1239 767q-7 -7 -18 -7h-57q-10 0 -17 7l-119 120q-9 9 -1 20l7 9q8 10 18 5l142 -77l139 76q12 7 19 -2l8 -11q8 -11 -2 -20zM64 0q-14 0 -18.5 3.5t-4.5 12.5v16q0 18 21 18h6q32 0 46.5 15t14.5 50v470q0 35 -14.5 50t-46.5 15h-6q-21 0 -21 18v16q0 9 4.5 12.5
t18.5 3.5h353q193 0 297 -87t104 -239q0 -166 -107 -270t-281 -104h-366zM875 50l379 577q15 23 -6 23h-116q-72 0 -108 -20.5t-69 -72.5q-8 -13 -21 -34t-16 -26q-9 -14 -24 -10l-15 4q-14 4 -10 19l38 161q4 18 12 23.5t28 5.5h502q16 0 16 -16v-8q0 -11 -9 -26l-380 -581
q-13 -19 9 -19h152q67 0 107 24t68 77q10 19 23 45q8 17 26 13l13 -3q14 -4 11 -19l-33 -157q-4 -18 -11.5 -24t-29.5 -6h-528q-16 0 -16 16v8q0 15 8 26zM305 144q0 -52 17 -73t60 -21h35q56 0 99 26t67 70t36 95.5t12 107.5q0 136 -57.5 218.5t-174.5 82.5h-72
q-22 0 -22 -21v-485z" />
    <glyph glyph-name="uni01C5" unicode="&#x1c5;" horiz-adv-x="1400" 
d="M1183 586q-7 -10 -20 -10h-52q-13 0 -20 10l-90 139q-9 14 2 23l8 7q10 8 20 0l108 -89l114 89q11 8 21 0l8 -7q8 -8 0 -20zM64 0q-14 0 -18.5 3.5t-4.5 12.5v16q0 18 21 18h6q32 0 46.5 15t14.5 50v470q0 35 -14.5 50t-46.5 15h-6q-21 0 -21 18v16q0 9 4.5 12.5
t18.5 3.5h353q193 0 297 -87t104 -239q0 -166 -107 -270t-281 -104h-366zM305 144q0 -52 17 -73t60 -21h35q56 0 99 26t67 70t36 95.5t12 107.5q0 136 -57.5 218.5t-174.5 82.5h-72q-22 0 -22 -21v-485zM901 0q-13 0 -13 13v17q0 11 6 19l270 402q13 18 -6 18h-74
q-47 0 -75 -22t-57 -70l-15 -24q-7 -11 -20 -7l-14 4q-15 5 -10 20l38 127q4 14 9.5 19t17.5 5h383q13 0 13 -13v-19q0 -10 -6 -20l-267 -399q-3 -5 -4 -9t2 -6.5t8 -2.5h93q51 0 79.5 22.5t57.5 73.5l13 23q9 17 23 13l16 -4q11 -3 8 -16l-36 -143q-3 -12 -9 -16.5
t-20 -4.5h-411z" />
    <glyph glyph-name="uni01C6" unicode="&#x1c6;" horiz-adv-x="1196" 
d="M407 9v61q-21 -30 -66 -55t-91 -25q-95 0 -155 72.5t-60 186.5q0 137 74.5 209.5t193.5 72.5q52 0 98 -22v110q0 31 -24 32l-48 4q-13 1 -13 13v16q0 13 11 16l215 58q8 3 14 -1l7 -4q5 -3 5 -11v-640q0 -19 13 -24l38 -15q12 -5 12 -19v-5q0 -15 -14 -17l-186 -30
q-7 -1 -14 3l-5 3q-5 4 -5 11zM997 585q-7 -10 -20 -10h-52q-13 0 -20 10l-90 139q-9 14 2 23l8 7q10 8 20 0l108 -89l114 89q11 8 21 0l8 -7q8 -8 0 -20zM697 0q-13 0 -13 13v17q0 11 6 19l270 402q13 18 -6 18h-74q-47 0 -75 -22t-57 -70l-15 -24q-7 -11 -20 -7l-14 4
q-15 5 -10 20l38 127q4 14 9.5 19t17.5 5h383q13 0 13 -13v-19q0 -10 -6 -20l-267 -399q-3 -5 -4 -9t2 -6.5t8 -2.5h93q51 0 79.5 22.5t57.5 73.5l13 23q9 17 23 13l16 -4q11 -3 8 -16l-36 -143q-3 -12 -9 -16.5t-20 -4.5h-411zM326 76q25 0 46.5 13.5t28.5 30.5v189
q0 170 -83 170q-105 0 -105 -207q0 -83 29.5 -139.5t83.5 -56.5z" />
    <glyph glyph-name="uni01C7" unicode="&#x1c7;" horiz-adv-x="1113" 
d="M64 0q-14 0 -18.5 3.5t-4.5 12.5v16q0 18 21 18h6q32 0 46.5 15t14.5 50v470q0 35 -14.5 50t-46.5 15h-6q-21 0 -21 18v16q0 9 4.5 12.5t18.5 3.5h308q21 0 21 -18v-16q0 -9 -4.5 -12.5t-18.5 -3.5h-7q-58 0 -58 -65v-441q0 -52 17 -73t60 -21h68q63 0 99.5 27t68.5 86
q5 8 32 63q7 15 21 12l20 -4q13 -3 10 -17l-30 -189q-3 -17 -10.5 -22.5t-24.5 -5.5h-572zM831 585q0 36 -15 50.5t-52 14.5h-10q-21 0 -21 18v16q0 9 4.5 12.5t18.5 3.5h316q21 0 21 -18v-16q0 -9 -4.5 -12.5t-18.5 -3.5h-7q-58 0 -58 -65v-608q0 -122 -72.5 -193.5
t-176.5 -71.5q-64 0 -101.5 25t-37.5 69q0 34 21 54.5t54 20.5q28 0 45 -18.5t17 -50.5q0 -8 -1 -19t-1 -15q0 -23 20 -23q28 0 43.5 32.5t15.5 87.5v710z" />
    <glyph glyph-name="uni01C8" unicode="&#x1c8;" horiz-adv-x="1092" 
d="M923 596q-33 0 -56 22t-23 55q0 34 23 56t56 22q34 0 55.5 -22t21.5 -56t-21.5 -55.5t-55.5 -21.5zM95 0q-14 0 -18.5 3.5t-4.5 12.5v16q0 18 21 18h6q32 0 46.5 15t14.5 50v470q0 35 -14.5 50t-46.5 15h-6q-21 0 -21 18v16q0 9 4.5 12.5t18.5 3.5h308q21 0 21 -18v-16
q0 -9 -4.5 -12.5t-18.5 -3.5h-7q-58 0 -58 -65v-441q0 -52 17 -73t60 -21h68q63 0 99.5 27t68.5 86q5 8 32 63q7 15 21 12l20 -4q13 -3 10 -17l-30 -189q-3 -17 -10.5 -22.5t-24.5 -5.5h-572zM849 394q0 29 -24 32l-32 4q-12 1 -12 13v13q0 13 11 16l198 58q8 3 14 -1l7 -4
q5 -3 5 -11v-521q0 -124 -78 -202.5t-188 -78.5q-43 0 -75.5 19.5t-32.5 56.5q0 28 16.5 44t45.5 16q32 0 61 -41q23 -35 41 -35q43 0 43 102v520z" />
    <glyph glyph-name="uni01C9" unicode="&#x1c9;" horiz-adv-x="669" 
d="M91 622q0 29 -24 32l-35 4q-12 1 -12 13v13q0 13 11 16l201 58q8 3 14 -1l7 -4q5 -3 5 -11v-628q0 -60 36 -65l13 -2q16 -2 16 -16v-15q0 -10 -3.5 -13t-14.5 -3h-262q-10 0 -13.5 3.5t-3.5 12.5v14q0 14 15 17l11 2q22 4 30.5 18.5t8.5 46.5v508zM500 596q-33 0 -56 22
t-23 55q0 34 23 56t56 22q34 0 55.5 -22t21.5 -56t-21.5 -55.5t-55.5 -21.5zM426 394q0 29 -24 32l-32 4q-12 1 -12 13v13q0 13 11 16l198 58q8 3 14 -1l7 -4q5 -3 5 -11v-521q0 -124 -78 -202.5t-188 -78.5q-43 0 -75.5 19.5t-32.5 56.5q0 28 16.5 44t45.5 16q32 0 61 -41
q23 -35 41 -35q43 0 43 102v520z" />
    <glyph glyph-name="uni01CA" unicode="&#x1ca;" horiz-adv-x="1218" 
d="M299 14q0 -14 -15 -14h-252q-18 0 -18 15v18q0 15 17 17l12 1q45 4 62.5 41t17.5 134v330q0 48 -24.5 71t-60.5 23h-2q-21 0 -21 18v15q0 10 4 13.5t18 3.5h194q31 0 50 -22l366 -429v252q0 77 -19 111t-57 37l-12 1q-22 1 -22 17v16q0 17 18 17h234q11 0 15 -3.5
t4 -12.5v-17q0 -9 -3.5 -12.5t-15.5 -4.5l-10 -1q-40 -4 -57.5 -37t-17.5 -113v-480q0 -19 -19 -19h-45q-14 0 -26 13l-434 511v-298q0 -96 19.5 -133t69.5 -42l11 -1q11 -1 15 -4.5t4 -12.5v-19zM936 585q0 36 -15 50.5t-52 14.5h-10q-21 0 -21 18v16q0 9 4.5 12.5
t18.5 3.5h316q21 0 21 -18v-16q0 -9 -4.5 -12.5t-18.5 -3.5h-7q-58 0 -58 -65v-608q0 -122 -72.5 -193.5t-176.5 -71.5q-64 0 -101.5 25t-37.5 69q0 34 21 54.5t54 20.5q28 0 45 -18.5t17 -50.5q0 -8 -1 -19t-1 -15q0 -23 20 -23q28 0 43.5 32.5t15.5 87.5v710z" />
    <glyph glyph-name="uni01CB" unicode="&#x1cb;" horiz-adv-x="1132" 
d="M963 596q-33 0 -56 22t-23 55q0 34 23 56t56 22q34 0 55.5 -22t21.5 -56t-21.5 -55.5t-55.5 -21.5zM299 14q0 -14 -15 -14h-252q-18 0 -18 15v18q0 15 17 17l12 1q45 4 62.5 41t17.5 134v330q0 48 -24.5 71t-60.5 23h-2q-21 0 -21 18v15q0 10 4 13.5t18 3.5h194
q31 0 50 -22l366 -429v252q0 77 -19 111t-57 37l-12 1q-22 1 -22 17v16q0 17 18 17h234q11 0 15 -3.5t4 -12.5v-17q0 -9 -3.5 -12.5t-15.5 -4.5l-10 -1q-40 -4 -57.5 -37t-17.5 -113v-480q0 -19 -19 -19h-45q-14 0 -26 13l-434 511v-298q0 -96 19.5 -133t69.5 -42l11 -1
q11 -1 15 -4.5t4 -12.5v-19zM889 394q0 29 -24 32l-32 4q-12 1 -12 13v13q0 13 11 16l198 58q8 3 14 -1l7 -4q5 -3 5 -11v-521q0 -124 -78 -202.5t-188 -78.5q-43 0 -75.5 19.5t-32.5 56.5q0 28 16.5 44t45.5 16q32 0 61 -41q23 -35 41 -35q43 0 43 102v520z" />
    <glyph glyph-name="uni01CC" unicode="&#x1cc;" horiz-adv-x="1002" 
d="M833 596q-33 0 -56 22t-23 55q0 34 23 56t56 22q34 0 55.5 -22t21.5 -56t-21.5 -55.5t-55.5 -21.5zM57 0q-21 0 -21 15v15q0 14 15 17l13 2q22 4 29.5 18.5t7.5 46.5v280q0 29 -24 32l-32 4q-12 1 -12 13v13q0 13 11 16l195 58q8 3 14 -1l7 -4q5 -3 5 -11v-84
q29 42 78 71.5t98 29.5q69 0 110 -41.5t41 -111.5v-264q0 -60 36 -65l13 -2q16 -2 16 -16v-15q0 -10 -3.5 -13t-14.5 -3h-252q-10 0 -13.5 3.5t-3.5 12.5v14q0 14 15 17l6 1q21 4 27.5 18.5t6.5 47.5v240q0 73 -67 73q-46 0 -90 -39v-274q0 -33 5.5 -47t23.5 -18l11 -2
q15 -3 15 -16v-13q0 -18 -19 -18h-247zM759 394q0 29 -24 32l-32 4q-12 1 -12 13v13q0 13 11 16l198 58q8 3 14 -1l7 -4q5 -3 5 -11v-521q0 -124 -78 -202.5t-188 -78.5q-43 0 -75.5 19.5t-32.5 56.5q0 28 16.5 44t45.5 16q32 0 61 -41q23 -35 41 -35q43 0 43 102v520z" />
    <glyph glyph-name="uni01CE" unicode="&#x1ce;" horiz-adv-x="575" 
d="M327 585q-7 -10 -20 -10h-52q-13 0 -20 10l-90 139q-9 14 2 23l8 7q10 8 20 0l108 -89l114 89q11 8 21 0l8 -7q8 -8 0 -20zM426 -10q-45 0 -71.5 23.5t-33.5 62.5q-62 -87 -155 -87q-52 0 -85.5 32t-33.5 83q0 32 12.5 57.5t38 44t48 30t58.5 25.5q82 32 109 45l1 77
q0 93 -76 93q-45 0 -45 -42q0 -3 0.5 -21t0.5 -28q0 -39 -22 -59t-61 -20q-32 0 -50 17.5t-18 47.5q0 62 85 112t183 50q79 0 121 -35t41 -103l-3 -264q0 -45 27 -45q23 0 42 46q4 10 15 7l13 -4q10 -3 7 -14q-15 -61 -52 -96t-96 -35zM203 149q0 -28 15.5 -45.5t41.5 -17.5
q29 0 52 23l1 153q-45 -21 -51 -24q-59 -30 -59 -89z" />
    <glyph glyph-name="uni01D0" unicode="&#x1d0;" horiz-adv-x="353" 
d="M225 585q-7 -10 -20 -10h-52q-13 0 -20 10l-90 139q-9 14 2 23l8 7q10 8 20 0l107 -89l115 89q11 8 21 0l8 -7q8 -8 0 -20zM101 394q0 29 -24 32l-32 4q-12 1 -12 13v13q0 13 11 16l198 58q8 3 14 -1l7 -4q5 -3 5 -11v-400q0 -60 36 -65l13 -2q16 -2 16 -16v-15
q0 -10 -3.5 -13t-14.5 -3h-262q-10 0 -13.5 3.5t-3.5 12.5v14q0 14 15 17l11 2q22 4 30.5 18.5t8.5 46.5v280z" />
    <glyph glyph-name="uni01D2" unicode="&#x1d2;" 
d="M355 585q-7 -10 -20 -10h-52q-13 0 -20 10l-90 139q-9 14 2 23l8 7q10 8 20 0l108 -89l114 89q11 8 21 0l8 -7q8 -8 0 -20zM311 -10q-123 0 -199.5 69.5t-76.5 204.5q0 120 82 193.5t201 73.5q125 0 199.5 -73.5t74.5 -193.5q0 -124 -76 -199t-205 -75zM324 42
q90 0 90 187q0 250 -103 250q-27 0 -47 -17.5t-30.5 -46.5t-15.5 -59.5t-5 -62.5q0 -47 5.5 -89t18 -80t35 -60t52.5 -22z" />
    <glyph glyph-name="uni01D3" unicode="&#x1d3;" horiz-adv-x="811" 
d="M487 767q-7 -7 -18 -7h-57q-10 0 -17 7l-119 120q-9 9 -1 20l7 9q8 10 18 5l142 -77l139 76q12 7 19 -2l8 -11q8 -11 -2 -20zM702 283q0 -297 -274 -297q-155 0 -237.5 61t-82.5 211v327q0 35 -14.5 50t-46.5 15h-6q-21 0 -21 18v16q0 9 4.5 12.5t18.5 3.5h308
q21 0 21 -18v-16q0 -9 -4.5 -12.5t-18.5 -3.5h-7q-58 0 -58 -65v-304q0 -119 40 -174t135 -55q92 0 138.5 59t46.5 158v271q0 58 -13.5 82.5t-50.5 26.5l-16 1q-13 1 -17.5 4t-4.5 13v17q0 16 16 16h225q16 0 16 -13v-21q0 -15 -20 -16l-12 -1q-35 -3 -50 -28.5t-15 -78.5
v-259z" />
    <glyph glyph-name="uni01D4" unicode="&#x1d4;" horiz-adv-x="658" 
d="M369 585q-7 -10 -20 -10h-52q-13 0 -20 10l-90 139q-9 14 2 23l8 7q10 8 20 0l108 -89l114 89q11 8 21 0l8 -7q8 -8 0 -20zM404 439q0 25 -19 28l-34 4q-15 1 -15 16v16q0 14 14 16l202 12q7 0 11 -3l4 -3q4 -3 4 -10v-413q0 -19 13 -24l38 -15q12 -5 12 -19v-5
q0 -15 -14 -17l-185 -30q-7 -1 -14 3l-5 3q-5 4 -5 11v80q-32 -40 -78.5 -69.5t-100.5 -29.5q-70 0 -107.5 41t-37.5 113v295q0 25 -19 28l-34 4q-15 1 -15 16v16q0 14 14 16l202 12q7 0 11 -3l4 -3q4 -3 4 -10v-350q0 -71 68 -71q48 0 82 37v308z" />
    <glyph glyph-name="uni01D6" unicode="&#x1d6;" horiz-adv-x="658" 
d="M438 783h-242q-11 0 -14 3.5t-3 15.5v44q0 11 3.5 15t13.5 4h242q10 0 13.5 -4t3.5 -15v-44q0 -12 -3 -15.5t-14 -3.5zM150 665q0 29 19.5 49t47.5 20q29 0 48.5 -20t19.5 -49t-19.5 -49t-48.5 -20q-28 0 -47.5 20t-19.5 49zM349 665q0 29 19.5 49t48.5 20q28 0 47.5 -20
t19.5 -49t-19.5 -49t-47.5 -20q-29 0 -48.5 20t-19.5 49zM404 439q0 25 -19 28l-34 4q-15 1 -15 16v16q0 14 14 16l202 12q7 0 11 -3l4 -3q4 -3 4 -10v-413q0 -19 13 -24l38 -15q12 -5 12 -19v-5q0 -15 -14 -17l-185 -30q-7 -1 -14 3l-5 3q-5 4 -5 11v80
q-32 -40 -78.5 -69.5t-100.5 -29.5q-70 0 -107.5 41t-37.5 113v295q0 25 -19 28l-34 4q-15 1 -15 16v16q0 14 14 16l202 12q7 0 11 -3l4 -3q4 -3 4 -10v-350q0 -71 68 -71q48 0 82 37v308z" />
    <glyph glyph-name="uni01D8" unicode="&#x1d8;" horiz-adv-x="658" 
d="M495 933q21 0 37.5 -18t16.5 -44q0 -28 -40 -46l-183 -81q-13 -5 -19 4l-8 12q-7 10 2 19l146 131q25 23 48 23zM156 665q0 29 19.5 49t47.5 20q29 0 48.5 -20t19.5 -49t-19.5 -49t-48.5 -20q-28 0 -47.5 20t-19.5 49zM355 665q0 29 19.5 49t48.5 20q28 0 47.5 -20
t19.5 -49t-19.5 -49t-47.5 -20q-29 0 -48.5 20t-19.5 49zM404 439q0 25 -19 28l-34 4q-15 1 -15 16v16q0 14 14 16l202 12q7 0 11 -3l4 -3q4 -3 4 -10v-413q0 -19 13 -24l38 -15q12 -5 12 -19v-5q0 -15 -14 -17l-185 -30q-7 -1 -14 3l-5 3q-5 4 -5 11v80
q-32 -40 -78.5 -69.5t-100.5 -29.5q-70 0 -107.5 41t-37.5 113v295q0 25 -19 28l-34 4q-15 1 -15 16v16q0 14 14 16l202 12q7 0 11 -3l4 -3q4 -3 4 -10v-350q0 -71 68 -71q48 0 82 37v308z" />
    <glyph glyph-name="uni01DA" unicode="&#x1da;" horiz-adv-x="658" 
d="M371 760q-7 -10 -20 -10h-52q-13 0 -20 10l-90 139q-9 14 2 23l8 7q10 8 20 0l108 -89l114 89q11 8 21 0l8 -7q8 -8 0 -20zM160 665q0 29 19.5 49t47.5 20q29 0 48.5 -20t19.5 -49t-19.5 -49t-48.5 -20q-28 0 -47.5 20t-19.5 49zM359 665q0 29 19.5 49t48.5 20
q28 0 47.5 -20t19.5 -49t-19.5 -49t-47.5 -20q-29 0 -48.5 20t-19.5 49zM404 439q0 25 -19 28l-34 4q-15 1 -15 16v16q0 14 14 16l202 12q7 0 11 -3l4 -3q4 -3 4 -10v-413q0 -19 13 -24l38 -15q12 -5 12 -19v-5q0 -15 -14 -17l-185 -30q-7 -1 -14 3l-5 3q-5 4 -5 11v80
q-32 -40 -78.5 -69.5t-100.5 -29.5q-70 0 -107.5 41t-37.5 113v295q0 25 -19 28l-34 4q-15 1 -15 16v16q0 14 14 16l202 12q7 0 11 -3l4 -3q4 -3 4 -10v-350q0 -71 68 -71q48 0 82 37v308z" />
    <glyph glyph-name="uni01DC" unicode="&#x1dc;" horiz-adv-x="658" 
d="M329 751l-180 75q-38 16 -38 53q0 23 15.5 41t39.5 18q26 0 50 -22l138 -130q9 -9 2 -19l-8 -12q-6 -9 -19 -4zM164 665q0 29 19.5 49t47.5 20q29 0 48.5 -20t19.5 -49t-19.5 -49t-48.5 -20q-28 0 -47.5 20t-19.5 49zM363 665q0 29 19.5 49t48.5 20q28 0 47.5 -20
t19.5 -49t-19.5 -49t-47.5 -20q-29 0 -48.5 20t-19.5 49zM404 439q0 25 -19 28l-34 4q-15 1 -15 16v16q0 14 14 16l202 12q7 0 11 -3l4 -3q4 -3 4 -10v-413q0 -19 13 -24l38 -15q12 -5 12 -19v-5q0 -15 -14 -17l-185 -30q-7 -1 -14 3l-5 3q-5 4 -5 11v80
q-32 -40 -78.5 -69.5t-100.5 -29.5q-70 0 -107.5 41t-37.5 113v295q0 25 -19 28l-34 4q-15 1 -15 16v16q0 14 14 16l202 12q7 0 11 -3l4 -3q4 -3 4 -10v-350q0 -71 68 -71q48 0 82 37v308z" />
    <glyph glyph-name="uni01DD" unicode="&#x1dd;" horiz-adv-x="563" 
d="M538 265q0 -126 -74 -200.5t-186 -74.5q-109 0 -172.5 61.5t-63.5 170.5q0 28 22 28h312q-3 89 -39.5 137.5t-101.5 48.5q-86 0 -142 -72q-8 -11 -19 -5l-16 8q-10 5 -3 21q30 65 92 104t145 39q107 0 176.5 -71t69.5 -195zM289 39q80 0 86 166h-128q-16 0 -22.5 -8.5
t-6.5 -29.5q0 -128 71 -128z" />
    <glyph glyph-name="uni01E2" unicode="&#x1e2;" horiz-adv-x="1053" 
d="M805 795h-274q-9 0 -12 3t-3 13v46q0 10 3 13t12 3h274q9 0 12 -3t3 -13v-46q0 -10 -3 -13t-12 -3zM264 14q0 -14 -15 -14h-220q-19 0 -19 14v19q0 17 17 17h6q25 0 53.5 26.5t51.5 64.5l312 507q-18 2 -39 2h-26q-21 0 -21 18v16q0 9 4.5 12.5t18.5 3.5h536q17 0 23 -6
t8 -21l20 -129q3 -18 -10 -21l-14 -4q-15 -4 -22 9q-5 9 -14 25.5t-14 25.5q-20 37 -49 54t-80 17h-97q-22 0 -22 -21v-252h77q82 0 82 84v6q0 11 3.5 14.5t12.5 3.5h17q14 0 14 -18v-223q0 -16 -14 -16h-17q-17 0 -17 19v7q-2 39 -20.5 56t-62.5 17h-75v-183q0 -52 17 -73
t60 -21h44q105 0 167 96l30 47q8 12 21 8l11 -3q13 -4 10 -18l-30 -152q-4 -17 -11 -22.5t-24 -5.5h-530q-14 0 -18.5 3.5t-4.5 12.5v16q0 18 21 18h6q32 0 46.5 15t14.5 50v142h-205l-70 -116q-23 -35 -16 -63t49 -28h10q14 0 14 -16v-20zM307 307h175v290z" />
    <glyph glyph-name="uni01E3" unicode="&#x1e3;" horiz-adv-x="829" 
d="M568 623h-242q-11 0 -14 3.5t-3 15.5v44q0 11 3.5 15t13.5 4h242q10 0 13.5 -4t3.5 -15v-44q0 -12 -3 -15.5t-14 -3.5zM567 -10q-143 0 -208 103q-79 -106 -192 -106q-60 0 -92 32.5t-32 85.5q0 27 10.5 49.5t24 37t38.5 28.5t43 21t48 18q68 24 108 45v63q0 105 -56 105
q-29 0 -52 -15.5t-23 -41.5v-31q0 -80 -74 -80q-66 0 -66 61q0 46 46.5 86t106 60t107.5 20q86 0 123 -47q65 47 151 47q93 0 154.5 -58.5t61.5 -153.5q0 -28 -22 -28h-295q1 -92 43.5 -144.5t110.5 -52.5q75 0 114 61q7 12 17 7l18 -8q9 -4 3 -21q-26 -64 -81 -103.5
t-135 -39.5zM558 485q-32 0 -53.5 -39.5t-26.5 -109.5h109q29 0 29 40q0 109 -58 109zM206 144q0 -25 14 -42t38 -17q46 0 84 40q-25 56 -27 135q-5 -2 -22.5 -10.5t-27.5 -13.5q-59 -30 -59 -92z" />
    <glyph glyph-name="uni01E7" unicode="&#x1e7;" horiz-adv-x="622" 
d="M359 585q-7 -10 -20 -10h-52q-13 0 -20 10l-90 139q-9 14 2 23l8 7q10 8 20 0l108 -89l114 89q11 8 21 0l8 -7q8 -8 0 -20zM595 -79q0 -104 -81.5 -156.5t-230.5 -52.5q-52 0 -97 6.5t-85 21t-63.5 41.5t-23.5 64q0 77 116 102q-37 8 -60 40t-23 68q0 87 100 132
q-94 49 -94 154q0 90 70 140t181 50q87 0 146 -38q54 46 110 46q28 0 44.5 -15t16.5 -39q0 -18 -11 -31t-29 -13q-24 0 -42 23q-14 19 -26 19q-14 0 -33 -14q50 -48 50 -122q0 -87 -66.5 -138.5t-171.5 -51.5q-58 0 -105 14q-28 -14 -28 -47q0 -45 69 -45h163
q204 0 204 -158zM366 333q0 146 -73 146q-38 0 -56.5 -37t-18.5 -90q0 -61 19 -102t59 -41q38 0 54.5 36t15.5 88zM473 -133q0 38 -25.5 52t-84.5 14h-130q-49 0 -79 -17.5t-30 -51.5q0 -52 49.5 -77.5t126.5 -25.5q76 0 124.5 28.5t48.5 77.5z" />
    <glyph glyph-name="uni01E9" unicode="&#x1e9;" horiz-adv-x="660" 
d="M476 678q-7 -10 -20 -10h-52q-13 0 -20 10l-90 139q-9 14 2 23l8 7q10 8 20 0l108 -89l114 89q11 8 21 0l8 -7q8 -8 0 -20zM311 18q0 -18 -17 -18h-245q-14 0 -18.5 3.5t-4.5 12.5v14q0 9 4.5 12.5t16.5 5.5l6 1q22 4 30 18.5t8 46.5v508q0 29 -24 32l-35 4q-12 1 -12 13
v13q0 13 11 16l201 58q8 3 14 -1l7 -4q5 -3 5 -11v-448h30l115 106q29 28 22.5 49t-37.5 23l-11 1q-21 1 -21 16v14q0 18 21 18h220q14 0 18.5 -3.5t4.5 -12.5v-14q0 -9 -4 -12.5t-16 -5.5q-50 -10 -138 -86l-52 -44l151 -229q1 -2 6.5 -10t7.5 -10.5t7.5 -10t8.5 -10.5
t8 -8.5t9.5 -8t10 -5t10.5 -3.5q12 -2 16.5 -5.5t4.5 -12.5v-14q0 -9 -4.5 -12.5t-18.5 -3.5h-243q-21 0 -21 18v14q0 14 16 16l7 1q35 5 -8 65l-82 128h-38v-128q0 -62 27 -65l7 -1q19 -3 19 -16v-14z" />
    <glyph glyph-name="uni01EA" unicode="&#x1ea;" horiz-adv-x="875" 
d="M585 -198q-54 -90 -146 -90q-51 0 -82.5 26t-31.5 69q0 88 115 179h-4q-169 0 -276.5 96.5t-107.5 268.5q0 170 110 266.5t280 96.5q164 0 272.5 -92t108.5 -254q0 -155 -86 -256t-232 -121q-66 -68 -66 -124q0 -30 16.5 -49t44.5 -19q30 0 57 25q9 9 18 2l8 -6
q9 -7 2 -18zM638 328q0 149 -52.5 240.5t-154.5 91.5q-93 0 -143.5 -76t-50.5 -184q0 -165 56 -262.5t163 -97.5q42 0 74.5 18.5t52.5 47.5t32.5 68.5t17.5 77t5 76.5z" />
    <glyph glyph-name="uni01EB" unicode="&#x1eb;" 
d="M442 -198q-54 -90 -146 -90q-51 0 -82.5 26t-31.5 69q0 91 120 183q-120 2 -193.5 72t-73.5 202q0 120 82 193.5t201 73.5q125 0 199.5 -73.5t74.5 -193.5q0 -110 -60.5 -182.5t-166.5 -87.5q-69 -71 -69 -127q0 -30 16.5 -49t44.5 -19q30 0 57 25q9 9 18 2l8 -6
q9 -7 2 -18zM324 42q90 0 90 187q0 250 -103 250q-27 0 -47 -17.5t-30.5 -46.5t-15.5 -59.5t-5 -62.5q0 -47 5.5 -89t18 -80t35 -60t52.5 -22z" />
    <glyph glyph-name="uni01ED" unicode="&#x1ed;" 
d="M435 623h-242q-11 0 -14 3.5t-3 15.5v44q0 11 3.5 15t13.5 4h242q10 0 13.5 -4t3.5 -15v-44q0 -12 -3 -15.5t-14 -3.5zM442 -198q-54 -90 -146 -90q-51 0 -82.5 26t-31.5 69q0 91 120 183q-120 2 -193.5 72t-73.5 202q0 120 82 193.5t201 73.5q125 0 199.5 -73.5
t74.5 -193.5q0 -110 -60.5 -182.5t-166.5 -87.5q-69 -71 -69 -127q0 -30 16.5 -49t44.5 -19q30 0 57 25q9 9 18 2l8 -6q9 -7 2 -18zM324 42q90 0 90 187q0 250 -103 250q-27 0 -47 -17.5t-30.5 -46.5t-15.5 -59.5t-5 -62.5q0 -47 5.5 -89t18 -80t35 -60t52.5 -22z" />
    <glyph glyph-name="uni01EF" unicode="&#x1ef;" horiz-adv-x="500" 
d="M306 585q-7 -10 -20 -10h-52q-13 0 -20 10l-90 139q-9 14 2 23l8 7q10 8 20 0l108 -89l114 89q11 8 21 0l8 -7q8 -8 0 -20zM515 -50q0 -106 -81 -172t-213 -66q-97 0 -157 34.5t-60 96.5q0 30 18.5 51t50.5 21q27 0 42.5 -16.5t15.5 -42.5q0 -6 -2.5 -20t-2.5 -21
q0 -23 25 -37t73 -14q60 0 96 41.5t36 107.5q0 67 -57 108.5t-138 57.5q-12 3 -12 17v19q0 16 8 25l206 229q7 7 5.5 13.5t-11.5 6.5h-177q-42 0 -57.5 -10t-33.5 -45l-12 -24q-8 -14 -20 -11l-17 4q-13 3 -10 21l32 192q1 13 15 13q3 0 32 -6.5t54 -6.5h327q11 0 11 -12
v-52q0 -14 -9 -24l-216 -235q107 -27 173 -87.5t66 -155.5z" />
    <glyph glyph-name="uni01F1" unicode="&#x1f1;" horiz-adv-x="1526" 
d="M64 0q-14 0 -18.5 3.5t-4.5 12.5v16q0 18 21 18h6q32 0 46.5 15t14.5 50v470q0 35 -14.5 50t-46.5 15h-6q-21 0 -21 18v16q0 9 4.5 12.5t18.5 3.5h353q193 0 297 -87t104 -239q0 -166 -107 -270t-281 -104h-366zM875 50l379 577q15 23 -6 23h-116q-72 0 -108 -20.5
t-69 -72.5q-8 -13 -21 -34t-16 -26q-9 -14 -24 -10l-15 4q-14 4 -10 19l38 161q4 18 12 23.5t28 5.5h502q16 0 16 -16v-8q0 -11 -9 -26l-380 -581q-13 -19 9 -19h152q67 0 107 24t68 77q10 19 23 45q8 17 26 13l13 -3q14 -4 11 -19l-33 -157q-4 -18 -11.5 -24t-29.5 -6h-528
q-16 0 -16 16v8q0 15 8 26zM305 144q0 -52 17 -73t60 -21h35q56 0 99 26t67 70t36 95.5t12 107.5q0 136 -57.5 218.5t-174.5 82.5h-72q-22 0 -22 -21v-485z" />
    <glyph glyph-name="uni01F2" unicode="&#x1f2;" horiz-adv-x="1400" 
d="M64 0q-14 0 -18.5 3.5t-4.5 12.5v16q0 18 21 18h6q32 0 46.5 15t14.5 50v470q0 35 -14.5 50t-46.5 15h-6q-21 0 -21 18v16q0 9 4.5 12.5t18.5 3.5h353q193 0 297 -87t104 -239q0 -166 -107 -270t-281 -104h-366zM305 144q0 -52 17 -73t60 -21h35q56 0 99 26t67 70
t36 95.5t12 107.5q0 136 -57.5 218.5t-174.5 82.5h-72q-22 0 -22 -21v-485zM901 0q-13 0 -13 13v17q0 11 6 19l270 402q13 18 -6 18h-74q-47 0 -75 -22t-57 -70l-15 -24q-7 -11 -20 -7l-14 4q-15 5 -10 20l38 127q4 14 9.5 19t17.5 5h383q13 0 13 -13v-19q0 -10 -6 -20
l-267 -399q-3 -5 -4 -9t2 -6.5t8 -2.5h93q51 0 79.5 22.5t57.5 73.5l13 23q9 17 23 13l16 -4q11 -3 8 -16l-36 -143q-3 -12 -9 -16.5t-20 -4.5h-411z" />
    <glyph glyph-name="uni01F3" unicode="&#x1f3;" horiz-adv-x="1196" 
d="M407 9v61q-21 -30 -66 -55t-91 -25q-95 0 -155 72.5t-60 186.5q0 137 74.5 209.5t193.5 72.5q52 0 98 -22v110q0 31 -24 32l-48 4q-13 1 -13 13v16q0 13 11 16l215 58q8 3 14 -1l7 -4q5 -3 5 -11v-640q0 -19 13 -24l38 -15q12 -5 12 -19v-5q0 -15 -14 -17l-186 -30
q-7 -1 -14 3l-5 3q-5 4 -5 11zM697 0q-13 0 -13 13v17q0 11 6 19l270 402q13 18 -6 18h-74q-47 0 -75 -22t-57 -70l-15 -24q-7 -11 -20 -7l-14 4q-15 5 -10 20l38 127q4 14 9.5 19t17.5 5h383q13 0 13 -13v-19q0 -10 -6 -20l-267 -399q-3 -5 -4 -9t2 -6.5t8 -2.5h93
q51 0 79.5 22.5t57.5 73.5l13 23q9 17 23 13l16 -4q11 -3 8 -16l-36 -143q-3 -12 -9 -16.5t-20 -4.5h-411zM326 76q25 0 46.5 13.5t28.5 30.5v189q0 170 -83 170q-105 0 -105 -207q0 -83 29.5 -139.5t83.5 -56.5z" />
    <glyph glyph-name="uni01F5" unicode="&#x1f5;" horiz-adv-x="622" 
d="M390 763q21 0 37.5 -18t16.5 -44q0 -28 -40 -46l-183 -81q-13 -5 -19 4l-8 12q-7 10 2 19l146 131q25 23 48 23zM595 -79q0 -104 -81.5 -156.5t-230.5 -52.5q-52 0 -97 6.5t-85 21t-63.5 41.5t-23.5 64q0 77 116 102q-37 8 -60 40t-23 68q0 87 100 132q-94 49 -94 154
q0 90 70 140t181 50q87 0 146 -38q54 46 110 46q28 0 44.5 -15t16.5 -39q0 -18 -11 -31t-29 -13q-24 0 -42 23q-14 19 -26 19q-14 0 -33 -14q50 -48 50 -122q0 -87 -66.5 -138.5t-171.5 -51.5q-58 0 -105 14q-28 -14 -28 -47q0 -45 69 -45h163q204 0 204 -158zM366 333
q0 146 -73 146q-38 0 -56.5 -37t-18.5 -90q0 -61 19 -102t59 -41q38 0 54.5 36t15.5 88zM473 -133q0 38 -25.5 52t-84.5 14h-130q-49 0 -79 -17.5t-30 -51.5q0 -52 49.5 -77.5t126.5 -25.5q76 0 124.5 28.5t48.5 77.5z" />
    <glyph glyph-name="uni01F9" unicode="&#x1f9;" horiz-adv-x="677" 
d="M439 575l-180 75q-38 16 -38 53q0 23 15.5 41t39.5 18q26 0 50 -22l138 -130q9 -9 2 -19l-8 -12q-6 -9 -19 -4zM57 0q-21 0 -21 15v15q0 14 15 17l13 2q22 4 29.5 18.5t7.5 46.5v280q0 29 -24 32l-32 4q-12 1 -12 13v13q0 13 11 16l195 58q8 3 14 -1l7 -4q5 -3 5 -11v-84
q29 42 78 71.5t98 29.5q69 0 110 -41.5t41 -111.5v-264q0 -60 36 -65l13 -2q16 -2 16 -16v-15q0 -10 -3.5 -13t-14.5 -3h-252q-10 0 -13.5 3.5t-3.5 12.5v14q0 14 15 17l6 1q21 4 27.5 18.5t6.5 47.5v240q0 73 -67 73q-46 0 -90 -39v-274q0 -33 5.5 -47t23.5 -18l11 -2
q15 -3 15 -16v-13q0 -18 -19 -18h-247z" />
    <glyph glyph-name="uni01FB" unicode="&#x1fb;" horiz-adv-x="575" 
d="M362 973q21 0 37.5 -18t16.5 -44q0 -28 -40 -46l-183 -81q-13 -5 -19 4l-8 12q-7 10 2 19l146 131q25 23 48 23zM273 573q-40 0 -68 28.5t-28 69.5q0 40 28 68.5t68 28.5q41 0 69.5 -28.5t28.5 -68.5q0 -41 -28.5 -69.5t-69.5 -28.5zM273 620q21 0 35 14.5t14 36.5
q0 21 -14 35.5t-35 14.5q-20 0 -33.5 -14.5t-13.5 -35.5q0 -22 13.5 -36.5t33.5 -14.5zM426 -10q-45 0 -71.5 23.5t-33.5 62.5q-62 -87 -155 -87q-52 0 -85.5 32t-33.5 83q0 32 12.5 57.5t38 44t48 30t58.5 25.5q82 32 109 45l1 77q0 93 -76 93q-45 0 -45 -42q0 -3 0.5 -21
t0.5 -28q0 -39 -22 -59t-61 -20q-32 0 -50 17.5t-18 47.5q0 62 85 112t183 50q79 0 121 -35t41 -103l-3 -264q0 -45 27 -45q23 0 42 46q4 10 15 7l13 -4q10 -3 7 -14q-15 -61 -52 -96t-96 -35zM203 149q0 -28 15.5 -45.5t41.5 -17.5q29 0 52 23l1 153q-45 -21 -51 -24
q-59 -30 -59 -89z" />
    <glyph glyph-name="AEacute" unicode="&#x1fc;" horiz-adv-x="1053" 
d="M544 765l-6 12q-5 11 7 19l172 113q23 16 48 16q23 0 36 -16t13 -38q0 -38 -46 -51l-206 -61q-13 -4 -18 6zM264 14q0 -14 -15 -14h-220q-19 0 -19 14v19q0 17 17 17h6q25 0 53.5 26.5t51.5 64.5l312 507q-18 2 -39 2h-26q-21 0 -21 18v16q0 9 4.5 12.5t18.5 3.5h536
q17 0 23 -6t8 -21l20 -129q3 -18 -10 -21l-14 -4q-15 -4 -22 9q-5 9 -14 25.5t-14 25.5q-20 37 -49 54t-80 17h-97q-22 0 -22 -21v-252h77q82 0 82 84v6q0 11 3.5 14.5t12.5 3.5h17q14 0 14 -18v-223q0 -16 -14 -16h-17q-17 0 -17 19v7q-2 39 -20.5 56t-62.5 17h-75v-183
q0 -52 17 -73t60 -21h44q105 0 167 96l30 47q8 12 21 8l11 -3q13 -4 10 -18l-30 -152q-4 -17 -11 -22.5t-24 -5.5h-530q-14 0 -18.5 3.5t-4.5 12.5v16q0 18 21 18h6q32 0 46.5 15t14.5 50v142h-205l-70 -116q-23 -35 -16 -63t49 -28h10q14 0 14 -16v-20zM307 307h175v290z
" />
    <glyph glyph-name="aeacute" unicode="&#x1fd;" horiz-adv-x="829" 
d="M566 763q21 0 37.5 -18t16.5 -44q0 -28 -40 -46l-183 -81q-13 -5 -19 4l-8 12q-7 10 2 19l146 131q25 23 48 23zM567 -10q-143 0 -208 103q-79 -106 -192 -106q-60 0 -92 32.5t-32 85.5q0 27 10.5 49.5t24 37t38.5 28.5t43 21t48 18q68 24 108 45v63q0 105 -56 105
q-29 0 -52 -15.5t-23 -41.5v-31q0 -80 -74 -80q-66 0 -66 61q0 46 46.5 86t106 60t107.5 20q86 0 123 -47q65 47 151 47q93 0 154.5 -58.5t61.5 -153.5q0 -28 -22 -28h-295q1 -92 43.5 -144.5t110.5 -52.5q75 0 114 61q7 12 17 7l18 -8q9 -4 3 -21q-26 -64 -81 -103.5
t-135 -39.5zM558 485q-32 0 -53.5 -39.5t-26.5 -109.5h109q29 0 29 40q0 109 -58 109zM206 144q0 -25 14 -42t38 -17q46 0 84 40q-25 56 -27 135q-5 -2 -22.5 -10.5t-27.5 -13.5q-59 -30 -59 -92z" />
    <glyph glyph-name="Oslashacute" unicode="&#x1fe;" horiz-adv-x="875" 
d="M325 765l-6 12q-5 11 7 19l172 113q23 16 48 16q23 0 36 -16t13 -38q0 -38 -46 -51l-206 -61q-13 -4 -18 6zM187 -18q-9 -12 -20 -5l-20 13q-12 7 -2 22l38 51q-131 99 -131 288q0 170 110 266.5t280 96.5q112 0 200 -44l36 47q8 12 22 3l17 -11q11 -8 2 -21l-33 -44
q137 -95 137 -276q0 -173 -106.5 -277.5t-280.5 -104.5q-119 0 -209 49zM235 400q0 -135 38 -226l301 413q-54 73 -143 73q-94 0 -145 -76.5t-51 -183.5zM640 328q0 126 -38 211l-302 -415q59 -84 156 -84q52 0 89.5 27t57 72t28.5 92t9 97z" />
    <glyph glyph-name="oslashacute" unicode="&#x1ff;" horiz-adv-x="629" 
d="M410 763q21 0 37.5 -18t16.5 -44q0 -28 -40 -46l-183 -81q-13 -5 -19 4l-8 12q-7 10 2 19l146 131q25 23 48 23zM110 -11q-9 -12 -21 -3l-11 9q-12 11 -3 22l36 44q-76 71 -76 203q0 120 82 193.5t201 73.5q86 0 151 -37l27 34q10 12 21 4l14 -11q11 -8 0 -22l-25 -31
q86 -73 86 -204q0 -124 -76 -199t-205 -75q-98 0 -165 43zM211 293q0 -58 9 -110l175 216q-27 80 -84 80q-36 0 -59.5 -31t-32 -71t-8.5 -84zM417 229q0 66 -8 115l-175 -215q29 -87 90 -87q93 0 93 187z" />
    <glyph glyph-name="Scommaaccent" unicode="&#x218;" horiz-adv-x="625" 
d="M324 660q-47 0 -78.5 -24.5t-31.5 -64.5q0 -45 35 -71.5t116 -59.5q113 -45 159 -95t46 -141q0 -95 -65.5 -155.5t-174.5 -60.5q-95 0 -172 43q-10 6 -16 6q-9 0 -13 -12l-6 -17q-4 -14 -18 -14h-17q-16 0 -16 17l-1 189q0 19 18 19h17q15 0 19 -13q56 -166 196 -166
q53 0 82 28.5t29 71.5q0 48 -32.5 79t-111.5 62q-112 44 -161 90t-49 132q0 99 69 154t172 55q77 0 145 -36q10 -5 16 -5t11 9l8 16q6 12 18 12h14q13 0 13 -14l3 -168q0 -21 -15 -21h-17q-17 0 -21 12q-42 143 -170 143zM272 -292q-10 -3 -15 6l-6 10q-6 10 4 17
q28 18 42 30q32 31 43 54q-9 -4 -24 -4q-26 0 -43 16t-17 41q0 30 20.5 48.5t49.5 18.5q33 0 53.5 -23.5t20.5 -62.5q0 -70 -72 -122q-30 -21 -56 -29z" />
    <glyph glyph-name="scommaaccent" unicode="&#x219;" horiz-adv-x="471" 
d="M65 17q-12 5 -12 19l-3 119q0 14 11 15l14 1q10 1 14 -9q32 -66 60.5 -92.5t76.5 -26.5q82 0 82 61q0 33 -22 51t-75 38q-90 34 -124 70.5t-34 105.5q0 78 56 120t147 42q71 0 133 -20q12 -4 13 -16l7 -110q1 -11 -10 -12l-12 -2q-12 -2 -18 10q-46 97 -117 97
q-69 0 -69 -52q0 -29 20.5 -44t78.5 -38q83 -31 117 -70t34 -101q0 -83 -58.5 -133t-151.5 -50q-91 0 -158 27zM180 -292q-10 -3 -15 6l-6 10q-6 10 4 17q28 18 42 30q32 31 43 54q-9 -4 -24 -4q-26 0 -43 16t-17 41q0 30 20.5 48.5t49.5 18.5q33 0 53.5 -23.5t20.5 -62.5
q0 -70 -72 -122q-30 -21 -56 -29z" />
    </font>
</defs>
</svg>
