<svg xmlns="http://www.w3.org/2000/svg" xmlns:xlink="http://www.w3.org/1999/xlink" width="931.057" height="215.333" viewBox="0 0 931.057 215.333"><defs><path id="a" d="M0 0h931.057v215.333H0z"/></defs><clipPath id="b"><use xlink:href="#a" overflow="visible"/></clipPath><path clip-path="url(#b)" fill="#0072BC" d="M362.654 20.391h-16.328v38.745h4.484V42.255h11.844c7.97 0 12.509-4.539 12.509-11.015 0-6.365-4.539-10.849-12.509-10.849m-.332 17.768H350.81V24.488h11.512c5.314 0 8.358 2.38 8.358 6.863 0 4.428-3.044 6.808-8.358 6.808m39.872-18.432c-11.125 0-19.538 8.634-19.538 20.037 0 11.401 8.413 20.036 19.538 20.036 11.18 0 19.594-8.635 19.594-20.036 0-11.403-8.414-20.037-19.594-20.037m0 35.867c-8.358 0-14.945-6.753-14.945-15.83 0-9.078 6.587-15.831 14.945-15.831 8.413 0 14.999 6.753 14.999 15.831 0 9.077-6.586 15.83-14.999 15.83m32.71-15.83c0-9.133 6.752-15.831 15.442-15.831 4.317 0 7.638 1.163 10.738 3.211V22.55c-3.1-1.937-6.642-2.823-10.793-2.823-11.347 0-19.981 8.358-19.981 20.037 0 11.789 8.689 20.036 19.981 20.036 4.538 0 8.523-1.162 11.623-3.376v-4.595c-3.21 2.547-6.974 3.765-11.402 3.765-8.801 0-15.608-6.587-15.608-15.83m37.918 0c0-9.133 6.753-15.831 15.442-15.831 4.317 0 7.639 1.163 10.736 3.211V22.55c-3.098-1.937-6.641-2.823-10.792-2.823-11.347 0-19.98 8.358-19.98 20.037 0 11.789 8.688 20.036 19.98 20.036 4.54 0 8.524-1.162 11.624-3.376v-4.595c-3.211 2.547-6.975 3.765-11.403 3.765-8.8 0-15.607-6.587-15.607-15.83m40.177 11.845V20.391h-4.428v38.745h3.763l23.69-31.328v31.328h4.428V20.391h-3.931l-23.522 31.218zm43.52 0V20.391h-4.429v38.745h3.764l23.689-31.328v31.328h4.427V20.391h-3.929l-23.522 31.218zm11.456-33.819c5.203 0 9.3-3.321 9.3-8.579H573.4c-.056 2.989-2.158 5.092-5.425 5.092-3.432 0-5.479-2.103-5.479-5.092h-3.874c.055 5.258 3.818 8.579 9.353 8.579m30.291 21.974c0-9.133 6.754-15.831 15.442-15.831 4.318 0 7.639 1.163 10.738 3.211V22.55c-3.1-1.937-6.643-2.823-10.793-2.823-11.347 0-19.981 8.358-19.981 20.037 0 11.789 8.69 20.036 19.981 20.036 4.538 0 8.522-1.162 11.624-3.376v-4.595c-3.21 2.547-6.975 3.765-11.403 3.765-8.799 0-15.608-6.587-15.608-15.83m63.645-19.373h-5.923l-17.491 16.605V20.391h-4.483v38.745h4.483V39.709l20.148 19.427h6.198l-21.752-21.033 18.82-17.712zm15.13 31.218V20.391h-4.427v38.745h3.763l23.689-31.328v31.328h4.429V20.391h-3.931l-23.523 31.218zm67.044-31.218l-23.523 31.218V20.391h-4.43v38.745h3.767l23.688-31.328v31.328h4.427V20.391h-3.929zm-12.066-2.601c5.202 0 9.299-3.321 9.299-8.579h-3.874c-.056 2.989-2.159 5.092-5.425 5.092-3.432 0-5.479-2.103-5.479-5.092h-3.874c.054 5.258 3.818 8.579 9.353 8.579M368.205 177.861v-3.542h-4.483v3.542c-13.285.277-19.207 8.358-19.207 16.771 0 8.357 5.922 16.439 19.207 16.661v4.04h4.483v-4.04c13.339-.222 19.261-8.304 19.261-16.716 0-8.469-5.923-16.438-19.261-16.716m-4.483 29.391c-10.517-.166-14.558-6.255-14.558-12.675 0-6.311 4.041-12.619 14.558-12.676v25.351zm4.483 0v-25.351c10.627.057 14.667 6.365 14.667 12.676 0 6.42-4.04 12.509-14.667 12.675m47.32-32.545c-11.125 0-19.538 8.634-19.538 20.035 0 11.402 8.413 20.036 19.538 20.036 11.181 0 19.594-8.634 19.594-20.036.001-11.401-8.412-20.035-19.594-20.035m0 35.865c-8.358 0-14.944-6.752-14.944-15.83 0-9.076 6.586-15.829 14.944-15.829 8.413 0 15 6.753 15 15.829 0 9.078-6.587 15.83-15 15.83m45.7-35.201h-16.327v38.744h4.484v-16.882h11.843c7.971 0 12.51-4.538 12.51-11.014-.001-6.365-4.54-10.848-12.51-10.848m-.331 17.767h-11.512v-13.671h11.512c5.314 0 8.358 2.38 8.358 6.864 0 4.427-3.044 6.807-8.358 6.807m35.361 5.313l-12.785-23.08h-4.982l15.497 27.785c-2.159 4.262-3.874 7.416-7.692 7.416-1.219 0-2.878-.166-4.263-.773v4.206c1.494.608 3.155.773 4.982.773 3.597 0 7.14-1.936 10.35-8.854l14.28-30.553h-4.76l-10.627 23.08zm55.407-23.08l-13.727 18.486-13.726-18.486h-4.429v38.744h4.429v-31.937l12.397 16.494h2.712l12.288-16.494v31.937h4.427v-38.744h-4.371zm-200.908-46.272V97.881h-4.428v38.744h3.764l23.689-31.328v31.328h4.428V97.881h-3.93l-23.523 31.218zm66.048-15.278H394.33v-15.94h-4.484v38.744h4.484v-18.708h22.472v18.708h4.483V97.881h-4.483v15.94zm39.091 1.661c3.044-1.162 5.147-3.985 5.147-8.192 0-5.922-4.317-9.409-11.181-9.409h-16.936v38.744h18.597c8.025 0 12.786-4.372 12.786-10.793 0-5.811-3.432-9.519-8.413-10.35m-18.488-13.504h11.679c4.76 0 7.472 2.103 7.472 6.143 0 3.875-2.712 5.978-7.472 5.978h-11.679v-12.121zm13.284 30.551h-13.284v-14.446h13.284c5.59 0 8.8 2.49 8.8 7.141 0 4.705-3.21 7.305-8.8 7.305m27.524-14.612h18.21v-4.096h-18.21v-11.844h22.251v-4.096h-26.735v38.744h27.565v-4.096h-23.081v-14.612zm32.858-.664c0-9.132 6.753-15.83 15.444-15.83 4.315 0 7.637 1.162 10.737 3.21v-4.594c-3.101-1.937-6.644-2.823-10.794-2.823-11.347 0-19.98 8.358-19.98 20.037 0 11.789 8.689 20.036 19.98 20.036 4.539 0 8.523-1.162 11.625-3.376v-4.594c-3.212 2.546-6.977 3.764-11.403 3.764-8.799 0-15.609-6.587-15.609-15.83m33.75-15.275h13.23v34.647h4.539v-34.647h13.339v-4.096h-31.108v4.096zm43.903 27.121V97.881h-4.428v38.744h3.765l23.688-31.328v31.328h4.43V97.881h-3.932l-23.523 31.218zm69.422-31.218h-4.538v34.648h-21.31V97.881h-4.483v38.744h31.937v8.579h4.151v-12.675h-5.757V97.881zm18.508 31.218V97.881h-4.428v38.744h3.763l23.69-31.328v31.328h4.426V97.881h-3.929l-23.522 31.218zm56.693-31.883c-11.126 0-19.538 8.635-19.538 20.037s8.412 20.036 19.538 20.036c11.18 0 19.592-8.634 19.592-20.036-.001-11.401-8.413-20.037-19.592-20.037m0 35.867c-8.358 0-14.945-6.753-14.945-15.83 0-9.078 6.587-15.83 14.945-15.83 8.414 0 15 6.752 15 15.83 0 9.077-6.586 15.83-15 15.83m56.327-19.262h-22.473v-15.94h-4.482v38.744h4.482v-18.708h22.473v18.708h4.482V97.881h-4.482v15.94zm43.075 0h-22.472v-15.94h-4.482v38.744h4.482v-18.708h22.472v18.708h4.483V97.881h-4.483v15.94zm50.272 22.804h4.483V97.881h-4.483v38.744zm-19.815-24.519h-9.853V97.881h-4.484v38.744h14.337c8.91 0 14.06-5.036 14.06-12.231 0-7.141-5.15-12.288-14.06-12.288m-.275 20.423h-9.577v-16.328h9.577c6.254 0 9.796 2.935 9.796 8.192 0 5.203-3.542 8.136-9.796 8.136m52.131-37.25c5.202 0 9.298-3.321 9.298-8.579h-3.875c-.054 2.989-2.159 5.092-5.423 5.092-3.432 0-5.48-2.103-5.48-5.092h-3.875c.056 5.258 3.818 8.579 9.355 8.579m12.066 2.602l-23.523 31.217V97.881h-4.429v38.744h3.764l23.69-31.328v31.328h4.428V97.881h-3.93zM305.95 20.391h3.262v193.724h-3.262zM8.565 193.722c0-7.808 5.885-13.343 13.576-13.343 4.545 0 7.75 1.164 10.722 3.146v-8.448c-3.147-1.689-6.76-2.564-10.78-2.564C9.439 172.512 0 181.253 0 193.722s9.556 21.209 22.083 21.209c4.254 0 8.391-1.049 11.595-2.972v-8.448c-3.263 2.563-7.05 3.554-11.187 3.554-7.924-.001-13.926-5.477-13.926-13.343m52.981-21.21c-12.236 0-21.151 9.44-21.151 21.21 0 11.711 8.915 21.209 21.151 21.209s21.151-9.498 21.151-21.209c0-11.77-8.915-21.21-21.151-21.21m0 34.552c-7.167 0-12.586-5.651-12.586-13.343s5.419-13.343 12.586-13.343 12.586 5.651 12.586 13.343-5.419 13.343-12.586 13.343m51.972-16.896c-2.389 1.165-5.127 1.747-8.099 1.747-4.953 0-7.808-1.631-7.808-6.934v-11.653h-8.39v13.052c0 8.915 5.593 13.285 15.091 13.285 3.146 0 6.41-.524 9.206-1.457v15.907h8.332v-40.787h-8.332v16.84zm47.498-16.84l-19.752 26.569v-26.569h-8.392v40.787h7.051l19.986-26.744v26.744h8.332v-40.787h-7.225z"/><path clip-path="url(#b)" fill="#ED1C24" d="M189.772 165.584v13.607L201.489 174v40.115h14.501v-55.061h-12.78l-13.438 6.53zm37.197-6.529v12.349h25.317l-22.121 42.712h15.648l23.023-44.049v-11.012h-41.867z"/><path clip-path="url(#b)" fill="#9FDDF9" d="M43.622 63.932l36.381-21.005 34.834 12.678 52.684-30.415 61.734 22.469 27.187-15.697 12.395 4.512V22.058L231.078 8.315l-30.306 17.497-41.448-15.087-21.793 12.583L73.489-.001 1.097 41.795l-.001 28.174 22.857-13.197z"/><defs><path id="c" d="M206.003 114.113l-62.085-22.597-63.715 36.786-51.399-18.707-27.712 16.001.004 29.382 41.082-23.72 41.469 15.095 67.827-39.16 54.081 19.683 63.282-36.536V77.836z"/></defs><clipPath id="d"><use xlink:href="#c" overflow="visible"/></clipPath><linearGradient id="e" gradientUnits="userSpaceOnUse" y1="215.333" x2="1" y2="215.333" gradientTransform="matrix(267.7456 0 0 -267.7456 1.125 57770.797)"><stop offset="0" stop-color="#ffd400"/><stop offset=".005" stop-color="#ffd200"/><stop offset=".106" stop-color="#fbae18"/><stop offset=".212" stop-color="#f78f1e"/><stop offset=".322" stop-color="#f47521"/><stop offset=".435" stop-color="#f15c22"/><stop offset=".555" stop-color="#ef4523"/><stop offset=".681" stop-color="#ee3224"/><stop offset=".821" stop-color="#ed2224"/><stop offset="1" stop-color="#ed1c24"/></linearGradient><path clip-path="url(#d)" fill="url(#e)" d="M1.092 77.836h267.745v77.142H1.092z"/><defs><path id="f" d="M0 0h931.057v215.333H0z"/></defs><clipPath id="g"><use xlink:href="#f" overflow="visible"/></clipPath><path clip-path="url(#g)" fill="#0072BC" d="M213.965 92.688l-83.464-30.377-34.173 20.805-72.376-26.345L1.094 69.97l-.002 55.626 27.711-16.001 51.4 18.708 63.716-36.786 62.084 22.595 62.835-36.277V61.008zM1.092 128.989l-.001 12.369.003-.001z"/><path clip-path="url(#g)" fill="#00C0F3" d="M256.443 31.962l-27.187 15.697-61.735-22.469-52.683 30.415-34.834-12.679-36.382 21.007 52.706 19.182 34.173-20.804 83.464 30.377 54.873-31.68V36.475z"/></svg>