<?xml version="1.0" encoding="utf-8"?>
<!-- Generated by IcoMoon.io -->
<!DOCTYPE svg PUBLIC "-//W3C//DTD SVG 1.1//EN" "http://www.w3.org/Graphics/SVG/1.1/DTD/svg11.dtd">
<svg version="1.1" xmlns="http://www.w3.org/2000/svg" xmlns:xlink="http://www.w3.org/1999/xlink" width="32" height="32" viewBox="0 0 32 32">
<path d="M23.456 22.112c-0.128-0.416-0.352-0.768-0.672-1.056l-3.712-4.16 1.12-6.048c0.128-1.088-0.032-1.952-0.544-2.56-0.448-0.544-1.12-0.896-2.016-0.96-1.216-0.128-2.272 0.768-2.4 1.952l-0.992 7.68c-0.064 0.672 0.384 1.792 0.928 2.272l4.192 4.672 2.048 4.416c0 0.064 0.576 1.536 2.176 1.536 0.16 0 0.32 0 0.48-0.032 0.448-0.096 0.8-0.288 1.024-0.64 0.352-0.576 0.16-1.344-0.032-2.016l-1.6-5.056zM24.128 28.608c-0.032 0.064-0.192 0.096-0.256 0.128-1.024 0.192-1.408-0.768-1.44-0.864l-2.080-4.48c-0.032-0.064-0.064-0.096-0.096-0.16l-4.288-4.768c-0.032 0-0.032-0.032-0.064-0.032-0.256-0.256-0.576-1.024-0.544-1.344l0.96-7.68c0.064-0.576 0.544-0.992 1.12-0.992 0.032 0 0.064 0 0.096 0 0.576 0.064 1.024 0.256 1.248 0.576 0.32 0.352 0.416 0.928 0.32 1.664l-1.152 6.304c-0.032 0.192 0 0.352 0.128 0.48l3.904 4.384c0.032 0 0.032 0.032 0.064 0.032 0.16 0.16 0.256 0.32 0.32 0.576l1.568 4.864 0.064 0.16c0.096 0.384 0.256 0.96 0.128 1.152zM17.088 22.72l-0.992 1.856c0 0.032-0.032 0.064-0.032 0.064l-3.168 3.968c-0.352 0.448-1.12 1.088-1.952 1.088-0.32 0-0.672-0.064-0.992-0.32-1.024-0.736-0.896-1.76-0.48-2.432l3.36-4.512 0.832-2.304c0.128-0.288 0.448-0.448 0.736-0.352s0.416 0.448 0.32 0.736l-0.864 2.368c-0.032 0.064-0.064 0.096-0.096 0.16l-3.392 4.512c-0.192 0.352-0.128 0.672 0.256 0.928 0.576 0.448 1.408-0.544 1.408-0.576l3.136-3.904 0.96-1.792c0.128-0.256 0.48-0.352 0.736-0.224 0.256 0.16 0.384 0.48 0.224 0.736zM25.6 17.344c-0.352 0.416-0.8 0.576-1.216 0.576-0.448 0-0.864-0.192-1.152-0.416l-3.008-2.176c-0.224-0.16-0.288-0.512-0.128-0.768 0.192-0.256 0.544-0.32 0.8-0.128l3.008 2.208c0.16 0.128 0.544 0.352 0.864-0.032 0.096-0.096 0.096-0.16 0.064-0.16 0-0.192-0.256-0.48-0.736-0.864l-3.488-3.296c-0.224-0.192-0.224-0.544-0.032-0.768 0.224-0.224 0.576-0.224 0.8-0.032l0.64 0.64 2.816 2.624c0.544 0.448 1.056 0.96 1.12 1.6 0.032 0.224-0.032 0.608-0.352 0.992zM18.976 6.688c0.512 0 0.992-0.096 1.408-0.352 1.504-0.832 2.016-2.848 1.12-4.48-0.64-1.152-1.76-1.856-2.976-1.856-0.512 0-0.992 0.128-1.408 0.352-1.504 0.832-2.016 2.848-1.12 4.48 0.64 1.152 1.76 1.856 2.976 1.856zM17.632 1.312c0.288-0.128 0.576-0.192 0.896-0.192 0.8 0 1.568 0.48 1.984 1.248 0.608 1.12 0.32 2.464-0.672 3.008-0.256 0.128-0.544 0.224-0.864 0.224-0.8 0-1.568-0.512-2.016-1.28-0.608-1.12-0.288-2.464 0.672-3.008zM10.208 17.792c1.408 0 2.624-1.056 2.816-2.464l0.928-6.56c0.096-0.736-0.096-1.472-0.544-2.048s-1.088-0.96-1.856-1.056c-1.536-0.192-2.88 0.896-3.040 2.432-0.096 1.184-0.64 2.208-0.96 2.4-0.8 0.512-1.376 2.048-1.504 3.232l-0.096 0.832c-0.064 0.736 0.128 1.472 0.608 2.048s1.12 0.928 1.856 1.024l1.504 0.128c0.096 0.032 0.192 0.032 0.288 0.032zM7.424 15.904c-0.288-0.352-0.416-0.768-0.352-1.216l0.096-0.832c0.128-1.184 0.64-2.208 0.96-2.4 0.8-0.512 1.376-2.048 1.504-3.264 0.064-0.832 0.768-1.44 1.568-1.44 0.064 0 0.16 0 0.256 0 0.416 0.064 0.8 0.288 1.088 0.64 0.256 0.352 0.384 0.768 0.32 1.216l-0.928 6.592c-0.128 0.896-0.992 1.568-1.888 1.472l-1.504-0.16c-0.448-0.032-0.832-0.256-1.12-0.608z"></path>
</svg>
