<?xml version="1.0" encoding="utf-8"?>
<!-- Generated by IcoMoon.io -->
<!DOCTYPE svg PUBLIC "-//W3C//DTD SVG 1.1//EN" "http://www.w3.org/Graphics/SVG/1.1/DTD/svg11.dtd">
<svg version="1.1" xmlns="http://www.w3.org/2000/svg" xmlns:xlink="http://www.w3.org/1999/xlink" width="32" height="32" viewBox="0 0 32 32">
<path d="M17.564 32h-3.128c-0.699 0-1.268-0.569-1.268-1.268v-3.901l-5.67-9.178c-0.002-0.003-0.003-0.005-0.005-0.008-1.482-1.859-2.369-4.212-2.369-6.769 0-5.994 4.874-10.871 10.867-10.876l0.009-0 0.009 0c5.993 0.005 10.867 4.882 10.867 10.876 0 2.557-0.887 4.91-2.369 6.769-0.002 0.003-0.003 0.006-0.005 0.008l-5.67 9.178v3.901c-0 0.699-0.569 1.268-1.268 1.268zM13.94 27.108v3.624c0 0.273 0.222 0.496 0.496 0.496h3.128c0.273 0 0.496-0.222 0.496-0.496v-3.624h-4.12zM15.099 26.335h1.751v-4.616c-0.277 0.022-0.558 0.033-0.841 0.033-0.003 0-0.006 0-0.009 0h-0c-0.003 0-0.006-0-0.009-0-0.3-0-0.598-0.013-0.892-0.037v4.62zM19.968 21.003l-1.572 5.066 3.917-6.34c-0.721 0.516-1.508 0.946-2.345 1.275zM9.687 19.728l3.869 6.263-1.525-4.989c-0.837-0.329-1.623-0.759-2.344-1.274zM17.622 21.631v4.323l1.44-4.641c-0.468 0.137-0.949 0.244-1.44 0.318zM12.934 21.312l1.393 4.554v-4.243c-0.475-0.074-0.94-0.178-1.393-0.311zM16.002 0.791c-0.605 0.221-4.096 1.856-4.096 10.085 0 7.225 3.319 9.597 4.092 10.051 0.771-0.459 4.096-2.859 4.096-10.051 0-8.279-3.481-9.871-4.092-10.085zM20.146 1.663c0.055 0.037 0.109 0.075 0.164 0.113 1.939 1.369 4.25 4.059 4.25 9.1 0 4.539-2.305 7.254-4.238 8.732-0.49 0.375-0.979 0.69-1.44 0.953 4.172-1.243 7.223-5.115 7.223-9.685-0-4.095-2.448-7.628-5.958-9.213zM11.854 1.663c-3.51 1.585-5.958 5.119-5.958 9.214 0 4.57 3.051 8.442 7.223 9.685-0.462-0.263-0.95-0.578-1.44-0.953-1.934-1.478-4.238-4.193-4.238-8.732 0-5.042 2.311-7.731 4.25-9.1 0.055-0.039 0.109-0.076 0.164-0.113zM18.252 1.489c1.265 1.421 2.614 4.161 2.614 9.387 0 4.888-1.448 7.689-2.739 9.215 0.547-0.287 1.149-0.654 1.747-1.113 2.596-1.995 3.913-4.721 3.913-8.101 0-3.768-1.311-6.612-3.897-8.45-0.559-0.398-1.121-0.703-1.638-0.937zM13.748 1.489c-0.517 0.234-1.079 0.539-1.638 0.937-2.585 1.839-3.897 4.682-3.897 8.451 0 3.381 1.316 6.106 3.913 8.101 0.598 0.46 1.2 0.826 1.747 1.113-1.291-1.526-2.739-4.327-2.739-9.215 0-5.227 1.349-7.967 2.614-9.387z"></path>
</svg>
