<?xml version="1.0" encoding="utf-8"?>
<!-- Generated by IcoMoon.io -->
<!DOCTYPE svg PUBLIC "-//W3C//DTD SVG 1.1//EN" "http://www.w3.org/Graphics/SVG/1.1/DTD/svg11.dtd">
<svg version="1.1" xmlns="http://www.w3.org/2000/svg" xmlns:xlink="http://www.w3.org/1999/xlink" width="32" height="32" viewBox="0 0 32 32">
<path d="M26.278 25.271c-3.155 0-5.722-2.567-5.722-5.722 0-2.146 1.188-4.020 2.94-4.999-0.026-0.377-0.025-0.643-0.023-0.734l-0.144-1.138-7.063 6.474c0.161 0.274 0.253 0.592 0.253 0.932 0 0.884-0.625 1.625-1.457 1.804v0.926h0.5c0.215 0 0.389 0.174 0.389 0.389s-0.174 0.389-0.389 0.389h-1.669c-0.215 0-0.389-0.174-0.389-0.389s0.174-0.389 0.389-0.389h0.391v-0.926c-0.745-0.16-1.324-0.771-1.437-1.532l-1.449-0.093c-0.353 2.819-2.764 5.008-5.678 5.008-3.155 0-5.722-2.567-5.722-5.722s2.567-5.722 5.722-5.722c1.183 0 2.283 0.361 3.196 0.978l2.278-2.912-0.245-0.643c-0.034-0.005-0.067-0.011-0.099-0.017-0.821-0.159-1.448-0.544-1.916-1.177v0c-0.34-0.459-0.434-0.875-0.281-1.235 0.152-0.359 0.475-0.588 0.884-0.628 0.624-0.060 1.337 0.306 1.737 0.893 0.175 0.257 1.044 0.354 1.619 0.419 0.89 0.1 1.658 0.185 1.658 0.823 0 1.011-1.105 1.014-1.698 1.015l-0.093 0c-0.121 0-0.52 0.001-0.95-0.018l0.094 0.246h11.284l-0.006-0.047c-0.001-0.006-0.001-0.011-0.002-0.017l-0.196-2.388c-0.005-0.035-0.165-1.188-1.585-1.398-0.864-0.128-1.526-0.218-1.527-0.218-0.213-0.029-0.362-0.225-0.333-0.437s0.225-0.362 0.437-0.333c0 0 0.666 0.090 1.537 0.22 1.619 0.24 2.176 1.474 2.244 2.092l0.196 2.39 0.292 2.312c0.003 0.020 0.003 0.040 0.003 0.060-0 0.005-0.003 0.149 0.006 0.389 0.629-0.238 1.31-0.369 2.022-0.369 3.155 0 5.722 2.567 5.722 5.722s-2.567 5.722-5.722 5.722zM23.588 15.401c-1.356 0.883-2.255 2.412-2.255 4.147 0 2.727 2.218 4.945 4.945 4.945s4.945-2.218 4.945-4.945c0-2.727-2.218-4.945-4.945-4.945-0.694 0-1.356 0.144-1.956 0.404 0.083 0.702 0.262 1.613 0.642 2.461 0.735 1.639 1.509 2.138 1.517 2.142 0.181 0.113 0.238 0.351 0.127 0.533s-0.346 0.241-0.529 0.132c-0.040-0.023-0.977-0.599-1.825-2.49-0.367-0.819-0.562-1.675-0.666-2.385zM5.722 14.604c-2.727 0-4.945 2.218-4.945 4.945s2.218 4.945 4.945 4.945c2.501 0 4.575-1.867 4.9-4.281l-4.918-0.316c-0.144-0.009-0.271-0.097-0.33-0.229s-0.040-0.285 0.049-0.398l3.015-3.852c-0.78-0.515-1.713-0.814-2.716-0.814zM13.606 20.047c-0 0.012-0.001 0.025-0.001 0.037 0 0.452 0.282 0.839 0.68 0.995v-0.995c0-0.215 0.174-0.389 0.389-0.389s0.389 0.174 0.389 0.389v0.995c0.397-0.156 0.68-0.543 0.68-0.995 0-0.268-0.099-0.514-0.263-0.702-0.006-0.006-0.013-0.012-0.019-0.019-0.080-0.088-0.172-0.16-0.272-0.215-0.153-0.084-0.328-0.132-0.515-0.132-0.001-0-0.002-0-0.003 0h-0c-0.125 0-0.249 0.023-0.37 0.069-0 0-0.001 0-0.001 0-0.393 0.147-0.664 0.512-0.69 0.93-0.001 0.011-0.002 0.021-0.004 0.032zM11.444 19.487l1.455 0.094c0.124-0.438 0.406-0.809 0.78-1.050l-2.162-5.786-1.986 2.537c1.159 1.036 1.895 2.536 1.913 4.205zM6.489 19.169l4.177 0.268c-0.031-1.401-0.648-2.66-1.615-3.542zM14.682 18.239c0.394 0.002 0.76 0.127 1.059 0.34l6.797-6.231h-10.34l2.209 5.91c0.085-0.012 0.172-0.019 0.26-0.019 0-0 0.002 0 0.002 0s0.002-0 0.003 0h0.003c0.001 0 0.004 0 0.003 0h0.004zM9.561 9.594c0.352 0.476 0.81 0.754 1.439 0.876 0.366 0.071 1.146 0.1 1.757 0.097l0.096-0c0.602-0.001 0.824-0.047 0.894-0.14-0.201-0.066-0.635-0.115-0.938-0.149-0.884-0.099-1.798-0.201-2.175-0.753-0.263-0.386-0.724-0.587-1.019-0.558-0.165 0.016-0.218 0.093-0.246 0.159-0.026 0.062 0.008 0.222 0.191 0.469v0z"></path>
</svg>
