<?xml version="1.0" encoding="utf-8"?>
<!-- Generated by IcoMoon.io -->
<!DOCTYPE svg PUBLIC "-//W3C//DTD SVG 1.1//EN" "http://www.w3.org/Graphics/SVG/1.1/DTD/svg11.dtd">
<svg version="1.1" xmlns="http://www.w3.org/2000/svg" xmlns:xlink="http://www.w3.org/1999/xlink" width="32" height="32" viewBox="0 0 32 32">
<path d="M30.368 28.576h-1.632v-2.752c1.024-0.256 1.888-1.28 1.888-2.464 0-2.24-1.856-4.736-1.952-4.864s-0.256-0.224-0.448-0.192c-0.192 0-0.352 0.064-0.448 0.224-0.064 0.128-1.92 2.848-1.92 4.832 0.032 0.992 0.704 2.080 1.76 2.432v2.784h-2.208v-9.408c0.288 0 0.544-0.256 0.544-0.544 0-0.32-0.256-0.576-0.544-0.576v-13.824c0-0.832-0.64-1.696-1.44-1.952l-6.752-2.112c-0.672-0.224-1.76-0.224-2.432 0l-6.752 2.112c-0.8 0.256-1.44 1.12-1.44 1.952v13.824c-0.288 0-0.544 0.256-0.544 0.576 0 0.288 0.256 0.544 0.544 0.544v9.408h-2.208v-2.784c1.024-0.288 1.824-1.28 1.824-2.432 0-2.24-1.856-4.736-1.952-4.864s-0.256-0.224-0.448-0.192c-0.192 0-0.352 0.064-0.448 0.224-0.064 0.128-1.92 2.848-1.92 4.832 0.032 1.024 0.736 2.144 1.856 2.464v2.752h-1.664c-0.32 0-0.576 0.224-0.576 0.544s0.256 0.544 0.576 0.544h28.736c0.32 0 0.576-0.224 0.576-0.544s-0.256-0.544-0.576-0.544zM2.56 23.36c0-1.056 0.736-2.528 1.28-3.488 0.512 0.8 1.248 2.24 1.248 3.488 0 0.736-0.608 1.408-1.248 1.408-0.704 0-1.28-0.768-1.28-1.408zM15.456 28.576h-2.784v-4.992h2.784v4.992zM19.328 28.576h-2.784v-4.992h2.784v4.992zM24.288 28.576h-3.872v-4.992h1.12c0.288 0 0.544-0.256 0.544-0.544 0-0.32-0.256-0.576-0.544-0.576h-11.072c-0.288 0-0.544 0.256-0.544 0.576 0 0.288 0.256 0.544 0.544 0.544h1.12v4.992h-3.872v-9.408h3.296v0.544c0 0.32 0.256 0.544 0.576 0.544h8.832c0.32 0 0.576-0.224 0.576-0.544v-0.544h3.296v9.408zM12.128 19.168v-1.12h7.744v1.12h-7.744zM24.288 18.048h-3.296v-0.544c0-0.32-0.256-0.544-0.576-0.544h-8.832c-0.32 0-0.576 0.224-0.576 0.544v0.544h-3.296v-13.824c0-0.352 0.32-0.8 0.672-0.896l6.72-2.112c0.48-0.16 1.312-0.16 1.792 0l6.72 2.112c0.352 0.096 0.672 0.544 0.672 0.896v13.824zM26.976 23.36c0-1.056 0.704-2.528 1.28-3.488 0.512 0.8 1.248 2.24 1.248 3.488 0 0.736-0.608 1.408-1.248 1.408-0.704 0-1.28-0.768-1.28-1.408zM22.080 7.008h-2.208c-0.288 0-0.544 0.224-0.544 0.544v2.208c0 0.32 0.224 0.544 0.544 0.544s0.544-0.224 0.544-0.544v-1.664h1.664c0.32 0 0.576-0.256 0.576-0.544s-0.256-0.544-0.576-0.544zM12.128 7.008h-2.208c-0.32 0-0.544 0.224-0.544 0.544v2.208c0 0.32 0.224 0.544 0.544 0.544 0.288 0 0.544-0.224 0.544-0.544v-1.664h1.664c0.32 0 0.544-0.256 0.544-0.544s-0.224-0.544-0.544-0.544zM12.128 11.968h-2.208c-0.32 0-0.544 0.256-0.544 0.544v2.24c0 0.288 0.224 0.544 0.544 0.544 0.288 0 0.544-0.256 0.544-0.544v-1.664h1.664c0.32 0 0.544-0.256 0.544-0.576 0-0.288-0.224-0.544-0.544-0.544zM17.12 7.008h-2.24c-0.288 0-0.544 0.224-0.544 0.544v2.208c0 0.32 0.256 0.544 0.544 0.544 0.32 0 0.576-0.224 0.576-0.544v-1.664h1.664c0.288 0 0.544-0.256 0.544-0.544s-0.256-0.544-0.544-0.544zM17.12 11.968h-2.24c-0.288 0-0.544 0.256-0.544 0.544v2.24c0 0.288 0.256 0.544 0.544 0.544 0.32 0 0.576-0.256 0.576-0.544v-1.664h1.664c0.288 0 0.544-0.256 0.544-0.576 0-0.288-0.256-0.544-0.544-0.544zM22.080 11.968h-2.208c-0.288 0-0.544 0.256-0.544 0.544v2.24c0 0.288 0.224 0.544 0.544 0.544s0.544-0.256 0.544-0.544v-1.664h1.664c0.32 0 0.576-0.256 0.576-0.576-0.032-0.288-0.256-0.544-0.576-0.544z"></path>
</svg>
