<?xml version="1.0" encoding="utf-8"?>
<!-- Generated by IcoMoon.io -->
<!DOCTYPE svg PUBLIC "-//W3C//DTD SVG 1.1//EN" "http://www.w3.org/Graphics/SVG/1.1/DTD/svg11.dtd">
<svg version="1.1" xmlns="http://www.w3.org/2000/svg" xmlns:xlink="http://www.w3.org/1999/xlink" width="32" height="32" viewBox="0 0 32 32">
<path d="M26.016 17.664l-4.928-4.096c-0.576-0.48-1.6-0.864-2.336-0.864h-5.536c-0.704 0-1.728 0.384-2.304 0.864l-4.928 4.096c-0.608 0.512-1.056 1.472-1.056 2.24v8.32c0 0.896 0.736 1.632 1.664 1.632h6.080c0.32 0 0.576-0.224 0.576-0.544v-6.080c0-1.536 1.216-2.784 2.752-2.784s2.752 1.248 2.752 2.784v6.080c0 0.32 0.256 0.544 0.576 0.544h6.080c0.896 0 1.664-0.736 1.664-1.632v-8.32c0-0.768-0.48-1.728-1.056-2.24zM25.952 28.224c0 0.288-0.256 0.544-0.544 0.544h-5.536v-5.536c0-2.144-1.728-3.872-3.872-3.872s-3.872 1.728-3.872 3.872v5.536h-5.536c-0.288 0-0.544-0.256-0.544-0.544v-8.32c0-0.448 0.288-1.088 0.64-1.376l4.928-4.128c0.384-0.288 1.12-0.576 1.6-0.576h5.536c0.48 0 1.248 0.288 1.6 0.576l4.96 4.128c0.32 0.288 0.64 0.928 0.64 1.376v8.32zM12.128 12.16h7.744c0.128 0 0.288-0.064 0.384-0.16 0.064-0.064 0.704-0.736 0.704-2.048 0-2.368-3.040-4.064-4.416-4.768v-2.432h1.12c0.288 0 0.544-0.224 0.544-0.544 0-0.288-0.256-0.544-0.544-0.544h-1.12v-1.12c0-0.288-0.256-0.544-0.544-0.544-0.32 0-0.544 0.256-0.544 0.544v1.12h-1.12c-0.32 0-0.544 0.256-0.544 0.544 0 0.32 0.224 0.544 0.544 0.544h1.12v2.432c-1.408 0.704-4.448 2.4-4.448 4.768 0 1.312 0.64 1.984 0.736 2.048 0.096 0.096 0.224 0.16 0.384 0.16zM16 6.144c2.56 1.312 3.872 2.592 3.872 3.808 0 0.544-0.16 0.928-0.288 1.12h-7.168c-0.128-0.192-0.288-0.576-0.288-1.12 0-1.216 1.312-2.496 3.872-3.808z"></path>
</svg>
