<?xml version="1.0" encoding="utf-8"?>
<!-- Generated by IcoMoon.io -->
<!DOCTYPE svg PUBLIC "-//W3C//DTD SVG 1.1//EN" "http://www.w3.org/Graphics/SVG/1.1/DTD/svg11.dtd">
<svg version="1.1" xmlns="http://www.w3.org/2000/svg" xmlns:xlink="http://www.w3.org/1999/xlink" width="32" height="32" viewBox="0 0 32 32">
<path d="M17.088 27.104h-1.632c-0.32 0-0.544 0.256-0.544 0.544 0 0.32 0.224 0.544 0.544 0.544h1.632c0.32 0 0.544-0.224 0.544-0.544 0-0.288-0.224-0.544-0.544-0.544zM14.88 22.272c-0.16-0.064-0.352-0.064-0.512 0.032-0.48-0.48-0.448-0.864-0.384-1.248 0-0.032 0-0.064 0-0.096 0.256-0.224 0.512-0.544 0.736-0.928 0.096-0.128 0.16-0.256 0.224-0.384 0.256-0.384 0.512-0.768 0.736-1.312 0.224-0.096 0.416-0.32 0.544-0.544 0.448-0.8 0.8-2.24 0.576-2.88-0.096-0.224-0.256-0.416-0.448-0.512-0.032-2.56-1.184-4.512-3.136-5.28-0.384-0.16-1.024-0.416-1.888-0.672-0.288-0.064-0.448-0.192-0.512-0.224-0.032-0.128-0.096-0.256-0.192-0.32-0.128-0.096-0.288-0.128-0.448-0.096-0.416 0.096-0.768 0.64-0.864 0.928-0.032 0.096-0.064 0.192-0.096 0.288-0.544 0.096-1.28 0.416-1.472 1.152-0.032 0.064-0.032 0.16-0.032 0.224-0.704 0.768-1.344 2.048-1.344 3.968-0.256 0.096-0.416 0.288-0.512 0.544-0.224 0.64 0.128 2.080 0.544 2.88 0.16 0.256 0.384 0.448 0.608 0.576 0.224 0.512 0.48 0.896 0.704 1.28 0.096 0.128 0.16 0.224 0.224 0.352 0.288 0.416 0.544 0.768 0.832 0.992 0 0.032 0 0.032 0 0.032 0.032 0.48 0.064 0.928-0.224 1.28-0.16-0.096-0.32-0.096-0.448-0.032-1.408 0.544-5.984 2.944-6.432 4.576-0.288 1.12-0.384 1.664-0.384 1.664-0.032 0.064-0.032 0.096-0.032 0.128 0 0.608 0.32 0.896 0.576 1.056 0.288 0.128 0.64 0.16 0.96 0.16h16.544c0.128 0 0.224 0 0.352 0s0.224 0 0.352 0c1.12 0 1.376-0.64 1.376-1.152 0-0.448-0.032-0.704-0.416-1.888-0.416-1.344-4.192-3.712-6.112-4.544zM14.72 23.392c0.032 0.032 0.096 0.064 0.128 0.064l-1.504 2.528-1.12-0.96 2.496-1.632zM8.64 19.072c-0.256-0.416-0.48-0.768-0.704-1.344-0.064-0.192-0.224-0.32-0.448-0.32-0.032 0-0.096 0-0.096-0.032-0.384-0.672-0.512-1.824-0.512-1.824v0c0.16 0 0.32-0.128 0.416-0.256 0.096-0.096 0.16-0.352 0.16-0.512-0.064-1.76 0.416-3.168 1.44-4.032 0.16-0.128 0.224-0.352 0.16-0.544 0.288-0.128 0.736-0.128 0.736-0.128l0.032-0.544 0.448-0.32c0.032 0.032 0.032 0.064 0.032 0.064 0-0.032 0-0.032 0-0.064 0.224 0.128 0.48 0.224 0.704 0.288 0.832 0.224 1.408 0.48 1.792 0.64 1.632 0.64 2.528 2.336 2.432 4.64 0 0.16 0.064 0.288 0.16 0.416 0.096 0.096 0.224 0.16 0.384 0.16 0 0.352-0.16 1.248-0.512 1.92-0.032 0.032-0.064 0.096-0.096 0.096-0.192 0.032-0.352 0.16-0.416 0.352-0.224 0.544-0.448 0.896-0.736 1.344-0.064 0.128-0.16 0.256-0.224 0.384-0.224 0.384-0.448 0.64-0.672 0.8-0.128 0.096-0.192 0.256-0.192 0.448 0 0.064-0.032 0.128-0.032 0.224-0.064 0.416-0.16 1.184 0.544 1.984l-2.112 1.376-1.888-1.376c0.544-0.704 0.48-1.536 0.416-1.984 0-0.064 0-0.128 0-0.192 0-0.192-0.096-0.352-0.256-0.448-0.256-0.192-0.48-0.448-0.704-0.832-0.096-0.16-0.16-0.256-0.256-0.384zM8.224 23.392l2.368 1.696-1.28 0.992-1.632-2.432c0.192-0.096 0.352-0.192 0.544-0.256zM20.288 28.736c-0.064 0.032-0.288 0.032-0.576 0.032-0.128 0-0.256 0-0.384 0h-16c-0.096 0-0.192 0-0.288 0h-0.256c-0.32 0-0.416-0.032-0.416-0.032s0 0 0-0.064c0.032-0.16 0.16-0.672 0.384-1.536 0.16-0.64 2.080-1.984 3.936-3.008l2.048 3.072c0.096 0.128 0.224 0.224 0.384 0.224 0.032 0.032 0.064 0.032 0.064 0.032 0.128 0 0.256-0.064 0.352-0.128l1.92-1.536 1.632 1.472c0.128 0.096 0.288 0.16 0.448 0.128s0.32-0.128 0.384-0.256l1.92-3.168c1.952 1.12 3.936 2.656 4.096 3.168 0.352 1.184 0.352 1.28 0.352 1.568 0 0 0 0.032 0 0.032zM23.68 0c-3.776 0-6.88 2.592-6.912 5.792 0 1.984 0.736 3.392 2.432 4.608-0.032 0.416-0.256 1.088-1.184 1.952l-0.064 0.064c-0.16 0.16-0.224 0.416-0.128 0.64 0.096 0.192 0.288 0.32 0.512 0.32 0 0 0.032 0 0.032 0 1.856-0.16 3.744-1.44 4.224-1.792l0.032 0.032c0.288 0.032 0.864 0.096 1.056 0.096 3.808 0 6.912-2.656 6.912-5.856s-3.104-5.856-6.912-5.856zM23.68 10.528c-0.192 0-0.832-0.064-0.96-0.064-0.064 0-0.128 0-0.192 0l-0.224 0.032c-0.096 0.032-0.192 0.064-0.256 0.128-0.032 0-1.024 0.768-2.208 1.248 0.352-0.608 0.512-1.184 0.448-1.76 0-0.032-0.032-0.096-0.032-0.128-0.032-0.064-0.064-0.192-0.288-0.384-0.032-0.032-0.032-0.032-0.064-0.064-1.44-0.992-2.048-2.112-2.016-3.712 0.032-2.592 2.624-4.736 5.792-4.736 3.2 0 5.824 2.112 5.824 4.736s-2.624 4.704-5.824 4.704zM21.504 5.12h-1.12c-0.288 0-0.544 0.256-0.544 0.544s0.256 0.544 0.544 0.544h1.12c0.288 0 0.544-0.224 0.544-0.544s-0.256-0.544-0.544-0.544zM26.976 5.12h-1.088c-0.288 0-0.544 0.256-0.544 0.544s0.256 0.544 0.544 0.544h1.088c0.32 0 0.576-0.224 0.576-0.544s-0.256-0.544-0.576-0.544zM24.256 5.12h-1.12c-0.288 0-0.544 0.256-0.544 0.544s0.256 0.544 0.544 0.544h1.12c0.288 0 0.544-0.224 0.544-0.544s-0.256-0.544-0.544-0.544z"></path>
</svg>
