<?xml version="1.0" encoding="utf-8"?>
<!-- Generated by IcoMoon.io -->
<!DOCTYPE svg PUBLIC "-//W3C//DTD SVG 1.1//EN" "http://www.w3.org/Graphics/SVG/1.1/DTD/svg11.dtd">
<svg version="1.1" xmlns="http://www.w3.org/2000/svg" xmlns:xlink="http://www.w3.org/1999/xlink" width="32" height="32" viewBox="0 0 32 32">
<path d="M12.944 32c-0.076 0-0.153-0.021-0.22-0.064l-3.418-2.152c-0.107-0.067-0.177-0.179-0.191-0.304s0.030-0.25 0.119-0.339l8.827-8.827c-0.902-2.244-0.38-4.852 1.342-6.574 2.225-2.225 5.76-2.363 8.147-0.412 0.34-0.68 0.583-1.489 0.599-2.421 0.059-3.504-2.693-5.644-5.275-6.151-0.3-0.059-0.582-0.096-0.846-0.116v3.477c0 0.138-0.069 0.267-0.184 0.344l-2.875 1.922c-0.096 0.064-0.213 0.084-0.323 0.059h-16.019c-0.229 0-0.414-0.185-0.414-0.414v-9.607c0-0.229 0.185-0.414 0.414-0.414h16.039c0.104-0.020 0.212-0.001 0.302 0.059l2.875 1.922c0.115 0.077 0.184 0.206 0.184 0.344v1.477c0.314 0.021 0.65 0.064 1.006 0.134 2.91 0.57 6.011 2.997 5.943 6.977-0.020 1.184-0.35 2.187-0.794 3.005 1.036 1.125 1.604 2.577 1.604 4.116 0 1.625-0.633 3.152-1.782 4.301-1.722 1.722-4.33 2.245-6.574 1.342l-1.843 1.843c-0.078 0.078-0.183 0.121-0.293 0.121h-1.471v1.471c0 0.11-0.044 0.215-0.121 0.293l-1.364 1.364c-0.078 0.078-0.183 0.121-0.293 0.121h-1.471v1.471c0 0.11-0.044 0.215-0.121 0.293l-1.217 1.217c-0.080 0.080-0.186 0.121-0.293 0.121zM10.187 29.36l2.699 1.699 0.862-0.862v-1.713c0-0.229 0.185-0.414 0.414-0.414h1.713l1.122-1.122v-1.713c0-0.229 0.185-0.414 0.414-0.414h1.713l1.92-1.92c0.122-0.123 0.308-0.156 0.466-0.083 1.988 0.913 4.363 0.487 5.91-1.060 1.941-1.941 2.043-5.036 0.305-7.098-0.284 0.4-0.585 0.739-0.866 1.018 0.237 0.551 0.13 1.216-0.319 1.666-0.285 0.285-0.665 0.442-1.068 0.442s-0.783-0.157-1.068-0.442c-0.589-0.589-0.589-1.547 0-2.136 0.285-0.285 0.665-0.442 1.068-0.442 0.309 0 0.604 0.092 0.853 0.263 0.261-0.267 0.54-0.592 0.8-0.974-2.062-1.771-5.183-1.68-7.136 0.274-1.547 1.547-1.973 3.922-1.060 5.91 0.072 0.157 0.039 0.343-0.084 0.466zM25.472 15.592c-0.182 0-0.354 0.071-0.482 0.2-0.266 0.266-0.266 0.699 0 0.965 0.129 0.129 0.3 0.2 0.482 0.2s0.354-0.071 0.483-0.2c0.127-0.127 0.193-0.292 0.199-0.459-0.259 0.202-0.437 0.312-0.467 0.33-0.195 0.118-0.45 0.056-0.569-0.139s-0.056-0.45 0.139-0.568v0c0.007-0.004 0.169-0.105 0.413-0.3-0.063-0.019-0.129-0.028-0.197-0.028zM3.041 9.614h15.587l2.571-1.718v-3.261c-0.42 0.027-0.78 0.1-1.084 0.193 0.032 0.127 0.049 0.26 0.049 0.397 0 0.886-0.721 1.607-1.607 1.607s-1.608-0.721-1.608-1.607c0-0.886 0.721-1.608 1.608-1.608 0.446 0 0.85 0.183 1.141 0.477 0.41-0.143 0.909-0.256 1.5-0.289v-1.251l-2.571-1.718h-15.587v8.779zM18.558 4.446c-0.43 0-0.779 0.349-0.779 0.779s0.35 0.779 0.779 0.779c0.43 0 0.779-0.349 0.779-0.779 0-0.021-0.001-0.041-0.003-0.061-0.329 0.19-0.488 0.357-0.492 0.362-0.155 0.168-0.417 0.179-0.585 0.024s-0.179-0.417-0.024-0.585c0.022-0.024 0.219-0.233 0.605-0.467-0.087-0.034-0.181-0.052-0.28-0.052zM5.797 8.475c-0.076 0-0.154-0.021-0.223-0.065-0.193-0.123-0.249-0.379-0.126-0.572l3.114-4.872h-2.765c-0.229 0-0.414-0.185-0.414-0.414s0.185-0.414 0.414-0.414h3.521c0.151 0 0.291 0.082 0.363 0.215s0.067 0.295-0.014 0.422l-3.521 5.509c-0.079 0.124-0.213 0.191-0.349 0.191zM11.928 8.475c-0.229 0-0.414-0.185-0.414-0.414v-5.509c0-0.229 0.185-0.414 0.414-0.414s0.414 0.185 0.414 0.414v5.509c0 0.229-0.185 0.414-0.414 0.414z"></path>
</svg>
