<?xml version="1.0" encoding="utf-8"?>
<!-- Generated by IcoMoon.io -->
<!DOCTYPE svg PUBLIC "-//W3C//DTD SVG 1.1//EN" "http://www.w3.org/Graphics/SVG/1.1/DTD/svg11.dtd">
<svg version="1.1" xmlns="http://www.w3.org/2000/svg" xmlns:xlink="http://www.w3.org/1999/xlink" width="32" height="32" viewBox="0 0 32 32">
<path d="M31.564 27.864c-0.022 0-0.045-0.002-0.067-0.005l-10.309-1.611-10.309 1.611c-0.001 0-0.002 0-0.002 0v0c-0 0-0.001 0-0.001 0s-0.001 0-0.001 0h-0.001c-0 0-0.001 0.001-0.001 0s-0.001 0-0.002 0c-0-0-0.001 0-0.001 0s-0.001 0-0.001 0-0.001 0-0.001 0-0.001 0-0.001 0v0c-0.014 0.002-0.027 0.003-0.041 0.003-0 0-0.001 0-0.001 0s-0.001 0-0.001 0h-0.001c-0.001 0-0.002-0.001-0.003 0h-0.001c-0.001 0-0.001-0-0.001 0h-0.005c-0.001 0-0.001-0-0.001 0h-0.003c-0.001-0-0.002 0-0.003 0h-0.001c-0.001 0-0.001 0-0.001 0s-0.001 0-0.001 0-0.001 0-0.001 0c0.001 0.001-0.003-0-0.004-0v0h-0.002c-0-0-0.001-0-0.001 0-0.016-0.001-0.031-0.002-0.046-0.005l-10.376-1.621c-0.213-0.033-0.37-0.216-0.37-0.431v-21.235c0-0.127 0.056-0.248 0.153-0.331s0.225-0.119 0.351-0.1l10.309 1.611 10.308-1.611c0.021-0.003 0.042-0.005 0.063-0.005h0.011c0.021 0 0.042 0.002 0.062 0.005l10.375 1.621c0.212 0.033 0.369 0.216 0.369 0.431v21.235c0 0.127-0.056 0.248-0.153 0.331-0.079 0.068-0.18 0.105-0.283 0.105zM11.248 22.813v4.105l9.503-1.485v-5.255c-0.305-0.050-0.582-0.152-0.831-0.305-1.113-0.684-1.423-2.238-1.751-3.883-0.357-1.79-0.726-3.64-2.070-4.668-2.060-1.575-3.948-0.922-4.665-0.568-0.063 0.031-0.126 0.064-0.187 0.098v4.863c0.018 0.016 0.036 0.033 0.054 0.049 1.619 1.464 3.633 3.286 1.626 5.666-0.535 0.634-1.105 1.080-1.681 1.383zM21.624 25.433l9.503 1.485v-20.351l-9.503-1.485v14.232c0.181-0.025 0.374-0.067 0.581-0.125 3.953-1.102 4.025-5.293 3.963-6.478-0.123 0.025-0.25 0.039-0.381 0.039-1.034 0-1.875-0.841-1.875-1.875s0.841-1.875 1.875-1.875c1.034 0 1.875 0.841 1.875 1.875 0 0.567-0.253 1.076-0.652 1.421 0 0.003 0.001 0.005 0.001 0.008 0.007 0.063 0.672 6.265-4.572 7.726-0.288 0.080-0.56 0.135-0.816 0.163zM0.873 25.433l9.503 1.485v-3.749c-1.914 0.571-3.737-0.172-4.419-0.51-0.287 0.273-0.675 0.44-1.101 0.44-0.881 0-1.598-0.717-1.598-1.598s0.717-1.598 1.598-1.598 1.598 0.717 1.598 1.598c0 0.142-0.019 0.279-0.053 0.41 0.635 0.317 2.286 0.982 3.974 0.341v-6.151c-0.957-0.877-1.783-1.73-1.783-2.734 0-1.094 0.694-2.229 1.783-2.995v-3.805l-9.503-1.485v20.352zM4.856 20.776c-0.4 0-0.726 0.325-0.726 0.726s0.325 0.726 0.726 0.726 0.726-0.325 0.726-0.726c0-0.4-0.325-0.726-0.726-0.726zM11.248 16.9v4.895c0.346-0.236 0.687-0.54 1.014-0.927 1.23-1.458 0.51-2.531-1.014-3.968zM13.284 9.446c1.157 0 2.322 0.4 3.346 1.183 1.605 1.227 2.025 3.333 2.396 5.19 0.29 1.453 0.564 2.826 1.352 3.311 0.113 0.069 0.237 0.122 0.374 0.157v-14.206l-9.503 1.485v3.312c0.654-0.29 1.344-0.433 2.035-0.433zM10.376 11.497c-0.569 0.552-0.911 1.226-0.911 1.87 0 0.475 0.39 0.997 0.911 1.527v-3.397zM25.788 9.872c-0.553 0-1.003 0.45-1.003 1.003s0.45 1.003 1.003 1.003 1.003-0.45 1.003-1.003c0-0.553-0.45-1.003-1.003-1.003z"></path>
</svg>
