<?xml version="1.0" encoding="utf-8"?>
<!-- Generated by IcoMoon.io -->
<!DOCTYPE svg PUBLIC "-//W3C//DTD SVG 1.1//EN" "http://www.w3.org/Graphics/SVG/1.1/DTD/svg11.dtd">
<svg version="1.1" xmlns="http://www.w3.org/2000/svg" xmlns:xlink="http://www.w3.org/1999/xlink" width="32" height="32" viewBox="0 0 32 32">
<path d="M17.14 32h-13.44c-0.221 0-0.4-0.179-0.4-0.4v-1.68h-0.293c-0.838 0-1.52-0.682-1.52-1.52v-23.36c0-1.309 1.065-2.373 2.373-2.373h13.12c1.309 0 2.373 1.065 2.373 2.373v7.68h0.68c1.522 0 2.76 1.238 2.76 2.76v9.643c0 0.718 0.584 1.303 1.303 1.303h0.035c0.718 0 1.303-0.584 1.303-1.303v-16.921c0-0.995 0.287-1.962 0.83-2.797l0.875-1.344 2.644-3.887c0.125-0.183 0.373-0.23 0.556-0.106s0.23 0.373 0.106 0.556l-1.963 2.885h0.008c0.948 0 1.72 0.772 1.72 1.72s-0.772 1.72-1.72 1.72c-0.714 0-1.327-0.437-1.587-1.057-0.437 0.692-0.668 1.49-0.668 2.31v16.921c0 1.16-0.943 2.103-2.103 2.103h-0.035c-1.16 0-2.103-0.943-2.103-2.103v-9.644c0-1.081-0.879-1.96-1.96-1.96h-0.68v14.88c0 0.838-0.682 1.52-1.52 1.52h-0.293v1.68c0 0.221-0.179 0.4-0.4 0.4zM4.1 31.2h12.64v-1.28h-12.64v1.28zM17.14 29.12h0.693c0.397 0 0.72-0.323 0.72-0.72v-23.36c0-0.867-0.706-1.573-1.573-1.573h-13.12c-0.868 0-1.573 0.706-1.573 1.573v23.36c0 0.397 0.323 0.72 0.72 0.72h14.133zM28.489 4.31c-0.507 0-0.92 0.413-0.92 0.92s0.413 0.92 0.92 0.92c0.507 0 0.92-0.413 0.92-0.92s-0.413-0.92-0.92-0.92zM16.1 12.98h-11.307c-0.706 0-1.28-0.574-1.28-1.28v-5.76c0-0.706 0.574-1.28 1.28-1.28h11.307c0.706 0 1.28 0.574 1.28 1.28v5.76c0 0.706-0.574 1.28-1.28 1.28zM4.793 5.46c-0.265 0-0.48 0.215-0.48 0.48v5.76c0 0.265 0.215 0.48 0.48 0.48h11.307c0.265 0 0.48-0.215 0.48-0.48v-5.76c0-0.265-0.215-0.48-0.48-0.48h-11.307zM15.060 10.88h-1.467c-0.221 0-0.4-0.179-0.4-0.4v-3.52c0-0.221 0.179-0.4 0.4-0.4h1.467c0.221 0 0.4 0.179 0.4 0.4v3.52c0 0.221-0.179 0.4-0.4 0.4zM13.993 10.080h0.666v-2.72h-0.666v2.72zM12.367 10.88h-1.467c-0.221 0-0.4-0.179-0.4-0.4v-3.52c0-0.221 0.179-0.4 0.4-0.4h1.467c0.221 0 0.4 0.179 0.4 0.4v3.52c0 0.221-0.179 0.4-0.4 0.4zM11.3 10.080h0.667v-2.72h-0.667v2.72zM9.633 10.88c-0.221 0-0.4-0.179-0.4-0.4v-3.52c0-0.221 0.179-0.4 0.4-0.4s0.4 0.179 0.4 0.4v3.52c0 0.221-0.179 0.4-0.4 0.4z"></path>
</svg>
