<?xml version="1.0" encoding="utf-8"?>
<!-- Generated by IcoMoon.io -->
<!DOCTYPE svg PUBLIC "-//W3C//DTD SVG 1.1//EN" "http://www.w3.org/Graphics/SVG/1.1/DTD/svg11.dtd">
<svg version="1.1" xmlns="http://www.w3.org/2000/svg" xmlns:xlink="http://www.w3.org/1999/xlink" width="32" height="32" viewBox="0 0 32 32">
<path d="M28.933 29.455h-3.96c-0.233 0-0.422-0.189-0.422-0.422v-1.836h-17.101v1.836c0 0.233-0.189 0.422-0.422 0.422h-3.96c-0.233 0-0.422-0.189-0.422-0.422v-1.842c-1.474-0.095-2.645-1.324-2.645-2.822v-18.995c0-1.559 1.268-2.828 2.828-2.828h26.345c1.559 0 2.828 1.269 2.828 2.828v18.995c0 1.498-1.171 2.727-2.645 2.822v1.842c0 0.233-0.189 0.422-0.422 0.422zM25.395 28.611h3.116v-1.414h-3.116v1.414zM3.489 28.611h3.116v-1.414h-3.116v1.414zM28.933 26.352h0.239c1.094 0 1.984-0.89 1.984-1.984v-18.995c0-1.094-0.89-1.984-1.984-1.984h-26.345c-1.094 0-1.984 0.89-1.984 1.984v18.995c0 1.094 0.89 1.984 1.984 1.984h26.105zM27.428 24.75h-22.855c-1.063 0-1.927-0.865-1.927-1.927v-15.903c0-1.063 0.865-1.927 1.927-1.927h22.855c1.063 0 1.927 0.865 1.927 1.927v15.903c0 1.063-0.865 1.927-1.927 1.927zM4.572 5.836c-0.597 0-1.083 0.486-1.083 1.083v15.903c0 0.597 0.486 1.083 1.083 1.083h22.855c0.597 0 1.083-0.486 1.083-1.083v-15.903c0-0.597-0.486-1.083-1.083-1.083h-22.855zM10.713 19.492c-0.233 0-0.422-0.189-0.422-0.422v-0.555c-0.736-0.085-1.406-0.388-1.944-0.843l-0.456 0.456c-0.165 0.165-0.432 0.165-0.597 0s-0.165-0.432 0-0.597l0.475-0.475c-0.375-0.503-0.623-1.105-0.7-1.759h-0.544c-0.233 0-0.422-0.189-0.422-0.422s0.189-0.422 0.422-0.422h0.542c0.078-0.684 0.344-1.312 0.746-1.829l-0.404-0.404c-0.165-0.165-0.165-0.432 0-0.597s0.432-0.165 0.597 0l0.397 0.397c0.528-0.429 1.177-0.714 1.887-0.795v-0.543c0-0.233 0.189-0.422 0.422-0.422s0.422 0.189 0.422 0.422v0.543c0.738 0.085 1.411 0.39 1.95 0.848l0.45-0.45c0.165-0.165 0.432-0.165 0.597 0s0.165 0.432 0 0.597l-0.47 0.47c0.373 0.503 0.62 1.105 0.695 1.758h0.543c0.233 0 0.422 0.189 0.422 0.422s-0.189 0.422-0.422 0.422h-0.543c-0.077 0.668-0.334 1.281-0.721 1.791l0.447 0.448c0.165 0.165 0.165 0.432 0 0.597s-0.432 0.165-0.597 0l-0.435-0.435c-0.533 0.443-1.194 0.738-1.918 0.821v0.555c0 0.233-0.189 0.422-0.422 0.422zM10.713 12.046c-1.558 0-2.824 1.267-2.824 2.824s1.267 2.824 2.824 2.824 2.824-1.267 2.824-2.824c0-1.557-1.267-2.824-2.824-2.824zM10.713 16.657c-0.985 0-1.787-0.801-1.787-1.787s0.801-1.786 1.787-1.786c0.985 0 1.786 0.801 1.786 1.786s-0.801 1.787-1.786 1.787zM10.713 13.928c-0.52 0-0.942 0.423-0.942 0.942s0.423 0.942 0.942 0.942c0.52 0 0.942-0.423 0.942-0.942s-0.423-0.942-0.942-0.942zM25.431 16.445h-7.293c-0.233 0-0.422-0.189-0.422-0.422v-2.305c0-0.233 0.189-0.422 0.422-0.422h7.293c0.233 0 0.422 0.189 0.422 0.422v2.305c0 0.233-0.189 0.422-0.422 0.422zM18.56 15.601h6.448v-1.461h-6.448v1.461z"></path>
</svg>
