<?xml version="1.0" encoding="utf-8"?>
<!-- Generated by IcoMoon.io -->
<!DOCTYPE svg PUBLIC "-//W3C//DTD SVG 1.1//EN" "http://www.w3.org/Graphics/SVG/1.1/DTD/svg11.dtd">
<svg version="1.1" xmlns="http://www.w3.org/2000/svg" xmlns:xlink="http://www.w3.org/1999/xlink" width="32" height="32" viewBox="0 0 32 32">
<path d="M31.585 31.973c-0.229 0-0.415-0.186-0.415-0.415v-1.060h-4.279v1.060c0 0.229-0.186 0.415-0.415 0.415s-0.415-0.186-0.415-0.415v-1.060h-4.279v1.060c0 0.229-0.186 0.415-0.415 0.415s-0.415-0.186-0.415-0.415v-1.211c-0.019-0.023-0.035-0.048-0.049-0.075l-4.903-9.546-4.903 9.546c-0.014 0.027-0.030 0.052-0.049 0.075v1.211c0 0.229-0.186 0.415-0.415 0.415s-0.415-0.186-0.415-0.415v-1.060h-4.279v1.060c0 0.229-0.186 0.415-0.415 0.415s-0.415-0.186-0.415-0.415v-1.060h-4.279v1.060c0 0.229-0.186 0.415-0.415 0.415s-0.415-0.186-0.415-0.415v-1.483c0.001-0.077 0.024-0.148 0.061-0.21l15.456-26.097-1.867-3.115c-0.118-0.197-0.054-0.451 0.143-0.569s0.451-0.054 0.569 0.143l1.638 2.733 1.638-2.733c0.118-0.197 0.373-0.26 0.569-0.143s0.26 0.372 0.143 0.569l-1.867 3.115 15.456 26.096c0.039 0.063 0.062 0.138 0.062 0.218v1.475c-0 0.229-0.186 0.415-0.415 0.415zM26.476 29.669h4.381l-7.957-13.435-2.037 2.037c-0.156 0.156-0.431 0.156-0.587 0l-2.030-2.030-1.993 1.993c-0.156 0.156-0.431 0.156-0.587 0l-2.033-2.033-2.11 2.11c-0.162 0.162-0.425 0.162-0.587 0l-1.927-1.927-7.868 13.285h9.332l5.156-10.039c0.071-0.138 0.214-0.225 0.369-0.225s0.298 0.087 0.369 0.225l5.156 10.039h4.951zM9.447 15.647l1.784 1.784 2.11-2.11c0.078-0.078 0.183-0.121 0.293-0.121v0c0.11 0 0.216 0.044 0.293 0.121l2.033 2.033 1.993-1.993c0.162-0.162 0.425-0.162 0.587 0l2.030 2.030 1.894-1.894-6.464-10.915z"></path>
</svg>
